<svg xmlns="http://www.w3.org/2000/svg" width="1920" height="1080" viewBox="0 0 1920 1080" version="1.1">
	<path fill-opacity="0.549" d="M 0 540 L 0 1080 424.500 1080 C 840.723 1080, 849 1079.963, 849 1078.102 C 849 1077.058, 850.120 1074.246, 851.488 1071.852 C 852.856 1069.458, 853.981 1066.295, 853.988 1064.821 C 853.995 1063.348, 854.691 1061.452, 855.535 1060.608 C 856.380 1059.763, 857.885 1056.468, 858.880 1053.286 C 860.114 1049.339, 861.397 1047.182, 862.916 1046.500 C 864.141 1045.950, 866.061 1043.377, 867.181 1040.783 C 868.333 1038.115, 870.089 1035.789, 871.222 1035.430 C 873.045 1034.851, 873.164 1034.240, 872.539 1028.647 C 871.203 1016.688, 871.225 1010.794, 872.618 1008.125 C 874.203 1005.087, 874.454 999.322, 873.023 998.833 C 872.485 998.650, 871.740 996.967, 871.366 995.092 C 870.737 991.934, 870.849 991.727, 872.905 992.265 C 875.348 992.904, 876.375 991.233, 876.923 985.732 C 876.966 985.310, 878.469 983.510, 880.265 981.732 C 884.509 977.531, 886.571 974.231, 887.448 970.235 C 888.104 967.248, 890 965.631, 890 968.059 C 890 968.641, 890.432 968.851, 890.959 968.525 C 891.506 968.188, 891.678 965.257, 891.360 961.716 C 890.947 957.105, 891.213 954.726, 892.391 952.500 C 893.941 949.573, 893.907 949.432, 890.990 946.699 C 887.332 943.273, 887.113 941, 890.441 941 C 894.148 941, 894.348 939.417, 890.917 937.244 L 887.837 935.294 891.477 933.146 C 893.479 931.965, 894.841 930.552, 894.504 930.007 C 894.167 929.462, 894.352 928.225, 894.915 927.258 C 895.647 926.002, 895.948 925.904, 895.970 926.917 C 895.986 927.696, 896.261 928.072, 896.580 927.753 C 896.899 927.434, 896.436 926.069, 895.552 924.720 C 893.990 922.336, 894.031 922.230, 896.972 921.012 C 901.516 919.129, 900.635 918, 894.622 918 C 889.573 918, 886.035 916.298, 887.675 914.658 C 888.736 913.598, 898.822 913.903, 899.510 915.016 C 900.518 916.648, 902 915.097, 902 912.410 C 902 911.050, 901.386 909.702, 900.637 909.414 C 899.495 908.976, 899.488 908.290, 900.593 905.195 C 902.794 899.029, 902.255 897.426, 895.885 891.197 L 893.270 888.640 895.689 886.220 C 897.720 884.190, 897.883 883.615, 896.704 882.650 C 895.931 882.018, 894.051 879.810, 892.526 877.743 C 890.390 874.850, 889.890 873.298, 890.353 870.987 C 890.903 868.233, 888.260 861.709, 884.825 857.348 C 883.992 856.291, 881.721 831.790, 881.919 826 C 881.966 824.625, 882.679 823, 883.502 822.390 C 884.326 821.779, 885 820.473, 885 819.488 C 885 817.248, 891.059 809.073, 892.750 809.031 C 893.438 809.014, 893.947 808.663, 893.882 808.250 C 893.320 804.695, 894.229 800.864, 895.750 800.378 C 897.522 799.812, 899.238 799.158, 904.297 797.125 C 905.835 796.506, 908.423 796, 910.047 796 C 913.449 796, 913.908 794.556, 911 793 C 908.549 791.688, 908.362 789, 910.722 789 C 913.900 789, 925.918 784.760, 925.708 783.713 C 925.594 783.143, 926.625 782.392, 928 782.043 C 929.960 781.547, 930.500 780.771, 930.500 778.455 C 930.500 776.597, 930.028 775.595, 929.229 775.757 C 928.325 775.940, 928.149 775.219, 928.620 773.257 C 928.984 771.741, 929.406 770.349, 929.559 770.165 C 929.712 769.981, 929.376 768.509, 928.813 766.894 C 928.066 764.751, 928.119 763.561, 929.010 762.488 C 930.338 760.888, 929.529 752, 928.055 752 C 926.253 752, 926.290 748.047, 928.108 746.402 C 929.544 745.103, 930 743.311, 930 738.967 C 930 732.225, 932.154 726.403, 934.981 725.506 C 936.089 725.154, 937.266 723.789, 937.597 722.471 C 938.327 719.560, 937.673 711.219, 936.507 708.586 C 935.856 707.115, 935.970 706.864, 937 707.500 C 938.017 708.129, 938.157 707.867, 937.582 706.414 C 936.175 702.860, 935.654 685.514, 936.886 683.214 C 938.980 679.301, 940.090 671.037, 938.836 668.694 C 938.207 667.519, 937.749 665.047, 937.819 663.201 C 937.888 661.356, 937.315 658.868, 936.545 657.673 C 935.576 656.169, 935.200 652.816, 935.322 646.788 C 935.420 641.996, 935.806 638.846, 936.180 639.788 C 936.907 641.621, 936.998 641.144, 937.593 632.300 C 937.749 629.990, 938.408 627.106, 939.058 625.892 C 940.652 622.913, 941.290 603.717, 940.001 597.500 C 939.374 594.475, 939.297 590.723, 939.806 588 C 940.394 584.860, 940.258 582.593, 939.357 580.500 C 938.403 578.285, 938.229 574.099, 938.692 564.500 C 939.217 553.616, 939.651 551.050, 941.357 548.737 C 942.765 546.828, 943.295 544.818, 943.069 542.237 C 942.889 540.182, 942.834 536.475, 942.946 534 C 943.305 526.097, 943.170 518.784, 942.456 507.583 C 941.740 496.341, 942.958 487.148, 945.580 484 C 946.454 482.951, 946.872 477.542, 946.973 466 C 947.052 456.925, 947.202 445.450, 947.306 440.500 C 947.410 435.550, 947.286 422.050, 947.031 410.500 C 946.581 390.083, 946.631 389.379, 948.862 385.136 C 950.750 381.546, 951.043 379.864, 950.518 375.636 C 950.167 372.811, 949.390 369.233, 948.792 367.685 C 947.986 365.601, 948.041 363.085, 949.002 357.988 C 950.073 352.314, 950.068 349.742, 948.972 343.339 C 948.242 339.067, 947.725 333.306, 947.824 330.536 C 948.409 314.148, 948.296 309.767, 947.117 303 C 946.398 298.875, 945.628 290.352, 945.406 284.060 C 945.155 276.958, 944.568 272.351, 943.857 271.912 C 943.122 271.458, 942.940 269.778, 943.348 267.227 C 943.697 265.040, 943.562 261.957, 943.047 260.376 C 942.532 258.794, 941.884 255.925, 941.607 254 C 941.330 252.075, 940.564 247.350, 939.905 243.500 C 939.246 239.650, 938.624 231.550, 938.524 225.500 C 938.327 213.685, 936.596 192.774, 935.693 191.313 C 935.391 190.823, 934.649 184.815, 934.045 177.961 C 932.307 158.232, 927.266 128.396, 923.407 115 C 922.536 111.975, 921.446 107.700, 920.985 105.500 C 919.266 97.297, 915.908 83.660, 915.407 82.850 C 915.122 82.388, 913.832 76.721, 912.541 70.255 C 909.295 54.004, 907.168 44.935, 904.272 35 C 900.085 20.639, 898.826 15.796, 897.186 7.750 L 895.606 0 447.803 0 L 0 0 0 540 M 912.288 2.250 C 912.574 3.488, 913.807 7.650, 915.028 11.500 C 916.249 15.350, 918.021 21.200, 918.966 24.500 C 919.911 27.800, 920.940 31.175, 921.253 32 C 922.146 34.354, 927.998 54.061, 929.122 58.500 C 929.680 60.700, 930.512 63.850, 930.973 65.500 C 933.713 75.314, 941.305 108.516, 945.150 127.500 C 946.264 133, 949.196 147.400, 951.666 159.500 C 954.136 171.600, 957.944 190.500, 960.128 201.500 C 962.312 212.500, 965.007 225.775, 966.116 231 C 973.754 266.992, 984.430 347.538, 990.038 411.500 C 990.569 417.550, 991.221 423.625, 991.488 425 C 992.147 428.393, 993.745 451.951, 995.523 484.500 C 996.335 499.350, 997.456 517.575, 998.016 525 C 998.575 532.425, 999.705 557.625, 1000.526 581 C 1002.026 623.685, 1004.951 679.032, 1006.630 696.500 C 1008.871 719.819, 1008.498 846.920, 1006.124 869 C 1005.562 874.225, 1004.610 888.175, 1004.008 900 C 1003.406 911.825, 1002.219 926.225, 1001.372 932 C 1000.524 937.775, 999.464 947.225, 999.015 953 C 998.566 958.775, 997.437 967.550, 996.505 972.500 C 995.574 977.450, 994.471 985.325, 994.055 990 C 993.366 997.738, 991.196 1010.851, 987.520 1029.500 C 983.311 1050.847, 980.974 1065.028, 980.986 1069.143 C 980.996 1072.357, 980.538 1073.963, 979.500 1074.362 C 978.675 1074.678, 978 1076.076, 978 1077.469 L 978 1080 1449 1080 L 1920 1080 1920 540 L 1920 0 1415.883 0 L 911.767 0 912.288 2.250 M 1130 569 C 1130 569.550, 1130.675 570, 1131.500 570 C 1132.325 570, 1133 569.550, 1133 569 C 1133 568.450, 1132.325 568, 1131.500 568 C 1130.675 568, 1130 568.450, 1130 569 M 1133 572.310 C 1133 573.122, 1133.708 574.058, 1134.573 574.390 C 1135.669 574.810, 1136.048 574.489, 1135.823 573.329 C 1135.412 571.213, 1133 570.341, 1133 572.310 M 1144.638 575.500 C 1144.288 576.414, 1144.637 577, 1145.531 577 C 1146.339 577, 1147 576.325, 1147 575.500 C 1147 574.675, 1146.598 574, 1146.107 574 C 1145.616 574, 1144.955 574.675, 1144.638 575.500 M 1012 896 C 1012 897.949, 1013.061 898.606, 1014.264 897.402 C 1015.066 896.601, 1014.017 894, 1012.893 894 C 1012.402 894, 1012 894.900, 1012 896" stroke="none" fill="black" fill-rule="evenodd"/>
	<path fill-opacity="0.504" d="M 0 540 L 0 1080 404 1080 C 788.096 1080, 808 1079.914, 807.997 1078.250 C 807.993 1075.398, 812.261 1068.198, 814.744 1066.869 C 816.010 1066.192, 816.872 1065.157, 816.660 1064.569 C 816.069 1062.932, 818.782 1058.187, 820.980 1057.011 C 822.693 1056.094, 822.788 1055.628, 821.732 1053.310 C 820.735 1051.122, 820.777 1050.574, 821.975 1050.175 C 822.773 1049.909, 824.343 1048.581, 825.463 1047.224 C 826.583 1045.868, 829.975 1042.088, 833 1038.825 C 837.526 1033.944, 838.617 1032.061, 839.158 1028.197 C 839.521 1025.613, 840.396 1021.607, 841.103 1019.294 C 842.235 1015.593, 842.186 1014.863, 840.695 1013.215 C 838.724 1011.038, 838.493 1007.907, 840.178 1006.222 C 841.082 1005.318, 840.829 1004.586, 839.086 1003.075 C 837.838 1001.992, 837.103 1000.643, 837.452 1000.077 C 837.802 999.511, 837.571 996.225, 836.940 992.774 C 836.308 989.323, 835.614 985.526, 835.398 984.335 C 835.176 983.112, 833.698 981.591, 832.002 980.841 C 827.920 979.034, 828.393 975.619, 832.739 975.526 C 834.080 975.498, 834.243 974.797, 833.411 972.629 C 832.414 970.031, 837.154 966.333, 842.192 965.777 C 844.773 965.492, 847.617 964.526, 848.513 963.629 C 849.410 962.733, 850.498 962, 850.932 962 C 851.365 962, 853.424 960.393, 855.506 958.429 C 859.104 955.036, 859.239 954.686, 858.223 951.375 C 857.226 948.127, 857.324 947.827, 859.671 946.935 L 862.188 945.978 859.094 942.454 C 857.392 940.516, 856 938.099, 856 937.082 C 856 934.975, 860.054 933.470, 861.113 935.183 C 861.926 936.498, 865 935.540, 865 933.972 C 865 933.373, 864.588 933.137, 864.084 933.448 C 863.580 933.759, 861.702 932.548, 859.911 930.757 C 858.120 928.966, 856.394 927.488, 856.077 927.474 C 855.760 927.460, 854.661 926.963, 853.636 926.371 C 852.055 925.456, 851.955 924.953, 852.975 923.047 C 853.861 921.392, 854.822 920.924, 856.628 921.269 C 858.169 921.564, 858.931 921.322, 858.679 920.619 C 858.459 920.004, 857.344 919.602, 856.200 919.728 C 854.850 919.875, 853.889 919.226, 853.461 917.877 C 852.548 915.001, 854.246 913.526, 856.859 914.925 C 859.387 916.277, 866.679 915.278, 867.368 913.484 C 867.638 912.781, 866.540 911.030, 864.929 909.595 C 863.318 908.159, 862 906.369, 862 905.617 C 862 904.865, 860.762 903.996, 859.250 903.686 C 857.737 903.377, 855.888 902.122, 855.140 900.899 C 853.921 898.906, 854.018 898.495, 856.065 896.951 C 857.321 896.003, 858.472 894.390, 858.623 893.365 C 858.773 892.341, 859.730 890.827, 860.750 890.001 C 861.770 889.176, 862.705 888.167, 862.829 887.760 C 862.953 887.354, 863.333 886.296, 863.673 885.410 C 864.013 884.523, 863.849 883.506, 863.308 883.149 C 862.767 882.792, 862.077 881.521, 861.775 880.325 C 861.377 878.745, 861.606 878.295, 862.613 878.682 C 863.376 878.975, 864 878.775, 864 878.239 C 864 877.702, 862.165 877.017, 859.922 876.716 C 852.539 875.726, 850.552 871.510, 854.649 865.527 C 856.597 862.683, 856.461 854, 854.469 854 C 853.626 854, 852.697 854.625, 852.404 855.390 C 852 856.442, 851.253 856.162, 849.330 854.239 C 847.106 852.015, 846.989 851.585, 848.394 850.799 C 850.818 849.443, 850.335 847.037, 847 843.850 C 844.787 841.735, 844 840.067, 844 837.491 C 844 835.571, 843.550 834, 843 834 C 841.398 834, 841.838 831.390, 844.079 827.590 C 846.195 824.004, 845.988 822, 843.500 822 C 841.251 822, 840.782 820.191, 842.041 816.375 C 842.960 813.591, 842.953 812.280, 842.009 810.517 C 840.997 808.627, 841.102 807.763, 842.634 805.373 C 843.646 803.793, 845.042 801.905, 845.737 801.179 C 846.432 800.452, 847 799.524, 847 799.117 C 847 797.425, 851.243 794, 853.339 794 C 859.113 794, 858.543 789.709, 852.263 785.892 C 850.193 784.635, 848.275 783.348, 848 783.032 C 847.725 782.717, 846.263 781.916, 844.750 781.251 C 843.238 780.587, 842.012 779.696, 842.027 779.271 C 842.041 778.847, 844.535 777.246, 847.567 775.712 C 851.830 773.557, 853.865 773.072, 856.540 773.574 C 858.655 773.970, 860 773.825, 860 773.200 C 860 771.481, 867.135 773.907, 870.177 776.660 C 872.293 778.576, 876.243 777.526, 875.805 775.165 C 875.635 774.249, 874.034 773.069, 872.248 772.543 C 867.161 771.045, 868.418 770, 875.309 770 C 878.993 770, 882.378 769.444, 883.444 768.665 C 885.326 767.288, 889.611 767.562, 890.574 769.119 C 890.873 769.604, 891.766 770, 892.559 770 C 894.205 770, 894.568 765.469, 893 764.500 C 891.150 763.357, 891.979 761.222, 894.522 760.584 C 896.518 760.083, 896.859 759.591, 896.157 758.225 C 895.669 757.276, 895.472 755.938, 895.718 755.250 C 896.292 753.650, 901 753.606, 901 755.200 C 901 756.089, 901.292 756.108, 902.125 755.275 C 903.849 753.551, 902.278 747.403, 899.175 743.729 C 895.850 739.792, 894.326 736.604, 893.567 732 C 893.249 730.075, 892.317 727.211, 891.495 725.636 C 889.580 721.967, 889.583 719, 891.500 719 C 892.419 719, 893 718.065, 893 716.588 C 893 714.554, 893.626 714.070, 896.989 713.502 C 900.480 712.912, 900.855 712.597, 899.990 710.981 C 899.205 709.515, 899.412 709.004, 900.992 708.503 C 902.086 708.155, 903.436 708.152, 903.991 708.494 C 904.587 708.863, 905 707.842, 905 706 C 905 704.176, 904.585 703.138, 904 703.500 C 903.450 703.840, 903 703.339, 903 702.388 C 903 701.436, 902.385 699.947, 901.633 699.079 C 900.881 698.210, 898.452 694.081, 896.236 689.901 L 892.206 682.303 894.300 678.994 C 895.453 677.175, 896.569 676.207, 896.781 676.843 C 897.252 678.257, 901 678.397, 901 677 C 901 675.635, 903.743 675.728, 904.203 677.110 C 904.449 677.847, 904.959 677.754, 905.722 676.834 C 906.628 675.744, 906.011 674.345, 902.820 670.249 C 900.223 666.917, 898.992 664.462, 899.394 663.416 C 899.973 661.906, 900.208 661.906, 902.510 663.415 C 903.880 664.312, 905 664.756, 905 664.401 C 905 664.046, 905.631 664.279, 906.403 664.920 C 907.958 666.210, 914 668.150, 914 667.359 C 914 666.433, 911.154 664, 910.071 664 C 909.482 664, 909 663.550, 909 663 C 909 662.450, 910.155 662, 911.567 662 C 913.770 662, 914.036 661.680, 913.436 659.750 C 913.052 658.512, 912.149 657.155, 911.429 656.734 C 909.970 655.880, 904.776 648.466, 903.734 645.750 C 903.261 644.516, 903.569 643.971, 904.781 643.901 C 911.680 643.506, 911.490 643.605, 911.815 640.224 C 912.015 638.147, 911.330 635.652, 909.944 633.410 C 908.172 630.543, 907.859 628.889, 908.292 624.686 C 908.586 621.834, 908.442 617.700, 907.971 615.500 C 907.500 613.300, 906.860 610.278, 906.548 608.785 C 906.154 606.906, 905.521 606.246, 904.490 606.642 C 902.835 607.277, 902.423 605.475, 904 604.500 C 904.550 604.160, 905.014 601.996, 905.032 599.691 C 905.049 597.386, 905.724 594.626, 906.532 593.559 C 907.339 592.491, 908 590.444, 908 589.009 C 908 587.574, 908.545 585.855, 909.210 585.190 C 910.324 584.076, 910.601 582.361, 910.894 574.750 C 910.952 573.237, 911.900 571.100, 913 570 C 915.525 567.475, 915.531 565.531, 913.023 563.023 C 909.139 559.139, 907.885 554.046, 907.358 540 C 906.856 526.649, 906.878 526.471, 909.350 523.875 C 911.188 521.945, 911.554 520.954, 910.735 520.135 C 909.915 519.315, 910.200 517.989, 911.810 515.124 C 913.015 512.981, 914 509.587, 914 507.582 C 914 505.576, 914.675 502.320, 915.500 500.346 C 916.325 498.371, 917 495.741, 917 494.500 C 917 493.259, 917.997 491.582, 919.216 490.773 L 921.432 489.302 918.612 485.951 C 916.010 482.859, 915.826 482.094, 916.232 476.050 C 916.657 469.722, 916.028 465.972, 913.754 461.260 C 912.979 459.654, 912.980 457.958, 913.761 455.260 C 914.359 453.192, 914.820 450.600, 914.785 449.500 C 914.751 448.400, 915.487 443.966, 916.423 439.647 C 917.668 433.896, 917.857 431.030, 917.129 428.941 C 915.617 424.603, 916.915 414.784, 919.217 413.152 C 920.345 412.352, 920.997 410.885, 920.821 409.541 C 920.658 408.296, 921.152 406.521, 921.920 405.597 C 922.977 404.323, 923.034 403.634, 922.158 402.758 C 921.496 402.096, 921 398.526, 921 394.422 C 921 389.163, 920.586 386.902, 919.452 385.960 C 917.780 384.572, 917.883 380.381, 919.582 380.686 C 920.151 380.788, 920.723 379.062, 920.854 376.849 C 921.007 374.254, 920.720 373.055, 920.046 373.472 C 919.392 373.876, 919 372.769, 919 370.519 C 919 368.540, 918.069 365.096, 916.931 362.866 C 915.194 359.461, 914.924 357.424, 915.244 350.155 C 915.453 345.395, 916.146 340.150, 916.784 338.500 C 917.421 336.850, 918.194 334.244, 918.501 332.709 C 918.808 331.174, 919.495 330.188, 920.029 330.518 C 920.630 330.889, 921 327.661, 921 322.059 C 921 316.686, 920.593 313, 920 313 C 919.450 313, 919.007 312.212, 919.015 311.250 C 919.024 310.262, 919.350 309.935, 919.765 310.500 C 920.169 311.050, 921.573 312.104, 922.884 312.842 C 926.131 314.670, 926.885 313.164, 925.887 306.848 C 925.448 304.073, 925.343 300.536, 925.653 298.987 C 926.003 297.234, 925.187 293.143, 923.489 288.146 C 921.045 280.955, 920.857 279.461, 921.677 273.755 C 922.426 268.551, 922.272 266.485, 920.838 262.444 C 919.663 259.133, 919.069 254.428, 919.042 248.200 C 919.013 241.739, 918.516 237.966, 917.416 235.837 C 916.397 233.867, 915.510 228.086, 914.931 219.637 C 913.880 204.318, 913.341 200.337, 911.379 193.382 C 910.584 190.566, 909.763 185.841, 909.554 182.882 C 909.345 179.922, 908.674 173.900, 908.064 169.500 C 907.454 165.100, 906.566 154.975, 906.092 147 C 905.617 139.025, 904.733 131.249, 904.127 129.719 C 903.522 128.189, 902.789 122.016, 902.500 116 C 902.211 109.984, 901.519 103.865, 900.963 102.402 C 900.407 100.940, 898.836 94.584, 897.473 88.278 C 893.965 72.052, 889.126 52.252, 887.437 47.215 C 886.646 44.858, 886 41.647, 886 40.079 C 886 38.511, 885.337 35.952, 884.528 34.391 C 883.718 32.830, 882.780 29.516, 882.444 27.027 C 882.108 24.537, 880.520 18.519, 878.916 13.653 C 877.312 8.787, 876 3.724, 876 2.403 L 876 0 438 0 L 0 0 0 540 M 917 0.485 C 917 0.752, 918.172 4.914, 919.605 9.735 C 921.039 14.556, 922.665 20.176, 923.220 22.224 C 924.030 25.209, 924.554 25.781, 925.865 25.109 C 928.185 23.919, 930 24.827, 930 27.177 C 930 28.343, 929.164 29.406, 928.010 29.708 C 926.447 30.116, 926.144 30.795, 926.602 32.864 C 927.686 37.771, 932.246 54.473, 933.738 59 C 934.554 61.475, 935.796 65.975, 936.499 69 C 937.202 72.025, 938.962 79, 940.410 84.500 C 943.869 97.633, 945.567 104.855, 951.930 133.500 C 956.606 154.549, 959.789 169.594, 961.450 178.500 C 962.271 182.900, 963.889 190.775, 965.045 196 C 966.202 201.225, 967.519 207.975, 967.973 211 C 968.426 214.025, 969.297 218.525, 969.910 221 C 970.522 223.475, 971.965 231.575, 973.117 239 C 974.268 246.425, 975.841 256.325, 976.610 261 C 979.179 276.600, 982.833 302.418, 983.474 309.500 C 983.822 313.350, 984.531 318.525, 985.049 321 C 985.567 323.475, 986.691 330.900, 987.547 337.500 C 988.403 344.100, 989.546 352.875, 990.088 357 C 990.630 361.125, 991.698 369.900, 992.461 376.500 C 993.224 383.100, 994.350 392.775, 994.963 398 C 995.576 403.225, 996.833 409.663, 997.757 412.306 C 999.080 416.094, 999.169 417.277, 998.179 417.889 C 997.276 418.448, 997.191 419.371, 997.876 421.174 C 998.400 422.553, 999.093 426.791, 999.416 430.591 C 999.739 434.391, 1000.194 438.625, 1000.427 440 C 1000.661 441.375, 1001.352 446.775, 1001.964 452 C 1002.576 457.225, 1003.480 463.750, 1003.972 466.500 C 1004.464 469.250, 1005.135 474.200, 1005.462 477.500 C 1005.790 480.800, 1006.487 486.425, 1007.012 490 C 1007.536 493.575, 1008.674 502.350, 1009.540 509.500 C 1010.406 516.650, 1011.543 524.300, 1012.067 526.500 C 1012.590 528.700, 1013.233 532.975, 1013.495 536 C 1014.029 542.171, 1016.361 563.393, 1018.496 581.500 C 1025.867 644.027, 1030.419 744.017, 1028.807 808 C 1027.622 855.066, 1024.849 901.434, 1021.510 930 C 1020.643 937.425, 1019.293 949.575, 1018.512 957 C 1017.730 964.425, 1016.423 975.225, 1015.606 981 C 1011.477 1010.207, 1009.892 1020.941, 1009.035 1025.500 C 1008.519 1028.250, 1006.907 1037.700, 1005.454 1046.500 C 1004.001 1055.300, 1002.179 1065.744, 1001.406 1069.708 C 1000.633 1073.672, 1000 1077.610, 1000 1078.458 C 1000 1079.845, 1046.189 1080, 1460 1080 L 1920 1080 1920 540 L 1920 0 1418.500 0 C 1142.675 0, 917 0.218, 917 0.485 M 1045.500 20 C 1045.840 20.550, 1046.316 21, 1046.559 21 C 1046.802 21, 1047 20.550, 1047 20 C 1047 19.450, 1046.523 19, 1045.941 19 C 1045.359 19, 1045.160 19.450, 1045.500 20 M 1042 80.059 C 1042 80.641, 1042.450 80.840, 1043 80.500 C 1043.550 80.160, 1044 79.684, 1044 79.441 C 1044 79.198, 1043.550 79, 1043 79 C 1042.450 79, 1042 79.477, 1042 80.059 M 977 166.559 C 977 167.416, 977.457 167.835, 978.016 167.490 C 978.575 167.144, 978.774 166.443, 978.457 165.931 C 977.600 164.544, 977 164.802, 977 166.559 M 968.694 199.639 C 967.895 200.438, 968.798 202, 970.059 202 C 970.577 202, 971 201.325, 971 200.500 C 971 198.954, 969.820 198.513, 968.694 199.639 M 1016 227.059 C 1016 227.641, 1016.450 227.840, 1017 227.500 C 1017.550 227.160, 1018 226.684, 1018 226.441 C 1018 226.198, 1017.550 226, 1017 226 C 1016.450 226, 1016 226.477, 1016 227.059 M 994 316.427 C 994 317.354, 994.855 318, 996.083 318 C 998.520 318, 998.176 315.663, 995.667 315.177 C 994.680 314.985, 994 315.495, 994 316.427 M 1157.389 554.639 C 1158.118 560.650, 1158.156 560.707, 1159.010 557.086 C 1159.599 554.586, 1159.427 553.284, 1158.368 552.225 C 1157.106 550.963, 1156.981 551.271, 1157.389 554.639 M 1136.317 558.434 C 1136.482 561.646, 1137.732 562.934, 1139.230 561.437 C 1140.094 560.572, 1138.537 555.679, 1137.262 555.254 C 1136.544 555.015, 1136.200 556.172, 1136.317 558.434 M 1144 558 C 1144 558.550, 1144.450 559, 1145 559 C 1145.550 559, 1146 558.550, 1146 558 C 1146 557.450, 1145.550 557, 1145 557 C 1144.450 557, 1144 557.450, 1144 558 M 1144 561.500 C 1144 562.325, 1144.450 563, 1145 563 C 1145.550 563, 1146 562.325, 1146 561.500 C 1146 560.675, 1145.550 560, 1145 560 C 1144.450 560, 1144 560.675, 1144 561.500 M 1129.200 565.200 C 1127.218 567.182, 1127.793 568.580, 1132.243 572.600 C 1135.504 575.547, 1136.557 576.062, 1136.795 574.827 C 1136.965 573.943, 1136.199 571.732, 1135.093 569.913 C 1133.610 567.475, 1133.366 566.264, 1134.164 565.303 C 1135.001 564.293, 1134.700 564, 1132.822 564 C 1131.490 564, 1129.860 564.540, 1129.200 565.200 M 1159 572.500 C 1159 573.325, 1159.436 574, 1159.969 574 C 1160.501 574, 1160.678 573.325, 1160.362 572.500 C 1160.045 571.675, 1159.609 571, 1159.393 571 C 1159.177 571, 1159 571.675, 1159 572.500 M 1143.638 573.500 C 1142.870 575.503, 1143.903 578, 1145.500 578 C 1146.207 578, 1147.045 577.325, 1147.362 576.500 C 1148.130 574.497, 1147.097 572, 1145.500 572 C 1144.793 572, 1143.955 572.675, 1143.638 573.500 M 911.496 648.007 C 911.153 648.561, 911.596 649.292, 912.480 649.631 C 914.394 650.365, 915.461 649.556, 914.541 648.067 C 913.711 646.723, 912.306 646.696, 911.496 648.007 M 879.590 756.855 C 879.299 757.325, 880.171 758.752, 881.527 760.026 C 883.720 762.086, 884.263 762.197, 886.438 761.033 L 888.883 759.725 885.230 757.862 C 881.127 755.770, 880.346 755.631, 879.590 756.855 M 896 769.500 C 896 770.325, 896.450 771, 897 771 C 897.550 771, 898 770.325, 898 769.500 C 898 768.675, 897.550 768, 897 768 C 896.450 768, 896 768.675, 896 769.500 M 1100.192 862.075 C 1100.389 862.666, 1100.977 863.150, 1101.500 863.150 C 1102.023 863.150, 1102.611 862.666, 1102.808 862.075 C 1103.005 861.484, 1102.417 861, 1101.500 861 C 1100.583 861, 1099.995 861.484, 1100.192 862.075 M 862 925 C 862 925.550, 862.477 926, 863.059 926 C 863.641 926, 863.840 925.550, 863.500 925 C 863.160 924.450, 862.684 924, 862.441 924 C 862.198 924, 862 924.450, 862 925 M 1022 988.500 C 1022 989.325, 1022.450 990, 1023 990 C 1023.550 990, 1024 989.325, 1024 988.500 C 1024 987.675, 1023.550 987, 1023 987 C 1022.450 987, 1022 987.675, 1022 988.500 M 1056 1008 C 1056 1009.289, 1056.506 1009.998, 1057.250 1009.750 C 1057.938 1009.521, 1058.500 1008.733, 1058.500 1008 C 1058.500 1007.267, 1057.938 1006.479, 1057.250 1006.250 C 1056.506 1006.002, 1056 1006.711, 1056 1008" stroke="none" fill="black" fill-rule="evenodd"/>
	<path fill-opacity="0.649" d="M 0 540 L 0 1080 361.500 1080 L 723 1080 723 1074.500 C 723 1070.278, 723.348 1069, 724.500 1069 C 725.548 1069, 726 1067.944, 726 1065.500 C 726 1063.056, 725.548 1062, 724.500 1062 C 723.367 1062, 723 1060.778, 723 1057 C 723 1052.333, 723.167 1052, 725.500 1052 C 727.333 1052, 728 1051.467, 728 1050 C 728 1048.900, 728.450 1048, 729 1048 C 729.550 1048, 730 1047.100, 730 1046 C 730 1044.900, 729.550 1044, 729 1044 C 727.714 1044, 727.688 1040.274, 728.971 1039.833 C 729.785 1039.554, 730.603 1037.010, 730.926 1033.750 C 730.967 1033.338, 731.482 1033, 732.071 1033 C 733.776 1033, 736 1030.315, 736 1028.257 C 736 1026.379, 741.485 1023, 744.534 1023 C 745.340 1023, 746 1022.550, 746 1022 C 746 1021.450, 746.338 1021.084, 746.750 1021.188 C 749.135 1021.785, 756.277 1019.494, 758.174 1017.524 C 759.396 1016.254, 760.987 1015.442, 761.711 1015.719 C 762.434 1015.997, 763.676 1015.684, 764.470 1015.025 C 765.715 1013.992, 765.643 1013.534, 763.958 1011.724 C 762.881 1010.568, 762 1009.313, 762 1008.934 C 762 1007.711, 764.434 1006.201, 766.975 1005.846 C 768.367 1005.651, 769.975 1004.442, 770.652 1003.081 C 771.312 1001.750, 772.542 1000.276, 773.385 999.804 C 774.228 999.333, 774.676 998.320, 774.382 997.554 C 773.936 996.392, 773.342 996.373, 770.797 997.443 C 769.050 998.178, 765.835 998.510, 763.270 998.221 C 760.208 997.876, 758.539 998.129, 757.987 999.020 C 757.340 1000.068, 756.877 1000.020, 755.635 998.777 C 754.239 997.382, 754.262 997.073, 755.875 995.613 C 756.858 994.723, 757.963 994.297, 758.331 994.664 C 758.699 995.032, 759 994.628, 759 993.766 C 759 992.715, 760.628 991.809, 763.950 991.012 C 766.673 990.359, 769.428 989.189, 770.073 988.412 C 770.718 987.635, 771.849 987, 772.587 987 C 774.557 987, 776.455 983.055, 775.125 981.725 C 772.572 979.172, 765.926 977.758, 755 977.443 C 741.473 977.053, 739.946 976.897, 740.520 975.967 C 741.139 974.966, 738.174 972.572, 733.250 970.096 L 729 967.959 729 961.025 L 729 954.091 732.750 953.458 C 738.810 952.436, 740 951.945, 740 950.468 C 740 948.121, 743.667 946.751, 746.250 948.134 C 747.487 948.796, 748.622 949.245, 748.771 949.131 C 749.405 948.648, 751.698 950.630, 752.251 952.138 C 753.049 954.317, 760.662 955.112, 762.262 953.184 C 762.999 952.296, 764.558 951.991, 766.637 952.329 C 771.636 953.140, 774.995 949.518, 775.015 943.298 C 775.026 939.834, 775.300 938.917, 775.999 940 C 776.531 940.825, 776.767 943.075, 776.522 945 C 776.278 946.925, 776.318 947.712, 776.612 946.750 C 776.906 945.788, 777.773 945, 778.538 945 C 782.130 945, 783.169 936.632, 780 933.230 C 777.487 930.533, 777.499 929.386, 780.100 923.508 L 782.199 918.761 780.100 915.921 C 778.945 914.359, 778 912.613, 778 912.040 C 778 911.468, 777.298 911, 776.441 911 C 772.754 911, 776.304 909.358, 780.457 909.143 C 784.406 908.939, 785.156 909.220, 785.952 911.203 C 786.458 912.466, 786.909 913.050, 786.952 912.500 C 786.995 911.950, 787.513 912.175, 788.102 913 C 788.933 914.164, 789.025 913.940, 788.512 912 C 788.149 910.625, 787.408 907.633, 786.866 905.351 C 786.325 903.069, 785.008 900.412, 783.941 899.446 C 782.873 898.480, 781.974 897.197, 781.943 896.595 C 781.912 895.993, 779.705 893.840, 777.040 891.811 L 772.194 888.122 773.497 884.311 C 774.590 881.115, 775.307 880.449, 777.938 880.184 C 780.505 879.925, 781.183 879.333, 781.663 876.934 C 781.986 875.320, 782.644 874, 783.125 874 C 784.494 874, 784.150 868.222, 782.750 867.703 C 782.047 867.442, 782.704 866.759, 784.250 866.144 C 785.762 865.542, 787 864.734, 787 864.348 C 787 863.962, 785.346 861.982, 783.324 859.948 C 778.439 855.034, 778.250 852.383, 782.732 851.656 C 786.943 850.973, 789 851.711, 789 853.907 C 789 856.403, 791.029 858, 794.200 858 C 797.402 858, 797.822 856.062, 795.500 852 C 794.714 850.625, 794.055 848.569, 794.035 847.430 C 793.990 844.774, 789.246 840.634, 786.004 840.422 C 781.165 840.105, 780.672 839.995, 781.298 839.369 C 781.645 839.021, 781.464 837.867, 780.895 836.804 C 780.091 835.302, 779.214 835.014, 776.956 835.510 C 775.358 835.861, 772.492 835.584, 770.586 834.895 C 767.550 833.797, 767.188 833.308, 767.662 830.942 C 767.959 829.457, 767.706 827.936, 767.101 827.562 C 765.325 826.465, 765.835 824.276, 768 823.710 C 769.232 823.388, 770 823.680, 770 824.469 C 770 826.954, 782.098 827.908, 787.913 825.881 L 791.124 824.761 788.842 822.332 C 787.587 820.996, 786.546 818.927, 786.530 817.736 C 786.512 816.443, 785.492 815.066, 784 814.321 C 779.938 812.293, 778 810.646, 778 809.220 C 778 808.484, 778.402 808.130, 778.893 808.434 C 779.385 808.738, 780.086 807.794, 780.451 806.338 C 781.235 803.215, 779.873 802.038, 775.450 802.015 C 773.773 802.007, 771.972 801.588, 771.450 801.085 C 770.928 800.581, 769.406 800.019, 768.070 799.835 C 765.731 799.513, 765.649 799.238, 765.897 792.511 C 766.044 788.529, 766.660 785.201, 767.328 784.776 C 768.043 784.321, 767.624 784.025, 766.250 784.015 C 764.880 784.006, 764 783.387, 764 782.432 C 764 781.123, 764.479 781.205, 766.904 782.932 C 768.502 784.069, 770.302 785, 770.904 785 C 771.507 785, 772 785.450, 772 786 C 772 787.525, 778.952 787.191, 780.554 785.589 C 781.329 784.813, 782.485 784.005, 783.121 783.793 C 785.046 783.151, 778.957 768, 776.774 768 C 775.798 768, 774.984 767.438, 774.964 766.750 C 774.944 766.063, 773.304 764.269, 771.320 762.764 C 768.284 760.460, 767.025 760.111, 763.357 760.551 C 759.222 761.047, 759 760.945, 759 758.537 C 759 756.435, 758.528 756, 756.243 756 C 752.305 756, 747.256 757.602, 745.426 759.431 C 743.238 761.620, 740 761.453, 740 759.152 C 740 757.448, 739.234 757.341, 730.186 757.777 C 720.898 758.224, 720.239 758.122, 717.878 755.875 C 715.746 753.846, 715.442 752.809, 715.792 748.750 C 716.017 746.138, 716.606 744, 717.101 744 C 717.595 744, 718 742.393, 718 740.429 C 718 735.903, 719.903 734, 724.429 734 C 726.393 734, 728 733.550, 728 733 C 728 732.450, 729.800 732, 732 732 C 734.218 732, 736 731.515, 736 730.911 C 736 730.179, 738.049 730.016, 742.250 730.411 C 751.220 731.257, 761.343 731.016, 762.451 729.930 C 762.974 729.417, 763.278 726.973, 763.126 724.499 C 762.861 720.194, 762.971 719.993, 765.674 719.844 C 767.229 719.759, 769.513 719.776, 770.750 719.882 C 771.987 719.989, 773 719.577, 773 718.966 C 773 717.274, 775.765 714.879, 777.740 714.860 C 778.708 714.851, 782.763 715.169, 786.750 715.567 C 791.331 716.024, 794 715.928, 794 715.306 C 794 713.848, 798.507 712.058, 800.719 712.637 C 801.782 712.915, 803.221 712.438, 803.942 711.570 C 804.887 710.431, 804.921 710, 804.063 710 C 803.414 710, 803.142 709.580, 803.459 709.066 C 804.146 707.955, 811.236 708.908, 812.104 710.227 C 812.799 711.284, 820.204 713.140, 819.559 712.095 C 818.496 710.376, 821.094 708.558, 824.228 708.828 C 827.213 709.085, 827.654 708.780, 828.527 705.855 C 829.270 703.367, 830.258 702.403, 832.705 701.781 C 836.917 700.710, 839.479 697.242, 837.673 695.056 C 836.966 694.200, 835.865 692.275, 835.227 690.778 C 834.575 689.246, 832.980 687.782, 831.580 687.431 C 829.893 687.007, 828.729 685.709, 827.968 683.403 C 827.350 681.531, 826.277 680, 825.583 680 C 824.246 680, 822 675.896, 822 673.453 C 822 672.654, 821.663 671.996, 821.250 671.992 C 820.276 671.982, 817.865 666.801, 818.527 666.140 C 818.806 665.861, 819.566 666.166, 820.217 666.817 C 822.331 668.931, 822.881 668.070, 821.362 665.025 C 820.546 663.388, 818.443 661.048, 816.689 659.823 C 811.207 655.995, 810.476 653.421, 814.580 652.390 C 816.398 651.934, 818.012 652.372, 820.040 653.871 C 821.623 655.042, 823.387 656, 823.960 656 C 824.532 656, 825 656.477, 825 657.059 C 825 657.641, 825.420 657.858, 825.934 657.541 C 826.447 657.224, 828.779 657.623, 831.116 658.428 C 833.453 659.233, 835.778 659.637, 836.283 659.325 C 836.791 659.011, 836.905 656.396, 836.539 653.463 C 836.039 649.468, 836.217 647.963, 837.264 647.334 C 838.027 646.875, 838.919 645.768, 839.247 644.874 C 839.869 643.175, 844.483 643.354, 845.574 645.119 C 845.873 645.604, 847.179 646, 848.476 646 C 849.772 646, 851.060 646.563, 851.338 647.250 C 851.669 648.070, 851.869 647.959, 851.921 646.927 C 851.964 646.062, 849.675 643.041, 846.833 640.214 C 842.737 636.139, 841.667 634.405, 841.667 631.843 C 841.667 630.065, 842.192 628.436, 842.833 628.222 C 843.475 628.008, 844 627.164, 844 626.345 C 844 624.350, 841.268 621.716, 840.008 622.495 C 838.726 623.288, 838.688 621.712, 839.959 620.441 C 840.486 619.914, 841.196 616.561, 841.536 612.991 C 842.169 606.352, 844.667 599, 846.291 599 C 848.334 599, 854 595.681, 854 594.484 C 854 593.775, 855.350 592.725, 857 592.150 C 859.165 591.395, 859.998 590.463, 859.994 588.802 C 859.985 584.933, 857.939 578.851, 855.917 576.680 C 854.863 575.549, 854 573.798, 854 572.790 C 854 571.782, 852.875 570.445, 851.500 569.818 C 850.125 569.192, 849 568.076, 849 567.339 C 849 566.603, 848.550 566, 848 566 C 847.450 566, 847 564.848, 847 563.441 C 847 562.034, 847.403 561.131, 847.895 561.435 C 849.093 562.175, 850 559.598, 850 555.454 C 850 552.669, 849.342 551.625, 846.268 549.536 C 844.215 548.141, 843.090 547, 843.768 547 C 844.446 547, 845 546.325, 845 545.500 C 845 544.675, 844.550 544, 844 544 C 843.450 544, 843 542.200, 843 540 C 843 537.800, 843.450 535.944, 844 535.875 C 844.550 535.806, 845.466 535.694, 846.036 535.625 C 846.607 535.556, 847.394 535.017, 847.786 534.427 C 848.179 533.837, 849.288 533.064, 850.250 532.708 C 851.212 532.353, 852 531.149, 852 530.031 C 852 528.914, 852.450 528, 853 528 C 854.648 528, 854.130 524.819, 852.250 523.392 C 850.583 522.127, 850.583 522.062, 852.250 522.032 C 853.675 522.006, 854 521.088, 854 517.095 C 854 513.049, 853.431 511.488, 850.750 508.184 C 848.962 505.981, 846.375 502.710, 845 500.914 C 843.625 499.118, 841.978 497.125, 841.341 496.486 C 840.703 495.847, 840.095 493.789, 839.989 491.912 C 839.715 487.028, 839.861 486.461, 841.082 487.682 C 841.858 488.458, 842.989 488.453, 845.082 487.663 C 847.489 486.754, 848 485.987, 848 483.281 C 848 481.031, 848.471 480, 849.500 480 C 850.325 480, 851 479.752, 851 479.448 C 851 478.499, 846.544 470.538, 845.643 469.878 C 845.172 469.532, 845.089 468.294, 845.460 467.125 C 846.087 465.152, 848.616 464.389, 852.750 464.925 C 854.442 465.145, 854.324 462.528, 852.481 458.963 C 851.120 456.332, 851.123 455.642, 852.504 452.336 C 853.737 449.386, 853.791 448.477, 852.773 447.803 C 851.806 447.162, 852.030 446.514, 853.707 445.104 C 854.922 444.083, 855.702 443.035, 855.441 442.775 C 854.346 441.679, 863.860 444.639, 865.315 445.846 C 866.743 447.031, 866.813 446.833, 865.985 443.947 C 865.476 442.175, 864.484 439.999, 863.780 439.112 C 861.043 435.665, 860 432.870, 860 428.978 C 860 425.040, 858.404 421.580, 854.708 417.508 C 849.662 411.947, 845.767 400, 849 400 C 849.550 400, 850 398.200, 850 396 C 850 393.800, 849.550 392, 849 392 C 847.096 392, 848.011 388.338, 850.500 386 C 852.322 384.289, 853 382.613, 853 379.826 C 853 377.722, 853.450 376, 854 376 C 854.550 376, 855 374.650, 855 373 C 855 371, 855.500 370, 856.500 370 C 857.767 370, 858 367.667, 858 355 C 858 342.868, 857.735 340, 856.611 340 C 854.731 340, 853.856 334.686, 854.007 324.179 C 854.182 312.060, 854.174 312, 852.500 312 C 851.675 312, 850.966 311.663, 850.923 311.250 C 850.881 310.837, 850.642 309.600, 850.391 308.500 C 849.593 304.997, 849.611 299.763, 850.458 289.847 L 851.282 280.194 854.266 279.597 C 855.907 279.269, 858.574 279, 860.192 279 C 862.574 279, 863.026 278.656, 862.562 277.195 C 862.239 276.178, 862.756 274.515, 863.744 273.390 C 864.710 272.290, 866.011 270.515, 866.635 269.445 C 867.376 268.176, 868.647 267.595, 870.294 267.774 C 874.214 268.198, 877 263.935, 877 257.512 C 877 247.914, 878.189 240, 879.631 240 C 881.633 240, 880.910 234.789, 878.833 234.246 C 876.039 233.515, 871.178 222.776, 870.468 215.764 C 870.118 212.319, 869.118 207.250, 868.244 204.500 C 867.371 201.750, 866.571 196.190, 866.467 192.145 C 866.364 188.100, 865.857 184.500, 865.341 184.145 C 863.736 183.040, 861 171.300, 861 165.515 C 861 162.482, 860.608 160, 860.129 160 C 859.650 160, 858.951 156.879, 858.575 153.065 C 858.196 149.223, 857.358 145.912, 856.696 145.641 C 855.840 145.291, 855.926 144.851, 857 144.091 C 858.017 143.372, 858.097 143.026, 857.250 143.015 C 856.305 143.004, 856 139.242, 856 127.583 C 856 119.104, 856.403 112.017, 856.896 111.833 C 857.389 111.650, 857.951 100.798, 858.146 87.718 C 858.434 68.380, 858.244 63.777, 857.131 63.085 C 856.114 62.454, 855.864 60.410, 856.161 55.164 C 856.380 51.275, 856.247 48.600, 855.865 49.219 C 855.477 49.846, 854.714 48.608, 854.140 46.422 C 849.926 30.375, 848 21.630, 848 18.537 C 848 16.201, 847.453 14.727, 846.443 14.340 C 845.586 14.011, 845.086 13.219, 845.331 12.579 C 845.577 11.939, 845.153 10.562, 844.389 9.517 C 843.625 8.472, 843 5.904, 843 3.809 L 843 0 421.500 0 L 0 0 0 540 M 926 1.062 C 926 2.782, 928.965 12.048, 931.500 18.250 C 933.050 22.043, 933.450 24.024, 932.675 24.070 C 932.029 24.109, 932.400 24.527, 933.500 25 L 935.500 25.859 933.500 25.993 C 931.670 26.115, 931.695 26.205, 933.794 27.047 C 935.641 27.789, 935.895 28.327, 935.100 29.812 C 934.375 31.167, 934.596 32.451, 935.932 34.647 C 936.932 36.292, 938.085 38.732, 938.494 40.069 C 938.904 41.406, 940.284 44.750, 941.561 47.500 C 944.795 54.464, 946.377 58.329, 946.472 59.500 C 946.516 60.050, 946.905 61.063, 947.335 61.750 C 947.766 62.438, 947.824 63.475, 947.465 64.057 C 946.810 65.117, 950.872 79.062, 952.109 80 C 952.741 80.480, 954.705 84.694, 958.491 93.696 C 960.398 98.231, 959.917 101.566, 957.492 100.635 C 956.671 100.320, 956 100.451, 956 100.924 C 956 101.398, 956.675 102.045, 957.500 102.362 C 958.325 102.678, 959 104.050, 959 105.410 C 959 106.769, 959.422 108.143, 959.937 108.461 C 961.258 109.277, 965.637 118.862, 966.466 122.750 C 966.847 124.538, 967.521 126, 967.963 126 C 968.405 126, 969.091 129.025, 969.487 132.722 C 969.983 137.354, 970.782 139.943, 972.055 141.048 C 973.256 142.089, 973.705 143.413, 973.335 144.826 C 972.925 146.396, 973.216 147, 974.383 147 C 975.662 147, 976 148.072, 976 152.133 C 976 156.142, 976.471 157.674, 978.153 159.133 C 979.337 160.160, 980.800 161.007, 981.403 161.015 C 982.006 161.024, 981.870 161.430, 981.099 161.918 C 980.023 162.599, 979.868 164.046, 980.429 168.152 C 980.831 171.094, 981.237 175.227, 981.330 177.338 C 981.449 180.028, 982.205 181.747, 983.855 183.084 C 985.831 184.684, 986.139 185.677, 985.763 189.246 C 985.495 191.783, 985.885 194.646, 986.729 196.339 C 987.685 198.259, 988.331 204.488, 988.725 215.589 C 989.164 227.980, 989.621 232, 990.591 232 C 991.431 232, 991.856 233.382, 991.819 236 C 991.782 238.711, 991.319 240, 990.382 240 C 988.506 240, 988.572 246.041, 990.500 250.654 C 991.486 253.013, 992 257.590, 992 264 C 992 270.410, 992.514 274.987, 993.500 277.346 C 994.325 279.320, 995 282.638, 995 284.718 C 995 286.799, 995.690 291.651, 996.533 295.500 C 999.187 307.623, 999.732 311.868, 998.757 312.843 C 998.182 313.418, 998.242 314.031, 998.913 314.446 C 999.511 314.816, 1000 315.844, 1000 316.731 C 1000 317.617, 1001.188 321.303, 1002.639 324.922 C 1005.178 331.250, 1007.016 340.031, 1009.146 356 C 1009.696 360.125, 1010.777 365.750, 1011.547 368.500 C 1012.317 371.250, 1013.243 377.100, 1013.606 381.500 C 1013.968 385.900, 1014.703 390.054, 1015.239 390.731 C 1016.156 391.889, 1016.535 394.012, 1018.952 411.500 C 1019.484 415.350, 1020.415 420.075, 1021.022 422 C 1021.628 423.925, 1022.121 428.585, 1022.116 432.356 C 1022.111 436.805, 1022.817 441.108, 1024.128 444.611 C 1025.239 447.581, 1026.290 453.045, 1026.464 456.755 C 1026.884 465.679, 1028.918 479.978, 1030.076 482.142 C 1030.584 483.092, 1031 484.761, 1031 485.851 C 1031 486.941, 1031.431 487.983, 1031.957 488.167 C 1032.484 488.350, 1033.169 492.550, 1033.479 497.500 C 1033.790 502.450, 1034.238 507.175, 1034.477 508 C 1034.715 508.825, 1035.397 514.941, 1035.992 521.591 C 1036.588 528.241, 1037.316 534.991, 1037.611 536.591 C 1037.906 538.191, 1038.275 541.525, 1038.431 544 C 1039.302 557.817, 1040.395 567.565, 1041.128 568.047 C 1041.586 568.348, 1042.160 577.123, 1042.403 587.547 C 1042.646 597.971, 1043.536 610.550, 1044.381 615.500 C 1045.225 620.450, 1046.148 629.900, 1046.430 636.500 C 1046.713 643.100, 1047.348 652.775, 1047.841 658 C 1048.334 663.225, 1048.804 696.975, 1048.885 733 C 1048.966 769.025, 1049.271 803.450, 1049.562 809.500 C 1050.064 819.913, 1048.639 864.063, 1047.593 870.500 C 1047.325 872.150, 1046.616 881.600, 1046.018 891.500 C 1045.419 901.400, 1044.494 913.100, 1043.962 917.500 C 1043.430 921.900, 1042.791 928.650, 1042.542 932.500 C 1041.776 944.318, 1040.764 952.450, 1039.924 953.529 C 1039.483 954.095, 1038.812 959.270, 1038.433 965.029 C 1038.054 970.788, 1037.126 977.017, 1036.372 978.872 C 1035.617 980.727, 1034.964 985.902, 1034.921 990.372 C 1034.830 999.766, 1032.580 1013.966, 1031.812 1010 C 1031.545 1008.625, 1031.357 1009.750, 1031.394 1012.500 C 1031.483 1019.169, 1029.217 1036.289, 1027.433 1042.432 C 1026.645 1045.144, 1025.993 1048.969, 1025.985 1050.932 C 1025.977 1052.894, 1025.361 1056.300, 1024.616 1058.500 C 1023.871 1060.700, 1022.975 1066.438, 1022.625 1071.250 L 1021.988 1080 1470.994 1080 L 1920 1080 1920 540 L 1920 0 1423 0 C 1072.960 0, 926 0.314, 926 1.062 M 1044.736 18.598 C 1043.762 19.571, 1045.099 22, 1046.607 22 C 1047.373 22, 1048 21.100, 1048 20 C 1048 18.117, 1046.052 17.281, 1044.736 18.598 M 1040.590 79.901 C 1038.724 81.963, 1039.777 83.407, 1042.410 82.396 C 1044.039 81.771, 1044.678 78, 1043.155 78 C 1042.690 78, 1041.536 78.855, 1040.590 79.901 M 984 81 C 984 81.550, 984.450 82, 985 82 C 985.550 82, 986 81.550, 986 81 C 986 80.450, 985.550 80, 985 80 C 984.450 80, 984 80.450, 984 81 M 1441 88 C 1441 88.550, 1441.675 89, 1442.500 89 C 1443.325 89, 1444 88.550, 1444 88 C 1444 87.450, 1443.325 87, 1442.500 87 C 1441.675 87, 1441 87.450, 1441 88 M 1057.543 121.931 C 1056.860 123.036, 1058.437 124.230, 1059.361 123.306 C 1060.311 122.355, 1060.134 121, 1059.059 121 C 1058.541 121, 1057.859 121.419, 1057.543 121.931 M 1089.639 125.694 C 1088.444 126.889, 1088.994 129, 1090.500 129 C 1091.325 129, 1092 128.352, 1092 127.559 C 1092 125.888, 1090.573 124.761, 1089.639 125.694 M 1208.639 135.694 C 1207.513 136.820, 1207.954 138, 1209.500 138 C 1210.325 138, 1211 137.577, 1211 137.059 C 1211 135.798, 1209.438 134.895, 1208.639 135.694 M 1015.177 226.553 C 1015.629 228.725, 1017.404 228.858, 1017.810 226.750 C 1018.020 225.655, 1017.530 225, 1016.500 225 C 1015.539 225, 1014.988 225.647, 1015.177 226.553 M 1845 228 C 1845 228.550, 1845.675 229, 1846.500 229 C 1847.325 229, 1848 228.550, 1848 228 C 1848 227.450, 1847.325 227, 1846.500 227 C 1845.675 227, 1845 227.450, 1845 228 M 1008 273.417 C 1008 274.288, 1008.712 275, 1009.583 275 C 1011.349 275, 1011.042 272.847, 1009.188 272.229 C 1008.534 272.011, 1008 272.546, 1008 273.417 M 1236 281.500 C 1236 282.325, 1236.675 283, 1237.500 283 C 1238.325 283, 1239 282.325, 1239 281.500 C 1239 280.675, 1238.325 280, 1237.500 280 C 1236.675 280, 1236 280.675, 1236 281.500 M 1173 318.500 C 1173 319.325, 1173.675 320, 1174.500 320 C 1175.325 320, 1176 319.325, 1176 318.500 C 1176 317.675, 1175.325 317, 1174.500 317 C 1173.675 317, 1173 317.675, 1173 318.500 M 1088.029 372.961 C 1087.220 373.473, 1086.861 374.194, 1087.231 374.565 C 1087.602 374.935, 1088.633 374.510, 1089.524 373.619 C 1091.283 371.860, 1090.391 371.467, 1088.029 372.961 M 1094.543 471.931 C 1093.803 473.128, 1095.684 474.313, 1097.016 473.490 C 1098.135 472.799, 1097.400 471, 1096 471 C 1095.515 471, 1094.859 471.419, 1094.543 471.931 M 1136.479 554.750 C 1136.142 556.813, 1135.778 559.174, 1135.670 559.997 C 1135.562 560.820, 1133.949 562.213, 1132.086 563.093 C 1128.924 564.586, 1126 567.466, 1126 569.087 C 1126 570.363, 1135.905 576.177, 1136.964 575.522 C 1138.489 574.580, 1138.224 571.431, 1136.500 570 C 1134.682 568.491, 1134.516 564.337, 1136.250 563.727 C 1136.938 563.485, 1138.616 563.701, 1139.979 564.206 C 1141.622 564.815, 1142.578 564.766, 1142.813 564.062 C 1143.007 563.478, 1144.029 563, 1145.083 563 C 1146.684 563, 1147 562.269, 1147 558.559 C 1147 556.116, 1146.547 553.838, 1145.993 553.496 C 1144.867 552.799, 1144.438 553.802, 1143.533 559.250 C 1143.136 561.638, 1142.365 563, 1141.411 563 C 1140.587 563, 1140.025 562.438, 1140.164 561.750 C 1140.302 561.063, 1140.070 559.193, 1139.649 557.595 C 1139.146 555.683, 1139.290 554.439, 1140.070 553.957 C 1141.517 553.062, 1140.413 551, 1138.486 551 C 1137.649 551, 1136.846 552.500, 1136.479 554.750 M 1156.885 551.750 C 1156.822 552.163, 1156.856 553.325, 1156.962 554.333 C 1157.068 555.342, 1156.332 556.841, 1155.327 557.665 C 1153.663 559.029, 1153.656 559.114, 1155.250 558.613 C 1156.550 558.204, 1157 558.624, 1157 560.246 C 1157 562.141, 1157.181 562.235, 1158.373 560.964 C 1160.133 559.087, 1161.312 553, 1159.916 553 C 1159.347 553, 1159.160 552.550, 1159.500 552 C 1159.840 551.450, 1159.416 551, 1158.559 551 C 1157.702 551, 1156.948 551.337, 1156.885 551.750 M 1143.465 572.057 C 1143.106 572.638, 1143.088 574.213, 1143.425 575.557 C 1144.250 578.846, 1148 578.963, 1148 575.700 C 1148 572.152, 1144.930 569.686, 1143.465 572.057 M 1157.559 572.468 C 1160.263 574.514, 1162.690 574.536, 1161 572.500 C 1160.315 571.675, 1158.824 571, 1157.686 571 C 1155.653 571, 1155.651 571.025, 1157.559 572.468 M 1236 572.500 C 1236 573.325, 1236.450 574, 1237 574 C 1237.550 574, 1238 573.325, 1238 572.500 C 1238 571.675, 1237.550 571, 1237 571 C 1236.450 571, 1236 571.675, 1236 572.500 M 1798.218 643.154 C 1798.737 644.712, 1800.974 644.984, 1801.053 643.500 C 1801.082 642.950, 1800.355 642.345, 1799.438 642.154 C 1798.395 641.939, 1797.938 642.313, 1798.218 643.154 M 1186.192 685.075 C 1186.389 685.666, 1186.977 686.150, 1187.500 686.150 C 1188.023 686.150, 1188.611 685.666, 1188.808 685.075 C 1189.005 684.484, 1188.417 684, 1187.500 684 C 1186.583 684, 1185.995 684.484, 1186.192 685.075 M 1206.336 698.567 C 1205.426 700.939, 1207.559 702.611, 1209.470 701.025 C 1210.654 700.042, 1210.754 699.409, 1209.890 698.367 C 1208.392 696.563, 1207.077 696.637, 1206.336 698.567 M 1457.229 711.188 C 1457.847 713.042, 1460 713.349, 1460 711.583 C 1460 710.712, 1459.287 710, 1458.417 710 C 1457.546 710, 1457.011 710.534, 1457.229 711.188 M 1183.510 738.984 C 1182.773 740.177, 1183.709 742, 1185.059 742 C 1186.276 742, 1186.284 739.293, 1185.069 738.543 C 1184.557 738.226, 1183.856 738.425, 1183.510 738.984 M 750 759 C 750 759.550, 750.450 760, 751 760 C 751.550 760, 752 759.550, 752 759 C 752 758.450, 751.550 758, 751 758 C 750.450 758, 750 758.450, 750 759 M 782 805.441 C 782 806.298, 782.450 807, 783 807 C 783.550 807, 784 806.577, 784 806.059 C 784 805.541, 783.550 804.840, 783 804.500 C 782.450 804.160, 782 804.584, 782 805.441 M 1851 806 C 1851 806.550, 1851.477 807, 1852.059 807 C 1852.641 807, 1852.840 806.550, 1852.500 806 C 1852.160 805.450, 1851.684 805, 1851.441 805 C 1851.198 805, 1851 805.450, 1851 806 M 1099.534 860.945 C 1098.569 862.506, 1099.839 864, 1102.132 864 C 1103.507 864, 1104.040 863.448, 1103.812 862.261 C 1103.428 860.269, 1100.507 859.370, 1099.534 860.945 M 1510.553 915.915 C 1510.231 916.436, 1510.394 917.125, 1510.915 917.447 C 1511.436 917.769, 1512.125 917.606, 1512.447 917.085 C 1512.769 916.564, 1512.606 915.875, 1512.085 915.553 C 1511.564 915.231, 1510.875 915.394, 1510.553 915.915 M 1130.150 921.950 C 1130.580 923.239, 1131.951 923.471, 1132.075 922.275 C 1132.116 921.876, 1131.610 921.370, 1130.950 921.150 C 1130.290 920.930, 1129.930 921.290, 1130.150 921.950 M 776 996.448 C 776 998.734, 776.199 998.827, 779 997.850 C 782.320 996.693, 782.827 995.532, 780.418 994.607 C 777.338 993.425, 776 993.983, 776 996.448 M 1055.175 1006.289 C 1054.312 1007.329, 1054.361 1008.111, 1055.372 1009.495 C 1057.181 1011.968, 1060.249 1010.775, 1059.820 1007.765 C 1059.446 1005.144, 1056.818 1004.309, 1055.175 1006.289 M 716 1066 C 716 1067.111, 716.667 1068, 717.500 1068 C 718.333 1068, 719 1067.111, 719 1066 C 719 1064.889, 718.333 1064, 717.500 1064 C 716.667 1064, 716 1064.889, 716 1066" stroke="none" fill="black" fill-rule="evenodd"/>
	<path fill-opacity="0.900" d="M 0 540 L 0 1080 235 1080 L 470 1080 470 1077 C 470 1074.467, 469.611 1074, 467.500 1074 C 466.125 1074, 465 1073.550, 465 1073 C 465 1072.450, 464.325 1072, 463.500 1072 C 462.333 1072, 462 1070.667, 462 1066 L 462 1060 459 1060 L 456 1060 456 1050 L 456 1040 460 1040 C 462.889 1040, 464 1039.583, 464 1038.500 C 464 1037.675, 464.675 1037, 465.500 1037 C 466.325 1037, 467 1036.550, 467 1036 C 467 1035.450, 467.900 1035, 469 1035 C 470.111 1035, 471 1034.333, 471 1033.500 C 471 1032.389, 472.167 1032, 475.500 1032 C 479.790 1032, 480 1031.866, 480 1029.125 C 480 1027.544, 480.281 1024.844, 480.625 1023.125 L 481.250 1020 488.625 1020 C 492.875 1020, 496 1020.424, 496 1021 C 496 1022.574, 505.937 1022.206, 507.571 1020.571 C 509.210 1018.933, 509.485 1016, 508 1016 C 507.450 1016, 507 1015.170, 507 1014.156 C 507 1011.983, 502.973 1007, 501.218 1007 C 500.369 1007, 500 1004.729, 500 999.500 L 500 992 496 992 L 492 992 492 984 C 492 976.667, 491.833 976, 490 976 C 488.167 976, 488 975.333, 488 968 L 488 960 492 960 L 496 960 496 964 C 496 966.889, 496.417 968, 497.500 968 C 498.583 968, 499 966.889, 499 964 C 499 961.111, 498.583 960, 497.500 960 C 496.292 960, 496 958.444, 496 952 L 496 944 492 944 L 488 944 488 936 L 488 928 496 928 L 504 928 504 920 L 504 912 508 912 L 512 912 512 916 L 512 920 532 920 L 552 920 552 923 C 552 925.833, 552.222 926, 556 926 C 558.889 926, 560 925.583, 560 924.500 C 560 923.292, 561.556 923, 568 923 C 574.444 923, 576 922.708, 576 921.500 C 576 920.426, 577.096 920, 579.860 920 L 583.720 920 584.299 925.605 C 584.617 928.688, 585.109 931.442, 585.392 931.725 C 586.043 932.376, 603.904 930.479, 606.250 929.509 C 607.491 928.996, 608 929.254, 608 930.393 C 608 931.277, 608.675 932, 609.500 932 C 610.433 932, 611 931.056, 611 929.500 C 611 927.944, 610.433 927, 609.500 927 C 608.452 927, 608 925.944, 608 923.500 C 608 920.083, 607.905 920, 604 920 L 600 920 600 916 L 600 912 596 912 L 592 912 592 916 L 592 920 588 920 L 584 920 584 912 L 584 904 588 904 C 590.889 904, 592 904.417, 592 905.500 C 592 906.548, 593.056 907, 595.500 907 C 597.944 907, 599 906.548, 599 905.500 C 599 904.667, 599.889 904, 601 904 C 602.667 904, 603 903.333, 603 900 C 603 896.400, 603.250 896, 605.500 896 C 607.333 896, 608 895.467, 608 894 C 608 892.900, 607.550 892, 607 892 C 606.450 892, 606 891.100, 606 890 C 606 888.900, 605.550 888, 605 888 C 604.450 888, 604 886.200, 604 884 C 604 880.667, 603.667 880, 602 880 C 600.667 880, 600 880.667, 600 882 C 600 883.333, 599.333 884, 598 884 C 596.697 884, 596 883.333, 596 882.088 C 596 880.636, 595.036 880.013, 592 879.500 L 588 878.824 588 871.412 L 588 864 592 864 C 595.333 864, 596 863.667, 596 862 C 596 860.667, 596.667 860, 598 860 C 599.333 860, 600 859.333, 600 858 C 600 856.667, 599.333 856, 598 856 C 596.667 856, 596 855.333, 596 854 C 596 852.667, 595.333 852, 594 852 C 592.667 852, 592 852.667, 592 854 C 592 855.333, 591.333 856, 590 856 C 588.333 856, 588 856.667, 588 860 C 588 863.333, 587.667 864, 586 864 C 584.333 864, 584 863.333, 584 860 C 584 856.667, 583.667 856, 582 856 C 580.381 856, 580 856.667, 580 859.500 C 580 862.036, 579.561 863, 578.406 863 C 577.530 863, 576.577 862.100, 576.290 861 C 576.002 859.900, 575.413 859, 574.981 859 C 574.549 859, 573.742 857.700, 573.188 856.110 C 572.263 853.456, 564.461 847, 562.178 847 C 561.649 847, 560.948 845.987, 560.619 844.750 C 559.791 841.632, 554.594 836, 552.545 836 C 551.474 836, 550.975 835.358, 551.185 834.250 C 551.417 833.027, 552.643 832.407, 555.258 832.190 C 558.453 831.925, 559 832.176, 559 833.908 C 559 835.169, 559.495 835.747, 560.308 835.435 C 561.028 835.159, 562.672 835.848, 563.961 836.967 C 565.251 838.085, 566.912 839, 567.653 839 C 568.394 839, 569 839.675, 569 840.500 C 569 841.325, 569.675 842, 570.500 842 C 571.325 842, 572 842.450, 572 843 C 572 843.550, 572.900 844, 574 844 C 575.333 844, 576 843.333, 576 842 C 576 840.167, 576.667 840, 584 840 C 591.333 840, 592 840.167, 592 842 C 592 843.667, 592.667 844, 596 844 C 598.200 844, 600 843.550, 600 843 C 600 842.450, 601.748 842, 603.883 842 C 608.051 842, 608.957 840.713, 608.986 834.750 C 608.999 832.276, 609.352 832, 612.500 832 C 615.333 832, 616 831.619, 616 830 C 616 828.393, 615.333 828, 612.607 828 C 610.435 828, 608.995 827.431, 608.607 826.418 C 607.687 824.021, 607.716 824, 612 824 C 615.333 824, 616 823.667, 616 822 C 616 820.333, 615.333 820, 612 820 C 608.667 820, 608 819.667, 608 818 C 608 816.444, 607.333 816, 605 816 C 602.030 816, 602 816.056, 602 821.500 C 602 825.534, 601.629 827, 600.607 827 C 598.852 827, 598 824.820, 598 820.325 C 598 817.654, 598.479 816.688, 600 816.290 C 601.100 816.002, 602 815.369, 602 814.883 C 602 814.398, 603.350 814, 605 814 C 606.650 814, 608 814.450, 608 815 C 608 815.550, 609.800 816, 612 816 C 614.200 816, 616 815.550, 616 815 C 616 814.450, 617.318 814, 618.929 814 C 620.539 814, 622.532 813.325, 623.357 812.500 C 624.505 811.352, 627.399 810.999, 635.679 810.994 C 646.105 810.988, 646.391 810.931, 643.502 809.425 C 641.853 808.565, 639.793 807.218, 638.923 806.431 C 638.054 805.644, 636.322 805, 635.075 805 C 631.952 805, 622.166 802.078, 621.459 800.934 C 621.142 800.420, 619.784 800, 618.441 800 C 616.526 800, 616 799.479, 616 797.582 C 616 793.239, 614.977 792, 611.393 792 C 608.300 792, 608 791.738, 608 789.040 C 608 786.453, 607.496 785.929, 604 784.882 C 601.800 784.223, 600 783.080, 600 782.342 C 600 781.604, 599.550 781, 599 781 C 598.450 781, 598 780.325, 598 779.500 C 598 778.675, 597.411 778, 596.691 778 C 595.971 778, 594.552 777.393, 593.537 776.651 C 591.870 775.432, 591.997 775.346, 594.846 775.764 C 597.175 776.106, 598 775.839, 598 774.744 C 598 773.205, 593.386 772.032, 587.250 772.011 C 584.670 772.002, 584 771.587, 584 770 C 584 768.667, 583.333 768, 582 768 C 580.333 768, 580 767.333, 580 764 C 580 760.667, 579.667 760, 578 760 C 576.178 760, 576 759.333, 576 752.500 L 576 745 572.073 745 C 569.175 745, 568.027 745.458, 567.689 746.750 C 567.438 747.712, 567.180 745.040, 567.116 740.811 L 567 733.123 562.500 732.448 C 560.025 732.077, 558 731.410, 558 730.966 C 558 730.522, 556.650 729.862, 555 729.500 C 553.350 729.138, 552 728.202, 552 727.421 C 552 726.572, 550.993 726, 549.500 726 C 548.125 726, 546.996 725.663, 546.992 725.250 C 546.980 724.039, 541.839 722, 538.801 722 C 537.260 722, 536 721.571, 536 721.047 C 536 719.552, 527.112 716, 523.373 716 C 521.518 716, 520 715.600, 520 715.111 C 520 714.623, 518.401 713.923, 516.447 713.556 C 514.474 713.186, 512.617 712.137, 512.270 711.195 C 511.285 708.521, 509.916 708.032, 503.375 708.015 C 497.319 708, 497.243 707.965, 496.625 704.875 C 496.281 703.156, 496 700.456, 496 698.875 C 496 696.188, 495.739 696, 492 696 C 488.667 696, 488 695.667, 488 694 C 488 692.333, 488.667 692, 492 692 C 495.333 692, 496 691.667, 496 690 C 496 688.168, 496.667 688, 503.930 688 C 511.393 688, 511.880 687.867, 512.180 685.750 C 512.476 683.668, 513.078 683.478, 520.250 683.208 C 526.239 682.982, 528 682.585, 528 681.458 C 528 680.302, 529.658 680, 536 680 C 543.867 680, 544 679.958, 544 677.500 C 544 675.071, 544.200 675, 551 675 C 556.556 675, 558 674.690, 558 673.500 C 558 672.675, 557.325 672, 556.500 672 C 555.667 672, 555 671.111, 555 670 C 555 668.900, 554.381 668, 553.625 668 C 552.196 668, 551 663.841, 551 658.875 C 551 656.986, 550.486 656, 549.500 656 C 548.417 656, 548 654.889, 548 652 L 548 648 542 648 L 536 648 536 628 L 536 608 540 608 C 543.333 608, 544 607.667, 544 606 C 544 604.333, 544.667 604, 548 604 C 551.333 604, 552 604.333, 552 606 C 552 607.609, 552.667 608, 555.412 608 C 558.614 608, 558.866 608.247, 559.500 612 L 560.176 616 568.088 616 C 574.454 616, 576 616.293, 576 617.500 C 576 618.701, 577.503 619, 583.531 619 C 589.303 619, 591.197 619.350, 591.638 620.500 C 591.997 621.434, 593.521 622, 595.678 622 C 599.646 622, 601.372 623.361, 602.350 627.260 C 602.877 629.356, 603.641 630, 605.604 630 C 607.280 630, 609.246 631.214, 611.269 633.500 C 612.974 635.425, 614.960 637, 615.684 637 C 616.408 637, 617 637.403, 617 637.895 C 617 638.387, 618.688 639.045, 620.750 639.357 C 629.699 640.709, 632 641.272, 632 642.109 C 632 642.599, 633.294 643, 634.875 643 C 639.841 643, 644 644.196, 644 645.625 C 644 646.726, 646.788 647, 658 647 L 672 647 672 643.500 C 672 640.083, 672.095 640, 676 640 C 679.333 640, 680 639.667, 680 638 C 680 636.333, 679.333 636, 676 636 C 672.667 636, 672 636.333, 672 638 C 672 639.333, 671.333 640, 670 640 C 668.180 640, 668 639.333, 668 632.588 L 668 625.176 672 624.500 L 676 623.824 676 615.912 C 676 609.842, 675.678 608, 674.617 608 C 673.002 608, 672.033 604.980, 672.014 599.884 L 672 596.269 668 597 C 664.501 597.640, 664 597.498, 664 595.866 C 664 593.640, 661.458 593.363, 660.638 595.500 C 660.322 596.325, 659.149 597, 658.031 597 C 656.892 597, 656 597.659, 656 598.500 C 656 599.433, 655.056 600, 653.500 600 C 652.125 600, 651 599.550, 651 599 C 651 598.450, 650.325 598, 649.500 598 C 648.500 598, 648 597, 648 595 C 648 592.167, 647.778 592, 644 592 L 640 592 640 588 C 640 584.400, 639.750 584, 637.500 584 C 635.250 584, 635 583.600, 635 580 C 635 577.111, 634.583 576, 633.500 576 C 632.417 576, 632 574.889, 632 572 C 632 568.080, 632.071 568, 635.571 568 C 639.629 568, 641.366 569.338, 642.338 573.211 C 642.950 575.650, 643.575 575.966, 649.007 576.580 L 655 577.258 655 580.629 C 655 582.959, 655.463 584, 656.500 584 C 657.325 584, 658 584.450, 658 585 C 658 585.550, 659.350 586, 661 586 C 663.333 586, 664 586.444, 664 588 C 664 589.467, 664.667 590, 666.500 590 C 667.875 590, 669 590.450, 669 591 C 669 591.550, 669.675 592, 670.500 592 C 671.690 592, 672 590.556, 672 585 C 672 581, 671.571 578, 671 578 C 670.450 578, 670 576.650, 670 575 C 670 573.350, 670.450 572, 671 572 C 671.550 572, 672 571.100, 672 570 C 672 568.333, 672.667 568, 676 568 L 680 568 680 564 C 680 560.031, 679.970 560, 676.180 560 L 672.360 560 671.061 552 C 670.347 547.600, 669.366 544, 668.881 544 C 668.396 544, 668 543.100, 668 542 C 668 540.333, 667.333 540, 664 540 L 660 540 660 536 L 660 532 664 532 C 666.739 532, 668 531.564, 668 530.617 C 668 529.856, 669.222 529, 670.716 528.714 C 672.957 528.286, 674.276 529.031, 678.264 532.977 C 681.754 536.431, 684.159 537.930, 686.919 538.371 C 689.021 538.707, 691.300 539.656, 691.983 540.480 C 692.667 541.304, 693.630 541.729, 694.123 541.424 C 694.616 541.119, 696.201 541.799, 697.645 542.935 C 699.088 544.071, 701.109 545, 702.135 545 C 703.161 545, 704 545.404, 704 545.897 C 704 546.391, 705.225 548.191, 706.723 549.897 C 709.393 552.940, 713.271 553.989, 714.500 552 C 715.218 550.839, 719.674 550.642, 720.167 551.750 C 720.350 552.163, 722.525 553.573, 725 554.884 C 727.475 556.196, 730.063 557.969, 730.750 558.826 C 731.873 560.224, 732 560.212, 732 558.714 C 732 557.158, 722.782 549, 721.024 549 C 720.586 549, 717.841 546.759, 714.923 544.020 C 712.006 541.282, 707.682 538.244, 705.313 537.270 C 702.945 536.297, 701.006 535.163, 701.004 534.750 C 701.002 534.337, 700.569 534, 700.042 534 C 698.650 534, 691 526.517, 691 525.155 C 691 524.424, 689.009 524, 685.571 524 C 682.385 524, 679.593 523.450, 678.812 522.669 C 678.079 521.936, 676.247 521.028, 674.740 520.650 C 672.397 520.061, 672 519.448, 672 516.410 C 672 512.036, 670.106 510, 666.038 510 C 663.829 510, 661.933 509, 659.467 506.533 C 657.560 504.627, 656 502.602, 656 502.033 C 656 501.465, 658.025 501, 660.500 501 C 662.975 501, 665 501.400, 665 501.889 C 665 502.377, 666.575 503.073, 668.500 503.434 C 670.425 503.795, 672 504.520, 672 505.045 C 672 505.570, 673.913 506.020, 676.250 506.044 C 678.587 506.068, 682.300 506.736, 684.500 507.529 C 686.700 508.321, 690.807 508.977, 693.628 508.985 C 696.950 508.995, 699.193 509.528, 700 510.500 C 700.945 511.638, 703.507 512, 710.622 512 L 720 512 720 508 C 720 505.134, 720.420 504, 721.481 504 C 722.295 504, 723.244 502.875, 723.589 501.500 C 723.934 500.125, 724.618 499, 725.108 499 C 727.120 499, 725.966 492.317, 723.565 490.061 L 721.130 487.773 723.596 485.137 C 727.688 480.762, 727.691 478.507, 723.610 473.990 C 721.625 471.792, 720 469.099, 720 468.006 C 720 466.912, 719.100 465.455, 718 464.768 C 716.137 463.605, 716 462.436, 716 447.759 L 716 432 713.500 432 C 711.019 432, 711 431.933, 711 423 L 711 414 716.393 414 C 720.264 414, 721.948 414.423, 722.362 415.500 C 722.678 416.325, 723.626 417, 724.469 417 C 727.698 417, 725.729 413.862, 718.750 407.882 C 714.762 404.466, 711.350 401.295, 711.167 400.836 C 710.983 400.376, 710.196 400, 709.417 400 C 708.431 400, 708 398.784, 708 396 C 708 392.667, 708.333 392, 710 392 C 711.833 392, 712 391.333, 712 384 L 712 376 724 376 L 736 376 736 379 C 736 381.833, 736.222 382, 740 382 L 744 382 744 375 C 744 368.667, 743.810 368, 742 368 C 740.333 368, 740 367.333, 740 364 C 740 361.800, 739.550 360, 739 360 C 738.450 360, 738 361.800, 738 364 C 738 366.200, 737.550 368, 737 368 C 736.417 368, 736 364.667, 736 360 C 736 352.844, 735.802 352, 734.125 352 C 731.970 352, 731 348.548, 731 340.875 L 731 336 727.500 336 L 724 336 724 330.147 C 724 326.927, 723.711 321.527, 723.358 318.147 C 722.804 312.852, 722.943 312, 724.358 312 C 725.607 312, 726 311.043, 726 308 C 726 305.800, 725.550 304, 725 304 C 724.417 304, 724 300.667, 724 296 L 724 288 727.500 288 C 729.944 288, 731 287.548, 731 286.500 C 731 285.675, 730.384 285, 729.631 285 C 728.262 285, 727.033 280.190, 727.011 274.750 C 727.001 272.276, 726.649 272, 723.500 272 L 720 272 720 264 C 720 256.667, 719.833 256, 718 256 C 716.167 256, 716 255.333, 716 248 C 716 243.333, 716.417 240, 717 240 C 717.550 240, 718 238.200, 718 236 C 718 233.800, 718.450 232, 719 232 C 719.550 232, 720 230.200, 720 228 C 720 224.667, 720.333 224, 722 224 C 723.889 224, 724 223.333, 724 212 C 724 200.667, 724.111 200, 726 200 C 727.667 200, 728 199.333, 728 196 C 728 192.667, 728.333 192, 730 192 C 731.100 192, 732 191.550, 732 191 C 732 190.450, 732.900 190, 734 190 C 735.100 190, 736 189.550, 736 189 C 736 188.417, 739.333 188, 744 188 C 748.667 188, 752 188.417, 752 189 C 752 189.550, 752.900 190, 754 190 C 755.100 190, 756 189.550, 756 189 C 756 188.450, 756.900 188, 758 188 C 759.100 188, 760 188.450, 760 189 C 760 190.485, 762.933 190.210, 764.571 188.571 C 766.210 186.933, 766.485 184, 765 184 C 764.450 184, 764 183.100, 764 182 C 764 180.667, 763.333 180, 762 180 C 760.667 180, 760 179.333, 760 178 C 760 176.667, 759.333 176, 758 176 C 756.404 176, 756 175.333, 756 172.700 C 756 170.885, 755.438 168.794, 754.750 168.053 C 753.750 166.976, 753.750 166.848, 754.750 167.412 C 755.631 167.910, 756 167.216, 756 165.059 C 756 162.602, 755.580 162, 753.864 162 C 751.898 162, 751.779 161.630, 752.364 157.360 C 752.714 154.809, 753 151.659, 753 150.360 C 753 148.121, 753.345 147.996, 759.750 147.921 C 763.462 147.878, 765.938 147.615, 765.250 147.338 C 764.562 147.060, 764 146.196, 764 145.417 C 764 144.637, 763.100 144, 762 144 C 760.167 144, 760 143.333, 760 136 C 760 129.556, 760.292 128, 761.500 128 C 762.577 128, 763.037 126.803, 763.132 123.750 L 763.263 119.500 764 123 L 764.737 126.500 764.868 123.250 C 764.956 121.086, 765.501 120, 766.500 120 C 767.548 120, 768 118.944, 768 116.500 C 768 114.500, 767.500 113, 766.833 113 C 766.192 113, 765.951 112.716, 766.298 112.368 C 766.646 112.021, 765.354 109.895, 763.428 107.645 C 761.502 105.395, 759.677 102.562, 759.373 101.349 C 759.068 100.137, 758.185 98.901, 757.410 98.604 C 756.333 98.190, 756 95.806, 756 88.500 C 756 77.972, 753.419 67.966, 749.922 64.932 C 748.179 63.421, 748 61.809, 748 47.633 C 748 32.667, 747.915 32, 746 32 C 744.167 32, 744 31.333, 744 24 C 744 16.667, 744.167 16, 746 16 C 747.667 16, 748 15.333, 748 12 C 748 8.667, 747.667 8, 746 8 C 744.333 8, 744 7.333, 744 4 L 744 0 372 0 L 0 0 0 540 M 994.820 4.089 C 994.559 6.823, 995.022 9.151, 996.215 11.113 C 997.197 12.728, 998 15.162, 998 16.524 C 998 17.886, 998.398 19, 998.883 19 C 999.369 19, 999.982 20.125, 1000.245 21.500 C 1000.565 23.176, 1000.274 24, 999.361 24 C 997.888 24, 997.460 26.620, 998.844 27.167 C 999.308 27.350, 1000.671 30.763, 1001.873 34.750 C 1003.651 40.652, 1004.435 42, 1006.088 42 C 1007.204 42, 1007.869 42.404, 1007.564 42.897 C 1006.445 44.706, 1008.237 56, 1009.642 56 C 1010.389 56, 1011 56.660, 1011 57.466 C 1011 59.104, 1014.117 66.210, 1015.192 67.023 C 1016.374 67.917, 1017.985 80.125, 1017.992 88.250 C 1017.999 94.469, 1018.296 96, 1019.500 96 C 1020.325 96, 1021 96.638, 1021 97.417 C 1021 98.196, 1021.436 98.983, 1021.968 99.167 C 1022.500 99.350, 1023.201 102.875, 1023.524 107 C 1023.848 111.125, 1024.537 114.650, 1025.056 114.833 C 1025.575 115.017, 1026 116.929, 1026 119.083 C 1026 121.719, 1026.445 123, 1027.360 123 C 1028.278 123, 1028.910 124.840, 1029.304 128.656 C 1029.625 131.767, 1030.294 134.580, 1030.790 134.906 C 1031.967 135.681, 1033.146 140.380, 1033.555 145.927 C 1033.754 148.626, 1034.490 150.695, 1035.440 151.227 C 1036.304 151.710, 1037 153.417, 1037 155.050 C 1037 157.006, 1037.506 158, 1038.500 158 C 1039.633 158, 1040 159.222, 1040 163 C 1040 165.750, 1040.450 168, 1041 168 C 1041.578 168, 1042 171.167, 1042 175.500 C 1042 180.825, 1042.362 183.004, 1043.250 183.015 C 1044.226 183.027, 1044.220 183.208, 1043.220 183.843 C 1041.383 185.009, 1040.921 218, 1042.742 218 C 1043.434 218, 1044 218.900, 1044 220 C 1044 221.100, 1043.367 222, 1042.594 222 C 1041.703 222, 1041.370 222.699, 1041.685 223.904 C 1042.023 225.194, 1041.544 226.010, 1040.200 226.436 C 1037.758 227.212, 1036.724 231.328, 1036.793 240 C 1036.821 243.575, 1036.617 245.938, 1036.339 245.250 C 1036.061 244.562, 1035.366 244, 1034.794 244 C 1033.220 244, 1034.212 287.237, 1035.798 287.766 C 1036.459 287.986, 1036.993 289.592, 1036.985 291.333 C 1036.973 293.746, 1036.738 294.143, 1036 293 C 1035.216 291.787, 1035.028 291.931, 1035.015 293.750 C 1035.007 294.988, 1035.450 296, 1036 296 C 1036.550 296, 1037 297.357, 1037 299.015 C 1037 302.805, 1040.088 314.283, 1041.340 315.144 C 1041.855 315.499, 1042.726 320.336, 1043.276 325.894 C 1044.110 334.319, 1044.557 336, 1045.966 336 C 1047.375 336, 1047.867 337.862, 1048.936 347.250 C 1049.640 353.438, 1050.595 358.737, 1051.057 359.027 C 1051.519 359.317, 1052.116 364.267, 1052.383 370.027 C 1052.879 380.707, 1053.520 384, 1055.105 384 C 1055.595 384, 1055.819 385.913, 1055.602 388.250 C 1055.385 390.588, 1055.836 394.017, 1056.604 395.872 C 1057.531 398.111, 1058 403.235, 1058 411.122 C 1058 417.655, 1058.410 423, 1058.912 423 C 1059.983 423, 1060.665 427.218, 1061.542 439.250 C 1061.999 445.526, 1062.554 448, 1063.504 448 C 1065.035 448, 1065.627 453.934, 1066.576 478.795 C 1067.007 490.068, 1067.653 496.001, 1068.673 498.045 C 1069.483 499.671, 1070.278 503.138, 1070.439 505.750 C 1071.034 515.429, 1072.302 524, 1073.138 524 C 1073.612 524, 1074 526.438, 1074 529.417 C 1074 532.814, 1074.466 535.021, 1075.250 535.338 C 1076.250 535.741, 1076.250 535.858, 1075.250 535.921 C 1073.562 536.028, 1073.659 540.802, 1075.384 542.527 C 1076.379 543.522, 1076.973 548.425, 1077.498 559.955 C 1077.899 568.780, 1078.572 576, 1078.992 576 C 1079.413 576, 1080.214 577.800, 1080.772 580 C 1081.330 582.200, 1081.498 584, 1081.144 584 C 1080.790 584, 1080.364 589.400, 1080.199 596 C 1080.006 603.680, 1080.264 608, 1080.916 608 C 1081.572 608, 1081.875 613.551, 1081.767 623.567 C 1081.655 633.880, 1081.965 639.364, 1082.687 639.817 C 1083.342 640.228, 1084.067 646.764, 1084.509 656.250 C 1084.912 664.913, 1085.638 672, 1086.121 672 C 1087.365 672, 1087.251 703.749, 1086.006 704.167 C 1085.363 704.382, 1084.962 727.023, 1084.870 768.250 C 1084.792 803.313, 1084.396 832, 1083.990 832 C 1083.584 832, 1082.995 841.112, 1082.681 852.250 C 1081.910 879.593, 1080.207 903.427, 1078.994 903.833 C 1078.420 904.026, 1077.992 908.670, 1077.980 914.833 C 1077.970 920.700, 1077.253 929.100, 1076.388 933.500 C 1075.523 937.900, 1074.582 946.675, 1074.296 953 C 1074.011 959.325, 1073.416 964.727, 1072.976 965.005 C 1072.535 965.283, 1072.063 967.983, 1071.927 971.005 C 1071.791 974.027, 1071.359 976.950, 1070.966 977.500 C 1070.292 978.443, 1069.647 981.209, 1068.343 988.750 C 1068.033 990.543, 1068.210 992, 1068.738 992 C 1069.264 992, 1070.732 992.900, 1072 994 C 1073.268 995.100, 1073.827 996, 1073.241 996 C 1072.655 996, 1071.872 997.800, 1071.500 1000 C 1070.909 1003.496, 1070.489 1004, 1068.162 1004 C 1065.198 1004, 1065.137 1004.236, 1065.089 1016.053 C 1065.074 1019.657, 1064.373 1024.255, 1063.531 1026.271 C 1062.689 1028.287, 1062 1032.007, 1062 1034.539 C 1062 1037.293, 1061.399 1039.744, 1060.504 1040.639 C 1059.254 1041.889, 1059.106 1044.564, 1059.605 1056.907 L 1060.202 1071.679 1057.601 1074.486 C 1052.596 1079.886, 1052.984 1080, 1076.393 1080 C 1095.842 1080, 1097.848 1079.841, 1098.464 1078.250 C 1099.111 1076.583, 1099.204 1076.583, 1100.432 1078.250 C 1101.655 1079.912, 1122.361 1080, 1510.860 1080 L 1920 1080 1920 540 L 1920 0 1828.083 0 C 1755.486 0, 1736.061 0.263, 1735.662 1.250 C 1735.259 2.250, 1735.142 2.250, 1735.079 1.250 C 1735.016 0.252, 1661.091 0, 1369 0 C 1154.900 0, 1003 0.371, 1003 0.893 C 1003 2.614, 999.694 3.033, 998.027 1.524 C 995.575 -0.695, 995.252 -0.436, 994.820 4.089 M 1168 7.559 C 1168 8.416, 1168.457 8.835, 1169.016 8.490 C 1169.575 8.144, 1169.774 7.443, 1169.457 6.931 C 1168.600 5.544, 1168 5.802, 1168 7.559 M 1776.377 14.460 C 1776.034 15.354, 1775.969 16.302, 1776.233 16.567 C 1777.080 17.414, 1780.098 15.793, 1779.730 14.689 C 1779.129 12.887, 1777.035 12.744, 1776.377 14.460 M 1045.250 16.718 C 1044.563 16.965, 1044 18.479, 1044 20.083 C 1044 22.333, 1044.457 23, 1046 23 C 1047.547 23, 1048 22.333, 1048 20.059 C 1048 16.912, 1047.250 16.001, 1045.250 16.718 M 1091.336 26.567 C 1090.502 28.739, 1092.618 30.782, 1094.133 29.267 C 1095.413 27.987, 1094.620 25, 1093 25 C 1092.415 25, 1091.667 25.705, 1091.336 26.567 M 1772.667 29.667 C 1771.399 30.934, 1772.008 32, 1774 32 C 1775.111 32, 1776 31.333, 1776 30.500 C 1776 28.978, 1773.885 28.449, 1772.667 29.667 M 1004.015 33.781 C 1003.997 36.510, 1006.440 37.710, 1008.513 35.989 C 1010.636 34.227, 1010.350 32, 1008 32 C 1006.900 32, 1005.993 32.563, 1005.985 33.250 C 1005.974 34.083, 1005.646 34, 1005 33 C 1004.218 31.790, 1004.028 31.942, 1004.015 33.781 M 1026 36 C 1026 37.333, 1026.667 38, 1028 38 C 1029.333 38, 1030 37.333, 1030 36 C 1030 34.667, 1029.333 34, 1028 34 C 1026.667 34, 1026 34.667, 1026 36 M 1233.047 39.444 C 1231.677 41.094, 1232.430 43, 1234.452 43 C 1236.363 43, 1237.119 40.343, 1235.573 39.061 C 1234.612 38.263, 1233.943 38.364, 1233.047 39.444 M 1259.500 49 C 1258.419 50.749, 1260.022 52.227, 1261.589 50.926 C 1262.365 50.282, 1263 49.360, 1263 48.878 C 1263 47.672, 1260.262 47.768, 1259.500 49 M 1232 52 C 1232 53.333, 1232.667 54, 1234 54 C 1235.333 54, 1236 53.333, 1236 52 C 1236 50.667, 1235.333 50, 1234 50 C 1232.667 50, 1232 50.667, 1232 52 M 1040.145 79.417 C 1037.991 81.790, 1038.347 84, 1040.883 84 C 1043.221 84, 1045 82.041, 1045 79.467 C 1045 76.736, 1042.600 76.711, 1040.145 79.417 M 1052 84 C 1052 85.100, 1052.402 86, 1052.893 86 C 1054.017 86, 1055.066 83.399, 1054.264 82.598 C 1053.061 81.394, 1052 82.051, 1052 84 M 1213.345 85.543 C 1213.019 86.392, 1213.004 87.337, 1213.310 87.643 C 1214.186 88.519, 1216 87.034, 1216 85.441 C 1216 83.522, 1214.092 83.596, 1213.345 85.543 M 1441.250 85.662 C 1440.563 85.940, 1440 87.029, 1440 88.083 C 1440 89.438, 1440.701 90, 1442.393 90 C 1445.098 90, 1446.412 87.812, 1444.722 86.122 C 1443.522 84.922, 1443.193 84.878, 1441.250 85.662 M 1109 104.500 C 1109 105.325, 1109.450 106, 1110 106 C 1110.550 106, 1111 105.325, 1111 104.500 C 1111 103.675, 1110.550 103, 1110 103 C 1109.450 103, 1109 103.675, 1109 104.500 M 1057 122.573 C 1057 125.856, 1060.345 125.564, 1060.820 122.240 C 1061.062 120.539, 1060.641 120, 1059.070 120 C 1057.513 120, 1057 120.638, 1057 122.573 M 1307 121.573 C 1307 122.505, 1307.680 123.015, 1308.667 122.823 C 1311.176 122.337, 1311.520 120, 1309.083 120 C 1307.855 120, 1307 120.646, 1307 121.573 M 1088 127.570 C 1088 129.662, 1088.418 130.080, 1090.250 129.820 C 1091.696 129.614, 1092.614 128.696, 1092.820 127.250 C 1093.080 125.418, 1092.662 125, 1090.570 125 C 1088.477 125, 1088 125.477, 1088 127.570 M 1206.638 135.500 C 1205.696 137.956, 1207.080 140.131, 1209.377 139.803 C 1210.854 139.592, 1211.596 138.663, 1211.816 136.750 C 1212.086 134.410, 1211.766 134, 1209.673 134 C 1208.321 134, 1206.955 134.675, 1206.638 135.500 M 1243 147 C 1243 147.550, 1243.477 148, 1244.059 148 C 1244.641 148, 1244.840 147.550, 1244.500 147 C 1244.160 146.450, 1243.684 146, 1243.441 146 C 1243.198 146, 1243 146.450, 1243 147 M 1104.430 173.321 C 1103.630 175.408, 1104.630 176.770, 1105.975 175.425 C 1106.543 174.857, 1106.558 173.903, 1106.012 173.020 C 1105.245 171.778, 1105.005 171.824, 1104.430 173.321 M 1290 187 C 1290 187.550, 1290.675 188, 1291.500 188 C 1292.325 188, 1293 187.550, 1293 187 C 1293 186.450, 1292.325 186, 1291.500 186 C 1290.675 186, 1290 186.450, 1290 187 M 1610.190 201.750 C 1610.376 202.713, 1611.190 203.500, 1612 203.500 C 1612.810 203.500, 1613.624 202.713, 1613.810 201.750 C 1614.046 200.522, 1613.506 200, 1612 200 C 1610.494 200, 1609.954 200.522, 1610.190 201.750 M 1460.500 215 C 1460.160 215.550, 1460.809 216, 1461.941 216 C 1463.073 216, 1464 215.550, 1464 215 C 1464 214.450, 1463.352 214, 1462.559 214 C 1461.766 214, 1460.840 214.450, 1460.500 215 M 1045.158 220 C 1045.158 221.375, 1045.385 221.938, 1045.662 221.250 C 1045.940 220.563, 1045.940 219.438, 1045.662 218.750 C 1045.385 218.063, 1045.158 218.625, 1045.158 220 M 1079 222.469 C 1079 223.363, 1079.586 223.712, 1080.500 223.362 C 1081.325 223.045, 1082 222.384, 1082 221.893 C 1082 221.402, 1081.325 221, 1080.500 221 C 1079.675 221, 1079 221.661, 1079 222.469 M 1843.669 226.814 C 1842.403 228.213, 1842.299 228.899, 1843.214 229.814 C 1846.082 232.682, 1850.460 229.465, 1847.895 226.373 C 1846.391 224.561, 1845.636 224.640, 1843.669 226.814 M 1235.701 279.632 C 1235.316 280.018, 1235 281.190, 1235 282.236 C 1235 283.638, 1235.593 284.055, 1237.250 283.820 C 1238.721 283.611, 1239.500 282.812, 1239.500 281.514 C 1239.500 279.530, 1237.028 278.306, 1235.701 279.632 M 1050.500 295 C 1050.160 295.550, 1050.835 296, 1052 296 C 1053.165 296, 1053.840 295.550, 1053.500 295 C 1053.160 294.450, 1052.485 294, 1052 294 C 1051.515 294, 1050.840 294.450, 1050.500 295 M 1233.500 297 C 1233.840 297.550, 1234.541 298, 1235.059 298 C 1235.577 298, 1236 297.550, 1236 297 C 1236 296.450, 1235.298 296, 1234.441 296 C 1233.584 296, 1233.160 296.450, 1233.500 297 M 1810 303 C 1810 303.550, 1810.927 304, 1812.059 304 C 1813.191 304, 1813.840 303.550, 1813.500 303 C 1813.160 302.450, 1812.234 302, 1811.441 302 C 1810.648 302, 1810 302.450, 1810 303 M 1172.667 316.667 C 1171.428 317.906, 1171.989 320.782, 1173.590 321.396 C 1175.848 322.263, 1177 321.265, 1177 318.441 C 1177 316.741, 1176.444 316, 1175.167 316 C 1174.158 316, 1173.033 316.300, 1172.667 316.667 M 1053 325.941 C 1053 327.073, 1053.450 328, 1054 328 C 1054.550 328, 1055 327.352, 1055 326.559 C 1055 325.766, 1054.550 324.840, 1054 324.500 C 1053.450 324.160, 1053 324.809, 1053 325.941 M 1103.500 327 C 1103.160 327.550, 1103.584 328, 1104.441 328 C 1105.298 328, 1106 327.550, 1106 327 C 1106 326.450, 1105.577 326, 1105.059 326 C 1104.541 326, 1103.840 326.450, 1103.500 327 M 1314.667 333.667 C 1313.516 334.817, 1313.938 336, 1315.500 336 C 1316.325 336, 1317 335.325, 1317 334.500 C 1317 332.938, 1315.817 332.516, 1314.667 333.667 M 1121.079 337.583 C 1121.127 338.748, 1121.364 338.985, 1121.683 338.188 C 1121.972 337.466, 1121.936 336.603, 1121.604 336.271 C 1121.272 335.939, 1121.036 336.529, 1121.079 337.583 M 1087.538 372.348 C 1086.524 373.090, 1086.004 374.198, 1086.383 374.811 C 1087.296 376.288, 1092 374.219, 1092 372.339 C 1092 370.620, 1089.896 370.624, 1087.538 372.348 M 1548.500 391 C 1548.160 391.550, 1548.809 392, 1549.941 392 C 1551.073 392, 1552 391.550, 1552 391 C 1552 390.450, 1551.352 390, 1550.559 390 C 1549.766 390, 1548.840 390.450, 1548.500 391 M 1094 472.500 C 1094 474.286, 1094.540 475, 1095.893 475 C 1097.911 475, 1098.986 473.304, 1098.269 471.250 C 1098.030 470.563, 1096.971 470, 1095.917 470 C 1094.539 470, 1094 470.703, 1094 472.500 M 1210 487 C 1210 487.550, 1210.675 488, 1211.500 488 C 1212.325 488, 1213 487.550, 1213 487 C 1213 486.450, 1212.325 486, 1211.500 486 C 1210.675 486, 1210 486.450, 1210 487 M 1650.431 527.112 C 1649.836 528.075, 1651.539 529.969, 1653 529.969 C 1653.275 529.969, 1654.120 529.577, 1654.878 529.096 C 1656.646 527.977, 1655.447 526, 1653 526 C 1651.965 526, 1650.809 526.500, 1650.431 527.112 M 1395.446 531.087 C 1394.416 532.755, 1396.733 534.667, 1398.113 533.287 C 1399.267 532.133, 1398.545 530, 1397 530 C 1396.515 530, 1395.816 530.489, 1395.446 531.087 M 1161.667 531.667 C 1160.516 532.817, 1160.938 534, 1162.500 534 C 1163.325 534, 1164 533.325, 1164 532.500 C 1164 530.938, 1162.817 530.516, 1161.667 531.667 M 1576 539 C 1576 539.550, 1576.900 540, 1578 540 C 1579.100 540, 1580 539.550, 1580 539 C 1580 538.450, 1579.100 538, 1578 538 C 1576.900 538, 1576 538.450, 1576 539 M 704 543 C 704 543.550, 705.377 544, 707.059 544 C 708.844 544, 709.861 543.583, 709.500 543 C 709.160 542.450, 707.784 542, 706.441 542 C 705.098 542, 704 542.450, 704 543 M 1157.532 549.965 C 1156.442 551.169, 1155.936 552.884, 1156.225 554.395 C 1156.599 556.354, 1156.206 556.982, 1154.307 557.459 C 1152.993 557.789, 1152.162 558.453, 1152.460 558.935 C 1152.758 559.418, 1153.815 559.600, 1154.808 559.340 C 1156.336 558.940, 1156.553 559.386, 1156.220 562.239 C 1155.962 564.455, 1156.358 566.052, 1157.376 566.897 C 1158.704 567.999, 1158.902 567.848, 1158.760 565.841 C 1158.552 562.903, 1161.030 555, 1162.158 555 C 1162.621 555, 1163 555.540, 1163 556.200 C 1163 557.097, 1163.315 557.080, 1164.250 556.133 C 1165.252 555.117, 1165.115 554.581, 1163.559 553.433 C 1162.491 552.645, 1161.945 552, 1162.344 552 C 1162.744 552, 1162.589 551.100, 1162 550 C 1160.659 547.494, 1159.774 547.487, 1157.532 549.965 M 1136.469 551.050 C 1136.112 551.628, 1135.519 554.215, 1135.152 556.800 C 1134.517 561.269, 1134.228 561.623, 1129.281 564 C 1126.420 565.375, 1124.061 566.814, 1124.039 567.198 C 1123.973 568.375, 1128.321 572.401, 1131.654 574.250 C 1134.950 576.078, 1140.531 576.669, 1139.553 575.085 C 1139.242 574.582, 1139.553 573.981, 1140.244 573.749 C 1140.935 573.516, 1142.048 574.620, 1142.718 576.202 C 1143.717 578.561, 1144.435 579.010, 1146.718 578.705 C 1150.375 578.216, 1150.748 575.719, 1147.660 572.389 C 1145.950 570.545, 1144.537 569.888, 1143.092 570.266 C 1140.622 570.912, 1140.149 568.540, 1142.563 567.614 C 1143.423 567.284, 1143.878 566.612, 1143.575 566.121 C 1142.958 565.123, 1146.593 563.706, 1149.161 563.943 C 1151.112 564.122, 1152.685 562.064, 1151.305 561.138 C 1150.782 560.787, 1150.053 559.684, 1149.684 558.687 C 1149.316 557.689, 1148.626 557.113, 1148.152 557.406 C 1147.677 557.700, 1147.491 556.881, 1147.739 555.587 C 1148.294 552.683, 1146.458 551.375, 1144.319 553.150 C 1142.962 554.277, 1142.506 554.141, 1141.241 552.236 C 1139.659 549.853, 1137.535 549.325, 1136.469 551.050 M 1142.079 558.583 C 1142.127 559.748, 1142.364 559.985, 1142.683 559.188 C 1142.972 558.466, 1142.936 557.603, 1142.604 557.271 C 1142.272 556.939, 1142.036 557.529, 1142.079 558.583 M 1137.250 566.662 C 1135.497 567.370, 1135.695 568.669, 1137.670 569.427 C 1139.374 570.081, 1141.267 568.241, 1140.375 566.798 C 1139.835 565.925, 1139.151 565.895, 1137.250 566.662 M 1161.750 568.717 C 1162.438 568.953, 1163 569.564, 1163 570.073 C 1163 571.320, 1166.722 571.259, 1167.500 570 C 1167.840 569.450, 1167.304 568.994, 1166.309 568.986 C 1165.314 568.979, 1163.600 568.818, 1162.500 568.630 C 1161.400 568.441, 1161.063 568.480, 1161.750 568.717 M 1234.958 570.550 C 1233.901 571.824, 1233.937 572.366, 1235.158 573.587 C 1236.772 575.200, 1240 574.538, 1240 572.593 C 1240 571.305, 1238.026 569, 1236.922 569 C 1236.550 569, 1235.666 569.698, 1234.958 570.550 M 1153.573 571.521 C 1152.513 572.323, 1152.012 573.321, 1152.460 573.740 C 1152.908 574.158, 1153.475 573.938, 1153.720 573.250 C 1154.328 571.549, 1156.486 571.676, 1158 573.500 C 1159.183 574.926, 1164 575.657, 1164 574.410 C 1164 573.145, 1159.394 570.066, 1157.500 570.065 C 1156.400 570.064, 1154.633 570.720, 1153.573 571.521 M 1469.694 588.639 C 1468.895 589.438, 1469.798 591, 1471.059 591 C 1471.577 591, 1472 590.325, 1472 589.500 C 1472 587.954, 1470.820 587.513, 1469.694 588.639 M 1201.459 629.067 C 1200.539 630.556, 1201.606 631.365, 1203.520 630.631 C 1204.404 630.292, 1204.847 629.561, 1204.504 629.007 C 1203.694 627.696, 1202.289 627.723, 1201.459 629.067 M 1696 629.531 C 1696 631.620, 1698.695 632.498, 1700.502 630.999 C 1702.443 629.388, 1701.489 628, 1698.441 628 C 1696.916 628, 1696 628.574, 1696 629.531 M 1796.380 642.452 C 1795.565 644.575, 1796.793 646, 1799.437 646 C 1802.467 646, 1804.394 643.794, 1802.776 642.176 C 1801.131 640.531, 1797.050 640.707, 1796.380 642.452 M 1467.104 644.914 C 1465.202 646.119, 1466.475 649, 1468.910 649 C 1471.638 649, 1472.324 647.467, 1470.438 645.581 C 1468.596 643.739, 1468.873 643.795, 1467.104 644.914 M 1245 659.500 C 1245 660.417, 1245.484 661.005, 1246.075 660.808 C 1246.666 660.611, 1247.150 660.023, 1247.150 659.500 C 1247.150 658.977, 1246.666 658.389, 1246.075 658.192 C 1245.484 657.995, 1245 658.583, 1245 659.500 M 1082 670 C 1082 671.100, 1082.450 672, 1083 672 C 1083.550 672, 1084 671.100, 1084 670 C 1084 668.900, 1083.550 668, 1083 668 C 1082.450 668, 1082 668.900, 1082 670 M 1803 682 C 1803 682.550, 1803.450 683, 1804 683 C 1804.550 683, 1805 682.550, 1805 682 C 1805 681.450, 1804.550 681, 1804 681 C 1803.450 681, 1803 681.450, 1803 682 M 1185.345 684.543 C 1184.585 686.524, 1184.953 686.841, 1188.944 687.639 L 1192.242 688.298 1190.506 685.649 C 1188.570 682.695, 1186.245 682.197, 1185.345 684.543 M 1306.496 688.007 C 1306.153 688.561, 1306.596 689.292, 1307.480 689.631 C 1309.394 690.365, 1310.461 689.556, 1309.541 688.067 C 1308.711 686.723, 1307.306 686.696, 1306.496 688.007 M 1206.250 696.662 C 1204.584 697.335, 1204.658 700.471, 1206.373 701.895 C 1209.365 704.378, 1213.134 700.277, 1210.386 697.529 C 1208.789 695.931, 1208.310 695.831, 1206.250 696.662 M 1763 706.878 C 1763 708.189, 1765.585 710.082, 1766.342 709.325 C 1767.711 707.956, 1766.922 706, 1765 706 C 1763.900 706, 1763 706.395, 1763 706.878 M 1457.056 709.433 C 1455.380 711.452, 1456.414 714, 1458.910 714 C 1461.852 714, 1462.498 712.054, 1460.289 709.845 C 1458.545 708.101, 1458.198 708.057, 1457.056 709.433 M 1398 722.500 C 1398 723.530, 1398.655 724.020, 1399.750 723.810 C 1401.858 723.404, 1401.725 721.629, 1399.553 721.177 C 1398.647 720.988, 1398 721.539, 1398 722.500 M 1090.229 726.188 C 1090.847 728.042, 1093 728.349, 1093 726.583 C 1093 725.712, 1092.287 725, 1091.417 725 C 1090.546 725, 1090.011 725.534, 1090.229 726.188 M 1910.500 728 C 1910.840 728.550, 1911.316 729, 1911.559 729 C 1911.802 729, 1912 728.550, 1912 728 C 1912 727.450, 1911.523 727, 1910.941 727 C 1910.359 727, 1910.160 727.450, 1910.500 728 M 1533 730.500 C 1533 731.333, 1533.889 732, 1535 732 C 1536.111 732, 1537 731.333, 1537 730.500 C 1537 729.667, 1536.111 729, 1535 729 C 1533.889 729, 1533 729.667, 1533 730.500 M 568.079 734.583 C 568.127 735.748, 568.364 735.985, 568.683 735.188 C 568.972 734.466, 568.936 733.603, 568.604 733.271 C 568.272 732.939, 568.036 733.529, 568.079 734.583 M 572.079 734.583 C 572.127 735.748, 572.364 735.985, 572.683 735.188 C 572.972 734.466, 572.936 733.603, 572.604 733.271 C 572.272 732.939, 572.036 733.529, 572.079 734.583 M 584 739 C 584 739.550, 585.462 739.993, 587.250 739.985 C 589.716 739.973, 590.138 739.736, 589 739 C 587.035 737.730, 584 737.730, 584 739 M 1182.441 739.096 C 1181.384 740.806, 1184.718 743.682, 1186.126 742.274 C 1186.753 741.647, 1186.995 740.429, 1186.664 739.567 C 1185.972 737.764, 1183.439 737.481, 1182.441 739.096 M 1275 740 C 1275 741.506, 1275.522 742.046, 1276.750 741.810 C 1277.713 741.624, 1278.500 740.810, 1278.500 740 C 1278.500 739.190, 1277.713 738.376, 1276.750 738.190 C 1275.522 737.954, 1275 738.494, 1275 740 M 1488 741 C 1488 741.550, 1488.450 742, 1489 742 C 1489.550 742, 1490 741.550, 1490 741 C 1490 740.450, 1489.550 740, 1489 740 C 1488.450 740, 1488 740.450, 1488 741 M 597.559 745.294 C 598.132 746.787, 607.105 750.187, 608 749.250 C 608.275 748.962, 607.929 748.523, 607.232 748.274 C 606.535 748.025, 605.384 747.241, 604.675 746.533 C 603.967 745.824, 601.950 744.928, 600.194 744.543 C 597.635 743.981, 597.113 744.130, 597.559 745.294 M 1194.188 747.063 C 1194.428 747.784, 1195.216 748.572, 1195.938 748.813 C 1196.688 749.063, 1197.063 748.688, 1196.813 747.938 C 1196.572 747.216, 1195.784 746.428, 1195.063 746.188 C 1194.313 745.938, 1193.938 746.313, 1194.188 747.063 M 617.149 751.604 C 616.002 752.901, 616.077 753.344, 617.649 754.539 C 620.649 756.820, 623.173 757.335, 624.110 755.857 C 625.603 753.500, 625.082 751.982, 622.435 750.975 C 619.143 749.724, 618.773 749.768, 617.149 751.604 M 1401 761.583 C 1401 763.349, 1403.153 763.042, 1403.771 761.188 C 1403.989 760.534, 1403.454 760, 1402.583 760 C 1401.713 760, 1401 760.712, 1401 761.583 M 1842.543 769.931 C 1841.803 771.128, 1843.684 772.313, 1845.016 771.490 C 1846.135 770.799, 1845.400 769, 1844 769 C 1843.515 769, 1842.859 769.419, 1842.543 769.931 M 1373.166 791.876 C 1372.102 792.551, 1372.169 792.851, 1373.498 793.361 C 1375.825 794.254, 1376 794.193, 1376 792.500 C 1376 790.817, 1375.137 790.627, 1373.166 791.876 M 1849.171 805.675 C 1849.389 806.826, 1850.563 807.620, 1852.346 807.825 C 1854.631 808.087, 1855.109 807.799, 1854.829 806.325 C 1854.611 805.174, 1853.437 804.380, 1851.654 804.175 C 1849.369 803.913, 1848.891 804.201, 1849.171 805.675 M 1236.510 816.984 C 1235.773 818.177, 1236.709 820, 1238.059 820 C 1239.276 820, 1239.284 817.293, 1238.069 816.543 C 1237.557 816.226, 1236.856 816.425, 1236.510 816.984 M 1184 851.469 C 1184 852.363, 1184.586 852.712, 1185.500 852.362 C 1186.325 852.045, 1187 851.384, 1187 850.893 C 1187 850.402, 1186.325 850, 1185.500 850 C 1184.675 850, 1184 850.661, 1184 851.469 M 1099.250 859.496 C 1098.563 860.277, 1098 861.501, 1098 862.217 C 1098 863.848, 1101.751 866.272, 1103.041 865.475 C 1104.625 864.496, 1104.151 859.272, 1102.418 858.607 C 1100.485 857.865, 1100.752 857.790, 1099.250 859.496 M 1096 878.154 C 1096 879.899, 1096.248 880.039, 1097.500 879 C 1098.325 878.315, 1099 877.633, 1099 877.485 C 1099 877.336, 1098.325 876.955, 1097.500 876.638 C 1096.461 876.240, 1096 876.706, 1096 878.154 M 1673.667 878.667 C 1672.149 880.185, 1673.147 882, 1675.500 882 C 1678.292 882, 1678.947 879.577, 1676.418 878.607 C 1674.460 877.855, 1674.478 877.855, 1673.667 878.667 M 560.375 887.125 C 560.719 888.844, 561 890.644, 561 891.125 C 561 891.606, 562.575 892, 564.500 892 C 567.333 892, 568 892.381, 568 894 C 568 895.667, 568.667 896, 572 896 L 576 896 576 900 L 576 904 580 904 C 583.885 904, 584 903.902, 584 900.588 C 584 897.386, 583.753 897.134, 580 896.500 C 577.025 895.997, 576 895.352, 576 893.982 C 576 892.866, 576.888 891.968, 578.250 891.706 L 580.500 891.272 578.250 891.136 C 576.977 891.059, 576 890.349, 576 889.500 C 576 888.417, 574.889 888, 572 888 C 568.667 888, 568 887.667, 568 886 C 568 884.323, 567.333 884, 563.875 884 C 559.788 884, 559.756 884.029, 560.375 887.125 M 617 885.500 C 617 886.433, 617.944 887, 619.500 887 C 621.056 887, 622 886.433, 622 885.500 C 622 884.567, 621.056 884, 619.500 884 C 617.944 884, 617 884.567, 617 885.500 M 1509.441 915.096 C 1508.368 916.831, 1511.720 919.680, 1513.150 918.250 C 1514.037 917.363, 1514.009 916.716, 1513.035 915.542 C 1511.527 913.725, 1510.376 913.582, 1509.441 915.096 M 1129.441 921.096 C 1129.068 921.699, 1129.418 922.846, 1130.218 923.646 C 1131.490 924.918, 1131.828 924.912, 1132.922 923.594 C 1133.610 922.765, 1133.882 921.618, 1133.527 921.044 C 1132.682 919.676, 1130.299 919.707, 1129.441 921.096 M 1237.667 948.667 C 1236.290 950.043, 1237.073 952, 1239 952 C 1241.202 952, 1241.273 951.876, 1240.393 949.582 C 1239.749 947.903, 1238.762 947.572, 1237.667 948.667 M 1435.813 960.683 C 1436.534 960.972, 1437.397 960.936, 1437.729 960.604 C 1438.061 960.272, 1437.471 960.036, 1436.417 960.079 C 1435.252 960.127, 1435.015 960.364, 1435.813 960.683 M 504 992.378 C 504 998.333, 504.201 999, 506 999 C 507.587 999, 508.034 998.278, 508.167 995.500 C 508.258 993.575, 508.371 991.267, 508.417 990.372 C 508.462 989.477, 507.488 988.072, 506.250 987.250 L 504 985.756 504 992.378 M 1173 992 C 1173 992.550, 1173.450 993, 1174 993 C 1174.550 993, 1175 992.550, 1175 992 C 1175 991.450, 1174.550 991, 1174 991 C 1173.450 991, 1173 991.450, 1173 992 M 1621 998.500 C 1621 999.333, 1621.889 1000, 1623 1000 C 1624.111 1000, 1625 999.333, 1625 998.500 C 1625 997.667, 1624.111 997, 1623 997 C 1621.889 997, 1621 997.667, 1621 998.500 M 1158 1003.500 C 1158 1004.325, 1158.436 1005, 1158.969 1005 C 1159.501 1005, 1159.678 1004.325, 1159.362 1003.500 C 1159.045 1002.675, 1158.609 1002, 1158.393 1002 C 1158.177 1002, 1158 1002.675, 1158 1003.500 M 446 1055 C 446 1055.550, 446.450 1056, 447 1056 C 447.550 1056, 448 1055.550, 448 1055 C 448 1054.450, 447.550 1054, 447 1054 C 446.450 1054, 446 1054.450, 446 1055" stroke="none" fill="black" fill-rule="evenodd"/>
</svg>