<svg xmlns="http://www.w3.org/2000/svg" width="1920" height="1080" viewBox="0 0 1920 1080" version="1.1">
	<path fill-opacity="0.365" d="M 0 354.339 L 0 708.679 2.500 709.818 C 5.972 711.400, 5.972 715.718, 2.500 716.589 L -0 717.217 -0 898.609 L -0 1080.001 960.250 1079.751 L 1920.500 1079.500 1920.751 539.750 L 1921.001 0 960.501 0 L 0 0 0 354.339 M 0.494 355 C 0.494 549.975, 0.609 629.738, 0.750 532.250 C 0.891 434.763, 0.891 275.238, 0.750 177.750 C 0.609 80.263, 0.494 160.025, 0.494 355 M 466.556 33.910 C 465.721 35.261, 467.022 38, 468.500 38 C 469.978 38, 471.279 35.261, 470.444 33.910 C 470.135 33.409, 469.260 33, 468.500 33 C 467.740 33, 466.865 33.409, 466.556 33.910 M 885.122 41.353 C 883.906 42.818, 884.596 44, 886.667 44 C 888.156 44, 888.492 41.422, 887.113 40.570 C 886.626 40.269, 885.730 40.621, 885.122 41.353 M 931 86.393 C 931 89.292, 933.168 90.329, 935.565 88.576 C 937.971 86.817, 936.719 84, 933.531 84 C 931.528 84, 931 84.499, 931 86.393 M 1544.244 117.250 C 1544.881 119.191, 1550 119.472, 1550 117.566 C 1550 116.483, 1549.049 116, 1546.917 116 C 1544.898 116, 1543.975 116.432, 1544.244 117.250 M 1539 121.278 C 1539 124.345, 1541.218 128.824, 1542.963 129.280 C 1546.712 130.260, 1550 128.907, 1550 126.383 C 1550 124.427, 1549.487 124, 1547.135 124 C 1545.559 124, 1543.084 123.067, 1541.635 121.927 C 1539.660 120.374, 1539 120.211, 1539 121.278 M 436 145 C 436 145.550, 436.450 146, 437 146 C 437.550 146, 438 145.550, 438 145 C 438 144.450, 437.550 144, 437 144 C 436.450 144, 436 144.450, 436 145 M 1162.200 168.200 C 1160.400 170, 1160.753 172.798, 1162.928 173.961 C 1165.370 175.268, 1167.745 174.380, 1168.545 171.860 C 1169.730 168.124, 1165.003 165.397, 1162.200 168.200 M 1045 186.500 C 1045 187.333, 1045.889 188, 1047 188 C 1048.111 188, 1049 187.333, 1049 186.500 C 1049 185.667, 1048.111 185, 1047 185 C 1045.889 185, 1045 185.667, 1045 186.500 M 1042.509 190 C 1043.383 193.052, 1045.013 195.008, 1044.968 192.950 C 1044.951 192.153, 1044.229 190.600, 1043.365 189.500 C 1041.838 187.557, 1041.814 187.571, 1042.509 190 M 272 222.441 C 272 224.441, 273.061 224.902, 276.256 224.291 C 280.340 223.511, 279.764 221, 275.500 221 C 273.119 221, 272 221.461, 272 222.441 M 531.117 268.740 C 527.492 270.496, 527.259 273.320, 530.699 273.811 C 532.792 274.111, 537 270.969, 537 269.107 C 537 267.374, 534.286 267.205, 531.117 268.740 M 464 404.500 C 464 406.665, 464.404 407.082, 466.250 406.820 C 467.727 406.610, 468.500 405.813, 468.500 404.500 C 468.500 403.187, 467.727 402.390, 466.250 402.180 C 464.404 401.918, 464 402.335, 464 404.500 M 1409.088 416.394 C 1407.071 418.824, 1410.618 421.315, 1415.218 420.698 C 1423.666 419.564, 1423.491 415, 1415 415 C 1412.154 415, 1409.780 415.560, 1409.088 416.394 M 89.480 458.032 C 89.092 458.660, 89.245 459.645, 89.820 460.220 C 91.164 461.564, 94.297 460.392, 93.750 458.749 C 93.194 457.078, 90.364 456.602, 89.480 458.032 M 974.500 477 C 974.160 477.550, 974.359 478, 974.941 478 C 975.523 478, 976 477.550, 976 477 C 976 476.450, 975.802 476, 975.559 476 C 975.316 476, 974.840 476.450, 974.500 477 M 1367.278 480.122 C 1365.588 481.812, 1366.902 484, 1369.607 484 C 1371.493 484, 1372 483.470, 1372 481.500 C 1372 478.806, 1369.363 478.037, 1367.278 480.122 M 1282 517.059 C 1282 517.641, 1282.450 517.840, 1283 517.500 C 1283.550 517.160, 1284 516.684, 1284 516.441 C 1284 516.198, 1283.550 516, 1283 516 C 1282.450 516, 1282 516.477, 1282 517.059 M 1720.250 571.697 C 1717.363 572.264, 1717.366 574.539, 1720.257 576.432 C 1722.072 577.622, 1723.341 577.701, 1726.757 576.834 C 1729.090 576.241, 1731 575.417, 1731 575.001 C 1731 572.775, 1724.668 570.829, 1720.250 571.697 M 0.489 898.500 C 0.489 998.600, 0.607 1039.402, 0.750 989.171 C 0.893 938.940, 0.893 857.040, 0.750 807.171 C 0.607 757.302, 0.489 798.400, 0.489 898.500 M 566.145 736.717 C 564.517 738.062, 563.826 740.074, 563.334 744.907 L 562.682 751.314 566.041 750.642 C 570.472 749.756, 571.066 748.614, 570.759 741.579 C 570.476 735.101, 569.432 734.001, 566.145 736.717 M 1061.183 833.589 C 1057.244 835.336, 1057.250 837.722, 1061.199 839.938 C 1063.484 841.221, 1064.602 841.255, 1068.692 840.169 C 1074.717 838.570, 1076.891 836.640, 1075.380 834.231 C 1073.957 831.963, 1065.689 831.589, 1061.183 833.589 M 1619.824 833.874 C 1618.486 834.374, 1618.385 834.814, 1619.324 836.062 C 1621.141 838.475, 1623.747 839.102, 1624.441 837.294 C 1624.774 836.425, 1624.924 835.651, 1624.774 835.574 C 1624.623 835.497, 1623.825 834.942, 1623 834.341 C 1622.175 833.739, 1620.746 833.529, 1619.824 833.874 M 1611 836.809 C 1611 837.254, 1611.645 838.491, 1612.433 839.559 C 1613.489 840.990, 1614.163 841.207, 1614.997 840.386 C 1615.838 839.558, 1615.708 838.851, 1614.493 837.636 C 1612.748 835.891, 1611 835.477, 1611 836.809 M 1262 857.500 C 1262 858.325, 1262.450 859, 1263 859 C 1263.550 859, 1264 858.325, 1264 857.500 C 1264 856.675, 1263.550 856, 1263 856 C 1262.450 856, 1262 856.675, 1262 857.500 M 135 871.917 C 135 872.421, 135.563 873.060, 136.250 873.338 C 136.938 873.615, 136.511 873.878, 135.302 873.921 C 133.300 873.993, 133.197 874.267, 134.150 877 C 135.328 880.380, 136.470 880.823, 137.447 878.278 C 138.013 876.803, 138.241 876.767, 139.038 878.028 C 140.459 880.274, 140.303 876.759, 138.839 873.547 C 137.737 871.128, 135 869.966, 135 871.917 M 1560.180 962.240 C 1560.528 964.675, 1562.681 965.524, 1564.896 964.100 C 1567.028 962.728, 1565.409 960, 1562.462 960 C 1560.340 960, 1559.920 960.412, 1560.180 962.240 M 1726.078 1051.406 C 1724.668 1053.105, 1725.418 1055, 1727.500 1055 C 1729.665 1055, 1730.384 1052.956, 1728.782 1051.354 C 1727.510 1050.082, 1727.172 1050.088, 1726.078 1051.406 M 995 1072.583 C 995 1074.349, 997.153 1074.042, 997.771 1072.188 C 997.989 1071.534, 997.454 1071, 996.583 1071 C 995.712 1071, 995 1071.713, 995 1072.583" stroke="none" fill="black" fill-rule="evenodd"/>
	<path fill-opacity="0.463" d="M 0 354.430 L 0 708.861 2.148 709.180 C 7.046 709.909, 7.046 716.091, 2.148 716.820 L 0 717.139 -0 898.570 L -0 1080.001 960.250 1079.751 L 1920.500 1079.500 1920.751 539.750 L 1921.001 0 960.501 0 L 0 0 0 354.430 M 0.494 355 C 0.494 549.975, 0.609 629.738, 0.750 532.250 C 0.891 434.763, 0.891 275.238, 0.750 177.750 C 0.609 80.263, 0.494 160.025, 0.494 355 M 465.667 32.667 C 464.424 33.909, 464.991 37.783, 466.500 38.362 C 469.876 39.657, 473.086 36.014, 470.895 33.373 C 469.696 31.928, 466.797 31.537, 465.667 32.667 M 884.380 41.452 C 883.683 43.267, 884.695 45, 886.452 45 C 887.982 45, 888.910 43.085, 888.269 41.250 C 887.672 39.537, 885.063 39.673, 884.380 41.452 M 931.115 83.887 C 930.187 84.488, 929.951 85.668, 930.400 87.456 C 930.949 89.646, 931.558 90.070, 933.785 89.813 C 936.065 89.550, 936.500 89.020, 936.500 86.500 C 936.500 84.252, 935.999 83.436, 934.500 83.244 C 933.400 83.104, 931.877 83.393, 931.115 83.887 M 1538.380 114.621 C 1537.657 117.502, 1538.510 131.560, 1539.576 134.338 C 1540.456 136.630, 1542.414 135.926, 1542.820 133.172 C 1543.227 130.405, 1547.982 130.021, 1548.032 132.750 C 1548.060 134.311, 1548.227 134.284, 1549.576 132.500 C 1550.497 131.283, 1550.974 128.934, 1550.794 126.500 C 1550.511 122.655, 1550.376 122.512, 1547.306 122.806 C 1541.283 123.384, 1537.674 116.867, 1542.250 113.674 L 1544.500 112.105 1541.769 112.052 C 1539.636 112.011, 1538.894 112.574, 1538.380 114.621 M 1544.250 114.773 C 1539.511 115.544, 1542.512 120, 1547.770 120 C 1550.646 120, 1551.092 119.687, 1550.820 117.859 C 1550.467 115.498, 1547.722 114.209, 1544.250 114.773 M 435.500 144 C 434.771 145.180, 435.717 147, 437.059 147 C 437.577 147, 438 146.100, 438 145 C 438 142.891, 436.545 142.309, 435.500 144 M 1246.801 154.537 C 1245.849 156.627, 1245.941 157.370, 1247.327 158.755 C 1248.902 160.330, 1249.146 160.299, 1251.191 158.254 C 1253.318 156.127, 1253.326 156.018, 1251.532 154.035 C 1249.120 151.370, 1248.200 151.468, 1246.801 154.537 M 1162 168 C 1160.900 169.100, 1160 170.450, 1160 171 C 1160 172.297, 1163.703 176, 1165 176 C 1166.297 176, 1170 172.297, 1170 171 C 1170 169.703, 1166.297 166, 1165 166 C 1164.450 166, 1163.100 166.900, 1162 168 M 363.192 179.075 C 363.389 179.666, 363.978 180.150, 364.500 180.150 C 365.022 180.150, 365.611 179.666, 365.808 179.075 C 366.005 178.484, 365.417 178, 364.500 178 C 363.583 178, 362.995 178.484, 363.192 179.075 M 1041.882 185.250 C 1041.711 188.485, 1041.910 189.987, 1043.123 194.648 C 1044.199 198.780, 1044.211 198.789, 1046.179 196.821 C 1047.266 195.734, 1048.795 195.091, 1049.577 195.391 C 1051.342 196.068, 1051.554 191.954, 1049.842 190.242 C 1048.966 189.366, 1048.977 188.732, 1049.890 187.632 C 1050.864 186.459, 1050.660 185.875, 1048.825 184.590 C 1045.403 182.193, 1042.026 182.514, 1041.882 185.250 M 1043 187.378 C 1043 187.585, 1043.685 188.324, 1044.523 189.019 C 1045.796 190.076, 1045.943 190.014, 1045.416 188.641 C 1044.878 187.240, 1043 186.257, 1043 187.378 M 85 203 C 85 204.289, 85.506 204.998, 86.250 204.750 C 86.938 204.521, 87.500 203.733, 87.500 203 C 87.500 202.267, 86.938 201.479, 86.250 201.250 C 85.506 201.002, 85 201.711, 85 203 M 271.355 221.517 C 271.002 222.438, 271.436 223.865, 272.348 224.776 C 274.523 226.952, 279.500 225.351, 279.500 222.476 C 279.500 219.814, 272.333 218.970, 271.355 221.517 M 530.750 268.068 C 526.902 270.099, 526.558 270.685, 527.607 273.418 C 529.216 277.612, 538.931 272.510, 537.561 268.191 C 536.715 265.527, 535.602 265.507, 530.750 268.068 M 761 299.469 C 761 300.361, 761.587 300.712, 762.494 300.364 C 763.316 300.048, 763.740 299.388, 763.435 298.895 C 762.563 297.483, 761 297.851, 761 299.469 M 542 317.893 C 542 319.763, 543.824 321, 546.582 321 C 547.428 321, 548 319.991, 548 318.500 C 548 316.389, 547.533 316, 545 316 C 542.723 316, 542 316.456, 542 317.893 M 1172.500 353 C 1172.840 353.550, 1173.541 354, 1174.059 354 C 1174.577 354, 1175 353.550, 1175 353 C 1175 352.450, 1174.298 352, 1173.441 352 C 1172.584 352, 1172.160 352.450, 1172.500 353 M 463.074 402.862 C 461.793 405.255, 463.898 408.362, 466.459 407.859 C 469.261 407.308, 470.654 404.493, 469.070 402.584 C 467.294 400.445, 464.293 400.584, 463.074 402.862 M 1478.728 407.605 C 1477.639 408.694, 1478.955 410, 1481.142 410 C 1482.317 410, 1482.992 409.475, 1482.750 408.750 C 1482.275 407.322, 1479.735 406.599, 1478.728 407.605 M 1409.243 415.157 C 1407.540 416.860, 1407.681 420.490, 1409.508 422.007 C 1411.453 423.621, 1417.610 422.663, 1420.168 420.348 C 1421.224 419.392, 1421.956 417.686, 1421.794 416.555 C 1421.544 414.809, 1420.672 414.456, 1415.993 414.207 C 1412.572 414.026, 1410.014 414.386, 1409.243 415.157 M 88.720 457.963 C 88.112 460.288, 90.342 462.466, 92.487 461.643 C 93.319 461.324, 94 459.924, 94 458.531 C 94 456.531, 93.500 456, 91.617 456 C 90.089 456, 89.049 456.705, 88.720 457.963 M 974 477.500 C 974 478.325, 974.450 479, 975 479 C 975.550 479, 976 478.325, 976 477.500 C 976 476.675, 975.550 476, 975 476 C 974.450 476, 974 476.675, 974 477.500 M 1366.180 479.642 C 1364.094 483.370, 1367.377 486.939, 1371.072 484.961 C 1373.061 483.897, 1373.446 482.327, 1372.393 479.582 C 1371.596 477.506, 1367.353 477.547, 1366.180 479.642 M 1278 514.059 C 1278 514.641, 1278.450 514.840, 1279 514.500 C 1279.550 514.160, 1280 513.684, 1280 513.441 C 1280 513.198, 1279.550 513, 1279 513 C 1278.450 513, 1278 513.477, 1278 514.059 M 1281.694 515.639 C 1280.895 516.438, 1281.798 518, 1283.059 518 C 1283.577 518, 1284 517.325, 1284 516.500 C 1284 514.954, 1282.820 514.513, 1281.694 515.639 M 1713.056 566.944 C 1710.366 569.634, 1709.858 573.474, 1710.202 588.500 C 1710.495 601.297, 1710.537 601.505, 1712.857 601.834 C 1715.072 602.147, 1715.193 601.900, 1714.857 597.737 L 1714.500 593.306 1719 593.626 C 1721.475 593.802, 1724.569 594.206, 1725.876 594.524 C 1727.721 594.972, 1728.123 594.762, 1727.670 593.583 C 1727.350 592.747, 1727.518 591.798, 1728.044 591.473 C 1728.570 591.148, 1729 589.081, 1729 586.880 L 1729 582.877 1724.622 583.534 C 1720.718 584.119, 1719.889 583.873, 1716.956 581.252 C 1710.962 575.896, 1713.564 568.047, 1721.361 567.968 C 1724.337 567.938, 1724.400 567.860, 1722.559 566.468 C 1719.844 564.415, 1715.361 564.639, 1713.056 566.944 M 1717.667 571.667 C 1716.221 573.112, 1717.126 576.036, 1719.498 577.591 C 1722.503 579.560, 1730.776 578.746, 1731.680 576.393 C 1732.800 573.474, 1729.053 571, 1723.512 571 C 1720.664 571, 1718.033 571.300, 1717.667 571.667 M 1703.508 583.928 C 1703.085 587.572, 1703.228 590.558, 1703.880 591.678 C 1704.721 593.124, 1704.948 592.365, 1704.983 588 C 1705.007 584.975, 1705.299 581.487, 1705.630 580.250 C 1705.967 578.995, 1705.783 578, 1705.215 578 C 1704.655 578, 1703.887 580.668, 1703.508 583.928 M 1725.114 598.929 C 1724.255 599.461, 1724.152 599.976, 1724.824 600.391 C 1725.395 600.744, 1726.163 600.545, 1726.531 599.950 C 1727.449 598.464, 1726.719 597.938, 1725.114 598.929 M 984 688 C 984 688.550, 984.477 689, 985.059 689 C 985.641 689, 985.840 688.550, 985.500 688 C 985.160 687.450, 984.684 687, 984.441 687 C 984.198 687, 984 687.450, 984 688 M 0.489 898.500 C 0.489 998.600, 0.607 1039.402, 0.750 989.171 C 0.893 938.940, 0.893 857.040, 0.750 807.171 C 0.607 757.302, 0.489 798.400, 0.489 898.500 M 565.455 736.455 C 563.353 738.556, 563 739.842, 563 745.396 C 563 748.963, 563.476 752.176, 564.057 752.535 C 565.732 753.570, 569.850 752.149, 570.908 750.171 C 572.642 746.932, 572.899 738.301, 571.329 736.060 C 569.463 733.396, 568.445 733.464, 565.455 736.455 M 578.520 738.967 C 578.191 739.499, 578.182 742.087, 578.499 744.717 C 579.182 750.380, 577.810 753.538, 573.363 756.534 C 569.644 759.041, 563.991 758.753, 561.434 755.927 C 560.493 754.888, 559.466 751.530, 559.121 748.369 C 558.569 743.316, 558.344 742.870, 557.100 744.374 C 556.330 745.305, 555.493 748.220, 555.240 750.852 C 554.821 755.219, 555.046 755.861, 557.819 758.195 C 561.517 761.306, 568.862 762.430, 578.975 761.434 C 585.149 760.825, 586.300 760.387, 588.003 757.996 C 590.228 754.871, 590.826 747.018, 589.160 742.810 C 588.412 740.921, 586.964 739.806, 584.298 739.066 C 579.621 737.767, 579.266 737.761, 578.520 738.967 M 598.500 744 C 598.160 744.550, 598.610 745, 599.500 745 C 600.390 745, 600.840 744.550, 600.500 744 C 600.160 743.450, 599.710 743, 599.500 743 C 599.290 743, 598.840 743.450, 598.500 744 M 569.614 769.437 C 569.917 770.227, 570.801 770.630, 571.577 770.332 C 573.266 769.684, 572.468 768, 570.472 768 C 569.658 768, 569.296 768.607, 569.614 769.437 M 1618.250 831.031 C 1615.569 832.109, 1615.553 832.235, 1617.594 836.183 C 1619.129 839.150, 1619.096 839.359, 1616.720 841.735 C 1614.638 843.816, 1613.916 844.026, 1612.125 843.067 C 1609.615 841.724, 1609.283 843.140, 1611.571 845.429 C 1613.578 847.435, 1614.970 847.409, 1617.965 845.312 C 1619.674 844.115, 1620.490 843.970, 1620.771 844.812 C 1620.988 845.465, 1621.726 846, 1622.409 846 C 1624.071 846, 1628 841.737, 1627.999 839.936 C 1627.998 839.080, 1626.985 839.677, 1625.494 841.412 C 1624.116 843.013, 1622.701 844.034, 1622.347 843.681 C 1621.994 843.328, 1623.571 841.332, 1625.853 839.247 C 1628.134 837.162, 1630 835.129, 1630 834.728 C 1630 834.328, 1628.666 834, 1627.035 834 C 1625.094 834, 1623.701 833.310, 1623 832 C 1621.816 829.788, 1621.502 829.724, 1618.250 831.031 M 1062.067 832.393 C 1057.298 834.116, 1056.099 836.303, 1058.034 839.752 C 1059.824 842.940, 1061.579 843.440, 1067.743 842.516 C 1072.385 841.820, 1077 838.380, 1077 835.617 C 1077 831.303, 1069.541 829.692, 1062.067 832.393 M 1610 836.389 C 1610 837.153, 1610.830 838.803, 1611.844 840.056 C 1614.011 842.732, 1617.345 842.163, 1616.343 839.288 C 1615.103 835.726, 1610 833.395, 1610 836.389 M 729 849.088 C 729 849.590, 729.975 850, 731.167 850 C 732.358 850, 733.020 849.687, 732.638 849.304 C 731.557 848.224, 729 848.072, 729 849.088 M 1573.667 851.667 C 1572.449 852.885, 1572.978 855, 1574.500 855 C 1575.333 855, 1576 854.111, 1576 853 C 1576 851.008, 1574.934 850.399, 1573.667 851.667 M 1261.336 856.567 C 1260.548 858.621, 1262.130 860.156, 1263.904 859.059 C 1265.415 858.125, 1264.719 855, 1263 855 C 1262.415 855, 1261.667 855.705, 1261.336 856.567 M 132.425 871.443 C 132.088 872.787, 132.082 874.323, 132.412 874.858 C 132.742 875.392, 132.485 876.005, 131.840 876.220 C 131.152 876.449, 131.856 877.713, 133.543 879.277 C 135.615 881.198, 136.628 881.602, 137.172 880.721 C 137.587 880.050, 138.506 879.500, 139.214 879.500 C 140.692 879.500, 140.749 878.767, 139.627 874.190 C 139.094 872.017, 137.965 870.557, 136.342 869.940 C 133.042 868.685, 133.125 868.654, 132.425 871.443 M 1560.544 959.344 C 1559.174 960.346, 1558.879 961.382, 1559.387 963.407 C 1559.943 965.621, 1560.556 966.068, 1562.684 965.813 C 1566.528 965.353, 1567.883 962.634, 1565.553 960.059 C 1563.356 957.631, 1562.963 957.575, 1560.544 959.344 M 1010.694 960.639 C 1009.761 961.573, 1010.888 963, 1012.559 963 C 1013.352 963, 1014 962.325, 1014 961.500 C 1014 959.994, 1011.889 959.444, 1010.694 960.639 M 1293 1007.583 C 1293 1008.454, 1293.534 1008.989, 1294.188 1008.771 C 1296.042 1008.153, 1296.349 1006, 1294.583 1006 C 1293.713 1006, 1293 1006.712, 1293 1007.583 M 404 1039 C 404 1041.303, 404.451 1042, 405.941 1042 C 407.009 1042, 408.163 1041.546, 408.506 1040.991 C 409.598 1039.224, 407.936 1036, 405.933 1036 C 404.452 1036, 404 1036.702, 404 1039 M 1725.362 1051.500 C 1724.477 1053.805, 1725.793 1056.186, 1727.747 1055.815 C 1728.806 1055.615, 1729.625 1054.397, 1729.816 1052.741 C 1730.072 1050.524, 1729.732 1050, 1728.035 1050 C 1726.881 1050, 1725.678 1050.675, 1725.362 1051.500 M 994.336 1071.567 C 993.614 1073.448, 995.384 1075.499, 996.913 1074.554 C 998.561 1073.535, 998.216 1070, 996.469 1070 C 995.626 1070, 994.667 1070.705, 994.336 1071.567" stroke="none" fill="black" fill-rule="evenodd"/>
	<path fill-opacity="0.747" d="M 0 354 C 0 694.222, 0.070 708, 1.800 708 C 4.347 708, 6 709.968, 6 713 C 6 716.032, 4.347 718, 1.800 718 C 0.073 718, -0 725.370, -0 899.001 L -0 1080.001 960.250 1079.751 L 1920.500 1079.500 1920.751 539.750 L 1921.001 0 960.501 0 L 0 0 0 354 M 0.494 354.500 C 0.494 549.200, 0.609 628.999, 0.750 531.831 C 0.891 434.663, 0.891 275.363, 0.750 177.831 C 0.609 80.299, 0.494 159.800, 0.494 354.500 M 464.891 33.203 C 463.559 35.692, 464.625 38.746, 467.099 39.531 C 469.801 40.389, 472 38.351, 472 34.991 C 472 32.674, 471.507 32.155, 468.947 31.779 C 466.685 31.447, 465.634 31.816, 464.891 33.203 M 884.153 40.247 C 882.582 41.818, 882.705 43.511, 884.500 45 C 885.697 45.993, 886.303 45.993, 887.500 45 C 889.532 43.314, 889.388 41.278, 887.153 40.082 C 885.883 39.402, 884.947 39.453, 884.153 40.247 M 1852.713 46.621 C 1851.363 47.971, 1852.004 50.932, 1853.862 51.926 C 1856.296 53.229, 1859.354 51.088, 1858.850 48.434 C 1858.479 46.481, 1854.135 45.198, 1852.713 46.621 M 507.500 48 C 506.423 49.742, 508.019 51.229, 509.578 49.935 C 510.348 49.296, 510.731 48.374, 510.430 47.887 C 509.700 46.706, 508.265 46.762, 507.500 48 M 931.200 83.200 C 928.201 86.199, 931.011 91.766, 934.901 90.531 C 937.763 89.623, 938.545 86.259, 936.435 83.928 C 934.426 81.708, 932.903 81.497, 931.200 83.200 M 1538.557 113.223 C 1537.701 114.445, 1537 116.695, 1537 118.223 C 1537 119.750, 1536.550 121, 1536 121 C 1535.450 121, 1535 120.523, 1535 119.941 C 1535 119.359, 1534.550 119.160, 1534 119.500 C 1531.704 120.919, 1533.682 131, 1536.256 131 C 1536.974 131, 1538.088 132.395, 1538.732 134.100 C 1540.105 137.737, 1541.925 137.533, 1543.879 133.521 L 1545.258 130.690 1547.075 133.095 C 1550.102 137.101, 1551.477 134.334, 1551.489 124.211 C 1551.499 116.131, 1551.337 115.428, 1549.250 114.513 C 1548.013 113.970, 1547 112.957, 1547 112.263 C 1547 109.973, 1540.299 110.735, 1538.557 113.223 M 1536.158 125 C 1536.158 126.375, 1536.385 126.938, 1536.662 126.250 C 1536.940 125.563, 1536.940 124.438, 1536.662 123.750 C 1536.385 123.063, 1536.158 123.625, 1536.158 125 M 435.688 142.646 C 434.147 144.186, 435.040 147, 437.070 147 C 438.625 147, 439.060 146.461, 438.820 144.828 C 438.488 142.573, 436.880 141.453, 435.688 142.646 M 1245.667 152.667 C 1244.471 153.863, 1244.965 158.726, 1246.404 159.921 C 1250.001 162.906, 1255.178 158.069, 1252.913 153.838 C 1251.950 152.039, 1247.082 151.252, 1245.667 152.667 M 1161.245 167.155 C 1159.555 168.845, 1159.671 173.482, 1161.440 174.950 C 1162.231 175.607, 1164.135 175.999, 1165.671 175.822 C 1168.994 175.439, 1171.130 171.024, 1169.361 168.197 C 1168.057 166.114, 1162.943 165.457, 1161.245 167.155 M 363.180 179.250 C 363.356 180.488, 363.950 181.500, 364.500 181.500 C 365.050 181.500, 365.644 180.488, 365.820 179.250 C 366.039 177.702, 365.628 177, 364.500 177 C 363.372 177, 362.961 177.702, 363.180 179.250 M 1041.385 184.750 C 1041.025 186.262, 1040.114 188.213, 1039.360 189.085 C 1038.285 190.327, 1038.227 191.354, 1039.092 193.835 C 1039.699 195.576, 1040.778 197, 1041.491 197 C 1042.203 197, 1043.045 197.675, 1043.362 198.500 C 1044.173 200.615, 1045.750 200.363, 1046.501 197.998 C 1047 196.426, 1047.687 196.134, 1049.701 196.640 L 1052.266 197.284 1051.556 191.392 C 1050.790 185.035, 1048.480 182.064, 1044.269 182.022 C 1042.652 182.006, 1041.858 182.756, 1041.385 184.750 M 85.143 200.911 C 84.290 201.439, 84.036 202.540, 84.460 203.875 C 85.261 206.397, 86.289 206.562, 88.042 204.450 C 89.096 203.179, 89.073 202.644, 87.914 201.486 C 87.045 200.617, 85.977 200.395, 85.143 200.911 M 270.477 221.072 C 269.504 224.137, 272.700 227.292, 275.951 226.476 C 278.745 225.775, 281 224.200, 281 222.949 C 281 219.087, 271.637 217.417, 270.477 221.072 M 1018.500 235 C 1018.160 235.550, 1018.584 236, 1019.441 236 C 1020.298 236, 1021 235.550, 1021 235 C 1021 234.450, 1020.577 234, 1020.059 234 C 1019.541 234, 1018.840 234.450, 1018.500 235 M 525.718 266.311 C 520.808 268.249, 521.173 274.220, 526.660 281.683 C 527.947 283.434, 529.015 285.234, 529.033 285.683 C 529.073 286.647, 532.591 291, 533.331 291 C 533.611 291, 534.124 289.712, 534.470 288.138 C 534.837 286.468, 536.107 284.817, 537.522 284.172 C 540.720 282.715, 541.826 278.389, 539.569 276.165 C 537.991 274.611, 537.792 274.616, 536.590 276.235 C 535.133 278.197, 530.913 279.034, 530.351 277.473 C 530.148 276.908, 531.288 275.952, 532.885 275.350 C 536.347 274.043, 539.295 269.933, 538.416 267.641 C 536.986 263.914, 528.084 267.043, 526.362 271.878 C 525.580 274.075, 525.320 274.221, 524.756 272.777 C 524.322 271.664, 524.985 269.983, 526.631 268.027 C 528.032 266.362, 529.025 265.048, 528.839 265.106 C 528.653 265.165, 527.248 265.707, 525.718 266.311 M 1356 286.333 C 1356 288.214, 1356.962 288.952, 1358.598 288.324 C 1360.725 287.508, 1360.274 285, 1358 285 C 1356.900 285, 1356 285.600, 1356 286.333 M 759.362 297.500 C 758.404 299.995, 759.789 302, 762.469 302 C 764.615 302, 765 301.543, 765 299 C 765 296.457, 764.615 296, 762.469 296 C 761.076 296, 759.678 296.675, 759.362 297.500 M 542.011 315.487 C 540.504 317.303, 541.422 321.564, 543.491 322.358 C 546.977 323.696, 549.804 320.108, 548.500 316 C 547.742 313.613, 543.823 313.303, 542.011 315.487 M 903 326.441 C 903 327.298, 903.450 328, 904 328 C 904.550 328, 905 327.577, 905 327.059 C 905 326.541, 904.550 325.840, 904 325.500 C 903.450 325.160, 903 325.584, 903 326.441 M 1172.177 352.667 C 1172.663 355.176, 1175 355.520, 1175 353.083 C 1175 351.855, 1174.354 351, 1173.427 351 C 1172.495 351, 1171.985 351.680, 1172.177 352.667 M 463.046 401.445 C 462.386 402.240, 461.994 403.927, 462.173 405.195 C 462.443 407.100, 463.107 407.500, 466 407.500 C 468.893 407.500, 469.557 407.100, 469.827 405.195 C 470.218 402.435, 468.424 400, 466 400 C 465.035 400, 463.705 400.650, 463.046 401.445 M 874 402.500 C 874 403.325, 874.450 404, 875 404 C 875.550 404, 876 403.325, 876 402.500 C 876 401.675, 875.550 401, 875 401 C 874.450 401, 874 401.675, 874 402.500 M 1478.514 406.629 C 1477.618 407.525, 1477.136 408.912, 1477.442 409.711 C 1477.749 410.510, 1478 411.352, 1478 411.582 C 1478 411.812, 1479.350 412, 1481 412 C 1483.642 412, 1484 411.655, 1484 409.107 C 1484 407.391, 1483.356 405.967, 1482.418 405.607 C 1480.297 404.793, 1480.369 404.774, 1478.514 406.629 M 1402.070 415.750 C 1402.127 418.758, 1402.311 419.104, 1403 417.500 C 1404.194 414.721, 1404.194 412, 1403 412 C 1402.450 412, 1402.032 413.688, 1402.070 415.750 M 1410 414.290 C 1406.882 415.862, 1406.261 419.526, 1408.664 422.181 C 1411.133 424.909, 1417.342 424.113, 1420.834 420.621 C 1423.047 418.408, 1423.218 417.773, 1422.203 415.546 C 1421.222 413.392, 1420.385 413.002, 1416.771 413.015 C 1414.422 413.023, 1411.375 413.597, 1410 414.290 M 1405.616 428.813 C 1405.267 429.377, 1405.639 430.496, 1406.443 431.300 C 1407.247 432.104, 1407.669 432.998, 1407.381 433.286 C 1406.483 434.184, 1412.844 435.184, 1415.034 434.489 C 1417.855 433.594, 1417.132 430.592, 1413.990 430.149 C 1412.620 429.956, 1411.162 429.281, 1410.750 428.649 C 1410.212 427.825, 1409.717 427.924, 1409 429 C 1408.171 430.244, 1407.851 430.268, 1407.125 429.143 C 1406.569 428.281, 1406.019 428.160, 1405.616 428.813 M 89.250 455.663 C 87.401 456.408, 87.733 460.751, 89.724 461.866 C 92.193 463.247, 95 461.437, 95 458.465 C 95 457.109, 94.587 456, 94.082 456 C 93.577 456, 92.564 455.811, 91.832 455.579 C 91.099 455.348, 89.938 455.385, 89.250 455.663 M 378.476 458.039 C 377.468 459.669, 379.707 461.693, 381.042 460.358 C 381.766 459.634, 381.640 458.946, 380.631 458.109 C 379.557 457.218, 378.995 457.199, 378.476 458.039 M 973.694 476.639 C 972.761 477.573, 973.888 479, 975.559 479 C 976.352 479, 977 478.325, 977 477.500 C 977 475.994, 974.889 475.444, 973.694 476.639 M 1366.050 478.440 C 1365.393 479.231, 1365.001 481.144, 1365.178 482.690 C 1365.460 485.154, 1365.917 485.500, 1368.891 485.500 C 1373.198 485.500, 1374.872 483.209, 1373.217 479.578 C 1371.893 476.672, 1368.027 476.058, 1366.050 478.440 M 305.739 481.126 C 303.384 482.444, 303.537 485.718, 305.991 486.497 C 308.512 487.297, 310 486.394, 310 484.063 C 310 481.423, 307.853 479.943, 305.739 481.126 M 1450.105 507.373 C 1448.435 509.386, 1449.849 512, 1452.607 512 C 1455.016 512, 1455.566 510.639, 1454.393 507.582 C 1453.646 505.635, 1451.629 505.537, 1450.105 507.373 M 1278.250 511.718 C 1276.386 512.387, 1276.715 516, 1278.640 516 C 1279.542 516, 1280.861 516.788, 1281.572 517.750 C 1282.503 519.010, 1283.174 519.197, 1283.965 518.417 C 1285.419 516.987, 1284.126 513.738, 1282.371 514.411 C 1281.609 514.703, 1281 514.311, 1281 513.528 C 1281 511.817, 1279.932 511.115, 1278.250 511.718 M 1736 550 C 1736 550.550, 1736.450 551, 1737 551 C 1737.550 551, 1738 550.550, 1738 550 C 1738 549.450, 1737.550 549, 1737 549 C 1736.450 549, 1736 549.450, 1736 550 M 1713.289 564.800 C 1710.213 566.755, 1709 572.902, 1709 586.534 C 1709 600.691, 1709.758 604, 1713 604 C 1714.794 604, 1717.196 601.095, 1716.895 599.291 C 1716.357 596.066, 1717.141 595.296, 1720.750 595.504 C 1726.387 595.829, 1726.437 595.859, 1724.630 597.857 C 1723.104 599.542, 1723.095 599.834, 1724.525 601.021 C 1727.468 603.463, 1728.937 600.330, 1729.232 590.982 L 1729.500 582.500 1724.361 582.500 C 1720.794 582.500, 1718.604 581.942, 1717.201 580.676 C 1714.747 578.462, 1713.623 574.496, 1714.835 572.330 C 1715.529 571.090, 1715.879 571.541, 1716.407 574.355 C 1717.188 578.518, 1719.831 580.368, 1724.731 580.184 C 1732.231 579.902, 1734.802 574.501, 1729.006 571.203 C 1727.360 570.267, 1726.010 568.949, 1726.006 568.276 C 1725.992 565.407, 1716.441 562.797, 1713.289 564.800 M 1702.701 577.632 C 1701.655 578.679, 1701.855 589.488, 1702.975 592.435 C 1703.512 593.846, 1704.645 595, 1705.495 595 C 1707.779 595, 1707.249 577.671, 1704.951 577.229 C 1704.099 577.065, 1703.087 577.246, 1702.701 577.632 M 406 669.941 C 406 671.009, 406.359 672.104, 406.798 672.375 C 408.223 673.256, 410.308 671.246, 409.677 669.601 C 408.810 667.341, 406 667.601, 406 669.941 M 983.192 688.075 C 983.389 688.666, 983.977 689.150, 984.500 689.150 C 985.023 689.150, 985.611 688.666, 985.808 688.075 C 986.005 687.484, 985.417 687, 984.500 687 C 983.583 687, 982.995 687.484, 983.192 688.075 M 1430.229 689.188 C 1430.847 691.042, 1433 691.349, 1433 689.583 C 1433 688.712, 1432.287 688, 1431.417 688 C 1430.546 688, 1430.011 688.534, 1430.229 689.188 M 0.489 899 C 0.489 998.825, 0.607 1039.663, 0.750 989.750 C 0.893 939.838, 0.893 858.163, 0.750 808.250 C 0.607 758.338, 0.489 799.175, 0.489 899 M 564.583 736.250 C 562.525 739.414, 561.603 747.904, 562.940 751.377 C 563.947 753.993, 564.374 754.201, 567.648 753.670 C 573.629 752.699, 575.317 750.418, 574.676 744.173 C 574.375 741.242, 573.414 737.755, 572.541 736.423 C 570.504 733.314, 566.548 733.228, 564.583 736.250 M 577.876 738.389 C 577.808 739, 577.849 741.866, 577.969 744.757 C 578.167 749.562, 577.885 750.315, 574.693 753.507 C 571.854 756.346, 570.443 757, 567.157 757 C 561.773 757, 560 754.468, 560 746.777 C 560 743.600, 559.560 741, 559.023 741 C 556.752 741, 554.570 746.403, 554.649 751.834 C 554.739 758.074, 556.363 760.104, 562.830 762.060 C 566.957 763.309, 599.419 765.437, 601.595 764.602 C 602.368 764.305, 603 762.725, 603 761.090 C 603 758.401, 602.546 757.986, 598.250 756.751 L 593.500 755.386 593.731 750.045 C 594.004 743.726, 594.391 743.139, 596.823 745.339 C 599.037 747.343, 601.597 747.493, 602.300 745.659 C 603.398 742.799, 600.597 741.428, 589 739.149 C 579.841 737.348, 578.006 737.223, 577.876 738.389 M 568.545 768.250 C 568.919 769.487, 569.548 770.852, 569.944 771.282 C 570.340 771.711, 575.173 772.338, 580.685 772.674 C 588.089 773.125, 590.905 772.963, 591.466 772.055 C 592.849 769.818, 590.450 768.958, 581.855 768.607 C 577.180 768.417, 572.405 767.752, 571.244 767.130 C 568.231 765.518, 567.776 765.706, 568.545 768.250 M 1373 801 C 1373 801.550, 1373.450 802, 1374 802 C 1374.550 802, 1375 801.550, 1375 801 C 1375 800.450, 1374.550 800, 1374 800 C 1373.450 800, 1373 800.450, 1373 801 M 1054.734 826.417 C 1052.112 827.122, 1049.674 827.992, 1049.316 828.351 C 1048.958 828.709, 1048.460 831.464, 1048.211 834.473 C 1047.653 841.192, 1051.883 854.389, 1056.112 859.126 C 1058.723 862.050, 1059.134 862.173, 1064.181 861.547 C 1071.402 860.652, 1073.502 859.430, 1075.524 854.946 C 1077.771 849.964, 1076.910 845.530, 1073.982 847.003 C 1072.892 847.551, 1071.106 848.450, 1070.014 849 C 1068.921 849.550, 1066.080 850, 1063.701 850 C 1058.691 850, 1055.094 846.950, 1052.971 840.901 C 1050.952 835.149, 1052.215 832.531, 1058.490 829.461 C 1066.610 825.489, 1064.510 823.787, 1054.734 826.417 M 1619.718 828.907 C 1617.339 829.909, 1615.714 831.364, 1615.340 832.826 C 1614.864 834.688, 1614.270 835.034, 1612.372 834.557 C 1611.068 834.230, 1609.953 834.308, 1609.896 834.731 C 1609.163 840.132, 1609.555 843.436, 1611.173 845.493 C 1612.765 847.517, 1613.473 847.725, 1616.156 846.955 C 1617.942 846.443, 1619.950 846.432, 1620.839 846.930 C 1622.866 848.064, 1629 843.508, 1629 840.868 C 1629 839.826, 1629.535 838.116, 1630.190 837.068 C 1631.846 834.416, 1629.843 832.116, 1626.443 832.766 C 1624.147 833.205, 1623.960 833.006, 1624.530 830.735 C 1625.367 827.403, 1624.274 826.987, 1619.718 828.907 M 1062.709 831.612 C 1056.987 833.371, 1054.893 836.563, 1056.945 840.398 C 1059.484 845.142, 1064.862 846.131, 1071.025 842.987 C 1075.734 840.585, 1078.332 837.045, 1077.335 834.391 C 1075.634 829.866, 1071.158 829.015, 1062.709 831.612 M 1041.200 846.200 C 1039.426 847.974, 1039.691 850.333, 1041.582 849.607 C 1042.452 849.273, 1043.352 849, 1043.582 849 C 1043.812 849, 1044 848.100, 1044 847 C 1044 844.733, 1042.963 844.437, 1041.200 846.200 M 728.411 847.371 C 728.092 848.203, 727.988 849.697, 728.179 850.692 C 728.490 852.307, 729.353 852.560, 733.066 852.125 C 733.653 852.056, 733.990 850.763, 733.816 849.250 C 733.457 846.124, 729.427 844.723, 728.411 847.371 M 1572.701 850.632 C 1572.316 851.018, 1572 852.383, 1572 853.667 C 1572 855.505, 1572.544 856, 1574.566 856 C 1576.774 856, 1577.089 855.617, 1576.816 853.259 C 1576.514 850.638, 1574.183 849.150, 1572.701 850.632 M 1261.011 855.487 C 1259.357 857.479, 1260.451 860, 1262.969 860 C 1265.019 860, 1265.507 858.486, 1264.393 855.582 C 1263.634 853.603, 1262.598 853.574, 1261.011 855.487 M 133.250 868.746 C 132.563 868.977, 132 870.228, 132 871.524 C 132 872.821, 131.570 874.148, 131.044 874.473 C 129.647 875.336, 130.942 878.194, 133.812 880.582 C 135.862 882.286, 136.738 882.467, 138.650 881.582 C 144.108 879.053, 138.963 866.824, 133.250 868.746 M 917 882.500 C 917 883.325, 917.675 884, 918.500 884 C 919.325 884, 920 883.325, 920 882.500 C 920 881.675, 919.325 881, 918.500 881 C 917.675 881, 917 881.675, 917 882.500 M 1559.200 959.200 C 1556.502 961.898, 1559.285 967.390, 1563.067 966.830 C 1566.023 966.392, 1567.448 963.921, 1566.628 960.655 C 1566.107 958.578, 1565.357 958, 1563.181 958 C 1561.651 958, 1559.860 958.540, 1559.200 959.200 M 1010 961.031 C 1010 962.149, 1010.720 963.339, 1011.601 963.677 C 1013.639 964.459, 1015.246 962.002, 1013.820 960.284 C 1012.194 958.324, 1010 958.754, 1010 961.031 M 307.500 987 C 307.160 987.550, 307.584 988, 308.441 988 C 309.298 988, 310 987.550, 310 987 C 310 986.450, 309.577 986, 309.059 986 C 308.541 986, 307.840 986.450, 307.500 987 M 281.624 988.538 C 281.284 989.423, 281.681 990.324, 282.560 990.661 C 284.539 991.421, 285.205 990.697, 284.417 988.643 C 283.625 986.580, 282.393 986.533, 281.624 988.538 M 1292.475 1006.041 C 1292.084 1006.674, 1292.508 1007.936, 1293.418 1008.846 C 1294.873 1010.301, 1295.186 1010.319, 1296.020 1009 C 1296.541 1008.175, 1296.825 1007.050, 1296.651 1006.500 C 1296.184 1005.026, 1293.298 1004.708, 1292.475 1006.041 M 1648.250 1027.718 C 1647.563 1027.965, 1647 1028.992, 1647 1030 C 1647 1031.008, 1647.563 1032.035, 1648.250 1032.282 C 1649.776 1032.829, 1653 1031.280, 1653 1030 C 1653 1028.720, 1649.776 1027.171, 1648.250 1027.718 M 402.634 1037.512 C 402.315 1038.343, 402.564 1040.143, 403.187 1041.512 C 405.213 1045.957, 410 1044.052, 410 1038.800 C 410 1036.283, 409.656 1036, 406.607 1036 C 404.502 1036, 402.994 1036.574, 402.634 1037.512 M 465.325 1037.852 C 463.660 1040.517, 465.797 1044.412, 469.138 1044.803 C 471.321 1045.059, 471.824 1044.628, 472.337 1042.064 C 472.672 1040.391, 472.685 1038.342, 472.366 1037.511 C 471.549 1035.382, 466.721 1035.616, 465.325 1037.852 M 1725.200 1050.200 C 1722.169 1053.231, 1726.293 1058.662, 1729.564 1055.947 C 1732.099 1053.843, 1730.660 1049, 1727.500 1049 C 1726.895 1049, 1725.860 1049.540, 1725.200 1050.200 M 994.558 1069.775 C 993.600 1070.733, 993.948 1074.850, 995.044 1075.527 C 996.471 1076.409, 999 1074.151, 999 1071.994 C 999 1070.292, 995.693 1068.640, 994.558 1069.775" stroke="none" fill="black" fill-rule="evenodd"/>
	<path fill-opacity="0.909" d="M 0 354 L 0 708 2.300 708 C 5.319 708, 7 709.788, 7 713 C 7 716.212, 5.319 718, 2.300 718 L 0 718 -0 899.001 L -0 1080.001 960.250 1079.751 L 1920.500 1079.500 1920.751 539.750 L 1921.001 0 1539.501 0 C 1158.667 0, 1158 0.003, 1158 2 C 1158 3.111, 1157.333 4, 1156.500 4 C 1155.667 4, 1155 3.111, 1155 2 C 1155 0.002, 1154.333 0, 577.500 0 L 0 0 0 354 M 0.494 354.500 C 0.494 549.200, 0.609 628.999, 0.750 531.831 C 0.891 434.663, 0.891 275.363, 0.750 177.831 C 0.609 80.299, 0.494 159.800, 0.494 354.500 M 464.973 31.532 C 464.363 32.268, 464.007 34.361, 464.182 36.185 C 464.473 39.220, 464.814 39.526, 468.216 39.808 C 471.534 40.084, 472.006 39.826, 472.614 37.404 C 472.988 35.911, 472.856 33.996, 472.321 33.147 C 470.904 30.901, 466.331 29.897, 464.973 31.532 M 883.709 39.624 C 883.319 40.014, 883 41.608, 883 43.167 C 883 45.661, 883.366 46, 886.063 46 C 888.917 46, 889.105 45.778, 888.813 42.750 C 888.584 40.370, 887.954 39.422, 886.459 39.208 C 885.336 39.047, 884.099 39.235, 883.709 39.624 M 1853.250 44.662 C 1852.563 44.940, 1852 46.674, 1852 48.516 C 1852 50.987, 1852.524 52.032, 1854 52.500 C 1857.433 53.590, 1860 52.149, 1860 49.133 C 1860 44.891, 1857.230 43.056, 1853.250 44.662 M 506.638 47.500 C 505.873 49.495, 506.900 52, 508.485 52 C 510.413 52, 512.113 49.458, 511.410 47.627 C 510.626 45.584, 507.406 45.499, 506.638 47.500 M 1813.772 69.762 C 1813.504 70.790, 1814.065 72.598, 1815.021 73.778 C 1816.720 75.876, 1816.797 75.882, 1818.467 74.036 C 1820.843 71.411, 1820.066 68.568, 1816.872 68.196 C 1815.006 67.979, 1814.122 68.425, 1813.772 69.762 M 930.200 83.200 C 927.884 85.516, 929.052 90.589, 932 91.019 C 935.340 91.505, 936.735 90.876, 937.877 88.370 C 938.879 86.173, 938.797 85.434, 937.383 83.870 C 935.459 81.745, 931.980 81.420, 930.200 83.200 M 862.989 101.513 C 861.436 103.385, 862.148 104.273, 864.847 103.831 C 866.589 103.545, 866.687 103.259, 865.564 101.739 C 864.402 100.166, 864.127 100.142, 862.989 101.513 M 876 102.500 C 876 103.325, 876.675 104, 877.500 104 C 878.325 104, 879 103.325, 879 102.500 C 879 101.675, 878.325 101, 877.500 101 C 876.675 101, 876 101.675, 876 102.500 M 1729.736 106.598 C 1728.934 107.399, 1729.983 110, 1731.107 110 C 1731.598 110, 1732 109.100, 1732 108 C 1732 106.051, 1730.939 105.394, 1729.736 106.598 M 1538.159 112.250 C 1537.510 113.487, 1536.888 115.713, 1536.776 117.195 C 1536.614 119.348, 1536.298 119.663, 1535.210 118.759 C 1534.178 117.903, 1533.628 117.976, 1532.939 119.064 C 1530.910 122.271, 1532.909 132, 1535.598 132 C 1536.369 132, 1537 132.450, 1537 133 C 1537 133.550, 1537.910 134.910, 1539.023 136.023 C 1540.630 137.630, 1541.453 137.828, 1543.023 136.988 C 1544.110 136.406, 1545.003 134.933, 1545.007 133.715 C 1545.013 131.554, 1545.055 131.562, 1546.757 134.045 C 1548.502 136.592, 1551.932 137, 1552.069 134.677 C 1553.175 115.921, 1553.357 117.521, 1549.662 113.603 C 1545.480 109.169, 1540.105 108.536, 1538.159 112.250 M 435.040 142.452 C 433.305 144.543, 434.170 147.450, 436.633 147.803 C 439.190 148.170, 440.405 145.626, 438.961 142.928 C 437.729 140.625, 436.664 140.495, 435.040 142.452 M 1247.252 150.706 C 1243.093 151.507, 1242.960 160.233, 1247.090 161.313 C 1250.862 162.300, 1254 160.074, 1254 156.411 C 1254 153.413, 1251.806 149.810, 1250.179 150.136 C 1249.805 150.211, 1248.488 150.467, 1247.252 150.706 M 12 160.379 C 12 164.309, 12.310 164.886, 15.026 166.011 C 17.622 167.086, 18.319 167.022, 19.936 165.558 C 22.391 163.337, 23.401 159.188, 21.921 157.404 C 21.245 156.590, 18.916 156, 16.378 156 L 12 156 12 160.379 M 1161.200 166.200 C 1160.540 166.860, 1160 169.121, 1160 171.225 C 1160 174.339, 1160.445 175.219, 1162.393 175.959 C 1167.997 178.090, 1171.826 173.870, 1169.439 168.193 C 1168.376 165.664, 1167.504 165, 1165.248 165 C 1163.682 165, 1161.860 165.540, 1161.200 166.200 M 362.362 177.500 C 361.479 179.801, 362.792 182.187, 364.735 181.812 C 366.905 181.395, 367.664 178.036, 365.848 176.885 C 363.896 175.648, 363.013 175.803, 362.362 177.500 M 1040.317 182.250 C 1038.009 185.853, 1037.073 190.610, 1038.070 193.670 C 1039.429 197.842, 1045.336 202.505, 1046.890 200.632 C 1047.491 199.908, 1047.687 199.020, 1047.325 198.658 C 1046.963 198.296, 1047.165 198, 1047.774 198 C 1048.384 198, 1049.174 198.472, 1049.530 199.049 C 1049.974 199.768, 1050.613 199.736, 1051.563 198.948 C 1052.601 198.086, 1052.796 196.256, 1052.340 191.649 C 1051.847 186.674, 1051.232 185.077, 1049.116 183.286 C 1046.234 180.847, 1041.568 180.297, 1040.317 182.250 M 993.110 183.367 C 992.246 184.409, 992.346 185.042, 993.530 186.025 C 995.452 187.620, 997.350 186.075, 996.426 183.667 C 995.649 181.643, 994.619 181.549, 993.110 183.367 M 84.545 200.343 C 81.987 202.214, 83.340 206, 86.567 206 C 88.462 206, 89 205.474, 89 203.622 C 89 200.266, 86.833 198.671, 84.545 200.343 M 270.250 217.662 C 266.763 219.069, 270.945 228, 275.092 228 C 277.479 228, 281 225.030, 281 223.016 C 281 219.262, 274.414 215.982, 270.250 217.662 M 1017.390 233.426 C 1016.480 235.797, 1017.767 238.191, 1019.747 237.810 C 1020.854 237.597, 1021.500 236.561, 1021.500 235 C 1021.500 232.149, 1018.344 230.941, 1017.390 233.426 M 234 259 C 234 259.550, 234.927 260, 236.059 260 C 237.191 260, 237.840 259.550, 237.500 259 C 237.160 258.450, 236.234 258, 235.441 258 C 234.648 258, 234 258.450, 234 259 M 524.250 265.989 C 521.691 267.549, 521 268.640, 521 271.119 C 521 272.851, 520.468 276.045, 519.817 278.216 C 518.791 281.641, 518.890 282.652, 520.565 285.832 C 523.195 290.829, 524.456 292, 527.208 292 C 528.501 292, 530.207 292.900, 531 294 C 533.627 297.645, 538 295.474, 538 290.526 C 538 288.079, 538.226 287.952, 541.489 288.564 C 544.198 289.072, 545.119 288.855, 545.603 287.591 C 546.881 284.261, 540.050 272.254, 537.685 273.673 C 536.947 274.116, 536.998 273.769, 537.822 272.752 C 538.549 271.855, 538.999 269.856, 538.822 268.310 C 538.533 265.787, 538.117 265.500, 534.749 265.500 C 532.686 265.500, 530.999 265.163, 530.999 264.750 C 531.001 263.356, 527.520 263.995, 524.250 265.989 M 1195.158 282 C 1195.158 283.375, 1195.385 283.938, 1195.662 283.250 C 1195.940 282.563, 1195.940 281.438, 1195.662 280.750 C 1195.385 280.063, 1195.158 280.625, 1195.158 282 M 1354 285.800 C 1354 289.483, 1357.915 291.228, 1360.462 288.681 C 1362.470 286.672, 1360.465 284, 1356.950 284 C 1354.776 284, 1354 284.473, 1354 285.800 M 758.230 296.700 C 758.174 297.690, 758.339 299.540, 758.598 300.811 C 758.990 302.736, 759.606 303.070, 762.284 302.811 C 765.234 302.526, 765.500 302.210, 765.500 299 C 765.500 295.707, 765.288 295.482, 761.917 295.200 C 759.050 294.959, 758.313 295.259, 758.230 296.700 M 1341.500 297 C 1341.840 297.550, 1342.991 298, 1344.059 298 C 1345.127 298, 1346 297.550, 1346 297 C 1346 296.450, 1344.848 296, 1343.441 296 C 1341.990 296, 1341.149 296.433, 1341.500 297 M 542.783 312.683 C 540.990 313.154, 539.358 318.883, 540.309 321.364 C 541.275 323.880, 546.048 324.326, 548.128 322.093 C 550.553 319.490, 550.506 316.506, 548 314 C 545.955 311.955, 545.751 311.903, 542.783 312.683 M 902.690 324.643 C 902.311 325.023, 902 326.158, 902 327.167 C 902 329.161, 904.466 329.672, 905.559 327.904 C 906.351 326.623, 903.711 323.622, 902.690 324.643 M 1171.360 351.504 C 1170.510 353.720, 1173.561 356.839, 1175.087 355.313 C 1176.643 353.757, 1175.807 350.587, 1173.735 350.188 C 1172.778 350.003, 1171.709 350.595, 1171.360 351.504 M 925 354 C 925 355.111, 925.667 356, 926.500 356 C 928.183 356, 928.251 355.817, 927.393 353.582 C 926.536 351.347, 925 351.616, 925 354 M 826.500 357 C 826.840 357.550, 827.316 358, 827.559 358 C 827.802 358, 828 357.550, 828 357 C 828 356.450, 827.523 356, 826.941 356 C 826.359 356, 826.160 356.450, 826.500 357 M 928 360 C 928 360.550, 928.450 361, 929 361 C 929.550 361, 930 360.550, 930 360 C 930 359.450, 929.550 359, 929 359 C 928.450 359, 928 359.450, 928 360 M 462.440 401.451 C 460.368 404.613, 461.381 407.806, 464.721 408.645 C 469.793 409.918, 472.921 404.780, 469.425 400.918 C 467.060 398.304, 464.367 398.510, 462.440 401.451 M 873.667 400.667 C 872.290 402.043, 873.073 404, 875 404 C 876.333 404, 877 403.333, 877 402 C 877 400.073, 875.043 399.290, 873.667 400.667 M 1470.500 403 C 1470.160 403.550, 1470.359 404, 1470.941 404 C 1471.523 404, 1472 403.550, 1472 403 C 1472 402.450, 1471.802 402, 1471.559 402 C 1471.316 402, 1470.840 402.450, 1470.500 403 M 1477.565 405.928 C 1475.314 408.415, 1476.326 411.793, 1479.564 412.606 C 1483.208 413.520, 1485 412.408, 1485 409.231 C 1485 404.137, 1480.853 402.295, 1477.565 405.928 M 1404.315 409.007 C 1403.114 409.491, 1401.651 410.783, 1401.065 411.878 C 1399.767 414.303, 1399.642 429.226, 1400.909 430.550 C 1401.409 431.072, 1402.133 434.875, 1402.517 439 C 1403.236 446.717, 1404.073 448.197, 1407.463 447.756 C 1408.797 447.582, 1409.641 446.440, 1410.098 444.194 C 1410.894 440.281, 1413.453 438.076, 1417.250 438.032 C 1420.394 437.995, 1420.727 438.748, 1418.338 440.495 C 1416.264 442.011, 1417.300 445.281, 1419.707 444.818 C 1420.723 444.622, 1421.693 443.154, 1422.091 441.210 C 1422.985 436.839, 1422.308 426.075, 1421.043 424.552 C 1420.348 423.714, 1420.485 422.739, 1421.485 421.418 C 1424.892 416.916, 1422.498 412, 1416.899 412 C 1415.671 412, 1414.963 411.704, 1415.325 411.342 C 1415.687 410.980, 1415.481 410.080, 1414.869 409.342 C 1413.626 407.844, 1407.670 407.655, 1404.315 409.007 M 1406.459 415.067 C 1406.096 415.653, 1406.014 416.348, 1406.276 416.610 C 1406.538 416.872, 1407.019 416.392, 1407.345 415.543 C 1408.021 413.781, 1407.445 413.471, 1406.459 415.067 M 680.607 417.582 C 679.642 420.097, 679.873 420.862, 681.931 421.963 C 684.411 423.291, 687.050 420.905, 686.294 418.018 C 685.655 415.574, 681.500 415.256, 680.607 417.582 M 1394.701 422.632 C 1392.438 424.896, 1395.430 439.267, 1398.280 439.815 C 1399.697 440.088, 1400 439.369, 1400 435.740 C 1400 433.316, 1399.695 431.028, 1399.321 430.655 C 1398.948 430.282, 1398.611 428.302, 1398.571 426.256 C 1398.503 422.684, 1396.513 420.821, 1394.701 422.632 M 1416.813 424.683 C 1417.534 424.972, 1418.397 424.936, 1418.729 424.604 C 1419.061 424.272, 1418.471 424.036, 1417.417 424.079 C 1416.252 424.127, 1416.015 424.364, 1416.813 424.683 M 1097.500 432 C 1096.771 433.180, 1097.717 435, 1099.059 435 C 1099.577 435, 1100 434.100, 1100 433 C 1100 430.891, 1098.545 430.309, 1097.500 432 M 89.225 455.072 C 87.351 455.799, 87.067 456.442, 87.613 458.727 C 87.978 460.252, 88.466 461.837, 88.697 462.250 C 89.424 463.545, 93.700 463.066, 94.960 461.548 C 97.724 458.218, 93.478 453.423, 89.225 455.072 M 377.357 457.513 C 376.692 459.246, 378.630 462, 380.515 462 C 382.523 462, 383.067 459.209, 381.386 457.529 C 379.448 455.591, 378.096 455.586, 377.357 457.513 M 392 461 C 392 461.550, 392.900 462, 394 462 C 395.100 462, 396 461.550, 396 461 C 396 460.450, 395.100 460, 394 460 C 392.900 460, 392 460.450, 392 461 M 973.336 476.567 C 973.005 477.429, 973.225 478.625, 973.825 479.225 C 975.269 480.669, 978.096 478.414, 977.334 476.427 C 976.602 474.521, 974.087 474.609, 973.336 476.567 M 1365.750 477.080 C 1363.689 478.280, 1363.344 484.248, 1365.250 485.722 C 1368.194 488, 1370.140 487.951, 1372.556 485.535 C 1375.523 482.568, 1375.637 480.637, 1373 478 C 1370.808 475.808, 1368.448 475.509, 1365.750 477.080 M 304 484 C 304 487.728, 304.193 488, 306.839 488 C 308.831 488, 309.992 487.314, 310.725 485.704 C 312.107 482.672, 310.193 480, 306.640 480 C 304.227 480, 304 480.344, 304 484 M 1449.710 505.470 C 1446.120 508.095, 1448.183 513.335, 1452.609 512.830 C 1455.163 512.538, 1455.500 512.105, 1455.500 509.115 C 1455.500 505.193, 1452.592 503.363, 1449.710 505.470 M 1571.639 508.694 C 1570.403 509.930, 1571.017 513, 1572.500 513 C 1573.325 513, 1574 512.127, 1574 511.059 C 1574 508.972, 1572.682 507.651, 1571.639 508.694 M 1276.667 511.667 C 1275.127 513.206, 1276.311 515.644, 1279.624 517.758 C 1281.571 519, 1283.577 519.761, 1284.082 519.449 C 1285.549 518.543, 1285.142 514.992, 1283.500 514.362 C 1282.675 514.045, 1282 513.159, 1282 512.393 C 1282 510.979, 1277.912 510.422, 1276.667 511.667 M 1358 538 C 1358 539.333, 1358.667 540, 1360 540 C 1361.333 540, 1362 539.333, 1362 538 C 1362 536.667, 1361.333 536, 1360 536 C 1358.667 536, 1358 536.667, 1358 538 M 1736 550 C 1736 552.274, 1738.508 552.725, 1739.324 550.598 C 1739.952 548.962, 1739.214 548, 1737.333 548 C 1736.600 548, 1736 548.900, 1736 550 M 1710.557 565.223 C 1709.701 566.445, 1709 568.218, 1709 569.163 C 1709 570.109, 1708.550 571.160, 1708 571.500 C 1707.450 571.840, 1707 572.991, 1707 574.059 C 1707 575.549, 1706.303 576, 1704 576 L 1701 576 1701 584.045 C 1701 591.254, 1701.255 592.346, 1703.455 594.545 C 1704.805 595.895, 1706.380 597, 1706.955 597 C 1707.530 597, 1708 597.850, 1708 598.889 C 1708 599.928, 1708.824 601.796, 1709.831 603.040 C 1711.233 604.771, 1712.274 605.148, 1714.271 604.647 C 1716.405 604.111, 1716.936 603.324, 1717.190 600.323 C 1717.440 597.359, 1717.924 596.625, 1719.708 596.498 C 1721.368 596.379, 1722.068 597.032, 1722.527 599.125 C 1723.127 601.855, 1726.052 603.704, 1727.933 602.541 C 1729.783 601.398, 1731.378 584.264, 1729.816 582.317 C 1729.176 581.520, 1729.558 580.442, 1730.984 579.016 C 1733.680 576.320, 1732.940 573.719, 1728.108 568.905 C 1723.371 564.185, 1720.966 563, 1716.122 563 C 1713.113 563, 1711.725 563.554, 1710.557 565.223 M 750 576 C 750 577.100, 750.450 578, 751 578 C 751.550 578, 752 577.100, 752 576 C 752 574.900, 751.550 574, 751 574 C 750.450 574, 750 574.900, 750 576 M 473.202 577.417 C 473.366 578.563, 473.950 579.500, 474.500 579.500 C 475.050 579.500, 475.634 578.563, 475.798 577.417 C 475.993 576.052, 475.545 575.333, 474.500 575.333 C 473.455 575.333, 473.007 576.052, 473.202 577.417 M 755.813 575.683 C 756.534 575.972, 757.397 575.936, 757.729 575.604 C 758.061 575.272, 757.471 575.036, 756.417 575.079 C 755.252 575.127, 755.015 575.364, 755.813 575.683 M 1392 578 C 1392 579.289, 1392.506 579.998, 1393.250 579.750 C 1393.938 579.521, 1394.500 578.733, 1394.500 578 C 1394.500 577.267, 1393.938 576.479, 1393.250 576.250 C 1392.506 576.002, 1392 576.711, 1392 578 M 1585 611 C 1585 611.550, 1585.675 612, 1586.500 612 C 1587.325 612, 1588 611.550, 1588 611 C 1588 610.450, 1587.325 610, 1586.500 610 C 1585.675 610, 1585 610.450, 1585 611 M 236 618.500 C 236 619.325, 236.450 620, 237 620 C 237.550 620, 238 619.325, 238 618.500 C 238 617.675, 237.550 617, 237 617 C 236.450 617, 236 617.675, 236 618.500 M 456 658.883 C 456 659.369, 456.900 660.002, 458 660.290 C 459.300 660.630, 460 660.320, 460 659.406 C 460 658.633, 459.100 658, 458 658 C 456.900 658, 456 658.398, 456 658.883 M 433.357 663.513 C 433.037 664.345, 433.321 665.682, 433.987 666.485 C 435.048 667.762, 435.385 667.758, 436.696 666.446 C 437.520 665.623, 437.940 664.285, 437.629 663.474 C 436.890 661.551, 434.100 661.576, 433.357 663.513 M 405 669.878 C 405 670.910, 405.698 672.334, 406.550 673.042 C 407.828 674.102, 408.379 674.049, 409.687 672.742 C 411.828 670.601, 410.645 668, 407.531 668 C 405.722 668, 405 668.535, 405 669.878 M 523.533 680.947 C 522.653 682.370, 523.775 684, 525.632 684 C 526.508 684, 527.010 683.297, 526.823 682.333 C 526.434 680.324, 524.437 679.484, 523.533 680.947 M 982.590 686.854 C 981.597 688.461, 983.143 691.119, 984.876 690.785 C 987.006 690.375, 986.980 686.620, 984.843 686.208 C 983.932 686.033, 982.918 686.324, 982.590 686.854 M 1429.380 688.452 C 1428.617 690.441, 1429.747 692, 1431.952 692 C 1433.918 692, 1434.979 690.283, 1434.269 688.250 C 1433.668 686.526, 1430.062 686.675, 1429.380 688.452 M 1510 707 C 1510 707.550, 1510.450 708, 1511 708 C 1511.550 708, 1512 707.550, 1512 707 C 1512 706.450, 1511.550 706, 1511 706 C 1510.450 706, 1510 706.450, 1510 707 M 0.489 899 C 0.489 998.825, 0.607 1039.663, 0.750 989.750 C 0.893 939.838, 0.893 858.163, 0.750 808.250 C 0.607 758.338, 0.489 799.175, 0.489 899 M 1196 722 C 1196 723.333, 1196.667 724, 1198 724 C 1199.333 724, 1200 723.333, 1200 722 C 1200 720.667, 1199.333 720, 1198 720 C 1196.667 720, 1196 720.667, 1196 722 M 563.526 736.250 C 562.707 738.183, 562.220 742.446, 562.325 746.770 C 562.475 752.994, 562.310 753.785, 561.181 752.270 C 560.331 751.130, 560.035 748.828, 560.349 745.805 C 561.004 739.496, 559.064 737.697, 556.098 741.863 C 554.490 744.121, 554 746.312, 554 751.249 C 554 758.434, 554.573 759.295, 561.752 762.905 C 564.616 764.345, 566.575 766.248, 567.752 768.731 C 569.853 773.164, 573.481 774.228, 585 773.787 C 592.234 773.510, 592.511 773.408, 592.800 770.917 C 592.980 769.372, 592.578 768.260, 591.800 768.151 C 582.136 766.800, 579.770 766.258, 582.500 766.022 C 584.150 765.880, 585.818 765.810, 586.207 765.867 C 589.344 766.329, 600.761 766.592, 601.778 766.225 C 604.014 765.419, 605.075 762.326, 604.044 759.616 C 603.370 757.843, 601.895 756.780, 599.044 756.012 C 595.242 754.988, 594.221 753.588, 595.023 750.500 C 595.166 749.950, 595.248 748.721, 595.205 747.769 C 595.134 746.192, 595.332 746.171, 597.423 747.541 C 601.080 749.938, 604.829 747.325, 603.332 743.423 C 602.394 740.979, 596.196 739.118, 582.250 737.096 C 578.162 736.503, 577 736.630, 577 737.667 C 577 739.895, 575.183 739.166, 572.842 736 C 569.667 731.706, 565.403 731.821, 563.526 736.250 M 575.717 740.750 C 575.496 741.163, 575.649 742.625, 576.058 744 C 576.752 746.337, 576.807 746.288, 576.900 743.250 C 576.996 740.115, 576.555 739.183, 575.717 740.750 M 1310.500 772 C 1310.840 772.550, 1311.316 773, 1311.559 773 C 1311.802 773, 1312 772.550, 1312 772 C 1312 771.450, 1311.523 771, 1310.941 771 C 1310.359 771, 1310.160 771.450, 1310.500 772 M 301.184 773.216 C 300.356 774.044, 300.346 774.712, 301.146 775.676 C 302.727 777.581, 304 777.306, 304 775.059 C 304 772.611, 302.664 771.736, 301.184 773.216 M 1364.639 792.694 C 1363.444 793.889, 1363.994 796, 1365.500 796 C 1366.325 796, 1367 795.352, 1367 794.559 C 1367 792.888, 1365.573 791.761, 1364.639 792.694 M 1372.688 798.646 C 1371.147 800.186, 1372.040 803, 1374.070 803 C 1375.625 803, 1376.060 802.461, 1375.820 800.828 C 1375.488 798.573, 1373.880 797.453, 1372.688 798.646 M 748.750 799.662 C 749.438 799.940, 750.563 799.940, 751.250 799.662 C 751.938 799.385, 751.375 799.158, 750 799.158 C 748.625 799.158, 748.063 799.385, 748.750 799.662 M 749 802.559 C 749 803.416, 749.450 803.840, 750 803.500 C 750.550 803.160, 751 802.459, 751 801.941 C 751 801.423, 750.550 801, 750 801 C 749.450 801, 749 801.702, 749 802.559 M 1054 825.175 C 1049.081 826.574, 1047.334 828.471, 1046.715 833.089 C 1046.087 837.767, 1047.449 848.667, 1049.603 856.213 C 1050.433 859.121, 1051.507 863.525, 1051.988 866 C 1054.256 877.660, 1056.851 880.756, 1062.034 877.982 C 1063.873 876.998, 1064.125 876.115, 1063.836 871.671 C 1063.503 866.558, 1063.536 866.493, 1067 865.309 C 1068.925 864.651, 1071.749 864.087, 1073.276 864.056 C 1076.030 864, 1076.040 864.022, 1074.526 866.950 C 1072.464 870.937, 1072.602 873, 1074.929 873 C 1078.649 873, 1080.186 870.197, 1079.528 864.613 C 1079.197 861.801, 1078.665 856.428, 1078.346 852.674 C 1077.685 844.896, 1076.689 843.970, 1071.591 846.390 C 1067.856 848.162, 1059.366 848.702, 1062 847 C 1062.825 846.467, 1064.564 846.024, 1065.864 846.015 C 1069.274 845.993, 1075.610 842.152, 1076.897 839.327 C 1079.940 832.648, 1077.072 829.581, 1068.014 829.826 C 1062.702 829.970, 1062.608 829.929, 1065.450 828.685 L 1068.399 827.393 1065.977 825.697 C 1063.308 823.827, 1059.349 823.655, 1054 825.175 M 1622.533 826.947 C 1622.175 827.526, 1621.009 828, 1619.941 828 C 1618.873 828, 1618 828.525, 1618 829.167 C 1618 829.808, 1617.715 830.049, 1617.367 829.701 C 1617.019 829.353, 1615.862 830.178, 1614.795 831.534 C 1613.728 832.890, 1611.988 834, 1610.927 834 C 1609.265 834, 1609 834.734, 1609 839.345 C 1609 846.407, 1610.734 847.983, 1618.948 848.391 C 1624.697 848.677, 1625.365 848.481, 1628.150 845.696 C 1630.045 843.801, 1630.975 842.012, 1630.670 840.847 C 1630.131 838.786, 1631.532 838.294, 1632.367 840.250 C 1632.660 840.938, 1632.677 839.957, 1632.404 838.070 C 1632.110 836.038, 1630.424 832.983, 1628.265 830.570 C 1624.094 825.909, 1623.432 825.492, 1622.533 826.947 M 1056.875 831.506 C 1054.252 832.932, 1052.575 836.503, 1053.685 838.300 C 1054.009 838.824, 1054.867 837.843, 1055.592 836.119 C 1056.317 834.395, 1058.055 832.549, 1059.455 832.017 C 1060.855 831.485, 1062 830.813, 1062 830.525 C 1062 829.582, 1059.554 830.050, 1056.875 831.506 M 727.615 846.465 C 726.727 847.820, 726 849.428, 726 850.036 C 726 851.932, 728.748 854, 731.268 854 C 736.008 854, 736.968 846.353, 732.446 844.618 C 729.888 843.636, 729.328 843.850, 727.615 846.465 M 1040.153 845.867 C 1038.969 846.894, 1038 848.182, 1038 848.729 C 1038 851.573, 1044.286 868.998, 1045.308 868.985 C 1045.963 868.976, 1047.136 868.566, 1047.914 868.074 C 1049.111 867.317, 1048.976 865.939, 1047.037 859.130 C 1045.777 854.704, 1044.997 850.120, 1045.304 848.944 C 1046.545 844.198, 1043.900 842.618, 1040.153 845.867 M 1058.500 846 C 1058.840 846.550, 1059.316 847, 1059.559 847 C 1059.802 847, 1060 846.550, 1060 846 C 1060 845.450, 1059.523 845, 1058.941 845 C 1058.359 845, 1058.160 845.450, 1058.500 846 M 1571.386 850.435 C 1571.055 851.298, 1571.074 853.157, 1571.427 854.565 C 1571.948 856.642, 1572.583 857.067, 1574.785 856.813 C 1577.162 856.539, 1577.500 856.064, 1577.500 853 C 1577.500 849.923, 1577.167 849.462, 1574.744 849.183 C 1572.946 848.976, 1571.779 849.411, 1571.386 850.435 M 1261.200 854.200 C 1260.540 854.860, 1260 856.465, 1260 857.766 C 1260 859.756, 1260.436 860.083, 1262.741 859.816 C 1265.923 859.449, 1266.890 856.747, 1264.644 854.502 C 1262.834 852.691, 1262.719 852.681, 1261.200 854.200 M 131.677 868.750 C 130.641 870.509, 129.899 876.106, 130.464 877.888 C 132.165 883.246, 142 884.525, 142 879.388 C 142 876.372, 139.356 869.846, 137.711 868.800 C 136.152 867.810, 132.249 867.777, 131.677 868.750 M 916 882.441 C 916 885.441, 917.598 886.579, 919.544 884.964 C 921.979 882.943, 921.360 880, 918.500 880 C 916.516 880, 916 880.504, 916 882.441 M 612.667 896.667 C 611.516 897.817, 611.938 899, 613.500 899 C 614.325 899, 615 898.325, 615 897.500 C 615 895.938, 613.817 895.516, 612.667 896.667 M 1434 897.500 C 1434 898.325, 1434.450 899, 1435 899 C 1435.550 899, 1436 898.325, 1436 897.500 C 1436 896.675, 1435.550 896, 1435 896 C 1434.450 896, 1434 896.675, 1434 897.500 M 338 910 C 338 912.432, 341.493 912.765, 342.393 910.418 C 343.288 908.085, 343.222 908, 340.500 908 C 338.667 908, 338 908.533, 338 910 M 1542.500 941 C 1542.840 941.550, 1543.316 942, 1543.559 942 C 1543.802 942, 1544 941.550, 1544 941 C 1544 940.450, 1543.523 940, 1542.941 940 C 1542.359 940, 1542.160 940.450, 1542.500 941 M 569 949.981 C 569 952.042, 572.741 953.666, 575.207 952.677 C 576.058 952.335, 575.925 952.131, 574.817 952.079 C 573.892 952.036, 572.849 951.100, 572.500 950 C 571.679 947.414, 569 947.399, 569 949.981 M 1559.250 958.496 C 1557.661 960.301, 1557.631 965.231, 1559.200 966.800 C 1562.020 969.620, 1568 966.769, 1568 962.606 C 1568 957.658, 1562.332 954.995, 1559.250 958.496 M 1009.362 959.500 C 1008.411 961.977, 1009.782 964, 1012.410 964 C 1015.730 964, 1016.581 962.299, 1014.443 959.937 C 1012.348 957.622, 1010.155 957.433, 1009.362 959.500 M 1056.565 958.895 C 1056.260 959.388, 1056.640 960.032, 1057.408 960.326 C 1058.874 960.889, 1060 960.241, 1060 958.833 C 1060 957.717, 1057.263 957.766, 1056.565 958.895 M 307.250 984.662 C 305.473 985.379, 305.699 988.947, 307.567 989.664 C 309.753 990.503, 311.328 988.609, 310.532 986.101 C 309.851 983.956, 309.444 983.777, 307.250 984.662 M 524 985.941 C 524 987.009, 523.550 988.160, 523 988.500 C 521.343 989.524, 521.873 991.825, 523.915 992.473 C 524.968 992.807, 526.993 992.789, 528.415 992.432 C 531.535 991.649, 531.926 988.148, 529.171 985.655 C 526.672 983.393, 524 983.541, 524 985.941 M 281.141 987.330 C 279.732 989.027, 280.542 991.610, 282.747 992.457 C 284.650 993.187, 286.111 991.271, 285.756 988.510 C 285.444 986.083, 282.748 985.394, 281.141 987.330 M 1292.238 1005.250 C 1290.910 1006.898, 1292.476 1011, 1294.433 1011 C 1296.276 1011, 1298.351 1007.356, 1297.608 1005.422 C 1296.935 1003.666, 1293.600 1003.559, 1292.238 1005.250 M 1646.607 1027.582 C 1645.053 1031.632, 1646.507 1034, 1650.547 1034 C 1652.870 1034, 1654.236 1030.350, 1652.782 1028.023 C 1651.280 1025.618, 1647.465 1025.345, 1646.607 1027.582 M 403.831 1035.250 C 401.680 1036.983, 401.115 1039.103, 402.099 1041.750 C 402.725 1043.435, 403.733 1044, 406.108 1044 C 411.798 1044, 413.460 1037.442, 408.359 1035.118 C 405.362 1033.752, 405.702 1033.742, 403.831 1035.250 M 465.241 1035.986 C 463.477 1038.810, 463.674 1043.661, 465.582 1044.393 C 471.447 1046.644, 474.960 1043.297, 472.852 1037.467 C 471.866 1034.741, 471.051 1034, 469.040 1034 C 467.570 1034, 465.953 1034.845, 465.241 1035.986 M 1726.186 1049.107 C 1724.312 1049.816, 1723.932 1050.602, 1724.186 1053.241 C 1724.464 1056.126, 1724.845 1056.500, 1727.500 1056.500 C 1730.120 1056.500, 1730.538 1056.109, 1730.801 1053.415 C 1731.172 1049.613, 1729.347 1047.910, 1726.186 1049.107 M 993.465 1070.057 C 992.286 1071.964, 993.938 1076, 995.897 1076 C 998.470 1076, 1000.294 1073.503, 999.515 1071.048 C 998.818 1068.852, 994.633 1068.166, 993.465 1070.057" stroke="none" fill="black" fill-rule="evenodd"/>
</svg>