<svg xmlns="http://www.w3.org/2000/svg" width="1920" height="1080" viewBox="0 0 1920 1080" version="1.1">
	<path fill-opacity="0.463" d="M -0 540.001 L -0 1080.001 960.250 1079.751 L 1920.500 1079.500 1920.751 539.750 L 1921.002 0 960.501 0 L 0 0 -0 540.001 M 0.496 540.500 C 0.496 837.500, 0.610 958.851, 0.750 810.168 C 0.890 661.485, 0.890 418.485, 0.750 270.168 C 0.610 121.851, 0.496 243.500, 0.496 540.500 M 1024.750 115.392 C 1022.834 116.847, 1022.693 122, 1024.569 122 C 1027.535 122, 1032 119.658, 1032 118.102 C 1032 114.372, 1028.043 112.893, 1024.750 115.392 M 1848 179.500 C 1848 180.325, 1848.675 181, 1849.500 181 C 1850.325 181, 1851 180.325, 1851 179.500 C 1851 178.675, 1850.325 178, 1849.500 178 C 1848.675 178, 1848 178.675, 1848 179.500 M 393 181 C 393 182.506, 393.522 183.046, 394.750 182.810 C 395.712 182.624, 396.500 181.810, 396.500 181 C 396.500 180.190, 395.712 179.376, 394.750 179.190 C 393.522 178.954, 393 179.494, 393 181 M 358.223 183.557 C 354.244 186.343, 355.982 191, 361 191 C 365.898 191, 367.428 187.428, 364 184 C 361.592 181.592, 361.083 181.553, 358.223 183.557 M 1223.153 209.247 C 1221.616 210.784, 1221.697 212.504, 1223.373 213.895 C 1225.214 215.422, 1228 214.238, 1228 211.928 C 1228 209.490, 1224.723 207.677, 1223.153 209.247 M 1431.384 219.442 C 1430.274 222.335, 1431.475 224.495, 1434.380 224.828 C 1438.025 225.246, 1439.427 223.836, 1438.608 220.573 C 1438.093 218.521, 1437.352 218, 1434.950 218 C 1433.249 218, 1431.696 218.628, 1431.384 219.442 M 1368.594 263.614 C 1368.231 264.560, 1368.351 265.751, 1368.861 266.261 C 1370.409 267.809, 1373.500 266.627, 1373.500 264.486 C 1373.500 261.908, 1369.521 261.201, 1368.594 263.614 M 674.534 277.945 C 673.569 279.506, 674.839 281, 677.132 281 C 678.507 281, 679.040 280.448, 678.812 279.261 C 678.428 277.269, 675.507 276.370, 674.534 277.945 M 963.040 285.452 C 962.377 286.251, 961.989 287.713, 962.178 288.702 C 962.645 291.152, 967.041 291.664, 968.655 289.457 C 971.349 285.773, 965.962 281.931, 963.040 285.452 M 1669.667 316.667 C 1669.300 317.033, 1669 318.383, 1669 319.667 C 1669 321.474, 1669.550 322, 1671.441 322 C 1674.360 322, 1675.355 320.694, 1674.497 317.991 C 1673.888 316.072, 1671.042 315.291, 1669.667 316.667 M 278.338 335.046 C 275.946 335.958, 274.633 338.881, 275.546 341.261 C 276.321 343.278, 279.839 344.157, 282.162 342.913 C 286.341 340.677, 282.781 333.352, 278.338 335.046 M 550.629 352.514 C 548.492 354.651, 548.572 356.303, 550.917 358.425 C 553.655 360.903, 557 359, 557 354.965 C 557 353.334, 556.587 352, 556.082 352 C 555.577 352, 554.510 351.749, 553.711 351.442 C 552.912 351.136, 551.525 351.618, 550.629 352.514 M 461.964 373.067 C 461.104 374.675, 461.212 375.675, 462.452 377.567 C 464.354 380.470, 467.062 380.694, 469.373 378.140 C 470.697 376.677, 470.842 375.715, 470.053 373.640 C 468.762 370.245, 463.668 369.884, 461.964 373.067 M 79.480 442.032 C 79.092 442.660, 79.245 443.645, 79.820 444.220 C 81.164 445.564, 84.297 444.392, 83.750 442.749 C 83.194 441.078, 80.364 440.602, 79.480 442.032 M 616.200 449.200 C 614.542 450.858, 614.696 454.503, 616.487 455.989 C 618.557 457.707, 622.648 456.454, 623.317 453.896 C 624.476 449.465, 619.330 446.070, 616.200 449.200 M 275.032 451.940 C 273.362 455.061, 275.390 458.206, 278.817 457.810 C 281.158 457.540, 281.500 457.053, 281.500 454 C 281.500 450.947, 281.158 450.460, 278.817 450.190 C 276.927 449.972, 275.809 450.489, 275.032 451.940 M 1596.176 463.676 C 1596.435 465.935, 1597 466.500, 1599 466.500 C 1601 466.500, 1601.500 466, 1601.500 464 C 1601.500 462, 1600.935 461.435, 1598.676 461.176 C 1596.108 460.882, 1595.882 461.108, 1596.176 463.676 M 54.608 513.579 C 54.275 514.448, 54.275 516.248, 54.609 517.579 C 55.075 519.433, 55.885 520, 58.073 520 C 61.627 520, 63.599 516.987, 62 514 C 60.685 511.544, 55.502 511.249, 54.608 513.579 M 1186.387 520.594 C 1185.659 523.496, 1186.608 525.720, 1189.303 527.419 C 1190.597 528.236, 1191.470 527.975, 1193.187 526.258 C 1195.029 524.416, 1195.238 523.577, 1194.433 521.272 C 1193.688 519.141, 1192.725 518.428, 1190.266 518.189 C 1187.509 517.921, 1186.975 518.252, 1186.387 520.594 M 2.480 526.032 C 2.092 526.660, 2.245 527.645, 2.820 528.220 C 4.164 529.564, 7.297 528.392, 6.750 526.749 C 6.194 525.078, 3.364 524.602, 2.480 526.032 M 892.238 530.730 C 890.570 531.318, 886.400 540.454, 885.497 545.500 C 884.192 552.790, 884.946 565.089, 886.980 569.687 C 891.233 579.303, 896.728 584, 903.723 584 C 907.044 584, 907.753 583.574, 909.128 580.750 C 913.533 571.706, 913.812 563.579, 910.089 552.760 C 906.741 543.028, 895.768 529.486, 892.238 530.730 M 1673.170 541.874 C 1672.414 542.353, 1671.982 543.966, 1672.170 545.609 C 1672.433 547.909, 1673.055 548.564, 1675.215 548.813 C 1677.421 549.067, 1678.052 548.643, 1678.577 546.550 C 1679.602 542.465, 1676.487 539.771, 1673.170 541.874 M 350.556 579.910 C 349.746 581.221, 351.003 584, 352.407 584 C 354.235 584, 355.906 581.919, 355.315 580.378 C 354.722 578.833, 351.422 578.508, 350.556 579.910 M 844 597 C 844 597.550, 844.450 598, 845 598 C 845.550 598, 846 597.550, 846 597 C 846 596.450, 845.550 596, 845 596 C 844.450 596, 844 596.450, 844 597 M 124.500 724 C 124.840 724.550, 125.541 725, 126.059 725 C 126.577 725, 127 724.550, 127 724 C 127 723.450, 126.298 723, 125.441 723 C 124.584 723, 124.160 723.450, 124.500 724 M 429.930 744.584 C 428.978 745.732, 428.905 746.626, 429.665 747.834 C 431.157 750.202, 434.146 750.521, 435.645 748.471 C 438.421 744.675, 432.946 740.951, 429.930 744.584 M 1129 751.500 C 1129 752.325, 1129.675 753, 1130.500 753 C 1131.325 753, 1132 752.325, 1132 751.500 C 1132 750.675, 1131.325 750, 1130.500 750 C 1129.675 750, 1129 750.675, 1129 751.500 M 1714.571 755.571 C 1712.712 757.431, 1712.696 757.564, 1714.035 760.066 C 1715.722 763.217, 1721 761.933, 1721 758.371 C 1721 756.968, 1718.284 754, 1717 754 C 1716.529 754, 1715.436 754.707, 1714.571 755.571 M 330.046 771.445 C 328.135 773.747, 329.156 777.451, 331.805 777.827 C 336.228 778.454, 338.459 774.602, 335.429 771.571 C 333.470 769.613, 331.603 769.569, 330.046 771.445 M 1029.427 771.741 C 1026.069 774.117, 1028.178 780, 1032.388 780 C 1035.335 780, 1037.881 775.626, 1036.353 773.185 C 1035.211 771.360, 1031.159 770.516, 1029.427 771.741 M 127.664 904.479 C 125.755 906.388, 126.453 908.692, 129.204 909.565 C 132.062 910.472, 134.852 907.575, 133.376 905.231 C 131.895 902.880, 129.569 902.574, 127.664 904.479 M 317.500 918 C 315.901 923.039, 320.509 926.491, 324.074 922.926 C 325.133 921.867, 326 920.415, 326 919.700 C 326 915.890, 318.637 914.417, 317.500 918 M 1745.430 920.421 C 1744.307 924.897, 1745.230 926.500, 1748.930 926.500 C 1751.772 926.500, 1752.488 926.036, 1753.271 923.687 C 1754.030 921.409, 1753.856 920.606, 1752.354 919.468 C 1749.360 917.200, 1746.127 917.644, 1745.430 920.421 M 727.960 922.548 C 727.025 923.674, 727.105 924.103, 728.339 924.577 C 730.026 925.224, 732 924.400, 732 923.048 C 732 921.473, 729.146 921.120, 727.960 922.548 M 1443 958 C 1443 958.550, 1443.423 959, 1443.941 959 C 1444.459 959, 1445.160 958.550, 1445.500 958 C 1445.840 957.450, 1445.416 957, 1444.559 957 C 1443.702 957, 1443 957.450, 1443 958 M 582.480 975.032 C 582.092 975.660, 582.245 976.645, 582.820 977.220 C 584.164 978.564, 587.297 977.392, 586.750 975.749 C 586.194 974.078, 583.364 973.602, 582.480 975.032 M 980.200 1019.200 C 978.514 1020.886, 978.708 1023.066, 980.671 1024.501 C 982.862 1026.103, 985.776 1025.282, 986.549 1022.844 C 987.731 1019.121, 982.996 1016.404, 980.200 1019.200 M 1269.667 1036.667 C 1268.400 1037.933, 1269.006 1040.788, 1270.678 1041.430 C 1271.600 1041.784, 1272.967 1041.462, 1273.714 1040.714 C 1274.462 1039.967, 1274.784 1038.600, 1274.430 1037.678 C 1273.788 1036.006, 1270.933 1035.400, 1269.667 1036.667 M 209.223 1066.557 C 204.344 1069.974, 208.631 1075.614, 214.418 1073.393 C 216.712 1072.513, 216.463 1067.318, 214.066 1066.035 C 211.634 1064.734, 211.860 1064.710, 209.223 1066.557" stroke="none" fill="black" fill-rule="evenodd"/>
	<path fill-opacity="0.408" d="M -0 540.001 L -0 1080.001 960.250 1079.751 L 1920.500 1079.500 1920.751 539.750 L 1921.002 0 960.501 0 L 0 0 -0 540.001 M 0.496 540.500 C 0.496 837.500, 0.611 956.404, 0.750 804.731 L 1.004 528.963 3.326 529.546 C 6.099 530.242, 8.332 528.029, 7.375 525.534 C 6.903 524.306, 5.899 523.935, 3.859 524.234 L 1.004 524.653 0.750 262.577 C 0.610 118.434, 0.496 243.500, 0.496 540.500 M 1024.250 113.674 C 1023.013 114.538, 1022 116.282, 1022 117.551 C 1022 118.819, 1021.325 120.532, 1020.500 121.357 C 1018.249 123.608, 1018.607 123.815, 1023.250 122.945 C 1033.041 121.108, 1035.393 118.393, 1031 114 C 1028.630 111.630, 1027.274 111.565, 1024.250 113.674 M 738 118 C 738 118.550, 738.450 119, 739 119 C 739.550 119, 740 118.550, 740 118 C 740 117.450, 739.550 117, 739 117 C 738.450 117, 738 117.450, 738 118 M 1847.667 177.667 C 1847.300 178.033, 1847 179.158, 1847 180.167 C 1847 182.476, 1850.807 182.666, 1851.677 180.399 C 1852.497 178.263, 1849.269 176.064, 1847.667 177.667 M 392.089 179.834 C 391.302 181.304, 391.398 182.085, 392.473 182.978 C 394.770 184.884, 397.500 183.803, 397.500 180.986 C 397.500 177.772, 393.633 176.949, 392.089 179.834 M 357.400 181.765 C 356.795 182.169, 355.780 183.487, 355.145 184.693 C 352.952 188.860, 356.411 192.939, 362.179 192.986 C 364.731 193.007, 367 190.190, 367 187 C 367 185.429, 366.293 183.436, 365.429 182.571 C 363.796 180.939, 359.312 180.489, 357.400 181.765 M 1222.750 208.080 C 1220.741 209.250, 1220.432 213.032, 1222.200 214.800 C 1224.337 216.937, 1227.947 216.210, 1229.235 213.383 C 1230.288 211.072, 1230.155 210.544, 1228.103 208.883 C 1225.448 206.732, 1225.143 206.687, 1222.750 208.080 M 1430.655 217.829 C 1428.232 220.506, 1428.631 223.528, 1431.669 225.519 C 1437.278 229.194, 1443.088 223.165, 1438.673 218.250 C 1436.226 215.527, 1432.896 215.352, 1430.655 217.829 M 1368.344 262.598 C 1366.766 265.006, 1366.791 265.235, 1368.856 267.301 C 1371.607 270.052, 1374.500 268.619, 1374.500 264.506 C 1374.500 260.372, 1370.595 259.162, 1368.344 262.598 M 673.667 276.667 C 672.337 277.996, 673.045 280.953, 674.934 281.965 C 677.436 283.303, 677.570 283.288, 679.427 281.431 C 680.611 280.246, 680.743 279.388, 679.963 277.931 C 678.969 276.074, 675.047 275.286, 673.667 276.667 M 961.500 285.359 C 959.610 288.244, 960.463 290.845, 963.702 292.077 C 968.267 293.812, 971.768 290.150, 969.997 285.491 C 968.702 282.085, 963.697 282.007, 961.500 285.359 M 1668.655 315.829 C 1666.635 318.061, 1666.601 319.889, 1668.533 322.443 C 1669.738 324.036, 1670.496 324.212, 1672.751 323.423 C 1676.091 322.253, 1676.895 318.647, 1674.425 315.918 C 1672.254 313.518, 1670.767 313.495, 1668.655 315.829 M 275.655 334.829 C 273.894 336.775, 273.499 340.662, 274.846 342.785 C 275.295 343.492, 277.253 344.329, 279.198 344.645 C 282.134 345.121, 283.011 344.823, 284.367 342.887 C 286.593 339.708, 286.419 337.743, 283.686 335.174 C 280.860 332.520, 277.861 332.391, 275.655 334.829 M 548.852 352.426 C 547.110 356.249, 548.493 359.730, 552.066 360.515 C 555.457 361.259, 559 358.987, 559 356.068 C 559 350.489, 551.036 347.632, 548.852 352.426 M 1182 362.417 C 1182 363.288, 1182.713 364, 1183.583 364 C 1184.454 364, 1184.989 363.466, 1184.771 362.813 C 1184.153 360.958, 1182 360.651, 1182 362.417 M 463 370.288 C 457.671 372.971, 460.140 381, 466.295 381 C 471.609 381, 473.877 374.877, 470 371 C 467.681 368.681, 466.442 368.555, 463 370.288 M 78.357 441.513 C 77.713 443.190, 79.614 446.009, 81.372 445.985 C 83.794 445.952, 85.208 444.229, 84.540 442.125 C 83.742 439.613, 79.256 439.169, 78.357 441.513 M 614.496 449.365 C 611.542 453.874, 615.760 459.910, 620.716 458.266 C 625.718 456.606, 626.801 450.570, 622.600 447.765 C 620.225 446.179, 616.043 447.005, 614.496 449.365 M 275.051 449.949 C 272.398 452.602, 272.448 455.408, 275.195 457.967 C 278.701 461.233, 284 458.504, 284 453.431 C 284 449.104, 278.166 446.834, 275.051 449.949 M 1596.750 459.689 C 1595.787 459.941, 1595 460.527, 1595 460.992 C 1595 461.456, 1594.749 462.490, 1594.442 463.289 C 1593.679 465.278, 1596.622 468, 1599.536 468 C 1602.116 468, 1604.027 465.428, 1603.250 463 C 1602.750 461.437, 1600.028 458.915, 1599.059 459.116 C 1598.751 459.180, 1597.713 459.438, 1596.750 459.689 M 54.896 511.286 C 51.829 513.621, 51.662 516.753, 54.455 519.545 C 57.246 522.337, 60.391 522.209, 62.750 519.208 C 66.794 514.064, 60.105 507.318, 54.896 511.286 M 1185.557 518.223 C 1182.291 522.886, 1184.751 529, 1189.894 529 C 1193.491 529, 1195.788 527.240, 1196.516 523.926 C 1197.896 517.642, 1189.151 513.090, 1185.557 518.223 M 963.548 519.104 C 959.174 519.564, 954.981 520.177, 954.229 520.466 C 953.477 520.754, 948.280 521.901, 942.681 523.015 C 937.081 524.128, 929.875 525.802, 926.668 526.733 C 920.972 528.388, 920.850 528.498, 921.437 531.435 C 921.768 533.089, 923.361 535.650, 924.977 537.126 C 927.719 539.630, 930.977 546.819, 933.078 555 C 933.572 556.925, 934.041 563.589, 934.119 569.809 C 934.252 580.362, 934.038 581.717, 930.919 590.070 C 926.620 601.582, 923.654 604, 913.833 604 C 898.615 604, 891.240 600.546, 884.250 590.143 C 880.472 584.521, 880 584.125, 880 586.577 C 880 588.095, 880.508 592.298, 881.130 595.918 C 882.161 601.928, 882.708 602.934, 887.428 607.500 C 890.270 610.250, 895.274 614.003, 898.548 615.840 L 904.500 619.180 920 618.527 C 928.525 618.168, 937.525 617.265, 940 616.520 C 942.475 615.776, 946.188 614.883, 948.250 614.538 C 950.313 614.192, 952 613.530, 952 613.066 C 952 612.602, 953.570 611.928, 955.488 611.568 C 957.432 611.204, 959.439 610.048, 960.023 608.957 C 960.599 607.881, 961.702 607, 962.473 607 C 963.245 607, 965.355 605.650, 967.161 604 C 968.968 602.350, 970.822 601, 971.282 601 C 971.742 601, 971.840 600.550, 971.500 600 C 971.160 599.450, 971.385 599, 971.999 599 C 972.614 599, 975.001 596.929, 977.305 594.398 C 979.608 591.867, 982.724 589.160, 984.229 588.382 C 986.958 586.970, 990.243 581.151, 991.520 575.465 C 991.886 573.834, 993.283 569.528, 994.624 565.896 C 996.917 559.688, 997.007 558.688, 996.118 549.241 C 995.598 543.713, 994.683 538.277, 994.086 537.161 C 993.489 536.045, 993 534.254, 993 533.181 C 993 531.319, 985.407 523, 983.707 523 C 983.260 523, 981.238 521.875, 979.215 520.500 C 977.191 519.125, 974.628 518.060, 973.518 518.133 C 972.408 518.206, 967.922 518.643, 963.548 519.104 M 889.243 531.750 C 886.917 535.128, 885.243 539.383, 884.425 544 C 883.576 548.789, 883.614 560.939, 884.491 565.091 C 885.241 568.644, 887.938 575.135, 889.023 576 C 889.368 576.275, 890.442 577.850, 891.410 579.500 C 893.686 583.383, 898.946 586, 904.473 586 C 908.282 586, 909.171 585.570, 911.182 582.755 C 914.857 577.611, 915.964 571.662, 915.046 562 C 914.264 553.772, 911.060 544, 909.144 544 C 908.634 544, 907.956 542.962, 907.638 541.693 C 907.319 540.425, 904.783 537.050, 902 534.193 C 895.965 527.998, 892.309 527.297, 889.243 531.750 M 1671.571 541.571 C 1667.991 545.152, 1670.751 550.336, 1675.967 549.829 C 1678.646 549.568, 1679.539 548.918, 1680.276 546.692 C 1681.989 541.517, 1675.464 537.678, 1671.571 541.571 M 349.309 579.636 C 347.880 583.362, 353.380 586.657, 355.920 583.596 C 356.605 582.771, 356.873 581.174, 356.515 580.048 C 355.697 577.468, 350.260 577.158, 349.309 579.636 M 863.665 586.927 C 863.343 588.537, 861.471 591.462, 859.506 593.427 C 854.575 598.358, 849.973 598.379, 844.817 593.491 C 839.049 588.024, 837.686 589.025, 840.405 596.731 C 841.178 598.921, 842.136 603.757, 842.534 607.477 C 843.068 612.460, 843.789 614.670, 845.272 615.871 C 848.709 618.653, 851.376 621.955, 851.648 623.765 C 851.792 624.719, 852.035 626.435, 852.188 627.578 C 852.480 629.754, 848.538 635.196, 845.951 636.189 C 843.908 636.972, 843.540 645.397, 845.464 647.321 C 846.260 648.118, 846.637 649.672, 846.324 650.869 C 845.985 652.164, 846.235 653, 846.960 653 C 847.716 653, 848.062 651.627, 847.905 649.250 C 847.533 643.628, 848.527 641.771, 853.529 638.750 C 856.749 636.805, 859.432 636, 862.696 636 C 866.786 636, 867.746 636.459, 871.155 640.042 C 873.270 642.265, 875 644.671, 875 645.387 C 875 647.377, 878.733 650.316, 880.433 649.664 C 882.894 648.720, 883.498 644.208, 881.464 641.960 C 880.488 640.882, 879.250 640, 878.711 640 C 877.073 640, 873.143 634.790, 873.696 633.350 C 873.981 632.607, 874.563 632, 874.990 632 C 876.541 632, 876.744 628.035, 875.459 622.826 C 872.308 610.048, 870.650 604.324, 869.369 601.800 C 868.616 600.314, 868 597.986, 868 596.626 C 868 593.132, 865.796 584, 864.953 584 C 864.566 584, 863.987 585.317, 863.665 586.927 M 849.543 586.931 C 848.803 588.128, 850.684 589.313, 852.016 588.490 C 853.135 587.799, 852.400 586, 851 586 C 850.515 586, 849.859 586.419, 849.543 586.931 M 854.234 601.569 C 847.290 604.742, 845.781 607.773, 849.273 611.539 C 852.760 615.299, 858.927 615.516, 861.873 611.981 C 863.010 610.616, 863.756 608.970, 863.530 608.323 C 863.304 607.676, 863.767 606.608, 864.559 605.951 C 866.834 604.063, 866.356 600.329, 863.750 599.630 C 860.586 598.782, 860.133 598.875, 854.234 601.569 M 861.034 619.771 C 856.177 623.705, 862.438 630.909, 867.711 627.454 C 869.692 626.156, 870.045 625.315, 869.508 623.175 C 868.156 617.789, 865.032 616.534, 861.034 619.771 M 934.250 630.796 C 931.913 630.971, 930 631.299, 930 631.524 C 930 631.748, 930.765 633.536, 931.699 635.495 C 934.553 641.479, 946.074 645.730, 945.160 640.462 C 944.972 639.383, 944.588 636.813, 944.305 634.750 C 944.021 632.688, 943.275 630.966, 942.645 630.923 C 942.015 630.881, 940.825 630.764, 940 630.662 C 939.175 630.560, 936.587 630.621, 934.250 630.796 M 246.431 678.112 C 245.691 679.308, 247.912 681.172, 249.159 680.402 C 250.094 679.824, 249.093 677, 247.952 677 C 247.493 677, 246.809 677.500, 246.431 678.112 M 123.570 722.887 C 122.661 724.357, 125.907 726.493, 127.155 725.245 C 127.744 724.656, 127.923 723.685, 127.554 723.087 C 126.744 721.777, 124.331 721.655, 123.570 722.887 M 429.200 743.200 C 428.540 743.860, 428 745.345, 428 746.500 C 428 749.388, 429.870 751, 433.221 751 C 436.791 751, 438.812 747.387, 437.068 744.126 C 435.796 741.750, 431.192 741.208, 429.200 743.200 M 1128.278 750.122 C 1126.616 751.784, 1127.885 754, 1130.500 754 C 1131.757 754, 1133.024 753.380, 1133.315 752.622 C 1133.893 751.116, 1132.249 749, 1130.500 749 C 1129.895 749, 1128.895 749.505, 1128.278 750.122 M 1713.571 754.571 C 1711.217 756.926, 1711.624 760.708, 1714.430 762.546 C 1716.662 764.008, 1717.069 764.001, 1719.430 762.454 C 1722.458 760.470, 1722.786 757.021, 1720.171 754.655 C 1717.875 752.577, 1715.595 752.548, 1713.571 754.571 M 328.655 770.829 C 327.745 771.835, 327 773.309, 327 774.106 C 327 776.714, 330.057 780, 332.484 780 C 335.349 780, 339.131 775.572, 338.304 773.186 C 336.845 768.970, 331.515 767.668, 328.655 770.829 M 1028.223 770.557 C 1023.704 773.721, 1026.746 782, 1032.427 782 C 1034.948 782, 1039 777.881, 1039 775.320 C 1039 773.298, 1034.422 769, 1032.268 769 C 1031.265 769, 1029.445 769.701, 1028.223 770.557 M 126 904 C 124.578 906.657, 126.251 909.774, 129.542 910.600 C 133.736 911.653, 136.150 908.161, 134.393 903.582 C 133.472 901.181, 127.345 901.486, 126 904 M 317.245 915.250 C 315.009 918.045, 314.972 920.695, 317.130 923.438 C 318.925 925.720, 319.818 926.086, 322.348 925.580 C 324.027 925.245, 325.754 924.414, 326.185 923.735 C 327.576 921.545, 327.051 917.356, 325.171 915.655 C 323.012 913.701, 318.662 913.479, 317.245 915.250 M 1745.223 917.557 C 1742.003 919.812, 1742.154 925.399, 1745.493 927.587 C 1747.160 928.680, 1748.895 928.992, 1750.733 928.531 C 1754.105 927.685, 1754.965 926.426, 1754.985 922.307 C 1755.001 919.004, 1752.150 916, 1749 916 C 1748.145 916, 1746.445 916.701, 1745.223 917.557 M 727 921.500 C 725.456 923.360, 727.254 926, 730.063 926 C 732.394 926, 733.297 924.512, 732.497 921.991 C 731.751 919.641, 728.764 919.374, 727 921.500 M 1442 958 C 1442 959.646, 1442.518 960.065, 1444.250 959.820 C 1445.487 959.644, 1446.500 958.825, 1446.500 958 C 1446.500 957.175, 1445.487 956.356, 1444.250 956.180 C 1442.518 955.935, 1442 956.354, 1442 958 M 1495.496 972.007 C 1495.153 972.561, 1495.596 973.292, 1496.480 973.631 C 1498.394 974.365, 1499.461 973.556, 1498.541 972.067 C 1497.711 970.723, 1496.306 970.696, 1495.496 972.007 M 581.362 974.500 C 580.486 976.781, 581.711 979, 583.846 979 C 584.896 979, 586.315 978.325, 587 977.500 C 588.565 975.614, 586.733 973, 583.846 973 C 582.796 973, 581.678 973.675, 581.362 974.500 M 197.446 987.087 C 196.474 988.660, 198.575 990.377, 200.545 989.621 C 201.909 989.098, 201.993 988.697, 200.990 987.488 C 199.527 985.725, 198.369 985.594, 197.446 987.087 M 979.750 1017.392 C 977.326 1019.232, 977.442 1024.631, 979.934 1025.965 C 982.782 1027.489, 984.764 1027.236, 986.926 1025.074 C 989.220 1022.780, 988.687 1019.595, 985.653 1017.469 C 983.101 1015.682, 982.022 1015.668, 979.750 1017.392 M 1268.384 1036.442 C 1266.884 1040.351, 1270.544 1044.407, 1273.750 1042.388 C 1277.526 1040.010, 1275.896 1035, 1271.346 1035 C 1270.021 1035, 1268.688 1035.649, 1268.384 1036.442 M 207.073 1066.635 C 205.933 1068.084, 205 1069.720, 205 1070.270 C 205 1071.862, 209.932 1076, 211.829 1076 C 214.921 1076, 218 1073.056, 218 1070.098 C 218 1064.153, 210.816 1061.876, 207.073 1066.635" stroke="none" fill="black" fill-rule="evenodd"/>
	<path fill-opacity="0.729" d="M 0 262.700 C 0 467.022, 0.267 525.133, 1.200 524.200 C 3.037 522.363, 6.808 522.772, 7.965 524.934 C 9.304 527.436, 9.288 527.569, 7.429 529.429 C 5.434 531.423, 3.566 531.423, 1.571 529.429 C 0.143 528, -0 552.955, -0 803.929 L -0 1080.001 960.250 1079.751 L 1920.500 1079.500 1920.749 539.750 L 1920.998 0 960.499 0 L 0 0 0 262.700 M 0.493 263 C 0.493 407.375, 0.608 466.438, 0.750 394.250 C 0.892 322.063, 0.892 203.938, 0.750 131.750 C 0.608 59.563, 0.493 118.625, 0.493 263 M 1022.035 113.934 C 1021.466 114.998, 1021 116.761, 1021 117.851 C 1021 118.941, 1019.763 120.801, 1018.250 121.985 L 1015.500 124.136 1021.063 123.659 C 1029.073 122.974, 1034 120.706, 1034 117.706 C 1034 114.354, 1030.992 112, 1026.706 112 C 1024.135 112, 1022.767 112.566, 1022.035 113.934 M 737.171 117.648 C 737.364 118.654, 738.346 119.636, 739.352 119.829 C 740.673 120.084, 741.084 119.673, 740.829 118.352 C 740.636 117.346, 739.654 116.364, 738.648 116.171 C 737.327 115.916, 736.916 116.327, 737.171 117.648 M 1676 133 C 1676 133.550, 1676.563 134.006, 1677.250 134.014 C 1677.938 134.021, 1679.625 134.271, 1681 134.569 C 1682.818 134.962, 1682.582 134.686, 1680.135 133.555 C 1676.166 131.721, 1676 131.698, 1676 133 M 1846.667 176.667 C 1845.264 178.070, 1846.049 181.881, 1847.859 182.455 C 1850.529 183.303, 1853 182.088, 1853 179.928 C 1853 177.325, 1848.385 174.949, 1846.667 176.667 M 392.250 177.662 C 391.563 177.940, 391 179.164, 391 180.383 C 391 185.364, 397.454 187.023, 398.628 182.344 C 399.566 178.608, 396.139 176.093, 392.250 177.662 M 355.039 182.189 C 352.257 185.175, 352.480 188.614, 355.646 191.548 C 359.301 194.935, 364.181 194.856, 366.927 191.365 C 369.632 187.927, 369.552 184.867, 366.686 182.174 C 363.555 179.234, 357.785 179.241, 355.039 182.189 M 1222.250 207.230 C 1219.519 208.535, 1219.200 213.057, 1221.664 215.521 C 1223.193 217.050, 1228.303 217.031, 1229.844 215.490 C 1230.698 214.635, 1230.371 208.969, 1229.417 208.079 C 1227.745 206.521, 1224.530 206.140, 1222.250 207.230 M 1432.017 216.286 C 1430.651 216.977, 1429.085 218.817, 1428.537 220.375 C 1427.662 222.863, 1427.880 223.500, 1430.326 225.604 C 1435.471 230.030, 1441 227.896, 1441 221.485 C 1441 219.135, 1440.327 217.642, 1438.777 216.557 C 1436.106 214.686, 1435.247 214.651, 1432.017 216.286 M 1366.950 261.560 C 1364.871 264.066, 1366.899 268.426, 1370.329 268.822 C 1371.865 268.999, 1373.769 268.607, 1374.560 267.950 C 1376.310 266.498, 1376.440 262.840, 1374.800 261.200 C 1373.100 259.500, 1368.484 259.712, 1366.950 261.560 M 673.040 276.452 C 671.510 278.295, 672.556 281.692, 675.068 283.036 C 677.792 284.494, 681 282.582, 681 279.500 C 681 275.632, 675.476 273.517, 673.040 276.452 M 960.997 283.503 C 959.340 285.500, 959.410 289.856, 961.125 291.482 C 963.764 293.983, 966.577 294.120, 969.418 291.886 C 971.604 290.166, 972.019 289.214, 971.495 287.124 C 971.134 285.687, 970.370 283.946, 969.797 283.256 C 968.353 281.515, 962.511 281.680, 960.997 283.503 M 1666.845 316.440 C 1664.605 321.358, 1668.672 325.775, 1673.722 323.907 C 1679.539 321.755, 1678.099 314.720, 1671.733 314.190 C 1668.562 313.926, 1667.839 314.259, 1666.845 316.440 M 275 334 C 268.391 340.609, 277.970 350.334, 284.811 343.961 C 287.692 341.278, 287.586 337.495, 284.545 334.455 C 281.572 331.482, 277.703 331.297, 275 334 M 549.400 349.765 C 543.885 353.448, 547.158 362, 554.082 362 C 556.782 362, 560 358.466, 560 355.500 C 560 350.774, 553.310 347.155, 549.400 349.765 M 1181 362.031 C 1181 364.407, 1183.649 365.751, 1185.225 364.175 C 1186.012 363.388, 1185.959 362.656, 1185.035 361.542 C 1183.224 359.360, 1181 359.629, 1181 362.031 M 461.395 369.772 C 458.383 372.244, 457.801 374.715, 459.470 377.942 C 463.019 384.806, 473 382.891, 473 375.346 C 473 369.374, 465.985 366.005, 461.395 369.772 M 78.250 439.662 C 76.417 440.402, 76.726 443.442, 78.829 445.345 C 82.652 448.805, 87.234 446.005, 85.168 441.470 C 84.083 439.088, 81.406 438.389, 78.250 439.662 M 614.189 448.039 C 611.220 450.805, 611.438 454.087, 614.805 457.313 C 618.286 460.648, 620.938 460.714, 624.354 457.548 C 627.655 454.489, 627.715 451.624, 624.545 448.455 C 621.527 445.436, 617.170 445.261, 614.189 448.039 M 276 447.778 C 271.594 449.106, 270.768 454.859, 274.455 458.545 C 277.430 461.521, 280.325 461.675, 283 459 C 287.862 454.138, 282.645 445.774, 276 447.778 M 1593.998 461.505 C 1592.728 464.846, 1594.175 467.755, 1597.527 468.596 C 1602.482 469.840, 1605.797 466.242, 1603.662 461.937 C 1602.762 460.121, 1601.504 459.421, 1598.725 459.190 C 1595.487 458.920, 1594.865 459.224, 1593.998 461.505 M 53.016 511.707 C 50.492 514.916, 50.994 518.611, 54.311 521.228 C 56.900 523.271, 58.368 523.402, 61.316 521.850 C 64.267 520.297, 64.967 519.060, 64.985 515.365 C 65.014 509.284, 56.878 506.797, 53.016 511.707 M 1184.945 517.055 C 1183.391 518.609, 1182.965 520.131, 1183.195 523.305 C 1183.465 527.014, 1183.921 527.706, 1187.139 529.279 C 1191.458 531.391, 1195.088 530.298, 1196.890 526.343 C 1198.629 522.525, 1198.212 519.926, 1195.448 517.365 C 1192.280 514.428, 1187.707 514.293, 1184.945 517.055 M 962.500 517.645 C 960.300 517.827, 954.225 518.917, 949 520.067 C 943.775 521.216, 937.250 522.603, 934.500 523.148 C 931.750 523.693, 928.600 524.513, 927.500 524.969 C 926.400 525.425, 924.038 526.348, 922.250 527.020 C 920.462 527.693, 919 528.811, 919 529.505 C 919 530.199, 921.002 533.692, 923.450 537.266 C 929.493 546.092, 932.001 554.034, 932.712 566.601 C 933.310 577.155, 932.362 583.244, 929.147 589.500 C 928.299 591.150, 927.557 592.950, 927.498 593.500 C 927.143 596.810, 924.724 599.821, 921.112 601.449 C 916.559 603.503, 906.921 603.242, 898.834 600.847 C 892.662 599.019, 885.799 591.638, 881.216 581.901 C 879.172 577.559, 877.199 574.005, 876.830 574.003 C 876.076 574, 876.465 582.325, 877.281 583.646 C 877.571 584.116, 878.074 586.887, 878.399 589.805 C 878.724 592.723, 879.288 596.323, 879.653 597.805 C 881.263 604.347, 887.446 611.141, 895.500 615.220 C 898.800 616.891, 901.800 618.728, 902.167 619.303 C 903.205 620.931, 935.029 620.254, 940.005 618.498 C 942.218 617.718, 944.254 617.095, 944.531 617.115 C 946.413 617.251, 951.624 615.519, 952.765 614.378 C 953.523 613.620, 955.917 613, 958.085 613 C 960.253 613, 962.921 612.550, 964.014 612 C 965.106 611.450, 966.856 610.574, 967.902 610.053 C 968.948 609.532, 972.633 608.372, 976.092 607.476 C 979.550 606.580, 983.982 605.004, 985.940 603.975 C 990.628 601.510, 999.324 593.333, 998.564 592.104 C 997.504 590.389, 999.998 589.781, 1007.965 589.810 C 1016.945 589.843, 1027.335 592.901, 1031.460 596.726 C 1035.548 600.517, 1039.725 601.897, 1043.551 600.723 C 1046.726 599.748, 1046.851 599.509, 1047.251 593.607 C 1047.543 589.315, 1047.184 586.493, 1046.043 584.112 C 1044.062 579.976, 1036.241 570.609, 1033.500 569.088 C 1032.400 568.478, 1030.150 567.150, 1028.500 566.136 C 1026.850 565.122, 1024.938 564.500, 1024.250 564.754 C 1023.563 565.007, 1023 564.716, 1023 564.107 C 1023 563.498, 1022.127 563, 1021.059 563 C 1019.991 563, 1018.840 562.550, 1018.500 562 C 1018.160 561.450, 1017.121 560.997, 1016.191 560.994 C 1013.524 560.986, 1007.579 559.144, 1005.640 557.726 C 1004.667 557.015, 1003.740 555.323, 1003.580 553.966 C 1003.216 550.888, 1000.097 539.019, 999.122 537 C 997.001 532.610, 1001.982 529.179, 1007.724 531.074 C 1011.642 532.367, 1014.940 538.103, 1014.978 543.691 C 1015.002 547.177, 1015.442 547.676, 1019.070 548.340 C 1022.370 548.944, 1029 552.179, 1029 553.185 C 1029 553.633, 1029.624 554, 1030.386 554 C 1031.148 554, 1033.060 554.672, 1034.636 555.494 C 1038.668 557.597, 1039.905 557.380, 1041.050 554.368 C 1042.364 550.912, 1041.588 548.766, 1037.432 544.360 C 1035.545 542.358, 1034 540.333, 1034 539.860 C 1034 539.387, 1033.536 539, 1032.969 539 C 1032.403 539, 1030.518 537.382, 1028.781 535.404 C 1027.045 533.426, 1024.696 531.395, 1023.562 530.891 C 1022.428 530.387, 1020.026 529.084, 1018.225 527.994 C 1014.450 525.710, 1008.278 524.666, 1007.759 526.223 C 1007.565 526.805, 1006.152 526.118, 1004.618 524.697 C 998.654 519.169, 995.312 518.211, 980.391 517.746 C 972.751 517.508, 964.700 517.462, 962.500 517.645 M 0.493 804 C 0.493 956.075, 0.609 1018.287, 0.750 942.250 C 0.891 866.212, 0.891 741.787, 0.750 665.750 C 0.609 589.712, 0.493 651.925, 0.493 804 M 888.760 530.874 C 884.814 535.563, 882.810 542.917, 882.742 552.955 C 882.672 563.405, 884.151 569.346, 888.711 576.927 C 894.675 586.845, 902.982 593, 910.403 593 C 919.891 593, 922.909 588.673, 922.909 575.072 C 922.909 558.914, 918.115 543.980, 909.758 534.105 C 906.854 530.674, 903.388 529.233, 895.919 528.351 C 891.727 527.856, 891.119 528.070, 888.760 530.874 M 1671.223 540.557 C 1668.071 542.764, 1668.270 547.281, 1671.635 549.927 C 1675.049 552.613, 1676.551 552.540, 1679.545 549.545 C 1682.521 546.570, 1682.675 543.675, 1680 541 C 1677.602 538.602, 1674.254 538.433, 1671.223 540.557 M 349.200 578.200 C 347.417 579.983, 347.742 582.457, 350.030 584.527 C 354.313 588.403, 360.552 582.695, 356.482 578.625 C 354.570 576.713, 350.901 576.499, 349.200 578.200 M 862.750 582.689 C 861.788 582.941, 861 583.496, 861 583.923 C 861 584.350, 858.990 584.499, 856.534 584.254 C 850.229 583.624, 838.003 585.827, 837.276 587.724 C 836.955 588.560, 837.481 591.438, 838.446 594.119 C 839.410 596.800, 840.309 600.233, 840.443 601.747 C 841.190 610.193, 842.376 616.067, 843.526 617.021 C 844.594 617.908, 844.595 618.552, 843.531 620.603 C 842.624 622.352, 842.495 624.215, 843.103 626.802 C 843.581 628.836, 843.689 633.785, 843.343 637.800 C 842.947 642.401, 843.124 645.912, 843.822 647.300 C 844.431 648.510, 845.058 650.850, 845.215 652.500 C 845.393 654.373, 846.063 655.500, 847 655.500 C 848.128 655.500, 848.624 653.889, 849 649 L 849.500 642.500 854.500 639.773 C 861.489 635.962, 865.060 636.156, 869.997 640.616 C 872.199 642.605, 874 645.048, 874 646.044 C 874 648.340, 878.654 652.070, 880.592 651.326 C 885 649.635, 885.086 642.880, 880.750 638.915 C 877.843 636.257, 877.489 635.339, 877.398 630.222 C 877.281 623.634, 876.199 618.615, 872.560 607.774 C 870.032 600.243, 869.600 598.320, 868.345 589 C 867.762 584.677, 866.451 581.871, 865.128 582.116 C 864.782 582.180, 863.712 582.438, 862.750 582.689 M 826.132 608.340 C 825.521 609.078, 824.814 614.496, 824.563 620.381 C 824.088 631.501, 825.497 637.678, 829.211 640.760 C 830.512 641.840, 830.700 640.112, 830.731 626.755 C 830.774 608.734, 829.625 604.133, 826.132 608.340 M 995 613.624 C 988.220 616.617, 971.403 622.103, 963 624.062 C 958.325 625.152, 952.886 626.675, 950.914 627.448 C 948.942 628.220, 943.767 628.965, 939.414 629.103 C 935.061 629.242, 930.938 629.548, 930.250 629.784 C 928.311 630.451, 928.766 633.670, 931.385 637.819 C 937.878 648.103, 957.767 646.877, 976.516 635.036 C 983.046 630.913, 984.119 630.323, 992.640 626.167 C 999.881 622.636, 1000.917 621.782, 1002.022 618.432 C 1003.127 615.085, 1003.063 614.519, 1001.441 613.333 C 999.228 611.715, 999.334 611.710, 995 613.624 M 246.104 676.914 C 244.202 678.119, 245.475 681, 247.910 681 C 250.490 681, 251.483 679.287, 249.964 677.456 C 248.569 675.776, 248.024 675.699, 246.104 676.914 M 123.357 722.513 C 122.670 724.302, 124.652 727, 126.654 727 C 128.645 727, 129.457 724.256, 127.989 722.487 C 126.398 720.569, 124.098 720.582, 123.357 722.513 M 428.035 742.934 C 425.618 747.450, 428.239 752, 433.257 752 C 438.432 752, 440.924 746.051, 437.171 742.655 C 434.611 740.338, 429.338 740.499, 428.035 742.934 M 1127.384 749.442 C 1127.080 750.234, 1126.988 751.697, 1127.179 752.692 C 1127.665 755.216, 1133.333 755.225, 1133.819 752.702 C 1134.536 748.977, 1128.698 746.018, 1127.384 749.442 M 1713.223 753.557 C 1710.732 755.301, 1710.248 759.633, 1712.250 762.254 C 1714.359 765.015, 1718.238 765.359, 1720.760 763.009 C 1723.603 760.361, 1723.624 756.659, 1720.811 754.039 C 1718.189 751.596, 1716.202 751.470, 1713.223 753.557 M 1862 764.500 C 1862 765.325, 1862.675 766, 1863.500 766 C 1864.325 766, 1865 765.325, 1865 764.500 C 1865 763.675, 1864.325 763, 1863.500 763 C 1862.675 763, 1862 763.675, 1862 764.500 M 327.557 770.223 C 326.701 771.445, 326 773.265, 326 774.268 C 326 776.744, 330.425 781, 333 781 C 335.461 781, 340 776.785, 340 774.500 C 340 773.625, 338.895 771.805, 337.545 770.455 C 334.374 767.283, 329.692 767.174, 327.557 770.223 M 1027.881 769.007 C 1025.106 770.628, 1023.632 775.443, 1025.080 778.159 C 1027.835 783.330, 1032.868 784.464, 1037.365 780.927 C 1044.367 775.420, 1035.652 764.466, 1027.881 769.007 M 126.750 901.392 C 124.801 902.872, 124.452 907.107, 126.035 910.066 C 127.637 913.059, 133.710 912.732, 135.148 909.574 C 136.685 906.201, 135.528 902.562, 132.477 901.171 C 129.301 899.725, 128.928 899.739, 126.750 901.392 M 316.573 914.570 C 314.076 917.067, 313.595 920.733, 315.402 923.491 C 320.255 930.897, 331.308 924.794, 327.381 916.877 C 325.460 913.004, 319.427 911.716, 316.573 914.570 M 1744.695 916.111 C 1738.732 919.580, 1741.953 929.879, 1749.027 929.968 C 1756.793 930.066, 1759.366 919.310, 1752.343 916.110 C 1749.337 914.741, 1747.049 914.741, 1744.695 916.111 M 726.629 920.514 C 724.597 922.546, 724.586 923.443, 726.571 925.429 C 728.538 927.395, 731.383 927.449, 732.960 925.548 C 734.206 924.046, 733.516 920, 732.014 920 C 731.546 920, 730.510 919.749, 729.711 919.442 C 728.912 919.136, 727.525 919.618, 726.629 920.514 M 1441.333 956.574 C 1440.915 957.663, 1441.352 958.784, 1442.529 959.645 C 1445.554 961.856, 1447.171 961.330, 1446.816 958.250 C 1446.439 954.972, 1442.419 953.743, 1441.333 956.574 M 1495.352 971.524 C 1494.563 973.581, 1496.393 975.447, 1498.433 974.664 C 1500.586 973.838, 1500.397 972.283, 1497.985 970.992 C 1496.386 970.136, 1495.843 970.246, 1495.352 971.524 M 581.200 973.200 C 578.167 976.233, 581.180 980.674, 585.530 979.582 C 588.877 978.742, 589.681 976.410, 587.466 973.963 C 585.451 971.736, 582.966 971.434, 581.200 973.200 M 196.550 986.919 C 195.807 988.121, 198.900 991.199, 200.366 990.716 C 200.990 990.511, 201.644 989.366, 201.820 988.172 C 202.075 986.435, 201.637 986, 199.629 986 C 198.248 986, 196.862 986.414, 196.550 986.919 M 980.315 1016.061 C 977.572 1017.098, 975.806 1020.291, 976.656 1022.678 C 979.507 1030.693, 989.633 1029.222, 988.820 1020.910 C 988.569 1018.344, 987.849 1017.373, 985.500 1016.434 C 983.680 1015.707, 981.640 1015.560, 980.315 1016.061 M 360.229 1026.188 C 360.847 1028.042, 363 1028.349, 363 1026.583 C 363 1025.713, 362.288 1025, 361.417 1025 C 360.546 1025, 360.011 1025.534, 360.229 1026.188 M 1268.200 1035.200 C 1266.012 1037.388, 1266.752 1041.930, 1269.500 1043.182 C 1273.323 1044.924, 1277 1042.902, 1277 1039.057 C 1277 1034.729, 1271.209 1032.191, 1268.200 1035.200 M 207.695 1064.111 C 203.148 1066.756, 203.989 1073.907, 209.096 1076.034 C 212.334 1077.382, 216.740 1076.354, 218.026 1073.951 C 221.525 1067.414, 214.127 1060.369, 207.695 1064.111" stroke="none" fill="black" fill-rule="evenodd"/>
	<path fill-opacity="0.909" d="M 0 261.299 L 0 522.598 3.270 522.217 C 7.155 521.763, 10.343 524.605, 9.830 528.065 C 9.334 531.415, 6.666 532.690, 3.025 531.316 L 0 530.174 0 805.087 L -0 1080.001 960.250 1079.751 L 1920.500 1079.500 1920.747 539.750 L 1920.994 0 960.497 0 L 0 0 0 261.299 M 0.493 262 C 0.493 405.825, 0.608 464.663, 0.750 392.750 C 0.892 320.838, 0.892 203.163, 0.750 131.250 C 0.608 59.338, 0.493 118.175, 0.493 262 M 1024 111.315 C 1020.877 112.726, 1020.035 113.884, 1020.015 116.795 C 1019.998 119.360, 1016.305 123.538, 1013.397 124.282 C 1012.238 124.579, 1012.861 124.859, 1015 125.002 C 1019.773 125.322, 1020.528 125.204, 1028.250 122.930 C 1034.894 120.974, 1035 120.888, 1035 117.494 C 1035 112.170, 1029.252 108.941, 1024 111.315 M 736 117.300 C 736 119.362, 737.998 120.813, 740.084 120.268 C 741.138 119.992, 742 118.919, 742 117.883 C 742 116.457, 741.271 116, 739 116 C 737.205 116, 736 116.522, 736 117.300 M 1672 131.822 C 1672 133.022, 1677.340 134.742, 1683.500 135.527 L 1687.500 136.036 1683 133.933 C 1677.510 131.366, 1672 130.309, 1672 131.822 M 390.632 178.115 C 388.674 180.911, 389.925 184.217, 393.412 185.462 C 398.861 187.407, 402.529 180.884, 397.835 177.597 C 394.732 175.424, 392.399 175.592, 390.632 178.115 M 1845 179.025 C 1845 181.371, 1845.590 182.274, 1847.632 183.050 C 1851.225 184.416, 1854 183.363, 1854 180.633 C 1854 177.504, 1852.149 176, 1848.300 176 C 1845.294 176, 1845 176.269, 1845 179.025 M 354.523 180.566 C 352.155 182.761, 351.830 183.697, 352.278 187.039 C 352.959 192.117, 355.113 194.146, 360.462 194.749 C 372.441 196.099, 373.751 181, 361.861 178.622 C 357.492 177.748, 357.592 177.722, 354.523 180.566 M 1220.200 207.200 C 1218.526 208.874, 1218.703 213.131, 1220.557 215.777 C 1223.657 220.204, 1232 217.687, 1232 212.324 C 1232 208.954, 1228.652 206, 1224.833 206 C 1222.945 206, 1220.860 206.540, 1220.200 207.200 M 1429.073 216.635 C 1425.662 220.971, 1426.700 225.181, 1431.855 227.928 C 1434.758 229.475, 1440.580 228.537, 1441.403 226.391 C 1441.732 225.536, 1442 223.377, 1442 221.593 C 1442 214.666, 1433.258 211.314, 1429.073 216.635 M 1367.236 259.759 C 1362.709 262.765, 1365.653 270, 1371.402 270 C 1375.675 270, 1378.335 267.183, 1377.438 263.608 C 1376.703 260.679, 1376.136 260.186, 1372.203 259.058 C 1370.339 258.524, 1368.762 258.746, 1367.236 259.759 M 672.005 276.491 C 670.960 278.444, 670.924 279.538, 671.840 281.549 C 672.868 283.803, 673.524 284.077, 677.255 283.807 C 681.264 283.517, 681.518 283.314, 681.820 280.161 C 682.385 274.262, 674.730 271.399, 672.005 276.491 M 960.200 282.200 C 958.248 284.152, 958.735 290.450, 960.997 292.497 C 964.892 296.022, 973 293.511, 973 288.779 C 973 286.560, 971.191 282.827, 969.600 281.765 C 967.845 280.593, 961.514 280.886, 960.200 282.200 M 1667.189 314.039 C 1665.035 316.046, 1664.308 320.417, 1665.765 322.600 C 1666.843 324.214, 1670.571 326, 1672.862 326 C 1675.013 326, 1679 321.640, 1679 319.288 C 1679 317.199, 1673.482 312, 1671.265 312 C 1670.227 312, 1668.392 312.918, 1667.189 314.039 M 274.296 332.750 C 271.541 335.149, 270.747 338.205, 272.014 341.536 C 274.096 347.013, 279.533 348.570, 285.096 345.284 C 287.497 343.866, 288 342.906, 288 339.739 C 288 332.473, 279.559 328.168, 274.296 332.750 M 546.264 351.572 C 544.635 354.988, 544.647 355.303, 546.531 358.822 C 548.304 362.133, 548.954 362.530, 553.053 362.797 C 558.114 363.127, 560.333 361.550, 561.524 356.775 C 562.561 352.622, 557.577 348, 552.061 348 C 548.352 348, 547.808 348.335, 546.264 351.572 M 1179.461 361.063 C 1178.694 362.304, 1181.743 366, 1183.533 366 C 1184.205 366, 1185.315 365.325, 1186 364.500 C 1186.993 363.303, 1186.993 362.697, 1186 361.500 C 1184.565 359.771, 1180.430 359.495, 1179.461 361.063 M 462.823 367.709 C 459.259 368.254, 457.825 370.182, 457.700 374.596 C 457.617 377.541, 458.240 378.825, 460.914 381.215 C 463.769 383.766, 464.739 384.084, 467.866 383.500 C 472.993 382.542, 474 381.366, 474 376.332 C 474 372.969, 473.412 371.321, 471.545 369.455 C 469.143 367.052, 468.266 366.876, 462.823 367.709 M 77.394 439.416 C 77.095 440.194, 76.997 442.098, 77.175 443.647 C 77.564 447.018, 81.985 449.149, 84.803 447.324 C 86.828 446.012, 86.852 440.155, 84.838 438.879 C 82.706 437.527, 77.988 437.867, 77.394 439.416 M 617 444.706 C 613.900 445.839, 611 449.412, 611 452.098 C 611 453.620, 612.196 456.267, 613.679 458.031 C 616.088 460.893, 616.770 461.160, 620.419 460.671 C 625.597 459.976, 628.209 456.946, 627.800 452.110 C 627.568 449.364, 626.733 448.049, 624.102 446.282 C 620.639 443.956, 619.651 443.737, 617 444.706 M 272.551 448.369 C 269.692 450.657, 269.640 450.854, 270.830 454.828 C 272.756 461.256, 277.539 463.534, 283.453 460.839 C 287.483 459.003, 287.342 451.677, 283.211 448.255 C 279.728 445.370, 276.253 445.407, 272.551 448.369 M 1595.400 457.765 C 1593.925 458.750, 1592 462.504, 1592 464.395 C 1592 466.974, 1596.138 470, 1599.666 470 C 1606.391 470, 1607.745 461.531, 1601.495 458.564 C 1597.807 456.815, 1596.985 456.707, 1595.400 457.765 M 53.500 508.765 C 51.893 509.946, 50 513.811, 50 515.910 C 50 519.353, 54.806 524.003, 58.339 523.978 C 65.692 523.926, 69.080 515.908, 64.023 510.525 C 61.659 508.008, 55.853 507.037, 53.500 508.765 M 1184.250 515.306 C 1182.323 516.306, 1182.005 517.266, 1182.031 521.987 C 1182.059 526.809, 1182.402 527.748, 1184.771 529.477 C 1191.325 534.263, 1200.935 529.796, 1199.583 522.592 C 1198.569 517.187, 1196.090 514.852, 1190.961 514.470 C 1188.507 514.287, 1185.487 514.663, 1184.250 515.306 M 966.039 516.210 C 960.286 516.641, 952.294 517.896, 948.278 518.997 C 944.263 520.099, 939.705 521, 938.149 521 C 934.278 521, 918.899 526.429, 917.946 528.132 C 917.040 529.752, 919.426 536, 920.952 536 C 921.528 536, 922 536.605, 922 537.345 C 922 538.085, 922.900 539.505, 924 540.500 C 925.100 541.495, 926 543.103, 926 544.072 C 926 545.041, 926.412 545.983, 926.917 546.167 C 928.525 546.752, 931 561.611, 931 570.687 C 931 577.634, 930.464 580.917, 928.420 586.479 C 924.660 596.711, 923.891 598.004, 920.535 599.745 C 916.678 601.746, 905.035 601.629, 899.084 599.530 C 895.326 598.204, 886.720 592, 888.640 592 C 889.030 592, 888.419 590.987, 887.283 589.750 C 886.146 588.513, 884.252 585.250, 883.073 582.500 C 881.894 579.750, 880.553 576.810, 880.092 575.967 C 879.631 575.124, 878.931 572.962, 878.535 571.162 C 878.028 568.851, 877.329 567.984, 876.158 568.213 C 873.739 568.686, 874.058 577.955, 876.959 591.500 C 879.983 605.619, 883.056 610.174, 893 615.278 C 895.475 616.549, 898.809 618.455, 900.409 619.514 C 902.869 621.141, 905.343 621.465, 916.409 621.606 C 933.782 621.828, 944.639 620.379, 951.281 616.951 C 953.360 615.878, 956.609 615, 958.500 615 C 960.392 615, 963.415 614.186, 965.220 613.192 C 967.024 612.198, 971.200 610.805, 974.500 610.097 C 982.105 608.466, 988.762 605.448, 992.124 602.107 C 993.567 600.673, 996.096 598.324, 997.745 596.886 C 999.394 595.448, 1000.934 593.697, 1001.168 592.995 C 1001.876 590.871, 1024 591.888, 1024 594.044 C 1024 594.496, 1025.013 595.185, 1026.250 595.576 C 1027.487 595.967, 1029.029 597.038, 1029.675 597.956 C 1031.556 600.626, 1041.409 603.590, 1044.191 602.323 C 1045.461 601.744, 1046.932 601.243, 1047.461 601.209 C 1049.017 601.110, 1049.855 597.892, 1049.930 591.729 C 1050.003 585.738, 1047.561 580.436, 1042.430 575.445 C 1041.268 574.315, 1039.909 572.735, 1039.409 571.935 C 1037.637 569.100, 1025.872 562, 1022.945 562 C 1021.940 562, 1020.840 561.550, 1020.500 561 C 1020.160 560.450, 1019.002 560, 1017.927 560 C 1016.852 560, 1015.191 559.577, 1014.236 559.060 C 1013.281 558.544, 1011.279 557.864, 1009.786 557.550 C 1007.597 557.090, 1006.862 556.159, 1005.990 552.740 C 1005.394 550.408, 1004.028 545.612, 1002.954 542.082 C 1001.879 538.551, 1001 535.094, 1001 534.399 C 1001 532.818, 1004.401 531.675, 1006.820 532.443 C 1009.186 533.194, 1012 539.156, 1012 543.419 C 1012 547.491, 1012.945 548.169, 1026.750 554.011 C 1032.388 556.396, 1037 558.671, 1037 559.067 C 1037 559.462, 1037.698 560.054, 1038.552 560.382 C 1039.406 560.709, 1039.858 560.579, 1039.558 560.093 C 1039.257 559.607, 1039.658 558.962, 1040.447 558.659 C 1041.237 558.355, 1042.636 556.959, 1043.556 555.555 C 1045.124 553.162, 1045.119 552.767, 1043.480 549.251 C 1042.518 547.188, 1041.004 544.799, 1040.116 543.943 C 1039.227 543.086, 1037.375 541.061, 1036 539.443 C 1032.270 535.052, 1025.022 529.439, 1020.500 527.439 C 1014.730 524.887, 1008 523.155, 1008 524.223 C 1008 524.725, 1006.601 524.093, 1004.890 522.818 C 997.852 517.572, 994.135 515.994, 988.512 515.864 C 985.442 515.793, 982.688 515.979, 982.390 516.276 C 982.093 516.574, 980.646 516.504, 979.175 516.121 C 977.704 515.739, 971.793 515.779, 966.039 516.210 M 889.735 528.103 C 884.138 530.277, 880.787 543.034, 881.751 558.494 C 882.212 565.875, 882.840 568.466, 885.265 572.991 C 886.889 576.021, 888.855 579.694, 889.634 581.153 C 890.797 583.333, 895.592 588.042, 901.555 592.862 C 903.714 594.607, 912.175 595.169, 916.602 593.862 C 920.336 592.760, 921.298 591.899, 923.115 588.034 C 925.041 583.940, 925.195 582.336, 924.702 571.500 C 924.347 563.716, 923.467 557.338, 922.198 553.347 C 919.812 545.841, 913.834 535.659, 909.184 531.181 C 906.133 528.243, 904.978 527.814, 899.119 527.445 C 895.478 527.216, 891.256 527.512, 889.735 528.103 M 0.493 805 C 0.493 956.525, 0.609 1018.513, 0.750 942.750 C 0.891 866.988, 0.891 743.013, 0.750 667.250 C 0.609 591.488, 0.493 653.475, 0.493 805 M 1669.750 539.893 C 1665.353 544.351, 1669.403 552, 1676.159 552 C 1680.470 552, 1683 549.502, 1683 545.244 C 1683 539.284, 1673.954 535.631, 1669.750 539.893 M 347.667 576.667 C 347.300 577.033, 347 578.823, 347 580.644 C 347 584.826, 350.601 587.568, 354.733 586.531 C 362.048 584.695, 359.658 576, 351.838 576 C 349.910 576, 348.033 576.300, 347.667 576.667 M 861.861 581.473 C 861.428 581.905, 856.781 582.384, 842.082 583.510 C 834.415 584.098, 833.510 586.145, 837 595 C 838.323 598.356, 839 602.432, 839 607.037 C 839 611.392, 839.408 614, 840.089 614 C 840.815 614, 841.020 616.314, 840.704 620.949 C 840.444 624.770, 840.516 628.184, 840.865 628.535 C 841.214 628.885, 841.569 633.071, 841.654 637.836 C 841.929 653.327, 843.482 657.934, 847.952 656.515 C 849.415 656.051, 850.031 654.956, 850.107 652.683 C 850.351 645.431, 850.562 644.232, 851.872 642.653 C 852.627 641.744, 853.810 641, 854.500 641 C 855.190 641, 856.315 640.325, 857 639.500 C 857.721 638.632, 859.902 638, 862.179 638 C 865.335 638, 866.695 638.637, 869.056 641.223 C 870.675 642.995, 872 644.883, 872 645.418 C 872 645.953, 873.209 647.653, 874.687 649.195 C 878.420 653.091, 882.436 652.991, 884.526 648.950 C 886.291 645.537, 885.873 643.327, 882.456 638.013 C 881.211 636.076, 879.692 631.360, 879.070 627.500 C 878.450 623.650, 876.444 615.775, 874.611 610 C 872.779 604.225, 870.753 596.144, 870.108 592.043 C 869.463 587.942, 868.205 583.779, 867.313 582.793 C 865.789 581.110, 862.919 580.414, 861.861 581.473 M 826.200 600.632 C 826.200 602.626, 825.748 604.538, 825.196 604.879 C 824.644 605.221, 823.922 607.750, 823.592 610.500 C 823.262 613.250, 822.568 617.289, 822.051 619.475 C 821.415 622.157, 821.451 623.661, 822.161 624.100 C 822.887 624.548, 822.870 624.962, 822.107 625.434 C 820.789 626.249, 820.665 629.344, 821.853 631.764 C 822.322 632.719, 823.559 635.267, 824.603 637.426 C 827.080 642.553, 828.614 644, 831.571 644 C 833.937 644, 834.003 643.786, 834.118 635.750 C 834.184 631.212, 834.101 627.050, 833.935 626.500 C 833.769 625.950, 833.510 622.800, 833.359 619.500 C 833.208 616.200, 832.610 611.574, 832.031 609.221 C 831.451 606.867, 831.228 603.939, 831.536 602.714 C 831.967 600.997, 831.420 600.089, 829.147 598.746 L 826.200 597.005 826.200 600.632 M 994 611.614 C 987.488 614.471, 967.542 620.806, 960.425 622.279 C 956.534 623.084, 952.358 624.273, 951.145 624.922 C 948.269 626.461, 944.143 627.188, 935.249 627.723 C 928.605 628.122, 927.948 628.358, 927.399 630.548 C 926.297 634.936, 932.568 642.741, 938.899 644.861 C 943.185 646.297, 955.242 646.327, 960.500 644.914 C 965.721 643.512, 976.124 638.494, 979.023 635.980 C 980.279 634.891, 981.864 634, 982.546 634 C 983.228 634, 984.045 633.325, 984.362 632.500 C 984.678 631.675, 985.507 631, 986.203 631 C 987.796 631, 998.384 625.760, 998.833 624.750 C 999.017 624.337, 999.771 624, 1000.510 624 C 1002.150 624, 1005 618.544, 1005 615.403 C 1005 612.999, 1001.630 609.972, 999.027 610.039 C 998.187 610.061, 995.925 610.769, 994 611.614 M 244 677.800 C 244 680.247, 245.937 682, 248.641 682 C 251.370 682, 252.338 680.641, 251.497 677.991 C 250.629 675.254, 244 675.085, 244 677.800 M 122.667 720.667 C 120.466 722.867, 123.536 728, 127.052 728 C 129.853 728, 130.883 723.119, 128.456 721.344 C 126.484 719.902, 123.751 719.582, 122.667 720.667 M 427.571 741.571 C 425.387 743.755, 425.608 748.608, 428 751 C 430.185 753.185, 433.450 753.540, 437.435 752.025 C 439.519 751.232, 440 750.388, 440 747.525 C 440 742.932, 437.105 740, 432.571 740 C 430.686 740, 428.436 740.707, 427.571 741.571 M 1126.667 748.667 C 1125.483 749.851, 1125.959 753.721, 1127.440 754.950 C 1129.848 756.949, 1134.450 755.856, 1134.827 753.195 C 1135.006 751.927, 1134.614 750.240, 1133.954 749.445 C 1132.734 747.974, 1127.878 747.455, 1126.667 748.667 M 1711.200 753.200 C 1710.540 753.860, 1710 756.077, 1710 758.127 C 1710 764.466, 1716.652 768.033, 1721.777 764.443 C 1724.637 762.440, 1724.869 756.096, 1722.171 753.655 C 1720.035 751.721, 1712.971 751.429, 1711.200 753.200 M 1861 763.871 C 1861 766.310, 1862.259 767.222, 1864.459 766.377 C 1866.772 765.490, 1865.922 762.563, 1863.240 762.180 C 1861.557 761.940, 1861 762.361, 1861 763.871 M 329.009 767.893 C 326.096 768.703, 324.427 772.580, 325.371 776.341 C 326.261 779.887, 331.030 782.273, 335.539 781.427 C 339.478 780.688, 339.519 780.645, 340.432 776.386 C 340.967 773.889, 340.576 772.650, 338.461 770.136 C 335.809 766.984, 333.900 766.531, 329.009 767.893 M 1028.728 767.718 C 1024.956 768.288, 1023.005 771.593, 1023.838 776 C 1024.962 781.943, 1026.252 783.223, 1031.615 783.721 C 1038.099 784.323, 1041.003 781.843, 1040.993 775.711 C 1040.987 772.070, 1040.539 771.196, 1037.681 769.250 C 1035.864 768.013, 1033.729 767.067, 1032.938 767.150 C 1032.147 767.232, 1030.253 767.488, 1028.728 767.718 M 124.154 902.987 C 121.951 909.306, 126.711 914.233, 133.217 912.367 C 137.769 911.061, 139.153 907.025, 136.343 903.248 C 134.725 901.073, 133.354 900.437, 129.765 900.200 C 125.492 899.917, 125.169 900.078, 124.154 902.987 M 315.665 913.454 C 314.656 914.219, 313.594 916.609, 313.305 918.766 C 312.594 924.060, 316.258 928, 321.890 928 C 326.417 928, 328.842 925.748, 329.645 920.799 C 330.130 917.814, 329.778 916.991, 327.026 914.675 C 323.494 911.704, 318.660 911.184, 315.665 913.454 M 1743.736 915.250 C 1741.488 916.957, 1740.011 921.289, 1740.704 924.143 C 1741.762 928.503, 1744.973 931, 1749.519 931 C 1754.992 931, 1757 928.784, 1757 922.744 C 1757 918.967, 1756.529 917.775, 1754.365 916.073 C 1751.417 913.753, 1746.235 913.352, 1743.736 915.250 M 725.557 920.223 C 723.553 923.083, 723.592 923.592, 726 926 C 728.409 928.409, 733.531 928.664, 734.393 926.418 C 735.430 923.715, 735.074 922.074, 733 920 C 730.377 917.377, 727.489 917.464, 725.557 920.223 M 1440.667 954.667 C 1438.091 957.242, 1442.447 962.607, 1446.324 961.634 C 1448.318 961.133, 1448.641 960.558, 1448.215 958.265 C 1447.933 956.744, 1447.207 955.169, 1446.601 954.765 C 1445.218 953.843, 1441.552 953.782, 1440.667 954.667 M 1494.184 972.750 C 1494.432 974.912, 1495.090 975.568, 1497.256 975.817 C 1499.061 976.025, 1500.220 975.589, 1500.618 974.554 C 1501.461 972.357, 1499.232 970, 1496.311 970 C 1494.235 970, 1493.915 970.414, 1494.184 972.750 M 580.750 972.080 C 577.199 974.148, 579.389 981, 583.601 981 C 589.641 981, 591.738 977.243, 587.961 973.189 C 585.755 970.821, 583.506 970.475, 580.750 972.080 M 196.177 987.681 C 196.451 990.075, 196.953 990.500, 199.500 990.500 C 202.033 990.500, 202.500 990.111, 202.500 988 C 202.500 985.899, 201.970 985.449, 199.177 985.181 C 196.061 984.882, 195.874 985.038, 196.177 987.681 M 977.943 1015.845 C 974.865 1018.337, 974.977 1024.712, 978.143 1027.300 C 983.294 1031.511, 992.150 1026.718, 990.603 1020.556 C 989.929 1017.868, 984.781 1014.010, 981.861 1014.004 C 980.959 1014.002, 979.196 1014.830, 977.943 1015.845 M 359 1025.378 C 359 1027.223, 361.651 1029.334, 362.956 1028.527 C 363.530 1028.172, 364 1027.009, 364 1025.941 C 364 1024.537, 363.308 1024, 361.500 1024 C 360.043 1024, 359 1024.575, 359 1025.378 M 1267.200 1034.200 C 1265.925 1035.475, 1265.605 1039.808, 1266.597 1042.391 C 1267.552 1044.880, 1273.703 1045.579, 1276.040 1043.464 C 1278.503 1041.234, 1278.569 1036.825, 1276.171 1034.655 C 1274.040 1032.726, 1268.933 1032.467, 1267.200 1034.200 M 205.455 1064.455 C 202.588 1067.321, 202.342 1070.633, 204.772 1073.633 C 210.448 1080.640, 220 1078.622, 220 1070.416 C 220 1065.627, 216.336 1062, 211.500 1062 C 209.021 1062, 207.149 1062.760, 205.455 1064.455" stroke="none" fill="black" fill-rule="evenodd"/>
</svg>