<svg xmlns="http://www.w3.org/2000/svg" width="1920" height="1080" viewBox="0 0 1920 1080" version="1.1">
	<path fill-opacity="0.325" d="M -0 540.001 L -0 1080.001 960.250 1079.751 L 1920.500 1079.500 1920.751 539.750 L 1921.002 0 960.501 0 L 0 0 -0 540.001 M 0.496 540.500 C 0.496 837.500, 0.610 958.851, 0.750 810.168 C 0.890 661.485, 0.890 418.485, 0.750 270.168 C 0.610 121.851, 0.496 243.500, 0.496 540.500 M 1084 355.512 C 1084 356.716, 1083.185 356.893, 1080 356.384 C 1075.762 355.706, 1075.107 356.350, 1077.421 358.921 C 1080.104 361.902, 1084 370.793, 1084 373.935 C 1084 381.957, 1075.204 391.092, 1069.500 388.993 C 1066.771 387.989, 1036.463 389.607, 1031.500 391.022 C 1024.933 392.894, 1019.013 394.947, 1016.172 396.336 C 1014.538 397.135, 1012.335 397.369, 1010.500 396.939 C 1008.850 396.553, 1007.898 396.183, 1008.385 396.118 C 1008.872 396.053, 1007.972 394.996, 1006.385 393.768 C 1004.798 392.541, 1003.350 391.191, 1003.167 390.768 C 1002.404 389.011, 1001 390.187, 1001 392.583 C 1001 399.090, 996.017 391.435, 994.436 382.500 C 993.538 377.422, 993.880 368.778, 995.026 367.599 C 995.508 367.103, 997.529 366.599, 999.516 366.478 C 1001.979 366.329, 1003.638 365.533, 1004.725 363.982 C 1006.266 361.782, 1006.239 361.726, 1003.910 362.305 C 996.022 364.267, 996 364.268, 996 362.608 C 996 359.662, 992.545 362.876, 990.188 368.015 C 988.543 371.600, 988 374.685, 988 380.441 C 988 391.311, 990.123 395.032, 1000.649 402.606 C 1007.474 407.518, 1007.991 408.341, 1008.020 414.332 C 1008.073 425.403, 1017.106 449.387, 1023.131 454.457 C 1026.405 457.211, 1028.390 457.247, 1025.645 454.503 C 1023.126 451.983, 1021.778 445.214, 1022.154 436.965 C 1022.524 428.827, 1022.613 428.664, 1029.500 423.502 C 1035.239 419.200, 1041.485 416.522, 1051.569 414.040 C 1059.548 412.075, 1061.226 411.975, 1068.950 412.996 C 1073.653 413.618, 1077.928 414.549, 1078.450 415.064 C 1080.001 416.593, 1084 416.170, 1084 414.478 C 1084 413.640, 1082.355 408.933, 1080.345 404.017 C 1077.321 396.624, 1076.908 394.815, 1077.958 393.551 C 1078.656 392.710, 1079.629 392.271, 1080.120 392.574 C 1080.612 392.878, 1081.312 392.311, 1081.675 391.313 C 1082.039 390.316, 1083.662 387.545, 1085.282 385.155 C 1087.881 381.320, 1088.178 380.140, 1087.813 375.095 C 1087.581 371.890, 1086.433 367.526, 1085.200 365.159 C 1082.472 359.925, 1082.468 360, 1085.500 360 C 1088.237 360, 1088.953 357.353, 1086.800 355.200 C 1085.163 353.563, 1084 353.693, 1084 355.512 M 999.200 386.200 C 997.567 387.833, 997.692 389, 999.500 389 C 1000.333 389, 1001 388.111, 1001 387 C 1001 384.669, 1000.814 384.586, 999.200 386.200 M 1028 456.755 C 1028 457.305, 1028.675 458.315, 1029.500 459 C 1030.337 459.694, 1031 459.803, 1031 459.245 C 1031 458.695, 1030.325 457.685, 1029.500 457 C 1028.663 456.306, 1028 456.197, 1028 456.755 M 995.500 462 C 996.600 462.473, 998.175 462.884, 999 462.914 C 1000.333 462.963, 1000.333 462.862, 999 462 C 998.175 461.467, 996.600 461.055, 995.500 461.086 L 993.500 461.141 995.500 462 M 994 477 C 993.175 477.533, 992.950 477.969, 993.500 477.969 C 994.050 477.969, 995.175 477.533, 996 477 C 996.825 476.467, 997.050 476.031, 996.500 476.031 C 995.950 476.031, 994.825 476.467, 994 477 M 985.924 482.636 C 983.694 485.060, 983.671 485.183, 985.632 484.163 C 986.805 483.554, 988.029 482.368, 988.351 481.528 C 989.169 479.396, 988.713 479.604, 985.924 482.636 M 992.861 496.914 C 991.562 497.967, 990.725 499.003, 991 499.218 C 991.275 499.433, 992.584 498.571, 993.908 497.304 C 996.825 494.514, 996.137 494.258, 992.861 496.914 M 940 519 C 940 520.274, 944.029 520.274, 946 519 C 947.116 518.279, 946.539 518.027, 943.750 518.015 C 941.688 518.007, 940 518.450, 940 519 M 978.813 534.683 C 979.534 534.972, 980.397 534.936, 980.729 534.604 C 981.061 534.272, 980.471 534.036, 979.417 534.079 C 978.252 534.127, 978.015 534.364, 978.813 534.683 M 1063 561.469 C 1063 562.363, 1063.586 562.712, 1064.500 562.362 C 1065.325 562.045, 1066 561.384, 1066 560.893 C 1066 560.402, 1065.325 560, 1064.500 560 C 1063.675 560, 1063 560.661, 1063 561.469 M 1106.500 575 C 1106.840 575.550, 1107.316 576, 1107.559 576 C 1107.802 576, 1108 575.550, 1108 575 C 1108 574.450, 1107.523 574, 1106.941 574 C 1106.359 574, 1106.160 574.450, 1106.500 575 M 1134 667 C 1134 667.550, 1134.648 668, 1135.441 668 C 1136.234 668, 1137.160 667.550, 1137.500 667 C 1137.840 666.450, 1137.191 666, 1136.059 666 C 1134.927 666, 1134 666.450, 1134 667 M 1080 695.500 C 1080 696.325, 1080.661 697, 1081.469 697 C 1082.363 697, 1082.712 696.414, 1082.362 695.500 C 1082.045 694.675, 1081.384 694, 1080.893 694 C 1080.402 694, 1080 694.675, 1080 695.500 M 997.500 731.939 C 994.771 732.577, 994.952 732.688, 999.500 733.160 C 1002.911 733.514, 1004.965 733.254, 1005.964 732.340 C 1007.213 731.197, 1006.918 731.017, 1003.964 731.118 C 1002.059 731.183, 999.150 731.553, 997.500 731.939 M 959 756.275 C 959 756.709, 957.987 757.496, 956.750 758.023 C 955.152 758.703, 956.239 758.806, 960.500 758.377 C 968.042 757.617, 969.617 756.330, 963.592 755.851 C 961.066 755.650, 959 755.841, 959 756.275 M 969.250 756.250 C 969.478 756.938, 970.514 757.664, 971.551 757.865 C 973.182 758.181, 973.256 758.013, 972.096 756.615 C 970.510 754.704, 968.656 754.466, 969.250 756.250 M 1021 773.950 C 1022.375 775.053, 1024.152 775.966, 1024.950 775.978 C 1026.880 776.007, 1025.267 774.691, 1021.500 773.163 L 1018.500 771.945 1021 773.950 M 1012.563 787.102 C 1013.331 788.344, 1019.260 791.006, 1021.218 790.988 C 1021.923 790.981, 1020.542 789.856, 1018.148 788.488 C 1013.489 785.824, 1011.463 785.322, 1012.563 787.102 M 1027 793.012 C 1028.863 794.201, 1031.710 794.279, 1032.401 793.161 C 1032.686 792.699, 1031.250 792.261, 1029.210 792.188 C 1026.502 792.091, 1025.905 792.314, 1027 793.012 M 1008.750 800.662 C 1009.438 800.940, 1010.563 800.940, 1011.250 800.662 C 1011.938 800.385, 1011.375 800.158, 1010 800.158 C 1008.625 800.158, 1008.063 800.385, 1008.750 800.662 M 1031.559 807.532 C 1030.491 808.339, 1030.068 809, 1030.618 809 C 1031.168 809, 1032.491 808.339, 1033.559 807.532 C 1034.626 806.724, 1035.050 806.064, 1034.500 806.064 C 1033.950 806.064, 1032.626 806.724, 1031.559 807.532 M 1055.631 810.365 C 1054.734 812.256, 1054 815.590, 1054 817.775 C 1054 819.961, 1053.326 823.658, 1052.503 825.992 C 1051.680 828.325, 1050.581 832.871, 1050.063 836.092 C 1049.226 841.287, 1049.395 842.627, 1051.560 847.955 C 1052.902 851.258, 1054 854.411, 1054 854.962 C 1054 855.513, 1051.490 858.335, 1048.422 861.232 C 1034.286 874.584, 1034.928 887.246, 1050.500 902.208 C 1052.214 903.855, 1052.546 903.906, 1052.823 902.565 C 1053.200 900.741, 1054.373 900.594, 1057.066 902.035 C 1058.374 902.735, 1059 902.740, 1059 902.049 C 1059 901.487, 1057.371 900.346, 1055.379 899.514 C 1047.704 896.307, 1044 890.089, 1044 880.410 C 1044 870.728, 1048.591 872.917, 1049.932 883.238 C 1050.685 889.026, 1050.755 889.160, 1050.862 885 C 1051.039 878.134, 1049.978 873.071, 1048.483 873.645 C 1046.729 874.318, 1045.514 872.086, 1046.887 870.713 C 1047.704 869.896, 1048 869.932, 1048 870.848 C 1048 871.572, 1049.885 870.799, 1052.489 869.007 C 1056.153 866.487, 1057.346 866.115, 1058.975 866.987 C 1060.073 867.574, 1062.890 868.304, 1065.235 868.608 C 1067.581 868.913, 1071.719 869.801, 1074.432 870.581 C 1081.374 872.579, 1090.047 872.353, 1096.740 870 C 1099.870 868.900, 1103.710 868, 1105.273 868 C 1108.870 868, 1117.115 866.012, 1118.720 864.758 C 1119.411 864.218, 1122.143 864.107, 1125.012 864.502 C 1135.360 865.925, 1138.983 872.946, 1134.293 882.490 C 1132.945 885.234, 1131.540 887.709, 1131.171 887.990 C 1129.996 888.883, 1126.892 896.226, 1127.453 896.786 C 1127.749 897.082, 1129.116 896.813, 1130.490 896.186 C 1131.865 895.560, 1134.252 895.300, 1135.795 895.609 C 1138.088 896.068, 1138.806 895.722, 1139.719 893.718 C 1140.821 891.299, 1140.778 891.270, 1136.418 891.562 C 1133.988 891.724, 1132 891.635, 1132 891.363 C 1132 890.269, 1134.411 886.470, 1136.608 884.100 C 1140.452 879.954, 1141.087 866.738, 1137.508 865.365 C 1136.748 865.073, 1136.322 864.309, 1136.562 863.667 C 1136.801 863.025, 1134.298 860.763, 1130.999 858.640 C 1125.211 854.916, 1124.686 854.272, 1124.760 851 C 1124.801 849.161, 1127.680 838.326, 1128.465 837.057 C 1129.491 835.397, 1127.257 834.985, 1125.926 836.589 C 1123.112 839.979, 1114.660 843.347, 1109 843.332 C 1103.327 843.317, 1083.714 841.572, 1073.978 840.214 C 1067.533 839.316, 1061.247 835.779, 1059.927 832.308 C 1058.568 828.733, 1058.766 823.003, 1060.250 822.985 C 1061.080 822.975, 1060.996 822.651, 1060 822.021 C 1059.175 821.500, 1058.468 820.719, 1058.429 820.286 C 1058.389 819.854, 1057.764 818.283, 1057.039 816.795 C 1055.963 814.588, 1055.955 813.523, 1056.995 811.013 C 1058.773 806.719, 1057.621 806.172, 1055.631 810.365 M 1052.015 890.750 C 1052.007 891.987, 1052.450 893, 1053 893 C 1054.253 893, 1054.253 891.939, 1053 890 C 1052.216 888.787, 1052.028 888.931, 1052.015 890.750" stroke="none" fill="black" fill-rule="evenodd"/>
	<path fill-opacity="0.175" d="M -0 540.001 L -0 1080.001 960.250 1079.751 L 1920.500 1079.500 1920.751 539.750 L 1921.002 0 960.501 0 L 0 0 -0 540.001 M 0.496 540.500 C 0.496 837.500, 0.610 958.851, 0.750 810.168 C 0.890 661.485, 0.890 418.485, 0.750 270.168 C 0.610 121.851, 0.496 243.500, 0.496 540.500 M 1083.346 354.542 C 1082.875 355.767, 1081.933 356.023, 1079.539 355.573 C 1077.789 355.245, 1076.078 355.256, 1075.737 355.597 C 1075.395 355.938, 1076.672 358.478, 1078.572 361.242 C 1082.749 367.313, 1083.390 369.594, 1082.760 376.150 C 1082.370 380.203, 1081.606 381.861, 1078.862 384.604 L 1075.449 388.017 1055.975 388.346 C 1038.140 388.648, 1035.742 388.906, 1027.500 391.414 C 1022.550 392.920, 1017.467 394.817, 1016.204 395.629 C 1013.390 397.439, 1010.472 396.678, 1006.658 393.138 C 998.676 385.728, 997.864 374.424, 1004.666 365.406 C 1006.854 362.504, 1007.685 360, 1006.460 360 C 1006.163 360, 1004.103 360.927, 1001.882 362.060 L 997.844 364.120 997.305 362.060 C 996.617 359.429, 995.837 359.466, 993.291 362.250 C 989.007 366.935, 987.600 371.170, 987.549 379.529 C 987.475 391.649, 989.208 394.412, 1004.358 406.334 C 1006.735 408.204, 1007.280 409.477, 1007.588 413.884 C 1008.018 420.012, 1012.460 437.525, 1015.097 443.487 C 1021.755 458.538, 1036.494 465.876, 1054.340 463.025 C 1073.326 459.993, 1081.869 452.131, 1083.999 435.732 C 1085.945 420.753, 1085.165 413.712, 1080.399 403.220 C 1077.582 397.022, 1077.330 395.199, 1079.541 397.034 C 1082.776 399.719, 1091.708 388.128, 1093.975 378.304 C 1094.987 373.915, 1094.914 372.208, 1093.498 367.304 C 1090.697 357.599, 1084.946 350.370, 1083.346 354.542 M 1072.731 427.288 C 1062.090 429.884, 1059.555 453.833, 1069.817 454.818 C 1079.643 455.761, 1086.596 432.430, 1078.023 427.283 C 1077.102 426.731, 1075.009 426.733, 1072.731 427.288 M 1030.303 432.197 C 1023.431 435.517, 1023.320 450.518, 1030.121 456.642 C 1034.004 460.138, 1038.526 460.583, 1042.500 457.860 C 1046.669 455.003, 1048 452.235, 1048 446.421 C 1048 434.859, 1039.287 427.856, 1030.303 432.197 M 998 455.972 C 996.875 456.720, 997.500 456.974, 1000.500 456.988 C 1002.742 456.999, 1005.978 457.908, 1007.863 459.058 C 1009.712 460.185, 1011.424 460.910, 1011.665 460.668 C 1012.386 459.947, 1006.865 456.001, 1005.115 455.986 C 1004.227 455.979, 1002.600 455.748, 1001.500 455.473 C 1000.400 455.199, 998.825 455.423, 998 455.972 M 1012.500 457 C 1012.840 457.550, 1014.666 458, 1016.559 458 C 1018.452 458, 1020 457.550, 1020 457 C 1020 456.450, 1018.173 456, 1015.941 456 C 1013.490 456, 1012.127 456.396, 1012.500 457 M 988.500 461.362 C 986.849 462.094, 984.824 463.507, 984 464.501 C 982.569 466.226, 982.638 466.239, 985.500 464.795 C 991.028 462.005, 993.481 461.943, 1000.730 464.408 C 1004.657 465.744, 1008.283 466.443, 1008.996 466.002 C 1009.834 465.485, 1009.119 464.965, 1006.898 464.478 C 1005.045 464.071, 1002.623 463.165, 1001.515 462.465 C 998.292 460.429, 991.835 459.882, 988.500 461.362 M 1018 464.721 C 1016.625 464.968, 1015.050 465.613, 1014.500 466.155 C 1013.244 467.394, 1019.070 466.136, 1020.450 464.871 C 1020.972 464.392, 1021.197 464.061, 1020.950 464.136 C 1020.702 464.211, 1019.375 464.474, 1018 464.721 M 1106.083 468.373 C 1107.112 469.294, 1113 471.999, 1113 471.551 C 1113 470.975, 1107.456 468, 1106.383 468 C 1105.989 468, 1105.854 468.168, 1106.083 468.373 M 981.113 470.804 C 976.522 472.579, 972.597 477.786, 973.694 480.646 C 974.315 482.264, 975.047 481.885, 975.355 479.786 C 976.084 474.821, 986.399 470.416, 999 469.688 C 1002.025 469.513, 1000.225 469.311, 995 469.239 C 988.200 469.146, 984.253 469.591, 981.113 470.804 M 1114.500 473 C 1114.840 473.550, 1115.316 474, 1115.559 474 C 1115.802 474, 1116 473.550, 1116 473 C 1116 472.450, 1115.523 472, 1114.941 472 C 1114.359 472, 1114.160 472.450, 1114.500 473 M 997.120 475.116 C 991.188 476.886, 983 483.030, 983 485.713 C 983 487.446, 987.602 485.203, 990.407 482.102 C 991.454 480.946, 993.050 480, 993.955 480 C 994.860 480, 996.064 479.536, 996.632 478.968 C 997.200 478.400, 1000.777 477.318, 1004.582 476.562 C 1008.387 475.806, 1010.319 475.146, 1008.875 475.094 C 1007.431 475.042, 1004.956 474.799, 1003.375 474.554 C 1001.794 474.309, 998.979 474.562, 997.120 475.116 M 1118.733 475.124 C 1119.412 475.808, 1120.219 476.115, 1120.526 475.807 C 1120.834 475.499, 1120.279 474.940, 1119.293 474.564 C 1117.868 474.022, 1117.753 474.136, 1118.733 475.124 M 1122 476.393 C 1122 476.609, 1122.698 477.054, 1123.552 477.382 C 1124.442 477.723, 1124.843 477.555, 1124.493 476.989 C 1123.906 476.038, 1122 475.583, 1122 476.393 M 979.098 482.396 C 977.552 484.041, 976.967 485.686, 977.229 487.646 L 977.611 490.500 978.437 487.500 C 978.891 485.850, 980.182 483.488, 981.306 482.250 C 982.429 481.012, 982.899 480, 982.349 480 C 981.799 480, 980.336 481.078, 979.098 482.396 M 994 487 C 991.723 487.729, 991.812 487.804, 995 487.843 C 996.925 487.866, 1000.300 487.512, 1002.500 487.057 L 1006.500 486.230 1001.500 486.215 C 998.750 486.206, 995.375 486.560, 994 487 M 983.024 490.791 C 979.873 492.377, 976.581 494.981, 975.274 496.922 C 972.501 501.037, 972.301 503.478, 975.022 500 C 978.549 495.493, 980.025 494.279, 985.798 491.147 C 992.866 487.312, 990.529 487.012, 983.024 490.791 M 1117 490.948 C 1116.175 491.510, 1114.315 491.976, 1112.867 491.985 C 1111.011 491.995, 1110.065 492.642, 1109.665 494.174 C 1108.844 497.312, 1109.720 498.085, 1112.607 496.769 C 1114.564 495.878, 1115.317 495.895, 1115.905 496.846 C 1116.458 497.741, 1117.327 497.803, 1119.083 497.073 C 1122.085 495.826, 1126.464 492.130, 1125.766 491.432 C 1124.658 490.325, 1118.422 489.981, 1117 490.948 M 994.984 494.854 C 991.314 496.807, 987.017 503.119, 987.056 506.500 C 987.073 508.014, 987.400 507.771, 988.400 505.500 C 990.072 501.707, 994.441 497.351, 998.981 494.950 C 1001.626 493.551, 1001.999 493.077, 1000.484 493.044 C 999.376 493.020, 996.901 493.834, 994.984 494.854 M 1136.165 498.877 C 1135.151 499.520, 1135.331 499.853, 1136.915 500.268 C 1138.298 500.629, 1139 500.339, 1139 499.406 C 1139 497.811, 1138.109 497.645, 1136.165 498.877 M 1170 499.712 C 1161.726 501.118, 1154.084 504.259, 1149.288 508.224 C 1142.142 514.131, 1142.186 518.620, 1149.361 515.622 C 1151.259 514.830, 1155.328 513.658, 1158.405 513.020 C 1161.481 512.381, 1164.582 511.275, 1165.296 510.561 C 1166.009 509.848, 1167.584 508.949, 1168.796 508.565 C 1170.657 507.974, 1170.829 507.550, 1169.907 505.825 C 1168.629 503.438, 1169.686 501.975, 1172.863 501.735 C 1174.052 501.646, 1174.878 501.134, 1174.700 500.599 C 1174.294 499.381, 1173.181 499.171, 1170 499.712 M 1128 501 L 1125.500 501.801 1128.191 501.900 C 1129.671 501.955, 1131.160 501.550, 1131.500 501 C 1132.203 499.863, 1131.549 499.863, 1128 501 M 1002.171 504.318 C 1000.977 505.589, 1000 507.003, 1000 507.460 C 1000 507.918, 1001.150 507.051, 1002.555 505.535 C 1003.961 504.018, 1004.938 502.604, 1004.726 502.393 C 1004.514 502.181, 1003.364 503.048, 1002.171 504.318 M 1010.500 515.209 C 1008.850 515.788, 1006.825 516.790, 1006 517.437 C 1005.175 518.084, 1003.263 519.141, 1001.750 519.785 C 997.541 521.579, 998.461 523.011, 1003.750 522.900 C 1011.394 522.740, 1013.493 521.827, 1013.547 518.639 C 1013.573 517.115, 1014.248 515.455, 1015.047 514.950 C 1016.304 514.154, 1016.298 514.039, 1015 514.094 C 1014.175 514.129, 1012.150 514.631, 1010.500 515.209 M 1182.750 514.689 C 1181.787 514.941, 1181 515.789, 1181 516.573 C 1181 518.654, 1182.760 518.317, 1184 516 C 1184.589 514.900, 1184.942 514.052, 1184.785 514.116 C 1184.628 514.180, 1183.713 514.438, 1182.750 514.689 M 940 517.422 C 931.869 519.221, 923.022 522.155, 922.324 523.284 C 921.625 524.416, 926.040 528.093, 927.222 527.363 C 927.650 527.098, 928 527.461, 928 528.169 C 928 528.877, 929.383 527.778, 931.073 525.728 C 934.789 521.219, 936.153 520.987, 935.350 525 C 934.654 528.478, 935.438 528.674, 942.712 526.842 C 945.580 526.120, 948.370 524.521, 950.126 522.592 L 952.941 519.500 952.971 522.219 C 952.991 524.085, 953.424 524.775, 954.352 524.419 C 955.186 524.098, 955.544 522.866, 955.286 521.200 C 954.885 518.605, 954.929 518.575, 956.434 520.441 C 957.795 522.128, 958 522.163, 958 520.705 C 958 518.743, 952.012 515.951, 948.128 516.102 C 946.683 516.159, 943.025 516.753, 940 517.422 M 1134.500 525.148 C 1131.200 526.308, 1127.825 527.816, 1127 528.498 C 1126.175 529.181, 1124.825 529.987, 1124 530.291 C 1123.150 530.603, 1123.692 530.876, 1125.250 530.921 C 1127.347 530.981, 1128 531.496, 1128 533.088 C 1128 534.988, 1128.382 535.112, 1132.250 534.472 C 1134.588 534.085, 1137.258 533.370, 1138.184 532.884 C 1139.111 532.398, 1141.211 532, 1142.851 532 C 1144.491 532, 1146.060 531.438, 1146.338 530.750 C 1146.741 529.750, 1146.858 529.750, 1146.921 530.750 C 1147.034 532.538, 1150.980 532.302, 1151.100 530.500 C 1151.590 523.149, 1151.853 523.519, 1145.954 523.269 C 1142.443 523.121, 1138.362 523.790, 1134.500 525.148 M 983 532.487 C 971.718 535.118, 966.485 537.885, 968.665 540.065 C 969.259 540.659, 974.092 541.404, 979.404 541.721 C 987.115 542.181, 990.279 541.929, 995.091 540.473 C 1002.189 538.323, 1003.827 536.265, 1000.919 533.144 C 998.574 530.627, 992.011 530.386, 983 532.487 M 1152 549.703 C 1145.448 550.831, 1142 552.173, 1142 553.598 C 1142 554.434, 1141.550 554.840, 1141 554.500 C 1140.450 554.160, 1140 554.332, 1140 554.882 C 1140 555.432, 1140.391 556.124, 1140.869 556.419 C 1141.346 556.714, 1142.023 558.740, 1142.371 560.920 C 1142.720 563.101, 1143.457 565.164, 1144.009 565.506 C 1146.032 566.756, 1157.439 561.809, 1160.750 558.246 C 1164.583 554.121, 1164.699 553.341, 1161.847 550.867 C 1159.775 549.071, 1157.343 548.783, 1152 549.703 M 1008 552.663 C 1006.625 552.877, 1000.678 554.214, 994.785 555.632 C 983.706 558.299, 980.096 560.261, 983.993 561.498 C 988.741 563.005, 1024 556.776, 1024 554.430 C 1024 552.306, 1015.966 551.419, 1008 552.663 M 1062.688 559.646 C 1061.272 561.061, 1062.073 563, 1064.073 563 C 1065.471 563, 1066.041 562.457, 1065.823 561.333 C 1065.466 559.492, 1063.759 558.574, 1062.688 559.646 M 1002.469 566.050 C 1001.551 567.536, 1002.281 568.062, 1003.886 567.071 C 1004.745 566.539, 1004.848 566.024, 1004.176 565.609 C 1003.605 565.256, 1002.837 565.455, 1002.469 566.050 M 984.249 568.385 C 979.712 569.547, 976.158 570.947, 976.351 571.498 C 976.760 572.661, 988.985 572.233, 990.500 571.003 C 991.050 570.557, 992.620 570.036, 993.990 569.846 C 995.385 569.652, 996.626 568.730, 996.813 567.750 C 997.241 565.506, 995.073 565.616, 984.249 568.385 M 1106 574.417 C 1106 575.288, 1106.713 576, 1107.583 576 C 1108.454 576, 1108.989 575.466, 1108.771 574.813 C 1108.153 572.958, 1106 572.651, 1106 574.417 M 1152.750 579.226 C 1150.138 579.771, 1148 580.618, 1148 581.108 C 1148 581.599, 1147.341 582, 1146.535 582 C 1145.135 582, 1136.410 586.417, 1134.663 588.010 C 1134.203 588.430, 1135.649 588.947, 1137.877 589.160 C 1141.599 589.515, 1142.229 589.199, 1145.642 585.273 C 1148.071 582.480, 1150.182 581, 1151.738 581 C 1153.302 581, 1153.870 581.402, 1153.394 582.171 C 1152.996 582.815, 1153.856 582.477, 1155.304 581.421 C 1156.752 580.364, 1157.951 579.163, 1157.969 578.750 C 1157.986 578.337, 1157.888 578.053, 1157.750 578.118 C 1157.612 578.183, 1155.362 578.682, 1152.750 579.226 M 1050.916 584.250 C 1040.680 589.566, 1042.421 591.437, 1055.157 588.807 C 1060.461 587.711, 1063.797 585.099, 1061.057 584.186 C 1060.476 583.992, 1060 583.196, 1060 582.417 C 1060 580.246, 1057.755 580.699, 1050.916 584.250 M 1039.500 596.016 C 1034.173 597.037, 1022.998 599.935, 1020.500 600.943 C 1019.400 601.388, 1017.241 602.257, 1015.703 602.875 C 1014.165 603.494, 1012.117 604, 1011.152 604 C 1008.811 604, 1004.018 606.274, 1004.008 607.389 C 1004.003 607.895, 1006.691 607.945, 1010.250 607.505 C 1013.688 607.080, 1020.761 606.610, 1025.968 606.461 C 1031.708 606.297, 1035.580 605.759, 1035.802 605.095 C 1036.002 604.493, 1036.767 604, 1037.500 604 C 1038.233 604, 1038.990 603.531, 1039.181 602.957 C 1039.372 602.383, 1040.647 601.768, 1042.014 601.589 C 1046.345 601.023, 1048 599.863, 1048 597.393 C 1048 594.771, 1046.917 594.596, 1039.500 596.016 M 1046 651.981 C 1046 652.282, 1044.197 653.309, 1041.993 654.264 C 1037.627 656.156, 1029.489 656.600, 1028.500 655 C 1027.622 653.579, 1023.243 653.762, 1018.533 655.417 C 1016.315 656.197, 1012.475 657.291, 1010 657.850 C 1006.059 658.739, 1006.930 658.865, 1017 658.866 C 1023.325 658.866, 1036.263 659.147, 1045.750 659.489 C 1059.909 660, 1063 659.869, 1063 658.756 C 1063 656.835, 1060.924 655, 1058.750 655 C 1057.733 655, 1055.461 654.248, 1053.700 653.329 C 1050.570 651.694, 1046 650.894, 1046 651.981 M 1044.813 655.683 C 1045.534 655.972, 1046.397 655.936, 1046.729 655.604 C 1047.061 655.272, 1046.471 655.036, 1045.417 655.079 C 1044.252 655.127, 1044.015 655.364, 1044.813 655.683 M 1051.500 656 C 1051.160 656.550, 1051.359 657, 1051.941 657 C 1052.523 657, 1053 656.550, 1053 656 C 1053 655.450, 1052.802 655, 1052.559 655 C 1052.316 655, 1051.840 655.450, 1051.500 656 M 1166.492 656.013 C 1166.155 656.558, 1167.094 657.465, 1168.579 658.030 C 1172.154 659.389, 1172.675 658.672, 1169.583 656.647 C 1168.062 655.650, 1166.868 655.405, 1166.492 656.013 M 1177.813 659.683 C 1178.534 659.972, 1179.397 659.936, 1179.729 659.604 C 1180.061 659.272, 1179.471 659.036, 1178.417 659.079 C 1177.252 659.127, 1177.015 659.364, 1177.813 659.683 M 1060.001 664 C 1060.001 664.275, 1061.684 665.844, 1063.743 667.486 C 1066.584 669.753, 1068.873 670.605, 1073.243 671.023 C 1078.856 671.560, 1079.457 671.283, 1079.092 668.325 C 1079.012 667.679, 1079.412 666.863, 1079.981 666.512 C 1080.665 666.089, 1080.590 665.448, 1079.758 664.617 C 1078.544 663.405, 1060.004 662.827, 1060.001 664 M 1134 666.333 C 1134 668.214, 1134.962 668.952, 1136.598 668.324 C 1138.725 667.508, 1138.274 665, 1136 665 C 1134.900 665, 1134 665.600, 1134 666.333 M 1174.258 674.124 C 1174.554 675.431, 1175.345 679.041, 1176.015 682.146 L 1177.234 687.792 1183.391 688.451 C 1189.411 689.096, 1193 688.560, 1193 687.015 C 1193 683.245, 1186.400 673.834, 1183.405 673.334 C 1173.097 671.612, 1173.676 671.562, 1174.258 674.124 M 994.519 693.969 C 994.169 694.536, 992.135 695, 990 695 C 985.609 695, 983.859 696.498, 987.257 697.348 C 988.491 697.656, 994.337 698.220, 1000.250 698.602 C 1008.571 699.138, 1011 699.011, 1011 698.040 C 1011 697.348, 1010.342 697.039, 1009.532 697.349 C 1008.725 697.659, 1007.822 697.521, 1007.526 697.042 C 1007.230 696.563, 1007.553 695.965, 1008.244 695.714 C 1009.392 695.296, 1007.028 694.749, 998.328 693.422 C 996.583 693.156, 994.869 693.402, 994.519 693.969 M 1079.588 693.857 C 1078.681 695.325, 1080.029 698, 1081.677 698 C 1082.609 698, 1083.023 697.213, 1082.820 695.828 C 1082.473 693.476, 1080.549 692.302, 1079.588 693.857 M 1018.538 696.939 C 1018.248 697.407, 1018.669 698.043, 1019.474 698.352 C 1020.278 698.660, 1021.173 698.529, 1021.462 698.061 C 1021.752 697.593, 1021.331 696.957, 1020.526 696.648 C 1019.722 696.340, 1018.827 696.471, 1018.538 696.939 M 1003.601 705.105 C 1000.356 705.578, 997.464 706.203, 997.174 706.493 C 996.184 707.483, 1000.492 709.936, 1003.500 710.095 C 1014.836 710.695, 1038.208 709.823, 1041.519 708.677 L 1045.332 707.357 1039.351 705.678 C 1032.806 703.842, 1014.290 703.545, 1003.601 705.105 M 1186.788 712.137 C 1186.564 712.808, 1182.095 713.295, 1174.964 713.425 C 1163.693 713.632, 1157.279 715.024, 1158.499 716.998 C 1158.839 717.549, 1161.116 718, 1163.559 718 C 1166.002 718, 1168 718.404, 1168 718.897 C 1168 720.028, 1179.405 721.911, 1183.780 721.502 C 1188.109 721.097, 1190.428 719.221, 1188.890 717.367 C 1188.110 716.428, 1188.075 715.609, 1188.777 714.750 C 1189.489 713.879, 1189.397 713.130, 1188.473 712.279 C 1187.570 711.447, 1187.033 711.402, 1186.788 712.137 M 1213.500 718 C 1213.840 718.550, 1215.329 718.993, 1216.809 718.985 C 1218.914 718.973, 1219.173 718.758, 1218 718 C 1216.024 716.723, 1212.711 716.723, 1213.500 718 M 997.057 726.301 C 991.313 727.511, 986.601 728.950, 986.585 729.500 C 986.483 733.064, 1010.121 736.127, 1019.423 733.755 C 1022.131 733.065, 1024.512 731.993, 1024.715 731.374 C 1025.175 729.969, 1019.517 726.553, 1015.351 725.720 C 1013.636 725.377, 1011.168 724.873, 1009.867 724.600 C 1008.565 724.326, 1002.801 725.092, 997.057 726.301 M 1183.743 725.590 C 1182.353 726.980, 1182.996 727.656, 1187.881 729.944 C 1191.976 731.862, 1194.005 732.168, 1200.480 731.841 C 1206.643 731.530, 1208.479 731.065, 1209.598 729.534 C 1210.369 728.480, 1211 727.254, 1211 726.809 C 1211 726.364, 1206.331 726, 1200.625 726 C 1194.919 726, 1188.953 725.741, 1187.368 725.424 C 1185.783 725.107, 1184.152 725.182, 1183.743 725.590 M 1205 727.383 C 1205 727.594, 1205.900 728.002, 1207 728.290 C 1208.100 728.577, 1209 728.405, 1209 727.906 C 1209 727.408, 1208.100 727, 1207 727 C 1205.900 727, 1205 727.173, 1205 727.383 M 1167.813 735.683 C 1168.534 735.972, 1169.397 735.936, 1169.729 735.604 C 1170.061 735.272, 1169.471 735.036, 1168.417 735.079 C 1167.252 735.127, 1167.015 735.364, 1167.813 735.683 M 1164 738 C 1164 739.174, 1164.769 739.174, 1167.500 738 C 1169.272 737.238, 1169.187 737.133, 1166.750 737.070 C 1165.237 737.032, 1164 737.450, 1164 738 M 1027.500 740.038 C 1024.200 741.029, 1022.063 741.932, 1022.750 742.045 C 1023.438 742.158, 1025.237 742.383, 1026.750 742.546 C 1028.263 742.709, 1031.576 743.154, 1034.112 743.536 L 1038.725 744.229 1038.612 741.117 C 1038.478 737.394, 1036.835 737.235, 1027.500 740.038 M 1169 739.832 C 1169 740.290, 1171.588 740.481, 1174.750 740.256 C 1183.085 739.665, 1183.505 739.170, 1175.750 739.079 C 1172.037 739.036, 1169 739.375, 1169 739.832 M 1042 743.810 C 1042 744.347, 1042.713 745.059, 1043.584 745.394 C 1044.557 745.767, 1045.015 745.544, 1044.771 744.813 C 1044.273 743.318, 1042 742.495, 1042 743.810 M 1155.250 744.708 C 1152.637 745.667, 1154.030 748.521, 1157.750 749.830 C 1164.893 752.343, 1166.740 752.394, 1167.469 750.099 C 1167.835 748.945, 1168.667 747.955, 1169.317 747.900 C 1171.619 747.706, 1165.448 746.198, 1161.950 746.100 C 1159.998 746.045, 1157.973 745.606, 1157.450 745.125 C 1156.928 744.644, 1155.938 744.456, 1155.250 744.708 M 948.681 749.159 C 947.756 749.676, 946.968 751.315, 946.930 752.800 C 946.868 755.159, 946.761 755.247, 946.078 753.500 C 945.336 751.603, 945.256 751.625, 944.521 753.938 C 943.917 755.836, 944.243 756.778, 945.990 758.193 C 947.981 759.805, 949.720 759.956, 961.367 759.526 C 968.590 759.260, 974.823 759.033, 975.218 759.021 C 975.613 759.009, 976.580 757.772, 977.366 756.270 C 978.698 753.728, 978.624 753.381, 976.287 751.215 C 973.407 748.546, 972.325 748.871, 973.954 751.914 C 975.495 754.794, 973.809 754.551, 969.999 751.346 C 967.829 749.520, 965.309 748.544, 961.922 748.219 L 957 747.746 957 751.373 C 957 755.476, 955.649 756.081, 953.877 752.771 C 951.897 749.070, 950.533 748.122, 948.681 749.159 M 1156.750 759.689 C 1155.787 759.941, 1155 760.564, 1155 761.073 C 1155 761.583, 1154.325 762, 1153.500 762 C 1152.675 762, 1152 762.753, 1152 763.674 C 1152 765.132, 1152.291 765.085, 1154.250 763.311 C 1155.487 762.190, 1157.400 760.775, 1158.500 760.167 C 1160.536 759.041, 1159.898 758.867, 1156.750 759.689 M 1012.142 766.038 C 1015.755 772.467, 1024.421 778.035, 1030.718 777.972 C 1032.870 777.951, 1031.685 777.084, 1025.482 774.143 C 1018.254 770.715, 1012 765.510, 1012 762.923 C 1012 762.415, 1011.521 762, 1010.936 762 C 1010.351 762, 1010.893 763.817, 1012.142 766.038 M 1029.810 763.582 C 1031.101 766.069, 1034 768.639, 1034 767.297 C 1034 766.775, 1032.814 765.258, 1031.364 763.924 C 1029.012 761.761, 1028.845 761.724, 1029.810 763.582 M 1165 772.803 C 1161.975 775.720, 1158.221 778.791, 1156.657 779.627 C 1155.093 780.463, 1154.067 781.400, 1154.376 781.709 C 1154.685 782.018, 1156.043 781.546, 1157.395 780.661 C 1160.839 778.404, 1171.606 768.261, 1171 767.844 C 1170.725 767.655, 1168.025 769.886, 1165 772.803 M 1001 773.744 C 1001 774.786, 1004.063 779.272, 1005.442 780.250 C 1006.544 781.032, 1011.184 782.364, 1016.750 783.497 C 1018.818 783.918, 1020 783.766, 1020 783.079 C 1020 782.486, 1019.040 782, 1017.866 782 C 1013.495 782, 1007.541 779.475, 1004.322 776.255 C 1002.495 774.428, 1001 773.298, 1001 773.744 M 1032.250 782.689 C 1033.213 782.941, 1034.787 782.941, 1035.750 782.689 C 1036.713 782.438, 1035.925 782.232, 1034 782.232 C 1032.075 782.232, 1031.287 782.438, 1032.250 782.689 M 1005 785.429 C 1005 785.664, 1005.707 786.564, 1006.571 787.429 C 1008.879 789.736, 1010.625 789.348, 1008.500 787 C 1006.857 785.184, 1005 784.351, 1005 785.429 M 1011.007 785.633 C 1011.018 787.102, 1017.262 790.765, 1022 792.084 C 1024.475 792.773, 1026.928 793.711, 1027.450 794.169 C 1028.977 795.505, 1033.651 795.126, 1034.950 793.560 C 1035.607 792.768, 1036.900 791.925, 1037.823 791.686 C 1038.745 791.447, 1038.029 791.393, 1036.232 791.566 C 1034.435 791.739, 1030.535 791.044, 1027.566 790.023 C 1024.597 789.001, 1021.905 788.428, 1021.584 788.749 C 1021.263 789.071, 1021 788.865, 1021 788.292 C 1021 787.719, 1019.763 786.980, 1018.250 786.649 C 1016.737 786.319, 1014.487 785.760, 1013.250 785.407 C 1012.013 785.055, 1011.003 785.157, 1011.007 785.633 M 1043 789.969 C 1043 790.501, 1043.675 790.678, 1044.500 790.362 C 1045.325 790.045, 1046 789.609, 1046 789.393 C 1046 789.177, 1045.325 789, 1044.500 789 C 1043.675 789, 1043 789.436, 1043 789.969 M 1002 792.788 C 1002 793.771, 1003.249 796.072, 1004.776 797.900 L 1007.551 801.225 1021.756 801.333 C 1032.034 801.410, 1036.311 801.089, 1037.230 800.169 C 1038.257 799.141, 1037.729 799.021, 1034.467 799.542 C 1028.651 800.471, 1010.774 798.221, 1009.351 796.380 C 1008.444 795.207, 1008.092 795.168, 1007.680 796.197 C 1007.285 797.182, 1007.139 797.195, 1007.079 796.250 C 1007.002 795.027, 1003.489 791, 1002.500 791 C 1002.225 791, 1002 791.804, 1002 792.788 M 1108 794.898 C 1108 797.048, 1103.322 797.948, 1097.301 796.955 C 1090.945 795.907, 1079.410 797.535, 1068.901 800.965 C 1056.993 804.851, 1054.369 807.608, 1053.344 817.304 C 1053.041 820.162, 1051.956 825.425, 1050.931 829 C 1048.329 838.076, 1048.321 840.656, 1050.879 847.446 C 1053.576 854.607, 1053.147 856.888, 1048.425 860.489 C 1044.236 863.685, 1038.530 872.173, 1037.663 876.500 C 1036.490 882.354, 1039.129 889.459, 1045.267 896.972 C 1050.405 903.261, 1054 905.753, 1054 903.025 C 1054 902.475, 1055.308 902.312, 1057 902.650 C 1060.249 903.300, 1060.961 902.042, 1058.500 900 C 1057.675 899.315, 1056.998 898.248, 1056.996 897.628 C 1056.994 897.007, 1055.936 894.419, 1054.645 891.875 C 1053.164 888.957, 1052.051 884.514, 1051.627 879.834 C 1050.966 872.543, 1051.004 872.370, 1053.918 869.579 C 1056.010 867.574, 1057.412 866.956, 1058.690 867.474 C 1060.958 868.394, 1071.742 870.804, 1079 872.013 C 1085.748 873.137, 1090.081 872.490, 1116 866.488 C 1119.575 865.661, 1123.625 864.989, 1125 864.995 C 1128.187 865.011, 1133.526 868.245, 1135.043 871.080 C 1136.412 873.638, 1135.552 880.693, 1133.594 882.974 C 1131.143 885.829, 1125.699 897.033, 1126.416 897.749 C 1126.808 898.141, 1128.544 897.650, 1130.274 896.657 C 1133.309 894.916, 1133.466 894.916, 1134.771 896.676 C 1136.040 898.389, 1136.303 898.288, 1139.097 895 C 1140.734 893.075, 1142.990 890.552, 1144.112 889.394 C 1145.234 888.235, 1146.380 885.535, 1146.658 883.394 C 1147.306 878.405, 1144.552 865.228, 1142.200 862.072 C 1140.099 859.252, 1129.066 852.899, 1127.301 853.494 C 1124.995 854.271, 1124.937 850.113, 1127.159 843.335 C 1129.347 836.662, 1129.469 834.764, 1128.981 815 C 1128.947 813.625, 1129.201 810.901, 1129.546 808.946 C 1130.124 805.669, 1129.783 805.004, 1125.184 800.446 C 1119.709 795.018, 1119.596 794.961, 1112.750 794.244 C 1109.544 793.907, 1108 794.120, 1108 794.898 M 1112.670 800.045 C 1111.349 801.084, 1110.031 801.698, 1109.742 801.409 C 1109.453 801.119, 1107.547 801.580, 1105.507 802.433 C 1101.902 803.939, 1101.812 804.104, 1102.312 808.241 C 1103.314 816.537, 1105.303 823.528, 1107.286 825.721 C 1110.472 829.244, 1115.494 830.487, 1120.229 828.924 C 1125.579 827.159, 1127.431 824.163, 1126.659 818.526 C 1126.279 815.758, 1126.555 812.910, 1127.396 810.910 C 1129.106 806.843, 1128.569 805.164, 1124.458 801.711 C 1120.233 798.164, 1115.849 797.544, 1112.670 800.045 M 1049.813 801.683 C 1050.534 801.972, 1051.397 801.936, 1051.729 801.604 C 1052.061 801.272, 1051.471 801.036, 1050.417 801.079 C 1049.252 801.127, 1049.015 801.364, 1049.813 801.683 M 1034.500 805.484 C 1026.709 809.330, 1023.635 809.710, 1018.314 807.487 C 1014.525 805.904, 1013.053 806.011, 1015.226 807.712 C 1017.142 809.212, 1022.959 811.001, 1025.899 810.994 C 1027.330 810.990, 1029.850 810.239, 1031.500 809.323 C 1033.150 808.408, 1036.975 806.408, 1040 804.879 C 1043.309 803.207, 1044.703 802.086, 1043.500 802.064 C 1042.400 802.045, 1038.350 803.584, 1034.500 805.484 M 1068.123 803.002 C 1059.631 805.007, 1056.378 811.018, 1059.876 818.244 C 1061.044 820.657, 1062 823.324, 1062 824.170 C 1062 825.016, 1063.153 826.952, 1064.562 828.473 C 1066.897 830.992, 1067.613 831.197, 1072.627 830.781 C 1076.876 830.429, 1078.734 829.721, 1080.780 827.674 C 1083.088 825.367, 1083.401 824.309, 1083.199 819.492 C 1082.856 811.296, 1080.515 806.303, 1075.914 803.956 C 1073.805 802.880, 1071.949 802.046, 1071.790 802.102 C 1071.630 802.159, 1069.980 802.564, 1068.123 803.002 M 1044.391 808.423 C 1043.567 810.570, 1037.163 813.258, 1034.477 812.583 C 1033.182 812.259, 1031.873 812.396, 1031.568 812.890 C 1030.271 814.988, 1036.317 815.025, 1040.612 812.946 C 1044.846 810.896, 1048.379 807, 1046.004 807 C 1045.417 807, 1044.692 807.640, 1044.391 808.423 M 1048.571 809.571 C 1047.707 810.436, 1047 811.294, 1047 811.478 C 1047 812.303, 1051.051 810.643, 1052.090 809.392 C 1053.772 807.365, 1050.617 807.526, 1048.571 809.571" stroke="none" fill="black" fill-rule="evenodd"/>
	<path fill-opacity="0.782" d="M -0 540.001 L -0 1080.001 960.250 1079.751 L 1920.500 1079.500 1920.751 539.750 L 1921.002 0 960.501 0 L 0 0 -0 540.001 M 0.496 540.500 C 0.496 837.500, 0.610 958.851, 0.750 810.168 C 0.890 661.485, 0.890 418.485, 0.750 270.168 C 0.610 121.851, 0.496 243.500, 0.496 540.500 M 1083.333 353.835 C 1082.948 355.308, 1082.220 355.915, 1081.276 355.552 C 1080.472 355.244, 1078.731 354.720, 1077.407 354.387 C 1074.173 353.576, 1074.199 356.083, 1077.469 360.371 C 1082.920 367.517, 1084.305 374.576, 1081.370 380.251 C 1077.810 387.136, 1075.697 387.947, 1063.020 387.298 C 1049.063 386.583, 1035.776 388.333, 1023.167 392.547 C 1017.484 394.446, 1012.309 395.998, 1011.667 395.995 C 1008.016 395.981, 1000.075 384.587, 1000.022 379.288 C 999.988 375.899, 1003.800 366.491, 1006.021 364.481 C 1010.179 360.718, 1007.214 358.519, 1002 361.500 C 998.779 363.341, 998 363.341, 998 361.500 C 998 359.252, 994.631 359.693, 992.275 362.250 C 987.913 366.983, 985.757 379.536, 987.667 389.083 C 988.349 392.496, 995.818 400.766, 1003.104 406.176 C 1006.359 408.593, 1006.760 409.418, 1007.239 414.676 C 1007.853 421.416, 1013.007 439.910, 1016.112 446.514 C 1022.504 460.114, 1039.710 466.838, 1058.228 462.974 C 1077.354 458.982, 1083.580 450.658, 1085.592 426.390 C 1086.301 417.835, 1084.802 410.991, 1080.139 401.500 C 1078.206 397.566, 1078.171 395.150, 1080.088 398.029 C 1080.881 399.219, 1082.093 398.392, 1086.438 393.693 C 1090.760 389.021, 1092.148 386.633, 1093.546 381.467 C 1096.437 370.786, 1094.143 361.262, 1087.056 354.529 L 1083.929 351.557 1083.333 353.835 M 1072.270 427.715 C 1065.537 428.979, 1061.024 447.149, 1066.238 452.007 C 1069.609 455.148, 1073.657 454.295, 1077.399 449.657 C 1080.278 446.090, 1080.500 445.251, 1080.500 437.957 C 1080.500 433.636, 1080.050 429.678, 1079.500 429.162 C 1078.108 427.858, 1074.917 427.219, 1072.270 427.715 M 1029.127 434.096 C 1024.545 438.365, 1023.915 443.606, 1027.093 450.995 C 1030.352 458.571, 1037.760 461.208, 1043.161 456.714 C 1049.033 451.830, 1048.834 439.562, 1042.801 434.486 C 1038.946 431.242, 1032.391 431.055, 1029.127 434.096 M 997 451.500 C 997 452.325, 997.450 453, 998 453 C 998.550 453, 999 452.325, 999 451.500 C 999 450.675, 998.550 450, 998 450 C 997.450 450, 997 450.675, 997 451.500 M 997.250 455.662 C 994.578 456.741, 996.088 458.206, 999.258 457.611 C 1001.676 457.158, 1003.762 457.664, 1007.351 459.574 C 1012.265 462.190, 1014.247 462.208, 1012.097 459.616 C 1009.267 456.206, 1001.215 454.062, 997.250 455.662 M 1011.526 455.957 C 1010.748 457.217, 1016.203 460, 1019.450 460 C 1022.304 460, 1022.550 459.309, 1020.608 456.750 C 1019.174 454.861, 1012.561 454.284, 1011.526 455.957 M 1080.083 459.365 C 1080.313 459.565, 1081.625 460.314, 1083 461.028 C 1085.287 462.217, 1085.383 462.186, 1084.128 460.664 C 1083.373 459.749, 1082.060 459, 1081.211 459 C 1080.362 459, 1079.854 459.164, 1080.083 459.365 M 987.500 461.386 C 984.291 462.784, 981.362 465.696, 982.261 466.594 C 982.561 466.894, 984.632 466.208, 986.863 465.070 C 991.901 462.500, 993.603 462.491, 1000.740 465 C 1008.579 467.755, 1018.200 467.706, 1022.153 464.891 C 1026.085 462.091, 1025.293 461.625, 1019.906 463.567 C 1014.466 465.528, 1006.411 464.831, 1001.762 461.996 C 998.022 459.716, 991.930 459.455, 987.500 461.386 M 1099.441 468.468 C 1097.810 469.702, 1097.760 469.941, 1099.128 469.968 C 1100.023 469.986, 1101.315 469.325, 1102 468.500 C 1103.596 466.577, 1101.968 466.557, 1099.441 468.468 M 1104.583 467.866 C 1103.898 468.974, 1124.809 479.185, 1126.917 478.772 C 1127.788 478.602, 1125.178 476.740, 1121.117 474.636 C 1117.056 472.531, 1112.331 469.953, 1110.617 468.908 C 1107.218 466.836, 1105.412 466.524, 1104.583 467.866 M 985 468.647 C 976.788 471.323, 973 475.035, 973 480.404 C 973 484.036, 974.729 483.637, 976.675 479.555 C 979.143 474.380, 985.945 471.746, 998.250 471.200 C 1003.612 470.962, 1008 470.431, 1008 470.020 C 1008 468.433, 989.114 467.306, 985 468.647 M 1011.813 470.683 C 1012.534 470.972, 1013.397 470.936, 1013.729 470.604 C 1014.061 470.272, 1013.471 470.036, 1012.417 470.079 C 1011.252 470.127, 1011.015 470.364, 1011.813 470.683 M 1091.226 471.579 C 1092.176 472.570, 1093.168 473.166, 1093.431 472.903 C 1093.694 472.640, 1092.917 471.829, 1091.705 471.100 C 1089.598 469.835, 1089.577 469.857, 1091.226 471.579 M 993.500 475.883 C 988.712 478.085, 982 484.242, 982 486.433 C 982 488.482, 982.198 488.445, 987.223 485.458 C 996.217 480.113, 1002.559 477.677, 1010.397 476.558 C 1020.301 475.143, 1018.380 473.991, 1006.168 474.022 C 999.906 474.038, 996.390 474.554, 993.500 475.883 M 980.763 480.565 C 977.959 482.087, 976.506 485.420, 977.231 488.671 C 977.546 490.087, 978.011 489.710, 979.291 487 C 980.200 485.075, 981.686 482.488, 982.594 481.250 C 984.516 478.629, 984.406 478.588, 980.763 480.565 M 1129 479.771 C 1129 480.608, 1143.939 488.019, 1145.530 487.971 C 1146.315 487.947, 1130.100 479.015, 1129.250 479.003 C 1129.112 479.002, 1129 479.347, 1129 479.771 M 1106.108 486.711 C 1107.266 488.982, 1108 492.499, 1108 495.771 C 1108 501.056, 1108.033 501.114, 1110.750 500.641 C 1116.329 499.671, 1125.032 496.051, 1127.671 493.605 C 1130.219 491.242, 1130.267 491.046, 1128.444 490.449 C 1127.375 490.099, 1125.375 489.433, 1124 488.969 C 1122.625 488.505, 1119.925 487.817, 1118 487.440 C 1116.075 487.064, 1112.830 485.911, 1110.790 484.878 C 1104.919 481.906, 1103.868 482.318, 1106.108 486.711 M 1004.500 485.059 C 988.113 486.309, 977.725 490.907, 973.985 498.566 C 971.375 503.911, 971.382 506.041, 974 503.230 C 975.100 502.050, 976 500.645, 976 500.109 C 976 498.654, 984.151 492.252, 988.110 490.599 C 990.010 489.805, 995.375 488.662, 1000.033 488.059 C 1014.083 486.241, 1016 485.863, 1016 484.912 C 1016 484.410, 1015.663 484.067, 1015.250 484.148 C 1014.837 484.230, 1010 484.640, 1004.500 485.059 M 1148.439 489.902 C 1149.028 490.854, 1155 493.196, 1155 492.474 C 1155 491.987, 1149.403 489, 1148.491 489 C 1148.156 489, 1148.133 489.406, 1148.439 489.902 M 1002.500 491.491 C 1001.950 491.675, 1000.271 492.096, 998.768 492.427 C 995.426 493.163, 989.412 498.302, 987.449 502.099 C 985.795 505.297, 985.569 510.785, 987 513 C 987.738 514.142, 987.973 513.739, 987.985 511.315 C 987.993 509.563, 988.467 506.901, 989.038 505.399 C 990.979 500.294, 999.257 494.619, 1007.776 492.554 L 1013.500 491.167 1008.500 491.162 C 1005.750 491.160, 1003.050 491.308, 1002.500 491.491 M 1202.092 497.548 C 1199.003 501.066, 1191.507 514.840, 1192.268 515.601 C 1192.485 515.819, 1193.294 514.760, 1194.064 513.248 C 1194.835 511.737, 1197.825 506.788, 1200.710 502.250 C 1203.595 497.712, 1205.787 494, 1205.581 494 C 1205.375 494, 1203.805 495.597, 1202.092 497.548 M 1130.419 499.041 C 1127.075 500.101, 1123.532 501.860, 1122.546 502.950 C 1120.807 504.871, 1120.834 504.967, 1123.452 506.160 C 1125.799 507.229, 1127.443 506.958, 1136.075 504.074 C 1145.531 500.914, 1148.016 498.988, 1144.418 497.607 C 1141.652 496.545, 1136.683 497.054, 1130.419 499.041 M 1165 500.081 C 1155.225 502.569, 1153.445 503.506, 1147.640 509.211 C 1142.728 514.039, 1142.486 514.892, 1144.524 520.201 C 1144.912 521.214, 1143.496 521.911, 1139.278 522.784 C 1129.807 524.744, 1118.849 530.644, 1118.949 533.729 C 1119.048 536.756, 1148.335 534.624, 1151.968 531.325 C 1152.776 530.592, 1153.469 528.607, 1153.510 526.914 C 1153.568 524.502, 1152.966 523.517, 1150.730 522.360 C 1148.729 521.326, 1147.969 520.257, 1148.188 518.785 C 1148.446 517.048, 1150.049 516.281, 1157.500 514.331 C 1162.450 513.036, 1167.850 511.350, 1169.500 510.585 C 1171.150 509.820, 1173.737 508.710, 1175.250 508.118 C 1177.994 507.045, 1178.894 504.671, 1177 503.500 C 1176.450 503.160, 1176 502.057, 1176 501.048 C 1176 499.631, 1173.681 497.570, 1172.668 498.086 C 1172.576 498.133, 1169.125 499.031, 1165 500.081 M 1005.028 501.798 C 1001.564 503.496, 998.630 507.592, 999.671 509.277 C 999.974 509.766, 1001.040 508.819, 1002.041 507.172 C 1003.043 505.526, 1004.752 503.896, 1005.841 503.551 C 1007.923 502.890, 1010.871 499.966, 1009.372 500.048 C 1008.893 500.074, 1006.937 500.862, 1005.028 501.798 M 1013.446 513.479 C 1005.640 515.945, 997 521.028, 997 523.155 C 997 524.145, 1008.302 524.290, 1012.953 523.359 C 1015.197 522.911, 1016.433 521.937, 1017.079 520.109 C 1017.586 518.674, 1018.451 516.719, 1019 515.764 C 1021.282 511.800, 1020.185 511.349, 1013.446 513.479 M 1177.273 515.787 C 1169.638 519.113, 1168.412 520.991, 1174.322 520.307 C 1181.187 519.512, 1184.434 518.134, 1185.656 515.496 C 1187.200 512.161, 1185.457 512.222, 1177.273 515.787 M 936.500 517.611 C 925.130 520.275, 922.152 521.439, 921.349 523.533 C 920.672 525.298, 923.223 527.638, 926.923 528.645 C 928.805 529.156, 929.819 528.711, 931.461 526.652 C 934.103 523.338, 935.223 523.263, 934.422 526.453 C 933.835 528.795, 933.981 528.883, 937.653 528.404 C 946.309 527.275, 947.552 526.843, 949.693 524.229 L 951.928 521.500 951.964 523.857 C 951.992 525.704, 952.379 526.058, 953.750 525.494 C 954.712 525.097, 956.288 524.547, 957.250 524.270 C 959.926 523.500, 959.920 519.316, 957.240 517.250 C 955.117 515.614, 944.212 515.804, 936.500 517.611 M 1197.437 521.170 L 1194.500 524.341 1197.720 522.124 C 1201.167 519.750, 1202.663 518, 1201.246 518 C 1200.767 518, 1199.052 519.427, 1197.437 521.170 M 983.500 531.875 C 973.499 533.970, 967.500 536.808, 967.500 539.444 C 967.500 541.069, 968.651 541.589, 974.500 542.607 C 983.769 544.220, 994.114 543.295, 1000.742 540.261 C 1003.634 538.937, 1006 537.436, 1006 536.927 C 1006 535.731, 1002.722 532.457, 1000.141 531.076 C 997.471 529.646, 993.153 529.854, 983.500 531.875 M 1144.250 550.780 C 1140.598 552.183, 1140 552.823, 1140 555.322 C 1140 556.922, 1140.758 560.367, 1141.685 562.976 L 1143.370 567.721 1147.935 566.499 C 1161.404 562.891, 1167.439 556.265, 1162.733 550.250 C 1161.328 548.455, 1149.413 548.796, 1144.250 550.780 M 1009 551.973 C 999.336 553.083, 984.970 556.879, 982.204 559.054 L 979.776 560.964 982.634 562.051 C 989.266 564.572, 1027 557.639, 1027 553.899 C 1027 553.469, 1026.662 552.918, 1026.250 552.673 C 1024.544 551.662, 1015.066 551.277, 1009 551.973 M 1062.082 559.847 C 1061.027 561.818, 1062.347 564, 1064.593 564 C 1066.354 564, 1067.210 560.958, 1065.895 559.373 C 1064.350 557.512, 1063.259 557.647, 1062.082 559.847 M 1186.091 561.389 C 1185.460 562.977, 1185.145 564.479, 1185.391 564.724 C 1186.127 565.460, 1188.166 560.987, 1187.684 559.695 C 1187.439 559.038, 1186.722 559.800, 1186.091 561.389 M 1115.250 565.989 C 1110.794 568.706, 1111.176 570, 1116.433 570 C 1119.980 570, 1120.991 569.603, 1121.497 568.009 C 1122.843 563.767, 1120.262 562.933, 1115.250 565.989 M 1001.607 566.582 C 1000.522 569.409, 1000.965 572.773, 1002.500 573.362 C 1003.325 573.678, 1004 573.556, 1004 573.090 C 1004 572.624, 1005.360 571.679, 1007.021 570.991 C 1010.885 569.391, 1011.491 568.348, 1009.635 566.492 C 1007.638 564.496, 1002.385 564.554, 1001.607 566.582 M 984.511 567.562 C 979.269 568.702, 967.110 572.343, 958.750 575.277 C 957.237 575.808, 956.002 576.526, 956.004 576.871 C 956.013 578.224, 973.652 577.948, 982.222 576.461 C 987.201 575.598, 991.824 575.102, 992.497 575.360 C 993.614 575.789, 998 569.050, 998 566.905 C 998 565.678, 991.787 565.980, 984.511 567.562 M 1105.336 573.567 C 1104.548 575.619, 1106.227 577.234, 1108.314 576.433 C 1109.592 575.943, 1109.734 575.372, 1108.947 573.900 C 1107.712 571.593, 1106.149 571.449, 1105.336 573.567 M 1153.716 578.109 C 1146.357 580.161, 1138.251 583.914, 1133.500 587.468 C 1131.850 588.702, 1128.588 590.686, 1126.250 591.876 C 1123.912 593.067, 1122 594.722, 1122 595.556 C 1122 596.680, 1122.452 596.835, 1123.750 596.157 C 1130.535 592.616, 1137.646 589.941, 1139.597 590.197 C 1141.181 590.405, 1143.212 589.246, 1146.077 586.500 C 1148.434 584.240, 1150.434 582.998, 1150.673 583.644 C 1151.334 585.433, 1154.992 583.990, 1158.137 580.699 C 1160.436 578.294, 1161.983 575.575, 1160.750 576.108 C 1160.612 576.167, 1157.447 577.068, 1153.716 578.109 M 1051.058 583.036 C 1044.667 586.558, 1041.354 589.754, 1042.699 591.099 C 1043.843 592.243, 1059.055 590.058, 1060.500 588.541 C 1064.032 584.836, 1064.189 584.189, 1062.067 582.067 C 1059.316 579.316, 1057.519 579.474, 1051.058 583.036 M 1036 590.441 C 1036 591.298, 1036.450 592, 1037 592 C 1037.550 592, 1038 591.577, 1038 591.059 C 1038 590.541, 1037.550 589.840, 1037 589.500 C 1036.450 589.160, 1036 589.584, 1036 590.441 M 1027.500 598.573 C 1019.250 601.039, 1010.719 603.517, 1008.542 604.080 C 1006.365 604.643, 1003.215 605.702, 1001.542 606.435 C 999.869 607.167, 997.038 608.323, 995.250 609.004 C 990.097 610.968, 991.424 611.822, 999.250 611.579 C 1012.580 611.165, 1027.194 608.925, 1036.390 605.888 C 1046.987 602.389, 1049.421 600.527, 1048.451 596.662 C 1047.533 593.005, 1045.513 593.189, 1027.500 598.573 M 1149 650.928 C 1149 651.368, 1151.138 652.502, 1153.750 653.447 C 1156.362 654.392, 1160.750 656.021, 1163.500 657.067 C 1171.495 660.108, 1182 661.739, 1182 659.940 C 1182 658.929, 1179.305 658, 1176.369 658 C 1175.011 658, 1172.543 657.298, 1170.883 656.439 C 1169.223 655.581, 1167.332 655.060, 1166.682 655.282 C 1166.032 655.504, 1161.787 654.435, 1157.250 652.906 C 1152.713 651.377, 1149 650.487, 1149 650.928 M 1040.289 652.826 C 1036.857 654.118, 1035.112 654.213, 1030.842 653.338 C 1026.499 652.449, 1024.487 652.577, 1019.053 654.092 C 1012.467 655.927, 1008.166 656.765, 1004.550 656.918 C 1002.990 656.984, 1002.850 657.250, 1003.850 658.250 C 1005.108 659.508, 1010.818 659.773, 1047.500 660.279 C 1062.985 660.493, 1063.509 660.434, 1063.795 658.436 C 1064.025 656.828, 1062.919 655.780, 1058.781 653.686 C 1052.692 650.606, 1046.902 650.336, 1040.289 652.826 M 1072.500 662.174 C 1070.300 662.709, 1066.375 662.912, 1063.778 662.624 C 1061.181 662.336, 1058.806 662.505, 1058.501 662.998 C 1058.196 663.491, 1060.321 665.660, 1063.223 667.818 C 1067.257 670.817, 1069.748 671.879, 1073.797 672.329 C 1078.240 672.822, 1079.179 672.642, 1079.620 671.208 C 1079.909 670.269, 1080.589 668.677, 1081.130 667.672 C 1081.821 666.388, 1081.725 665.345, 1080.807 664.172 C 1079.314 662.262, 1077.731 660.991, 1077 661.116 C 1076.725 661.163, 1074.700 661.639, 1072.500 662.174 M 1050.500 663 C 1050.160 663.550, 1050.610 664, 1051.500 664 C 1052.390 664, 1052.840 663.550, 1052.500 663 C 1052.160 662.450, 1051.710 662, 1051.500 662 C 1051.290 662, 1050.840 662.450, 1050.500 663 M 1134.460 665.419 C 1132.985 666.508, 1132.783 667.153, 1133.644 668.026 C 1135.324 669.732, 1138.500 668.779, 1138.500 666.570 C 1138.500 664.077, 1136.897 663.620, 1134.460 665.419 M 1172.726 671.271 C 1172.458 671.970, 1173.078 675.233, 1174.104 678.521 C 1175.131 681.809, 1175.977 685.267, 1175.985 686.205 C 1175.995 687.356, 1177.056 688.070, 1179.250 688.402 C 1189.909 690.020, 1190.778 690, 1193.137 688.090 C 1195.318 686.324, 1195.369 686.061, 1193.868 684.345 C 1192.980 683.330, 1191.732 680.925, 1191.096 679 C 1189.695 674.760, 1186.634 672.386, 1180.848 671.051 C 1175.031 669.710, 1173.307 669.757, 1172.726 671.271 M 1144.031 673.250 C 1144.072 674.882, 1147.775 677.502, 1151.250 678.360 C 1153.858 679.003, 1154 678.856, 1154 675.519 L 1154 672 1149 672 C 1145.650 672, 1144.010 672.412, 1144.031 673.250 M 1212.232 677 C 1212.919 678.100, 1213.893 679, 1214.396 679 C 1214.898 679, 1214.495 678.100, 1213.500 677 C 1212.505 675.900, 1211.531 675, 1211.337 675 C 1211.142 675, 1211.545 675.900, 1212.232 677 M 983 692.464 C 980.525 693.231, 976.756 694.505, 974.624 695.294 L 970.749 696.728 978.624 697.333 C 982.956 697.666, 988.750 698.375, 991.500 698.909 C 997.563 700.087, 1014 700.310, 1014 699.214 C 1014 698.782, 1012.118 696.982, 1009.818 695.214 C 1006.695 692.814, 1004.606 691.998, 1001.568 691.991 C 999.331 691.987, 995.250 691.777, 992.500 691.525 C 989.683 691.267, 985.535 691.677, 983 692.464 M 1080.237 693.163 C 1078.450 694.950, 1078.715 696.777, 1080.934 697.965 C 1081.998 698.534, 1083.123 699, 1083.434 699 C 1084.481 699, 1084.011 695.398, 1082.737 693.654 C 1081.733 692.282, 1081.219 692.181, 1080.237 693.163 M 1015.499 695.104 C 1015.898 696.422, 1016.590 697.894, 1017.037 698.375 C 1018.308 699.743, 1023.132 699.401, 1024.098 697.875 C 1025.454 695.735, 1025.201 695.294, 1022.250 694.649 C 1020.737 694.319, 1018.436 693.746, 1017.136 693.378 C 1015.008 692.774, 1014.845 692.946, 1015.499 695.104 M 1005.796 703.846 C 996.675 704.620, 994.316 706.174, 997.861 709.071 C 1000.006 710.823, 1001.934 711, 1018.933 711 C 1033.562 711, 1038.681 710.646, 1042.401 709.379 C 1047.516 707.636, 1047.451 706.941, 1042 705.076 C 1037.826 703.647, 1016.616 702.927, 1005.796 703.846 M 1231 707.380 C 1231 707.889, 1237.550 711, 1238.622 711 C 1238.830 711, 1239 710.599, 1239 710.108 C 1239 709.618, 1237.917 708.945, 1236.593 708.613 C 1235.269 708.280, 1233.469 707.733, 1232.593 707.397 C 1231.717 707.061, 1231 707.053, 1231 707.380 M 1184.923 710.983 C 1184.056 711.490, 1177.480 712.095, 1170.310 712.327 C 1163.140 712.558, 1156.491 713.186, 1155.534 713.721 C 1153.962 714.601, 1154.058 714.900, 1156.533 716.847 C 1158.038 718.031, 1160.447 719.005, 1161.885 719.012 C 1163.323 719.018, 1166.975 719.688, 1170 720.500 C 1173.025 721.312, 1177.205 721.982, 1179.288 721.988 C 1182.776 721.999, 1183.053 722.207, 1182.788 724.613 C 1182.188 730.056, 1190.620 733.325, 1202.665 732.319 C 1209.018 731.789, 1210.066 731.403, 1211.906 728.914 C 1213.479 726.786, 1213.681 725.912, 1212.741 725.303 C 1212.058 724.861, 1206.013 724.611, 1199.306 724.746 C 1192.600 724.881, 1186.867 724.594, 1186.566 724.107 C 1186.265 723.621, 1187.609 722.010, 1189.551 720.529 C 1193.463 717.545, 1193.536 714.979, 1189.802 711.750 C 1187.505 709.764, 1187.113 709.702, 1184.923 710.983 M 1211 716.001 L 1207.500 716.540 1213.371 719.270 C 1219.487 722.114, 1221.010 722.510, 1220.985 721.250 C 1220.919 718.035, 1215.681 715.281, 1211 716.001 M 1226.239 718.379 C 1226.371 720.120, 1227.968 722.888, 1230.279 725.379 C 1232.381 727.646, 1233.670 728.595, 1233.143 727.489 C 1232.616 726.383, 1231.244 724.625, 1230.093 723.584 C 1228.942 722.542, 1227.993 720.972, 1227.985 720.095 C 1227.976 719.218, 1227.531 717.825, 1226.995 717 C 1226.255 715.862, 1226.073 716.194, 1226.239 718.379 M 1005 723.115 C 997.089 724.774, 985 728.351, 985 729.032 C 985 732.349, 995.430 734.983, 1009.800 735.294 C 1019.852 735.512, 1025.572 733.943, 1026.587 730.688 C 1026.962 729.485, 1027.759 728.187, 1028.357 727.804 C 1029.705 726.940, 1028.551 726.501, 1020 724.624 C 1016.425 723.839, 1012.600 722.966, 1011.500 722.684 C 1010.400 722.402, 1007.475 722.596, 1005 723.115 M 1164.250 735.123 C 1162.591 736.818, 1162.671 738.482, 1164.485 739.987 C 1166.657 741.790, 1180.745 741.397, 1183.717 739.450 C 1187.070 737.253, 1185.933 736.382, 1178.782 735.667 C 1175.327 735.322, 1170.925 734.771, 1169 734.443 C 1166.764 734.062, 1165.049 734.308, 1164.250 735.123 M 1028.051 738.951 C 1018.223 741.611, 1018.786 743.207, 1030 744.479 C 1033.025 744.823, 1037.666 745.623, 1040.314 746.257 C 1044.283 747.208, 1045.281 747.164, 1045.998 746.003 C 1046.584 745.055, 1046.274 744.180, 1045.048 743.321 C 1044.047 742.620, 1042.944 740.911, 1042.595 739.523 C 1042.053 737.363, 1041.425 737.015, 1038.231 737.103 C 1036.179 737.160, 1031.598 737.991, 1028.051 738.951 M 1190.807 741.750 C 1188.490 744.448, 1187.784 746, 1188.873 746 C 1189.418 746, 1190.825 744.650, 1192 743 C 1194.276 739.803, 1193.330 738.812, 1190.807 741.750 M 1150.534 743.576 C 1151.876 746.505, 1152.290 760.730, 1151.130 764.057 C 1150.566 765.676, 1150.472 767, 1150.921 767 C 1152.439 767, 1162.033 758.814, 1163.272 756.463 C 1163.947 755.180, 1166.075 753.071, 1168 751.775 C 1174.267 747.559, 1173.143 746.570, 1159.206 744.044 C 1155.744 743.417, 1152.178 742.622, 1151.282 742.278 C 1149.970 741.775, 1149.824 742.027, 1150.534 743.576 M 946.687 749.805 C 943.158 753.488, 943.020 758.232, 946.397 759.771 C 949.391 761.135, 974.528 760.321, 977.750 758.755 C 982.447 756.473, 979.165 748, 973.583 748 C 972.254 748, 971.008 748.477, 970.813 749.060 C 970.585 749.744, 969.403 749.569, 967.480 748.566 C 965.841 747.712, 962.587 747.010, 960.250 747.006 C 956.156 747, 956 747.115, 956 750.122 C 956 752.785, 955.779 753.061, 954.500 752 C 953.675 751.315, 953 750.183, 953 749.485 C 953 748.483, 950.973 747, 949.605 747 C 949.478 747, 948.165 748.262, 946.687 749.805 M 1181.426 750.777 C 1177.487 754.399, 1174.442 758.879, 1173.627 762.250 C 1172.557 766.676, 1174.572 765.410, 1176.457 760.472 C 1177.408 757.982, 1179.725 754.313, 1181.606 752.319 C 1185.706 747.971, 1185.587 746.950, 1181.426 750.777 M 1008.624 756.799 C 1007.634 758.401, 1011.490 766.850, 1014.804 770.339 C 1018.180 773.895, 1024.509 777.597, 1028.701 778.471 C 1030.461 778.837, 1034.061 778.794, 1036.701 778.375 L 1041.500 777.613 1036.121 776.796 C 1029.810 775.838, 1019.367 771.094, 1015.870 767.597 C 1013.481 765.208, 1012.240 763.086, 1010.296 758.061 C 1009.677 756.461, 1009.102 756.027, 1008.624 756.799 M 1149.079 759.583 C 1149.127 760.748, 1149.364 760.985, 1149.683 760.188 C 1149.972 759.466, 1149.936 758.603, 1149.604 758.271 C 1149.272 757.939, 1149.036 758.529, 1149.079 759.583 M 1028 760.883 C 1028 764.158, 1033.211 769.009, 1036.673 768.958 L 1039.500 768.916 1036.286 767.201 C 1034.518 766.258, 1031.931 763.939, 1030.536 762.049 C 1028.241 758.939, 1028 758.828, 1028 760.883 M 1164.629 772.118 C 1161.399 775.291, 1157.190 778.631, 1155.275 779.540 C 1152.774 780.727, 1152.098 781.498, 1152.876 782.276 C 1153.654 783.054, 1154.695 782.966, 1156.570 781.963 C 1160.186 780.027, 1172 768.755, 1172 767.240 C 1172 765.246, 1170.845 766.010, 1164.629 772.118 M 999.999 773.762 C 1003.926 781.890, 1008.939 784.005, 1024.218 783.985 C 1031.109 783.976, 1037.251 783.419, 1040 782.556 C 1044.239 781.224, 1043.771 781.176, 1031.918 781.717 C 1015.913 782.448, 1009.745 780.834, 1003.605 774.310 C 1001.375 771.939, 999.242 770, 998.866 770 C 998.489 770, 998.999 771.693, 999.999 773.762 M 1146 782 C 1146 782.550, 1147.013 782.993, 1148.250 782.985 C 1150.069 782.972, 1150.213 782.784, 1149 782 C 1147.061 780.747, 1146 780.747, 1146 782 M 1005 785.335 C 1005 787.348, 1005.682 788.309, 1007.639 789.053 C 1011.521 790.529, 1011.688 789.461, 1008.142 785.834 L 1005 782.620 1005 785.335 M 1012.049 787.422 C 1013.451 788.869, 1017.726 791.200, 1021.549 792.602 C 1031.902 796.399, 1032.825 796.505, 1035.866 794.257 C 1037.358 793.154, 1040.136 791.917, 1042.040 791.507 C 1043.943 791.098, 1046.400 790.263, 1047.500 789.651 C 1048.600 789.039, 1050.175 788.460, 1051 788.365 C 1051.825 788.270, 1054.671 787.965, 1057.324 787.688 C 1059.978 787.411, 1062.415 786.918, 1062.741 786.592 C 1064.093 785.240, 1052.957 786.177, 1046 788 C 1036.552 790.476, 1032.808 790.489, 1026.177 788.065 C 1023.264 787, 1018.321 785.828, 1015.191 785.460 L 1009.500 784.790 1012.049 787.422 M 1131.559 789.532 C 1130.491 790.339, 1130.099 791, 1130.686 791 C 1131.274 791, 1132.315 790.325, 1133 789.500 C 1134.557 787.624, 1134.067 787.634, 1131.559 789.532 M 1001.467 790.053 C 1000.381 791.810, 1001.812 795.587, 1004.758 798.741 L 1007.537 801.716 1021.019 801.851 C 1033.244 801.973, 1040 801.004, 1040 799.129 C 1040 798.783, 1035.838 798.497, 1030.750 798.492 C 1020.179 798.484, 1012.596 797.420, 1010.762 795.691 C 1006.851 792.001, 1002.060 789.095, 1001.467 790.053 M 1107.119 794.750 C 1106.269 796.269, 1104.823 796.459, 1096.163 796.190 C 1085.712 795.866, 1075.034 797.773, 1064.568 801.834 C 1056.069 805.132, 1054.526 807.520, 1052.180 821 C 1051.654 824.025, 1050.431 829.932, 1049.462 834.126 C 1047.719 841.679, 1047.723 841.796, 1049.851 846.192 C 1053.268 853.251, 1052.778 855.816, 1046.918 861.538 C 1044.122 864.267, 1040.703 868.711, 1039.318 871.412 C 1037.102 875.739, 1036.883 877.080, 1037.480 882.662 C 1038.091 888.361, 1038.710 889.702, 1043.630 895.991 C 1048.803 902.602, 1051.537 905, 1053.903 905 C 1054.472 905, 1054.648 904.247, 1054.295 903.326 C 1053.781 901.986, 1054.036 901.810, 1055.576 902.440 C 1061.462 904.848, 1062.427 904.084, 1059 899.727 C 1057.900 898.329, 1057 896.675, 1057 896.052 C 1057 895.430, 1056.093 893.143, 1054.985 890.970 C 1053.768 888.586, 1052.738 884.038, 1052.386 879.500 C 1051.842 872.478, 1051.959 871.848, 1054.152 869.982 C 1055.731 868.637, 1057.318 868.170, 1059 868.553 C 1061.373 869.095, 1063.917 869.610, 1075.500 871.894 C 1082.765 873.327, 1088.824 873.204, 1095.032 871.496 C 1098.039 870.668, 1104.727 869.319, 1109.894 868.498 C 1115.061 867.677, 1119.786 866.594, 1120.394 866.090 C 1121.762 864.957, 1128.721 866.164, 1131.732 868.056 C 1134.628 869.876, 1136.097 874.175, 1135.059 877.793 C 1134.610 879.361, 1132.163 884.308, 1129.621 888.787 C 1127.079 893.266, 1125 897.171, 1125 897.465 C 1125 898.547, 1130.641 897.960, 1131.867 896.750 C 1132.883 895.748, 1133.406 895.867, 1134.501 897.350 C 1136.231 899.693, 1136.948 899.215, 1142.475 892.032 C 1147.493 885.511, 1147.979 882.550, 1146.007 870.505 C 1144.829 863.313, 1142.798 860.348, 1136.921 857.240 C 1134.490 855.954, 1131.475 854.230, 1130.222 853.410 C 1128.969 852.589, 1127.446 852.225, 1126.837 852.600 C 1125.542 853.401, 1125.772 851.770, 1128.959 837.566 C 1130.929 828.788, 1131.061 826.775, 1130.091 820.256 C 1129.351 815.281, 1129.321 812.269, 1129.997 811.005 C 1130.549 809.975, 1131 808.259, 1131 807.192 C 1131 804.917, 1122.220 796.040, 1118.245 794.295 C 1114.033 792.446, 1108.278 792.682, 1107.119 794.750 M 1042.588 796.858 C 1042.223 797.448, 1044.743 797.967, 1048.947 798.168 C 1052.776 798.350, 1055.592 798.214, 1055.205 797.864 C 1053.910 796.695, 1043.216 795.842, 1042.588 796.858 M 1115 799.975 C 1114.175 800.522, 1111.167 801.656, 1108.314 802.494 C 1102.182 804.297, 1101.271 806.088, 1103.359 812.238 C 1104.166 814.615, 1105.134 818.196, 1105.509 820.195 C 1106.525 825.612, 1110.130 828.500, 1115.875 828.500 C 1118.785 828.500, 1121.673 827.789, 1123.425 826.641 C 1126.139 824.863, 1126.236 824.533, 1125.662 819.040 C 1125.223 814.839, 1125.448 812.788, 1126.499 811.399 C 1128.815 808.339, 1128.233 805.686, 1124.613 802.797 C 1120.635 799.624, 1117.096 798.585, 1115 799.975 M 1037.449 803.367 C 1034.670 804.545, 1031.154 806.324, 1029.634 807.320 C 1026.676 809.259, 1023.540 809.022, 1017.096 806.373 C 1015.225 805.603, 1013.425 805.243, 1013.096 805.573 C 1011.957 806.718, 1016.993 809.799, 1021.947 810.987 C 1026.240 812.017, 1027.382 811.947, 1030.214 810.480 C 1044.162 803.252, 1044.867 803, 1051.194 802.985 C 1055.634 802.974, 1057.056 802.683, 1056 802 C 1053.370 800.300, 1042.849 801.076, 1037.449 803.367 M 1065.295 804.107 C 1061.557 805.188, 1058.998 808.389, 1059.006 811.973 C 1059.009 813.363, 1060.284 817.650, 1061.841 821.500 C 1063.867 826.513, 1065.423 828.868, 1067.321 829.798 C 1071.067 831.632, 1076.848 830.306, 1080.343 826.811 C 1083.047 824.107, 1083.180 823.595, 1082.530 818.394 C 1080.904 805.377, 1075.732 801.089, 1065.295 804.107 M 1050.250 807.584 C 1046.731 810.357, 1046.097 812, 1048.545 812 C 1050.285 812, 1055 807.651, 1055 806.045 C 1055 804.412, 1053.768 804.811, 1050.250 807.584 M 1044.945 807.566 C 1042.862 810.076, 1038.377 812, 1034.609 812 C 1032.689 812, 1030.863 812.413, 1030.550 812.919 C 1029.751 814.212, 1035.417 815.287, 1038.948 814.511 C 1043.040 813.613, 1050.351 806, 1047.122 806 C 1046.640 806, 1045.660 806.705, 1044.945 807.566 M 1034 818.441 C 1034 819.298, 1034.450 820, 1035 820 C 1035.550 820, 1036 819.577, 1036 819.059 C 1036 818.541, 1035.550 817.840, 1035 817.500 C 1034.450 817.160, 1034 817.584, 1034 818.441" stroke="none" fill="black" fill-rule="evenodd"/>
	<path fill-opacity="0.935" d="M -0 540.001 L -0 1080.001 960.250 1079.751 L 1920.500 1079.500 1920.751 539.750 L 1921.002 0 960.501 0 L 0 0 -0 540.001 M 0.496 540.500 C 0.496 837.500, 0.610 958.851, 0.750 810.168 C 0.890 661.485, 0.890 418.485, 0.750 270.168 C 0.610 121.851, 0.496 243.500, 0.496 540.500 M 1083 353.377 C 1083 354.418, 1081.900 354.630, 1078.500 354.247 C 1072.893 353.615, 1072.772 354.570, 1077.576 361.545 C 1083.319 369.884, 1083.910 377.586, 1079.196 382.667 C 1075.598 386.545, 1071.450 388.311, 1069.009 387.005 C 1066.214 385.509, 1049.704 385.796, 1039.906 387.510 C 1031.090 389.052, 1017.721 393.157, 1015.493 395.006 C 1013.910 396.320, 1009.879 394.879, 1006.951 391.951 C 1004.084 389.084, 1001.047 382.183, 1001.032 378.500 C 1001.019 375.300, 1005.059 365.699, 1006.897 364.564 C 1007.504 364.189, 1008 362.957, 1008 361.827 C 1008 360.138, 1007.511 359.857, 1005.250 360.245 C 1003.737 360.505, 1001.712 361.054, 1000.750 361.466 C 999.499 362.001, 999 361.756, 999 360.607 C 999 356.310, 991.356 360.944, 988.750 366.821 C 986.254 372.452, 985.280 384.287, 986.907 389.218 C 988.396 393.729, 993.911 400.133, 1000.500 405 C 1005.332 408.570, 1005.775 409.247, 1006.411 414.042 C 1007.943 425.587, 1014.273 445.503, 1018.239 451.250 L 1020.136 454 1016.318 454.015 C 1011.687 454.034, 1009.423 455.258, 1010.574 457.120 C 1011.031 457.859, 1010.128 457.459, 1008.567 456.232 C 1007.007 455.004, 1004.441 454, 1002.865 454 C 1000.476 454, 1000 453.585, 1000 451.500 C 1000 449.866, 999.441 449, 998.387 449 C 997.167 449, 996.879 449.724, 997.208 451.962 C 997.482 453.830, 997.155 455.110, 996.321 455.430 C 995.595 455.709, 995 456.674, 995 457.576 C 995 458.621, 994.457 459.006, 993.500 458.638 C 992.675 458.322, 992 458.499, 992 459.031 C 992 459.564, 990.942 460, 989.648 460 C 988.355 460, 985.880 461.354, 984.148 463.009 C 980.845 466.166, 980.148 467.999, 982.250 468.002 C 982.938 468.002, 981.934 468.790, 980.020 469.752 C 975.746 471.899, 971.805 477.549, 972.204 480.957 C 972.526 483.701, 976 485.232, 976 482.629 C 976 479.974, 980.323 476.318, 986 474.172 C 990.456 472.488, 994.252 472.037, 1006 471.797 C 1019.320 471.524, 1020.766 471.311, 1023.762 469.174 C 1026.983 466.876, 1027.293 464.290, 1024.205 465.475 C 1022.928 465.965, 1022.980 465.679, 1024.467 464.037 C 1026.874 461.377, 1025.751 460.327, 1022.254 461.967 C 1016.384 464.720, 1012.948 464.919, 1006.364 462.885 C 1002.349 461.645, 1000 460.381, 1000 459.460 C 1000 457.327, 1002.394 457.664, 1007.978 460.584 C 1012.485 462.940, 1015.829 463.150, 1014.496 460.993 C 1014.201 460.516, 1015.186 460.347, 1016.685 460.619 C 1018.184 460.891, 1020.494 460.842, 1021.818 460.510 C 1024.138 459.927, 1024.161 459.835, 1022.457 457.953 C 1019.856 455.078, 1021.368 455.560, 1027.291 459.492 C 1036.395 465.538, 1051.520 466.479, 1065.356 461.862 C 1073.259 459.224, 1075.342 457.704, 1079.331 451.659 C 1087.600 439.131, 1088.494 415.427, 1081.190 402.375 C 1080.462 401.074, 1081.231 399.816, 1084.723 396.605 C 1090.073 391.686, 1093.419 385.472, 1095.047 377.437 C 1096.593 369.809, 1094.571 362.195, 1089.394 356.147 C 1085.850 352.007, 1083 350.772, 1083 353.377 M 1069.929 430.250 C 1065.054 435.356, 1062.714 444.689, 1065.150 449.316 C 1070.410 459.309, 1082.451 447.855, 1080.667 434.554 C 1079.798 428.075, 1074.163 425.816, 1069.929 430.250 M 1030.367 433.772 C 1027.296 436.260, 1026 439.290, 1026 443.984 C 1026 454.190, 1035.215 461.181, 1042.434 456.451 C 1045.897 454.182, 1047.371 449.784, 1046.666 443.829 C 1045.992 438.133, 1044.049 435.380, 1039.282 433.362 C 1035.061 431.575, 1032.960 431.672, 1030.367 433.772 M 1078.313 456.627 C 1077.859 457.810, 1078.400 458.852, 1080.025 459.928 C 1084.007 462.564, 1087.406 466.365, 1086.153 466.782 C 1083.937 467.521, 1085.027 469.785, 1088.362 471.368 C 1090.211 472.245, 1092.292 473.646, 1092.985 474.482 C 1094.357 476.135, 1097 476.545, 1097 475.104 C 1097 473.904, 1090.220 468, 1088.843 468 C 1088.074 468, 1088.083 467.605, 1088.872 466.654 C 1089.740 465.608, 1089.104 464.436, 1086.025 461.404 C 1079.356 454.836, 1079.069 454.658, 1078.313 456.627 M 996.813 459.683 C 997.534 459.972, 998.397 459.936, 998.729 459.604 C 999.061 459.272, 998.471 459.036, 997.417 459.079 C 996.252 459.127, 996.015 459.364, 996.813 459.683 M 990.504 463.826 C 989.407 464.054, 987.526 465.014, 986.325 465.959 C 984.223 467.612, 984.508 467.673, 993.991 467.588 C 999.436 467.539, 1003.208 467.144, 1002.427 466.704 C 999.678 465.156, 992.473 463.417, 990.504 463.826 M 1099.105 468.117 C 1096.464 470.577, 1097.726 473.302, 1100.458 471.035 C 1101.306 470.331, 1102 470.170, 1102 470.678 C 1102 471.185, 1103.463 471.622, 1105.250 471.649 C 1108.605 471.699, 1117.065 475.423, 1139.500 486.728 C 1153.846 493.956, 1157.108 495.169, 1159.021 493.987 C 1159.896 493.446, 1158.735 492.488, 1155.405 491 C 1149.511 488.366, 1149.298 488.261, 1131 478.967 C 1123.025 474.916, 1116.275 471.353, 1116 471.051 C 1114.530 469.432, 1106.440 466, 1104.094 466 C 1102.600 466, 1100.355 466.952, 1099.105 468.117 M 975.500 468 C 974.684 469.320, 975.880 471.192, 977.069 470.457 C 978.284 469.707, 978.276 467, 977.059 467 C 976.541 467, 975.840 467.450, 975.500 468 M 1008.813 468.683 C 1009.534 468.972, 1010.397 468.936, 1010.729 468.604 C 1011.061 468.272, 1010.471 468.036, 1009.417 468.079 C 1008.252 468.127, 1008.015 468.364, 1008.813 468.683 M 1030 473.151 C 1027.525 473.664, 1019.702 473.838, 1012.616 473.539 C 997.242 472.890, 993.811 473.654, 987.620 479.103 C 982.206 483.869, 980.236 486.910, 981.896 487.936 C 982.563 488.348, 981.408 489.781, 978.977 491.559 C 974.181 495.066, 971.742 499.586, 972.180 504.153 L 972.500 507.491 975.719 502.456 C 979.151 497.088, 982.369 494.282, 988 491.745 C 991.746 490.057, 994.167 489.558, 1006.178 488 C 1015.816 486.750, 1030.003 483.397, 1031.349 482.051 C 1033.123 480.277, 1031.652 480.124, 1026.259 481.523 C 1023.379 482.270, 1015.279 483.380, 1008.261 483.990 C 1001.242 484.600, 993.925 485.326, 992 485.604 L 988.500 486.109 992.500 483.539 C 998.722 479.543, 1008.180 477.001, 1016.855 476.994 C 1026.691 476.987, 1035.973 475.455, 1037.908 473.521 C 1039.269 472.160, 1039.170 472.012, 1036.964 472.110 C 1035.609 472.170, 1032.475 472.639, 1030 473.151 M 979.106 480.901 C 976.744 483.107, 976 484.665, 976 487.401 C 976 492.356, 977.507 491.907, 980.464 486.071 C 981.838 483.360, 983.428 480.854, 983.997 480.502 C 985.111 479.813, 984.422 478, 983.047 478 C 982.587 478, 980.814 479.306, 979.106 480.901 M 1099 482.975 C 1099 483.460, 1099.604 484.461, 1100.342 485.199 C 1102.376 487.233, 1104 490.635, 1104 492.863 C 1104 493.960, 1104.675 495.532, 1105.500 496.357 C 1106.325 497.182, 1107 498.796, 1107 499.944 C 1107 503.068, 1111.861 502.380, 1121.824 497.848 C 1129.054 494.559, 1130.105 493.762, 1129.824 491.784 C 1129.565 489.966, 1128.558 489.305, 1124.827 488.504 C 1122.257 487.952, 1119.819 487.163, 1119.410 486.750 C 1119.001 486.337, 1117.717 486, 1116.556 486 C 1115.395 486, 1113.381 485.255, 1112.080 484.344 C 1109.573 482.588, 1099 481.481, 1099 482.975 M 1012 489.479 C 997.714 491.264, 994.723 492.372, 990.146 497.571 C 987.671 500.384, 985.919 503.521, 985.526 505.846 C 984.872 509.716, 986.238 515, 987.892 515 C 989.269 515, 989.852 512.739, 988.936 510.949 C 988.459 510.017, 988.866 507.782, 989.955 505.348 C 992.390 499.910, 1001.092 494.382, 1008.719 493.429 C 1016.703 492.432, 1023.308 490.576, 1023.766 489.202 C 1023.986 488.541, 1023.567 488.066, 1022.833 488.146 C 1022.100 488.226, 1017.225 488.826, 1012 489.479 M 1099.557 492.504 C 1100.503 496.445, 1100.950 497.149, 1102.069 496.457 C 1103.473 495.590, 1103.210 494.548, 1100.919 491.907 L 1098.838 489.508 1099.557 492.504 M 1206.285 491.725 C 1200.665 496.718, 1190 514.236, 1190 518.475 C 1190 521.695, 1192.017 519.752, 1194.905 513.750 C 1197.805 507.724, 1201.930 501.055, 1206.960 494.262 C 1209.685 490.582, 1209.281 489.064, 1206.285 491.725 M 1135 497 C 1134.175 497.533, 1132.630 497.976, 1131.566 497.985 C 1128.701 498.007, 1121.271 501.852, 1120.572 503.673 C 1119.687 505.980, 1121.818 508, 1125.138 508 C 1128.650 508, 1136 505.805, 1136 504.757 C 1136 504.340, 1136.735 504, 1137.634 504 C 1138.533 504, 1141.008 503.479, 1143.134 502.842 C 1149.776 500.852, 1147.408 495.980, 1139.816 496.015 C 1137.992 496.024, 1135.825 496.467, 1135 497 M 1101.785 500.990 C 1102.295 504.463, 1104 504.041, 1104 500.441 C 1104 499.080, 1103.413 498, 1102.673 498 C 1101.769 498, 1101.486 498.952, 1101.785 500.990 M 1160.686 500.337 C 1149.152 503.998, 1139.857 513.339, 1142.900 518.212 C 1143.581 519.303, 1143.995 520.323, 1143.819 520.479 C 1143.644 520.636, 1141.250 521.238, 1138.499 521.818 C 1131.869 523.216, 1120.341 528.675, 1118.515 531.283 C 1116.857 533.649, 1118.058 536, 1120.922 536 C 1121.845 536, 1123.028 536.406, 1123.550 536.903 C 1124.108 537.434, 1126.562 537.447, 1129.500 536.934 C 1132.250 536.453, 1138.100 535.532, 1142.500 534.885 C 1151.410 533.576, 1154.536 531.614, 1155.228 526.898 C 1155.592 524.422, 1155.131 523.626, 1152.330 521.895 C 1147.035 518.623, 1148.062 517.463, 1158.364 515.083 C 1163.515 513.892, 1168.577 512.276, 1169.614 511.491 C 1170.652 510.706, 1172.400 510.039, 1173.500 510.010 C 1174.600 509.980, 1176.529 509.164, 1177.786 508.196 L 1180.073 506.436 1177.786 502.226 C 1175.671 498.331, 1175.201 498.022, 1171.500 498.096 C 1169.300 498.139, 1164.434 499.148, 1160.686 500.337 M 1003.775 501.559 C 1000.566 503.300, 999 505.883, 999 509.434 C 999 512.836, 1000.470 512.695, 1001.937 509.151 C 1002.586 507.584, 1004.891 505.305, 1007.059 504.087 C 1009.226 502.869, 1011 501.451, 1011 500.936 C 1011 499.528, 1006.860 499.885, 1003.775 501.559 M 1011.037 513.174 C 1009.132 513.721, 1006.432 514.934, 1005.037 515.870 C 1003.641 516.806, 1001.286 518.182, 999.803 518.927 C 996.982 520.343, 995.599 522.543, 996.556 524.090 C 997.191 525.119, 1006.012 525.156, 1013.472 524.162 C 1018.264 523.524, 1018.450 523.379, 1018.609 520.163 C 1018.700 518.327, 1019.275 516.325, 1019.887 515.713 C 1023.295 512.305, 1018.678 510.982, 1011.037 513.174 M 1176.574 515.008 C 1170.955 517.800, 1169.050 519.402, 1169.015 521.367 C 1169.007 521.843, 1170.237 521.932, 1171.750 521.563 C 1173.263 521.194, 1175.400 520.905, 1176.500 520.921 C 1181.869 520.998, 1188 516.794, 1188 513.035 C 1188 511.105, 1182.525 512.050, 1176.574 515.008 M 937.500 516.604 C 933.100 517.431, 929.072 518.533, 928.550 519.054 C 928.028 519.574, 926.678 520.014, 925.550 520.032 C 922.848 520.074, 920 522.303, 920 524.375 C 920 526.200, 925.524 529.990, 928.193 529.996 C 929.125 529.998, 930.587 529, 931.443 527.777 L 933 525.555 933 527.777 C 933 529, 933.592 530, 934.316 530 C 938.097 530, 947.713 527.634, 949.146 526.351 C 950.309 525.310, 950.907 525.220, 951.181 526.043 C 951.474 526.922, 952.609 526.898, 955.785 525.946 C 959.604 524.802, 960 524.381, 960 521.464 C 960 519.694, 959.391 517.740, 958.648 517.123 C 956.407 515.263, 946.001 515.008, 937.500 516.604 M 1200.007 517.743 C 1196.751 519.020, 1190.302 527, 1192.526 527 C 1193.889 527, 1203 519.420, 1203 518.287 C 1203 516.916, 1202.396 516.807, 1200.007 517.743 M 1035.008 520.974 C 1033.891 521.680, 1033.803 522.203, 1034.658 523.058 C 1036.109 524.509, 1040 523.326, 1040 521.433 C 1040 519.811, 1037.248 519.558, 1035.008 520.974 M 990 529.652 C 987.608 530.016, 984.272 530.848, 975.500 533.269 C 970.196 534.732, 966 537.699, 966 539.985 C 966 542.496, 973.286 544, 985.450 544 C 993.153 544, 995.693 543.587, 999.860 541.656 C 1008.379 537.710, 1009.884 535.667, 1005.500 534 C 1004.125 533.477, 1003 532.661, 1003 532.185 C 1003 529.865, 996.689 528.636, 990 529.652 M 1144.500 549.794 L 1139.500 551.500 1139.737 556 C 1139.868 558.475, 1140.502 562.188, 1141.147 564.250 C 1142.140 567.423, 1142.755 568, 1145.150 568 C 1146.706 568, 1150.839 566.855, 1154.334 565.456 C 1163.967 561.600, 1167.869 554.828, 1163.342 549.825 C 1161.178 547.434, 1151.461 547.418, 1144.500 549.794 M 1007 551.505 C 989.896 553.995, 980 557.444, 980 560.914 C 980 562.260, 980.995 562.964, 983.578 563.449 C 987.236 564.135, 1004.101 562.567, 1009.500 561.039 C 1011.150 560.572, 1014.300 559.881, 1016.500 559.504 C 1021.443 558.657, 1029 555.299, 1029 553.950 C 1029 552.684, 1024.971 551.135, 1020.191 550.563 C 1018.161 550.320, 1012.225 550.744, 1007 551.505 M 1187.162 557.750 C 1186.129 559.813, 1184.961 562.838, 1184.567 564.473 C 1183.856 567.420, 1183.868 567.429, 1185.905 565.586 C 1187.036 564.562, 1188.253 562.100, 1188.611 560.113 C 1188.968 558.126, 1189.707 555.938, 1190.253 555.250 C 1190.923 554.406, 1190.887 554, 1190.143 554 C 1189.537 554, 1188.195 555.688, 1187.162 557.750 M 1062.040 558.452 C 1060.370 560.464, 1061.135 563.402, 1063.445 563.847 C 1064.503 564.051, 1065.956 563.412, 1066.676 562.429 C 1067.774 560.927, 1067.719 560.347, 1066.337 558.820 C 1064.346 556.620, 1063.612 556.558, 1062.040 558.452 M 1117.500 563.719 C 1114.673 564.408, 1112 567.001, 1112 569.054 C 1112 570.409, 1113.061 570.893, 1116.750 571.223 C 1119.362 571.457, 1121.561 571.614, 1121.636 571.574 C 1121.710 571.533, 1122.087 569.587, 1122.474 567.250 C 1123.222 562.719, 1122.810 562.426, 1117.500 563.719 M 1001.035 565.934 C 999.238 569.293, 999.756 573.703, 1002.018 574.294 C 1003.127 574.585, 1004.611 574.246, 1005.314 573.543 C 1006.018 572.839, 1007.562 571.956, 1008.745 571.581 C 1011.765 570.622, 1012.654 567.211, 1010.341 565.458 C 1007.558 563.350, 1002.274 563.620, 1001.035 565.934 M 987.500 566.155 C 985.300 566.664, 981.700 567.450, 979.500 567.902 C 968.544 570.152, 954.664 575.492, 955.244 577.233 C 955.804 578.912, 973.138 579.377, 981.117 577.926 C 984.628 577.288, 989.087 576.556, 991.026 576.299 C 993.845 575.926, 994.998 575.058, 996.776 571.968 C 1000.035 566.305, 999.739 564.977, 995.250 565.115 C 993.188 565.178, 989.700 565.646, 987.500 566.155 M 1104.359 573.507 C 1104.011 574.414, 1104.383 575.812, 1105.186 576.614 C 1107.187 578.615, 1110.188 577.321, 1109.803 574.623 C 1109.424 571.965, 1105.277 571.115, 1104.359 573.507 M 1153.500 577.396 C 1144.177 579.682, 1122.558 591.668, 1121.447 595.166 C 1121.101 596.258, 1121.056 597.390, 1121.349 597.682 C 1121.641 597.974, 1125.373 596.555, 1129.642 594.529 C 1134.605 592.173, 1138.308 591.017, 1139.908 591.323 C 1141.825 591.689, 1143.149 590.997, 1145.552 588.373 C 1147.577 586.163, 1149.252 585.160, 1150.268 585.549 C 1152.336 586.343, 1155.838 584.443, 1159.250 580.676 C 1163.786 575.668, 1162.813 575.113, 1153.500 577.396 M 1055.046 579.730 C 1052.895 580.577, 1045.832 585.214, 1043.250 587.475 C 1038.865 591.313, 1040.217 592.270, 1049.250 591.720 C 1059.910 591.072, 1062.625 589.983, 1063.499 586.006 C 1064.547 581.235, 1059.931 577.807, 1055.046 579.730 M 1035.336 589.567 C 1034.502 591.739, 1036.618 593.782, 1038.133 592.267 C 1039.413 590.987, 1038.620 588, 1037 588 C 1036.415 588, 1035.667 588.705, 1035.336 589.567 M 1038 594.525 C 1035.525 595.296, 1025.801 598.190, 1016.390 600.956 C 995.943 606.966, 993.233 608.043, 990.076 611.413 C 987.778 613.865, 987.756 614, 989.659 614 C 990.763 614, 991.995 613.672, 992.396 613.270 C 992.797 612.869, 997.260 612.455, 1002.313 612.350 C 1020.622 611.969, 1042.771 606.604, 1047.846 601.321 C 1049.943 599.139, 1050.063 598.567, 1048.975 595.940 C 1047.574 592.557, 1045.272 592.260, 1038 594.525 M 1041.500 651.552 C 1038.835 652.446, 1034.997 652.709, 1030 652.340 C 1023.996 651.897, 1021.220 652.207, 1016.085 653.893 C 1009.217 656.149, 1004 656.626, 1004 655 C 1004 654.450, 1003.100 654, 1002 654 C 999.593 654, 999.366 656.509, 1001.573 658.716 C 1003.033 660.175, 1013.903 660.970, 1023 660.283 C 1024.375 660.179, 1030.615 660.339, 1036.868 660.639 C 1047.074 661.128, 1048.288 661.384, 1048.748 663.145 C 1049.123 664.578, 1049.968 665.026, 1051.881 664.804 C 1053.321 664.637, 1054.402 663.980, 1054.282 663.345 C 1054.162 662.710, 1054.747 661.927, 1055.584 661.606 C 1056.427 661.283, 1056.839 661.452, 1056.508 661.987 C 1055.700 663.294, 1061.588 668.536, 1066.500 670.881 C 1068.700 671.931, 1072.449 673.024, 1074.831 673.311 C 1078.907 673.801, 1079.223 673.660, 1080.179 670.916 C 1080.738 669.312, 1081.602 668, 1082.098 668 C 1083.811 668, 1082.992 665.283, 1080.452 662.542 C 1078.308 660.230, 1077.354 659.889, 1074.452 660.396 C 1072.553 660.728, 1069.466 661.269, 1067.592 661.599 C 1064.267 662.183, 1064.188 662.117, 1064.342 658.941 C 1064.487 655.948, 1064.056 655.459, 1059 652.885 C 1052.911 649.785, 1047.902 649.404, 1041.500 651.552 M 1148 650.848 C 1148 651.755, 1151.601 653.430, 1162 657.362 C 1170.565 660.600, 1171.583 660.861, 1177.750 661.402 C 1181.104 661.697, 1183 661.476, 1183 660.792 C 1183 658.934, 1179.626 657.065, 1176.215 657.032 C 1174.408 657.014, 1171.824 656.276, 1170.473 655.390 C 1169.121 654.505, 1167.385 654.022, 1166.614 654.318 C 1165.844 654.613, 1161.773 653.763, 1157.569 652.428 C 1149.220 649.777, 1148 649.575, 1148 650.848 M 1133.592 664.556 C 1132.179 665.590, 1132.056 666.237, 1132.956 667.918 C 1134.256 670.348, 1137.224 670.640, 1138.989 668.513 C 1141.615 665.349, 1137.067 662.015, 1133.592 664.556 M 1173.250 668.710 C 1170.497 669.235, 1170.472 670.137, 1172.987 678.161 C 1174.080 681.647, 1174.980 685.272, 1174.987 686.215 C 1175.006 688.764, 1177.835 689.829, 1185.041 690.002 C 1194.115 690.220, 1193.921 690.269, 1195.186 687.490 C 1196.169 685.333, 1196.002 684.631, 1193.991 682.490 C 1192.704 681.121, 1191.966 680, 1192.351 680 C 1193.277 680, 1190.035 673.713, 1188.610 672.746 C 1187.664 672.103, 1184.752 671.098, 1177 668.738 C 1176.175 668.486, 1174.487 668.474, 1173.250 668.710 M 1144.750 670.816 C 1143.223 670.992, 1142 671.750, 1142 672.521 C 1142 674.466, 1146.742 678.997, 1148.795 679.014 C 1149.733 679.021, 1151.540 679.306, 1152.810 679.646 C 1155.020 680.238, 1155.107 680.053, 1154.810 675.382 C 1154.502 670.528, 1154.480 670.500, 1151 670.500 C 1149.075 670.500, 1146.263 670.642, 1144.750 670.816 M 1209 673.859 C 1209 675.185, 1217.032 684, 1218.240 684 C 1218.828 684, 1218.565 683.177, 1217.655 682.171 C 1216.745 681.165, 1216 679.923, 1216 679.411 C 1216 678.899, 1214.857 677.247, 1213.460 675.740 C 1210.941 673.024, 1209 672.205, 1209 673.859 M 984.712 691.032 C 983.729 691.642, 982.379 691.947, 981.712 691.710 C 981.046 691.472, 978.830 692.115, 976.790 693.139 C 974.749 694.162, 972.124 695, 970.957 695 C 969.705 695, 969.002 695.513, 969.245 696.250 C 969.492 697, 972.423 697.756, 976.579 698.140 C 1000.588 700.359, 1013.194 701.130, 1014.735 700.474 C 1015.706 700.061, 1017.960 699.820, 1019.745 699.938 C 1021.621 700.062, 1023.656 699.486, 1024.568 698.575 C 1026.331 696.812, 1026.048 693.359, 1024.173 693.756 C 1023.508 693.897, 1021.342 693.334, 1019.360 692.506 C 1014.157 690.332, 1013.663 690.535, 1014.319 694.581 C 1014.849 697.842, 1014.749 698.044, 1013.200 696.833 C 1012.265 696.102, 1010.759 694.700, 1009.853 693.717 C 1008.102 691.819, 1005.923 691.374, 994 690.483 C 989.274 690.129, 985.839 690.332, 984.712 691.032 M 1079.011 693.487 C 1078.332 694.305, 1078.040 695.662, 1078.362 696.502 C 1079.177 698.625, 1084.021 700.379, 1085.363 699.037 C 1086.079 698.321, 1086.063 698, 1085.311 698 C 1084.712 698, 1084.243 697.438, 1084.269 696.750 C 1084.399 693.236, 1083.841 692, 1082.122 692 C 1081.090 692, 1079.689 692.669, 1079.011 693.487 M 1005.852 702.944 C 994.928 703.861, 991.617 707.301, 998.509 710.571 C 1001.529 712.004, 1004.703 712.169, 1021.259 711.753 C 1039.214 711.301, 1045.679 710.380, 1048.433 707.880 C 1049.976 706.481, 1048.500 705.841, 1039.294 703.917 C 1030.375 702.053, 1020.045 701.752, 1005.852 702.944 M 1229 706.911 C 1229 708.228, 1237.753 712.270, 1238.973 711.517 C 1240.756 710.414, 1240.107 709.421, 1236.466 707.685 C 1232.609 705.846, 1229 705.472, 1229 706.911 M 1184 710.134 C 1182.625 710.688, 1176.388 711.310, 1170.140 711.516 C 1153.842 712.052, 1150.837 712.980, 1154.271 716.413 C 1156.542 718.685, 1159.800 720, 1163.184 720.011 C 1165.008 720.017, 1168.709 720.692, 1171.409 721.511 C 1174.109 722.330, 1177.644 723, 1179.266 723 C 1181.536 723, 1182.075 723.362, 1181.611 724.572 C 1179.684 729.592, 1187.242 733, 1200.300 733 L 1209.560 733 1212.903 729.456 C 1214.741 727.507, 1215.929 725.594, 1215.543 725.206 C 1215.157 724.818, 1208.464 724.271, 1200.671 723.992 C 1188.978 723.573, 1186.944 723.285, 1189.041 722.346 C 1190.439 721.720, 1192.167 720.504, 1192.881 719.643 C 1195.331 716.691, 1191.162 708.765, 1187.316 709.063 C 1186.867 709.098, 1185.375 709.580, 1184 710.134 M 1225.667 713.667 C 1224.176 715.157, 1225.105 720.958, 1227.250 723.554 C 1230.547 727.546, 1236.741 733.221, 1240.195 735.415 C 1243.049 737.227, 1243.191 737.233, 1242.855 735.522 C 1242.660 734.528, 1241.670 733.216, 1240.656 732.607 C 1234.439 728.874, 1228 720.051, 1228 715.265 C 1228 713.042, 1226.986 712.348, 1225.667 713.667 M 1207 716.128 C 1207 717.932, 1218.251 723.224, 1220.364 722.414 C 1222.463 721.608, 1222.425 720.746, 1220.166 717.957 C 1218.766 716.228, 1216.991 715.581, 1212.666 715.222 C 1208.297 714.860, 1207 715.067, 1207 716.128 M 1004 722.494 C 995.052 724.180, 985.896 726.704, 984.818 727.782 C 983.266 729.334, 987.286 733.054, 991.500 733.967 C 997.341 735.232, 1018.215 736.331, 1021.731 735.559 C 1023.560 735.157, 1026.033 733.298, 1028.008 730.840 C 1031.794 726.130, 1031.355 725.502, 1023.548 724.455 C 1020.772 724.083, 1016.983 723.153, 1015.128 722.389 C 1013.273 721.625, 1011.473 721.061, 1011.128 721.135 C 1010.783 721.209, 1007.575 721.821, 1004 722.494 M 1162.401 735.511 C 1160.665 738.160, 1160.679 738.250, 1163.065 740.084 C 1166.688 742.869, 1181.454 742.789, 1185 739.965 C 1187.362 738.085, 1187.401 737.899, 1185.713 736.600 C 1184.730 735.844, 1180.905 734.925, 1177.213 734.558 C 1173.521 734.191, 1169.076 733.648, 1167.335 733.350 C 1164.691 732.898, 1163.880 733.253, 1162.401 735.511 M 1060.750 735.203 C 1058.688 735.750, 1057 736.604, 1057 737.099 C 1057 738.498, 1060.786 738.162, 1064.050 736.474 C 1069.030 733.899, 1067.654 733.369, 1060.750 735.203 M 1037 736.690 C 1034.525 736.877, 1029.668 737.770, 1026.207 738.675 C 1017.579 740.930, 1018.025 743.028, 1027.511 744.819 C 1031.355 745.545, 1036.689 746.782, 1039.365 747.569 C 1045.669 749.423, 1045.917 749.398, 1046.873 746.814 C 1047.480 745.172, 1046.957 743.555, 1044.770 740.314 C 1043.169 737.941, 1041.778 736.079, 1041.679 736.175 C 1041.581 736.271, 1039.475 736.503, 1037 736.690 M 1130 739 C 1130 739.550, 1130.450 740, 1131 740 C 1131.550 740, 1132 739.550, 1132 739 C 1132 738.450, 1131.550 738, 1131 738 C 1130.450 738, 1130 738.450, 1130 739 M 1189.446 742.500 C 1187.418 744.975, 1185.213 747, 1184.545 747 C 1182.454 747, 1173 758.619, 1173 761.189 C 1173 762.889, 1164.278 772.198, 1159 776.130 C 1155.650 778.626, 1152.229 779.902, 1147.162 780.546 C 1141.352 781.285, 1143.546 783.644, 1150.246 783.863 C 1155.305 784.028, 1155.884 783.774, 1162.033 778.692 C 1169.810 772.265, 1175.002 766.072, 1177.704 760 C 1178.806 757.525, 1181.431 753.925, 1183.539 752 C 1190.233 745.886, 1196 739.820, 1196 738.895 C 1196 736.644, 1192.804 738.402, 1189.446 742.500 M 1141.365 742.003 C 1142.037 745.539, 1142.288 746.680, 1143.786 753 L 1144.616 756.500 1145.283 753.250 C 1146.036 749.579, 1145.165 743.780, 1143.972 744.518 C 1143.540 744.784, 1143.401 744.183, 1143.663 743.182 C 1143.925 742.180, 1143.365 740.718, 1142.420 739.933 C 1140.835 738.618, 1140.752 738.780, 1141.365 742.003 M 1148.440 741.576 C 1150.095 745.623, 1150.338 747.327, 1149.153 746.595 C 1148.309 746.073, 1148.008 747.878, 1148.052 753.188 C 1148.085 757.210, 1147.637 762.072, 1147.056 763.993 C 1145.513 769.097, 1145.638 770.545, 1147.487 769.011 C 1148.305 768.332, 1149.665 768.041, 1150.510 768.365 C 1151.354 768.690, 1152.848 768.177, 1153.828 767.227 C 1154.809 766.277, 1157.497 763.925, 1159.801 762 C 1162.105 760.075, 1163.992 757.928, 1163.995 757.229 C 1163.998 756.531, 1166.025 754.531, 1168.500 752.787 C 1170.975 751.042, 1173 748.874, 1173 747.968 C 1173 745.934, 1168.976 744.004, 1164.703 743.988 C 1161.640 743.977, 1153.647 742.101, 1149.576 740.439 C 1147.958 739.777, 1147.778 739.958, 1148.440 741.576 M 946.236 748.443 C 945.068 749.787, 943.822 752.432, 943.467 754.322 C 942.942 757.124, 943.251 758.156, 945.146 759.921 C 947.366 761.989, 948.067 762.058, 960.984 761.465 C 968.418 761.125, 975.743 760.373, 977.263 759.796 C 980.601 758.528, 981.682 755.060, 980.002 751.005 C 978.542 747.480, 977.502 747.245, 961 746.711 C 954.624 746.504, 954.504 746.548, 954.725 749 C 954.944 751.443, 954.925 751.437, 953.891 748.750 C 952.543 745.244, 949.136 745.108, 946.236 748.443 M 1008.362 756.692 C 1007.874 758.637, 1008.433 760.788, 1010.375 764.442 C 1014.076 771.404, 1016.780 774.231, 1022.294 776.900 C 1026.785 779.075, 1027.695 779.150, 1041.028 778.463 C 1048.736 778.066, 1055.284 777.350, 1055.580 776.871 C 1056.211 775.849, 1055.859 775.818, 1041.500 775.632 C 1031.615 775.503, 1029.942 775.207, 1025 772.709 C 1021.975 771.181, 1018.807 769.383, 1017.959 768.715 C 1016.131 767.273, 1010.817 760.356, 1010.925 759.557 C 1011.637 754.268, 1009.555 751.940, 1008.362 756.692 M 1027.373 761.250 C 1028.189 765.512, 1033.135 770, 1037.016 770 C 1041.286 770, 1040.715 767.809, 1035.920 765.794 C 1033.098 764.609, 1031.509 763.160, 1030.711 761.044 C 1029.102 756.782, 1026.547 756.939, 1027.373 761.250 M 994 766.542 C 994 766.840, 994.953 768.077, 996.118 769.292 C 997.282 770.506, 998.820 772.859, 999.535 774.520 C 1000.250 776.181, 1001.738 778.357, 1002.841 779.356 C 1004.336 780.709, 1004.714 781.988, 1004.325 784.382 C 1003.718 788.126, 1004.938 789.442, 1010 790.501 L 1013.500 791.233 1011.453 788.867 C 1007.329 784.100, 1006.676 783, 1007.971 783 C 1008.640 783, 1009.401 783.788, 1009.663 784.750 C 1010.443 787.620, 1018.036 792.528, 1025.271 794.838 C 1033.783 797.556, 1034.313 797.541, 1037.595 794.500 C 1039.078 793.125, 1041.486 792, 1042.946 792 C 1044.406 792, 1046.164 791.438, 1046.853 790.750 C 1047.699 789.905, 1051.498 789.509, 1058.563 789.529 C 1069.180 789.558, 1070.889 788.800, 1065.921 786.265 C 1062.075 784.302, 1054.210 784.791, 1044.726 787.581 L 1035.951 790.162 1027.226 787.512 C 1022.427 786.054, 1018.050 784.727, 1017.500 784.564 C 1016.950 784.401, 1021.429 784.216, 1027.453 784.154 C 1033.477 784.091, 1041.802 783.589, 1045.953 783.037 C 1050.104 782.486, 1055.158 781.937, 1057.185 781.818 C 1059.212 781.698, 1060.610 781.178, 1060.292 780.663 C 1059.936 780.087, 1052.929 780.044, 1042.106 780.552 C 1013.154 781.910, 1012.446 781.754, 1002.745 771.866 C 997.844 766.871, 994 764.531, 994 766.542 M 1136.347 781.496 C 1133.673 783.977, 1132.397 785.686, 1133.500 785.309 C 1137.388 783.980, 1132.846 788.137, 1128.264 790.101 C 1125.919 791.106, 1124 792.395, 1124 792.964 C 1124 794.238, 1124.533 794.261, 1126.764 793.083 C 1127.719 792.579, 1129.941 791.634, 1131.701 790.982 C 1135.141 789.710, 1139.080 785.033, 1136.773 784.960 C 1136.073 784.938, 1136.726 784.254, 1138.225 783.441 C 1139.724 782.628, 1141.411 781.100, 1141.975 780.047 C 1144.444 775.434, 1142.281 775.991, 1136.347 781.496 M 1001.067 789.876 C 1000.032 791.809, 1000.704 796, 1002.049 796 C 1002.498 796, 1003.120 796.803, 1003.431 797.784 C 1004.394 800.817, 1009.435 803.049, 1015.192 802.991 C 1018.111 802.961, 1023.200 802.952, 1026.500 802.971 C 1029.800 802.990, 1033.963 802.586, 1035.750 802.073 C 1040.660 800.663, 1039.664 801.715, 1033.250 804.712 C 1025.881 808.156, 1023.656 808.298, 1017.262 805.739 C 1011.541 803.449, 1009.696 803.901, 1012.430 806.923 C 1015.092 809.864, 1020.338 812, 1024.901 812 C 1027.800 812, 1029 812.421, 1029 813.439 C 1029 814.376, 1030.561 815.111, 1033.480 815.549 C 1037.026 816.081, 1038.679 815.797, 1041.410 814.186 C 1043.307 813.066, 1045.745 812.382, 1046.827 812.665 C 1047.910 812.948, 1049.732 812.678, 1050.878 812.065 C 1052.788 811.043, 1052.922 811.180, 1052.501 813.726 C 1052.249 815.252, 1051.865 818.075, 1051.648 820 C 1051.431 821.925, 1050.478 826.561, 1049.530 830.302 C 1047.622 837.836, 1047.882 843.040, 1050.533 850.328 L 1052.288 855.155 1046.350 861.328 C 1038.589 869.394, 1035.567 874.997, 1036.360 879.847 C 1038.197 891.071, 1039.563 893.632, 1048.223 902.092 C 1051.293 905.091, 1055 906.467, 1055 904.607 C 1055 903.818, 1056.209 903.543, 1058.500 903.810 C 1061.846 904.201, 1063.245 902.888, 1060.977 901.486 C 1059.166 900.366, 1054.049 887.937, 1053.635 883.652 C 1053.414 881.368, 1052.912 878.097, 1052.518 876.382 C 1051.918 873.765, 1052.244 872.855, 1054.550 870.716 C 1056.482 868.925, 1057.773 868.420, 1058.899 869.014 C 1059.779 869.479, 1065.900 870.800, 1072.500 871.949 C 1084.707 874.075, 1090.400 873.894, 1099.400 871.091 C 1101.105 870.560, 1105.875 869.608, 1110 868.976 C 1120.057 867.435, 1119.856 867.477, 1120.560 866.773 C 1121.442 865.892, 1128.016 867.039, 1131.167 868.624 C 1135.637 870.873, 1135.760 874.918, 1131.611 883.295 C 1129.649 887.258, 1127.152 892.035, 1126.062 893.910 C 1124.972 895.786, 1124.313 897.698, 1124.599 898.160 C 1125.324 899.333, 1128.743 899.208, 1131.148 897.921 C 1132.761 897.058, 1133.431 897.207, 1134.501 898.671 C 1135.782 900.423, 1135.943 900.403, 1138.289 898.199 C 1139.636 896.933, 1142.436 893.432, 1144.511 890.420 L 1148.283 884.943 1147.619 876.981 C 1146.617 864.966, 1145.352 862.053, 1139.497 858.275 C 1136.749 856.501, 1133.375 854.253, 1132 853.280 C 1130.625 852.307, 1129.050 851.503, 1128.500 851.492 C 1127.179 851.467, 1127.441 848.190, 1129.539 838.500 C 1130.491 834.100, 1131.167 828.475, 1131.041 826 C 1130.694 819.163, 1130.701 811.894, 1131.060 807.980 C 1131.342 804.907, 1130.738 803.793, 1126.306 799.219 C 1121.980 794.755, 1120.402 793.813, 1115.641 792.857 C 1110.762 791.877, 1109.710 791.960, 1107.341 793.512 C 1105.239 794.889, 1102.246 795.337, 1094.064 795.500 C 1081.881 795.742, 1071.183 797.994, 1062.262 802.195 C 1058.831 803.811, 1055.578 804.857, 1055.033 804.520 C 1054.488 804.183, 1053.080 804.422, 1051.905 805.051 C 1050.196 805.966, 1049.858 805.925, 1050.218 804.847 C 1050.478 804.071, 1052.230 803.456, 1054.354 803.397 C 1058.977 803.267, 1060.008 802.330, 1056.895 801.085 C 1054.509 800.130, 1054.508 800.127, 1056.750 800.063 C 1057.987 800.029, 1059 799.622, 1059 799.161 C 1059 796.591, 1042.169 793.785, 1039.591 795.925 C 1038.822 796.562, 1036.699 797.513, 1034.873 798.036 C 1030.181 799.382, 1013.110 796.421, 1010.840 793.868 C 1009.927 792.840, 1008.239 792, 1007.090 792 C 1005.940 792, 1005 791.373, 1005 790.607 C 1005 788.399, 1002.141 787.868, 1001.067 789.876 M 1047.813 799.683 C 1048.534 799.972, 1049.397 799.936, 1049.729 799.604 C 1050.061 799.272, 1049.471 799.036, 1048.417 799.079 C 1047.252 799.127, 1047.015 799.364, 1047.813 799.683 M 1114 801.476 C 1112.625 802.275, 1110.734 802.945, 1109.797 802.965 C 1108.860 802.984, 1106.910 803.540, 1105.463 804.199 C 1103.348 805.162, 1102.937 805.899, 1103.368 807.949 C 1106.797 824.250, 1108.038 826.543, 1114.178 827.927 C 1116.663 828.488, 1118.635 828.248, 1121.079 827.089 C 1124.408 825.510, 1124.500 825.306, 1124.516 819.483 C 1124.525 816.192, 1125.156 812.003, 1125.919 810.173 C 1127.246 806.990, 1127.180 806.721, 1124.403 803.983 C 1120.804 800.434, 1117.262 799.581, 1114 801.476 M 1006.476 804.039 C 1005.518 805.589, 1007.214 807.104, 1008.806 806.120 C 1009.837 805.483, 1009.803 805.082, 1008.636 804.113 C 1007.559 803.219, 1006.995 803.200, 1006.476 804.039 M 1042.314 804.813 C 1040.012 805.748, 1036.862 807.498, 1035.314 808.701 L 1032.500 810.889 1035.500 810.930 C 1037.150 810.952, 1039.422 810.415, 1040.549 809.735 C 1046.871 805.923, 1048.988 804.422, 1048.994 803.750 C 1049.003 802.608, 1046.928 802.938, 1042.314 804.813 M 1063.250 805.989 C 1058.610 808.818, 1058.557 812.598, 1063.019 822.542 C 1065.262 827.542, 1066.473 829.081, 1068.580 829.610 C 1072.616 830.622, 1078.051 828.847, 1080.335 825.770 C 1082.210 823.244, 1082.277 822.495, 1081.236 815.770 C 1080.300 809.724, 1079.639 808.122, 1077.305 806.255 C 1073.743 803.404, 1067.677 803.290, 1063.250 805.989 M 1033.354 818.480 C 1033.709 819.406, 1034 820.352, 1034 820.582 C 1034 820.812, 1034.708 821, 1035.573 821 C 1037.798 821, 1036.932 817.611, 1034.593 817.160 C 1033.174 816.887, 1032.868 817.214, 1033.354 818.480 M 1100.409 975.500 C 1100.408 984.850, 1100.558 988.810, 1100.743 984.299 C 1100.928 979.789, 1100.929 972.139, 1100.745 967.299 C 1100.562 962.460, 1100.410 966.150, 1100.409 975.500" stroke="none" fill="black" fill-rule="evenodd"/>
</svg>