<svg xmlns="http://www.w3.org/2000/svg" width="1920" height="1080" viewBox="0 0 1920 1080" version="1.1">
	<path fill-opacity="0.200" d="M -0 540.001 L -0 1080.001 960.250 1079.751 L 1920.500 1079.500 1920.751 539.750 L 1921.002 0 960.501 0 L 0 0 -0 540.001 M 0.496 540.500 C 0.496 837.500, 0.610 958.851, 0.750 810.168 C 0.890 661.485, 0.890 418.485, 0.750 270.168 C 0.610 121.851, 0.496 243.500, 0.496 540.500 M 988.500 436.065 C 956.091 438.356, 932.508 440.126, 923 440.981 C 917.225 441.500, 904.777 442.453, 895.338 443.099 C 878.244 444.268, 874.574 445.005, 876.508 446.876 C 877.054 447.403, 886.725 452.447, 898 458.083 C 909.275 463.720, 919.978 469.607, 921.785 471.166 C 925.631 474.485, 923.769 474.412, 955.500 472.480 C 1000.867 469.718, 1021.854 468.208, 1022.774 467.640 C 1023.280 467.327, 1030.176 466.785, 1038.097 466.436 C 1046.019 466.087, 1053.283 465.383, 1054.240 464.871 C 1057.499 463.128, 1053.924 460.111, 1041 453.700 C 1034.125 450.290, 1028.275 447.275, 1028 447 C 1026.960 445.960, 1014.368 440, 1013.210 440 C 1012.545 440, 1012 439.660, 1012 439.244 C 1012 438.206, 1007.125 436.136, 1003.492 435.632 C 1001.847 435.403, 995.100 435.598, 988.500 436.065 M 882.667 471.667 C 881.523 472.811, 881.937 475, 883.298 475 C 884.756 475, 897.979 481.595, 899.450 483.056 C 899.972 483.575, 901.097 484.001, 901.950 484.003 C 902.981 484.004, 904.421 486.612, 906.250 491.792 C 908.675 498.658, 909 501.024, 909 511.790 C 909 518.505, 909.384 524, 909.853 524 C 910.815 524, 912 511.995, 912 502.254 C 912 498.638, 911.108 492.875, 909.968 489.119 L 907.935 482.427 896.456 476.714 C 884.657 470.840, 883.805 470.528, 882.667 471.667 M 992.500 484.051 C 979.300 485.018, 966.544 485.852, 964.153 485.905 C 960.200 485.991, 959.179 486.605, 952.909 492.658 L 946.013 499.316 946.496 508.908 C 946.990 518.723, 948.194 525.594, 949.680 527.080 C 950.140 527.540, 953.438 527.494, 957.008 526.978 C 960.579 526.462, 966.269 526.031, 969.652 526.020 L 975.805 526 975.728 516.475 C 975.685 511.236, 976.088 506.512, 976.623 505.977 C 977.157 505.443, 982.523 504.762, 988.547 504.463 C 994.571 504.164, 1000.936 503.746, 1002.691 503.533 C 1006.409 503.081, 1007.092 504.534, 1005.729 510 C 1005.249 511.925, 1004.908 515.037, 1004.970 516.915 C 1005.111 521.112, 1003.891 521.949, 997.500 522.041 C 990.141 522.147, 986.795 523.830, 980.845 530.417 L 975.500 536.334 975.784 543.796 C 975.940 547.900, 976.502 552.070, 977.034 553.063 C 977.565 554.056, 978 556.062, 978 557.522 L 978 560.175 991.632 559.847 L 1005.263 559.519 1004.677 551.217 C 1004.100 543.033, 1004.127 542.902, 1006.611 541.958 C 1007.996 541.431, 1011.547 541, 1014.500 541 C 1022.165 541, 1024.139 539.932, 1029.623 532.823 L 1034.500 526.500 1034.737 510 L 1034.973 493.500 1028.271 487.750 C 1023.598 483.741, 1020.802 482.044, 1019.035 482.146 C 1017.641 482.227, 1005.700 483.084, 992.500 484.051 M 997.500 564.102 C 993.650 564.459, 987.290 564.807, 983.367 564.876 C 977.061 564.986, 976.171 565.239, 975.695 567.059 C 974.949 569.911, 975.965 579.904, 977.352 583.357 L 978.500 586.215 986.500 585.575 C 990.900 585.223, 996.800 584.670, 999.611 584.346 L 1004.722 583.757 1005.393 574.211 C 1005.762 568.960, 1005.712 564.392, 1005.282 564.059 C 1004.852 563.726, 1001.350 563.745, 997.500 564.102" stroke="none" fill="black" fill-rule="evenodd"/>
	<path fill-opacity="0.010" d="M 978 435 C 978 435.550, 979.098 436, 980.441 436 C 981.784 436, 983.160 435.550, 983.500 435 C 983.861 434.417, 982.844 434, 981.059 434 C 979.377 434, 978 434.450, 978 435 M 988.813 434.683 C 989.534 434.972, 990.397 434.936, 990.729 434.604 C 991.061 434.272, 990.471 434.036, 989.417 434.079 C 988.252 434.127, 988.015 434.364, 988.813 434.683 M 937.269 435.693 C 938.242 435.947, 939.592 435.930, 940.269 435.656 C 940.946 435.382, 940.150 435.175, 938.500 435.195 C 936.850 435.215, 936.296 435.439, 937.269 435.693 M 1010 436 C 1010.825 436.533, 1011.950 436.969, 1012.500 436.969 C 1013.050 436.969, 1012.825 436.533, 1012 436 C 1011.175 435.467, 1010.050 435.031, 1009.500 435.031 C 1008.950 435.031, 1009.175 435.467, 1010 436 M 964.813 436.683 C 965.534 436.972, 966.397 436.936, 966.729 436.604 C 967.061 436.272, 966.471 436.036, 965.417 436.079 C 964.252 436.127, 964.015 436.364, 964.813 436.683 M 947.269 437.693 C 948.242 437.947, 949.592 437.930, 950.269 437.656 C 950.946 437.382, 950.150 437.175, 948.500 437.195 C 946.850 437.215, 946.296 437.439, 947.269 437.693 M 892.750 440.662 C 893.438 440.940, 894.563 440.940, 895.250 440.662 C 895.938 440.385, 895.375 440.158, 894 440.158 C 892.625 440.158, 892.063 440.385, 892.750 440.662 M 872.667 448.667 C 872.300 449.033, 872 458.258, 872 469.167 C 872 486.130, 871.783 489, 870.500 489 C 869.675 489, 869 489.675, 869 490.500 C 869 491.325, 869.675 492, 870.500 492 C 871.333 492, 872 492.889, 872 494 C 872 495.556, 871.333 496, 869 496 C 866.667 496, 866 496.444, 866 498 C 866 499.100, 866.450 500, 867 500 C 867.550 500, 868 500.900, 868 502 C 868 503.100, 867.550 504, 867 504 C 866.450 504, 866 504.900, 866 506 C 866 507.100, 866.450 508, 867 508 C 867.550 508, 868 508.900, 868 510 C 868 511.333, 867.333 512, 866 512 C 864.167 512, 864 511.333, 864 504 L 864 496 792 496 L 720 496 720 508 L 720 520 796 520 L 872 520 872 528 L 872 536 868 536 L 864 536 864 544 L 864 552 792 552 L 720 552 720 560 L 720 568 792 568 L 864 568 864 560 L 864 552 868 552 L 872 552 872 569.059 C 872 578.903, 872.380 585.883, 872.899 585.562 C 873.394 585.257, 875.144 586.539, 876.789 588.413 C 878.981 590.909, 880.077 591.523, 880.890 590.710 C 881.703 589.897, 882 590.024, 882 591.185 C 882 592.963, 886.097 596, 888.496 596 C 889.358 596, 890.305 596.631, 890.601 597.402 C 890.896 598.173, 892.786 599.113, 894.800 599.490 C 896.815 599.868, 900.946 601.487, 903.981 603.087 C 907.017 604.687, 910.063 605.997, 910.750 605.998 C 911.438 605.999, 912 606.450, 912 607 C 912 607.550, 913.040 608, 914.311 608 C 915.583 608, 917.614 608.923, 918.824 610.051 C 920.035 611.179, 921.381 611.883, 921.815 611.615 C 922.249 611.346, 925.055 611.724, 928.052 612.453 C 931.781 613.361, 932.633 613.814, 930.750 613.889 C 926.845 614.046, 927.336 615.704, 931.430 616.182 C 933.317 616.402, 934.780 616.150, 934.680 615.623 C 934.581 615.095, 935.553 614.115, 936.839 613.445 C 938.524 612.568, 938.804 612.052, 937.839 611.605 C 937.103 611.263, 941.740 611.211, 948.144 611.490 C 958.038 611.921, 959.876 611.764, 960.381 610.451 C 960.828 609.286, 961.812 609.062, 964.372 609.542 C 966.368 609.916, 968.039 609.746, 968.421 609.128 C 968.849 608.435, 972.901 608.282, 980.322 608.680 C 990.323 609.216, 991.774 609.083, 993.378 607.479 C 994.772 606.085, 995.360 605.965, 995.968 606.948 C 996.812 608.313, 999.648 608.402, 1036.031 608.205 L 1056.562 608.094 1056.174 604.028 C 1055.750 599.583, 1057.550 596.150, 1059.358 597.958 C 1059.931 598.531, 1063.010 599, 1066.200 599 L 1072 599 1072 587.500 L 1072 576 1080 576 C 1087.333 576, 1088 576.167, 1088 578 C 1088 579.976, 1088.667 580, 1144 580 L 1200 580 1200 566 L 1200 552 1129.590 552 L 1059.180 552 1058.471 543.494 C 1057.724 534.523, 1059.648 512, 1061.162 512 C 1061.623 512, 1062 513.800, 1062 516 L 1062 520 1103.088 520 L 1144.176 520 1143.522 516.132 C 1142.772 511.694, 1144.041 510.658, 1149.011 511.652 C 1151.713 512.193, 1152 512.623, 1152 516.125 L 1152 520 1176 520 L 1200 520 1200 508 L 1200 496 1140 496 C 1080.667 496, 1080 496.022, 1080 498 C 1080 499.333, 1079.333 500, 1078 500 C 1076.680 500, 1076 499.333, 1076 498.039 C 1076 496.262, 1075.177 496.051, 1067.250 495.789 L 1058.500 495.500 1058.500 482.584 C 1058.500 473.141, 1058.164 469.556, 1057.250 469.251 C 1056.563 469.021, 1056 468.166, 1056 467.349 C 1056 466.415, 1055.352 466.048, 1054.250 466.358 C 1048.852 467.878, 1041.594 468.599, 1020.681 469.696 C 1010.739 470.217, 1008.401 471.060, 1013.500 472.287 C 1014.600 472.552, 1008.053 472.820, 998.950 472.884 C 987.550 472.964, 982.027 473.373, 981.200 474.200 C 980.267 475.133, 980 475.067, 980 473.903 C 980 472.638, 978.797 472.521, 972.250 473.147 C 967.987 473.556, 957.525 474.190, 949 474.556 C 938.388 475.013, 932.790 475.668, 931.250 476.635 C 930.013 477.411, 929 477.621, 929 477.103 C 929 476.584, 927.604 475.852, 925.898 475.478 C 924.192 475.103, 921.929 473.929, 920.869 472.869 C 918.862 470.862, 912.009 467.091, 888.603 455.112 C 874.186 447.734, 873.768 447.565, 872.667 448.667 M 1034 448.383 C 1034 449.293, 1037.898 449.679, 1039.139 448.893 C 1040.064 448.307, 1039.460 448.026, 1037.250 448.015 C 1035.463 448.007, 1034 448.173, 1034 448.383 M 1043.269 452.693 C 1044.242 452.947, 1045.592 452.930, 1046.269 452.656 C 1046.946 452.382, 1046.150 452.175, 1044.500 452.195 C 1042.850 452.215, 1042.296 452.439, 1043.269 452.693 M 882.674 470.750 C 882.430 471.163, 881.039 474.497, 879.583 478.160 C 877.161 484.252, 876.959 485.829, 877.217 496.660 L 877.500 508.500 882.927 511.144 C 890.066 514.622, 891 513.746, 891 503.571 C 891 499.368, 891.430 496, 891.966 496 C 892.497 496, 894.410 496.703, 896.216 497.563 L 899.500 499.126 899.174 507.652 C 898.849 516.148, 898.839 516.176, 896.390 515.562 C 894.162 515.003, 893.678 515.513, 891.216 521.016 C 888.687 526.668, 888.521 527.878, 888.811 538.566 L 889.122 550.045 895.061 552.874 L 901 555.702 901.011 551.601 C 901.017 549.346, 901.308 545.769, 901.657 543.654 C 902.247 540.087, 902.493 539.849, 905.063 540.363 C 907.567 540.863, 908.082 540.442, 910.417 535.977 C 912.887 531.252, 913 530.324, 913 514.700 C 913 502.947, 912.565 496.839, 911.450 492.932 C 908.330 481.998, 908.640 482.336, 895.866 475.933 C 883.142 469.555, 883.336 469.631, 882.674 470.750 M 1000.750 471.662 C 1001.438 471.940, 1002.563 471.940, 1003.250 471.662 C 1003.938 471.385, 1003.375 471.158, 1002 471.158 C 1000.625 471.158, 1000.063 471.385, 1000.750 471.662 M 1021.813 472.683 C 1022.534 472.972, 1023.397 472.936, 1023.729 472.604 C 1024.061 472.272, 1023.471 472.036, 1022.417 472.079 C 1021.252 472.127, 1021.015 472.364, 1021.813 472.683 M 952.750 475.662 C 953.438 475.940, 954.563 475.940, 955.250 475.662 C 955.938 475.385, 955.375 475.158, 954 475.158 C 952.625 475.158, 952.063 475.385, 952.750 475.662 M 1045 478 C 1043.707 478.835, 1043.734 478.971, 1045.191 478.985 C 1046.121 478.993, 1047.160 478.550, 1047.500 478 C 1048.282 476.734, 1046.958 476.734, 1045 478 M 1012 482.053 C 995.159 483.256, 970.629 484.872, 969 484.885 C 960.499 484.950, 958.839 485.703, 951.899 492.639 L 945.034 499.500 945.017 513.643 C 945.003 525.370, 945.259 527.885, 946.516 528.368 C 948.462 529.114, 974.224 527.176, 975.190 526.210 C 975.591 525.809, 976.049 521.211, 976.209 515.991 L 976.500 506.500 983 505.820 C 993.743 504.697, 1003.180 504.674, 1003.861 505.768 C 1004.213 506.332, 1004.353 509.935, 1004.173 513.775 L 1003.845 520.755 995.923 521.446 C 991.565 521.826, 988 522.557, 988 523.069 C 988 523.581, 987.100 524, 986 524 C 984.888 524, 984 524.667, 984 525.502 C 984 527.239, 977.030 534.136, 975.949 533.469 C 975.551 533.223, 975.246 533.579, 975.270 534.261 C 975.295 534.942, 975.163 541.125, 974.977 548 C 974.655 559.936, 974.611 560.161, 974 553 L 973.360 545.500 973.180 553.231 C 973.004 560.775, 973.063 560.978, 975.586 561.611 C 977.008 561.968, 981.171 561.960, 984.836 561.594 C 988.501 561.228, 994.746 560.662, 998.713 560.335 L 1005.926 559.742 1006.213 551.121 L 1006.500 542.500 1014.521 541.977 L 1022.541 541.453 1027.021 536.561 C 1029.484 533.870, 1032.400 530.817, 1033.500 529.777 C 1035.339 528.038, 1035.509 526.504, 1035.618 510.696 C 1035.722 495.495, 1035.533 493.331, 1033.991 492.002 C 1033.032 491.176, 1030.168 488.767, 1027.627 486.649 C 1025.085 484.531, 1023.257 482.394, 1023.562 481.899 C 1023.868 481.405, 1023.754 481.068, 1023.309 481.151 C 1022.864 481.234, 1017.775 481.640, 1012 482.053 M 934.543 485.931 C 933.521 487.584, 935.648 487.979, 937.603 486.500 C 939.438 485.111, 939.428 485.063, 937.309 485.032 C 936.104 485.014, 934.859 485.419, 934.543 485.931 M 1063.349 536 C 1063.349 540.675, 1063.522 542.587, 1063.732 540.250 C 1063.943 537.913, 1063.943 534.087, 1063.732 531.750 C 1063.522 529.413, 1063.349 531.325, 1063.349 536 M 889.045 555.445 C 888.252 556.401, 887.957 559.873, 888.173 565.695 L 888.500 574.500 894.500 577.691 C 897.800 579.447, 900.855 580.532, 901.288 580.103 C 901.722 579.674, 901.947 574.942, 901.788 569.587 L 901.500 559.850 896.200 556.925 C 890.001 553.504, 890.561 553.619, 889.045 555.445 M 988 564.300 C 981.036 564.846, 975.175 565.771, 974.765 566.390 C 973.866 567.748, 973.786 581.600, 974.659 584.858 C 975.282 587.186, 975.412 587.208, 984.895 586.586 C 990.178 586.240, 997.058 585.700, 1000.186 585.387 L 1005.871 584.819 1006.186 574.888 C 1006.358 569.426, 1006.350 564.516, 1006.167 563.978 C 1005.800 562.902, 1005.867 562.901, 988 564.300 M 720 574 C 720 575.833, 720.667 576, 728 576 C 735.333 576, 736 576.167, 736 578 C 736 579.979, 736.667 580, 800 580 L 864 580 864 576 L 864 572 792 572 C 720.667 572, 720 572.019, 720 574 M 1061.149 591.604 C 1060.406 592.444, 1060.130 593.439, 1060.536 593.816 C 1060.942 594.192, 1061.475 593.938, 1061.720 593.250 C 1062.425 591.276, 1064 591.794, 1064 594 C 1064 595.100, 1064.450 596, 1065 596 C 1066.485 596, 1066.210 593.067, 1064.571 591.429 C 1062.840 589.697, 1062.835 589.698, 1061.149 591.604 M 1046 593 C 1044.718 593.828, 1044.754 593.972, 1046.250 593.985 C 1047.213 593.993, 1048 593.550, 1048 593 C 1048 591.780, 1047.887 591.780, 1046 593 M 1051.096 603.867 C 1049.903 605.521, 1048.736 605.677, 1040.875 605.229 C 1034.608 604.871, 1032 605.057, 1032 605.861 C 1032 606.646, 1035.494 606.995, 1043.250 606.985 C 1051.459 606.974, 1054.095 606.683, 1053 605.909 C 1051.871 605.110, 1051.809 604.722, 1052.750 604.341 C 1054.116 603.786, 1054.475 602, 1053.221 602 C 1052.792 602, 1051.836 602.840, 1051.096 603.867 M 980.750 607.662 C 981.438 607.940, 982.563 607.940, 983.250 607.662 C 983.938 607.385, 983.375 607.158, 982 607.158 C 980.625 607.158, 980.063 607.385, 980.750 607.662 M 976 613.061 C 976 613.577, 976.862 614, 977.917 614 C 978.971 614, 980.096 614.563, 980.417 615.250 C 980.883 616.250, 981.117 616.250, 981.583 615.250 C 982.314 613.684, 988 613.590, 988 615.144 C 988 615.976, 991.613 616.119, 1001.250 615.669 C 1008.538 615.329, 1027.438 615.051, 1043.250 615.052 C 1067.083 615.053, 1072 614.816, 1072 613.667 C 1072 612.507, 1064.198 612.269, 1024 612.202 C 994.683 612.153, 976 612.487, 976 613.061 M 720 651.951 L 720 680 769.883 680 C 818.926 680, 819.776 679.966, 820.290 678 C 820.577 676.900, 821.263 676, 821.813 676 C 822.363 676, 822.591 676.847, 822.321 677.882 C 821.935 679.356, 822.924 680.278, 826.873 682.132 C 829.648 683.434, 831.936 684.956, 831.959 685.513 C 831.982 686.070, 833.013 686.975, 834.250 687.524 C 835.487 688.072, 836.459 689.192, 836.408 690.011 C 836.342 691.076, 837.474 691.547, 840.383 691.664 C 843.445 691.787, 844.962 692.469, 846.519 694.421 C 848.012 696.294, 848.889 696.711, 849.677 695.923 C 850.466 695.134, 851.199 695.447, 852.320 697.047 C 853.222 698.335, 854.490 699.026, 855.346 698.697 C 856.157 698.386, 858.548 699.440, 860.660 701.038 C 863.258 703.004, 865.694 703.953, 868.191 703.972 C 870.221 703.987, 872.160 704.450, 872.500 705 C 872.840 705.550, 874.018 706, 875.118 706 C 876.218 706, 876.910 706.337, 876.656 706.750 C 876.403 707.163, 877.799 707.618, 879.760 707.762 C 881.720 707.906, 883.880 708.486, 884.560 709.050 C 885.240 709.614, 886.629 710.246, 887.648 710.454 C 888.667 710.662, 890.625 711.291, 892 711.853 C 894.428 712.844, 894.435 712.875, 892.250 712.937 C 891.013 712.971, 890 713.450, 890 714 C 890 715.383, 893.343 715.257, 894.780 713.820 C 895.666 712.934, 896.525 712.921, 898.230 713.768 C 901.369 715.327, 909.871 715.779, 910.394 714.415 C 910.876 713.160, 934.819 711.426, 947.952 711.695 C 953.413 711.807, 955.891 711.543, 954.952 710.949 C 954.049 710.378, 963.797 710.025, 980.750 710.015 C 998.260 710.005, 1008 710.357, 1008 711 C 1008 711.611, 1012.628 712, 1019.883 712 C 1030.819 712, 1031.807 711.845, 1032.276 710.053 C 1032.606 708.791, 1032.207 707.952, 1031.143 707.669 C 1029.725 707.292, 1029.742 707.216, 1031.269 707.116 C 1032.682 707.023, 1032.903 706.447, 1032.365 704.250 C 1031.995 702.737, 1031.199 701.169, 1030.596 700.765 C 1029.841 700.259, 1029.889 700.026, 1030.750 700.015 C 1031.438 700.007, 1032 699.097, 1032 697.993 C 1032 696.207, 1031.437 696.018, 1026.907 696.279 C 1022.829 696.514, 1021.549 696.195, 1020.487 694.678 C 1019.757 693.636, 1018.727 693.051, 1018.197 693.378 C 1017.668 693.705, 1016.081 693.065, 1014.670 691.955 C 1013.259 690.845, 1009.494 688.752, 1006.302 687.304 C 1003.111 685.856, 1000.265 684.322, 999.979 683.896 C 999.692 683.471, 998.249 682.903, 996.772 682.635 C 992.407 681.844, 990.938 680.691, 992.121 678.986 C 992.899 677.865, 993.277 677.807, 993.659 678.750 C 994.454 680.709, 996 680.214, 996 678 C 996 676.630, 996.667 676, 998.117 676 C 999.793 676, 1000.141 676.484, 999.788 678.329 C 999.408 680.314, 999.686 680.592, 1001.671 680.212 C 1003.128 679.934, 1004 679.061, 1004 677.883 C 1004 676.667, 1004.708 676, 1006 676 C 1007.778 676, 1008 675.333, 1008 670 L 1008 664 1025 664 L 1042 664 1042 668 C 1042 670.200, 1041.550 672, 1041 672 C 1040.450 672, 1040 672.831, 1040 673.846 C 1040 675.504, 1041.240 675.759, 1052.157 676.346 C 1072.266 677.428, 1200 677.134, 1200 676.007 C 1200 675.360, 1174.755 674.921, 1127.750 674.750 L 1055.500 674.487 1127.750 674.243 L 1200 674 1200 663 C 1200 652.667, 1199.879 652, 1198 652 C 1196.667 652, 1196 651.333, 1196 650 C 1196 648.667, 1196.667 648, 1198 648 C 1199.889 648, 1200 647.333, 1200 636 C 1200 624.667, 1199.889 624, 1198 624 C 1196.667 624, 1196 624.667, 1196 626 C 1196 627.333, 1195.333 628, 1194 628 C 1192.667 628, 1192 627.333, 1192 626 C 1192 624.667, 1191.333 624, 1190 624 C 1188.667 624, 1188 624.667, 1188 626 C 1188 627.333, 1187.333 628, 1186 628 C 1184.667 628, 1184 627.333, 1184 626 C 1184 624.667, 1183.333 624, 1182 624 C 1180.667 624, 1180 624.667, 1180 626 C 1180 627.333, 1179.333 628, 1178 628 C 1176.667 628, 1176 627.333, 1176 626 C 1176 624.667, 1175.333 624, 1174 624 C 1172.667 624, 1172 624.667, 1172 626 C 1172 627.333, 1171.333 628, 1170 628 C 1168.667 628, 1168 627.333, 1168 626 C 1168 624.667, 1167.333 624, 1166 624 C 1164.667 624, 1164 624.667, 1164 626 C 1164 627.333, 1163.333 628, 1162 628 C 1160.667 628, 1160 627.333, 1160 626 C 1160 624.667, 1159.333 624, 1158 624 C 1156.667 624, 1156 624.667, 1156 626 C 1156 627.333, 1155.333 628, 1154 628 C 1152.667 628, 1152 627.333, 1152 626 C 1152 624.667, 1151.333 624, 1150 624 C 1148.667 624, 1148 624.667, 1148 626 C 1148 627.333, 1147.333 628, 1146 628 C 1144.667 628, 1144 627.333, 1144 626 C 1144 624.667, 1143.333 624, 1142 624 C 1140.667 624, 1140 624.667, 1140 626 C 1140 627.333, 1139.333 628, 1138 628 C 1136.667 628, 1136 627.333, 1136 626 C 1136 624.667, 1135.333 624, 1134 624 C 1132.667 624, 1132 624.667, 1132 626 C 1132 627.333, 1131.333 628, 1130 628 C 1128.667 628, 1128 627.333, 1128 626 C 1128 624.667, 1127.333 624, 1126 624 C 1124.667 624, 1124 624.667, 1124 626 C 1124 627.333, 1123.333 628, 1122 628 C 1120.667 628, 1120 627.333, 1120 626 C 1120 624.133, 1119.333 624, 1110 624 C 1100.667 624, 1100 624.133, 1100 626 C 1100 627.333, 1099.333 628, 1098 628 C 1096.667 628, 1096 627.333, 1096 626 C 1096 624.667, 1095.333 624, 1094 624 C 1092.667 624, 1092 624.667, 1092 626 C 1092 627.333, 1091.333 628, 1090 628 C 1088.667 628, 1088 627.333, 1088 626 C 1088 624.667, 1087.333 624, 1086 624 C 1084.667 624, 1084 624.667, 1084 626 C 1084 627.333, 1083.333 628, 1082 628 C 1080.667 628, 1080 627.333, 1080 626 C 1080 624.667, 1079.333 624, 1078 624 C 1076.630 624, 1076 624.667, 1076 626.117 C 1076 627.902, 1075.570 628.141, 1073.250 627.642 C 1071.737 627.317, 1059.588 626.742, 1046.250 626.366 C 1032.912 625.989, 1022 625.303, 1022 624.841 C 1022 624.378, 1020.650 624, 1019 624 C 1017.275 624, 1015.993 624.531, 1015.985 625.250 C 1015.974 626.117, 1015.744 626.162, 1015.235 625.397 C 1014.706 624.604, 973.244 624.240, 867.250 624.098 L 720 623.901 720 651.951 M 931.750 632.732 C 934.087 632.943, 937.913 632.943, 940.250 632.732 C 942.587 632.522, 940.675 632.349, 936 632.349 C 931.325 632.349, 929.413 632.522, 931.750 632.732 M 972 633.939 C 972 635.453, 972.930 636.017, 976.250 636.514 C 978.587 636.865, 982.300 637.005, 984.500 636.826 C 987.766 636.560, 988.559 636.087, 988.820 634.250 C 989.130 632.067, 988.885 632, 980.570 632 C 972.757 632, 972 632.171, 972 633.939 M 1059.750 632.732 C 1062.088 632.943, 1065.912 632.943, 1068.250 632.732 C 1070.588 632.522, 1068.675 632.349, 1064 632.349 C 1059.325 632.349, 1057.412 632.522, 1059.750 632.732 M 928 636 C 928 636.583, 931.333 637, 936 637 C 940.667 637, 944 636.583, 944 636 C 944 635.417, 940.667 635, 936 635 C 931.333 635, 928 635.417, 928 636 M 1056 636 C 1056 636.583, 1059.333 637, 1064 637 C 1068.667 637, 1072 636.583, 1072 636 C 1072 635.417, 1068.667 635, 1064 635 C 1059.333 635, 1056 635.417, 1056 636 M 976 644 C 976 644.583, 979.333 645, 984 645 C 988.667 645, 992 644.583, 992 644 C 992 643.417, 988.667 643, 984 643 C 979.333 643, 976 643.417, 976 644 M 928 646 C 928 647.833, 928.667 648, 936 648 C 943.333 648, 944 647.833, 944 646 C 944 644.167, 943.333 644, 936 644 C 928.667 644, 928 644.167, 928 646 M 979.750 647.732 C 982.087 647.943, 985.913 647.943, 988.250 647.732 C 990.587 647.522, 988.675 647.349, 984 647.349 C 979.325 647.349, 977.413 647.522, 979.750 647.732 M 1104 654 C 1104 655.333, 1104.667 656, 1106 656 C 1107.333 656, 1108 655.333, 1108 654 C 1108 652.667, 1107.333 652, 1106 652 C 1104.667 652, 1104 652.667, 1104 654 M 1188 654 C 1188 655.333, 1188.667 656, 1190 656 C 1191.333 656, 1192 655.333, 1192 654 C 1192 652.667, 1191.333 652, 1190 652 C 1188.667 652, 1188 652.667, 1188 654 M 816 658 C 816 659.333, 816.667 660, 818 660 C 819.333 660, 820 659.333, 820 658 C 820 656.667, 819.333 656, 818 656 C 816.667 656, 816 656.667, 816 658 M 824 658 C 824 659.333, 824.667 660, 826 660 C 827.333 660, 828 659.333, 828 658 C 828 656.667, 827.333 656, 826 656 C 824.667 656, 824 656.667, 824 658 M 872 658 C 872 659.667, 872.667 660, 876 660 C 879.333 660, 880 659.667, 880 658 C 880 656.333, 879.333 656, 876 656 C 872.667 656, 872 656.333, 872 658 M 960 663 C 960 663.550, 961.849 664, 964.109 664 C 968.191 664, 968.216 664.023, 967.823 667.386 C 967.568 669.574, 967.818 670.623, 968.528 670.351 C 969.133 670.119, 974.775 669.559, 981.064 669.107 L 992.500 668.286 984.250 668.143 C 976.714 668.012, 976 667.827, 976 666 C 976 664.333, 975.333 664, 972 664 C 969.800 664, 968 663.550, 968 663 C 968 662.450, 966.200 662, 964 662 C 961.800 662, 960 662.450, 960 663 M 912 665 C 912 665.583, 915.333 666, 920 666 C 924.667 666, 928 665.583, 928 665 C 928 664.417, 924.667 664, 920 664 C 915.333 664, 912 664.417, 912 665 M 1048 666 C 1048 667.333, 1048.667 668, 1050 668 C 1051.333 668, 1052 667.333, 1052 666 C 1052 664.667, 1051.333 664, 1050 664 C 1048.667 664, 1048 664.667, 1048 666 M 894.847 668.095 C 894.307 668.428, 895.238 669.270, 896.916 669.965 C 900.281 671.359, 906.997 670.584, 908.248 668.658 C 908.803 667.803, 909.223 667.845, 909.852 668.819 C 910.384 669.644, 912.164 670.019, 914.602 669.819 C 918.936 669.464, 919.899 667.664, 916 667.207 C 914.024 666.975, 913.814 667.129, 915 667.941 C 916.232 668.786, 916.099 668.972, 914.250 668.985 C 913.013 668.993, 912 668.606, 912 668.124 C 912 667.155, 896.410 667.128, 894.847 668.095 M 923.733 668.124 C 924.412 668.808, 925.219 669.115, 925.526 668.807 C 925.834 668.499, 925.279 667.940, 924.293 667.564 C 922.868 667.022, 922.753 667.136, 923.733 668.124 M 928.750 668.662 C 929.438 668.940, 930.563 668.940, 931.250 668.662 C 931.938 668.385, 931.375 668.158, 930 668.158 C 928.625 668.158, 928.063 668.385, 928.750 668.662 M 961.250 668.689 C 962.212 668.941, 963.788 668.941, 964.750 668.689 C 965.712 668.438, 964.925 668.232, 963 668.232 C 961.075 668.232, 960.288 668.438, 961.250 668.689 M 871.370 671.368 C 870.452 672.417, 872.516 672.585, 882.370 672.261 C 898.514 671.731, 900.145 669.988, 884.450 670.038 C 875.975 670.065, 872.171 670.452, 871.370 671.368 M 976 672.096 C 976 674.368, 978.080 675.023, 984.832 674.878 L 990.500 674.756 984.523 673.886 C 975.638 672.592, 975.633 672.179, 984.500 671.963 C 993.487 671.744, 992.817 671.283, 982.750 670.758 C 976.940 670.454, 976 670.641, 976 672.096 M 984.500 677.278 C 987.335 679.248, 990 680.096, 990 679.028 C 990 677.870, 989.211 677.441, 985.500 676.582 C 982.720 675.939, 982.646 675.990, 984.500 677.278 M 1091.750 678.750 C 1111.688 678.901, 1144.313 678.901, 1164.250 678.750 C 1184.188 678.598, 1167.875 678.474, 1128 678.474 C 1088.125 678.474, 1071.813 678.598, 1091.750 678.750 M 1019 706.989 C 1022.025 707.378, 1025.175 707.329, 1026 706.879 C 1026.884 706.397, 1024.624 706.106, 1020.500 706.171 L 1013.500 706.282 1019 706.989 M 998.776 707.733 C 1001.128 707.945, 1004.728 707.942, 1006.776 707.727 C 1008.824 707.512, 1006.900 707.339, 1002.500 707.343 C 998.100 707.346, 996.424 707.522, 998.776 707.733 M 966.250 714.716 C 967.763 714.945, 970.237 714.945, 971.750 714.716 C 973.263 714.487, 972.025 714.300, 969 714.300 C 965.975 714.300, 964.737 714.487, 966.250 714.716 M 913 716 C 913.825 716.533, 914.950 716.969, 915.500 716.969 C 916.050 716.969, 915.825 716.533, 915 716 C 914.175 715.467, 913.050 715.031, 912.500 715.031 C 911.950 715.031, 912.175 715.467, 913 716 M 899.750 717.732 C 902.087 717.943, 905.913 717.943, 908.250 717.732 C 910.587 717.522, 908.675 717.349, 904 717.349 C 899.325 717.349, 897.413 717.522, 899.750 717.732" stroke="none" fill="black" fill-rule="evenodd"/>
	<path fill-opacity="0.064" d="M 873.567 451.891 C 873.209 452.470, 872.944 482.277, 872.978 518.127 C 873.036 578.690, 873.163 583.404, 874.770 584.643 C 875.722 585.376, 887.075 591.269, 900 597.738 L 923.500 609.500 932 609.500 C 940.921 609.500, 966.065 607.999, 967.107 607.405 C 967.762 607.031, 984.594 605.846, 1022.500 603.503 C 1051.020 601.741, 1052.181 601.572, 1054.613 598.843 L 1056.500 596.726 1041.190 597.440 C 1032.769 597.833, 1024.687 598.371, 1023.229 598.635 C 1019.780 599.260, 994.040 600.886, 977.594 601.518 C 970.496 601.790, 964.196 602.422, 963.594 602.921 C 962.197 604.080, 925.450 604.779, 924.335 603.667 C 923.876 603.209, 923.369 574.278, 923.208 539.375 C 922.916 475.941, 922.915 475.915, 920.764 473.764 C 918.490 471.490, 881.175 452.584, 876.788 451.483 C 875.350 451.122, 873.931 451.302, 873.567 451.891 M 1042.200 469.200 C 1040.507 470.893, 1040.709 475.513, 1042.542 477.035 C 1043.711 478.005, 1044.366 478.034, 1045.242 477.158 C 1045.879 476.521, 1047.383 476, 1048.583 476 C 1051.722 476, 1052.286 472.618, 1049.574 470.069 C 1047.110 467.755, 1044.010 467.390, 1042.200 469.200 M 882.324 471.250 C 881.888 471.938, 880.458 474.750, 879.147 477.500 C 876.989 482.026, 876.781 483.674, 876.955 494.882 C 877.071 502.296, 877.620 508.023, 878.324 509.157 C 878.971 510.199, 881.169 511.502, 883.208 512.053 C 885.247 512.604, 887.186 513.492, 887.517 514.027 C 887.847 514.562, 888.750 515, 889.523 515 C 890.609 515, 890.992 512.870, 891.214 505.604 L 891.500 496.208 895 497.861 L 898.500 499.513 898.791 507.814 C 899.072 515.811, 899.011 516.076, 897.107 515.057 C 894.058 513.426, 893.096 513.768, 892.350 516.750 C 891.971 518.263, 890.839 520.850, 889.835 522.500 C 888.330 524.971, 888.007 527.650, 888.004 537.683 L 888 549.866 894.466 553.300 C 898.023 555.188, 901.173 556.494, 901.466 556.200 C 901.760 555.907, 902 552.094, 902 547.726 C 902 540.557, 902.170 539.856, 903.750 540.504 C 907.321 541.970, 908.470 541.394, 910.745 537 C 912.999 532.644, 913.062 531.858, 912.701 512.500 C 912.375 495.016, 912.060 491.823, 910.204 487.123 C 909.036 484.166, 907.949 481.622, 907.790 481.470 C 907.055 480.770, 884.656 470, 883.934 470 C 883.485 470, 882.761 470.563, 882.324 471.250 M 931.241 477.986 C 929.730 480.405, 929.629 483.653, 931.037 484.523 C 931.607 484.875, 933.810 484.870, 935.934 484.511 C 939.083 483.979, 939.887 483.373, 940.299 481.218 C 941.207 476.466, 933.833 473.835, 931.241 477.986 M 992.893 505.441 C 992.650 505.683, 989.199 505.976, 985.223 506.092 C 977.778 506.310, 975.237 507.569, 976.357 510.487 C 977.015 512.202, 980.530 512.366, 994.846 511.350 L 1004 510.701 1004 507.850 C 1004 505.073, 1003.864 505, 998.667 505 C 995.733 505, 993.135 505.198, 992.893 505.441 M 960 528.397 C 948.006 529.309, 945.556 529.759, 945.821 531 C 946.436 533.866, 947.893 534.236, 957.964 534.077 C 970.091 533.887, 975.363 532.461, 975.820 529.249 C 975.995 528.012, 975.770 527.066, 975.320 527.147 C 974.869 527.228, 967.975 527.790, 960 528.397 M 1028.216 536.365 L 1023.179 541.691 1015.503 542.340 C 1011.281 542.697, 1007.416 543.243, 1006.913 543.554 C 1006.411 543.864, 1006.052 545.779, 1006.116 547.809 C 1006.180 549.839, 1006.438 550.712, 1006.689 549.750 C 1007.073 548.284, 1008.338 548, 1014.498 548 C 1021.842 548, 1021.854 547.995, 1025.921 543.750 C 1028.160 541.413, 1030.249 538.712, 1030.564 537.750 C 1030.878 536.788, 1031.539 536, 1032.032 536 C 1033.356 536, 1035.153 532.213, 1034.129 531.580 C 1033.648 531.282, 1030.987 533.436, 1028.216 536.365 M 888.607 555.582 C 888.273 556.452, 888 561.170, 888 566.067 L 888 574.971 894.040 578.020 C 897.362 579.697, 900.512 580.802, 901.040 580.475 C 901.568 580.149, 902 575.191, 902 569.458 L 902 559.034 897.033 556.517 C 891.265 553.594, 889.447 553.392, 888.607 555.582 M 990.115 561.625 C 982.204 562.309, 975.251 563.349, 974.665 563.935 C 973.299 565.301, 975.341 565.299, 991.696 563.921 C 1003.318 562.941, 1007.622 561.957, 1005.337 560.803 C 1004.877 560.570, 998.027 560.940, 990.115 561.625 M 1042.245 585.155 C 1040.304 587.096, 1040.659 591.978, 1042.750 592.111 C 1049.858 592.560, 1052.582 590.807, 1050.693 586.998 C 1049.294 584.176, 1044.311 583.089, 1042.245 585.155 M 990.500 586.543 C 982.800 587.222, 976.356 587.827, 976.180 587.889 C 976.005 587.950, 976.005 589.013, 976.180 590.250 C 976.492 592.446, 976.764 592.494, 987.500 592.241 C 1003.688 591.860, 1005 591.538, 1005 587.955 C 1005 586.330, 1004.888 585.070, 1004.750 585.155 C 1004.612 585.239, 998.200 585.864, 990.500 586.543 M 931.246 593.154 C 930.561 593.839, 930 595.660, 930 597.200 C 930 599.898, 930.185 600, 935.060 600 L 940.121 600 939.810 596.250 C 939.521 592.756, 939.261 592.480, 935.996 592.204 C 934.068 592.042, 931.931 592.469, 931.246 593.154 M 926 669.534 C 915.825 670.280, 898.500 671.598, 887.500 672.462 C 865.266 674.208, 846.448 675.588, 831.750 676.549 C 826.388 676.900, 822 677.587, 822 678.076 C 822 678.566, 824.250 680.106, 827 681.500 C 829.750 682.894, 832 684.441, 832 684.939 C 832 686.223, 863.394 701.413, 871.093 703.855 C 874.617 704.972, 880.650 707.090, 884.500 708.560 C 898.347 713.847, 898.958 713.892, 929.538 711.898 C 944.917 710.895, 965.825 709.379, 976 708.530 C 986.175 707.681, 1001.925 706.524, 1011 705.959 C 1035.871 704.411, 1036.144 704.223, 1023.221 697.556 C 1018.706 695.226, 1014.222 692.616, 1013.256 691.754 C 1011.339 690.044, 985.948 678.507, 976.500 675.054 C 955.917 667.531, 954.865 667.416, 926 669.534" stroke="none" fill="black" fill-rule="evenodd"/>
	<path fill-opacity="0.138" d="M 874.607 457.582 C 873.671 460.020, 873.888 463, 875 463 C 875.550 463, 876 461.425, 876 459.500 C 876 455.705, 875.560 455.099, 874.607 457.582 M 1043.200 471.200 C 1042.540 471.860, 1042 473.210, 1042 474.200 C 1042 476.915, 1048.629 476.746, 1049.497 474.009 C 1049.845 472.914, 1049.848 471.564, 1049.506 471.009 C 1048.647 469.619, 1044.660 469.740, 1043.200 471.200 M 917.001 477 C 916.925 477.825, 916.699 479.738, 916.499 481.250 C 916.250 483.139, 916.585 484, 917.568 484 C 919.151 484, 919.371 480.691, 918 477.500 C 917.402 476.108, 917.098 475.956, 917.001 477 M 932.667 477.667 C 932.300 478.033, 932 479.608, 932 481.167 C 932 483.721, 932.334 484, 935.393 484 C 939.460 484, 940.850 481.597, 938.369 478.855 C 936.686 476.996, 933.915 476.418, 932.667 477.667 M 875.232 576 C 875.232 577.925, 875.438 578.712, 875.689 577.750 C 875.941 576.788, 875.941 575.212, 875.689 574.250 C 875.438 573.288, 875.232 574.075, 875.232 576 M 1045 585.297 C 1041.779 586.923, 1041.657 590.381, 1044.805 590.827 C 1046.996 591.137, 1050 589.542, 1050 588.069 C 1050 587.691, 1049.438 586.629, 1048.750 585.709 C 1047.685 584.283, 1047.129 584.222, 1045 585.297 M 916 596 C 916 598.889, 916.383 600.039, 917.250 599.750 C 917.938 599.521, 918.500 597.833, 918.500 596 C 918.500 594.167, 917.938 592.479, 917.250 592.250 C 916.383 591.961, 916 593.111, 916 596 M 933.250 593.662 C 932.563 593.940, 932 595.310, 932 596.708 C 932 599.022, 932.281 599.194, 935.125 598.625 C 936.844 598.281, 938.644 598, 939.125 598 C 940.781 598, 939.998 595.069, 938.066 594.035 C 935.997 592.928, 935.219 592.868, 933.250 593.662 M 935.500 669.716 C 932.750 669.911, 918.350 670.961, 903.500 672.048 C 888.650 673.136, 865.700 674.724, 852.500 675.578 C 826.908 677.232, 824 677.568, 824 678.867 C 824 679.323, 825.733 680.478, 827.852 681.433 C 829.971 682.389, 832.800 684.145, 834.139 685.335 C 835.478 686.526, 838.582 688.471, 841.037 689.658 C 851.648 694.789, 862.896 699.838, 868 701.762 C 871.025 702.902, 878.450 705.734, 884.500 708.054 C 890.550 710.375, 897.170 712.483, 899.211 712.738 C 901.252 712.994, 912.727 712.471, 924.711 711.576 C 936.695 710.682, 959.100 709.048, 974.500 707.945 C 1021.697 704.565, 1031 703.767, 1031 703.097 C 1031 702.742, 1026.725 700.328, 1021.500 697.732 C 1016.275 695.137, 1012 692.666, 1012 692.243 C 1012 691.819, 1009.862 690.503, 1007.250 689.319 C 986.356 679.847, 978.958 676.771, 968.356 673.149 C 955.744 668.840, 952.540 668.506, 935.500 669.716" stroke="none" fill="black" fill-rule="evenodd"/>
</svg>