<svg xmlns="http://www.w3.org/2000/svg" width="1920" height="1080" viewBox="0 0 1920 1080" version="1.1">
	<path fill-opacity="0.169" d="M -0 540.001 L -0 1080.001 960.250 1079.751 L 1920.500 1079.500 1920.751 539.750 L 1921.002 0 960.501 0 L 0 0 -0 540.001 M 0.496 540.500 C 0.496 837.500, 0.610 958.851, 0.750 810.168 C 0.890 661.485, 0.890 418.485, 0.750 270.168 C 0.610 121.851, 0.496 243.500, 0.496 540.500 M 930 187.072 C 904.930 190.225, 872.260 197.269, 848.901 204.559 C 830.668 210.249, 814.208 217.829, 795.922 228.959 C 787.310 234.200, 765.698 248.750, 760.430 252.854 C 753.499 258.253, 737.529 273.859, 732.242 280.401 C 729.086 284.305, 726.264 287.725, 725.971 288 C 724.052 289.798, 712.939 304.146, 711.162 307.118 C 707.100 313.916, 708.995 312.270, 716.025 302.896 C 738.362 273.111, 761.153 252.179, 788 236.793 C 811.659 223.235, 826.969 215.378, 836.831 211.734 C 866.590 200.740, 931.568 188.258, 957 188.650 C 968.336 188.826, 1003.293 193.216, 1019.500 196.500 C 1049.775 202.635, 1075.378 210.899, 1095.301 220.967 C 1122.970 234.949, 1134.449 242.533, 1155.065 260.449 C 1161.426 265.977, 1170.594 273.837, 1175.439 277.917 C 1180.972 282.575, 1187.791 289.826, 1193.777 297.417 C 1205.125 311.807, 1206 312.799, 1206 311.278 C 1206 309.562, 1196.214 295.271, 1190.500 288.644 C 1185.337 282.656, 1151.592 252.985, 1139.855 244.115 C 1128.561 235.578, 1117.063 228.516, 1103 221.478 C 1082.239 211.089, 1075.245 208.362, 1051.535 201.414 C 1016.086 191.025, 991.092 187.034, 958 186.475 C 946.725 186.285, 934.125 186.554, 930 187.072 M 927 285.026 C 916.373 285.849, 899.832 288.277, 890 290.457 C 886.425 291.250, 876.975 293.302, 869 295.018 C 861.025 296.734, 847.300 300.305, 838.500 302.954 C 829.700 305.603, 818 308.774, 812.500 310.002 C 804.259 311.840, 798.982 313.990, 782.500 322.223 C 771.500 327.718, 761.037 333.102, 759.250 334.188 C 756.128 336.085, 755.975 336.091, 755.369 334.332 C 751.215 322.278, 746.378 316.252, 737.069 311.535 C 727.911 306.894, 720.162 308.605, 712.873 316.876 C 708.317 322.047, 706.051 325.965, 705.356 329.871 C 705.099 331.317, 704.251 334.394, 703.470 336.709 C 702.690 339.024, 701.601 343.749, 701.050 347.209 C 699.798 355.070, 697.290 386.253, 696.523 403.500 C 696.205 410.650, 695.455 421.001, 694.856 426.501 C 693.556 438.451, 694.257 477.988, 695.857 482.937 C 696.468 484.828, 698.125 495.178, 699.540 505.937 C 700.955 516.697, 702.515 527.301, 703.005 529.503 C 703.496 531.705, 704.794 539.130, 705.890 546.003 C 709.559 569.017, 712.803 584.735, 716.862 599.172 C 719.078 607.052, 721.368 616.181, 721.950 619.457 C 723.057 625.686, 725.666 630.410, 731.662 637.048 C 737.432 643.434, 737.402 641.592, 731.604 633.512 C 727.229 627.414, 725.995 624.768, 724.963 619.262 C 724.265 615.543, 722.646 609.407, 721.365 605.627 C 716.275 590.610, 711.050 565.514, 708.533 544 C 708.179 540.975, 707.046 535.125, 706.015 531 C 704.984 526.875, 702.954 514.275, 701.505 503 C 700.055 491.725, 698.469 479.800, 697.979 476.500 C 696.014 463.269, 695.744 438.930, 697.398 424.274 C 698.282 416.450, 699.441 398.900, 699.974 385.274 C 701.078 357.092, 702.198 346.347, 705.022 336.845 C 706.110 333.184, 707 329.559, 707 328.789 C 707 326.476, 717.547 314.426, 720.631 313.215 C 726.616 310.867, 729.802 311.061, 735.982 314.149 C 739.311 315.812, 743.610 319.049, 745.721 321.480 C 750.768 327.293, 755.052 337.781, 756.143 346.995 C 756.632 351.123, 758.132 360.575, 759.476 368 C 760.820 375.425, 763.128 389.825, 764.605 400 C 766.082 410.175, 768.995 427.048, 771.078 437.496 C 774.256 453.436, 774.652 456.733, 773.535 457.996 C 771.571 460.217, 760.165 483.052, 759.422 486.250 C 757.956 492.563, 760.982 487.928, 768.705 472.032 C 778.121 452.653, 777.791 455.817, 772.977 431 C 771.429 423.025, 768.760 407.500, 767.044 396.500 C 765.328 385.500, 762.591 369.650, 760.962 361.277 C 759.333 352.904, 758 344.782, 758 343.227 C 758 341.672, 757.531 339.931, 756.958 339.358 C 755.523 337.923, 756.880 336.992, 767 332.468 C 771.675 330.378, 781.691 325.576, 789.258 321.798 C 800.223 316.324, 805.272 314.430, 814.124 312.473 C 825.854 309.878, 834.620 307.469, 847.099 303.409 C 855.305 300.739, 879.376 295.396, 900.952 291.456 C 912.851 289.282, 927.070 287.834, 947.949 286.667 C 951.632 286.462, 954.563 285.812, 954.782 285.154 C 955.218 283.847, 942.956 283.791, 927 285.026 M 956 285 C 956 285.550, 956.450 286, 957 286 C 957.550 286, 958 285.550, 958 285 C 958 284.450, 957.550 284, 957 284 C 956.450 284, 956 284.450, 956 285 M 961.500 284.931 C 958.095 285.876, 958.484 285.955, 969.500 286.572 C 991.933 287.829, 1005.860 289.230, 1018.048 291.456 C 1040.473 295.551, 1063.168 300.641, 1073.097 303.801 C 1086.318 308.008, 1096.139 310.679, 1106.657 312.927 C 1113.771 314.447, 1119.913 316.911, 1135.114 324.344 C 1145.776 329.557, 1156.239 334.535, 1158.364 335.408 L 1162.228 336.993 1161.536 341.747 C 1161.156 344.361, 1160.204 347.497, 1159.422 348.715 C 1158.640 349.933, 1158 351.979, 1158 353.262 C 1158 355.744, 1154.227 373.824, 1153.445 375.090 C 1153.189 375.503, 1151.878 384.989, 1150.532 396.171 C 1149.185 407.352, 1147.538 420.775, 1146.873 426 C 1145.212 439.038, 1145.147 455.537, 1146.750 457.146 C 1147.438 457.836, 1148 459.143, 1148 460.052 C 1148 460.960, 1150.056 464.808, 1152.570 468.602 C 1155.083 472.396, 1159.055 479.550, 1161.397 484.500 C 1163.740 489.450, 1166.193 494.625, 1166.850 496 C 1167.926 498.254, 1167.991 498.079, 1167.505 494.216 C 1166.782 488.473, 1162.443 479.591, 1154.454 467.500 L 1147.847 457.500 1148.445 445.147 C 1148.774 438.354, 1149.468 429.579, 1149.988 425.647 C 1150.507 421.716, 1151.869 409.950, 1153.014 399.500 C 1154.159 389.050, 1155.721 378.025, 1156.484 375 C 1157.248 371.975, 1158.375 365.900, 1158.989 361.500 C 1160.660 349.524, 1160.824 348.951, 1168.664 327.780 C 1170.635 322.458, 1172.010 320.430, 1175.274 318.030 C 1180.009 314.548, 1186.467 313.952, 1191.431 316.541 C 1196.035 318.941, 1207.499 328.670, 1208.713 331.206 C 1211.207 336.419, 1217.962 388.014, 1219.945 417 C 1221.955 446.391, 1221.925 466.174, 1219.852 477.807 C 1218.804 483.688, 1216.805 495.250, 1215.410 503.500 C 1214.016 511.750, 1210.701 527.275, 1208.044 538 C 1205.387 548.725, 1202.920 559.300, 1202.563 561.500 C 1202.205 563.700, 1200.595 570.450, 1198.986 576.500 C 1197.376 582.550, 1194.976 591.775, 1193.652 597 C 1192.328 602.225, 1188.948 613.025, 1186.141 621 C 1180.916 635.846, 1179.796 637.587, 1173.137 641.203 C 1169.507 643.175, 1168.951 645.080, 1172.250 644.240 C 1175.012 643.537, 1181.087 639.805, 1182.772 637.775 C 1183.455 636.952, 1185.313 632.503, 1186.900 627.889 C 1188.487 623.275, 1191.213 615.450, 1192.957 610.500 C 1194.701 605.550, 1197.174 596.775, 1198.454 591 C 1199.734 585.225, 1201.997 575.550, 1203.482 569.500 C 1214.031 526.536, 1216.141 517.379, 1217.536 508.500 C 1218.401 503, 1220.230 492.425, 1221.602 485 C 1224.224 470.806, 1224.524 463.139, 1223.514 436 C 1221.943 393.781, 1214.531 338.981, 1209.177 330 C 1206.584 325.650, 1196.988 317.079, 1192.134 314.776 C 1190.135 313.828, 1186.129 313.041, 1183.230 313.026 C 1175.422 312.987, 1170.622 316.352, 1166.959 324.430 C 1165.392 327.886, 1163.810 331.909, 1163.443 333.369 L 1162.777 336.025 1159.638 334.119 C 1157.912 333.071, 1147.500 327.718, 1136.500 322.223 C 1120.018 313.990, 1114.741 311.840, 1106.500 310.002 C 1101 308.774, 1089.300 305.603, 1080.500 302.954 C 1071.700 300.305, 1057.975 296.734, 1050 295.018 C 1042.025 293.302, 1032.575 291.241, 1029 290.438 C 1009.677 286.099, 969.194 282.796, 961.500 284.931 M 848 468.572 C 831.501 472.766, 823.627 475.334, 814.500 479.499 C 806.611 483.099, 796.485 490.896, 795.446 494.171 C 795.067 495.364, 793.317 498.627, 791.556 501.421 C 784.868 512.034, 781.761 523.169, 779.914 543.141 L 778.652 556.781 781.362 564.141 C 782.852 568.188, 785.403 573.264, 787.029 575.419 C 793.645 584.186, 806.437 593.016, 814.849 594.621 C 817.323 595.093, 817.845 595.506, 816.849 596.201 C 814.247 598.017, 834.390 596.207, 845.554 593.621 C 858.283 590.674, 858.807 590.472, 877.515 581.311 C 897.535 571.508, 908.330 565.253, 909.622 562.709 C 910.239 561.494, 912.135 558.005, 913.835 554.956 C 921.554 541.114, 923.132 514.615, 917.317 496.500 C 916.434 493.750, 915.054 490.600, 914.251 489.500 C 912.842 487.570, 912.810 487.588, 913.340 490 C 913.642 491.375, 914.810 496.100, 915.937 500.500 C 917.391 506.183, 917.984 511.686, 917.985 519.500 C 917.985 538.436, 915.204 549.424, 907.924 559.250 C 904.181 564.302, 902.735 565.236, 883.210 575.204 C 871.662 581.100, 858.710 586.934, 853.985 588.369 C 843.325 591.607, 831.868 594.022, 832.573 592.882 C 832.867 592.406, 829.146 592.066, 824.304 592.126 C 812.756 592.271, 806.397 589.907, 797.829 582.286 C 789.943 575.272, 786.860 571.090, 784.136 563.712 C 781.610 556.869, 781.488 551.573, 783.486 535.436 C 785.109 522.327, 787.777 513.349, 793.311 502.368 C 800.630 487.849, 815.355 479.873, 850.500 471.393 C 866.020 467.647, 873.558 467.214, 882.540 469.550 C 889.737 471.423, 902.315 478.011, 906.663 482.187 C 908.403 483.857, 910.333 485.056, 910.953 484.849 C 913.089 484.137, 904.125 476.452, 896.284 472.274 C 880.583 463.908, 869.647 463.070, 848 468.572 M 1040 466.666 C 1033.842 468.308, 1012.772 478.893, 1012.262 480.601 C 1012.081 481.207, 1016.785 479.365, 1022.716 476.509 C 1034.550 470.810, 1037.623 469.701, 1046.395 467.965 C 1050.491 467.154, 1051.865 466.528, 1050.895 465.914 C 1049.038 464.738, 1046.593 464.907, 1040 466.666 M 1059.250 467.689 C 1060.213 467.941, 1061.787 467.941, 1062.750 467.689 C 1063.713 467.438, 1062.925 467.232, 1061 467.232 C 1059.075 467.232, 1058.287 467.438, 1059.250 467.689 M 1075.500 472.443 C 1093.939 477.133, 1113.014 486.046, 1122.646 494.472 C 1128.888 499.932, 1132.961 509.174, 1136.100 525 C 1137.850 533.820, 1138.084 537.620, 1137.566 548.753 C 1137.227 556.041, 1136.741 563.466, 1136.486 565.253 C 1136.103 567.943, 1136.301 567.728, 1137.645 564 C 1138.744 560.953, 1139.418 554.819, 1139.734 545 C 1140.291 527.663, 1138.448 518.039, 1131.915 504.172 C 1128.345 496.595, 1127.093 494.961, 1121.995 491.233 C 1109.661 482.211, 1092.844 474.578, 1077.338 470.962 C 1063.097 467.642, 1061.543 468.893, 1075.500 472.443 M 1008.793 489.250 C 1005.041 495.126, 1003.770 500.800, 1002.803 516 C 1001.598 534.925, 1002.079 545.468, 1004.331 549.500 L 1006.006 552.500 1005.253 549.500 C 1004.839 547.850, 1004.603 536.857, 1004.728 525.070 C 1004.929 506.229, 1005.217 502.846, 1007.108 497.070 C 1008.291 493.457, 1009.945 489.712, 1010.784 488.750 C 1011.623 487.788, 1011.842 487, 1011.270 487 C 1010.698 487, 1009.583 488.012, 1008.793 489.250 M 757.870 499.691 C 757.478 523.173, 758.444 553.500, 759.584 553.500 C 761.255 553.500, 761.807 544.662, 760.927 532 C 760.449 525.125, 760.045 513.564, 760.029 506.309 C 760.012 498.627, 759.582 492.860, 759 492.500 C 758.370 492.111, 757.952 494.770, 757.870 499.691 M 1167.797 501 C 1167.448 501.825, 1166.870 504.975, 1166.514 508 C 1165.599 515.776, 1161.448 536.649, 1158.398 548.810 C 1156.004 558.359, 1155.812 564, 1157.881 564 C 1158.345 564, 1159.006 561.638, 1159.349 558.750 C 1159.692 555.862, 1161.061 549.225, 1162.390 544 C 1165.761 530.752, 1169.199 509.192, 1168.782 503.915 C 1168.590 501.474, 1168.149 500.171, 1167.797 501 M 947.286 539.169 C 944.536 539.913, 943.548 541.145, 940.428 547.719 C 936.235 556.555, 933.487 566.747, 929.029 590 C 927.289 599.075, 924.771 610.011, 923.433 614.302 C 920.476 623.784, 920.411 626.311, 923.015 630.525 C 926.284 635.814, 938.793 644.927, 948.579 649.147 C 957.857 653.149, 960 653.684, 960 652 C 960 651.450, 959.473 651, 958.829 651 C 958.185 651, 956.947 650.368, 956.079 649.595 C 955.210 648.822, 951.778 647.090, 948.451 645.746 C 939.316 642.057, 926.909 632.609, 924.932 627.837 C 923.875 625.285, 924.131 623.291, 926.808 613.191 C 928.512 606.761, 931.514 593.175, 933.479 583 C 935.443 572.825, 938.685 559.661, 940.682 553.746 L 944.312 542.993 948.406 541.882 C 950.658 541.270, 956.885 540.674, 962.246 540.556 C 967.606 540.439, 972.293 540.040, 972.662 539.671 C 973.450 538.883, 972.554 538.802, 960 538.516 C 954.775 538.397, 949.054 538.691, 947.286 539.169 M 971.001 542.750 C 971.002 543.163, 973.026 549.679, 975.500 557.230 C 983.158 580.612, 992.260 615.767, 992.407 622.534 C 992.568 629.918, 986.860 636.216, 971.657 645.431 C 968.090 647.593, 964.120 650.216, 962.836 651.260 L 960.500 653.158 963.494 652.499 C 967.599 651.595, 982.652 642.507, 987.335 638.105 C 992.188 633.543, 995.245 627.660, 995.181 623.007 C 995.028 611.928, 974.899 542, 971.863 542 C 971.388 542, 971.001 542.337, 971.001 542.750 M 724.401 553.905 C 716.615 557.441, 713.486 565.110, 716.373 573.582 C 718.535 579.927, 726.954 590.797, 734.415 596.877 C 745.072 605.561, 746.722 607.764, 747.992 615 C 748.619 618.575, 752.928 641.525, 757.567 666 C 762.206 690.475, 766.928 715.450, 768.060 721.500 C 769.928 731.487, 772.556 742.083, 784.001 785.766 C 788.607 803.348, 790.190 805.882, 808.708 825.318 C 816.294 833.280, 828.285 845.922, 835.357 853.412 C 842.428 860.902, 852.778 870.646, 858.357 875.066 C 863.935 879.486, 871.336 885.407, 874.801 888.225 C 885.514 896.934, 895.109 899.540, 925.395 901.967 C 941.430 903.252, 982.356 903.316, 992.178 902.073 C 996.205 901.563, 1006.019 900.879, 1013.987 900.554 C 1029.400 899.924, 1031.917 899.187, 1042 892.353 C 1046.378 889.386, 1066.132 871.760, 1080 858.447 C 1085.775 852.903, 1094.194 845.336, 1098.710 841.631 C 1108.646 833.478, 1116.858 824.647, 1123.341 815.142 C 1129.862 805.582, 1128.870 804.167, 1121.997 813.224 C 1114.294 823.373, 1103.879 834.168, 1094.538 841.684 C 1090.158 845.208, 1082.026 852.458, 1076.467 857.795 C 1058.728 874.826, 1044.153 887.732, 1038.078 891.789 L 1032.176 895.731 1021.338 892.891 C 1015.377 891.330, 1008.250 889.401, 1005.500 888.605 C 1002.750 887.809, 996.225 885.965, 991 884.508 C 985.775 883.050, 979.462 881.266, 976.971 880.542 C 974.480 879.819, 968.405 878.658, 963.471 877.962 L 954.500 876.697 936.544 882.868 C 916.055 889.910, 898.959 895, 895.800 895 C 891.014 895, 880.416 890.616, 876.500 887.016 C 874.300 884.994, 868.533 880.291, 863.685 876.565 C 855.525 870.293, 829.840 845.066, 823.402 837 C 821.865 835.075, 814.652 827.425, 807.371 820 C 789.198 801.466, 788.339 800.287, 787.502 792.734 C 787.121 789.305, 783.671 774.148, 779.833 759.051 C 775.996 743.954, 771.084 722.129, 768.918 710.551 C 764.780 688.432, 750.304 615.931, 749.341 612.500 C 748.562 609.725, 756.690 617.594, 763.802 626.500 C 766.876 630.350, 772.392 636.875, 776.058 641 C 779.724 645.125, 784.274 650.750, 786.168 653.500 C 788.062 656.250, 791.098 660.678, 792.916 663.340 C 795.055 666.474, 796.563 667.837, 797.192 667.208 C 798.472 665.928, 787.327 649.832, 777.161 638.277 C 772.914 633.449, 766.917 626.326, 763.834 622.447 C 760.751 618.567, 753.139 610.692, 746.918 604.947 C 729.375 588.744, 723.296 582.236, 720.541 576.707 C 717.369 570.341, 717.289 565.352, 720.287 560.898 C 724.137 555.179, 726.671 554.486, 743.250 554.615 C 758.461 554.734, 762.659 553.772, 751.853 552.642 C 739.969 551.400, 728.784 551.915, 724.401 553.905 M 1010.655 562.348 C 1013.765 567.906, 1053.040 590.468, 1065.190 593.677 C 1069.889 594.919, 1076.095 595.364, 1089.500 595.422 C 1106.248 595.495, 1107.848 595.340, 1112.500 593.203 C 1117.450 590.930, 1126.141 583.361, 1128.235 579.500 C 1128.832 578.400, 1126.319 580.301, 1122.651 583.724 C 1117.047 588.954, 1114.840 590.295, 1108.822 592.123 C 1102.340 594.092, 1100.280 594.237, 1087.081 593.663 C 1071.120 592.968, 1063.883 591.491, 1054 586.910 C 1044.860 582.674, 1029.073 573.652, 1018.647 566.707 C 1013.778 563.464, 1010.182 561.502, 1010.655 562.348 M 1165 565.525 L 1159.500 566.825 1170.099 566.678 C 1180.239 566.538, 1180.854 566.652, 1184.318 569.294 C 1186.961 571.309, 1188.352 573.448, 1189.469 577.209 C 1190.311 580.044, 1191 583.017, 1191 583.815 C 1191 586.524, 1188.708 592.936, 1187.100 594.727 C 1186.220 595.706, 1182.350 600.106, 1178.500 604.504 C 1174.650 608.901, 1171.005 612.949, 1170.401 613.499 C 1169.796 614.050, 1164.399 620.125, 1158.408 627 C 1152.417 633.875, 1140.052 647.047, 1130.931 656.271 L 1114.346 673.043 1110.503 671.437 C 1108.389 670.553, 1101.223 668.645, 1094.580 667.196 C 1084.889 665.082, 1079.830 664.558, 1069 664.549 C 1054.685 664.536, 1050.677 665.534, 1042.956 671.031 C 1037.763 674.729, 1039.775 674.746, 1047.179 671.067 C 1054.031 667.663, 1054.908 667.485, 1066.430 667.174 C 1079.182 666.829, 1091.413 668.642, 1106.701 673.142 L 1113.902 675.262 1111.611 678.381 C 1109.520 681.228, 1102 697.828, 1102 699.596 C 1102 700.009, 1095.194 714.330, 1086.875 731.423 C 1073.704 758.484, 1070.195 764.762, 1059.720 780 C 1053.103 789.625, 1047.318 797.920, 1046.862 798.433 C 1046.089 799.304, 1046.423 797.969, 1049.032 789.750 C 1049.599 787.962, 1051.387 778.850, 1053.005 769.500 C 1056.504 749.277, 1058.804 744.011, 1074.331 720.683 C 1086.262 702.757, 1091.591 691.824, 1092.549 683.307 C 1093.228 677.273, 1092.521 671.145, 1091.289 672.377 C 1090.952 672.715, 1090.377 676.759, 1090.011 681.365 C 1089.172 691.925, 1085.898 699.062, 1072.896 718.668 C 1067.728 726.460, 1062.067 735.460, 1060.316 738.668 L 1057.131 744.500 1057.705 738.750 C 1058.090 734.902, 1057.918 733, 1057.185 733 C 1056.583 733, 1055.852 734.462, 1055.560 736.250 C 1055.267 738.038, 1053.434 749.400, 1051.486 761.500 C 1049.538 773.600, 1046.606 788.177, 1044.972 793.893 C 1043.337 799.609, 1042 804.688, 1042 805.180 C 1042 806.883, 1050.252 798.135, 1055.063 791.333 C 1067.666 773.513, 1075.463 761.151, 1079.421 752.716 C 1081.799 747.647, 1087.235 736.300, 1091.500 727.501 C 1095.764 718.701, 1101.912 704.986, 1105.161 697.023 C 1108.410 689.060, 1111.689 681.597, 1112.448 680.440 C 1114.452 677.381, 1126.011 665.153, 1137.346 654.101 C 1142.761 648.820, 1153.084 637.647, 1160.284 629.272 C 1167.485 620.896, 1173.577 614.244, 1173.823 614.490 C 1174.068 614.735, 1173.767 616.188, 1173.153 617.718 C 1172.539 619.248, 1169.978 628.938, 1167.462 639.251 C 1164.947 649.564, 1161.539 661.897, 1159.889 666.658 C 1158.240 671.418, 1156.017 679.630, 1154.950 684.906 C 1153.249 693.314, 1145.354 726.640, 1134.434 771.500 C 1132.560 779.200, 1129.731 789.438, 1128.148 794.250 C 1125.354 802.744, 1125.452 805.349, 1128.392 800.750 C 1130.665 797.195, 1136.644 776.808, 1139.904 761.500 C 1141.544 753.800, 1145.806 735.575, 1149.375 721 C 1152.945 706.425, 1156.577 690.675, 1157.447 686 C 1158.316 681.325, 1160.591 672.775, 1162.501 667 C 1164.412 661.225, 1167.760 648.540, 1169.941 638.812 C 1176.017 611.721, 1176.187 611.270, 1183.509 602.882 C 1192.008 593.146, 1193.316 590.299, 1192.825 582.600 C 1191.836 567.061, 1182.565 561.372, 1165 565.525 M 832.863 659.995 C 822.320 661.026, 801.561 666.051, 798.788 668.243 L 796.500 670.051 799 669.490 C 801.172 669.003, 801.894 669.595, 804.500 674.005 C 810.248 683.729, 811.844 687.645, 819.402 710.561 C 828.013 736.668, 831.945 745.442, 841.115 759 C 844.649 764.225, 848.588 770.300, 849.869 772.500 C 853.219 778.257, 863.253 792.080, 863.733 791.600 C 864.652 790.682, 856.877 777.630, 844.017 758.500 C 833.472 742.814, 829.860 734.692, 819.998 704.500 C 814.556 687.842, 812.448 682.850, 807.791 675.595 C 805.706 672.347, 804 669.345, 804 668.923 C 804 667.945, 808.838 666.437, 816.500 665.026 C 819.800 664.419, 823.513 663.705, 824.750 663.442 C 826.969 662.968, 827 663.104, 827 673.297 C 827 688.839, 828.229 693.575, 836.248 708.941 C 842.560 721.035, 856.563 744, 857.625 744 C 858.232 744, 853.635 735.148, 848.155 725.765 C 831.699 697.587, 829.799 692.421, 828.527 672.380 L 827.948 663.260 831.099 662.630 C 835.079 661.834, 852.326 661.828, 857.119 662.621 L 860.738 663.219 859.619 667.360 C 858 673.350, 858.204 751.520, 859.872 764 C 861.451 775.822, 864.514 789.226, 866.452 792.796 C 867.693 795.083, 867.924 795.191, 867.945 793.500 C 867.959 792.400, 867.318 788.734, 866.521 785.353 C 864.123 775.183, 862.914 766.233, 861.950 751.500 C 860.861 734.849, 860.778 673.210, 861.836 667.500 C 862.754 662.552, 863.629 662.589, 874.331 668.023 C 883.974 672.920, 885.626 673.067, 879.891 668.517 C 870.567 661.120, 853.322 657.995, 832.863 659.995 M 947.441 661.523 C 945.645 662.932, 945.798 662.988, 949.500 662.273 C 951.700 661.848, 957.775 661.546, 963 661.602 C 968.497 661.662, 971.657 661.375, 970.500 660.923 C 969.400 660.493, 964.199 660.109, 958.941 660.070 C 951.814 660.018, 948.888 660.387, 947.441 661.523 M 1055.559 681.250 C 1056.442 697.751, 1056.748 705.557, 1057.004 718 C 1057.198 727.446, 1057.315 728.048, 1058.177 724 C 1059.195 719.215, 1058.572 675.113, 1057.431 671.250 C 1057.066 670.013, 1056.347 669, 1055.835 669 C 1055.274 669, 1055.164 673.879, 1055.559 681.250 M 864.750 686.662 C 865.438 686.940, 866.563 686.940, 867.250 686.662 C 867.938 686.385, 867.375 686.158, 866 686.158 C 864.625 686.158, 864.063 686.385, 864.750 686.662 M 871.269 687.693 C 872.242 687.947, 873.592 687.930, 874.269 687.656 C 874.946 687.382, 874.150 687.175, 872.500 687.195 C 870.850 687.215, 870.296 687.439, 871.269 687.693 M 892.500 691.105 C 901.850 692.703, 915.350 694.722, 922.500 695.593 C 939.567 697.671, 988.475 698.623, 1001.620 697.133 C 1014.914 695.626, 1050.893 689.603, 1048.898 689.219 C 1048.022 689.050, 1041.050 689.855, 1033.403 691.008 C 1001.467 695.821, 995.878 696.287, 970 696.295 C 942.516 696.303, 923.896 694.844, 896.486 690.534 C 887.694 689.152, 879.375 688.061, 878 688.110 C 876.625 688.160, 883.150 689.507, 892.500 691.105 M 1052.813 688.683 C 1053.534 688.972, 1054.397 688.936, 1054.729 688.604 C 1055.061 688.272, 1054.471 688.036, 1053.417 688.079 C 1052.252 688.127, 1052.015 688.364, 1052.813 688.683 M 864 733.905 C 864 735.205, 873.168 738.878, 881.500 740.916 C 904.972 746.657, 929.764 749.461, 951.750 748.861 C 959.038 748.663, 965.001 748.725, 965.002 749 C 965.005 750.025, 975.967 749.795, 990.620 748.462 C 1012.579 746.465, 1052.181 737.578, 1053.411 734.371 C 1054.099 732.577, 1051.782 732.630, 1045.500 734.550 C 1034.891 737.793, 1003.082 744.143, 993.036 745.024 C 969.345 747.102, 935.072 746.644, 913 743.955 C 901.206 742.518, 876.038 737.383, 869.462 735.071 C 866.458 734.015, 864 733.490, 864 733.905 M 867 774.383 C 867 774.652, 871.612 777.402, 877.250 780.494 C 912.099 799.610, 944.512 804.770, 990.427 798.511 C 1009.580 795.900, 1021.731 792.729, 1027.500 788.837 C 1029.150 787.724, 1029.600 787.143, 1028.500 787.547 C 1027.400 787.950, 1023.800 789.294, 1020.500 790.533 C 1007.582 795.382, 966.965 800.618, 950.500 799.555 C 921.360 797.675, 899.213 791.454, 875.349 778.446 C 870.757 775.943, 867 774.115, 867 774.383 M 937 885.135 C 925.725 888.953, 913.575 892.797, 910 893.676 C 898.343 896.544, 899.241 896.841, 926.366 899.074 C 939.632 900.166, 995.971 899.865, 1000.500 898.677 C 1001.600 898.389, 1008.489 898.119, 1015.809 898.077 C 1028.714 898.002, 1032.081 896.988, 1024.282 895.525 C 1020.097 894.740, 992.542 887.081, 981 883.495 C 973.396 881.132, 965.951 879.357, 960.500 878.607 C 958.550 878.339, 950.322 880.625, 937 885.135" stroke="none" fill="black" fill-rule="evenodd"/>
	<path fill-opacity="0.462" d="M -0 540.001 L -0 1080.001 960.250 1079.751 L 1920.500 1079.500 1920.751 539.750 L 1921.002 0 960.501 0 L 0 0 -0 540.001 M 0.496 540.500 C 0.496 837.500, 0.610 958.851, 0.750 810.168 C 0.890 661.485, 0.890 418.485, 0.750 270.168 C 0.610 121.851, 0.496 243.500, 0.496 540.500 M 937.656 186.104 C 922.732 187.264, 899.618 191.163, 878.893 196.014 C 849.723 202.843, 840.297 205.932, 819.841 215.366 C 811.866 219.043, 788.660 232.324, 784.217 235.753 C 782.173 237.330, 775.928 241.644, 770.341 245.339 C 759.410 252.567, 739.267 270.758, 731.404 280.500 C 728.741 283.800, 723.728 290.008, 720.265 294.296 C 712.726 303.628, 708.749 309.748, 709.249 311.247 C 709.451 311.853, 710.700 310.807, 712.026 308.924 C 727.301 287.217, 752.260 261.405, 770.500 248.452 C 790.015 234.593, 824.195 216.588, 843.007 210.258 C 866.731 202.275, 903.338 194.207, 928 191.525 C 935.975 190.657, 946.002 189.556, 950.283 189.078 C 954.564 188.599, 959.514 188.582, 961.283 189.039 C 963.052 189.497, 970.575 190.365, 978 190.969 C 1008.894 193.481, 1048.973 202.286, 1074.500 212.169 C 1087.233 217.099, 1116.721 232.319, 1127.495 239.522 C 1138.575 246.930, 1140.411 248.403, 1164.990 269.602 C 1184.684 286.588, 1187.297 289.262, 1198.475 303.880 C 1206.286 314.093, 1209.030 315.900, 1205.135 308.264 C 1198.976 296.191, 1186.779 283.088, 1161.500 261.386 C 1135.772 239.298, 1125.533 232.304, 1100.633 219.810 C 1078.471 208.689, 1063.390 203.333, 1032.500 195.612 C 1003.393 188.337, 962.135 184.201, 937.656 186.104 M 939 284.117 C 911.744 285.373, 872.847 292.406, 842.885 301.496 C 834.846 303.935, 821.944 307.482, 814.212 309.379 C 801.364 312.530, 798.366 313.742, 779.384 323.451 C 767.961 329.295, 758.088 334.512, 757.444 335.046 C 756.599 335.748, 755.649 334.303, 754.024 329.844 C 748.549 314.831, 731.003 304.810, 720.080 310.458 C 716.499 312.310, 708.128 321.565, 706.475 325.500 C 701.705 336.857, 699.763 348, 698.021 374 C 697.413 383.075, 696.148 400.175, 695.208 412 C 693.070 438.916, 693.105 469.146, 695.290 481.500 C 696.165 486.450, 697.833 497.700, 698.997 506.500 C 700.160 515.300, 701.785 525.425, 702.608 529 C 703.431 532.575, 704.773 540.574, 705.591 546.775 C 707.868 564.044, 712.493 586.068, 716.962 600.919 C 719.183 608.300, 721 615.064, 721 615.951 C 721 623.620, 729.568 638.174, 736.057 641.530 C 740.887 644.027, 744 645.016, 744 644.053 C 744 643.559, 742.472 642.651, 740.604 642.034 C 738.584 641.368, 736.176 639.413, 734.658 637.207 C 733.255 635.168, 730.780 631.589, 729.157 629.253 C 727.202 626.440, 725.816 622.727, 725.050 618.253 C 724.413 614.539, 722.605 607.450, 721.031 602.500 C 716.623 588.638, 714.409 578.958, 711.538 561 C 710.087 551.925, 707.822 538.650, 706.504 531.500 C 705.186 524.350, 703.366 512.650, 702.460 505.500 C 701.553 498.350, 700.129 488.900, 699.294 484.500 C 697.267 473.819, 696.469 440.033, 697.880 424.663 C 698.494 417.973, 699.683 399.225, 700.523 383 C 702.100 352.526, 702.910 344.912, 705.476 336.453 C 706.302 333.729, 706.983 330.534, 706.989 329.354 C 706.996 328.066, 709.897 324.169, 714.250 319.602 L 721.500 311.995 726.869 311.998 C 731.274 312, 733.310 312.651, 738.202 315.622 C 741.481 317.615, 745.431 320.993, 746.979 323.130 C 751.276 329.061, 754.979 339.349, 756.064 348.367 C 756.602 352.840, 757.703 359.790, 758.512 363.812 C 759.320 367.833, 761.780 382.908, 763.979 397.312 C 766.178 411.715, 769.464 430.925, 771.281 440 L 774.585 456.500 772.216 460 C 768.496 465.496, 759 484.955, 759 487.082 C 759 490.252, 760.999 489.250, 762.655 485.250 C 765.031 479.512, 774.854 459.656, 775.992 458.292 C 776.546 457.628, 776.998 456.053, 776.996 454.792 C 776.991 452.186, 773.068 427.919, 772.503 427.005 C 772.300 426.677, 770.519 416.304, 768.546 403.954 C 766.573 391.604, 763.620 374.300, 761.985 365.500 C 759.082 349.875, 757.056 337.592, 757.352 337.408 C 757.434 337.358, 767.862 332.297, 780.528 326.162 C 799.925 316.766, 805.127 314.676, 813.528 312.905 C 819.012 311.748, 830.925 308.555, 840 305.808 C 861.495 299.304, 898.267 291.436, 918 289.120 C 945.775 285.859, 979.666 286.053, 1005 289.618 C 1024.205 292.320, 1059.712 300.055, 1077.719 305.460 C 1087.498 308.395, 1099.973 311.741, 1105.440 312.895 C 1113.807 314.662, 1119.057 316.775, 1138.617 326.247 L 1161.854 337.500 1161.317 341.500 C 1161.022 343.700, 1160.209 346.625, 1159.510 348 C 1158.811 349.375, 1157.465 354.775, 1156.519 360 C 1155.572 365.225, 1154.199 371.750, 1153.467 374.500 C 1152.736 377.250, 1151.195 387.375, 1150.044 397 C 1148.892 406.625, 1147.441 418.550, 1146.818 423.500 C 1146.196 428.450, 1145.645 437.900, 1145.593 444.500 C 1145.489 457.943, 1145.478 457.910, 1155.711 474.656 C 1158.452 479.141, 1161.969 485.891, 1163.527 489.656 C 1167.142 498.390, 1168.413 499.784, 1167.722 494.253 C 1166.995 488.440, 1162.286 478.733, 1154.501 467.001 L 1147.970 457.160 1148.517 447.330 C 1148.817 441.924, 1149.493 433.450, 1150.019 428.500 C 1153.563 395.122, 1155.217 381.756, 1156.455 376.500 C 1157.232 373.200, 1158.624 365.550, 1159.548 359.500 C 1160.472 353.450, 1162.056 346.637, 1163.068 344.360 C 1164.079 342.084, 1165.209 338.934, 1165.579 337.360 C 1167.152 330.667, 1172.248 320.390, 1175.120 318.120 C 1178.993 315.058, 1185.415 314.311, 1190.303 316.353 C 1195.492 318.521, 1206.642 327.874, 1208.360 331.500 C 1210.117 335.210, 1213.215 354.720, 1216.536 383 C 1218.232 397.446, 1219.431 415.227, 1220.189 437.192 L 1221.316 469.884 1218.689 483.692 C 1217.244 491.286, 1215.337 502, 1214.451 507.500 C 1213.024 516.362, 1210.297 528.295, 1200.507 568.500 C 1199.034 574.550, 1196.563 584.900, 1195.016 591.500 C 1193.470 598.100, 1190.319 608.613, 1188.015 614.863 C 1185.711 621.112, 1183.191 628.361, 1182.416 630.971 C 1181.210 635.031, 1180.136 636.315, 1174.987 639.849 C 1169.567 643.568, 1169.017 643.756, 1169.470 641.740 C 1172.386 628.747, 1176.038 614.012, 1176.840 612 C 1177.388 610.625, 1180.137 607.025, 1182.949 604 C 1190.835 595.515, 1193.313 590.788, 1193.361 584.139 C 1193.416 576.412, 1190.390 569.948, 1185.068 566.426 C 1181.146 563.831, 1180.560 563.735, 1172.229 564.325 C 1161.802 565.064, 1158.227 565.894, 1160.165 567.125 C 1160.899 567.591, 1165.569 567.694, 1170.542 567.353 C 1181.677 566.591, 1185.182 567.984, 1188.057 574.316 C 1190.556 579.821, 1190.603 588.504, 1188.155 592.500 C 1187.145 594.150, 1179.834 602.710, 1171.909 611.523 C 1163.984 620.335, 1156.217 629.110, 1154.648 631.023 C 1153.080 632.935, 1143.339 643.096, 1133 653.603 L 1114.204 672.705 1110.852 671.258 C 1109.008 670.461, 1101.296 668.503, 1093.713 666.905 C 1070.724 662.061, 1054.245 663.020, 1044.580 669.765 C 1038.759 673.827, 1038.703 675.950, 1044.507 672.549 C 1054.658 666.600, 1069.226 665.418, 1088 669.021 C 1097.802 670.902, 1113 674.902, 1113 675.601 C 1113 675.772, 1111.965 677.437, 1110.699 679.302 C 1109.434 681.166, 1106.236 688.049, 1103.594 694.596 C 1100.951 701.143, 1093.436 717.366, 1086.894 730.646 C 1080.353 743.927, 1075 755.255, 1075 755.819 C 1075 756.844, 1058.480 781.791, 1052.602 789.643 C 1050.896 791.921, 1048.971 794.621, 1048.325 795.643 C 1047.586 796.810, 1047.679 795.674, 1048.575 792.589 C 1049.359 789.888, 1050.919 782.688, 1052.042 776.589 C 1057.695 745.869, 1057.246 746.995, 1073.798 722.032 C 1087.455 701.434, 1091.929 692.232, 1092.688 683.178 C 1093.270 676.236, 1092.511 670.156, 1091.223 671.444 C 1090.849 671.817, 1090.244 675.982, 1089.877 680.697 C 1089.298 688.144, 1088.613 690.470, 1084.672 698.386 C 1082.177 703.399, 1077.636 711.100, 1074.583 715.500 C 1071.530 719.900, 1067.016 726.875, 1064.552 731 C 1057.860 742.205, 1057.980 742.083, 1058.200 737.472 C 1058.306 735.257, 1058.120 733.003, 1057.786 732.463 C 1057.453 731.924, 1057.570 729.462, 1058.047 726.991 C 1059.030 721.890, 1059.092 685.802, 1058.133 676.079 C 1057.719 671.881, 1057.012 669.496, 1056.090 669.192 C 1054.915 668.804, 1054.784 670.301, 1055.301 678.179 L 1055.922 687.631 1043.211 689.346 C 1036.220 690.289, 1024.875 691.968, 1018 693.076 C 993.343 697.051, 943.335 696.782, 912 692.506 C 885.804 688.931, 861.895 685.228, 861.324 684.657 C 860.980 684.313, 861.104 679.637, 861.599 674.266 C 862.490 664.607, 862.528 664.502, 865.078 664.665 C 867.876 664.843, 872.013 666.590, 878.913 670.503 C 881.341 671.880, 883.591 672.740, 883.913 672.414 C 884.881 671.436, 878.908 667.013, 872.389 663.879 C 860.565 658.195, 837.487 657.688, 816.381 662.648 C 810.397 664.055, 804.600 665.272, 803.500 665.353 C 802.400 665.434, 800.854 666.114, 800.064 666.864 C 798.844 668.024, 798.521 667.938, 797.913 666.293 C 796.584 662.702, 784.780 646.556, 777.849 638.850 C 774.065 634.643, 768.945 628.594, 766.471 625.408 C 760.530 617.758, 748.515 605.439, 738.035 596.253 C 733.378 592.173, 727.474 586.059, 724.913 582.667 C 717.731 573.154, 716.372 567.182, 720.026 561.190 C 723.371 555.702, 727.431 554.586, 744.198 554.540 C 754.501 554.512, 759.267 554.130, 760.136 553.262 C 760.915 552.484, 761.392 548.952, 761.418 543.762 C 761.478 531.845, 759.926 493.769, 759.309 492 C 757.206 485.973, 756.352 510.790, 757.951 531.500 C 758.418 537.550, 758.560 544.836, 758.266 547.692 L 757.732 552.884 749.116 552.390 C 744.377 552.119, 738.764 551.749, 736.643 551.567 C 734.521 551.386, 730.528 551.833, 727.769 552.561 C 717.225 555.342, 712.570 564.381, 716.335 574.763 C 718.484 580.687, 726.967 590.862, 736.857 599.377 L 746.602 607.767 748.735 620.134 C 749.908 626.935, 752.216 639.475, 753.864 648 C 759.990 679.693, 764.938 705.847, 767.014 717.500 C 769.018 728.750, 774.292 750.277, 782.448 780.500 C 784.378 787.650, 785.966 794.443, 785.978 795.595 C 786.019 799.555, 793.920 809.930, 809.196 826.083 C 841.255 859.983, 852.801 871.397, 862 878.284 C 867.225 882.196, 873.794 887.445, 876.597 889.948 C 885.440 897.845, 898.621 900.678, 937 902.927 C 951.670 903.786, 980.193 903.065, 1011.792 901.035 C 1036.857 899.425, 1034.613 900.817, 1080.398 858.451 C 1088.154 851.274, 1095.850 844.388, 1097.500 843.149 C 1108.061 835.218, 1128.580 811.007, 1127.806 807.389 C 1127.636 806.595, 1123.796 810.597, 1119.176 816.384 C 1110.428 827.339, 1105.394 832.461, 1095.500 840.471 C 1092.200 843.142, 1083.650 850.813, 1076.500 857.516 C 1056.839 875.949, 1043.301 887.779, 1037.345 891.734 L 1031.980 895.297 1021.740 892.746 C 1011.964 890.311, 999.554 886.881, 981 881.486 C 976.325 880.126, 969.913 878.724, 966.750 878.369 C 963.587 878.015, 961 877.297, 961 876.774 C 961 875.024, 952.724 877.074, 934 883.463 C 923.825 886.935, 911.060 891.016, 905.632 892.532 L 895.765 895.288 889.132 893.129 C 885.485 891.942, 882.016 890.978, 881.424 890.986 C 880.833 890.993, 879.258 889.825, 877.924 888.389 C 876.591 886.953, 870.320 881.609, 863.988 876.514 C 857.656 871.418, 845.956 860.404, 837.988 852.036 C 830.020 843.669, 816.728 829.775, 808.452 821.161 C 789.063 800.982, 788.417 800.080, 787.555 792 C 787.173 788.425, 783.771 773.350, 779.993 758.500 C 776.216 743.650, 771.728 724.075, 770.019 715 C 764.642 686.443, 756.054 643.041, 752.969 628.822 C 749.152 611.237, 749.156 610.824, 753.092 614.563 C 754.793 616.178, 758.483 620.425, 761.292 624 C 764.101 627.575, 769.618 634.100, 773.553 638.500 C 782.579 648.593, 796.774 668.177, 796.236 669.793 C 795.926 670.722, 796.483 670.767, 798.553 669.980 C 800.051 669.410, 801.360 669.069, 801.461 669.222 C 807.667 678.634, 811.858 688.369, 818.815 709.535 C 827.991 737.456, 831.332 745.060, 840.106 758 C 843.649 763.225, 848.053 769.975, 849.893 773 C 854.195 780.073, 863.130 792.203, 863.653 791.680 C 864.898 790.436, 859.836 781.810, 842.795 756.133 C 833.199 741.673, 832.305 739.684, 822.526 711 C 817.744 696.975, 812.744 683.587, 811.416 681.250 C 810.087 678.913, 807.861 675.019, 806.469 672.597 L 803.937 668.194 813.044 666.097 C 827.969 662.660, 827 662.022, 827 675.290 C 827 687.185, 828.656 696.015, 831.905 701.443 C 832.912 703.124, 836.113 709, 839.019 714.500 C 845.655 727.061, 856.282 743.655, 856.764 742.208 C 856.964 741.608, 854.465 736.478, 851.210 730.808 C 831.673 696.780, 829.337 690.627, 828.885 672 L 828.679 663.500 835.738 662.623 C 839.620 662.141, 846.712 662.073, 851.497 662.471 L 860.198 663.196 859.506 666.348 C 858.540 670.747, 857.345 743.939, 858.189 747 C 858.568 748.375, 859.341 755.350, 859.907 762.500 C 860.957 775.782, 863.374 787.145, 866.288 792.500 C 867.701 795.098, 867.925 795.213, 867.960 793.360 C 867.982 792.183, 867.135 787.008, 866.079 781.860 C 862.766 765.723, 861.905 754.517, 861.297 719.636 C 860.723 686.709, 860.759 685.788, 862.603 686.340 C 867.447 687.791, 916.516 695.215, 930.660 696.638 C 950.088 698.591, 990.633 698.891, 1004.500 697.183 C 1010 696.506, 1023.633 694.333, 1034.796 692.355 C 1045.958 690.377, 1055.291 688.958, 1055.536 689.202 C 1056.737 690.403, 1055.973 730.455, 1054.548 741 C 1052.019 759.706, 1048.108 780.732, 1044.952 792.583 C 1043.328 798.678, 1042 804.425, 1042 805.353 C 1042 810.994, 1073.361 767.330, 1079.367 753.327 C 1081.213 749.022, 1086.330 738.300, 1090.739 729.500 C 1098.504 713.998, 1102.752 704.341, 1108.434 689.271 C 1109.933 685.294, 1112.505 680.601, 1114.149 678.841 C 1115.793 677.080, 1117.778 674.728, 1118.558 673.613 C 1119.339 672.499, 1127.993 663.467, 1137.790 653.543 C 1147.586 643.619, 1158.796 631.673, 1162.700 626.996 C 1166.604 622.319, 1170.767 617.616, 1171.951 616.544 L 1174.104 614.596 1172.980 617.548 C 1172.361 619.172, 1169.621 629.572, 1166.891 640.659 C 1164.161 651.747, 1160.640 664.347, 1159.068 668.659 C 1157.496 672.972, 1155.460 680.550, 1154.545 685.500 C 1153.629 690.450, 1149.567 708, 1145.518 724.500 C 1141.469 741, 1137.401 758.100, 1136.477 762.500 C 1134.471 772.055, 1132.767 778.459, 1129.027 790.500 C 1127.489 795.450, 1125.911 800.551, 1125.521 801.836 C 1124.879 803.948, 1125.007 804.067, 1126.859 803.076 C 1129.652 801.581, 1135.124 784.404, 1140.093 761.536 C 1142.240 751.655, 1144.861 740.405, 1145.917 736.536 C 1148.424 727.352, 1156.568 692.144, 1157.910 684.682 C 1158.486 681.482, 1160.759 673.157, 1162.962 666.182 C 1165.165 659.207, 1167.442 651.587, 1168.022 649.250 C 1168.749 646.324, 1169.610 644.997, 1170.789 644.991 C 1173.568 644.975, 1182.443 639.416, 1183.768 636.860 C 1184.440 635.562, 1186.052 631.350, 1187.349 627.500 C 1188.645 623.650, 1191.357 615.663, 1193.376 609.751 C 1195.394 603.839, 1197.902 594.839, 1198.950 589.751 C 1199.998 584.663, 1201.372 579.150, 1202.003 577.500 C 1202.633 575.850, 1204.217 569.325, 1205.522 563 C 1206.827 556.675, 1209.679 544.525, 1211.860 536 C 1214.041 527.475, 1216.577 515.775, 1217.495 510 C 1218.414 504.225, 1220.348 493.650, 1221.793 486.500 C 1224.231 474.437, 1224.402 471.878, 1224.176 451 C 1223.890 424.707, 1222.872 409.952, 1219.451 382.500 C 1216.239 356.736, 1212.422 335.399, 1210.260 331.127 C 1209.321 329.271, 1205.390 324.865, 1201.526 321.335 C 1190.513 311.275, 1181.895 309.671, 1173.095 316.046 C 1168.994 319.017, 1164.649 326.661, 1163.306 333.266 C 1162.922 335.155, 1162.388 335.741, 1161.622 335.113 C 1161.005 334.608, 1151.153 329.393, 1139.729 323.524 C 1121.449 314.134, 1117.491 312.497, 1106.729 309.875 C 1100.003 308.236, 1087.075 304.689, 1078 301.991 C 1060.141 296.683, 1032.489 290.489, 1011 286.985 C 1001.465 285.429, 991.908 284.682, 978.460 284.441 C 967.988 284.252, 958.763 283.921, 957.960 283.704 C 957.157 283.488, 948.625 283.673, 939 284.117 M 862 465.170 C 843.274 468.887, 823.256 474.858, 813.724 479.569 C 805.676 483.546, 796.366 491.046, 794.685 494.907 C 794.063 496.333, 792.284 499.609, 790.731 502.186 C 785.583 510.729, 782.113 522.159, 780.398 536.220 C 778.285 553.558, 778.739 559.728, 782.763 568.315 C 787.624 578.690, 800.261 590.280, 810.322 593.591 C 813.170 594.528, 815.821 595.791, 816.214 596.397 C 818.011 599.171, 846.232 595.022, 859.700 590.003 C 871.161 585.732, 909 565.687, 909 563.886 C 909 563.389, 910.353 561.115, 912.007 558.832 C 917.287 551.543, 920.102 540.457, 920.725 524.500 C 921.199 512.374, 920.989 509.384, 919.161 502.158 C 917.324 494.901, 913.425 486.241, 912.439 487.228 C 912.255 487.411, 913.296 491.373, 914.752 496.031 C 917.130 503.640, 917.401 506.074, 917.421 520 C 917.452 540.868, 914.698 551.152, 906.522 560.703 C 901.203 566.918, 862.596 586.001, 847.500 589.878 C 837.266 592.507, 835.699 592.652, 825 591.960 C 818.675 591.551, 811.874 590.714, 809.887 590.099 C 805.117 588.624, 790.686 576.054, 787.636 570.717 C 782.328 561.430, 781.585 556.947, 782.968 542.559 C 784.354 528.145, 785.933 520.185, 788.987 512.226 C 797.649 489.646, 810.796 481.057, 851.500 471.383 C 864.107 468.387, 867.640 467.909, 873.645 468.388 C 885.308 469.317, 898.571 475.004, 907.151 482.755 C 911.833 486.985, 913.287 486.375, 909.707 481.683 C 906.760 477.819, 895.641 470.793, 888.128 468.047 C 879.332 464.832, 869.280 463.725, 862 465.170 M 1037.500 467.051 C 1034.200 468.143, 1027 471.391, 1021.500 474.268 C 1013.378 478.518, 1011.434 479.969, 1011.148 481.997 C 1010.808 484.408, 1010.863 484.434, 1012.734 482.741 C 1018.038 477.940, 1042.621 468, 1049.189 468 C 1053.698 468, 1052.100 465.542, 1047.422 465.283 C 1045.265 465.163, 1040.800 465.959, 1037.500 467.051 M 1057.881 467.074 C 1055.984 468.246, 1056.554 468.484, 1066 470.463 C 1081.254 473.658, 1091.296 477.013, 1103.500 482.992 C 1120.299 491.221, 1125.225 495.452, 1129.627 505.432 C 1136.053 520.004, 1137.295 527.747, 1136.773 550 C 1136.374 567.073, 1136.486 569.092, 1137.672 566.223 C 1139.937 560.748, 1141.257 548.060, 1140.660 537.500 C 1139.975 525.377, 1137.191 514.133, 1132.287 503.679 C 1128.944 496.553, 1127.947 495.367, 1121.059 490.326 C 1108.032 480.791, 1094.711 474.871, 1076.203 470.391 C 1070.316 468.966, 1064.083 467.453, 1062.352 467.028 C 1060.620 466.604, 1058.608 466.624, 1057.881 467.074 M 1007.948 489.098 C 1004.337 495.845, 1002.922 503.076, 1001.911 519.963 C 1001.333 529.608, 1001.158 539.503, 1001.521 541.950 C 1001.885 544.398, 1004.376 550.698, 1007.057 555.950 C 1010.807 563.296, 1012.805 566.057, 1015.716 567.914 C 1023.651 572.975, 1041.649 583.753, 1045 585.450 C 1046.925 586.425, 1051.126 588.554, 1054.335 590.182 C 1062.217 594.178, 1070.820 595.847, 1087.584 596.634 C 1100.240 597.228, 1102.379 597.080, 1108.669 595.169 C 1116.225 592.874, 1122.882 587.907, 1128.153 580.631 C 1133.091 573.813, 1131.261 574.291, 1123.710 581.791 C 1115.535 589.912, 1109.834 592.721, 1099.604 593.667 C 1091.275 594.438, 1070.521 592.418, 1063.128 590.117 C 1056.458 588.041, 1032.434 575.075, 1018.778 566.181 C 1010.979 561.100, 1009.849 559.972, 1008.092 555.500 C 1007.012 552.750, 1005.795 548.925, 1005.388 547 C 1004.568 543.124, 1004.691 519.156, 1005.581 509 C 1006.177 502.211, 1009.488 490.434, 1011.078 489.452 C 1012.511 488.566, 1012.164 487, 1010.535 487 C 1009.730 487, 1008.565 487.944, 1007.948 489.098 M 1166.680 505.750 C 1165.885 513.307, 1161.639 534.887, 1158.422 547.716 C 1155.680 558.655, 1155.550 563.500, 1158 563.500 C 1158.862 563.500, 1159.378 562.770, 1159.214 561.783 C 1159.056 560.839, 1160.336 554.089, 1162.057 546.783 C 1167.873 522.097, 1170.748 500, 1168.142 500 C 1167.671 500, 1167.013 502.587, 1166.680 505.750 M 947.215 538.710 C 941.542 539.798, 935.837 555.131, 929.502 586.320 C 927.024 598.519, 924.097 611.353, 922.998 614.839 C 920.500 622.765, 920.482 626.638, 922.923 630.642 C 926.375 636.303, 937.984 644.670, 949.050 649.474 C 961.265 654.776, 962.173 654.700, 974.637 647.341 C 984.440 641.552, 992.492 633.898, 994.608 628.356 C 996.344 623.809, 996.496 625.090, 991.546 602.500 C 989.539 593.341, 981.488 565.581, 978.390 557.136 C 977.050 553.486, 975.253 548.587, 974.395 546.250 C 972.541 541.200, 970.516 540.491, 971.541 545.250 C 971.926 547.038, 974.015 553.900, 976.184 560.500 C 983.598 583.059, 992 615.987, 992 622.484 C 992 629.902, 986.646 635.800, 971.259 645.332 L 961.017 651.676 950.656 646.588 C 939.174 640.950, 928.164 633.093, 925.681 628.766 C 923.899 625.661, 924.445 620.533, 927.458 612.077 C 928.324 609.644, 929.950 602.444, 931.071 596.077 C 935.781 569.312, 942.263 545.687, 945.672 542.858 C 946.701 542.003, 951.588 541.431, 960.114 541.165 C 972.124 540.791, 975.260 540.081, 971.418 538.607 C 969.671 537.936, 950.834 538.017, 947.215 538.710 M 952.500 659.424 C 951.950 659.645, 950.263 660.098, 948.750 660.432 C 944.603 661.346, 945.274 663.359, 949.464 662.573 C 951.369 662.215, 957.265 661.897, 962.566 661.864 C 968.112 661.830, 971.832 661.432, 971.326 660.926 C 970.410 660.010, 954.253 658.722, 952.500 659.424 M 1045.500 734.148 C 1035.057 737.521, 1003.945 743.767, 992 744.888 C 978.549 746.150, 967.223 746.556, 966.468 745.802 C 966.176 745.509, 963.813 745.668, 961.218 746.155 C 958.623 746.642, 954.700 746.821, 952.500 746.553 C 950.300 746.285, 943.325 745.809, 937 745.497 C 913.031 744.313, 883.481 739.646, 870.035 734.921 C 863.885 732.760, 863 732.628, 863 733.877 C 863 735.192, 871.479 738.576, 880.500 740.861 C 903.968 746.804, 920.096 748.638, 956.097 749.458 C 988.632 750.200, 1002.364 748.696, 1035 740.816 C 1049.469 737.323, 1054.337 735.511, 1053.776 733.827 C 1053.166 731.999, 1052.016 732.044, 1045.500 734.148 M 868.427 775.492 C 872.791 779.018, 889.334 787.434, 900 791.553 C 917.211 798.200, 946.990 802.810, 964.824 801.588 C 978.576 800.646, 1003.374 797.192, 1012.324 794.972 C 1019.971 793.075, 1031.007 787.945, 1036 783.964 C 1037.375 782.868, 1034.450 784.017, 1029.500 786.518 C 1019.148 791.748, 1010.287 793.897, 986.500 796.946 C 959.824 800.364, 937.251 799.452, 914.500 794.034 C 904.576 791.671, 892.117 786.672, 877.060 779.009 C 870.702 775.774, 866.817 774.191, 868.427 775.492 M 935.199 886.017 C 924.034 889.791, 912.447 893.428, 909.449 894.099 C 899.329 896.364, 901.861 896.952, 931 899.107 C 940.967 899.844, 955.067 899.999, 970.500 899.540 C 1011.998 898.307, 1028.550 897.498, 1027 896.777 C 1026.175 896.394, 1021.900 895.169, 1017.500 894.055 C 1013.100 892.941, 1003.200 890.219, 995.500 888.005 C 968.672 880.294, 963.474 879.006, 959.500 879.080 C 957.300 879.121, 946.365 882.243, 935.199 886.017" stroke="none" fill="black" fill-rule="evenodd"/>
	<path fill-opacity="0.500" d="M -0 540.001 L -0 1080.001 960.250 1079.751 L 1920.500 1079.500 1920.751 539.750 L 1921.002 0 960.501 0 L 0 0 -0 540.001 M 0.496 540.500 C 0.496 837.500, 0.610 958.851, 0.750 810.168 C 0.890 661.485, 0.890 418.485, 0.750 270.168 C 0.610 121.851, 0.496 243.500, 0.496 540.500 M 938.500 185.649 C 936.850 185.842, 931.225 186.490, 926 187.090 C 903.914 189.625, 862.590 198.775, 842.414 205.598 C 814.901 214.902, 770.855 241.552, 747.842 262.819 C 736.950 272.883, 713.807 300.538, 709.952 308.093 C 706.413 315.032, 708.372 314.643, 713.673 307.355 C 721.123 297.111, 733.272 282.713, 742.970 272.634 C 757.419 257.616, 771.538 247.185, 798 231.978 C 825.157 216.371, 841.849 209.748, 873.500 202.020 C 902.387 194.968, 911.448 193.382, 939.297 190.501 C 954.579 188.921, 955.784 188.937, 976.297 191 C 1000.271 193.411, 1015.347 195.797, 1030.255 199.540 C 1086.343 213.621, 1117.747 229.411, 1157.500 263.523 C 1180.014 282.842, 1187.610 290.363, 1197.714 303.343 C 1206.158 314.191, 1208.141 317.959, 1209.435 325.612 L 1210.125 329.698 1203.085 322.810 C 1199.213 319.022, 1194.123 315.050, 1191.773 313.983 C 1179.808 308.553, 1169.274 314.517, 1164.368 329.500 C 1163.467 332.250, 1162.662 334.591, 1162.579 334.703 C 1162.495 334.815, 1153.669 330.401, 1142.964 324.895 C 1119.472 312.813, 1116.448 311.552, 1104.955 309.043 C 1100.018 307.966, 1088.446 304.835, 1079.239 302.086 C 1051.786 293.889, 1011.681 285.848, 992 284.594 C 987.325 284.297, 979.169 283.767, 973.877 283.417 C 967.456 282.993, 964.033 283.138, 963.591 283.852 C 963.124 284.609, 962.132 284.614, 960.215 283.868 C 957.668 282.879, 947.425 283.097, 926 284.597 C 906.594 285.956, 866.535 294.124, 838.500 302.438 C 828.600 305.373, 816.675 308.536, 812 309.466 C 804.994 310.860, 799.632 313.097, 781.500 322.192 C 769.400 328.261, 759.073 333.626, 758.550 334.113 C 756.892 335.661, 756.315 335.113, 754.472 330.250 C 750.609 320.050, 745.929 315.146, 735.505 310.374 C 728.186 307.023, 722.602 307.760, 716.572 312.875 C 711.422 317.244, 705 326.077, 705 328.792 C 705 329.872, 704.283 332.473, 703.406 334.571 C 700.408 341.745, 698.968 352.030, 697.499 376.761 C 696.690 390.367, 695.460 407.800, 694.764 415.500 C 692.871 436.461, 693.112 470.066, 695.252 483.500 C 696.215 489.550, 697.936 501.199, 699.076 509.388 C 700.216 517.576, 701.972 528.151, 702.977 532.888 C 703.983 537.624, 705.103 544.200, 705.465 547.500 C 706.904 560.597, 712.272 586.738, 716.052 599.046 C 718.246 606.194, 720.693 615.445, 721.489 619.605 C 722.707 625.972, 723.733 628.244, 727.973 633.963 C 731.910 639.274, 734.087 641.221, 737.940 642.879 C 743.569 645.300, 745.344 645.531, 744.755 643.765 C 744.529 643.086, 742.877 642.110, 741.086 641.596 C 736.134 640.175, 727.196 627.641, 725.804 620.164 C 725.224 617.049, 722.990 608.425, 720.839 601 C 716.393 585.647, 711.607 562.681, 709.482 546.500 C 708.687 540.450, 707.361 532.575, 706.534 529 C 705.707 525.425, 704.104 515.300, 702.970 506.500 C 701.837 497.700, 700.183 486.675, 699.296 482 C 697.260 471.277, 697 440.307, 698.748 416.500 C 699.434 407.150, 700.463 390.950, 701.034 380.500 C 703.173 341.361, 705.444 329.962, 712.861 321.122 C 718.417 314.501, 722.358 312.009, 727.283 312.004 C 731.650 311.999, 739.086 315.535, 743.670 319.796 C 749.781 325.474, 755.181 339.034, 756.494 352 C 756.856 355.575, 757.968 362.550, 758.965 367.500 C 759.963 372.450, 761.085 379.200, 761.459 382.500 C 762.536 392.005, 766.925 419.867, 768.469 427 C 769.243 430.575, 770.854 438.454, 772.050 444.509 L 774.224 455.519 768.481 466.009 C 765.323 471.779, 761.898 478.450, 760.870 480.833 C 758.907 485.382, 758.349 490.521, 759.923 489.547 C 760.431 489.233, 764.086 482.344, 768.045 474.238 C 772.004 466.132, 775.639 459.350, 776.122 459.167 C 778.180 458.385, 776.840 446.201, 772.473 426 C 771.700 422.425, 769.697 410.500, 768.021 399.500 C 766.345 388.500, 763.857 373.650, 762.492 366.500 C 761.128 359.350, 759.402 349.995, 758.659 345.710 L 757.306 337.920 779.903 326.863 C 799.590 317.230, 804.062 315.441, 814.632 312.974 C 821.304 311.416, 833.679 308.046, 842.132 305.484 C 866.345 298.147, 903.961 290.547, 924 288.944 C 957.797 286.240, 962.631 286.241, 995.500 288.963 C 1014.923 290.571, 1053.562 298.360, 1075 304.988 C 1082.425 307.284, 1094.800 310.661, 1102.500 312.492 C 1115.184 315.509, 1118.631 316.864, 1139.162 326.903 L 1161.823 337.983 1160.484 342.742 C 1157.767 352.400, 1157.233 354.648, 1156.031 361.500 C 1155.356 365.350, 1154.174 370.713, 1153.405 373.419 C 1152.637 376.124, 1151.283 384.449, 1150.397 391.919 C 1149.511 399.388, 1148.002 412.025, 1147.043 420 C 1146.085 427.975, 1145.210 439.238, 1145.100 445.029 C 1144.905 455.219, 1145.007 455.766, 1148.269 462.029 C 1150.123 465.588, 1153.858 472.141, 1156.570 476.590 C 1159.281 481.040, 1162.625 487.674, 1164 491.334 C 1166.641 498.362, 1169.744 500.736, 1168.464 494.750 C 1166.764 486.791, 1162.933 479.412, 1151.881 462.808 L 1148.262 457.370 1149.091 444.435 C 1149.546 437.321, 1150.591 425.425, 1151.413 418 C 1152.235 410.575, 1153.413 399.775, 1154.031 394 C 1154.649 388.225, 1155.990 379.675, 1157.010 375 C 1158.031 370.325, 1159.395 362.675, 1160.043 358 C 1160.691 353.325, 1162.246 346.800, 1163.500 343.500 C 1164.753 340.200, 1167.066 333.943, 1168.639 329.595 C 1172.298 319.486, 1176.511 315.615, 1183.856 315.615 C 1189.581 315.615, 1194.764 318.387, 1203.214 325.969 C 1207.307 329.641, 1209.070 332.003, 1209.430 334.298 C 1209.707 336.059, 1210.853 343.350, 1211.977 350.500 C 1216.455 378.984, 1219.099 407.450, 1220.123 438.222 L 1221.146 468.943 1218.093 485.222 C 1216.413 494.175, 1214.568 504.650, 1213.991 508.500 C 1213.081 514.575, 1206.648 542.602, 1199.874 570 C 1198.719 574.675, 1196.503 583.900, 1194.952 590.500 C 1193.400 597.100, 1190.517 607, 1188.544 612.500 C 1186.572 618, 1184.051 625.309, 1182.941 628.743 C 1181.196 634.145, 1180.221 635.510, 1175.712 638.867 C 1172.845 641.001, 1170.352 642.359, 1170.171 641.885 C 1169.774 640.849, 1174.757 619.022, 1176.581 613.804 C 1177.292 611.771, 1180.967 606.528, 1184.749 602.151 C 1193.953 591.500, 1195.488 586.375, 1192.494 576.293 C 1190.705 570.268, 1185.041 564.590, 1179.902 563.671 C 1175.593 562.900, 1159.829 565.165, 1160.213 566.500 C 1160.388 567.111, 1164.432 567.368, 1170.613 567.160 L 1180.726 566.820 1184.339 569.992 C 1189.944 574.914, 1191.797 585.221, 1188.250 591.755 C 1183.039 601.356, 1115.181 673.366, 1112.780 671.843 C 1110.670 670.503, 1102.160 668.246, 1090.610 665.963 C 1081.881 664.238, 1077.119 663.885, 1066.610 664.186 C 1054.665 664.529, 1053.056 664.802, 1048.500 667.257 C 1042.350 670.572, 1040 672.386, 1040 673.821 C 1040 674.427, 1043.233 673.373, 1047.185 671.479 C 1051.136 669.585, 1054.471 668.140, 1054.596 668.268 C 1054.721 668.396, 1054.957 672.775, 1055.122 678 L 1055.420 687.500 1048.960 688.263 C 1045.407 688.682, 1035.525 690.118, 1027 691.453 C 986.879 697.738, 943.976 697.425, 899.480 690.523 C 889.313 688.946, 861.965 685, 861.202 685 C 860.680 685, 861.927 668.149, 862.626 665.748 C 863.298 663.440, 866.599 664.204, 874.500 668.497 C 877.800 670.290, 881.625 672.058, 883 672.425 C 887.045 673.504, 878.550 666.226, 872.500 663.428 C 860.692 657.969, 836.210 657.588, 815.500 662.543 C 809.450 663.991, 803.825 665.195, 803 665.220 C 802.175 665.245, 800.712 665.951, 799.750 666.788 C 798.171 668.161, 798 668.141, 798 666.586 C 798 664.182, 787.385 649.420, 777.085 637.500 C 772.332 632, 765.468 623.900, 761.830 619.500 C 758.192 615.100, 751.230 607.912, 746.358 603.526 C 732.119 590.709, 723.325 581.299, 720.847 576.228 C 716.331 566.989, 718.836 558.564, 726.809 556.175 C 728.971 555.528, 736.768 555, 744.175 555 C 754.243 555, 758.105 554.642, 759.559 553.573 C 761.365 552.246, 761.490 550.906, 761.350 534.323 C 761.159 511.533, 760.123 492.750, 758.993 491.605 C 757.121 489.708, 756.736 497.139, 757.423 521.953 C 757.813 536.072, 757.858 548.721, 757.522 550.062 L 756.911 552.500 745.445 551.593 C 730.881 550.442, 724.391 551.676, 719.550 556.517 C 717.707 558.360, 715.671 561.468, 715.025 563.423 C 712.261 571.799, 719.442 584.068, 735.367 598.179 C 746.878 608.377, 746.616 608.028, 747.427 614.268 C 747.802 617.146, 749.422 626.250, 751.027 634.500 C 756.074 660.429, 762.797 695.845, 766.024 713.500 C 768.839 728.906, 772.261 743.041, 783.836 787.094 C 788.301 804.085, 789.139 805.436, 805.823 822.500 C 811.738 828.550, 819.556 836.875, 823.197 841 C 836.325 855.874, 851.719 870.729, 863 879.411 C 869.325 884.278, 875.850 889.518, 877.500 891.056 C 888.937 901.714, 938.341 906.160, 999 901.989 C 1032.034 899.717, 1029.688 900.068, 1036.091 896.448 C 1039.361 894.600, 1042.949 892.449, 1044.066 891.667 C 1046.735 889.797, 1071.936 866.931, 1083.993 855.438 C 1089.222 850.455, 1094.850 845.353, 1096.500 844.102 C 1107.597 835.690, 1116.483 826.150, 1125.347 813.138 C 1128.810 808.055, 1130.063 804.436, 1128.108 805.167 C 1127.617 805.350, 1124.680 808.875, 1121.581 813 C 1115.055 821.687, 1103.694 833.576, 1096.500 839.248 C 1093.750 841.416, 1085.875 848.474, 1079 854.932 C 1072.125 861.391, 1064.700 868.197, 1062.500 870.056 C 1060.300 871.916, 1055.120 876.602, 1050.988 880.469 C 1046.856 884.336, 1040.940 889.231, 1037.840 891.346 L 1032.205 895.191 1020.352 892.087 C 1013.834 890.380, 1002.200 887.177, 994.500 884.970 C 976.852 879.911, 963.157 876.785, 961.940 877.537 C 961.423 877.857, 961 877.641, 961 877.059 C 961 874.821, 954.733 876.244, 933 883.418 C 920.625 887.503, 907.232 891.839, 903.237 893.052 L 895.975 895.259 888.358 892.738 C 882.733 890.877, 879.272 888.937, 875.121 885.317 C 872.029 882.622, 866.634 878.230, 863.131 875.558 C 854.749 869.164, 839.433 854.492, 830.712 844.500 C 826.871 840.100, 816.815 829.404, 808.366 820.731 C 799.917 812.058, 791.928 803.283, 790.614 801.231 C 789.080 798.836, 788.019 795.339, 787.650 791.464 C 787.334 788.143, 783.929 773.006, 780.082 757.826 C 776.236 742.645, 771.020 719.261, 768.491 705.862 C 763.537 679.612, 756.026 641.732, 753.053 628 C 752.040 623.325, 750.900 617.700, 750.518 615.500 L 749.823 611.500 752.510 614 C 753.988 615.375, 757.501 619.425, 760.317 623 C 763.133 626.575, 769.327 634, 774.081 639.500 C 778.836 645, 785.576 653.550, 789.060 658.500 C 792.544 663.450, 795.730 667.642, 796.141 667.815 C 796.552 667.988, 796.669 668.700, 796.401 669.398 C 796.060 670.286, 796.751 670.549, 798.707 670.275 C 803.388 669.620, 809.492 681.829, 818.935 710.738 C 827.640 737.389, 831.014 744.870, 840.988 759.641 C 844.754 765.218, 848.519 771.104, 849.355 772.719 C 852.381 778.570, 863.339 792.483, 863.810 791.071 C 864.110 790.170, 864.928 790.891, 866.097 793.084 L 867.916 796.500 867.958 793.360 C 867.981 791.633, 867.135 786.008, 866.077 780.860 C 863.885 770.188, 862.008 751.932, 862.003 741.233 L 862 733.966 867.119 736.561 C 873.758 739.924, 897.968 745.593, 914.500 747.654 C 924.183 748.862, 936.303 749.280, 962 749.295 C 999.627 749.316, 1001.185 749.147, 1033.500 741.546 C 1049.791 737.714, 1054.172 736.116, 1053.773 734.152 C 1053.336 731.999, 1051.765 732.167, 1038 735.837 C 1007.015 744.099, 986.979 746.363, 952.209 745.531 C 917.805 744.707, 897.294 742.165, 875 735.962 C 870.875 734.814, 866.068 733.633, 864.317 733.336 L 861.133 732.797 861.037 709.600 L 860.940 686.404 886.220 690.649 C 900.124 692.984, 918.250 695.620, 926.500 696.507 C 947.743 698.790, 979.707 699.521, 996 698.097 C 1006.912 697.142, 1040.296 692.076, 1053.250 689.408 L 1056 688.841 1056 708.866 C 1056 723.772, 1055.482 732.419, 1053.973 742.695 C 1050.161 768.656, 1047.799 781.503, 1044.906 792 C 1043.315 797.775, 1042.010 803.512, 1042.007 804.749 C 1042.001 806.818, 1042.306 806.698, 1045.832 803.249 C 1055.246 794.038, 1073.055 767.058, 1082.077 748.340 C 1086.010 740.178, 1091.824 728.100, 1094.995 721.500 C 1098.167 714.900, 1102.889 704.100, 1105.489 697.500 C 1112.874 678.754, 1110.907 681.373, 1138.500 653.566 C 1146.200 645.807, 1156.964 634.181, 1162.420 627.732 C 1167.876 621.283, 1172.429 616.117, 1172.537 616.253 C 1173.025 616.862, 1161.090 662.231, 1158.793 668.500 C 1157.383 672.350, 1155.250 680.450, 1154.054 686.500 C 1152.858 692.550, 1149.021 708.975, 1145.528 723 C 1142.036 737.025, 1138 754.125, 1136.560 761 C 1135.120 767.875, 1131.889 780.171, 1129.378 788.324 C 1126.868 796.477, 1125.070 803.403, 1125.383 803.716 C 1127.893 806.227, 1135.219 785.764, 1140.110 762.577 C 1141.743 754.835, 1144.401 743.325, 1146.017 737 C 1150.875 717.979, 1156.749 692.915, 1157.969 686 C 1158.600 682.425, 1160.875 673.875, 1163.025 667 C 1165.175 660.125, 1167.442 652.405, 1168.062 649.843 C 1169.052 645.758, 1169.577 645.110, 1172.345 644.560 C 1177.725 643.492, 1183.282 638.902, 1185.170 633.964 C 1190.379 620.351, 1195.965 603.574, 1197.478 597 C 1198.428 592.875, 1199.838 587.025, 1200.611 584 C 1201.385 580.975, 1202.931 574.675, 1204.047 570 C 1205.163 565.325, 1208.526 551.375, 1211.519 539 C 1214.512 526.625, 1217.658 511.775, 1218.509 506 C 1219.360 500.225, 1221.200 489.574, 1222.597 482.331 L 1225.138 469.162 1224.107 439.831 C 1222.858 404.339, 1219.521 373.611, 1213.483 342 C 1212.695 337.875, 1211.548 331.420, 1210.934 327.656 C 1208.451 312.444, 1202.445 300.745, 1189.882 286.655 C 1181.813 277.605, 1142.803 244.659, 1130.197 236.248 C 1113.883 225.364, 1083.390 210.246, 1067.500 205.163 C 1037.492 195.566, 1011.590 190.051, 982 186.957 C 965.471 185.229, 946.896 184.671, 938.500 185.649 M 862.500 464.616 C 861.400 464.896, 855.047 466.424, 848.381 468.012 C 834.389 471.345, 819.666 476.167, 812.552 479.746 C 802.626 484.738, 797.589 489.476, 792.261 498.828 C 783.091 514.923, 779.698 528.340, 779.575 549 C 779.474 565.851, 781.255 570.453, 791.904 580.863 C 800.689 589.452, 805.184 592.522, 811.417 594.189 C 813.872 594.846, 815.665 595.734, 815.400 596.162 C 813.114 599.860, 840.058 596.704, 856.500 591.347 C 863.359 589.113, 884.266 579.022, 897.202 571.702 C 906.924 566.201, 908.269 565.078, 911.887 559.444 C 914.077 556.032, 916.911 549.924, 918.185 545.871 C 920.225 539.374, 920.500 536.483, 920.500 521.500 C 920.500 506.303, 920.253 503.786, 918.174 497.767 C 916.137 491.871, 912.126 485.042, 912.033 487.312 C 912.015 487.758, 913.221 492.258, 914.712 497.312 C 917.080 505.332, 917.423 508.216, 917.410 520 C 917.393 535.224, 916.087 542.786, 911.966 551.510 C 907.085 561.842, 904.370 564.047, 883.870 574.327 C 873.624 579.466, 862.824 584.628, 859.870 585.800 C 852.380 588.770, 833.813 593.283, 833.094 592.307 C 832.767 591.863, 828.225 591.498, 823 591.495 C 811.600 591.489, 807.453 589.902, 798.498 582.119 C 790.591 575.247, 787.625 571.178, 784.430 562.816 C 782.226 557.050, 781.887 554.925, 782.412 550.191 C 782.760 547.061, 783.474 540.450, 784 535.500 C 785.332 522.953, 787.337 515.995, 792.789 505 C 796.765 496.982, 798.418 494.767, 803.384 490.804 C 812.799 483.288, 823.992 478.611, 846 472.997 C 867.104 467.613, 872.822 467.252, 884.386 470.571 C 890.788 472.408, 903.694 479.375, 907.548 483.075 C 910.935 486.326, 912 486.687, 912 484.585 C 912 480.885, 897.029 470.967, 885.408 466.968 C 879.787 465.035, 866.303 463.650, 862.500 464.616 M 1037 466.852 C 1028.101 469.747, 1011.175 478.874, 1010.446 481.170 C 1009.637 483.718, 1011.638 486.108, 1012.562 483.699 C 1013.252 481.901, 1031.852 472.596, 1039 470.473 C 1041.475 469.738, 1045.657 468.827, 1048.293 468.448 C 1051.169 468.035, 1052.938 467.308, 1052.715 466.630 C 1052.110 464.793, 1042.930 464.922, 1037 466.852 M 1057.250 466.662 C 1055.013 467.565, 1055.928 468.770, 1059.250 469.294 C 1081.140 472.749, 1109.669 484.033, 1120.970 493.707 C 1126.543 498.476, 1132.307 510.486, 1135.143 523.235 C 1136.936 531.293, 1137.128 534.584, 1136.614 548.500 C 1136.289 557.300, 1135.741 565.737, 1135.395 567.250 C 1134.190 572.523, 1136.927 570.055, 1138.722 564.250 C 1141.483 555.320, 1141.173 529.303, 1138.175 518.500 C 1135.372 508.394, 1129.221 495.189, 1126.686 493.832 C 1125.621 493.262, 1122.848 491.344, 1120.524 489.570 C 1114.371 484.874, 1102.607 478.650, 1094 475.538 C 1087.453 473.171, 1060.426 465.863, 1059.016 466.079 C 1058.732 466.122, 1057.938 466.385, 1057.250 466.662 M 1008.070 488.638 C 1003.733 494.152, 1002.109 502.698, 1001.382 523.840 L 1000.700 543.679 1005.751 554.174 C 1011.376 565.864, 1012.942 567.359, 1029.946 577.258 C 1058.839 594.081, 1064.216 595.912, 1087.057 596.712 C 1102.239 597.244, 1104.150 597.113, 1110.081 595.139 C 1114.373 593.711, 1118.310 591.447, 1121.781 588.410 C 1126.751 584.063, 1132.831 575.497, 1131.729 574.396 C 1131.446 574.113, 1127.878 577.219, 1123.800 581.297 C 1113.728 591.369, 1108.865 593.234, 1093 593.111 C 1079.509 593.007, 1068.221 591.710, 1062.187 589.573 C 1054.538 586.862, 1032.652 574.757, 1018.366 565.335 C 1010.673 560.261, 1010.105 559.633, 1007.866 553.735 C 1005.630 547.843, 1005.511 546.386, 1005.703 527.252 C 1005.915 506.045, 1007.224 496.962, 1011.020 490.334 C 1013.793 485.494, 1011.555 484.208, 1008.070 488.638 M 1166.090 508.250 C 1164.564 518.283, 1159.592 542.470, 1157.515 549.968 C 1155.627 556.783, 1155.574 562.401, 1157.383 563.903 C 1159.067 565.300, 1159.994 563.454, 1160.012 558.668 C 1160.018 556.926, 1160.697 553.025, 1161.520 550 C 1165.578 535.082, 1170.499 506.124, 1169.591 502.505 C 1168.468 498.033, 1167.371 499.834, 1166.090 508.250 M 953 537.770 C 944.155 538.724, 944.233 538.670, 940.577 546.292 C 936.173 555.473, 932.958 566.733, 929.524 585 C 928.025 592.975, 925.494 604.267, 923.899 610.094 C 920.556 622.310, 920.300 627.002, 922.750 631.165 C 925.127 635.203, 939.373 645.950, 945.375 648.233 C 948.056 649.252, 952.010 650.985, 954.161 652.082 C 959.594 654.854, 963.562 653.939, 974.805 647.320 C 986.490 640.441, 989.890 637.455, 993.419 630.971 C 996.726 624.895, 996.623 622.959, 991.940 603.249 C 987.188 583.246, 975.352 545.378, 972.929 542.426 C 972.406 541.790, 972.504 540.896, 973.168 540.232 C 973.996 539.404, 973.663 538.977, 971.895 538.599 C 968.903 537.959, 956.352 537.408, 953 537.770 M 949.646 541.975 C 947.526 542.384, 945.388 543.345, 944.895 544.110 C 942.387 547.999, 936.698 568.823, 933.060 587.434 C 930.809 598.947, 928.074 611.257, 926.983 614.789 C 924.626 622.422, 924.472 626.801, 926.462 629.643 C 929.198 633.549, 942.635 643.005, 948.985 645.494 C 952.466 646.858, 956.031 648.595, 956.907 649.354 C 959.440 651.548, 961.992 650.742, 972.054 644.568 C 988.146 634.696, 992.755 628.787, 991.544 619.581 C 990.179 609.203, 982.946 582.062, 974.944 557.293 C 972.775 550.579, 971 544.166, 971 543.043 C 971 541.133, 970.432 541.007, 962.250 541.115 C 957.438 541.178, 951.766 541.565, 949.646 541.975 M 948.099 660.489 C 946.228 661.337, 944.878 662.187, 945.099 662.378 C 945.319 662.569, 951.718 662.503, 959.317 662.230 C 975.494 661.650, 976.678 659.915, 961.300 659.324 C 953.959 659.042, 950.646 659.334, 948.099 660.489 M 834.610 662.779 L 828.720 663.108 829.362 675.304 C 829.716 682.012, 830.495 689.258, 831.093 691.407 C 832.117 695.087, 841.859 713.892, 852.671 733.063 L 857.500 741.625 857.615 709.063 C 857.681 690.294, 858.200 673.771, 858.840 670.059 C 859.451 666.516, 859.849 663.533, 859.725 663.430 C 859.182 662.979, 839.952 662.481, 834.610 662.779 M 821.500 664.499 C 820.950 664.686, 817.013 665.581, 812.750 666.488 C 808.487 667.395, 805 668.544, 805 669.041 C 805 669.539, 807.002 673.221, 809.448 677.223 C 812.672 682.498, 816.118 691.103, 821.971 708.500 C 831.717 737.464, 833.432 741.234, 844.854 758.780 C 849.765 766.326, 856.139 776.325, 859.017 781 C 861.895 785.675, 863.960 788.375, 863.605 787 C 861.294 778.032, 859.942 769.621, 859.053 758.679 L 858.036 746.156 850.672 734.828 C 846.622 728.598, 839.833 716.750, 835.585 708.500 L 827.862 693.500 826.899 679.706 C 826.369 672.120, 826.202 665.482, 826.527 664.956 C 827.082 664.058, 823.698 663.750, 821.500 664.499 M 1061.982 667.880 L 1057.463 668.500 1058.555 678.500 C 1059.820 690.084, 1059.522 722.982, 1058.109 727.737 C 1057.488 729.825, 1057.493 731.187, 1058.122 731.575 C 1058.671 731.915, 1058.839 734.209, 1058.507 736.839 L 1057.919 741.500 1060.209 737.603 C 1061.469 735.460, 1066.670 727.360, 1071.767 719.603 C 1076.865 711.846, 1082.885 701.767, 1085.146 697.204 C 1088.791 689.848, 1089.314 687.889, 1089.769 679.918 C 1090.463 667.750, 1092.504 668.343, 1092.490 680.707 C 1092.480 689.443, 1092.332 690.024, 1087.790 699.114 C 1085.211 704.276, 1081.588 710.750, 1079.739 713.500 C 1077.890 716.250, 1074.101 721.875, 1071.318 726 C 1068.535 730.125, 1064.150 737.409, 1061.573 742.187 C 1057.270 750.163, 1056.646 752.250, 1053.941 767.687 C 1052.322 776.934, 1050.343 786.734, 1049.545 789.464 C 1048.747 792.194, 1048.215 794.548, 1048.363 794.696 C 1048.511 794.844, 1053.821 787.435, 1060.164 778.232 C 1070.092 763.827, 1073.717 757.328, 1086.232 731.500 C 1094.226 715, 1102.446 697.225, 1104.496 692 C 1106.547 686.775, 1109.075 681.097, 1110.113 679.382 C 1111.151 677.667, 1112 676.041, 1112 675.769 C 1112 674.946, 1102.079 672.132, 1092 670.098 C 1081.132 667.904, 1068.570 666.976, 1061.982 667.880 M 866 773.725 C 866 776.297, 897.517 791.786, 910.185 795.439 C 919.950 798.255, 939.365 801.115, 952.500 801.673 C 963.084 802.122, 969.381 801.728, 986.380 799.555 C 1014.334 795.981, 1024.619 792.667, 1037.250 783.163 C 1042.319 779.349, 1043.676 777.672, 1039.456 780.437 C 1023.891 790.636, 1015.847 793.023, 983.588 797.021 C 941.714 802.209, 910.253 796.637, 875.250 777.833 C 870.163 775.100, 866 773.251, 866 773.725 M 937.500 885.536 C 927.600 888.982, 916.237 892.566, 912.250 893.501 C 900.095 896.351, 901.335 896.673, 933.500 899.013 C 946.192 899.937, 1008.745 898.736, 1021 897.333 L 1026.500 896.704 1018 894.505 C 1005.633 891.307, 980.905 884.294, 977.709 883.079 C 972.923 881.260, 961.998 878.995, 958.688 879.136 C 956.935 879.211, 947.400 882.091, 937.500 885.536" stroke="none" fill="black" fill-rule="evenodd"/>
	<path fill-opacity="0.421" d="M -0 540.001 L -0 1080.001 960.250 1079.751 L 1920.500 1079.500 1920.751 539.750 L 1921.002 0 960.501 0 L 0 0 -0 540.001 M 0.496 540.500 C 0.496 837.500, 0.610 958.851, 0.750 810.168 C 0.890 661.485, 0.890 418.485, 0.750 270.168 C 0.610 121.851, 0.496 243.500, 0.496 540.500 M 944.500 184.716 C 928.766 185.712, 901.816 190.159, 878 195.689 C 841.312 204.208, 827.813 209.202, 803.500 223.250 C 766.220 244.790, 745.028 262.213, 723.398 289.105 C 711.674 303.681, 709.417 307.061, 707.921 312.276 C 707.188 314.832, 707.274 315.018, 708.657 313.870 C 709.518 313.155, 714.335 307.163, 719.361 300.555 C 724.388 293.946, 735.700 281.282, 744.500 272.412 C 761.878 254.895, 769.379 249.203, 794.408 234.537 C 824.943 216.645, 838.010 211.448, 876.196 202.010 C 902.982 195.390, 918.485 192.669, 941.233 190.597 C 955.753 189.275, 958.376 189.310, 975.233 191.058 C 1007.672 194.420, 1017.849 196.406, 1052.165 206.074 C 1083.133 214.798, 1108.316 226.796, 1133.500 244.824 C 1143.721 252.140, 1153.097 259.993, 1178.782 282.747 C 1182.787 286.295, 1190.467 294.891, 1195.848 301.849 C 1207.658 317.119, 1206.665 315.467, 1208.339 322.640 L 1209.712 328.527 1203.606 322.454 C 1195.487 314.377, 1189.736 311.634, 1182.086 312.187 C 1173.721 312.792, 1169.292 316.528, 1165.489 326.188 C 1163.906 330.210, 1162.507 333.654, 1162.380 333.842 C 1162.253 334.030, 1151.878 329.020, 1139.325 322.708 C 1120.538 313.262, 1114.996 310.926, 1108 309.506 C 1103.325 308.558, 1091.175 305.322, 1081 302.316 C 1062.551 296.865, 1029.958 289.429, 1011.980 286.569 C 982.532 281.884, 934.031 282.099, 904.500 287.045 C 885.421 290.240, 855.140 297.228, 834 303.315 C 823.275 306.402, 811.823 309.445, 808.552 310.076 C 804.509 310.856, 795.196 314.952, 779.480 322.862 L 756.357 334.500 753.686 327.960 C 750.549 320.280, 745.903 315.385, 737.648 311.063 C 728.333 306.186, 720.702 307.263, 714.363 314.350 C 706.524 323.113, 705 325.257, 705 327.520 C 705 328.793, 704.173 331.784, 703.162 334.167 C 699.705 342.317, 697.489 358.667, 696.544 383 C 695.805 402.027, 695.246 409.616, 693.324 426.688 C 691.974 438.676, 691.899 443.716, 692.838 459.188 C 693.449 469.260, 694.613 481.550, 695.424 486.500 C 696.235 491.450, 697.622 501.632, 698.505 509.127 C 699.388 516.622, 700.979 526.297, 702.041 530.627 C 703.103 534.957, 704.462 542.325, 705.060 547 C 705.659 551.675, 707.457 562.707, 709.057 571.517 C 711.750 586.346, 713.385 592.738, 718.898 610 C 720.040 613.575, 720.980 617.432, 720.987 618.572 C 721.035 626.245, 730.040 639.602, 737.437 642.971 C 742.675 645.357, 745 645.544, 745 643.578 C 745 642.795, 743.404 641.628, 741.454 640.985 C 736.015 639.190, 727.293 627.109, 725.853 619.376 C 725.251 616.144, 723.279 608.325, 721.471 602 C 717.312 587.456, 714.594 575.072, 715.388 574.279 C 715.724 573.942, 716 574.387, 716 575.267 C 716 578.269, 726.606 590.976, 736.031 599.267 C 742.375 604.846, 745.686 608.510, 746.204 610.520 C 746.626 612.159, 750.820 633.975, 755.523 659 C 768.423 727.637, 770.556 738.029, 775.536 756.500 C 778.056 765.850, 781.689 779.575, 783.609 787 C 785.838 795.624, 788.145 802.125, 789.996 805 C 796.765 815.514, 849.236 869.453, 862 879.018 C 866.675 882.522, 872.975 887.454, 876 889.978 C 883.925 896.590, 891.550 899.193, 908.247 900.986 C 913.886 901.592, 920.075 902.307, 922 902.576 C 930.074 903.704, 971.731 903.997, 987 903.034 C 996.075 902.461, 1007.325 901.759, 1012 901.473 C 1029.145 900.426, 1030.917 900.033, 1038.240 895.661 C 1045.145 891.539, 1059.188 879.330, 1080.476 858.941 C 1086.539 853.134, 1094.650 845.888, 1098.500 842.839 C 1110.873 833.041, 1126.909 814.195, 1128.597 807.468 C 1129.669 803.198, 1127.644 804.736, 1120.983 813.250 C 1112.124 824.575, 1104.851 832.157, 1096 839.296 C 1091.875 842.622, 1084.218 849.429, 1078.984 854.422 C 1054.961 877.339, 1039.793 890.512, 1034 893.490 C 1031.068 894.997, 1025.709 893.721, 979.500 880.519 C 975.100 879.262, 969.138 877.914, 966.250 877.523 C 963.362 877.132, 961 876.384, 961 875.861 C 961 874.262, 954.469 875.959, 933.500 883.005 C 922.500 886.702, 909.543 890.933, 904.707 892.409 L 895.915 895.091 888.207 892.438 C 882.865 890.598, 879.103 888.513, 875.947 885.642 C 873.443 883.364, 867.518 878.467, 862.781 874.760 C 854.761 868.485, 832.541 846.622, 824.911 837.500 C 823.071 835.300, 814.277 826.016, 805.370 816.868 L 789.173 800.236 788.533 794.368 C 788.180 791.141, 784.580 775.225, 780.532 759 C 776.483 742.775, 770.671 716.225, 767.616 700 C 764.560 683.775, 759.409 657.538, 756.168 641.695 L 750.275 612.890 753.268 615.695 C 754.913 617.238, 759.575 622.550, 763.626 627.500 C 767.678 632.450, 773.730 639.650, 777.077 643.500 C 785.367 653.039, 796.255 668.779, 795.456 670.071 C 795.022 670.773, 795.928 670.931, 798.152 670.541 C 801.467 669.961, 801.546 670.038, 806.128 678.228 C 809.282 683.866, 813.206 693.983, 818.450 710 C 822.682 722.925, 827.849 737.100, 829.934 741.500 C 835.815 753.917, 861.999 793, 864.435 793 C 865.178 793, 866.074 793.750, 866.426 794.667 C 866.831 795.723, 867.415 795.985, 868.018 795.382 C 868.621 794.779, 868.066 789.860, 866.504 781.965 C 864.110 769.867, 861.094 736.572, 862.285 735.382 C 862.609 735.057, 865.266 735.940, 868.187 737.344 C 874.485 740.368, 900.987 746.311, 916.500 748.177 C 923.714 749.045, 939.546 749.493, 962.500 749.478 C 1000.777 749.455, 999.441 749.594, 1030.874 742.342 C 1046.665 738.698, 1052.942 736.629, 1054.243 734.638 C 1056.342 731.426, 1047.924 780.653, 1043.882 795.231 C 1042.093 801.684, 1040.972 807.305, 1041.390 807.723 C 1041.808 808.141, 1042.607 807.667, 1043.166 806.669 C 1043.724 805.671, 1045.540 803.649, 1047.202 802.177 C 1050.057 799.647, 1060.296 785.587, 1071.321 769.059 C 1074.050 764.966, 1078.192 757.316, 1080.523 752.059 C 1082.855 746.801, 1088.349 735.300, 1092.732 726.500 C 1097.114 717.700, 1103.355 703.750, 1106.600 695.500 L 1112.500 680.500 1131.618 661 C 1142.134 650.275, 1155.359 636.201, 1161.009 629.724 C 1166.659 623.247, 1171.413 618.080, 1171.574 618.241 C 1172.176 618.842, 1161.063 661.751, 1158.687 668 C 1157.328 671.575, 1155.231 679.450, 1154.026 685.500 C 1152.822 691.550, 1148.988 707.975, 1145.507 722 C 1142.026 736.025, 1137.991 753.125, 1136.540 760 C 1135.089 766.875, 1132.820 776.100, 1131.496 780.500 C 1130.173 784.900, 1128.098 791.766, 1126.886 795.758 C 1125.674 799.749, 1124.976 803.309, 1125.335 803.668 C 1126.635 804.968, 1129.954 800.650, 1131.513 795.632 C 1136.190 780.568, 1137.353 776.214, 1140.487 762 C 1142.367 753.475, 1146.824 734.575, 1150.392 720 C 1153.960 705.425, 1157.407 690.350, 1158.053 686.500 C 1158.698 682.650, 1160.920 674.325, 1162.990 668 C 1165.060 661.675, 1167.320 653.960, 1168.012 650.856 C 1169.226 645.414, 1169.404 645.191, 1172.995 644.617 C 1179.099 643.641, 1184.362 637.905, 1187.325 629 C 1188.698 624.875, 1191.438 616.928, 1193.414 611.340 C 1195.391 605.752, 1197.879 596.977, 1198.944 591.840 C 1200.009 586.703, 1201.779 579.575, 1202.878 576 C 1203.977 572.425, 1205.559 565.900, 1206.395 561.500 C 1207.230 557.100, 1209.920 545.625, 1212.372 536 C 1214.824 526.375, 1217.575 513.550, 1218.484 507.500 C 1219.393 501.450, 1221.266 490.650, 1222.645 483.500 C 1225.043 471.072, 1225.126 469.422, 1224.528 446 C 1223.612 410.127, 1219.990 374.127, 1214.417 345.500 C 1213.025 338.350, 1211.283 329.125, 1210.546 325 C 1209.809 320.875, 1208.239 314.942, 1207.056 311.815 C 1202.876 300.767, 1191.358 286.110, 1177.652 274.398 C 1172.618 270.097, 1163.550 262.258, 1157.500 256.978 C 1140.267 241.939, 1131.737 235.920, 1112.467 225.203 C 1096.177 216.144, 1079.798 208.626, 1068.500 205.024 C 1055.966 201.028, 1027.082 193.533, 1016.492 191.530 C 991.958 186.888, 959.184 183.786, 944.500 184.716 M 942 287.609 C 924.714 288.827, 912.079 290.207, 901.937 291.984 C 882.118 295.458, 855.052 301.727, 839.500 306.447 C 831.250 308.951, 820 311.942, 814.500 313.094 C 806.151 314.841, 800.867 316.935, 782.500 325.768 C 770.400 331.587, 759.889 336.897, 759.142 337.568 C 758.001 338.592, 758.057 340.436, 759.495 349.143 C 760.435 354.839, 761.815 362.200, 762.560 365.500 C 763.306 368.800, 765.075 379.149, 766.490 388.497 C 768.909 404.468, 769.856 409.961, 774.939 437.500 C 778.015 454.165, 777.835 455.865, 771.751 467.500 C 768.875 473, 765.350 480.200, 763.919 483.500 C 761.254 489.642, 758.270 491.669, 758.766 487 C 759.075 484.087, 765.345 470.661, 770.518 461.835 L 774.111 455.703 772.037 445.602 C 766.813 420.150, 765.106 410.441, 762.529 391.500 C 761.630 384.900, 759.817 373.425, 758.498 366 C 757.179 358.575, 755.817 350.025, 755.472 347 C 754.334 337.029, 749.025 325.151, 743.339 319.855 C 741.778 318.401, 738.122 315.983, 735.216 314.483 C 730.956 312.284, 729.150 311.880, 725.896 312.401 C 720.722 313.228, 718.244 314.896, 713.067 321.035 C 705.794 329.661, 703.135 344.447, 701.026 388 C 700.427 400.375, 699.501 415.746, 698.968 422.157 C 697.474 440.147, 697.768 472.239, 699.502 480.424 C 700.308 484.232, 702.115 496.157, 703.515 506.924 C 704.916 517.691, 706.467 528.075, 706.963 530 C 707.458 531.925, 708.356 537.100, 708.958 541.500 C 709.560 545.900, 710.802 553.386, 711.718 558.135 L 713.382 566.769 715.566 562.056 C 719.956 552.580, 725.654 550.455, 744.119 551.408 L 756.738 552.060 757.346 549.018 C 757.681 547.345, 757.669 533.902, 757.321 519.144 C 756.833 498.503, 756.969 492.137, 757.910 491.556 C 758.583 491.140, 759.433 491.100, 759.800 491.467 C 760.699 492.365, 762.387 548.323, 761.609 551.421 C 760.748 554.854, 758.199 555.394, 744.283 555.090 C 727.966 554.734, 722.911 556.404, 719.327 563.334 C 716.007 569.754, 723.453 583.276, 736.266 594.093 C 746.233 602.508, 757.687 613.904, 764.314 622 C 767.690 626.125, 773.729 633.270, 777.733 637.878 C 784.594 645.774, 794.900 659.581, 797.817 664.784 C 798.714 666.384, 799.511 666.837, 800.317 666.203 C 800.968 665.691, 802.175 665.232, 803 665.183 C 803.825 665.133, 806.761 664.449, 809.525 663.661 C 824.719 659.332, 849.376 657.671, 862.566 660.087 C 869.153 661.294, 877.660 665.468, 883 670.115 L 886.500 673.160 883.016 672.558 C 881.100 672.227, 877.950 670.924, 876.016 669.661 C 872.020 667.053, 863.973 663.694, 863.309 664.357 C 862.832 664.835, 860.862 684.230, 861.259 684.538 C 861.850 684.995, 919.574 693.067, 929 694.010 C 959.350 697.048, 994.937 696.224, 1022.500 691.846 C 1029.650 690.710, 1039.775 689.258, 1045 688.620 L 1054.500 687.458 1054.594 678.229 C 1054.656 672.158, 1054.314 669, 1053.594 669 C 1052.992 668.999, 1049.699 670.436, 1046.275 672.191 C 1042.852 673.947, 1039.702 675.028, 1039.275 674.594 C 1038.026 673.322, 1044.992 668.147, 1050.979 665.901 C 1062.349 661.635, 1089.971 663.654, 1108.867 670.133 L 1114.233 671.973 1130.867 655.236 C 1149.298 636.691, 1186.822 594.524, 1188.705 590.240 C 1191.589 583.681, 1188.838 572.900, 1183.369 569.328 C 1181.128 567.865, 1178.567 567.500, 1170.535 567.500 C 1165.016 567.500, 1160.275 567.076, 1160 566.559 C 1159.307 565.254, 1172.584 562.823, 1177.668 563.325 C 1186.781 564.224, 1192.751 571.165, 1193.734 582.005 C 1194.409 589.443, 1192.180 594.295, 1183.750 603.742 L 1177.287 610.984 1174.121 624.242 C 1169.548 643.396, 1169.739 642.273, 1171.210 641.414 C 1180.424 636.029, 1180.019 636.701, 1187.200 614.869 C 1193.788 594.840, 1196.492 584.820, 1202.005 560 C 1203.532 553.125, 1206.583 540.300, 1208.785 531.500 C 1210.987 522.700, 1213.308 511.900, 1213.943 507.500 C 1214.578 503.100, 1216.312 493.650, 1217.796 486.500 C 1220.335 474.273, 1220.481 472.132, 1220.251 450.500 C 1220.116 437.850, 1219.742 423.450, 1219.419 418.500 C 1218.583 405.695, 1213.293 359.290, 1211.568 349.631 C 1210.769 345.159, 1209.824 339.147, 1209.467 336.270 C 1208.871 331.465, 1208.359 330.643, 1203.159 326.150 C 1193.197 317.541, 1190.338 316, 1184.320 316 C 1178.170 316, 1173.865 318.468, 1171.240 323.500 C 1168.195 329.335, 1161.835 348.581, 1160.996 354.500 C 1159.650 363.987, 1158.139 372.038, 1157.074 375.400 C 1156.533 377.105, 1155.620 382.775, 1155.044 388 C 1154.468 393.225, 1153.098 405.150, 1151.998 414.500 C 1150.899 423.850, 1149.720 437.350, 1149.378 444.500 L 1148.756 457.500 1154.434 466 C 1162.188 477.610, 1168.068 489.714, 1168.452 494.858 C 1168.626 497.192, 1169.046 499.379, 1169.384 499.718 C 1171.109 501.443, 1167.430 526.971, 1162.497 547.500 C 1161.176 553, 1159.961 559.075, 1159.797 561 C 1159.601 563.312, 1158.991 564.500, 1158 564.500 C 1155.639 564.500, 1155.608 557.054, 1157.931 547.726 C 1160.842 536.035, 1164.650 516.880, 1165.941 507.440 C 1167.020 499.551, 1166.979 499.223, 1163.996 491.990 C 1160.692 483.978, 1154.981 473.281, 1151.454 468.500 C 1146.367 461.603, 1144.780 456.102, 1144.797 445.415 C 1144.806 439.869, 1145.275 431.994, 1145.839 427.915 C 1146.404 423.837, 1147.829 411.950, 1149.007 401.500 C 1150.184 391.050, 1151.992 378.900, 1153.024 374.500 C 1154.056 370.100, 1155.424 363.575, 1156.065 360 C 1156.706 356.425, 1158.170 350.433, 1159.319 346.685 C 1160.732 342.074, 1161.099 339.397, 1160.454 338.409 C 1159.929 337.605, 1149.518 332.093, 1137.319 326.160 C 1118.419 316.967, 1113.611 315.049, 1104.819 313.193 C 1099.143 311.994, 1087.750 308.962, 1079.500 306.454 C 1055.112 299.042, 1016.336 291.030, 995 288.995 C 983.229 287.873, 950.428 287.015, 942 287.609 M 847.500 467.907 C 813.903 476.651, 799.816 484.102, 793.073 496.693 C 783.179 515.167, 781.593 520.335, 779.393 541.253 C 777.689 557.457, 778.057 560.069, 783.607 571.155 C 787.762 579.454, 802.062 591.760, 810.414 594.223 C 812.661 594.886, 815.095 596.007, 815.821 596.714 C 818.304 599.130, 831.842 597.828, 849.470 593.479 C 859.873 590.912, 879.044 582.231, 898.264 571.382 C 906.944 566.483, 908.474 565.185, 912.049 559.686 C 926.388 537.631, 924.426 496.623, 908.218 479.617 C 900.389 471.402, 884.844 464.954, 871.500 464.386 C 863.539 464.047, 860.768 464.453, 847.500 467.907 M 1040 465.583 C 1033.364 467.334, 1013.601 476.679, 1011.408 479.102 C 1010.545 480.055, 1009.988 481.885, 1010.171 483.168 C 1010.380 484.645, 1009.705 486.146, 1008.329 487.261 C 1005.870 489.254, 1002.455 499.017, 1001.599 506.500 C 1001.284 509.250, 1000.975 519.157, 1000.912 528.515 L 1000.798 545.530 1006.270 555.838 C 1012.223 567.051, 1012.756 567.547, 1029.634 577.567 C 1054.671 592.431, 1062.544 595.382, 1081.604 597.045 C 1102.159 598.839, 1111.066 597.189, 1120.722 589.797 C 1127.544 584.575, 1134.593 573.999, 1131.250 574 C 1130.838 574.001, 1127.066 577.315, 1122.868 581.366 C 1114.361 589.576, 1109.807 591.733, 1099 592.671 C 1090.084 593.445, 1069.556 591.428, 1062.842 589.118 C 1054.145 586.126, 1030.084 572.859, 1017.023 563.855 C 1010.965 559.678, 1010.394 558.949, 1008.214 552.593 C 1006.120 546.489, 1005.891 544.103, 1005.964 529.149 C 1006.009 519.992, 1006.453 509.677, 1006.950 506.227 C 1008.073 498.441, 1010.639 490.544, 1012.567 488.944 C 1013.593 488.093, 1013.720 487.368, 1012.997 486.497 C 1012.270 485.620, 1012.485 484.662, 1013.735 483.214 C 1016.398 480.130, 1036.828 471.137, 1045.082 469.416 C 1053.933 467.570, 1054.826 467.077, 1052.460 465.347 C 1050.163 463.667, 1047.035 463.726, 1040 465.583 M 1056 467.500 C 1054.955 468.759, 1055.124 469, 1057.057 469 C 1058.322 469, 1060.740 469.431, 1062.429 469.958 C 1064.118 470.484, 1070.335 472.062, 1076.244 473.464 C 1089.277 476.555, 1105.867 483.647, 1116 490.458 C 1123.052 495.199, 1123.755 496.015, 1127.778 504.131 C 1130.130 508.879, 1133.207 517.204, 1134.614 522.631 C 1137.299 532.982, 1137.389 537.793, 1135.371 562.750 C 1134.601 572.271, 1135.853 573.659, 1138.526 566.250 C 1139.729 562.914, 1140.390 557.069, 1140.747 546.613 C 1141.340 529.235, 1139.858 519.921, 1134.239 505.717 C 1130.907 497.296, 1130.469 496.713, 1123.603 491.545 C 1109.465 480.904, 1096.639 475.179, 1074.121 469.458 C 1058.683 465.535, 1057.718 465.430, 1056 467.500 M 847.500 472.954 C 822.253 479.470, 814.167 482.766, 803.932 490.715 C 793.356 498.928, 786.002 516.135, 783.909 537.566 C 781.807 559.092, 784.087 567.970, 794.306 578.059 C 805.937 589.540, 812.466 592.057, 829.500 591.624 C 846.511 591.193, 854.477 588.667, 881.076 575.267 C 902.276 564.587, 903.887 563.579, 907.502 558.738 C 914.569 549.271, 917.222 538.550, 917.131 519.816 C 917.078 508.827, 916.016 501.909, 912.760 491.336 C 910.547 484.151, 897.870 474.906, 884.764 470.920 C 874.748 467.874, 865.152 468.398, 847.500 472.954 M 948.605 538.003 C 946.285 538.437, 943.980 539.696, 942.904 541.116 C 938.124 547.423, 931.625 569.637, 927.452 593.927 C 926.561 599.113, 924.793 606.988, 923.522 611.427 C 919.817 624.376, 919.690 625.544, 921.561 629.487 C 925.886 638.601, 953.533 654.978, 962.090 653.493 C 963.966 653.168, 969.859 650.418, 975.187 647.381 C 988.965 639.529, 996 631.268, 996 622.943 C 996 615.483, 985.759 576.891, 977.695 553.966 C 975.284 547.110, 973.489 540.979, 973.708 540.342 C 973.927 539.705, 973.651 538.902, 973.094 538.558 C 971.544 537.600, 953 537.179, 948.605 538.003 M 954 541.549 C 953.175 541.724, 950.862 542.133, 948.860 542.458 C 945.275 543.040, 945.167 543.197, 941.745 552.775 C 939.816 558.174, 936.600 571.174, 934.515 582 C 932.450 592.725, 929.619 605.550, 928.224 610.500 C 924.885 622.347, 924.454 626.383, 926.255 628.954 C 929.334 633.349, 940.759 641.360, 950.711 646.101 L 961.102 651.050 971.801 644.393 C 977.685 640.731, 983.739 636.584, 985.253 635.178 C 989.546 631.190, 992.326 624.623, 991.587 620.217 C 989.664 608.749, 982.819 583.007, 976.006 561.618 C 973.230 552.903, 970.870 544.698, 970.761 543.386 C 970.571 541.089, 970.284 541.004, 963.032 541.116 C 958.889 541.180, 954.825 541.375, 954 541.549 M 948.112 660.265 C 945.767 661.478, 945.099 663.925, 947.350 663.056 C 947.982 662.812, 953.788 662.527, 960.251 662.422 C 971.391 662.242, 974.926 661.291, 969.809 659.850 C 965.679 658.686, 950.606 658.975, 948.112 660.265 M 830.138 663.878 C 829.017 664.601, 828.955 667.112, 829.784 678.092 L 830.792 691.427 838.038 705.464 C 842.022 713.184, 847.855 724, 850.999 729.500 C 854.142 735, 856.902 740.093, 857.130 740.818 C 857.358 741.543, 857.370 729.939, 857.156 715.032 C 856.832 692.422, 857.625 673.723, 859.296 664.611 C 859.547 663.241, 832.193 662.554, 830.138 663.878 M 815.062 666.072 C 810.422 667.119, 806.258 668.342, 805.811 668.789 C 805.363 669.237, 806.341 671.724, 807.985 674.315 C 813.096 682.374, 814.521 685.826, 822.513 709.500 C 832.419 738.845, 833.009 740.137, 844.800 758.304 C 861.961 784.747, 863.183 786.544, 862.616 784.500 C 861.317 779.813, 859.141 764.797, 858.485 756 L 857.777 746.500 849.532 733.500 C 844.997 726.350, 838.293 714.650, 834.632 707.500 C 827.400 693.372, 826.095 687.949, 826.031 671.750 C 826.009 666.187, 825.647 664.024, 824.750 664.084 C 824.063 664.131, 819.703 665.025, 815.062 666.072 M 1058.714 677.250 C 1059.551 687.100, 1059.661 712.829, 1058.938 729.751 C 1058.697 735.388, 1058.603 740.001, 1058.730 740.001 C 1058.856 740, 1059.931 738.087, 1061.120 735.750 C 1062.308 733.413, 1067.041 725.950, 1071.637 719.167 C 1076.234 712.385, 1082.043 702.709, 1084.546 697.667 C 1088.642 689.417, 1089.157 687.588, 1089.687 679.403 L 1090.276 670.307 1085.695 669.153 C 1083.176 668.519, 1075.897 668, 1069.521 668 L 1057.928 668 1058.714 677.250 M 1092.852 678.633 C 1093.098 684.457, 1092.720 688.372, 1091.595 691.676 C 1089.561 697.643, 1081.070 712.322, 1071.520 726.379 C 1059.669 743.822, 1057.364 749.395, 1053.978 768.799 C 1052.375 777.984, 1050.607 787.045, 1050.049 788.934 C 1049.491 790.822, 1049.168 792.501, 1049.331 792.664 C 1049.659 792.992, 1063.215 773.942, 1069.372 764.500 C 1071.524 761.200, 1074.750 755.125, 1076.541 751 C 1078.332 746.875, 1083.860 735.400, 1088.824 725.500 C 1093.789 715.600, 1100.157 701.875, 1102.974 695 C 1105.792 688.125, 1108.974 681.014, 1110.046 679.198 L 1111.994 675.896 1108.747 674.564 C 1106.961 673.832, 1102.575 672.575, 1099 671.772 L 1092.500 670.311 1092.852 678.633 M 861.087 706.250 C 861.296 731.029, 861.546 733, 864.487 733 C 865.735 733, 868.378 733.678, 870.360 734.506 C 876.181 736.938, 907.488 742.820, 920.500 743.926 C 941.784 745.736, 974.345 746.032, 990 744.559 C 1004.364 743.207, 1031.817 737.845, 1044.625 733.889 C 1048.278 732.760, 1052.079 732.049, 1053.069 732.308 C 1054.085 732.574, 1055.117 732.137, 1055.435 731.308 C 1056.158 729.425, 1056.179 692.629, 1055.458 690.751 C 1055.005 689.569, 1052.273 689.806, 1038.708 692.201 C 1009.509 697.355, 1002.761 698.114, 980.903 698.696 C 948.953 699.546, 926.638 697.666, 884.334 690.557 C 872.692 688.601, 862.663 687, 862.046 687 C 861.251 687, 860.972 692.599, 861.087 706.250 M 866.015 773.178 C 865.986 776.437, 890.871 789.382, 906.780 794.384 C 928.504 801.213, 955.194 803.468, 980.029 800.574 C 1013.418 796.683, 1023.581 793.688, 1036.750 783.855 C 1043.356 778.923, 1043.718 776.769, 1037.148 781.489 C 1025.814 789.632, 1015.029 792.765, 985.250 796.568 C 968.520 798.704, 961.982 799.115, 951.500 798.690 C 935.612 798.046, 918.085 795.071, 905.392 790.862 C 895.316 787.521, 868.057 774.686, 866.783 772.683 C 866.274 771.883, 866.026 772.043, 866.015 773.178 M 936.693 886.086 C 925.799 889.824, 914.421 893.434, 911.409 894.108 C 908.397 894.782, 906.286 895.665, 906.717 896.071 C 907.147 896.477, 914.925 897.319, 924 897.942 C 933.075 898.565, 942.504 899.224, 944.954 899.407 C 949.162 899.722, 1003.653 898.173, 1009 897.587 C 1010.375 897.436, 1014.650 897.202, 1018.500 897.066 L 1025.500 896.818 1020 895.407 C 1014.342 893.955, 996.749 888.929, 980 883.979 C 969.732 880.945, 961.679 879.172, 958.500 879.245 C 957.400 879.270, 947.587 882.349, 936.693 886.086" stroke="none" fill="black" fill-rule="evenodd"/>
</svg>