<svg xmlns="http://www.w3.org/2000/svg" width="1920" height="1080" viewBox="0 0 1920 1080" version="1.1">
	<path fill-opacity="0.533" d="M -0 540.001 L -0 1080.001 960.250 1079.751 L 1920.500 1079.500 1920.751 539.750 L 1921.002 0 960.501 0 L 0 0 -0 540.001 M 0.496 540.500 C 0.496 837.500, 0.610 958.851, 0.750 810.168 C 0.890 661.485, 0.890 418.485, 0.750 270.168 C 0.610 121.851, 0.496 243.500, 0.496 540.500 M 859.038 431.500 C 861.289 441.349, 858.626 450.977, 851.397 459.115 C 843.387 468.135, 847.194 472.983, 856.119 465.127 C 858.539 462.996, 861.527 459.235, 862.759 456.767 C 866.752 448.774, 865.408 436.916, 859.671 429.500 C 858.231 427.638, 858.187 427.777, 859.038 431.500 M 978 487 C 978 488.100, 978.450 489, 979 489 C 979.550 489, 980 488.100, 980 487 C 980 485.900, 979.550 485, 979 485 C 978.450 485, 978 485.900, 978 487 M 1023 498.640 C 1023 499.477, 1026.242 501.927, 1027.403 501.968 C 1027.900 501.986, 1027.268 501.100, 1026 500 C 1023.541 497.868, 1023 497.622, 1023 498.640 M 927 501.694 C 925.193 502.340, 922.988 504.976, 923.030 506.441 C 923.047 507.024, 923.519 506.712, 924.080 505.750 C 924.641 504.788, 925.559 504, 926.121 504 C 926.683 504, 927.818 503.325, 928.643 502.500 C 930.171 500.972, 929.686 500.734, 927 501.694 M 1034.100 506.084 C 1036.520 507.780, 1039.735 510.572, 1041.244 512.289 C 1043.331 514.662, 1044.268 515.132, 1045.152 514.248 C 1046.036 513.364, 1046.010 512.718, 1045.044 511.553 C 1044.345 510.711, 1043.425 510.237, 1043 510.500 C 1042.575 510.763, 1041.620 510.247, 1040.878 509.353 C 1039.163 507.287, 1032.410 503, 1030.870 503 C 1030.226 503, 1031.680 504.388, 1034.100 506.084 M 916.475 510.026 C 914.881 511.690, 913.013 512.835, 912.324 512.571 C 911.635 512.307, 910.199 513.316, 909.132 514.814 C 908.065 516.313, 905.545 519.330, 903.532 521.519 C 893.963 531.928, 885.690 548.962, 882.458 564.910 C 881.176 571.237, 880.895 576.584, 881.253 587.831 C 881.799 604.967, 883.870 614.189, 889.953 626.569 C 894.674 636.178, 907.999 654.406, 911.803 656.459 C 913.286 657.260, 916.718 659.933, 919.429 662.400 C 927.388 669.642, 944.602 677.375, 959.847 680.556 C 977.437 684.227, 992.194 683.278, 1009.892 677.337 C 1050.081 663.846, 1077.519 626.147, 1077.460 584.500 C 1077.442 571.683, 1075.826 562.072, 1071.827 551 C 1068.976 543.104, 1062.173 530.370, 1059.403 527.745 C 1058.101 526.510, 1057.027 524.953, 1057.017 524.285 C 1057.008 523.617, 1056.100 522.589, 1055 522 C 1053.900 521.411, 1053 520.371, 1053 519.688 C 1053 519.004, 1051.662 517.272, 1050.028 515.837 C 1047.689 513.785, 1046.830 513.500, 1045.998 514.502 C 1045.214 515.448, 1045.743 516.512, 1048.054 518.638 C 1051.253 521.579, 1060.571 534.637, 1061.695 537.753 C 1062.042 538.714, 1063.131 540.665, 1064.115 542.088 C 1068.604 548.578, 1073.987 571.528, 1073.996 584.215 C 1074.005 597.683, 1067.183 620.979, 1059.806 632.668 C 1039.072 665.524, 999.833 683.421, 963.695 676.506 C 937.572 671.507, 918.588 659.921, 902.732 639.297 C 890.075 622.834, 882.640 595.763, 885.020 574.811 C 887.012 557.281, 893.812 538.515, 901.236 530.060 C 901.931 529.269, 902.751 527.974, 903.057 527.184 C 903.925 524.949, 915.181 512.506, 918.247 510.393 C 919.758 509.352, 920.996 508.163, 920.997 507.750 C 921.003 506.223, 919.295 507.083, 916.475 510.026 M 991.667 595.250 C 990.658 596.304, 990.024 597.357, 990.256 597.589 C 990.489 597.822, 991.498 597.107, 992.500 596 C 994.848 593.405, 994.087 592.720, 991.667 595.250 M 968 597.549 C 968 598.282, 974.122 601.126, 975.022 600.811 C 975.509 600.640, 974.128 599.746, 971.954 598.824 C 969.779 597.903, 968 597.329, 968 597.549" stroke="none" fill="black" fill-rule="evenodd"/>
	<path fill-opacity="0.807" d="M -0 540.001 L -0 1080.001 960.250 1079.751 L 1920.500 1079.500 1920.751 539.750 L 1921.002 0 960.501 0 L 0 0 -0 540.001 M 0.496 540.500 C 0.496 837.500, 0.610 958.851, 0.750 810.168 C 0.890 661.485, 0.890 418.485, 0.750 270.168 C 0.610 121.851, 0.496 243.500, 0.496 540.500 M 857.580 427.500 C 857.987 428.600, 858.522 432.769, 858.770 436.765 C 859.367 446.401, 856.693 453.294, 850.041 459.269 C 845.613 463.246, 837.674 467.016, 833.750 467.005 C 831.737 466.999, 831.441 469.041, 833.200 470.800 C 834.748 472.348, 843.104 472.342, 848.384 470.789 C 854.373 469.027, 863.226 459.923, 864.936 453.767 C 866.523 448.054, 865.966 439.770, 863.675 435 C 861.688 430.862, 856.430 424.393, 857.580 427.500 M 976 484.500 C 975.175 484.679, 970.450 485.371, 965.500 486.038 C 949.215 488.234, 932.692 494.810, 921.037 503.737 C 917.616 506.357, 913.433 509.518, 911.742 510.762 C 910.051 512.006, 907.630 514.553, 906.361 516.420 C 905.092 518.288, 903.652 519.970, 903.162 520.158 C 902.672 520.346, 900.019 523.875, 897.266 528 C 884.643 546.919, 880.006 562.250, 880.025 585 C 880.039 601.703, 882.504 611.910, 890.581 628.715 C 902.090 652.658, 927.543 673.247, 954.266 680.227 C 964.401 682.875, 989.708 683.373, 999.500 681.118 C 1028.530 674.433, 1052.280 656.572, 1066.473 630.751 C 1079.817 606.475, 1081.930 573.617, 1071.795 548 C 1058.484 514.354, 1026.288 489.320, 991.500 485.566 C 980.925 484.424, 977.449 484.185, 976 484.500 M 962 491.395 C 949.629 493.828, 934.929 499.454, 930.373 503.499 C 929.753 504.050, 926.603 506.300, 923.373 508.500 C 916.628 513.094, 904 525.423, 904 527.414 C 904 528.151, 903.347 529.297, 902.550 529.959 C 900.610 531.569, 895.100 541.191, 892.220 548 C 882.591 570.760, 883.777 604.164, 894.968 625.439 C 904.270 643.122, 917.265 656.203, 936 666.741 C 946.229 672.494, 965.150 677, 979.080 677 C 987.879 677, 1005.696 673.563, 1014 670.264 C 1033.263 662.611, 1051.844 646.141, 1061.682 628 C 1064.094 623.553, 1068.360 612.226, 1070.484 604.630 C 1074.308 590.956, 1073.237 569.672, 1067.921 553.686 C 1065.404 546.118, 1058.031 531, 1056.856 531 C 1056.385 531, 1056 530.553, 1056 530.008 C 1056 528.080, 1038.178 509.001, 1036.375 508.999 C 1035.894 508.998, 1034.150 507.815, 1032.500 506.369 C 1028.008 502.433, 1012.481 495.208, 1003.461 492.857 C 993.525 490.266, 971.659 489.495, 962 491.395 M 996.175 582.412 C 995.825 592.247, 988.158 600, 978.781 600 C 976.335 600, 973.996 599.663, 973.583 599.250 C 973.171 598.837, 972.533 598.497, 972.167 598.493 C 968.533 598.453, 962.050 589.102, 961.850 583.610 C 961.727 580.220, 961.623 580.023, 961.261 582.482 C 959.420 594.991, 974.130 605.685, 986.128 600.559 C 993.784 597.289, 997.531 590.742, 996.751 582 L 996.349 577.500 996.175 582.412" stroke="none" fill="black" fill-rule="evenodd"/>
	<path fill-opacity="0.739" d="M -0 540.001 L -0 1080.001 960.250 1079.751 L 1920.500 1079.500 1920.751 539.750 L 1921.002 0 960.501 0 L 0 0 -0 540.001 M 0.496 540.500 C 0.496 837.500, 0.610 958.851, 0.750 810.168 C 0.890 661.485, 0.890 418.485, 0.750 270.168 C 0.610 121.851, 0.496 243.500, 0.496 540.500 M 856.039 425 C 857.727 428.328, 858.345 431.322, 858.411 436.500 C 858.515 444.655, 856.950 452, 855.109 452 C 854.736 452, 853.648 453.326, 852.691 454.946 C 850.661 458.383, 843.826 463.242, 838.594 464.969 C 836.582 465.633, 831.912 466.087, 828.218 465.977 C 819.299 465.713, 819.345 465.697, 822.307 468.027 C 825.870 470.830, 831.466 473.041, 836.579 473.667 C 841.445 474.263, 856.051 470.452, 855.706 468.677 C 855.593 468.095, 856.347 467.435, 857.383 467.210 C 858.966 466.867, 859.162 467.217, 858.614 469.401 C 858.073 471.557, 858.306 472, 859.981 472 C 861.353 472, 862 471.340, 862 469.941 C 862 468.809, 862.450 468.160, 863 468.500 C 863.550 468.840, 864 468.582, 864 467.926 C 864 467.271, 864.788 466.007, 865.750 465.117 C 866.718 464.222, 867.627 461.713, 867.784 459.500 C 868.179 453.940, 868.640 453, 870.969 453 C 873.732 453, 873.553 451.218, 870.750 450.820 C 868.877 450.554, 868.448 449.784, 868.191 446.227 C 868.022 443.877, 867.534 442.170, 867.108 442.433 C 866.682 442.697, 866.333 442.257, 866.333 441.456 C 866.333 440.655, 866.708 440, 867.167 440 C 867.625 440, 868 439.523, 868 438.941 C 868 438.359, 867.550 438.160, 867 438.500 C 866.441 438.846, 866 438.073, 866 436.748 C 866 435.444, 865.100 433.411, 864 432.230 C 862.900 431.050, 862 429.859, 862 429.584 C 862 429.309, 860.145 427.153, 857.878 424.792 L 853.756 420.500 856.039 425 M 961 485.444 C 947.806 488.200, 947.216 488.405, 934.500 494.669 C 922.599 500.530, 921.465 501.266, 913.186 508.500 C 906.138 514.658, 897 524.613, 897 526.132 C 897 526.588, 895.462 529.366, 893.581 532.306 C 888.086 540.896, 886 544.931, 886 546.971 C 886 548.022, 885.587 549.137, 885.081 549.450 C 884.576 549.762, 883.141 554.176, 881.893 559.259 C 878.667 572.392, 878.639 594.456, 881.831 607.877 C 884.822 620.451, 893.542 637.897, 901.327 646.882 C 906.988 653.416, 918.446 663.976, 921.250 665.244 C 922.763 665.928, 924 666.828, 924 667.244 C 924 667.660, 924.527 668, 925.171 668 C 925.815 668, 927.053 668.642, 927.921 669.428 C 930.020 671.325, 940.704 676.590, 946.148 678.408 C 948.542 679.208, 953.425 680.400, 957 681.057 C 960.575 681.713, 964.674 682.599, 966.109 683.024 C 974.194 685.421, 1003.806 682.104, 1014.500 677.603 C 1022.748 674.131, 1024 673.493, 1024 672.756 C 1024 672.340, 1024.605 672, 1025.345 672 C 1027.069 672, 1038.432 664.692, 1043.033 660.623 C 1044.976 658.906, 1047.788 656.606, 1049.283 655.513 C 1050.777 654.420, 1052 652.997, 1052 652.352 C 1052 651.706, 1053.350 650.042, 1055 648.653 C 1056.650 647.265, 1058 645.749, 1058 645.285 C 1058 644.821, 1058.900 643.793, 1060 643 C 1061.100 642.207, 1062 641.161, 1062 640.674 C 1062 640.188, 1063.237 637.925, 1064.750 635.645 C 1067.430 631.606, 1068.833 628.874, 1071.117 623.250 C 1071.731 621.737, 1072.631 619.719, 1073.117 618.764 C 1073.603 617.809, 1074 616.148, 1074 615.073 C 1074 613.998, 1074.450 612.840, 1075 612.500 C 1075.550 612.160, 1076 610.424, 1076 608.641 C 1076 606.858, 1076.450 604.950, 1077 604.400 C 1078.556 602.844, 1078.876 573.450, 1077.407 567 C 1076.718 563.975, 1075.966 560.150, 1075.736 558.500 C 1075.505 556.850, 1074.979 554.600, 1074.565 553.500 C 1074.151 552.400, 1073.358 550.150, 1072.803 548.500 C 1070.359 541.235, 1062.510 527.596, 1056.500 520.171 C 1051.554 514.060, 1034.707 499.294, 1033.757 500.237 C 1033.616 500.377, 1032.150 499.564, 1030.500 498.428 C 1028.850 497.293, 1024.800 495.027, 1021.500 493.392 C 1015.717 490.527, 1014.056 489.935, 1002 486.445 C 994.399 484.245, 969.636 483.640, 961 485.444 M 961.966 523.992 C 954.066 526.516, 947.442 529.579, 943.204 532.669 C 938.777 535.896, 927 547.743, 927 548.969 C 927 549.444, 926.663 549.983, 926.250 550.167 C 924.938 550.750, 922.267 556.267, 919.604 563.891 C 914.628 578.141, 915.170 594.506, 921.052 607.617 C 922.740 611.379, 924.477 614.692, 924.911 614.978 C 925.345 615.265, 926.292 616.625, 927.015 618 C 930.805 625.208, 938.486 631.918, 950.500 638.517 C 967.564 647.889, 990.970 647.560, 1009.829 637.683 C 1014.179 635.405, 1027.792 624.209, 1027.931 622.795 C 1027.969 622.408, 1029.149 620.942, 1030.553 619.538 C 1033.673 616.418, 1039.874 603.613, 1040.813 598.352 C 1041.191 596.233, 1041.423 588.313, 1041.328 580.750 L 1041.156 567 1035.644 556.750 C 1028.088 542.700, 1021.253 535.644, 1009 529.248 C 1002.621 525.918, 997.248 523.898, 992.643 523.097 C 983.114 521.439, 968.635 521.862, 961.966 523.992 M 972.605 566.568 C 967.711 568.362, 966.332 569.513, 963.269 574.366 C 958.369 582.128, 960.767 592.640, 968.828 598.730 C 972.588 601.571, 973.935 602, 979.098 602 C 986.281 602, 991.582 599.099, 995.659 592.939 C 1001.273 584.455, 997.633 572.381, 987.987 567.494 C 982.486 564.706, 978.364 564.458, 972.605 566.568 M 887.818 578.176 C 887.411 580.305, 887.673 580.825, 889.102 580.717 C 890.192 580.635, 890.578 580.173, 890.083 579.541 C 889.635 578.968, 889.058 577.825, 888.800 577 C 888.508 576.066, 888.137 576.510, 887.818 578.176 M 888 585.198 C 888 586.372, 888.337 586.926, 888.750 586.428 C 889.163 585.931, 889.875 585.243, 890.334 584.901 C 890.792 584.558, 890.455 584.005, 889.584 583.671 C 888.443 583.233, 888 583.661, 888 585.198 M 888.813 588.683 C 889.534 588.972, 890.397 588.936, 890.729 588.604 C 891.061 588.272, 890.471 588.036, 889.417 588.079 C 888.252 588.127, 888.015 588.364, 888.813 588.683 M 892.079 611.583 C 892.127 612.748, 892.364 612.985, 892.683 612.188 C 892.972 611.466, 892.936 610.603, 892.604 610.271 C 892.272 609.939, 892.036 610.529, 892.079 611.583 M 905 727.250 C 905 727.938, 906.125 728.500, 907.500 728.500 C 910.321 728.500, 910.797 727.520, 908.418 726.607 C 906.011 725.683, 905 725.873, 905 727.250 M 911.733 729.124 C 912.412 729.808, 913.219 730.115, 913.526 729.807 C 913.834 729.499, 913.279 728.940, 912.293 728.564 C 910.868 728.022, 910.753 728.136, 911.733 729.124 M 1041 730 C 1040.175 730.533, 1038.375 730.983, 1037 730.999 C 1035.625 731.016, 1032.475 731.741, 1030 732.612 C 1027.525 733.482, 1024.375 734.386, 1023 734.621 C 1021.625 734.856, 1015.775 736.039, 1010 737.251 C 994.860 740.428, 963.723 740.347, 947 737.087 C 940.675 735.854, 933.813 734.608, 931.750 734.318 C 929.688 734.027, 928 733.387, 928 732.895 C 928 732.403, 925.919 732, 923.375 732 L 918.750 732 919.375 735.125 C 919.719 736.844, 920 741.344, 920 745.125 C 920 750.569, 920.312 752, 921.500 752 C 922.676 752, 923 753.374, 923 758.364 C 923 763.906, 923.340 765.068, 925.636 767.364 C 927.575 769.302, 929.295 770, 932.136 770 L 936 770 936 777 L 936 784 940 784 C 943.333 784, 944 784.333, 944 786 C 944 787.667, 944.667 788, 948 788 C 951.333 788, 952 788.333, 952 790 C 952 791.333, 952.667 792, 954 792 C 955.467 792, 956 791.333, 956 789.500 C 956 787.667, 956.533 787, 958 787 C 959.653 787, 960 787.667, 960 790.846 L 960 794.693 972.157 795.346 C 993.166 796.476, 996 796.316, 996 794 C 996 792.333, 996.667 792, 1000 792 C 1003.333 792, 1004 791.667, 1004 790 C 1004 788.863, 1004.667 788, 1005.545 788 C 1006.395 788, 1008.195 786.895, 1009.545 785.545 C 1010.895 784.195, 1012 782.395, 1012 781.545 C 1012 780.409, 1013.059 780, 1016 780 C 1019.333 780, 1020 779.667, 1020 778 C 1020 776.667, 1020.667 776, 1022 776 C 1023.333 776, 1024 775.333, 1024 774 C 1024 772.900, 1024.450 772, 1025 772 C 1025.550 772, 1026.002 771.212, 1026.004 770.250 C 1026.006 769.288, 1026.822 767.150, 1027.817 765.500 C 1028.813 763.850, 1029.946 761.649, 1030.336 760.609 C 1030.936 759.009, 1030.813 758.911, 1029.536 759.970 C 1028.206 761.074, 1028.165 760.823, 1029.196 757.862 C 1030.542 753.992, 1032.259 752, 1034.248 752 C 1035.068 752, 1036.197 749.950, 1037 747 C 1037.749 744.250, 1038.730 742, 1039.181 742 C 1039.631 742, 1040 741.550, 1040 741 C 1040 740.450, 1039.292 740, 1038.427 740 C 1035.887 740, 1037.234 736.541, 1039.922 736.159 C 1042.991 735.724, 1045 733.711, 1045 731.071 C 1045 728.852, 1043.428 728.431, 1041 730" stroke="none" fill="black" fill-rule="evenodd"/>
	<path fill-opacity="0.667" d="M 0 540 L 0 1080 448 1080 L 896 1080 896 1076 L 896 1072 892 1072 L 888 1072 888 1056 L 888 1040 884 1040 L 880 1040 880 1008 L 880 976 888 976 L 896 976 896 968 L 896 960 888 960 L 880 960 880 952 L 880 944 832 944 L 784 944 784 936 L 784 928 772 928 L 760 928 760 924 L 760 920 756 920 C 752.667 920, 752 920.333, 752 922 C 752 923.833, 751.333 924, 744 924 C 736.667 924, 736 923.833, 736 922 C 736 920.030, 735.333 920, 692 920 L 648 920 648 916 L 648 912 636 912 L 624 912 624 908 L 624 904 620 904 L 616 904 616 900 L 616 896 612 896 L 608 896 608 888 L 608 880 616 880 L 624 880 624 876 L 624 872 632 872 L 640 872 640 868 L 640 864 648 864 L 656 864 656 856 L 656 848 672 848 L 688 848 688 840 L 688 832 696 832 L 704 832 704 824 L 704 816 712 816 L 720 816 720 792 L 720 768 724 768 L 728 768 728 752 L 728 736 732 736 L 736 736 736 592 L 736 448 744 448 L 752 448 752 424 L 752 400 760 400 L 768 400 768 392 L 768 384 776 384 L 784 384 784 376 L 784 368 792 368 L 800 368 800 352 L 800 336 816 336 L 832 336 832 328 L 832 320 840 320 L 848 320 848 312 L 848 304 864 304 L 880 304 880 297 L 880 290 888 290 C 892.667 290, 896 289.583, 896 289 C 896 288.375, 902 288, 912 288 L 928 288 928 281 L 928 274 984 274 L 1040 274 1040 277 L 1040 280 1048 280 L 1056 280 1056 284 L 1056 288 1072 288 L 1088 288 1088 296 L 1088 304 1096 304 L 1104 304 1104 308 L 1104 312 1112 312 L 1120 312 1120 316 L 1120 320 1128 320 L 1136 320 1136 328 L 1136 336 1144 336 L 1152 336 1152 344 L 1152 352 1160 352 L 1168 352 1168 360 L 1168 368 1176 368 L 1184 368 1184 380 L 1184 392 1188 392 L 1192 392 1192 396 L 1192 400 1196 400 L 1200 400 1200 408 L 1200 416 1203 416 L 1206 416 1206 432 L 1206 448 1211 448 L 1216 448 1216 456 L 1216 464 1220 464 L 1224 464 1224 536 C 1224 583.333, 1223.657 608, 1223 608 C 1222.350 608, 1222 622, 1222 648 C 1222 674, 1222.350 688, 1223 688 C 1223.646 688, 1224 699.333, 1224 720 L 1224 752 1228 752 L 1232 752 1232 768 L 1232 784 1235 784 L 1238 784 1238 800 L 1238 816 1247 816 L 1256 816 1256 824 L 1256 832 1260 832 L 1264 832 1264 836 L 1264 840 1272 840 L 1280 840 1280 844 L 1280 848 1288 848 L 1296 848 1296 852 L 1296 856 1304 856 L 1312 856 1312 860 L 1312 864 1320 864 L 1328 864 1328 868 L 1328 872 1336 872 L 1344 872 1344 884 L 1344 896 1336 896 L 1328 896 1328 900 L 1328 904 1320 904 L 1312 904 1312 908 L 1312 912 1288 912 L 1264 912 1264 920 L 1264 928 1240 928 L 1216 928 1216 936 L 1216 944 1168 944 L 1120 944 1120 952 L 1120 960 1104 960 L 1088 960 1088 968 L 1088 976 1080 976 L 1072 976 1072 1028.001 L 1072 1080.002 1496.250 1079.751 L 1920.500 1079.500 1920.751 539.750 L 1921.002 0 960.501 0 L 0 0 0 540 M 0.496 540.500 C 0.496 837.500, 0.610 958.851, 0.750 810.168 C 0.890 661.485, 0.890 418.485, 0.750 270.168 C 0.610 121.851, 0.496 243.500, 0.496 540.500 M 975.500 361 C 975.160 361.550, 973.326 362, 971.425 362 C 965.963 362, 960 364.215, 960 366.243 C 960 367.210, 959.378 368, 958.619 368 C 956.988 368, 952.879 373.246, 951.178 377.500 C 950.416 379.406, 949.812 389.170, 949.523 404.278 C 949.273 417.356, 948.665 428.776, 948.173 429.655 C 947.642 430.604, 945.087 431.598, 941.889 432.099 C 933.914 433.348, 928 435.278, 928 436.630 C 928 437.287, 926.202 438.128, 924.005 438.499 C 921.808 438.870, 919.757 439.585, 919.446 440.087 C 919.136 440.589, 917.870 441, 916.632 441 C 915.395 441, 913.509 441.661, 912.441 442.468 C 911.374 443.276, 909.745 443.951, 908.823 443.968 C 907.900 443.986, 906.314 445.057, 905.298 446.348 C 904.282 447.639, 901.811 449.237, 899.806 449.899 C 897.801 450.561, 895.619 451.754, 894.958 452.551 C 894.296 453.348, 893.248 454.013, 892.628 454.030 C 890.965 454.073, 880.005 464.560, 879.968 466.144 C 879.900 469.033, 877.302 471.114, 874.606 470.437 C 872.972 470.027, 872 470.197, 872 470.892 C 872 471.501, 872.675 472, 873.500 472 C 875.366 472, 875.358 472.943, 873.468 475.441 C 872.410 476.840, 871.992 476.980, 871.970 475.941 C 871.947 474.882, 871.668 474.966, 870.915 476.260 C 870.351 477.227, 868.344 478.665, 866.455 479.454 C 863.904 480.520, 863.185 481.319, 863.661 482.560 C 864.184 483.922, 863.887 484.099, 862.053 483.517 C 860.148 482.912, 859.897 483.099, 860.415 484.733 C 861.076 486.813, 859.433 488.619, 854.750 490.962 C 853.237 491.719, 852 492.716, 852 493.178 C 852 493.640, 850.605 495.477, 848.899 497.259 C 847.193 499.042, 845.107 501.850, 844.263 503.500 C 843.420 505.150, 842.115 506.860, 841.365 507.300 C 840.614 507.740, 840 508.570, 840 509.146 C 840 509.721, 838.487 513.411, 836.638 517.346 C 834.789 521.281, 832.069 527.650, 830.595 531.500 C 829.120 535.350, 827.033 540.349, 825.957 542.610 C 824.881 544.870, 824 547.264, 824 547.931 C 824 548.598, 823.345 549.798, 822.543 550.599 C 821.327 551.816, 815.392 552.067, 786.543 552.125 L 752 552.193 752 578.097 C 752 600.455, 752.205 604, 753.500 604 C 755.327 604, 755.421 602.872, 753.750 600.998 C 752.688 599.807, 752.801 599.808, 754.500 601.005 C 757.035 602.790, 759.949 606.214, 759.978 607.441 C 759.990 607.959, 759.394 607.553, 758.653 606.540 C 757.664 605.188, 757.105 605.022, 756.553 605.915 C 755.537 607.559, 755.972 607.848, 760.558 608.575 C 766.069 609.449, 768 610.700, 768 613.394 C 768 615.609, 768.268 615.695, 773.750 615.255 C 776.913 615.001, 788.595 614.597, 799.711 614.358 C 819.025 613.941, 820.012 614.012, 821.961 615.961 C 823.082 617.082, 824 618.940, 824 620.090 C 824 621.239, 824.901 622.927, 826.003 623.840 C 827.105 624.753, 828.421 627.525, 828.927 630 C 830.852 639.399, 836.300 652.703, 840.673 658.683 C 841.953 660.434, 843 662.773, 843 663.881 C 843 664.990, 845.250 668.600, 848 671.904 C 850.750 675.209, 853 678.344, 853 678.872 C 853 679.399, 855.925 682.399, 859.500 685.538 C 863.075 688.676, 866 691.829, 866 692.544 C 866 693.890, 874.854 701.982, 876.339 701.994 C 876.801 701.997, 879.094 703.971, 881.435 706.380 C 883.777 708.789, 887.449 711.576, 889.596 712.573 C 891.743 713.571, 894.474 715.406, 895.665 716.653 C 896.855 717.899, 898.997 719.212, 900.424 719.570 C 901.851 719.929, 903.266 720.622, 903.568 721.111 C 903.871 721.600, 904.810 722, 905.655 722 C 906.500 722, 910.411 723.518, 914.346 725.373 C 918.281 727.228, 922.625 729.089, 924 729.508 C 925.375 729.927, 927.388 730.884, 928.473 731.635 C 929.557 732.386, 931.499 733, 932.788 733 C 934.077 733, 935.978 733.453, 937.012 734.007 C 940.037 735.626, 955.511 737.953, 973.500 739.495 C 983.939 740.390, 1010.101 737.498, 1017 734.686 C 1018.925 733.902, 1021.035 733.455, 1021.689 733.693 C 1022.343 733.931, 1023.918 733.473, 1025.189 732.674 C 1026.460 731.876, 1029.300 730.694, 1031.500 730.047 C 1037.423 728.306, 1043.069 725.817, 1046.890 723.265 C 1048.754 722.019, 1051 721, 1051.881 721 C 1052.762 721, 1055.849 719.425, 1058.741 717.500 C 1061.634 715.575, 1066.588 712.313, 1069.750 710.250 C 1072.912 708.188, 1075.865 705.928, 1076.311 705.229 C 1076.758 704.530, 1077.487 704.183, 1077.932 704.458 C 1078.377 704.733, 1082.654 701.216, 1087.438 696.643 C 1099.162 685.435, 1099.984 684.760, 1100.079 686.260 C 1100.122 686.942, 1100.629 686.150, 1101.205 684.500 C 1101.781 682.850, 1104.558 677.763, 1107.376 673.195 C 1110.194 668.627, 1113.315 663.452, 1114.311 661.695 C 1115.308 659.938, 1116.944 657.795, 1117.947 656.932 C 1118.950 656.070, 1120.038 653.461, 1120.363 651.133 C 1120.689 648.806, 1121.666 646.191, 1122.535 645.322 C 1123.404 644.453, 1123.869 643.102, 1123.569 642.319 C 1123.248 641.482, 1123.457 641.165, 1124.078 641.548 C 1124.659 641.907, 1125.035 641.593, 1124.913 640.850 C 1124.792 640.108, 1125.453 637.789, 1126.382 635.697 C 1127.311 633.605, 1128.339 630.554, 1128.667 628.916 C 1128.994 627.279, 1130.406 625.039, 1131.804 623.940 L 1134.345 621.941 1134.228 597.720 C 1134.047 560.397, 1133.826 552, 1133.025 552 C 1132.618 552, 1132.006 549.335, 1131.666 546.077 C 1131.302 542.596, 1130.007 538.292, 1128.523 535.635 C 1127.136 533.149, 1126 530.414, 1126 529.558 C 1126 528.701, 1125.621 528, 1125.158 528 C 1124.328 528, 1119 515.403, 1119 513.442 C 1119 512.289, 1113.226 502.859, 1110.004 498.750 C 1108.818 497.238, 1106.987 496, 1105.936 496 C 1104.480 496, 1103.872 495.050, 1103.387 492.019 C 1102.759 488.089, 1100.035 484.191, 1099.970 487.128 C 1099.949 488.069, 1099.623 487.957, 1098.932 486.771 C 1098.378 485.820, 1097.970 484.751, 1098.025 484.395 C 1098.081 484.039, 1097.121 483.242, 1095.892 482.624 C 1094.663 482.006, 1093.572 480.600, 1093.468 479.500 C 1093.147 476.123, 1075.127 459.028, 1070.366 457.586 C 1069.193 457.230, 1066.866 455.715, 1065.194 454.220 C 1060.189 449.740, 1059.241 449.092, 1058.613 449.721 C 1058.282 450.051, 1057.222 449.627, 1056.256 448.779 C 1055.290 447.931, 1053.528 446.941, 1052.340 446.580 C 1051.152 446.218, 1049.635 445.265, 1048.968 444.461 C 1048.301 443.658, 1046.880 443, 1045.811 443 C 1044.741 443, 1039.675 440.975, 1034.553 438.500 C 1029.431 436.025, 1024.537 434, 1023.679 434 C 1022.820 434, 1021.877 433.610, 1021.582 433.133 C 1021.287 432.656, 1018.955 432.030, 1016.399 431.742 C 1013.844 431.453, 1011.365 430.606, 1010.892 429.859 C 1010.418 429.112, 1010.024 419.358, 1010.015 408.184 C 1010.007 397.011, 1009.576 387.076, 1009.058 386.108 C 1008.540 385.140, 1007.974 382.132, 1007.802 379.424 C 1007.515 374.936, 1007.267 374.498, 1005 374.481 C 1003.101 374.466, 1002.393 373.827, 1002.007 371.779 C 1001.518 369.191, 995.836 363.545, 991.316 361.155 C 988.638 359.739, 976.354 359.619, 975.500 361 M 824.556 408.910 C 824.185 409.510, 822.217 410, 820.182 410 C 817.564 410, 816.116 410.585, 815.232 412 C 814.541 413.107, 812.900 414, 811.557 414 C 810.222 414, 807.946 414.450, 806.498 415.001 C 804.475 415.770, 804.013 416.465, 804.500 418.001 C 805.508 421.177, 804.145 424.181, 802.004 423.501 C 800.994 423.181, 799.879 423.387, 799.525 423.959 C 799.171 424.532, 799.639 425, 800.563 425 C 801.862 425, 801.990 425.307, 801.124 426.351 C 798.945 428.976, 798.686 436.596, 800.519 444.079 C 801.888 449.665, 802.030 451.722, 801.145 453.139 C 799.508 455.761, 799.659 456, 802.950 456 C 804.572 456, 807.835 457.301, 810.200 458.891 C 815.964 462.766, 821.103 464.812, 827.058 465.602 C 830.449 466.052, 832 465.903, 832 465.129 C 832 464.439, 833.968 464, 837.059 464 C 840.203 464, 841.882 463.619, 841.495 462.992 C 841.153 462.438, 841.576 461.281, 842.436 460.421 C 843.824 459.033, 844.625 453.179, 844.170 447.750 C 844.090 446.788, 844.468 446, 845.012 446 C 845.555 446, 846 446.450, 846 447 C 846 447.550, 846.900 448, 848 448 C 849.100 448, 850 448.450, 850 449 C 850 449.550, 849.550 450, 849 450 C 847.380 450, 847.856 451.731, 849.667 452.426 C 850.584 452.778, 851.822 452.574, 852.417 451.974 C 853.198 451.186, 853.011 451.068, 851.750 451.548 C 849.775 452.299, 849.314 450.487, 851.250 449.583 C 852.250 449.117, 852.250 448.883, 851.250 448.417 C 849.329 447.520, 849.560 437, 851.500 437 C 852.325 437, 853 437.675, 853 438.500 C 853 439.325, 853.675 440, 854.500 440 C 855.325 440, 856 440.450, 856 441 C 856 441.550, 856.406 442, 856.901 442 C 857.397 442, 857.735 439.075, 857.651 435.501 C 857.568 431.927, 857.246 429.002, 856.937 429.001 C 856.627 429, 855.754 427.421, 854.996 425.490 C 854.239 423.560, 852.619 421.325, 851.396 420.524 C 850.174 419.723, 848.867 417.671, 848.492 415.963 C 847.992 413.688, 847.391 413.020, 846.242 413.461 C 845.317 413.816, 843.614 413.066, 842.087 411.632 C 840.062 409.730, 837.950 409.052, 832.365 408.511 C 827.588 408.048, 825.007 408.180, 824.556 408.910 M 847.750 455.716 C 844.942 456.142, 844.064 458.303, 846.170 459.605 C 846.957 460.091, 847.131 459.783, 846.701 458.664 C 846.350 457.749, 846.461 457, 846.948 457 C 847.435 457, 848.020 457.561, 848.249 458.247 C 848.505 459.016, 849.126 458.632, 849.868 457.247 C 850.529 456.011, 850.942 455.067, 850.785 455.150 C 850.628 455.232, 849.263 455.487, 847.750 455.716 M 970.830 483.497 C 970.648 483.674, 968.250 483.988, 965.500 484.194 C 962.750 484.400, 960.050 484.841, 959.500 485.173 C 958.950 485.506, 955.800 486.334, 952.500 487.013 C 944.640 488.631, 944.740 488.607, 943 489.265 C 942.175 489.578, 940.244 490.109, 938.709 490.446 C 937.174 490.783, 936.159 491.448, 936.453 491.925 C 937.070 492.922, 934.717 494, 931.927 494 C 930.876 494, 929.455 494.900, 928.768 496 C 928.081 497.100, 927.126 498, 926.647 498 C 924.398 498, 906.056 512.896, 906.023 514.750 C 906.010 515.438, 905.100 516, 904 516 C 902.597 516, 901.995 516.672, 901.985 518.250 C 901.973 520.028, 901.774 520.191, 901.038 519.028 C 900.021 517.419, 899.553 518.128, 898.749 522.500 C 898.547 523.600, 897.790 524.369, 897.068 524.209 C 896.238 524.025, 895.977 524.499, 896.360 525.497 C 896.713 526.417, 896.347 527.313, 895.483 527.645 C 894.667 527.958, 894 528.771, 894 529.452 C 894 530.133, 893.100 531.505, 892 532.500 C 890.900 533.495, 890 534.860, 890 535.533 C 890 536.205, 889.354 537.291, 888.564 537.947 C 887.775 538.602, 886.826 540.517, 886.456 542.202 C 885.959 544.463, 885.553 544.903, 884.907 543.883 C 884.221 542.801, 884.027 542.785, 884.015 543.809 C 884.007 544.529, 883.550 544.840, 883 544.500 C 882.405 544.132, 882 545.323, 882 547.441 C 882 549.613, 882.487 551.006, 883.250 551.015 C 884.024 551.025, 884.119 551.310, 883.500 551.765 C 882.454 552.534, 881.986 553.988, 881.576 557.752 C 881.441 558.990, 881.031 560.302, 880.665 560.668 C 880.299 561.034, 880 563.932, 880 567.108 C 880 572.574, 878.539 576.036, 877.816 572.282 C 877.631 571.323, 877.485 576.717, 877.490 584.269 C 877.498 594.580, 877.811 597.998, 878.750 597.999 C 879.961 598, 880.421 601.324, 880.031 607.250 C 879.931 608.763, 880.284 610, 880.815 610 C 882.373 610, 882.832 617.127, 881.311 617.711 C 879.167 618.534, 879.724 622, 882 622 C 883.100 622, 884 621.550, 884 621 C 884 620.450, 884.410 620, 884.912 620 C 885.414 620, 885.705 621.085, 885.559 622.412 C 885.362 624.204, 885.681 624.676, 886.795 624.248 C 887.964 623.800, 888.183 624.261, 887.787 626.336 C 887.451 628.094, 887.711 629, 888.551 629 C 889.405 629, 889.670 629.988, 889.354 631.991 C 888.957 634.510, 889.156 634.877, 890.615 634.318 C 891.944 633.807, 892.198 634.042, 891.705 635.326 C 891.350 636.252, 891.544 637, 892.138 637 C 892.730 637, 892.967 637.644, 892.665 638.431 C 892.281 639.432, 892.700 639.750, 894.058 639.489 C 895.462 639.219, 896 639.673, 896 641.129 C 896 642.237, 896.679 643.822, 897.509 644.652 C 898.339 645.482, 898.763 646.575, 898.450 647.081 C 898.138 647.586, 898.809 648, 899.941 648 C 901.073 648, 902 648.450, 902 649 C 902 649.550, 901.550 650, 901 650 C 900.450 650, 900 650.900, 900 652 C 900 653.145, 900.667 654, 901.559 654 C 902.416 654, 902.840 653.550, 902.500 653 C 902.155 652.442, 902.903 652.007, 904.191 652.015 C 905.685 652.025, 906.066 652.306, 905.270 652.812 C 904.416 653.354, 904.979 654.147, 907.111 655.406 C 908.799 656.404, 909.798 657.602, 909.330 658.070 C 908.862 658.538, 908.642 660.964, 908.840 663.460 C 909.127 667.061, 909.580 668, 911.031 668 C 912.038 668, 913.055 667.212, 913.293 666.250 C 913.585 665.066, 913.649 665.147, 913.491 666.500 C 913.362 667.600, 912.926 669.288, 912.522 670.250 C 911.883 671.770, 912.392 672, 916.393 672 C 921.500 672, 922.069 671.074, 918.823 668.050 C 917.625 666.934, 916.897 665.770, 917.204 665.463 C 917.511 665.156, 918.458 665.601, 919.310 666.452 C 920.161 667.304, 921.654 668, 922.629 668 C 924.006 668, 924.133 668.267, 923.200 669.200 C 921.887 670.513, 921.547 672.385, 922.750 671.676 C 924.041 670.916, 928.161 672.930, 927.501 673.999 C 927.156 674.557, 927.577 675.284, 928.437 675.614 C 929.296 675.944, 930 677.066, 930 678.107 C 930 679.595, 930.731 680, 933.421 680 C 936.426 680, 936.923 680.373, 937.516 683.072 C 938.163 686.017, 938.352 686.116, 942.095 685.484 C 945.273 684.947, 946 685.120, 946 686.412 C 946 687.744, 947.438 688, 954.917 688 C 961.072 688, 964.014 687.613, 964.417 686.750 C 964.883 685.750, 965.117 685.750, 965.583 686.750 C 966.556 688.835, 970 688.250, 970 686 C 970 684.167, 970.667 684, 978 684 C 982.667 684, 986 684.417, 986 685 C 986 685.550, 986.900 686, 988 686 C 989.100 686, 990 685.550, 990 685 C 990 684.450, 991.013 684.007, 992.250 684.015 C 993.901 684.027, 994.137 684.260, 993.137 684.894 C 991.986 685.623, 991.986 685.843, 993.137 686.303 C 994.236 686.742, 994.251 687.024, 993.216 687.754 C 992.385 688.341, 993.568 688.592, 996.573 688.467 C 1001.080 688.279, 1002.952 687.027, 1002.985 684.179 C 1003.010 682.034, 1005.461 680.199, 1008.586 679.987 C 1012.870 679.695, 1016.688 680.082, 1015.250 680.662 C 1014.563 680.940, 1014 681.804, 1014 682.583 C 1014 683.363, 1013.550 684, 1013 684 C 1012.450 684, 1012 684.450, 1012 685 C 1012 685.550, 1014.250 686, 1017 686 C 1021.612 686, 1022 685.814, 1022 683.598 C 1022 681.828, 1022.789 680.920, 1025 680.150 C 1026.650 679.575, 1028.001 678.743, 1028.001 678.302 C 1028.004 676.451, 1032.903 672, 1034.938 672 C 1036.151 672, 1037.818 671.325, 1038.643 670.500 C 1040.762 668.381, 1041.690 668.627, 1042.411 671.500 C 1043.069 674.124, 1046 675.018, 1046 672.595 C 1046 671.533, 1046.977 671.321, 1050 671.727 L 1054 672.263 1054 668.064 C 1054 664.211, 1053.815 663.911, 1051.750 664.423 C 1050.513 664.730, 1050.063 664.723, 1050.750 664.407 C 1051.438 664.092, 1052 663.226, 1052 662.484 C 1052 661.742, 1052.851 660.865, 1053.892 660.534 C 1055.818 659.923, 1057.560 656, 1055.906 656 C 1055.408 656, 1055 655.550, 1055 655 C 1055 654.450, 1056.575 654, 1058.500 654 C 1060.425 654, 1062 654.450, 1062 655 C 1062 655.550, 1061.025 656, 1059.833 656 C 1058.642 656, 1057.893 656.226, 1058.170 656.503 C 1058.447 656.780, 1060.772 656.719, 1063.337 656.367 C 1067.654 655.776, 1068 655.515, 1068 652.864 C 1068 651.289, 1068.450 650, 1069 650 C 1069.550 650, 1070 648.650, 1070 647 C 1070 644.939, 1069.508 644, 1068.429 644 C 1067.564 644, 1066.178 643.321, 1065.348 642.491 C 1064.518 641.661, 1063.425 641.237, 1062.919 641.550 C 1062.414 641.862, 1062 641.641, 1062 641.059 C 1062 640.477, 1063.420 640, 1065.155 640 C 1068.088 640, 1068.200 639.877, 1066.748 638.250 C 1065.410 636.749, 1065.387 636.316, 1066.593 635.211 C 1067.764 634.138, 1068 634.263, 1068 635.961 C 1068 637.547, 1068.648 638, 1070.917 638 C 1072.521 638, 1074.007 638.521, 1074.219 639.158 C 1074.463 639.889, 1075.600 640.066, 1077.303 639.639 C 1079.910 638.984, 1080 638.730, 1080 631.981 C 1080 627.994, 1079.571 625, 1079 625 C 1078.450 625, 1078 624.325, 1078 623.500 C 1078 622.675, 1077.550 622, 1077 622 C 1075.726 622, 1075.726 617.971, 1077 616 C 1077.755 614.831, 1077.973 615.107, 1077.985 617.250 C 1077.993 618.763, 1078.450 620, 1079 620 C 1079.550 620, 1080 618.200, 1080 616 C 1080 613.800, 1079.550 612, 1079 612 C 1077.735 612, 1077.682 608.314, 1078.936 607.540 C 1079.731 607.048, 1080.263 588.343, 1080.203 563 C 1080.181 553.862, 1080.215 554, 1078 554 C 1076.889 554, 1076 553.333, 1076 552.500 C 1076 551.675, 1075.578 551, 1075.063 551 C 1074.547 551, 1074.327 549.313, 1074.572 547.250 C 1074.817 545.188, 1074.752 544.063, 1074.426 544.750 C 1073.248 547.236, 1072.369 545.906, 1072.129 541.276 C 1071.854 535.955, 1071.311 534.884, 1069.976 537.029 C 1069.272 538.159, 1068.910 537.758, 1068.415 535.301 C 1068.061 533.542, 1067.035 531.931, 1066.135 531.721 C 1064.911 531.435, 1065.190 531.006, 1067.250 530.009 C 1068.763 529.278, 1070 528.349, 1070 527.946 C 1070 526.717, 1066.562 525.813, 1066.186 526.943 C 1065.992 527.524, 1065.373 528, 1064.810 528 C 1064.247 528, 1064.064 527.275, 1064.404 526.389 C 1064.864 525.192, 1064.598 524.940, 1063.370 525.412 C 1061.977 525.946, 1061.919 525.803, 1063.001 524.499 C 1063.707 523.648, 1063.991 522.658, 1063.632 522.299 C 1063.273 521.940, 1062.323 522.513, 1061.521 523.573 C 1060.378 525.084, 1060.057 525.170, 1060.032 523.971 C 1060.014 523.130, 1059.100 521.793, 1058 521 C 1056.900 520.207, 1056 518.731, 1056 517.720 C 1056 516.709, 1055.550 516.160, 1055 516.500 C 1054.450 516.840, 1054 516.609, 1054 515.988 C 1054 514.564, 1052.031 512.589, 1049.750 511.725 C 1048.787 511.361, 1048 510.347, 1048 509.472 C 1048 508.598, 1047.550 508.160, 1047 508.500 C 1046.450 508.840, 1046 508.416, 1046 507.559 C 1046 506.702, 1046.450 506, 1047 506 C 1048.904 506, 1047.991 504.425, 1046 504.275 C 1044.900 504.192, 1044 504.546, 1044 505.062 C 1044 505.578, 1043.523 506, 1042.941 506 C 1042.359 506, 1042.146 505.573, 1042.469 505.050 C 1042.792 504.528, 1042.031 503.562, 1040.778 502.904 C 1039.525 502.246, 1038.135 501.089, 1037.689 500.333 C 1037.242 499.577, 1036.455 499.219, 1035.939 499.538 C 1035.422 499.857, 1035 499.641, 1035 499.059 C 1035 498.477, 1034.127 498, 1033.059 498 C 1031.991 498, 1030.840 497.550, 1030.500 497 C 1030.160 496.450, 1029.253 496, 1028.485 496 C 1027.717 496, 1024.798 494.650, 1022 493 C 1019.202 491.350, 1016.058 490, 1015.015 490 C 1013.972 490, 1012.840 489.550, 1012.500 489 C 1012.160 488.450, 1010.559 488, 1008.941 488 C 1007.323 488, 1006 487.550, 1006 487 C 1006 486.450, 1004.740 486, 1003.200 486 C 1001.660 486, 999.973 485.606, 999.450 485.123 C 998.570 484.311, 971.565 482.777, 970.830 483.497 M 1038 499 C 1038 499.550, 1038.450 500, 1039 500 C 1039.550 500, 1040 499.550, 1040 499 C 1040 498.450, 1039.550 498, 1039 498 C 1038.450 498, 1038 498.450, 1038 499 M 971 522.962 C 970.175 523.516, 968.064 523.976, 966.309 523.985 C 964.554 523.993, 962.840 524.450, 962.500 525 C 962.160 525.550, 961.009 526, 959.941 526 C 958.873 526, 958 526.450, 958 527 C 958 527.550, 956.510 528, 954.689 528 C 952.867 528, 950.505 528.813, 949.439 529.806 C 948.372 530.799, 947.179 531.718, 946.788 531.848 C 944.773 532.516, 934.737 542.046, 929 548.740 C 923.397 555.277, 919.087 569.595, 918.278 584.356 C 917.731 594.341, 918.910 599.338, 924.798 612 C 928.509 619.980, 931.493 624, 933.706 624 C 934.452 624, 935.360 624.775, 935.723 625.721 C 936.687 628.232, 941.824 633, 943.566 633 C 944.389 633, 945.313 633.653, 945.620 634.452 C 945.926 635.250, 947.712 636.410, 949.588 637.029 C 951.465 637.648, 953 638.538, 953 639.006 C 953 639.474, 955.587 640.413, 958.750 641.094 C 961.913 641.774, 964.983 642.696, 965.574 643.142 C 967.826 644.842, 980.528 645.138, 988.500 643.675 C 997.279 642.063, 1008 638.372, 1008 636.960 C 1008 636.466, 1008.563 636.278, 1009.250 636.542 C 1009.938 636.805, 1011.718 635.891, 1013.206 634.510 C 1014.695 633.130, 1016.165 632, 1016.474 632 C 1017.442 632, 1024.445 624.538, 1024.217 623.750 C 1024.098 623.337, 1024.900 623, 1026 623 C 1027.333 623, 1028 622.333, 1028 621 C 1028 619.900, 1028.367 619, 1028.814 619 C 1029.816 619, 1034 611.317, 1034 609.477 C 1034 608.743, 1034.584 607.548, 1035.298 606.821 C 1036.011 606.095, 1037.427 602.836, 1038.444 599.579 C 1040.026 594.515, 1040.201 591.692, 1039.657 580.079 C 1039.047 567.071, 1038.866 566.184, 1035.349 559 C 1031.600 551.341, 1027.503 545.131, 1025.256 543.700 C 1024.565 543.260, 1024 542.429, 1024 541.852 C 1024 540.458, 1016.841 534.053, 1015.250 534.023 C 1014.563 534.010, 1014 533.523, 1014 532.941 C 1014 532.359, 1013.550 532.160, 1013 532.500 C 1012.450 532.840, 1012 532.713, 1012 532.218 C 1012 530.804, 999.935 525.284, 993.932 523.951 C 986.553 522.312, 972.846 521.721, 971 522.962 M 974 564.970 C 974 565.399, 972.704 566.009, 971.121 566.326 C 969.537 566.643, 967.624 567.512, 966.871 568.257 C 966.117 569.002, 964.712 569.910, 963.750 570.275 C 962.788 570.639, 962 571.626, 962 572.469 C 962 573.311, 961.509 574, 960.909 574 C 960.163 574, 960.009 576.390, 960.422 581.541 C 961.158 590.709, 961.243 591.161, 962.500 592.586 C 968.813 599.741, 970.399 601.030, 974.122 602.033 C 978.527 603.219, 988 602.450, 988 600.906 C 988 600.408, 988.927 600, 990.059 600 C 991.191 600, 991.840 599.550, 991.500 599 C 991.160 598.450, 991.391 598, 992.012 598 C 993.428 598, 995.396 595.923, 995.825 593.976 C 996.004 593.164, 996.566 592.350, 997.075 592.167 C 997.584 591.983, 998 590.719, 998 589.358 C 998 587.996, 998.387 587.121, 998.859 587.413 C 1000.077 588.165, 999.465 583.887, 997.431 577.421 C 995.468 571.178, 990.584 566.310, 985.526 565.555 C 978.198 564.460, 974 564.247, 974 564.970 M 965.500 599 C 965.840 599.550, 966.316 600, 966.559 600 C 966.802 600, 967 599.550, 967 599 C 967 598.450, 966.523 598, 965.941 598 C 965.359 598, 965.160 598.450, 965.500 599 M 1070 629.559 C 1070 630.416, 1069.550 630.840, 1069 630.500 C 1068.450 630.160, 1068 630.535, 1068 631.334 C 1068 632.133, 1068.712 633.059, 1069.582 633.393 C 1071.817 634.251, 1072 634.183, 1072 632.500 C 1072 631.675, 1072.482 631, 1073.071 631 C 1073.661 631, 1073.468 630.325, 1072.643 629.500 C 1070.729 627.586, 1070 627.603, 1070 629.559 M 1060 644.441 C 1060 645.298, 1060.450 646, 1061 646 C 1061.550 646, 1062 645.577, 1062 645.059 C 1062 644.541, 1061.550 643.840, 1061 643.500 C 1060.450 643.160, 1060 643.584, 1060 644.441 M 1052.813 652.683 C 1053.534 652.972, 1054.397 652.936, 1054.729 652.604 C 1055.061 652.272, 1054.471 652.036, 1053.417 652.079 C 1052.252 652.127, 1052.015 652.364, 1052.813 652.683 M 1045.658 659.449 C 1045.286 660.418, 1045.582 660.714, 1046.551 660.342 C 1047.348 660.036, 1048 659.384, 1048 658.893 C 1048 657.455, 1046.265 657.867, 1045.658 659.449 M 932.459 676.067 C 932.096 676.653, 932.014 677.348, 932.276 677.610 C 932.538 677.872, 933.019 677.392, 933.345 676.543 C 934.021 674.781, 933.445 674.471, 932.459 676.067 M 959.500 683 C 959.160 683.550, 959.332 684, 959.882 684 C 960.432 684, 961.160 683.550, 961.500 683 C 961.840 682.450, 961.668 682, 961.118 682 C 960.568 682, 959.840 682.450, 959.500 683 M 998.750 682.662 C 999.438 682.940, 1000 683.767, 1000 684.500 C 1000 685.233, 999.438 686.034, 998.750 686.280 C 998.063 686.525, 997.816 687.066, 998.202 687.482 C 999.316 688.681, 1002.059 685.318, 1001.390 683.574 C 1001.058 682.708, 1000.047 682.036, 999.143 682.079 C 998.105 682.129, 997.961 682.344, 998.750 682.662 M 1004.667 683.667 C 1003.711 684.622, 1003.845 686, 1004.893 686 C 1005.384 686, 1006.045 685.325, 1006.362 684.500 C 1006.947 682.976, 1005.881 682.452, 1004.667 683.667 M 995 685 C 995 685.550, 995.423 686, 995.941 686 C 996.459 686, 997.160 685.550, 997.500 685 C 997.840 684.450, 997.416 684, 996.559 684 C 995.702 684, 995 684.450, 995 685 M 972 687 C 972 687.550, 972.450 688, 973 688 C 973.550 688, 974 687.550, 974 687 C 974 686.450, 973.550 686, 973 686 C 972.450 686, 972 686.450, 972 687 M 1008 687 C 1008 687.550, 1008.450 688, 1009 688 C 1009.550 688, 1010 687.550, 1010 687 C 1010 686.450, 1009.550 686, 1009 686 C 1008.450 686, 1008 686.450, 1008 687" stroke="none" fill="black" fill-rule="evenodd"/>
</svg>