<svg xmlns="http://www.w3.org/2000/svg" width="1920" height="1080" viewBox="0 0 1920 1080" version="1.1">
	<path fill-opacity="0.471" d="M -0 540.001 L -0 1080.001 960.250 1079.751 L 1920.500 1079.500 1920.751 539.750 L 1921.002 0 960.501 0 L 0 0 -0 540.001 M 0.496 540.500 C 0.496 837.500, 0.610 958.851, 0.750 810.168 C 0.890 661.485, 0.890 418.485, 0.750 270.168 C 0.610 121.851, 0.496 243.500, 0.496 540.500 M 438 14.500 L 438 20 443.500 20 L 449 20 449 14.500 L 449 9 443.500 9 L 438 9 438 14.500 M 634 26 L 634 32 639.500 32 L 645 32 645 26 L 645 20 639.500 20 L 634 20 634 26 M 1221 26 L 1221 32 1215.500 32 L 1210 32 1210 37.500 L 1210 43 1215.500 43 L 1221 43 1221 49 L 1221 55 1227 55 L 1233 55 1233 49 L 1233 43 1238.500 43 L 1244 43 1244 37.500 L 1244 32 1238.500 32 L 1233 32 1233 26 L 1233 20 1227 20 L 1221 20 1221 26 M 1463 83.500 L 1463 89 1469 89 L 1475 89 1475 83.500 L 1475 78 1469 78 L 1463 78 1463 83.500 M 1452 106.500 L 1452 112 1469 112 L 1486 112 1486 106.500 L 1486 101 1469 101 L 1452 101 1452 106.500 M 1440 135.500 L 1440 147 1446 147 L 1452 147 1452 141.500 L 1452 136 1457.500 136 L 1463 136 1463 141.500 L 1463 147 1469 147 L 1475 147 1475 141.500 L 1475 136 1480.500 136 L 1486 136 1486 141.500 L 1486 147 1492 147 L 1498 147 1498 135.500 L 1498 124 1469 124 L 1440 124 1440 135.500 M 1544 141.500 L 1544 147 1549.500 147 L 1555 147 1555 141.500 L 1555 136 1549.500 136 L 1544 136 1544 141.500 M 1567 141.500 L 1567 147 1572.500 147 L 1578 147 1578 141.500 L 1578 136 1572.500 136 L 1567 136 1567 141.500 M 1544 164.500 L 1544 170 1549.500 170 L 1555 170 1555 164.500 L 1555 159 1549.500 159 L 1544 159 1544 164.500 M 1544 187.500 L 1544 193 1549.500 193 L 1555 193 1555 187.500 L 1555 182 1549.500 182 L 1544 182 1544 187.500 M 1567 187.500 L 1567 193 1578.500 193 L 1590 193 1590 187.500 L 1590 182 1578.500 182 L 1567 182 1567 187.500 M 1164 199 L 1164 205 1169.500 205 L 1175 205 1175 199 L 1175 193 1169.500 193 L 1164 193 1164 199 M 1613 199 L 1613 205 1624.500 205 L 1636 205 1636 199 L 1636 193 1624.500 193 L 1613 193 1613 199 M 1647 199 L 1647 205 1658.500 205 L 1670 205 1670 199 L 1670 193 1658.500 193 L 1647 193 1647 199 M 1682 199 L 1682 205 1693.500 205 L 1705 205 1705 199 L 1705 193 1693.500 193 L 1682 193 1682 199 M 1716 199 L 1716 205 1728 205 L 1740 205 1740 199 L 1740 193 1728 193 L 1716 193 1716 199 M 1394 210.500 L 1394 216 1405.500 216 L 1417 216 1417 210.500 L 1417 205 1405.500 205 L 1394 205 1394 210.500 M 1428 210.500 L 1428 216 1440 216 L 1452 216 1452 210.500 L 1452 205 1440 205 L 1428 205 1428 210.500 M 1475 210.500 L 1475 216 1480.500 216 L 1486 216 1486 210.500 L 1486 205 1480.500 205 L 1475 205 1475 210.500 M 357 222 L 357 228 363 228 L 369 228 369 222 L 369 216 363 216 L 357 216 357 222 M 1164 222 L 1164 228 1169.500 228 L 1175 228 1175 222 L 1175 216 1169.500 216 L 1164 216 1164 222 M 1428 233.500 L 1428 239 1440 239 L 1452 239 1452 233.500 L 1452 228 1440 228 L 1428 228 1428 233.500 M 956 245 L 956 251 962 251 L 968 251 968 245 L 968 239 962 239 L 956 239 956 245 M 991 245 L 991 251 1002.500 251 L 1014 251 1014 245 L 1014 239 1002.500 239 L 991 239 991 245 M 1129 245 L 1129 251 1140.500 251 L 1152 251 1152 245 L 1152 239 1140.500 239 L 1129 239 1129 245 M 1832 245 L 1832 251 1843.500 251 L 1855 251 1855 245 L 1855 239 1843.500 239 L 1832 239 1832 245 M 1866 245 L 1866 251 1877.500 251 L 1889 251 1889 245 L 1889 239 1877.500 239 L 1866 239 1866 245 M 1394 256.500 L 1394 262 1399.500 262 L 1405 262 1405 256.500 L 1405 251 1399.500 251 L 1394 251 1394 256.500 M 1428 256.500 L 1428 262 1440 262 L 1452 262 1452 256.500 L 1452 251 1440 251 L 1428 251 1428 256.500 M 991 268 L 991 274 996.500 274 L 1002 274 1002 268 L 1002 262 996.500 262 L 991 262 991 268 M 1164 268 L 1164 274 1175.500 274 L 1187 274 1187 268 L 1187 262 1175.500 262 L 1164 262 1164 268 M 1613 268 L 1613 274 1624.500 274 L 1636 274 1636 268 L 1636 262 1624.500 262 L 1613 262 1613 268 M 1647 268 L 1647 274 1658.500 274 L 1670 274 1670 268 L 1670 262 1658.500 262 L 1647 262 1647 268 M 1832 268 L 1832 274 1843.500 274 L 1855 274 1855 268 L 1855 262 1843.500 262 L 1832 262 1832 268 M 1866 268 L 1866 274 1877.500 274 L 1889 274 1889 268 L 1889 262 1877.500 262 L 1866 262 1866 268 M 680 279.500 L 680 285 685.500 285 L 691 285 691 279.500 L 691 274 685.500 274 L 680 274 680 279.500 M 956 291 L 956 297 967.500 297 L 979 297 979 291 L 979 285 967.500 285 L 956 285 956 291 M 1129 291 L 1129 297 1140.500 297 L 1152 297 1152 291 L 1152 285 1140.500 285 L 1129 285 1129 291 M 1164 291 L 1164 297 1187 297 L 1210 297 1210 291 L 1210 285 1187 285 L 1164 285 1164 291 M 1244 291 L 1244 297 1255.500 297 L 1267 297 1267 291 L 1267 285 1255.500 285 L 1244 285 1244 291 M 1809 291 L 1809 297 1814.500 297 L 1820 297 1820 291 L 1820 285 1814.500 285 L 1809 285 1809 291 M 1832 291 L 1832 297 1837.500 297 L 1843 297 1843 291 L 1843 285 1837.500 285 L 1832 285 1832 291 M 1855 291 L 1855 297 1860.500 297 L 1866 297 1866 291 L 1866 285 1860.500 285 L 1855 285 1855 291 M 1878 291 L 1878 297 1883.500 297 L 1889 297 1889 291 L 1889 285 1883.500 285 L 1878 285 1878 291 M 680 302.500 L 680 308 685.500 308 L 691 308 691 302.500 L 691 297 685.500 297 L 680 297 680 302.500 M 703 302.500 L 703 308 708.500 308 L 714 308 714 302.500 L 714 297 708.500 297 L 703 297 703 302.500 M 1613 302.500 L 1613 308 1624.500 308 L 1636 308 1636 302.500 L 1636 297 1624.500 297 L 1613 297 1613 302.500 M 956 314 L 956 320 967.500 320 L 979 320 979 314 L 979 308 967.500 308 L 956 308 956 314 M 1164 314 L 1164 320 1175.500 320 L 1187 320 1187 314 L 1187 308 1175.500 308 L 1164 308 1164 314 M 1832 314 L 1832 320 1843.500 320 L 1855 320 1855 314 L 1855 308 1843.500 308 L 1832 308 1832 314 M 1866 314 L 1866 320 1877.500 320 L 1889 320 1889 314 L 1889 308 1877.500 308 L 1866 308 1866 314 M 680 325.500 L 680 331 685.500 331 L 691 331 691 325.500 L 691 320 685.500 320 L 680 320 680 325.500 M 852 325.500 L 852 331 858 331 L 864 331 864 325.500 L 864 320 858 320 L 852 320 852 325.500 M 876 325.500 L 876 331 881.500 331 L 887 331 887 325.500 L 887 320 881.500 320 L 876 320 876 325.500 M 1106 337 L 1106 343 1111.500 343 L 1117 343 1117 337 L 1117 331 1111.500 331 L 1106 331 1106 337 M 1198 337 L 1198 343 1209.500 343 L 1221 343 1221 337 L 1221 331 1209.500 331 L 1198 331 1198 337 M 1233 337 L 1233 343 1238.500 343 L 1244 343 1244 337 L 1244 331 1238.500 331 L 1233 331 1233 337 M 1428 337 L 1428 343 1440 343 L 1452 343 1452 337 L 1452 331 1440 331 L 1428 331 1428 337 M 1463 337 L 1463 343 1474.500 343 L 1486 343 1486 337 L 1486 331 1474.500 331 L 1463 331 1463 337 M 1498 337 L 1498 343 1509.500 343 L 1521 343 1521 337 L 1521 331 1509.500 331 L 1498 331 1498 337 M 1613 337 L 1613 343 1624.500 343 L 1636 343 1636 337 L 1636 331 1624.500 331 L 1613 331 1613 337 M 1647 337 L 1647 343 1658.500 343 L 1670 343 1670 337 L 1670 331 1658.500 331 L 1647 331 1647 337 M 1682 337 L 1682 343 1693.500 343 L 1705 343 1705 337 L 1705 331 1693.500 331 L 1682 331 1682 337 M 1866 337 L 1866 343 1877.500 343 L 1889 343 1889 337 L 1889 331 1877.500 331 L 1866 331 1866 337 M 703 348.500 L 703 354 708.500 354 L 714 354 714 348.500 L 714 343 708.500 343 L 703 343 703 348.500 M 841 348.500 L 841 354 852.500 354 L 864 354 864 348.500 L 864 343 852.500 343 L 841 343 841 348.500 M 1210 360 L 1210 366 1215.500 366 L 1221 366 1221 360 L 1221 354 1215.500 354 L 1210 354 1210 360 M 1233 360 L 1233 366 1244.500 366 L 1256 366 1256 360 L 1256 354 1244.500 354 L 1233 354 1233 360 M 691 371.500 L 691 377 702.500 377 L 714 377 714 371.500 L 714 366 702.500 366 L 691 366 691 371.500 M 841 371.500 L 841 377 846.500 377 L 852 377 852 371.500 L 852 366 846.500 366 L 841 366 841 371.500 M 876 371.500 L 876 377 887.500 377 L 899 377 899 371.500 L 899 366 887.500 366 L 876 366 876 371.500 M 1428 371.500 L 1428 377 1440 377 L 1452 377 1452 371.500 L 1452 366 1440 366 L 1428 366 1428 371.500 M 1463 371.500 L 1463 377 1474.500 377 L 1486 377 1486 371.500 L 1486 366 1474.500 366 L 1463 366 1463 371.500 M 1498 371.500 L 1498 377 1503.500 377 L 1509 377 1509 371.500 L 1509 366 1503.500 366 L 1498 366 1498 371.500 M 841 394.500 L 841 400 846.500 400 L 852 400 852 394.500 L 852 389 846.500 389 L 841 389 841 394.500 M 864 394.500 L 864 400 881.500 400 L 899 400 899 394.500 L 899 389 881.500 389 L 864 389 864 394.500 M 1325 394.500 L 1325 400 1330.500 400 L 1336 400 1336 394.500 L 1336 389 1330.500 389 L 1325 389 1325 394.500 M 1348 394.500 L 1348 400 1359.500 400 L 1371 400 1371 394.500 L 1371 389 1359.500 389 L 1348 389 1348 394.500 M 1613 394.500 L 1613 400 1641.500 400 L 1670 400 1670 394.500 L 1670 389 1641.500 389 L 1613 389 1613 394.500 M 968 406 L 968 412 973.500 412 L 979 412 979 406 L 979 400 973.500 400 L 968 400 968 406 M 1002 406 L 1002 412 1013.500 412 L 1025 412 1025 406 L 1025 400 1013.500 400 L 1002 400 1002 406 M 1037 406 L 1037 412 1048.500 412 L 1060 412 1060 406 L 1060 400 1048.500 400 L 1037 400 1037 406 M 1094 406 L 1094 412 1100 412 L 1106 412 1106 406 L 1106 400 1100 400 L 1094 400 1094 406 M 1117 406 L 1117 412 1123 412 L 1129 412 1129 406 L 1129 400 1123 400 L 1117 400 1117 406 M 1428 406 L 1428 412 1440 412 L 1452 412 1452 406 L 1452 400 1440 400 L 1428 400 1428 406 M 1475 406 L 1475 412 1480.500 412 L 1486 412 1486 406 L 1486 400 1480.500 400 L 1475 400 1475 406 M 841 418 L 841 424 846.500 424 L 852 424 852 418 L 852 412 846.500 412 L 841 412 841 418 M 864 418 L 864 424 881.500 424 L 899 424 899 429.500 L 899 435 904.500 435 L 910 435 910 429.500 L 910 424 904.500 424 L 899 424 899 418 L 899 412 881.500 412 L 864 412 864 418 M 1728 418 L 1728 424 1739.500 424 L 1751 424 1751 418 L 1751 412 1739.500 412 L 1728 412 1728 418 M 1763 418 L 1763 424 1774.500 424 L 1786 424 1786 418 L 1786 412 1774.500 412 L 1763 412 1763 418 M 1797 418 L 1797 424 1808.500 424 L 1820 424 1820 418 L 1820 412 1808.500 412 L 1797 412 1797 418 M 276 429.500 L 276 435 282 435 L 288 435 288 429.500 L 288 424 282 424 L 276 424 276 429.500 M 588 429.500 L 588 435 593.500 435 L 599 435 599 429.500 L 599 424 593.500 424 L 588 424 588 429.500 M 1210 429.500 L 1210 435 1215.500 435 L 1221 435 1221 429.500 L 1221 424 1215.500 424 L 1210 424 1210 429.500 M 1613 429.500 L 1613 435 1641.500 435 L 1670 435 1670 429.500 L 1670 424 1641.500 424 L 1613 424 1613 429.500 M 841 441 L 841 447 846.500 447 L 852 447 852 441 L 852 435 846.500 435 L 841 435 841 441 M 968 441 L 968 447 979.500 447 L 991 447 991 441 L 991 435 979.500 435 L 968 435 968 441 M 1002 441 L 1002 447 1013.500 447 L 1025 447 1025 441 L 1025 435 1013.500 435 L 1002 435 1002 441 M 1037 441 L 1037 447 1042.500 447 L 1048 447 1048 441 L 1048 435 1042.500 435 L 1037 435 1037 441 M 1117 441 L 1117 447 1128.500 447 L 1140 447 1140 441 L 1140 435 1128.500 435 L 1117 435 1117 441 M 1152 441 L 1152 447 1158 447 L 1164 447 1164 441 L 1164 435 1158 435 L 1152 435 1152 441 M 1428 441 L 1428 447 1434 447 L 1440 447 1440 441 L 1440 435 1434 435 L 1428 435 1428 441 M 749 452.500 L 749 458 754.500 458 L 760 458 760 452.500 L 760 447 754.500 447 L 749 447 749 452.500 M 1763 458.500 L 1763 470 1774.500 470 L 1786 470 1786 458.500 L 1786 447 1774.500 447 L 1763 447 1763 458.500 M 968 464 L 968 470 973.500 470 L 979 470 979 464 L 979 458 973.500 458 L 968 458 968 464 M 1002 464 L 1002 470 1008 470 L 1014 470 1014 464 L 1014 458 1008 458 L 1002 458 1002 464 M 1071 464 L 1071 470 1077 470 L 1083 470 1083 464 L 1083 458 1077 458 L 1071 458 1071 464 M 1279 464 L 1279 470 1290.500 470 L 1302 470 1302 464 L 1302 458 1290.500 458 L 1279 458 1279 464 M 1325 464 L 1325 470 1336.500 470 L 1348 470 1348 464 L 1348 458 1336.500 458 L 1325 458 1325 464 M 749 475.500 L 749 481 754.500 481 L 760 481 760 475.500 L 760 470 754.500 470 L 749 470 749 475.500 M 1428 475.500 L 1428 481 1440 481 L 1452 481 1452 475.500 L 1452 470 1440 470 L 1428 470 1428 475.500 M 1002 487 L 1002 493 1008 493 L 1014 493 1014 487 L 1014 481 1008 481 L 1002 481 1002 487 M 1071 487 L 1071 493 1077 493 L 1083 493 1083 487 L 1083 481 1077 481 L 1071 481 1071 487 M 1763 492.500 L 1763 504 1774.500 504 L 1786 504 1786 492.500 L 1786 481 1774.500 481 L 1763 481 1763 492.500 M 1797 492.500 L 1797 504 1808.500 504 L 1820 504 1820 492.500 L 1820 481 1808.500 481 L 1797 481 1797 492.500 M 749 498.500 L 749 504 754.500 504 L 760 504 760 498.500 L 760 493 754.500 493 L 749 493 749 498.500 M 1279 498.500 L 1279 504 1284.500 504 L 1290 504 1290 498.500 L 1290 493 1284.500 493 L 1279 493 1279 498.500 M 1325 498.500 L 1325 504 1336.500 504 L 1348 504 1348 498.500 L 1348 493 1336.500 493 L 1325 493 1325 498.500 M 749 521.500 L 749 527 754.500 527 L 760 527 760 521.500 L 760 516 754.500 516 L 749 516 749 521.500 M 1279 533 L 1279 539 1290.500 539 L 1302 539 1302 533 L 1302 527 1290.500 527 L 1279 527 1279 533 M 1325 533 L 1325 539 1336.500 539 L 1348 539 1348 533 L 1348 527 1336.500 527 L 1325 527 1325 533 M 749 544.500 L 749 550 754.500 550 L 760 550 760 544.500 L 760 539 754.500 539 L 749 539 749 544.500 M 35 556 L 35 562 40.500 562 L 46 562 46 556 L 46 550 40.500 550 L 35 550 35 556 M 219 556 L 219 562 224.500 562 L 230 562 230 556 L 230 550 224.500 550 L 219 550 219 556 M 346 556 L 346 562 351.500 562 L 357 562 357 556 L 357 550 351.500 550 L 346 550 346 556 M 426 567.500 L 426 585 432 585 L 438 585 438 567.500 L 438 550 432 550 L 426 550 426 567.500 M 530 556 L 530 562 535.500 562 L 541 562 541 556 L 541 550 535.500 550 L 530 550 530 556 M 657 556 L 657 562 662.500 562 L 668 562 668 556 L 668 550 662.500 550 L 657 550 657 556 M 841 556 L 841 562 846.500 562 L 852 562 852 556 L 852 550 846.500 550 L 841 550 841 556 M 968 556 L 968 562 973.500 562 L 979 562 979 556 L 979 550 973.500 550 L 968 550 968 556 M 1152 556 L 1152 562 1158 562 L 1164 562 1164 556 L 1164 550 1158 550 L 1152 550 1152 556 M 1083 590.500 L 1083 596 1088.500 596 L 1094 596 1094 590.500 L 1094 585 1088.500 585 L 1083 585 1083 590.500 M 1140 590.500 L 1140 596 1146 596 L 1152 596 1152 590.500 L 1152 585 1146 585 L 1140 585 1140 590.500 M 1233 590.500 L 1233 596 1238.500 596 L 1244 596 1244 590.500 L 1244 585 1238.500 585 L 1233 585 1233 590.500 M 1290 590.500 L 1290 596 1296 596 L 1302 596 1302 590.500 L 1302 585 1296 585 L 1290 585 1290 590.500 M 1371 590.500 L 1371 596 1376.500 596 L 1382 596 1382 590.500 L 1382 585 1376.500 585 L 1371 585 1371 590.500 M 1452 590.500 L 1452 596 1457.500 596 L 1463 596 1463 590.500 L 1463 585 1457.500 585 L 1452 585 1452 590.500 M 1544 590.500 L 1544 596 1549.500 596 L 1555 596 1555 590.500 L 1555 585 1549.500 585 L 1544 585 1544 590.500 M 1636 590.500 L 1636 596 1641.500 596 L 1647 596 1647 590.500 L 1647 585 1641.500 585 L 1636 585 1636 590.500 M 1751 590.500 L 1751 596 1757 596 L 1763 596 1763 590.500 L 1763 585 1757 585 L 1751 585 1751 590.500 M 1855 590.500 L 1855 596 1860.500 596 L 1866 596 1866 590.500 L 1866 585 1860.500 585 L 1855 585 1855 590.500 M 495 625 L 495 631 489.500 631 L 484 631 484 636.500 L 484 642 478 642 L 472 642 472 648 L 472 654 495 654 L 518 654 518 642.500 L 518 631 524 631 L 530 631 530 625 L 530 619 512.500 619 L 495 619 495 625 M 1590 636.500 L 1590 642 1595.500 642 L 1601 642 1601 636.500 L 1601 631 1595.500 631 L 1590 631 1590 636.500 M 1624 636.500 L 1624 642 1630 642 L 1636 642 1636 636.500 L 1636 631 1630 631 L 1624 631 1624 636.500 M 1647 636.500 L 1647 642 1653 642 L 1659 642 1659 636.500 L 1659 631 1653 631 L 1647 631 1647 636.500 M 1682 636.500 L 1682 642 1687.500 642 L 1693 642 1693 636.500 L 1693 631 1687.500 631 L 1682 631 1682 636.500 M 1705 636.500 L 1705 642 1710.500 642 L 1716 642 1716 636.500 L 1716 631 1710.500 631 L 1705 631 1705 636.500 M 1728 636.500 L 1728 642 1734 642 L 1740 642 1740 636.500 L 1740 631 1734 631 L 1728 631 1728 636.500 M 1763 636.500 L 1763 642 1768.500 642 L 1774 642 1774 636.500 L 1774 631 1768.500 631 L 1763 631 1763 636.500 M 1797 636.500 L 1797 642 1803 642 L 1809 642 1809 636.500 L 1809 631 1803 631 L 1797 631 1797 636.500 M 1843 636.500 L 1843 642 1849 642 L 1855 642 1855 636.500 L 1855 631 1849 631 L 1843 631 1843 636.500" stroke="none" fill="black" fill-rule="evenodd"/>
	<path fill-opacity="0.511" d="M 196 83.500 L 196 89 184.500 89 L 173 89 173 95 L 173 101 161.500 101 L 150 101 150 106.500 L 150 112 144 112 L 138 112 138 118 L 138 124 132.500 124 L 127 124 127 130 L 127 136 121 136 L 115 136 115 141.500 L 115 147 109.500 147 L 104 147 104 153 L 104 159 98 159 L 92 159 92 170.500 L 92 182 86.500 182 L 81 182 81 193.500 L 81 205 75 205 L 69 205 69 216.500 L 69 228 63.500 228 L 58 228 58 360.500 L 58 493 46.500 493 L 35 493 35 487 L 35 481 29 481 L 23 481 23 475.500 L 23 470 11.500 470 L 0 470 0 475.500 L 0 481 6 481 L 12 481 12 487 L 12 493 17.500 493 L 23 493 23 521.500 L 23 550 11.500 550 L 0 550 0 567.500 L 0 585 29 585 L 58 585 58 619.500 L 58 654 29 654 L 0 654 0 867.001 L 0 1080.001 960.250 1079.751 L 1920.500 1079.500 1920.500 779 C 1920.500 613.725, 1920.329 466.238, 1920.119 451.250 L 1919.738 424 1915.869 424 L 1912 424 1912 412 L 1912 400 1900.500 400 L 1889 400 1889 371.500 L 1889 343 1877.500 343 L 1866 343 1866 337 L 1866 331 1877.500 331 L 1889 331 1889 325.500 L 1889 320 1877.500 320 L 1866 320 1866 314 L 1866 308 1877.500 308 L 1889 308 1889 302.500 L 1889 297 1883.500 297 L 1878 297 1878 291 L 1878 285 1883.500 285 L 1889 285 1889 279.500 L 1889 274 1877.500 274 L 1866 274 1866 268 L 1866 262 1877.500 262 L 1889 262 1889 256.500 L 1889 251 1877.500 251 L 1866 251 1866 245 L 1866 239 1877.500 239 L 1889 239 1889 233.500 L 1889 228 1883.500 228 L 1878 228 1878 222 L 1878 216 1826 216 L 1774 216 1774 222 L 1774 228 1768.500 228 L 1763 228 1763 285.500 L 1763 343 1757 343 L 1751 343 1751 251 L 1751 159 1739.500 159 L 1728 159 1728 141.500 L 1728 124 1722 124 L 1716 124 1716 141.500 L 1716 159 1664.500 159 L 1613 159 1613 141.500 L 1613 124 1607 124 L 1601 124 1601 112.500 L 1601 101 1584 101 L 1567 101 1567 112.500 L 1567 124 1549.500 124 L 1532 124 1532 193 L 1532 262 1520.500 262 L 1509 262 1509 204.500 L 1509 147 1468.500 147 L 1428 147 1428 170 L 1428 193 1405 193 L 1382 193 1382 245 L 1382 297 1353.500 297 L 1325 297 1325 331.500 L 1325 366 1319 366 L 1313 366 1313 314 L 1313 262 1307.500 262 L 1302 262 1302 256.500 L 1302 251 1296 251 L 1290 251 1290 239.500 L 1290 228 1296 228 L 1302 228 1302 222 L 1302 216 1284.500 216 L 1267 216 1267 222 L 1267 228 1273 228 L 1279 228 1279 239.500 L 1279 251 1238.500 251 L 1198 251 1198 245 L 1198 239 1204 239 L 1210 239 1210 199 L 1210 159 1204 159 L 1198 159 1198 153 L 1198 147 1163.500 147 L 1129 147 1129 153 L 1129 159 1123 159 L 1117 159 1117 239.500 L 1117 320 1077 320 L 1037 320 1037 268 L 1037 216 1025.500 216 L 1014 216 1014 199 L 1014 182 1008 182 L 1002 182 1002 199 L 1002 216 973.500 216 L 945 216 945 348.500 L 945 481 939 481 L 933 481 933 394.500 L 933 308 927.500 308 L 922 308 922 302.500 L 922 297 881.500 297 L 841 297 841 302.500 L 841 308 835 308 L 829 308 829 331 L 829 354 789 354 L 749 354 749 308 L 749 262 743 262 L 737 262 737 250.500 L 737 239 731.500 239 L 726 239 726 227.500 L 726 216 720 216 L 714 216 714 210.500 L 714 205 708.500 205 L 703 205 703 210.500 L 703 216 697 216 L 691 216 691 227.500 L 691 239 685.500 239 L 680 239 680 250.500 L 680 262 674 262 L 668 262 668 377.500 L 668 493 656.500 493 L 645 493 645 487 L 645 481 639.500 481 L 634 481 634 440.500 L 634 400 628 400 L 622 400 622 383 L 622 366 599 366 L 576 366 576 383 L 576 400 547 400 L 518 400 518 446.500 L 518 493 512.500 493 L 507 493 507 498.500 L 507 504 472.500 504 L 438 504 438 498.500 L 438 493 403.500 493 L 369 493 369 498.500 L 369 504 363 504 L 357 504 357 498.500 L 357 493 345.500 493 L 334 493 334 487 L 334 481 322.500 481 L 311 481 311 475.500 L 311 470 305.500 470 L 300 470 300 458.500 L 300 447 282.500 447 L 265 447 265 458.500 L 265 470 253.500 470 L 242 470 242 475.500 L 242 481 236 481 L 230 481 230 487 L 230 493 213 493 L 196 493 196 498.500 L 196 504 144 504 L 92 504 92 377.500 L 92 251 98 251 L 104 251 104 233.500 L 104 216 109.500 216 L 115 216 115 204.500 L 115 193 121 193 L 127 193 127 187.500 L 127 182 132.500 182 L 138 182 138 176 L 138 170 144 170 L 150 170 150 164.500 L 150 159 155.500 159 L 161 159 161 153 L 161 147 172.500 147 L 184 147 184 141.500 L 184 136 190 136 L 196 136 196 153 L 196 170 201.500 170 L 207 170 207 176 L 207 182 213 182 L 219 182 219 187.500 L 219 193 259.500 193 L 300 193 300 181.500 L 300 170 311.500 170 L 323 170 323 147 L 323 124 317 124 L 311 124 311 106.500 L 311 89 305.500 89 L 300 89 300 83.500 L 300 78 248 78 L 196 78 196 83.500 M 1544 141.500 L 1544 147 1572.500 147 L 1601 147 1601 141.500 L 1601 136 1572.500 136 L 1544 136 1544 141.500 M 1440 164.500 L 1440 170 1446 170 L 1452 170 1452 164.500 L 1452 159 1446 159 L 1440 159 1440 164.500 M 1463 164.500 L 1463 170 1469 170 L 1475 170 1475 164.500 L 1475 159 1469 159 L 1463 159 1463 164.500 M 1486 164.500 L 1486 170 1492 170 L 1498 170 1498 164.500 L 1498 159 1492 159 L 1486 159 1486 164.500 M 1544 164.500 L 1544 170 1572.500 170 L 1601 170 1601 164.500 L 1601 159 1572.500 159 L 1544 159 1544 164.500 M 1440 187.500 L 1440 193 1446 193 L 1452 193 1452 187.500 L 1452 182 1446 182 L 1440 182 1440 187.500 M 1463 187.500 L 1463 193 1469 193 L 1475 193 1475 187.500 L 1475 182 1469 182 L 1463 182 1463 187.500 M 1486 187.500 L 1486 193 1492 193 L 1498 193 1498 187.500 L 1498 182 1492 182 L 1486 182 1486 187.500 M 1544 187.500 L 1544 193 1567 193 L 1590 193 1590 187.500 L 1590 182 1567 182 L 1544 182 1544 187.500 M 1129 199 L 1129 205 1140.500 205 L 1152 205 1152 199 L 1152 193 1140.500 193 L 1129 193 1129 199 M 1164 199 L 1164 205 1169.500 205 L 1175 205 1175 199 L 1175 193 1169.500 193 L 1164 193 1164 199 M 1187 199 L 1187 205 1192.500 205 L 1198 205 1198 199 L 1198 193 1192.500 193 L 1187 193 1187 199 M 1613 199 L 1613 205 1624.500 205 L 1636 205 1636 199 L 1636 193 1624.500 193 L 1613 193 1613 199 M 1647 199 L 1647 205 1658.500 205 L 1670 205 1670 199 L 1670 193 1658.500 193 L 1647 193 1647 199 M 1682 199 L 1682 205 1693.500 205 L 1705 205 1705 199 L 1705 193 1693.500 193 L 1682 193 1682 199 M 1716 199 L 1716 205 1728 205 L 1740 205 1740 199 L 1740 193 1728 193 L 1716 193 1716 199 M 196 210.500 L 196 216 201.500 216 L 207 216 207 210.500 L 207 205 201.500 205 L 196 205 196 210.500 M 1394 210.500 L 1394 216 1405.500 216 L 1417 216 1417 210.500 L 1417 205 1405.500 205 L 1394 205 1394 210.500 M 1428 210.500 L 1428 216 1440 216 L 1452 216 1452 210.500 L 1452 205 1440 205 L 1428 205 1428 210.500 M 1463 210.500 L 1463 216 1480.500 216 L 1498 216 1498 210.500 L 1498 205 1480.500 205 L 1463 205 1463 210.500 M 1129 222 L 1129 228 1140.500 228 L 1152 228 1152 222 L 1152 216 1140.500 216 L 1129 216 1129 222 M 1164 222 L 1164 228 1169.500 228 L 1175 228 1175 222 L 1175 216 1169.500 216 L 1164 216 1164 222 M 1187 222 L 1187 228 1192.500 228 L 1198 228 1198 222 L 1198 216 1192.500 216 L 1187 216 1187 222 M 1394 233.500 L 1394 239 1405.500 239 L 1417 239 1417 233.500 L 1417 228 1405.500 228 L 1394 228 1394 233.500 M 1428 233.500 L 1428 239 1440 239 L 1452 239 1452 233.500 L 1452 228 1440 228 L 1428 228 1428 233.500 M 1463 233.500 L 1463 239 1480.500 239 L 1498 239 1498 233.500 L 1498 228 1480.500 228 L 1463 228 1463 233.500 M 956 245 L 956 251 967.500 251 L 979 251 979 245 L 979 239 967.500 239 L 956 239 956 245 M 991 245 L 991 251 1002.500 251 L 1014 251 1014 245 L 1014 239 1002.500 239 L 991 239 991 245 M 1129 245 L 1129 251 1140.500 251 L 1152 251 1152 245 L 1152 239 1140.500 239 L 1129 239 1129 245 M 1164 245 L 1164 251 1169.500 251 L 1175 251 1175 245 L 1175 239 1169.500 239 L 1164 239 1164 245 M 1832 245 L 1832 251 1843.500 251 L 1855 251 1855 245 L 1855 239 1843.500 239 L 1832 239 1832 245 M 1394 256.500 L 1394 262 1405.500 262 L 1417 262 1417 256.500 L 1417 251 1405.500 251 L 1394 251 1394 256.500 M 1428 256.500 L 1428 262 1440 262 L 1452 262 1452 256.500 L 1452 251 1440 251 L 1428 251 1428 256.500 M 1463 256.500 L 1463 262 1474.500 262 L 1486 262 1486 256.500 L 1486 251 1474.500 251 L 1463 251 1463 256.500 M 956 268 L 956 274 967.500 274 L 979 274 979 268 L 979 262 967.500 262 L 956 262 956 268 M 991 268 L 991 274 1002.500 274 L 1014 274 1014 268 L 1014 262 1002.500 262 L 991 262 991 268 M 1129 268 L 1129 274 1140.500 274 L 1152 274 1152 268 L 1152 262 1140.500 262 L 1129 262 1129 268 M 1164 268 L 1164 274 1175.500 274 L 1187 274 1187 268 L 1187 262 1175.500 262 L 1164 262 1164 268 M 1613 268 L 1613 274 1624.500 274 L 1636 274 1636 268 L 1636 262 1624.500 262 L 1613 262 1613 268 M 1647 268 L 1647 274 1658.500 274 L 1670 274 1670 268 L 1670 262 1658.500 262 L 1647 262 1647 268 M 1832 268 L 1832 274 1843.500 274 L 1855 274 1855 268 L 1855 262 1843.500 262 L 1832 262 1832 268 M 680 279.500 L 680 285 691.500 285 L 703 285 703 279.500 L 703 274 691.500 274 L 680 274 680 279.500 M 714 279.500 L 714 285 720 285 L 726 285 726 279.500 L 726 274 720 274 L 714 274 714 279.500 M 1509 285.500 L 1509 297 1515 297 L 1521 297 1521 285.500 L 1521 274 1515 274 L 1509 274 1509 285.500 M 956 291 L 956 297 967.500 297 L 979 297 979 291 L 979 285 967.500 285 L 956 285 956 291 M 1129 291 L 1129 297 1140.500 297 L 1152 297 1152 291 L 1152 285 1140.500 285 L 1129 285 1129 291 M 1164 291 L 1164 297 1192.500 297 L 1221 297 1221 291 L 1221 285 1192.500 285 L 1164 285 1164 291 M 1244 291 L 1244 297 1261.500 297 L 1279 297 1279 291 L 1279 285 1261.500 285 L 1244 285 1244 291 M 1290 291 L 1290 297 1296 297 L 1302 297 1302 291 L 1302 285 1296 285 L 1290 285 1290 291 M 1809 291 L 1809 297 1814.500 297 L 1820 297 1820 291 L 1820 285 1814.500 285 L 1809 285 1809 291 M 1832 291 L 1832 297 1837.500 297 L 1843 297 1843 291 L 1843 285 1837.500 285 L 1832 285 1832 291 M 1855 291 L 1855 297 1860.500 297 L 1866 297 1866 291 L 1866 285 1860.500 285 L 1855 285 1855 291 M 680 302.500 L 680 308 708.500 308 L 737 308 737 302.500 L 737 297 708.500 297 L 680 297 680 302.500 M 1613 302.500 L 1613 308 1624.500 308 L 1636 308 1636 302.500 L 1636 297 1624.500 297 L 1613 297 1613 302.500 M 956 314 L 956 320 967.500 320 L 979 320 979 314 L 979 308 967.500 308 L 956 308 956 314 M 1129 314 L 1129 320 1140.500 320 L 1152 320 1152 314 L 1152 308 1140.500 308 L 1129 308 1129 314 M 1164 314 L 1164 320 1175.500 320 L 1187 320 1187 314 L 1187 308 1175.500 308 L 1164 308 1164 314 M 1832 314 L 1832 320 1843.500 320 L 1855 320 1855 314 L 1855 308 1843.500 308 L 1832 308 1832 314 M 680 325.500 L 680 331 697 331 L 714 331 714 325.500 L 714 320 697 320 L 680 320 680 325.500 M 841 325.500 L 841 331 852.500 331 L 864 331 864 325.500 L 864 320 852.500 320 L 841 320 841 325.500 M 876 325.500 L 876 331 887.500 331 L 899 331 899 325.500 L 899 320 887.500 320 L 876 320 876 325.500 M 956 337 L 956 343 967.500 343 L 979 343 979 337 L 979 331 967.500 331 L 956 331 956 337 M 991 337 L 991 343 1002.500 343 L 1014 343 1014 337 L 1014 331 1002.500 331 L 991 331 991 337 M 1060 337 L 1060 343 1071.500 343 L 1083 343 1083 337 L 1083 331 1071.500 331 L 1060 331 1060 337 M 1094 337 L 1094 343 1105.500 343 L 1117 343 1117 337 L 1117 331 1105.500 331 L 1094 331 1094 337 M 1129 337 L 1129 343 1140.500 343 L 1152 343 1152 337 L 1152 331 1140.500 331 L 1129 331 1129 337 M 1198 337 L 1198 343 1209.500 343 L 1221 343 1221 337 L 1221 331 1209.500 331 L 1198 331 1198 337 M 1233 337 L 1233 343 1244.500 343 L 1256 343 1256 337 L 1256 331 1244.500 331 L 1233 331 1233 337 M 1428 337 L 1428 343 1440 343 L 1452 343 1452 337 L 1452 331 1440 331 L 1428 331 1428 337 M 1463 337 L 1463 343 1474.500 343 L 1486 343 1486 337 L 1486 331 1474.500 331 L 1463 331 1463 337 M 1498 337 L 1498 343 1509.500 343 L 1521 343 1521 337 L 1521 331 1509.500 331 L 1498 331 1498 337 M 1613 337 L 1613 343 1624.500 343 L 1636 343 1636 337 L 1636 331 1624.500 331 L 1613 331 1613 337 M 1647 337 L 1647 343 1658.500 343 L 1670 343 1670 337 L 1670 331 1658.500 331 L 1647 331 1647 337 M 1682 337 L 1682 343 1693.500 343 L 1705 343 1705 337 L 1705 331 1693.500 331 L 1682 331 1682 337 M 680 348.500 L 680 354 697 354 L 714 354 714 348.500 L 714 343 697 343 L 680 343 680 348.500 M 841 348.500 L 841 354 852.500 354 L 864 354 864 348.500 L 864 343 852.500 343 L 841 343 841 348.500 M 1025 360 L 1025 366 1036.500 366 L 1048 366 1048 360 L 1048 354 1036.500 354 L 1025 354 1025 360 M 1060 360 L 1060 366 1071.500 366 L 1083 366 1083 360 L 1083 354 1071.500 354 L 1060 354 1060 360 M 1094 360 L 1094 366 1105.500 366 L 1117 366 1117 360 L 1117 354 1105.500 354 L 1094 354 1094 360 M 1129 360 L 1129 366 1140.500 366 L 1152 366 1152 360 L 1152 354 1140.500 354 L 1129 354 1129 360 M 1198 360 L 1198 366 1209.500 366 L 1221 366 1221 360 L 1221 354 1209.500 354 L 1198 354 1198 360 M 1233 360 L 1233 366 1244.500 366 L 1256 366 1256 360 L 1256 354 1244.500 354 L 1233 354 1233 360 M 1267 360 L 1267 366 1278.500 366 L 1290 366 1290 360 L 1290 354 1278.500 354 L 1267 354 1267 360 M 680 371.500 L 680 377 697 377 L 714 377 714 371.500 L 714 366 697 366 L 680 366 680 371.500 M 726 371.500 L 726 377 737.500 377 L 749 377 749 371.500 L 749 366 737.500 366 L 726 366 726 371.500 M 760 371.500 L 760 377 771.500 377 L 783 377 783 371.500 L 783 366 771.500 366 L 760 366 760 371.500 M 795 371.500 L 795 377 800.500 377 L 806 377 806 371.500 L 806 366 800.500 366 L 795 366 795 371.500 M 841 371.500 L 841 377 852.500 377 L 864 377 864 371.500 L 864 366 852.500 366 L 841 366 841 371.500 M 876 371.500 L 876 377 887.500 377 L 899 377 899 371.500 L 899 366 887.500 366 L 876 366 876 371.500 M 1428 371.500 L 1428 377 1440 377 L 1452 377 1452 371.500 L 1452 366 1440 366 L 1428 366 1428 371.500 M 1463 371.500 L 1463 377 1474.500 377 L 1486 377 1486 371.500 L 1486 366 1474.500 366 L 1463 366 1463 371.500 M 1498 371.500 L 1498 377 1509.500 377 L 1521 377 1521 371.500 L 1521 366 1509.500 366 L 1498 366 1498 371.500 M 680 394.500 L 680 400 685.500 400 L 691 400 691 394.500 L 691 389 685.500 389 L 680 389 680 394.500 M 703 394.500 L 703 400 708.500 400 L 714 400 714 394.500 L 714 389 708.500 389 L 703 389 703 394.500 M 726 394.500 L 726 400 737.500 400 L 749 400 749 394.500 L 749 389 737.500 389 L 726 389 726 394.500 M 841 394.500 L 841 400 870 400 L 899 400 899 394.500 L 899 389 870 389 L 841 389 841 394.500 M 1325 394.500 L 1325 400 1330.500 400 L 1336 400 1336 394.500 L 1336 389 1330.500 389 L 1325 389 1325 394.500 M 1348 394.500 L 1348 400 1359.500 400 L 1371 400 1371 394.500 L 1371 389 1359.500 389 L 1348 389 1348 394.500 M 1613 394.500 L 1613 400 1647.500 400 L 1682 400 1682 394.500 L 1682 389 1647.500 389 L 1613 389 1613 394.500 M 968 406 L 968 412 979.500 412 L 991 412 991 406 L 991 400 979.500 400 L 968 400 968 406 M 1002 406 L 1002 412 1013.500 412 L 1025 412 1025 406 L 1025 400 1013.500 400 L 1002 400 1002 406 M 1037 406 L 1037 412 1048.500 412 L 1060 412 1060 406 L 1060 400 1048.500 400 L 1037 400 1037 406 M 1094 406 L 1094 412 1100 412 L 1106 412 1106 406 L 1106 400 1100 400 L 1094 400 1094 406 M 1117 406 L 1117 412 1128.500 412 L 1140 412 1140 406 L 1140 400 1128.500 400 L 1117 400 1117 406 M 1428 406 L 1428 412 1440 412 L 1452 412 1452 406 L 1452 400 1440 400 L 1428 400 1428 406 M 1463 406 L 1463 412 1474.500 412 L 1486 412 1486 406 L 1486 400 1474.500 400 L 1463 400 1463 406 M 588 418 L 588 424 582 424 L 576 424 576 429.500 L 576 435 582 435 L 588 435 588 441 L 588 447 593.500 447 L 599 447 599 441 L 599 435 605 435 L 611 435 611 429.500 L 611 424 605 424 L 599 424 599 418 L 599 412 593.500 412 L 588 412 588 418 M 691 418 L 691 424 702.500 424 L 714 424 714 418 L 714 412 702.500 412 L 691 412 691 418 M 726 418 L 726 424 737.500 424 L 749 424 749 418 L 749 412 737.500 412 L 726 412 726 418 M 760 418 L 760 424 766 424 L 772 424 772 418 L 772 412 766 412 L 760 412 760 418 M 806 418 L 806 424 812 424 L 818 424 818 418 L 818 412 812 412 L 806 412 806 418 M 841 418 L 841 424 864 424 L 887 424 887 429.500 L 887 435 893 435 L 899 435 899 441 L 899 447 904.500 447 L 910 447 910 441 L 910 435 916 435 L 922 435 922 429.500 L 922 424 916 424 L 910 424 910 418 L 910 412 875.500 412 L 841 412 841 418 M 1210 418 L 1210 424 1204 424 L 1198 424 1198 429.500 L 1198 435 1204 435 L 1210 435 1210 441 L 1210 447 1215.500 447 L 1221 447 1221 441 L 1221 435 1227 435 L 1233 435 1233 429.500 L 1233 424 1227 424 L 1221 424 1221 418 L 1221 412 1215.500 412 L 1210 412 1210 418 M 1728 418 L 1728 424 1739.500 424 L 1751 424 1751 418 L 1751 412 1739.500 412 L 1728 412 1728 418 M 1763 418 L 1763 424 1774.500 424 L 1786 424 1786 418 L 1786 412 1774.500 412 L 1763 412 1763 418 M 1797 418 L 1797 424 1808.500 424 L 1820 424 1820 418 L 1820 412 1808.500 412 L 1797 412 1797 418 M 1866 418 L 1866 424 1872 424 L 1878 424 1878 418 L 1878 412 1872 412 L 1866 412 1866 418 M 1889 418 L 1889 424 1895 424 L 1901 424 1901 418 L 1901 412 1895 412 L 1889 412 1889 418 M 1613 429.500 L 1613 435 1647.500 435 L 1682 435 1682 429.500 L 1682 424 1647.500 424 L 1613 424 1613 429.500 M 680 441 L 680 447 685.500 447 L 691 447 691 441 L 691 435 685.500 435 L 680 435 680 441 M 841 441 L 841 447 846.500 447 L 852 447 852 441 L 852 435 846.500 435 L 841 435 841 441 M 968 441 L 968 447 979.500 447 L 991 447 991 441 L 991 435 979.500 435 L 968 435 968 441 M 1002 441 L 1002 447 1025 447 L 1048 447 1048 441 L 1048 435 1025 435 L 1002 435 1002 441 M 1117 441 L 1117 447 1128.500 447 L 1140 447 1140 441 L 1140 435 1128.500 435 L 1117 435 1117 441 M 1152 441 L 1152 447 1163.500 447 L 1175 447 1175 441 L 1175 435 1163.500 435 L 1152 435 1152 441 M 1428 441 L 1428 447 1440 447 L 1452 447 1452 441 L 1452 435 1440 435 L 1428 435 1428 441 M 726 452.500 L 726 458 731.500 458 L 737 458 737 452.500 L 737 447 731.500 447 L 726 447 726 452.500 M 749 452.500 L 749 458 754.500 458 L 760 458 760 452.500 L 760 447 754.500 447 L 749 447 749 452.500 M 1728 458.500 L 1728 470 1739.500 470 L 1751 470 1751 458.500 L 1751 447 1739.500 447 L 1728 447 1728 458.500 M 1763 458.500 L 1763 470 1774.500 470 L 1786 470 1786 458.500 L 1786 447 1774.500 447 L 1763 447 1763 458.500 M 1797 458.500 L 1797 470 1808.500 470 L 1820 470 1820 458.500 L 1820 447 1808.500 447 L 1797 447 1797 458.500 M 1832 458.500 L 1832 470 1843.500 470 L 1855 470 1855 458.500 L 1855 447 1843.500 447 L 1832 447 1832 458.500 M 1878 458.500 L 1878 470 1883.500 470 L 1889 470 1889 458.500 L 1889 447 1883.500 447 L 1878 447 1878 458.500 M 1901 458.500 L 1901 470 1906.500 470 L 1912 470 1912 458.500 L 1912 447 1906.500 447 L 1901 447 1901 458.500 M 783 464 L 783 470 789 470 L 795 470 795 464 L 795 458 789 458 L 783 458 783 464 M 968 464 L 968 470 979.500 470 L 991 470 991 464 L 991 458 979.500 458 L 968 458 968 464 M 1002 464 L 1002 470 1013.500 470 L 1025 470 1025 464 L 1025 458 1013.500 458 L 1002 458 1002 464 M 1071 464 L 1071 470 1082.500 470 L 1094 470 1094 464 L 1094 458 1082.500 458 L 1071 458 1071 464 M 1267 464 L 1267 470 1284.500 470 L 1302 470 1302 464 L 1302 458 1284.500 458 L 1267 458 1267 464 M 1325 464 L 1325 470 1336.500 470 L 1348 470 1348 464 L 1348 458 1336.500 458 L 1325 458 1325 464 M 0.310 475.500 C 0.315 478.800, 0.502 480.029, 0.725 478.232 C 0.947 476.435, 0.943 473.735, 0.715 472.232 C 0.486 470.729, 0.304 472.200, 0.310 475.500 M 726 475.500 L 726 481 731.500 481 L 737 481 737 475.500 L 737 470 731.500 470 L 726 470 726 475.500 M 749 475.500 L 749 481 754.500 481 L 760 481 760 475.500 L 760 470 754.500 470 L 749 470 749 475.500 M 1428 475.500 L 1428 481 1440 481 L 1452 481 1452 475.500 L 1452 470 1440 470 L 1428 470 1428 475.500 M 253 515.500 L 253 550 259 550 L 265 550 265 515.500 L 265 481 259 481 L 253 481 253 515.500 M 1002 487 L 1002 493 1013.500 493 L 1025 493 1025 487 L 1025 481 1013.500 481 L 1002 481 1002 487 M 1071 487 L 1071 493 1082.500 493 L 1094 493 1094 487 L 1094 481 1082.500 481 L 1071 481 1071 487 M 1763 492.500 L 1763 504 1774.500 504 L 1786 504 1786 492.500 L 1786 481 1774.500 481 L 1763 481 1763 492.500 M 1797 492.500 L 1797 504 1808.500 504 L 1820 504 1820 492.500 L 1820 481 1808.500 481 L 1797 481 1797 492.500 M 1832 492.500 L 1832 504 1843.500 504 L 1855 504 1855 492.500 L 1855 481 1843.500 481 L 1832 481 1832 492.500 M 1878 492.500 L 1878 504 1883.500 504 L 1889 504 1889 492.500 L 1889 481 1883.500 481 L 1878 481 1878 492.500 M 1901 492.500 L 1901 504 1906.500 504 L 1912 504 1912 492.500 L 1912 481 1906.500 481 L 1901 481 1901 492.500 M 230 498.500 L 230 504 218.500 504 L 207 504 207 533 L 207 562 213 562 L 219 562 219 567.500 L 219 573 224.500 573 L 230 573 230 567.500 L 230 562 236 562 L 242 562 242 527.500 L 242 493 236 493 L 230 493 230 498.500 M 300 521.500 L 300 550 311.500 550 L 323 550 323 521.500 L 323 493 311.500 493 L 300 493 300 521.500 M 726 498.500 L 726 504 731.500 504 L 737 504 737 498.500 L 737 493 731.500 493 L 726 493 726 498.500 M 749 498.500 L 749 504 754.500 504 L 760 504 760 498.500 L 760 493 754.500 493 L 749 493 749 498.500 M 783 498.500 L 783 504 789 504 L 795 504 795 498.500 L 795 493 789 493 L 783 493 783 498.500 M 1279 498.500 L 1279 504 1290.500 504 L 1302 504 1302 498.500 L 1302 493 1290.500 493 L 1279 493 1279 498.500 M 1325 498.500 L 1325 504 1336.500 504 L 1348 504 1348 498.500 L 1348 493 1336.500 493 L 1325 493 1325 498.500 M 35 527 L 35 550 29 550 L 23 550 23 556 L 23 562 29 562 L 35 562 35 567.500 L 35 573 40.500 573 L 46 573 46 567.500 L 46 562 52 562 L 58 562 58 539 L 58 516 52 516 L 46 516 46 510 L 46 504 40.500 504 L 35 504 35 527 M 334 533 L 334 562 340 562 L 346 562 346 567.500 L 346 573 351.500 573 L 357 573 357 538.500 L 357 504 345.500 504 L 334 504 334 533 M 645 533 L 645 562 651 562 L 657 562 657 567.500 L 657 573 662.500 573 L 668 573 668 567.500 L 668 562 674 562 L 680 562 680 556 L 680 550 674 550 L 668 550 668 544.500 L 668 539 662.500 539 L 657 539 657 533 L 657 527 662.500 527 L 668 527 668 515.500 L 668 504 656.500 504 L 645 504 645 533 M 92 533 L 92 550 98 550 L 104 550 104 533 L 104 516 98 516 L 92 516 92 533 M 115 533 L 115 550 132.500 550 L 150 550 150 533 L 150 516 132.500 516 L 115 516 115 533 M 161 533 L 161 550 178.500 550 L 196 550 196 533 L 196 516 178.500 516 L 161 516 161 533 M 449 527.500 L 449 539 455 539 L 461 539 461 527.500 L 461 516 455 516 L 449 516 449 527.500 M 472 533 L 472 550 489.500 550 L 507 550 507 533 L 507 516 489.500 516 L 472 516 472 533 M 749 521.500 L 749 527 754.500 527 L 760 527 760 521.500 L 760 516 754.500 516 L 749 516 749 521.500 M 1832 527.500 L 1832 539 1843.500 539 L 1855 539 1855 527.500 L 1855 516 1843.500 516 L 1832 516 1832 527.500 M 1279 533 L 1279 539 1290.500 539 L 1302 539 1302 533 L 1302 527 1290.500 527 L 1279 527 1279 533 M 1325 533 L 1325 539 1336.500 539 L 1348 539 1348 533 L 1348 527 1336.500 527 L 1325 527 1325 533 M 530 544.500 L 530 550 524 550 L 518 550 518 556 L 518 562 524 562 L 530 562 530 567.500 L 530 573 535.500 573 L 541 573 541 567.500 L 541 562 547 562 L 553 562 553 556 L 553 550 547 550 L 541 550 541 544.500 L 541 539 535.500 539 L 530 539 530 544.500 M 749 544.500 L 749 550 754.500 550 L 760 550 760 544.500 L 760 539 754.500 539 L 749 539 749 544.500 M 841 544.500 L 841 550 835 550 L 829 550 829 556 L 829 562 835 562 L 841 562 841 567.500 L 841 573 846.500 573 L 852 573 852 567.500 L 852 562 858 562 L 864 562 864 556 L 864 550 858 550 L 852 550 852 544.500 L 852 539 846.500 539 L 841 539 841 544.500 M 968 544.500 L 968 550 962 550 L 956 550 956 556 L 956 562 962 562 L 968 562 968 567.500 L 968 573 973.500 573 L 979 573 979 567.500 L 979 562 985 562 L 991 562 991 556 L 991 550 985 550 L 979 550 979 544.500 L 979 539 973.500 539 L 968 539 968 544.500 M 1152 544.500 L 1152 550 1146 550 L 1140 550 1140 556 L 1140 562 1146 562 L 1152 562 1152 567.500 L 1152 573 1146 573 L 1140 573 1140 579 L 1140 585 1134.500 585 L 1129 585 1129 590.500 L 1129 596 1134.500 596 L 1140 596 1140 602 L 1140 608 1146 608 L 1152 608 1152 602 L 1152 596 1158 596 L 1164 596 1164 590.500 L 1164 585 1158 585 L 1152 585 1152 579 L 1152 573 1158 573 L 1164 573 1164 567.500 L 1164 562 1169.500 562 L 1175 562 1175 556 L 1175 550 1169.500 550 L 1164 550 1164 544.500 L 1164 539 1158 539 L 1152 539 1152 544.500 M 0.413 567.500 C 0.414 577.400, 0.564 581.315, 0.746 576.199 C 0.928 571.084, 0.927 562.984, 0.744 558.199 C 0.561 553.415, 0.412 557.600, 0.413 567.500 M 426 567.500 L 426 585 432 585 L 438 585 438 590.500 L 438 596 443.500 596 L 449 596 449 613.500 L 449 631 455 631 L 461 631 461 636.500 L 461 642 466.500 642 L 472 642 472 648 L 472 654 489.500 654 L 507 654 507 659.500 L 507 665 512.500 665 L 518 665 518 648 L 518 631 524 631 L 530 631 530 625 L 530 619 512.500 619 L 495 619 495 613.500 L 495 608 506.500 608 L 518 608 518 596.500 L 518 585 478 585 L 438 585 438 567.500 L 438 550 432 550 L 426 550 426 567.500 M 1083 579 L 1083 585 1077 585 L 1071 585 1071 590.500 L 1071 596 1077 596 L 1083 596 1083 602 L 1083 608 1088.500 608 L 1094 608 1094 602 L 1094 596 1100 596 L 1106 596 1106 590.500 L 1106 585 1100 585 L 1094 585 1094 579 L 1094 573 1088.500 573 L 1083 573 1083 579 M 1233 579 L 1233 585 1227 585 L 1221 585 1221 590.500 L 1221 596 1227 596 L 1233 596 1233 602 L 1233 608 1238.500 608 L 1244 608 1244 602 L 1244 596 1250 596 L 1256 596 1256 590.500 L 1256 585 1250 585 L 1244 585 1244 579 L 1244 573 1238.500 573 L 1233 573 1233 579 M 1290 579 L 1290 585 1284.500 585 L 1279 585 1279 590.500 L 1279 596 1284.500 596 L 1290 596 1290 602 L 1290 608 1296 608 L 1302 608 1302 602 L 1302 596 1307.500 596 L 1313 596 1313 590.500 L 1313 585 1307.500 585 L 1302 585 1302 579 L 1302 573 1296 573 L 1290 573 1290 579 M 1371 579 L 1371 585 1365 585 L 1359 585 1359 590.500 L 1359 596 1365 596 L 1371 596 1371 602 L 1371 608 1376.500 608 L 1382 608 1382 602 L 1382 596 1388 596 L 1394 596 1394 590.500 L 1394 585 1388 585 L 1382 585 1382 579 L 1382 573 1376.500 573 L 1371 573 1371 579 M 1452 579 L 1452 585 1446 585 L 1440 585 1440 590.500 L 1440 596 1446 596 L 1452 596 1452 602 L 1452 608 1457.500 608 L 1463 608 1463 602 L 1463 596 1469 596 L 1475 596 1475 590.500 L 1475 585 1469 585 L 1463 585 1463 579 L 1463 573 1457.500 573 L 1452 573 1452 579 M 1544 579 L 1544 585 1538 585 L 1532 585 1532 590.500 L 1532 596 1538 596 L 1544 596 1544 602 L 1544 608 1549.500 608 L 1555 608 1555 602 L 1555 596 1561 596 L 1567 596 1567 590.500 L 1567 585 1561 585 L 1555 585 1555 579 L 1555 573 1549.500 573 L 1544 573 1544 579 M 1636 579 L 1636 585 1630 585 L 1624 585 1624 590.500 L 1624 596 1630 596 L 1636 596 1636 602 L 1636 608 1641.500 608 L 1647 608 1647 602 L 1647 596 1653 596 L 1659 596 1659 590.500 L 1659 585 1653 585 L 1647 585 1647 579 L 1647 573 1641.500 573 L 1636 573 1636 579 M 1751 579 L 1751 585 1745.500 585 L 1740 585 1740 590.500 L 1740 596 1745.500 596 L 1751 596 1751 602 L 1751 608 1757 608 L 1763 608 1763 602 L 1763 596 1768.500 596 L 1774 596 1774 590.500 L 1774 585 1768.500 585 L 1763 585 1763 579 L 1763 573 1757 573 L 1751 573 1751 579 M 1855 579 L 1855 585 1849 585 L 1843 585 1843 590.500 L 1843 596 1849 596 L 1855 596 1855 602 L 1855 608 1860.500 608 L 1866 608 1866 602 L 1866 596 1872 596 L 1878 596 1878 590.500 L 1878 585 1872 585 L 1866 585 1866 579 L 1866 573 1860.500 573 L 1855 573 1855 579 M 92 619.500 L 92 654 178.500 654 L 265 654 265 619.500 L 265 585 178.500 585 L 92 585 92 619.500 M 300 613.500 L 300 642 305.500 642 L 311 642 311 636.500 L 311 631 317 631 L 323 631 323 625 L 323 619 334.500 619 L 346 619 346 607.500 L 346 596 340 596 L 334 596 334 590.500 L 334 585 317 585 L 300 585 300 613.500 M 484 625 L 484 631 478 631 L 472 631 472 636.500 L 472 642 478 642 L 484 642 484 636.500 L 484 631 489.500 631 L 495 631 495 625 L 495 619 489.500 619 L 484 619 484 625 M 1590 636.500 L 1590 642 1601.500 642 L 1613 642 1613 636.500 L 1613 631 1601.500 631 L 1590 631 1590 636.500 M 1624 636.500 L 1624 642 1641.500 642 L 1659 642 1659 636.500 L 1659 631 1641.500 631 L 1624 631 1624 636.500 M 1670 636.500 L 1670 642 1681.500 642 L 1693 642 1693 636.500 L 1693 631 1681.500 631 L 1670 631 1670 636.500 M 1705 636.500 L 1705 642 1710.500 642 L 1716 642 1716 636.500 L 1716 631 1710.500 631 L 1705 631 1705 636.500 M 1728 636.500 L 1728 642 1734 642 L 1740 642 1740 636.500 L 1740 631 1734 631 L 1728 631 1728 636.500 M 1763 636.500 L 1763 642 1768.500 642 L 1774 642 1774 636.500 L 1774 631 1768.500 631 L 1763 631 1763 636.500 M 1797 636.500 L 1797 642 1803 642 L 1809 642 1809 636.500 L 1809 631 1803 631 L 1797 631 1797 636.500 M 1843 636.500 L 1843 642 1849 642 L 1855 642 1855 636.500 L 1855 631 1849 631 L 1843 631 1843 636.500 M 0.491 867 C 0.491 984.425, 0.607 1032.462, 0.750 973.750 C 0.892 915.037, 0.892 818.962, 0.750 760.250 C 0.607 701.537, 0.491 749.575, 0.491 867 M 645 895.500 L 645 907 651 907 L 657 907 657 895.500 L 657 884 651 884 L 645 884 645 895.500" stroke="none" fill="black" fill-rule="evenodd"/>
	<path fill-opacity="0.560" d="M 196 83.500 L 196 89 184.500 89 L 173 89 173 95 L 173 101 161.500 101 L 150 101 150 106.500 L 150 112 144 112 L 138 112 138 118 L 138 124 132.500 124 L 127 124 127 130 L 127 136 121 136 L 115 136 115 141.500 L 115 147 109.500 147 L 104 147 104 153 L 104 159 98 159 L 92 159 92 170.500 L 92 182 86.500 182 L 81 182 81 193.500 L 81 205 75 205 L 69 205 69 216.500 L 69 228 63.500 228 L 58 228 58 360.500 L 58 493 46.500 493 L 35 493 35 487 L 35 481 29 481 L 23 481 23 475.500 L 23 470 11.500 470 L 0 470 0 475.500 L 0 481 6 481 L 12 481 12 487 L 12 493 17.500 493 L 23 493 23 521.500 L 23 550 11.500 550 L 0 550 0 556 L 0 562 11.500 562 L 23 562 23 567.500 L 23 573 11.500 573 L 0 573 0 579 L 0 585 29 585 L 58 585 58 619.500 L 58 654 29 654 L 0 654 0 867.001 L 0 1080.001 960.250 1079.751 L 1920.500 1079.500 1920.500 779 C 1920.500 613.725, 1920.329 466.238, 1920.119 451.250 L 1919.738 424 1915.869 424 L 1912 424 1912 412 L 1912 400 1889 400 L 1866 400 1866 388.500 L 1866 377 1860.500 377 L 1855 377 1855 360 L 1855 343 1832 343 L 1809 343 1809 285.500 L 1809 228 1843.500 228 L 1878 228 1878 222 L 1878 216 1826 216 L 1774 216 1774 222 L 1774 228 1768.500 228 L 1763 228 1763 256.500 L 1763 285 1780 285 L 1797 285 1797 291 L 1797 297 1780 297 L 1763 297 1763 320 L 1763 343 1757 343 L 1751 343 1751 251 L 1751 159 1739.500 159 L 1728 159 1728 141.500 L 1728 124 1722 124 L 1716 124 1716 141.500 L 1716 159 1658.500 159 L 1601 159 1601 222 L 1601 285 1578 285 L 1555 285 1555 325.500 L 1555 366 1549.500 366 L 1544 366 1544 331.500 L 1544 297 1538 297 L 1532 297 1532 279.500 L 1532 262 1463 262 L 1394 262 1394 256.500 L 1394 251 1440 251 L 1486 251 1486 245 L 1486 239 1440 239 L 1394 239 1394 233.500 L 1394 228 1440 228 L 1486 228 1486 222 L 1486 216 1440 216 L 1394 216 1394 210.500 L 1394 205 1440 205 L 1486 205 1486 199 L 1486 193 1434 193 L 1382 193 1382 245 L 1382 297 1353.500 297 L 1325 297 1325 331.500 L 1325 366 1353.500 366 L 1382 366 1382 400.500 L 1382 435 1347.500 435 L 1313 435 1313 366 L 1313 297 1273 297 L 1233 297 1233 291 L 1233 285 1273 285 L 1313 285 1313 273.500 L 1313 262 1307.500 262 L 1302 262 1302 256.500 L 1302 251 1296 251 L 1290 251 1290 239.500 L 1290 228 1296 228 L 1302 228 1302 222 L 1302 216 1284.500 216 L 1267 216 1267 222 L 1267 228 1273 228 L 1279 228 1279 239.500 L 1279 251 1238.500 251 L 1198 251 1198 256.500 L 1198 262 1192.500 262 L 1187 262 1187 273.500 L 1187 285 1204 285 L 1221 285 1221 291 L 1221 297 1204 297 L 1187 297 1187 331.500 L 1187 366 1071.500 366 L 956 366 956 377.500 L 956 389 950.500 389 L 945 389 945 435 L 945 481 939 481 L 933 481 933 394.500 L 933 308 927.500 308 L 922 308 922 302.500 L 922 297 881.500 297 L 841 297 841 302.500 L 841 308 835 308 L 829 308 829 354 L 829 400 800.500 400 L 772 400 772 417.500 L 772 435 743 435 L 714 435 714 469.500 L 714 504 691 504 L 668 504 668 498.500 L 668 493 656.500 493 L 645 493 645 487 L 645 481 633.500 481 L 622 481 622 475.500 L 622 470 616.500 470 L 611 470 611 458.500 L 611 447 593.500 447 L 576 447 576 458.500 L 576 470 564.500 470 L 553 470 553 475.500 L 553 481 541.500 481 L 530 481 530 487 L 530 493 518.500 493 L 507 493 507 498.500 L 507 504 472.500 504 L 438 504 438 498.500 L 438 493 403.500 493 L 369 493 369 498.500 L 369 504 363 504 L 357 504 357 498.500 L 357 493 345.500 493 L 334 493 334 487 L 334 481 322.500 481 L 311 481 311 475.500 L 311 470 305.500 470 L 300 470 300 458.500 L 300 447 282.500 447 L 265 447 265 458.500 L 265 470 253.500 470 L 242 470 242 475.500 L 242 481 236 481 L 230 481 230 487 L 230 493 213 493 L 196 493 196 498.500 L 196 504 144 504 L 92 504 92 377.500 L 92 251 98 251 L 104 251 104 233.500 L 104 216 109.500 216 L 115 216 115 204.500 L 115 193 121 193 L 127 193 127 187.500 L 127 182 132.500 182 L 138 182 138 176 L 138 170 144 170 L 150 170 150 164.500 L 150 159 155.500 159 L 161 159 161 153 L 161 147 172.500 147 L 184 147 184 141.500 L 184 136 190 136 L 196 136 196 124 L 196 112 253.500 112 L 311 112 311 100.500 L 311 89 305.500 89 L 300 89 300 83.500 L 300 78 248 78 L 196 78 196 83.500 M 1567 112.500 L 1567 124 1584 124 L 1601 124 1601 112.500 L 1601 101 1584 101 L 1567 101 1567 112.500 M 230 141.500 L 230 159 259 159 L 288 159 288 153 L 288 147 294 147 L 300 147 300 135.500 L 300 124 265 124 L 230 124 230 141.500 M 1129 153 L 1129 159 1163.500 159 L 1198 159 1198 153 L 1198 147 1163.500 147 L 1129 147 1129 153 M 1613 199 L 1613 205 1624.500 205 L 1636 205 1636 199 L 1636 193 1624.500 193 L 1613 193 1613 199 M 1647 199 L 1647 205 1658.500 205 L 1670 205 1670 199 L 1670 193 1658.500 193 L 1647 193 1647 199 M 1682 199 L 1682 205 1693.500 205 L 1705 205 1705 199 L 1705 193 1693.500 193 L 1682 193 1682 199 M 1716 199 L 1716 205 1728 205 L 1740 205 1740 199 L 1740 193 1728 193 L 1716 193 1716 199 M 1613 268 L 1613 274 1624.500 274 L 1636 274 1636 268 L 1636 262 1624.500 262 L 1613 262 1613 268 M 1647 268 L 1647 274 1658.500 274 L 1670 274 1670 268 L 1670 262 1658.500 262 L 1647 262 1647 268 M 1394 279.500 L 1394 285 1411 285 L 1428 285 1428 279.500 L 1428 274 1411 274 L 1394 274 1394 279.500 M 1486 285.500 L 1486 297 1492 297 L 1498 297 1498 285.500 L 1498 274 1492 274 L 1486 274 1486 285.500 M 1509 285.500 L 1509 297 1515 297 L 1521 297 1521 285.500 L 1521 274 1515 274 L 1509 274 1509 285.500 M 1613 302.500 L 1613 308 1624.500 308 L 1636 308 1636 302.500 L 1636 297 1624.500 297 L 1613 297 1613 302.500 M 841 325.500 L 841 331 852.500 331 L 864 331 864 325.500 L 864 320 852.500 320 L 841 320 841 325.500 M 876 325.500 L 876 331 887.500 331 L 899 331 899 325.500 L 899 320 887.500 320 L 876 320 876 325.500 M 1336 325.500 L 1336 331 1342 331 L 1348 331 1348 325.500 L 1348 320 1342 320 L 1336 320 1336 325.500 M 1359 325.500 L 1359 331 1365 331 L 1371 331 1371 325.500 L 1371 320 1365 320 L 1359 320 1359 325.500 M 1198 337 L 1198 343 1232.500 343 L 1267 343 1267 337 L 1267 331 1232.500 331 L 1198 331 1198 337 M 1290 337 L 1290 343 1296 343 L 1302 343 1302 337 L 1302 331 1296 331 L 1290 331 1290 337 M 1428 337 L 1428 343 1440 343 L 1452 343 1452 337 L 1452 331 1440 331 L 1428 331 1428 337 M 1463 337 L 1463 343 1474.500 343 L 1486 343 1486 337 L 1486 331 1474.500 331 L 1463 331 1463 337 M 1498 337 L 1498 343 1509.500 343 L 1521 343 1521 337 L 1521 331 1509.500 331 L 1498 331 1498 337 M 1613 337 L 1613 343 1624.500 343 L 1636 343 1636 337 L 1636 331 1624.500 331 L 1613 331 1613 337 M 1647 337 L 1647 343 1658.500 343 L 1670 343 1670 337 L 1670 331 1658.500 331 L 1647 331 1647 337 M 1682 337 L 1682 343 1693.500 343 L 1705 343 1705 337 L 1705 331 1693.500 331 L 1682 331 1682 337 M 841 348.500 L 841 354 852.500 354 L 864 354 864 348.500 L 864 343 852.500 343 L 841 343 841 348.500 M 1336 348.500 L 1336 354 1342 354 L 1348 354 1348 348.500 L 1348 343 1342 343 L 1336 343 1336 348.500 M 1359 348.500 L 1359 354 1365 354 L 1371 354 1371 348.500 L 1371 343 1365 343 L 1359 343 1359 348.500 M 1198 360 L 1198 366 1244 366 L 1290 366 1290 360 L 1290 354 1244 354 L 1198 354 1198 360 M 1809 365.500 L 1809 377 1814.500 377 L 1820 377 1820 365.500 L 1820 354 1814.500 354 L 1809 354 1809 365.500 M 1832 365.500 L 1832 377 1837.500 377 L 1843 377 1843 365.500 L 1843 354 1837.500 354 L 1832 354 1832 365.500 M 841 371.500 L 841 377 870 377 L 899 377 899 371.500 L 899 366 870 366 L 841 366 841 371.500 M 1428 371.500 L 1428 377 1440 377 L 1452 377 1452 371.500 L 1452 366 1440 366 L 1428 366 1428 371.500 M 1463 371.500 L 1463 377 1474.500 377 L 1486 377 1486 371.500 L 1486 366 1474.500 366 L 1463 366 1463 371.500 M 1498 371.500 L 1498 377 1509.500 377 L 1521 377 1521 371.500 L 1521 366 1509.500 366 L 1498 366 1498 371.500 M 841 394.500 L 841 400 870 400 L 899 400 899 394.500 L 899 389 870 389 L 841 389 841 394.500 M 1613 394.500 L 1613 400 1647.500 400 L 1682 400 1682 394.500 L 1682 389 1647.500 389 L 1613 389 1613 394.500 M 968 406 L 968 412 1014 412 L 1060 412 1060 406 L 1060 400 1014 400 L 968 400 968 406 M 1094 406 L 1094 412 1117 412 L 1140 412 1140 406 L 1140 400 1117 400 L 1094 400 1094 406 M 1428 406 L 1428 412 1440 412 L 1452 412 1452 406 L 1452 400 1440 400 L 1428 400 1428 406 M 1463 406 L 1463 412 1474.500 412 L 1486 412 1486 406 L 1486 400 1474.500 400 L 1463 400 1463 406 M 1498 406 L 1498 412 1509.500 412 L 1521 412 1521 406 L 1521 400 1509.500 400 L 1498 400 1498 406 M 783 418 L 783 424 789 424 L 795 424 795 418 L 795 412 789 412 L 783 412 783 418 M 806 418 L 806 424 812 424 L 818 424 818 418 L 818 412 812 412 L 806 412 806 418 M 841 418 L 841 424 864 424 L 887 424 887 429.500 L 887 435 881.500 435 L 876 435 876 441 L 876 447 893 447 L 910 447 910 441 L 910 435 916 435 L 922 435 922 429.500 L 922 424 916 424 L 910 424 910 418 L 910 412 875.500 412 L 841 412 841 418 M 1210 418 L 1210 424 1204 424 L 1198 424 1198 429.500 L 1198 435 1204 435 L 1210 435 1210 441 L 1210 447 1215.500 447 L 1221 447 1221 441 L 1221 435 1227 435 L 1233 435 1233 429.500 L 1233 424 1227 424 L 1221 424 1221 418 L 1221 412 1215.500 412 L 1210 412 1210 418 M 1728 418 L 1728 424 1739.500 424 L 1751 424 1751 418 L 1751 412 1739.500 412 L 1728 412 1728 418 M 1763 418 L 1763 424 1774.500 424 L 1786 424 1786 418 L 1786 412 1774.500 412 L 1763 412 1763 418 M 1797 418 L 1797 424 1808.500 424 L 1820 424 1820 418 L 1820 412 1808.500 412 L 1797 412 1797 418 M 1832 418 L 1832 424 1843.500 424 L 1855 424 1855 418 L 1855 412 1843.500 412 L 1832 412 1832 418 M 1866 418 L 1866 424 1872 424 L 1878 424 1878 418 L 1878 412 1872 412 L 1866 412 1866 418 M 1889 418 L 1889 424 1895 424 L 1901 424 1901 418 L 1901 412 1895 412 L 1889 412 1889 418 M 1613 429.500 L 1613 435 1647.500 435 L 1682 435 1682 429.500 L 1682 424 1647.500 424 L 1613 424 1613 429.500 M 783 441 L 783 447 789 447 L 795 447 795 441 L 795 435 789 435 L 783 435 783 441 M 841 441 L 841 447 852.500 447 L 864 447 864 441 L 864 435 852.500 435 L 841 435 841 441 M 968 441 L 968 447 1019.500 447 L 1071 447 1071 441 L 1071 435 1019.500 435 L 968 435 968 441 M 1106 441 L 1106 447 1140.500 447 L 1175 447 1175 441 L 1175 435 1140.500 435 L 1106 435 1106 441 M 1428 441 L 1428 447 1440 447 L 1452 447 1452 441 L 1452 435 1440 435 L 1428 435 1428 441 M 1463 441 L 1463 447 1474.500 447 L 1486 447 1486 441 L 1486 435 1474.500 435 L 1463 435 1463 441 M 1498 441 L 1498 447 1509.500 447 L 1521 447 1521 441 L 1521 435 1509.500 435 L 1498 435 1498 441 M 726 452.500 L 726 458 743 458 L 760 458 760 452.500 L 760 447 743 447 L 726 447 726 452.500 M 1728 458.500 L 1728 470 1739.500 470 L 1751 470 1751 458.500 L 1751 447 1739.500 447 L 1728 447 1728 458.500 M 1763 458.500 L 1763 470 1774.500 470 L 1786 470 1786 458.500 L 1786 447 1774.500 447 L 1763 447 1763 458.500 M 1797 458.500 L 1797 470 1808.500 470 L 1820 470 1820 458.500 L 1820 447 1808.500 447 L 1797 447 1797 458.500 M 1832 458.500 L 1832 470 1843.500 470 L 1855 470 1855 458.500 L 1855 447 1843.500 447 L 1832 447 1832 458.500 M 1878 458.500 L 1878 470 1883.500 470 L 1889 470 1889 458.500 L 1889 447 1883.500 447 L 1878 447 1878 458.500 M 1901 458.500 L 1901 470 1906.500 470 L 1912 470 1912 458.500 L 1912 447 1906.500 447 L 1901 447 1901 458.500 M 783 464 L 783 470 789 470 L 795 470 795 464 L 795 458 789 458 L 783 458 783 464 M 841 464 L 841 470 852.500 470 L 864 470 864 464 L 864 458 852.500 458 L 841 458 841 464 M 968 464 L 968 470 1008 470 L 1048 470 1048 464 L 1048 458 1008 458 L 968 458 968 464 M 1071 464 L 1071 470 1088.500 470 L 1106 470 1106 464 L 1106 458 1088.500 458 L 1071 458 1071 464 M 1267 464 L 1267 470 1284.500 470 L 1302 470 1302 464 L 1302 458 1284.500 458 L 1267 458 1267 464 M 1313 464 L 1313 470 1336 470 L 1359 470 1359 464 L 1359 458 1336 458 L 1313 458 1313 464 M 0.310 475.500 C 0.315 478.800, 0.502 480.029, 0.725 478.232 C 0.947 476.435, 0.943 473.735, 0.715 472.232 C 0.486 470.729, 0.304 472.200, 0.310 475.500 M 726 475.500 L 726 481 743 481 L 760 481 760 475.500 L 760 470 743 470 L 726 470 726 475.500 M 806 475.500 L 806 481 812 481 L 818 481 818 475.500 L 818 470 812 470 L 806 470 806 475.500 M 1428 475.500 L 1428 481 1440 481 L 1452 481 1452 475.500 L 1452 470 1440 470 L 1428 470 1428 475.500 M 253 515.500 L 253 550 259 550 L 265 550 265 515.500 L 265 481 259 481 L 253 481 253 515.500 M 564 515.500 L 564 550 570 550 L 576 550 576 515.500 L 576 481 570 481 L 564 481 564 515.500 M 1002 487 L 1002 493 1019.500 493 L 1037 493 1037 487 L 1037 481 1019.500 481 L 1002 481 1002 487 M 1071 487 L 1071 493 1088.500 493 L 1106 493 1106 487 L 1106 481 1088.500 481 L 1071 481 1071 487 M 1763 492.500 L 1763 504 1774.500 504 L 1786 504 1786 492.500 L 1786 481 1774.500 481 L 1763 481 1763 492.500 M 1797 492.500 L 1797 504 1808.500 504 L 1820 504 1820 492.500 L 1820 481 1808.500 481 L 1797 481 1797 492.500 M 1832 492.500 L 1832 504 1843.500 504 L 1855 504 1855 492.500 L 1855 481 1843.500 481 L 1832 481 1832 492.500 M 1878 492.500 L 1878 504 1883.500 504 L 1889 504 1889 492.500 L 1889 481 1883.500 481 L 1878 481 1878 492.500 M 1901 492.500 L 1901 504 1906.500 504 L 1912 504 1912 492.500 L 1912 481 1906.500 481 L 1901 481 1901 492.500 M 230 498.500 L 230 504 218.500 504 L 207 504 207 533 L 207 562 213 562 L 219 562 219 567.500 L 219 573 230.500 573 L 242 573 242 533 L 242 493 236 493 L 230 493 230 498.500 M 300 521.500 L 300 550 311.500 550 L 323 550 323 521.500 L 323 493 311.500 493 L 300 493 300 521.500 M 541 498.500 L 541 504 529.500 504 L 518 504 518 533 L 518 562 524 562 L 530 562 530 567.500 L 530 573 541.500 573 L 553 573 553 533 L 553 493 547 493 L 541 493 541 498.500 M 611 521.500 L 611 550 622.500 550 L 634 550 634 521.500 L 634 493 622.500 493 L 611 493 611 521.500 M 726 498.500 L 726 504 743 504 L 760 504 760 498.500 L 760 493 743 493 L 726 493 726 498.500 M 783 498.500 L 783 504 789 504 L 795 504 795 498.500 L 795 493 789 493 L 783 493 783 498.500 M 1279 498.500 L 1279 504 1290.500 504 L 1302 504 1302 498.500 L 1302 493 1290.500 493 L 1279 493 1279 498.500 M 1325 498.500 L 1325 504 1342 504 L 1359 504 1359 498.500 L 1359 493 1342 493 L 1325 493 1325 498.500 M 35 527 L 35 550 29 550 L 23 550 23 556 L 23 562 29 562 L 35 562 35 567.500 L 35 573 46.500 573 L 58 573 58 544.500 L 58 516 52 516 L 46 516 46 510 L 46 504 40.500 504 L 35 504 35 527 M 334 533 L 334 562 340 562 L 346 562 346 567.500 L 346 573 351.500 573 L 357 573 357 538.500 L 357 504 345.500 504 L 334 504 334 533 M 645 533 L 645 562 651 562 L 657 562 657 567.500 L 657 573 662.500 573 L 668 573 668 567.500 L 668 562 674 562 L 680 562 680 556 L 680 550 674 550 L 668 550 668 544.500 L 668 539 662.500 539 L 657 539 657 533 L 657 527 668.500 527 L 680 527 680 521.500 L 680 516 674 516 L 668 516 668 510 L 668 504 656.500 504 L 645 504 645 533 M 92 533 L 92 550 98 550 L 104 550 104 533 L 104 516 98 516 L 92 516 92 533 M 115 533 L 115 550 132.500 550 L 150 550 150 533 L 150 516 132.500 516 L 115 516 115 533 M 161 533 L 161 550 178.500 550 L 196 550 196 533 L 196 516 178.500 516 L 161 516 161 533 M 449 527.500 L 449 539 455 539 L 461 539 461 527.500 L 461 516 455 516 L 449 516 449 527.500 M 472 533 L 472 550 489.500 550 L 507 550 507 533 L 507 516 489.500 516 L 472 516 472 533 M 691 521.500 L 691 527 702.500 527 L 714 527 714 521.500 L 714 516 702.500 516 L 691 516 691 521.500 M 737 521.500 L 737 527 748.500 527 L 760 527 760 521.500 L 760 516 748.500 516 L 737 516 737 521.500 M 1832 527.500 L 1832 539 1843.500 539 L 1855 539 1855 527.500 L 1855 516 1843.500 516 L 1832 516 1832 527.500 M 1279 533 L 1279 539 1290.500 539 L 1302 539 1302 533 L 1302 527 1290.500 527 L 1279 527 1279 533 M 1313 533 L 1313 539 1336 539 L 1359 539 1359 533 L 1359 527 1336 527 L 1313 527 1313 533 M 737 544.500 L 737 550 748.500 550 L 760 550 760 544.500 L 760 539 748.500 539 L 737 539 737 544.500 M 841 544.500 L 841 550 835 550 L 829 550 829 556 L 829 562 835 562 L 841 562 841 567.500 L 841 573 846.500 573 L 852 573 852 567.500 L 852 562 858 562 L 864 562 864 556 L 864 550 858 550 L 852 550 852 544.500 L 852 539 846.500 539 L 841 539 841 544.500 M 968 544.500 L 968 550 962 550 L 956 550 956 556 L 956 562 962 562 L 968 562 968 567.500 L 968 573 973.500 573 L 979 573 979 567.500 L 979 562 985 562 L 991 562 991 556 L 991 550 985 550 L 979 550 979 544.500 L 979 539 973.500 539 L 968 539 968 544.500 M 1152 544.500 L 1152 550 1146 550 L 1140 550 1140 556 L 1140 562 1146 562 L 1152 562 1152 567.500 L 1152 573 1146 573 L 1140 573 1140 579 L 1140 585 1134.500 585 L 1129 585 1129 590.500 L 1129 596 1134.500 596 L 1140 596 1140 602 L 1140 608 1146 608 L 1152 608 1152 602 L 1152 596 1158 596 L 1164 596 1164 590.500 L 1164 585 1158 585 L 1152 585 1152 579 L 1152 573 1158 573 L 1164 573 1164 567.500 L 1164 562 1169.500 562 L 1175 562 1175 556 L 1175 550 1169.500 550 L 1164 550 1164 544.500 L 1164 539 1158 539 L 1152 539 1152 544.500 M 0.320 556 C 0.320 559.575, 0.502 561.038, 0.723 559.250 C 0.945 557.462, 0.945 554.538, 0.723 552.750 C 0.502 550.962, 0.320 552.425, 0.320 556 M 276 561.500 L 276 573 282 573 L 288 573 288 561.500 L 288 550 282 550 L 276 550 276 561.500 M 426 567.500 L 426 585 432 585 L 438 585 438 590.500 L 438 596 443.500 596 L 449 596 449 613.500 L 449 631 455 631 L 461 631 461 636.500 L 461 642 466.500 642 L 472 642 472 648 L 472 654 489.500 654 L 507 654 507 659.500 L 507 665 512.500 665 L 518 665 518 659.500 L 518 654 547 654 L 576 654 576 619.500 L 576 585 507 585 L 438 585 438 579 L 438 573 449.500 573 L 461 573 461 567.500 L 461 562 449.500 562 L 438 562 438 556 L 438 550 432 550 L 426 550 426 567.500 M 588 561.500 L 588 573 593.500 573 L 599 573 599 561.500 L 599 550 593.500 550 L 588 550 588 561.500 M 92 567.500 L 92 573 98 573 L 104 573 104 567.500 L 104 562 98 562 L 92 562 92 567.500 M 127 567.500 L 127 573 138.500 573 L 150 573 150 567.500 L 150 562 138.500 562 L 127 562 127 567.500 M 173 567.500 L 173 573 184.500 573 L 196 573 196 567.500 L 196 562 184.500 562 L 173 562 173 567.500 M 253 567.500 L 253 573 259 573 L 265 573 265 567.500 L 265 562 259 562 L 253 562 253 567.500 M 300 567.500 L 300 573 311.500 573 L 323 573 323 567.500 L 323 562 311.500 562 L 300 562 300 567.500 M 484 567.500 L 484 573 495.500 573 L 507 573 507 567.500 L 507 562 495.500 562 L 484 562 484 567.500 M 564 567.500 L 564 573 570 573 L 576 573 576 567.500 L 576 562 570 562 L 564 562 564 567.500 M 0.320 579 C 0.320 582.575, 0.502 584.038, 0.723 582.250 C 0.945 580.462, 0.945 577.538, 0.723 575.750 C 0.502 573.962, 0.320 575.425, 0.320 579 M 1083 579 L 1083 585 1077 585 L 1071 585 1071 590.500 L 1071 596 1077 596 L 1083 596 1083 602 L 1083 608 1088.500 608 L 1094 608 1094 602 L 1094 596 1100 596 L 1106 596 1106 590.500 L 1106 585 1100 585 L 1094 585 1094 579 L 1094 573 1088.500 573 L 1083 573 1083 579 M 1233 579 L 1233 585 1227 585 L 1221 585 1221 590.500 L 1221 596 1227 596 L 1233 596 1233 602 L 1233 608 1238.500 608 L 1244 608 1244 602 L 1244 596 1250 596 L 1256 596 1256 590.500 L 1256 585 1250 585 L 1244 585 1244 579 L 1244 573 1238.500 573 L 1233 573 1233 579 M 1290 579 L 1290 585 1284.500 585 L 1279 585 1279 590.500 L 1279 596 1284.500 596 L 1290 596 1290 602 L 1290 608 1296 608 L 1302 608 1302 602 L 1302 596 1307.500 596 L 1313 596 1313 590.500 L 1313 585 1307.500 585 L 1302 585 1302 579 L 1302 573 1296 573 L 1290 573 1290 579 M 1371 579 L 1371 585 1365 585 L 1359 585 1359 590.500 L 1359 596 1365 596 L 1371 596 1371 602 L 1371 608 1376.500 608 L 1382 608 1382 602 L 1382 596 1388 596 L 1394 596 1394 590.500 L 1394 585 1388 585 L 1382 585 1382 579 L 1382 573 1376.500 573 L 1371 573 1371 579 M 1452 579 L 1452 585 1446 585 L 1440 585 1440 590.500 L 1440 596 1446 596 L 1452 596 1452 602 L 1452 608 1457.500 608 L 1463 608 1463 602 L 1463 596 1469 596 L 1475 596 1475 590.500 L 1475 585 1469 585 L 1463 585 1463 579 L 1463 573 1457.500 573 L 1452 573 1452 579 M 1544 579 L 1544 585 1538 585 L 1532 585 1532 590.500 L 1532 596 1538 596 L 1544 596 1544 602 L 1544 608 1549.500 608 L 1555 608 1555 602 L 1555 596 1561 596 L 1567 596 1567 590.500 L 1567 585 1561 585 L 1555 585 1555 579 L 1555 573 1549.500 573 L 1544 573 1544 579 M 1636 579 L 1636 585 1630 585 L 1624 585 1624 590.500 L 1624 596 1630 596 L 1636 596 1636 602 L 1636 608 1641.500 608 L 1647 608 1647 602 L 1647 596 1653 596 L 1659 596 1659 590.500 L 1659 585 1653 585 L 1647 585 1647 579 L 1647 573 1641.500 573 L 1636 573 1636 579 M 1751 579 L 1751 585 1745.500 585 L 1740 585 1740 590.500 L 1740 596 1745.500 596 L 1751 596 1751 602 L 1751 608 1757 608 L 1763 608 1763 602 L 1763 596 1768.500 596 L 1774 596 1774 590.500 L 1774 585 1768.500 585 L 1763 585 1763 579 L 1763 573 1757 573 L 1751 573 1751 579 M 1855 579 L 1855 585 1849 585 L 1843 585 1843 590.500 L 1843 596 1849 596 L 1855 596 1855 602 L 1855 608 1860.500 608 L 1866 608 1866 602 L 1866 596 1872 596 L 1878 596 1878 590.500 L 1878 585 1872 585 L 1866 585 1866 579 L 1866 573 1860.500 573 L 1855 573 1855 579 M 92 619.500 L 92 654 178.500 654 L 265 654 265 619.500 L 265 585 178.500 585 L 92 585 92 619.500 M 276 596.500 L 276 608 282 608 L 288 608 288 596.500 L 288 585 282 585 L 276 585 276 596.500 M 300 613.500 L 300 642 305.500 642 L 311 642 311 636.500 L 311 631 317 631 L 323 631 323 625 L 323 619 334.500 619 L 346 619 346 607.500 L 346 596 340 596 L 334 596 334 590.500 L 334 585 317 585 L 300 585 300 613.500 M 588 596.500 L 588 608 593.500 608 L 599 608 599 596.500 L 599 585 593.500 585 L 588 585 588 596.500 M 611 619.500 L 611 654 634 654 L 657 654 657 619.500 L 657 585 634 585 L 611 585 611 619.500 M 495 613.500 L 495 619 489.500 619 L 484 619 484 625 L 484 631 478 631 L 472 631 472 636.500 L 472 642 478 642 L 484 642 484 636.500 L 484 631 489.500 631 L 495 631 495 625 L 495 619 512.500 619 L 530 619 530 625 L 530 631 524 631 L 518 631 518 636.500 L 518 642 524 642 L 530 642 530 636.500 L 530 631 535.500 631 L 541 631 541 619.500 L 541 608 518 608 L 495 608 495 613.500 M 276 625 L 276 631 282 631 L 288 631 288 625 L 288 619 282 619 L 276 619 276 625 M 588 625 L 588 631 593.500 631 L 599 631 599 625 L 599 619 593.500 619 L 588 619 588 625 M 1590 636.500 L 1590 642 1601.500 642 L 1613 642 1613 636.500 L 1613 631 1601.500 631 L 1590 631 1590 636.500 M 1624 636.500 L 1624 642 1641.500 642 L 1659 642 1659 636.500 L 1659 631 1641.500 631 L 1624 631 1624 636.500 M 1670 636.500 L 1670 642 1681.500 642 L 1693 642 1693 636.500 L 1693 631 1681.500 631 L 1670 631 1670 636.500 M 1705 636.500 L 1705 642 1710.500 642 L 1716 642 1716 636.500 L 1716 631 1710.500 631 L 1705 631 1705 636.500 M 1728 636.500 L 1728 642 1734 642 L 1740 642 1740 636.500 L 1740 631 1734 631 L 1728 631 1728 636.500 M 1763 636.500 L 1763 642 1768.500 642 L 1774 642 1774 636.500 L 1774 631 1768.500 631 L 1763 631 1763 636.500 M 1797 636.500 L 1797 642 1803 642 L 1809 642 1809 636.500 L 1809 631 1803 631 L 1797 631 1797 636.500 M 1843 636.500 L 1843 642 1849 642 L 1855 642 1855 636.500 L 1855 631 1849 631 L 1843 631 1843 636.500 M 0.491 867 C 0.491 984.425, 0.607 1032.462, 0.750 973.750 C 0.892 915.037, 0.892 818.962, 0.750 760.250 C 0.607 701.537, 0.491 749.575, 0.491 867 M 645 895.500 L 645 907 651 907 L 657 907 657 895.500 L 657 884 651 884 L 645 884 645 895.500" stroke="none" fill="black" fill-rule="evenodd"/>
	<path fill-opacity="0.139" d="M 196 83.500 L 196 89 184.500 89 L 173 89 173 95 L 173 101 161.500 101 L 150 101 150 106.500 L 150 112 144 112 L 138 112 138 118 L 138 124 132.500 124 L 127 124 127 130 L 127 136 121 136 L 115 136 115 141.500 L 115 147 109.500 147 L 104 147 104 153 L 104 159 98 159 L 92 159 92 170.500 L 92 182 86.500 182 L 81 182 81 193.500 L 81 205 75 205 L 69 205 69 216.500 L 69 228 63.500 228 L 58 228 58 441 L 58 654 29 654 L 0 654 0 867.001 L 0 1080.001 960.250 1079.751 L 1920.500 1079.500 1920.753 866.500 L 1921.006 653.500 1893.503 653.781 L 1866 654.062 1866 648.031 L 1866 642 1893 642 L 1920 642 1920 533 L 1920 424 1916 424 L 1912 424 1912 412 L 1912 400 1889 400 L 1866 400 1866 388.500 L 1866 377 1860.500 377 L 1855 377 1855 360 L 1855 343 1803 343 L 1751 343 1751 251 L 1751 159 1739.500 159 L 1728 159 1728 141.500 L 1728 124 1722 124 L 1716 124 1716 141.500 L 1716 159 1658.500 159 L 1601 159 1601 279.500 L 1601 400 1572.500 400 L 1544 400 1544 348.500 L 1544 297 1538 297 L 1532 297 1532 279.500 L 1532 262 1480 262 L 1428 262 1428 279.500 L 1428 297 1422.500 297 L 1417 297 1417 366 L 1417 435 1336.500 435 L 1256 435 1256 429.500 L 1256 424 1244.500 424 L 1233 424 1233 429.500 L 1233 435 1244.500 435 L 1256 435 1256 446.500 L 1256 458 1279 458 L 1302 458 1302 464 L 1302 470 1279 470 L 1256 470 1256 475.500 L 1256 481 1250 481 L 1244 481 1244 475.500 L 1244 470 1238.500 470 L 1233 470 1233 458.500 L 1233 447 1215.500 447 L 1198 447 1198 458.500 L 1198 470 1186.500 470 L 1175 470 1175 475.500 L 1175 481 1163.500 481 L 1152 481 1152 487 L 1152 493 1140.500 493 L 1129 493 1129 498.500 L 1129 504 1060 504 L 991 504 991 498.500 L 991 493 973.500 493 L 956 493 956 487 L 956 481 944.500 481 L 933 481 933 475.500 L 933 470 927.500 470 L 922 470 922 458.500 L 922 447 904.500 447 L 887 447 887 458.500 L 887 470 875.500 470 L 864 470 864 475.500 L 864 481 852.500 481 L 841 481 841 487 L 841 493 829.500 493 L 818 493 818 498.500 L 818 504 743 504 L 668 504 668 498.500 L 668 493 656.500 493 L 645 493 645 487 L 645 481 633.500 481 L 622 481 622 475.500 L 622 470 616.500 470 L 611 470 611 481.500 L 611 493 622.500 493 L 634 493 634 521.500 L 634 550 622.500 550 L 611 550 611 556 L 611 562 622.500 562 L 634 562 634 567.500 L 634 573 622.500 573 L 611 573 611 579 L 611 585 691.500 585 L 772 585 772 619.500 L 772 654 645 654 L 518 654 518 659.500 L 518 665 512.500 665 L 507 665 507 659.500 L 507 654 489.500 654 L 472 654 472 648 L 472 642 478 642 L 484 642 484 636.500 L 484 631 489.500 631 L 495 631 495 625 L 495 619 512.500 619 L 530 619 530 625 L 530 631 524 631 L 518 631 518 636.500 L 518 642 524 642 L 530 642 530 636.500 L 530 631 535.500 631 L 541 631 541 619.500 L 541 608 518 608 L 495 608 495 613.500 L 495 619 489.500 619 L 484 619 484 625 L 484 631 478 631 L 472 631 472 636.500 L 472 642 466.500 642 L 461 642 461 636.500 L 461 631 455 631 L 449 631 449 613.500 L 449 596 443.500 596 L 438 596 438 590.500 L 438 585 432 585 L 426 585 426 567.500 L 426 550 449 550 L 472 550 472 544.500 L 472 539 460.500 539 L 449 539 449 521.500 L 449 504 443.500 504 L 438 504 438 498.500 L 438 493 403.500 493 L 369 493 369 498.500 L 369 504 363 504 L 357 504 357 533 L 357 562 363 562 L 369 562 369 567.500 L 369 573 351.500 573 L 334 573 334 584.500 L 334 596 340 596 L 346 596 346 607.500 L 346 619 334.500 619 L 323 619 323 625 L 323 631 317 631 L 311 631 311 636.500 L 311 642 305.500 642 L 300 642 300 648 L 300 654 196 654 L 92 654 92 452.500 L 92 251 98 251 L 104 251 104 233.500 L 104 216 109.500 216 L 115 216 115 204.500 L 115 193 121 193 L 127 193 127 187.500 L 127 182 132.500 182 L 138 182 138 176 L 138 170 144 170 L 150 170 150 164.500 L 150 159 155.500 159 L 161 159 161 153 L 161 147 172.500 147 L 184 147 184 141.500 L 184 136 190 136 L 196 136 196 124 L 196 112 253.500 112 L 311 112 311 100.500 L 311 89 305.500 89 L 300 89 300 83.500 L 300 78 248 78 L 196 78 196 83.500 M 1613 199 L 1613 205 1624.500 205 L 1636 205 1636 199 L 1636 193 1624.500 193 L 1613 193 1613 199 M 1647 199 L 1647 205 1658.500 205 L 1670 205 1670 199 L 1670 193 1658.500 193 L 1647 193 1647 199 M 1682 199 L 1682 205 1693.500 205 L 1705 205 1705 199 L 1705 193 1693.500 193 L 1682 193 1682 199 M 1716 199 L 1716 205 1728 205 L 1740 205 1740 199 L 1740 193 1728 193 L 1716 193 1716 199 M 1613 233.500 L 1613 239 1624.500 239 L 1636 239 1636 233.500 L 1636 228 1624.500 228 L 1613 228 1613 233.500 M 1647 233.500 L 1647 239 1658.500 239 L 1670 239 1670 233.500 L 1670 228 1658.500 228 L 1647 228 1647 233.500 M 1682 233.500 L 1682 239 1693.500 239 L 1705 239 1705 233.500 L 1705 228 1693.500 228 L 1682 228 1682 233.500 M 1716 233.500 L 1716 239 1728 239 L 1740 239 1740 233.500 L 1740 228 1728 228 L 1716 228 1716 233.500 M 1198 256.500 L 1198 262 1250 262 L 1302 262 1302 256.500 L 1302 251 1250 251 L 1198 251 1198 256.500 M 1613 268 L 1613 274 1624.500 274 L 1636 274 1636 268 L 1636 262 1624.500 262 L 1613 262 1613 268 M 1647 268 L 1647 274 1658.500 274 L 1670 274 1670 268 L 1670 262 1658.500 262 L 1647 262 1647 268 M 1682 268 L 1682 274 1693.500 274 L 1705 274 1705 268 L 1705 262 1693.500 262 L 1682 262 1682 268 M 1716 268 L 1716 274 1728 274 L 1740 274 1740 268 L 1740 262 1728 262 L 1716 262 1716 268 M 1440 285.500 L 1440 297 1446 297 L 1452 297 1452 285.500 L 1452 274 1446 274 L 1440 274 1440 285.500 M 1463 285.500 L 1463 297 1469 297 L 1475 297 1475 285.500 L 1475 274 1469 274 L 1463 274 1463 285.500 M 1486 285.500 L 1486 297 1492 297 L 1498 297 1498 285.500 L 1498 274 1492 274 L 1486 274 1486 285.500 M 1509 285.500 L 1509 297 1515 297 L 1521 297 1521 285.500 L 1521 274 1515 274 L 1509 274 1509 285.500 M 841 302.500 L 841 308 881.500 308 L 922 308 922 302.500 L 922 297 881.500 297 L 841 297 841 302.500 M 1613 302.500 L 1613 308 1624.500 308 L 1636 308 1636 302.500 L 1636 297 1624.500 297 L 1613 297 1613 302.500 M 1647 302.500 L 1647 308 1658.500 308 L 1670 308 1670 302.500 L 1670 297 1658.500 297 L 1647 297 1647 302.500 M 1682 302.500 L 1682 308 1693.500 308 L 1705 308 1705 302.500 L 1705 297 1693.500 297 L 1682 297 1682 302.500 M 1716 302.500 L 1716 308 1728 308 L 1740 308 1740 302.500 L 1740 297 1728 297 L 1716 297 1716 302.500 M 1198 314 L 1198 320 1209.500 320 L 1221 320 1221 314 L 1221 308 1209.500 308 L 1198 308 1198 314 M 1233 314 L 1233 320 1244.500 320 L 1256 320 1256 314 L 1256 308 1244.500 308 L 1233 308 1233 314 M 1267 314 L 1267 320 1278.500 320 L 1290 320 1290 314 L 1290 308 1278.500 308 L 1267 308 1267 314 M 1428 337 L 1428 343 1457 343 L 1486 343 1486 337 L 1486 331 1457 331 L 1428 331 1428 337 M 1498 337 L 1498 343 1509.500 343 L 1521 343 1521 337 L 1521 331 1509.500 331 L 1498 331 1498 337 M 1613 337 L 1613 343 1624.500 343 L 1636 343 1636 337 L 1636 331 1624.500 331 L 1613 331 1613 337 M 1647 337 L 1647 343 1658.500 343 L 1670 343 1670 337 L 1670 331 1658.500 331 L 1647 331 1647 337 M 1682 337 L 1682 343 1693.500 343 L 1705 343 1705 337 L 1705 331 1693.500 331 L 1682 331 1682 337 M 1763 365.500 L 1763 377 1768.500 377 L 1774 377 1774 365.500 L 1774 354 1768.500 354 L 1763 354 1763 365.500 M 1786 365.500 L 1786 377 1791.500 377 L 1797 377 1797 365.500 L 1797 354 1791.500 354 L 1786 354 1786 365.500 M 1809 365.500 L 1809 377 1814.500 377 L 1820 377 1820 365.500 L 1820 354 1814.500 354 L 1809 354 1809 365.500 M 1832 365.500 L 1832 377 1837.500 377 L 1843 377 1843 365.500 L 1843 354 1837.500 354 L 1832 354 1832 365.500 M 956 377.500 L 956 389 962 389 L 968 389 968 383 L 968 377 973.500 377 L 979 377 979 383 L 979 389 985 389 L 991 389 991 383 L 991 377 996.500 377 L 1002 377 1002 383 L 1002 389 1008 389 L 1014 389 1014 383 L 1014 377 1019.500 377 L 1025 377 1025 383 L 1025 389 1031 389 L 1037 389 1037 383 L 1037 377 1042.500 377 L 1048 377 1048 383 L 1048 389 1054 389 L 1060 389 1060 383 L 1060 377 1065.500 377 L 1071 377 1071 383 L 1071 389 1077 389 L 1083 389 1083 383 L 1083 377 1088.500 377 L 1094 377 1094 383 L 1094 389 1100 389 L 1106 389 1106 383 L 1106 377 1111.500 377 L 1117 377 1117 383 L 1117 389 1123 389 L 1129 389 1129 383 L 1129 377 1134.500 377 L 1140 377 1140 383 L 1140 389 1146 389 L 1152 389 1152 383 L 1152 377 1158 377 L 1164 377 1164 383 L 1164 389 1169.500 389 L 1175 389 1175 383 L 1175 377 1181 377 L 1187 377 1187 383 L 1187 389 1238.500 389 L 1290 389 1290 377.500 L 1290 366 1123 366 L 956 366 956 377.500 M 1428 371.500 L 1428 377 1457 377 L 1486 377 1486 371.500 L 1486 366 1457 366 L 1428 366 1428 371.500 M 1498 371.500 L 1498 377 1509.500 377 L 1521 377 1521 371.500 L 1521 366 1509.500 366 L 1498 366 1498 371.500 M 1613 394.500 L 1613 400 1653 400 L 1693 400 1693 394.500 L 1693 389 1653 389 L 1613 389 1613 394.500 M 1198 406 L 1198 412 1209.500 412 L 1221 412 1221 406 L 1221 400 1209.500 400 L 1198 400 1198 406 M 1233 406 L 1233 412 1244.500 412 L 1256 412 1256 406 L 1256 400 1244.500 400 L 1233 400 1233 406 M 1267 406 L 1267 412 1278.500 412 L 1290 412 1290 406 L 1290 400 1278.500 400 L 1267 400 1267 406 M 1428 406 L 1428 412 1457 412 L 1486 412 1486 406 L 1486 400 1457 400 L 1428 400 1428 406 M 1498 406 L 1498 412 1509.500 412 L 1521 412 1521 406 L 1521 400 1509.500 400 L 1498 400 1498 406 M 1728 418 L 1728 424 1739.500 424 L 1751 424 1751 418 L 1751 412 1739.500 412 L 1728 412 1728 418 M 1763 418 L 1763 424 1774.500 424 L 1786 424 1786 418 L 1786 412 1774.500 412 L 1763 412 1763 418 M 1797 418 L 1797 424 1808.500 424 L 1820 424 1820 418 L 1820 412 1808.500 412 L 1797 412 1797 418 M 1832 418 L 1832 424 1843.500 424 L 1855 424 1855 418 L 1855 412 1843.500 412 L 1832 412 1832 418 M 1866 418 L 1866 424 1872 424 L 1878 424 1878 418 L 1878 412 1872 412 L 1866 412 1866 418 M 1889 418 L 1889 424 1895 424 L 1901 424 1901 418 L 1901 412 1895 412 L 1889 412 1889 418 M 1613 429.500 L 1613 435 1653 435 L 1693 435 1693 429.500 L 1693 424 1653 424 L 1613 424 1613 429.500 M 1428 441 L 1428 447 1457 447 L 1486 447 1486 441 L 1486 435 1457 435 L 1428 435 1428 441 M 1498 441 L 1498 447 1509.500 447 L 1521 447 1521 441 L 1521 435 1509.500 435 L 1498 435 1498 441 M 1728 458.500 L 1728 470 1739.500 470 L 1751 470 1751 458.500 L 1751 447 1739.500 447 L 1728 447 1728 458.500 M 1763 458.500 L 1763 470 1774.500 470 L 1786 470 1786 458.500 L 1786 447 1774.500 447 L 1763 447 1763 458.500 M 1797 458.500 L 1797 470 1808.500 470 L 1820 470 1820 458.500 L 1820 447 1808.500 447 L 1797 447 1797 458.500 M 1832 458.500 L 1832 470 1843.500 470 L 1855 470 1855 458.500 L 1855 447 1843.500 447 L 1832 447 1832 458.500 M 1878 458.500 L 1878 470 1883.500 470 L 1889 470 1889 458.500 L 1889 447 1883.500 447 L 1878 447 1878 458.500 M 1901 458.500 L 1901 470 1906.500 470 L 1912 470 1912 458.500 L 1912 447 1906.500 447 L 1901 447 1901 458.500 M 1313 464 L 1313 470 1342 470 L 1371 470 1371 464 L 1371 458 1342 458 L 1313 458 1313 464 M 1428 475.500 L 1428 481 1440 481 L 1452 481 1452 475.500 L 1452 470 1440 470 L 1428 470 1428 475.500 M 876 515.500 L 876 550 881.500 550 L 887 550 887 515.500 L 887 481 881.500 481 L 876 481 876 515.500 M 1187 515.500 L 1187 550 1192.500 550 L 1198 550 1198 515.500 L 1198 481 1192.500 481 L 1187 481 1187 515.500 M 1728 492.500 L 1728 504 1739.500 504 L 1751 504 1751 492.500 L 1751 481 1739.500 481 L 1728 481 1728 492.500 M 1763 492.500 L 1763 504 1774.500 504 L 1786 504 1786 492.500 L 1786 481 1774.500 481 L 1763 481 1763 492.500 M 1797 492.500 L 1797 504 1808.500 504 L 1820 504 1820 492.500 L 1820 481 1808.500 481 L 1797 481 1797 492.500 M 1832 492.500 L 1832 504 1843.500 504 L 1855 504 1855 492.500 L 1855 481 1843.500 481 L 1832 481 1832 492.500 M 1878 492.500 L 1878 504 1883.500 504 L 1889 504 1889 492.500 L 1889 481 1883.500 481 L 1878 481 1878 492.500 M 1901 492.500 L 1901 504 1906.500 504 L 1912 504 1912 492.500 L 1912 481 1906.500 481 L 1901 481 1901 492.500 M 852 498.500 L 852 504 840.500 504 L 829 504 829 533 L 829 562 835 562 L 841 562 841 567.500 L 841 573 852.500 573 L 864 573 864 533 L 864 493 858 493 L 852 493 852 498.500 M 922 521.500 L 922 550 933.500 550 L 945 550 945 521.500 L 945 493 933.500 493 L 922 493 922 521.500 M 1164 498.500 L 1164 504 1152 504 L 1140 504 1140 533 L 1140 562 1146 562 L 1152 562 1152 567.500 L 1152 573 1146 573 L 1140 573 1140 579 L 1140 585 1134.500 585 L 1129 585 1129 590.500 L 1129 596 1134.500 596 L 1140 596 1140 613.500 L 1140 631 1146 631 L 1152 631 1152 613.500 L 1152 596 1158 596 L 1164 596 1164 590.500 L 1164 585 1158 585 L 1152 585 1152 579 L 1152 573 1163.500 573 L 1175 573 1175 533 L 1175 493 1169.500 493 L 1164 493 1164 498.500 M 1233 527.500 L 1233 562 1244.500 562 L 1256 562 1256 527.500 L 1256 493 1244.500 493 L 1233 493 1233 527.500 M 1267 498.500 L 1267 504 1284.500 504 L 1302 504 1302 498.500 L 1302 493 1284.500 493 L 1267 493 1267 498.500 M 1313 498.500 L 1313 504 1342 504 L 1371 504 1371 498.500 L 1371 493 1342 493 L 1313 493 1313 498.500 M 645 533 L 645 562 651 562 L 657 562 657 567.500 L 657 573 668.500 573 L 680 573 680 544.500 L 680 516 674 516 L 668 516 668 510 L 668 504 656.500 504 L 645 504 645 533 M 956 533 L 956 562 962 562 L 968 562 968 567.500 L 968 573 979.500 573 L 991 573 991 544.500 L 991 516 985 516 L 979 516 979 510 L 979 504 967.500 504 L 956 504 956 533 M 691 533 L 691 550 708.500 550 L 726 550 726 533 L 726 516 708.500 516 L 691 516 691 533 M 737 533 L 737 550 754.500 550 L 772 550 772 533 L 772 516 754.500 516 L 737 516 737 533 M 783 533 L 783 550 800.500 550 L 818 550 818 533 L 818 516 800.500 516 L 783 516 783 533 M 1002 533 L 1002 550 1019.500 550 L 1037 550 1037 533 L 1037 516 1019.500 516 L 1002 516 1002 533 M 1048 533 L 1048 550 1065.500 550 L 1083 550 1083 533 L 1083 516 1065.500 516 L 1048 516 1048 533 M 1094 533 L 1094 550 1111.500 550 L 1129 550 1129 533 L 1129 516 1111.500 516 L 1094 516 1094 533 M 1763 527.500 L 1763 539 1774.500 539 L 1786 539 1786 527.500 L 1786 516 1774.500 516 L 1763 516 1763 527.500 M 1797 527.500 L 1797 539 1808.500 539 L 1820 539 1820 527.500 L 1820 516 1808.500 516 L 1797 516 1797 527.500 M 1832 527.500 L 1832 539 1843.500 539 L 1855 539 1855 527.500 L 1855 516 1843.500 516 L 1832 516 1832 527.500 M 1267 533 L 1267 539 1284.500 539 L 1302 539 1302 533 L 1302 527 1284.500 527 L 1267 527 1267 533 M 1313 533 L 1313 539 1342 539 L 1371 539 1371 533 L 1371 527 1342 527 L 1313 527 1313 533 M 899 561.500 L 899 573 904.500 573 L 910 573 910 561.500 L 910 550 904.500 550 L 899 550 899 561.500 M 703 567.500 L 703 573 714.500 573 L 726 573 726 567.500 L 726 562 714.500 562 L 703 562 703 567.500 M 749 567.500 L 749 573 760.500 573 L 772 573 772 567.500 L 772 562 760.500 562 L 749 562 749 567.500 M 795 567.500 L 795 573 806.500 573 L 818 573 818 567.500 L 818 562 806.500 562 L 795 562 795 567.500 M 876 567.500 L 876 573 881.500 573 L 887 573 887 567.500 L 887 562 881.500 562 L 876 562 876 567.500 M 922 567.500 L 922 573 933.500 573 L 945 573 945 567.500 L 945 562 933.500 562 L 922 562 922 567.500 M 1014 567.500 L 1014 573 1025.500 573 L 1037 573 1037 567.500 L 1037 562 1025.500 562 L 1014 562 1014 567.500 M 1060 567.500 L 1060 573 1071.500 573 L 1083 573 1083 579 L 1083 585 1077 585 L 1071 585 1071 590.500 L 1071 596 1077 596 L 1083 596 1083 613.500 L 1083 631 1088.500 631 L 1094 631 1094 613.500 L 1094 596 1100 596 L 1106 596 1106 590.500 L 1106 585 1100 585 L 1094 585 1094 579 L 1094 573 1088.500 573 L 1083 573 1083 567.500 L 1083 562 1071.500 562 L 1060 562 1060 567.500 M 1106 567.500 L 1106 573 1117.500 573 L 1129 573 1129 567.500 L 1129 562 1117.500 562 L 1106 562 1106 567.500 M 1233 579 L 1233 585 1227 585 L 1221 585 1221 590.500 L 1221 596 1227 596 L 1233 596 1233 613.500 L 1233 631 1238.500 631 L 1244 631 1244 613.500 L 1244 596 1250 596 L 1256 596 1256 590.500 L 1256 585 1250 585 L 1244 585 1244 579 L 1244 573 1238.500 573 L 1233 573 1233 579 M 1290 579 L 1290 585 1284.500 585 L 1279 585 1279 590.500 L 1279 596 1284.500 596 L 1290 596 1290 613.500 L 1290 631 1296 631 L 1302 631 1302 613.500 L 1302 596 1307.500 596 L 1313 596 1313 590.500 L 1313 585 1307.500 585 L 1302 585 1302 579 L 1302 573 1296 573 L 1290 573 1290 579 M 1371 579 L 1371 585 1365 585 L 1359 585 1359 590.500 L 1359 596 1365 596 L 1371 596 1371 613.500 L 1371 631 1376.500 631 L 1382 631 1382 613.500 L 1382 596 1388 596 L 1394 596 1394 590.500 L 1394 585 1388 585 L 1382 585 1382 579 L 1382 573 1376.500 573 L 1371 573 1371 579 M 1452 579 L 1452 585 1446 585 L 1440 585 1440 590.500 L 1440 596 1446 596 L 1452 596 1452 613.500 L 1452 631 1457.500 631 L 1463 631 1463 613.500 L 1463 596 1469 596 L 1475 596 1475 590.500 L 1475 585 1469 585 L 1463 585 1463 579 L 1463 573 1457.500 573 L 1452 573 1452 579 M 1544 579 L 1544 585 1538 585 L 1532 585 1532 590.500 L 1532 596 1538 596 L 1544 596 1544 613.500 L 1544 631 1549.500 631 L 1555 631 1555 613.500 L 1555 596 1561 596 L 1567 596 1567 590.500 L 1567 585 1561 585 L 1555 585 1555 579 L 1555 573 1549.500 573 L 1544 573 1544 579 M 1636 579 L 1636 585 1630 585 L 1624 585 1624 590.500 L 1624 596 1630 596 L 1636 596 1636 613.500 L 1636 631 1630 631 L 1624 631 1624 636.500 L 1624 642 1618.500 642 L 1613 642 1613 636.500 L 1613 631 1601.500 631 L 1590 631 1590 636.500 L 1590 642 1561 642 L 1532 642 1532 648 L 1532 654 1589.500 654 L 1647 654 1647 648 L 1647 642 1653 642 L 1659 642 1659 648 L 1659 654 1757 654 L 1855 654 1855 642.500 L 1855 631 1860.500 631 L 1866 631 1866 613.500 L 1866 596 1872 596 L 1878 596 1878 590.500 L 1878 585 1872 585 L 1866 585 1866 579 L 1866 573 1860.500 573 L 1855 573 1855 579 L 1855 585 1849 585 L 1843 585 1843 590.500 L 1843 596 1849 596 L 1855 596 1855 613.500 L 1855 631 1849 631 L 1843 631 1843 636.500 L 1843 642 1826 642 L 1809 642 1809 636.500 L 1809 631 1803 631 L 1797 631 1797 636.500 L 1797 642 1785.500 642 L 1774 642 1774 636.500 L 1774 631 1768.500 631 L 1763 631 1763 613.500 L 1763 596 1768.500 596 L 1774 596 1774 590.500 L 1774 585 1768.500 585 L 1763 585 1763 579 L 1763 573 1757 573 L 1751 573 1751 579 L 1751 585 1745.500 585 L 1740 585 1740 590.500 L 1740 596 1745.500 596 L 1751 596 1751 613.500 L 1751 631 1757 631 L 1763 631 1763 636.500 L 1763 642 1751.500 642 L 1740 642 1740 636.500 L 1740 631 1734 631 L 1728 631 1728 636.500 L 1728 642 1722 642 L 1716 642 1716 636.500 L 1716 631 1710.500 631 L 1705 631 1705 636.500 L 1705 642 1699 642 L 1693 642 1693 636.500 L 1693 631 1681.500 631 L 1670 631 1670 636.500 L 1670 642 1664.500 642 L 1659 642 1659 636.500 L 1659 631 1653 631 L 1647 631 1647 613.500 L 1647 596 1653 596 L 1659 596 1659 590.500 L 1659 585 1653 585 L 1647 585 1647 579 L 1647 573 1641.500 573 L 1636 573 1636 579 M 899 596.500 L 899 608 904.500 608 L 910 608 910 596.500 L 910 585 904.500 585 L 899 585 899 596.500 M 899 625 L 899 631 904.500 631 L 910 631 910 625 L 910 619 904.500 619 L 899 619 899 625 M 1002 648 L 1002 654 1008 654 L 1014 654 1014 648 L 1014 642 1008 642 L 1002 642 1002 648 M 1025 648 L 1025 654 1036.500 654 L 1048 654 1048 648 L 1048 642 1036.500 642 L 1025 642 1025 648 M 1060 648 L 1060 654 1077 654 L 1094 654 1094 648 L 1094 642 1077 642 L 1060 642 1060 648 M 1106 648 L 1106 654 1129 654 L 1152 654 1152 648 L 1152 642 1129 642 L 1106 642 1106 648 M 1164 648 L 1164 654 1233 654 L 1302 654 1302 648 L 1302 642 1233 642 L 1164 642 1164 648 M 1313 648 L 1313 654 1417 654 L 1521 654 1521 648 L 1521 642 1417 642 L 1313 642 1313 648 M 0.491 867 C 0.491 984.425, 0.607 1032.462, 0.750 973.750 C 0.892 915.037, 0.892 818.962, 0.750 760.250 C 0.607 701.537, 0.491 749.575, 0.491 867 M 645 895.500 L 645 907 651 907 L 657 907 657 895.500 L 657 884 651 884 L 645 884 645 895.500" stroke="none" fill="black" fill-rule="evenodd"/>
</svg>