<svg xmlns="http://www.w3.org/2000/svg" width="1920" height="1080" viewBox="0 0 1920 1080" version="1.1">
	<path fill-opacity="0.184" d="M 40 5 L 40 10 20 10 L 0 10 0 25 L 0 40 5 40 L 10 40 10 50 L 10 60 25 60 L 40 60 40 65 L 40 70 25 70 L 10 70 10 80 L 10 90 5 90 L 0 90 0 100 L 0 110 20 110 L 40 110 40 125 L 40 140 35 140 L 30 140 30 130 L 30 120 20 120 L 10 120 10 125 L 10 130 5 130 L 0 130 0 160 L 0 190 65 190 L 130 190 130 200 L 130 210 140 210 L 150 210 150 230 L 150 250 110 250 L 70 250 70 245 L 70 240 60 240 L 50 240 50 245 L 50 250 25 250 L 0 250 0 260 L 0 270 5 270 L 10 270 10 285 L 10 300 5 300 L 0 300 0 325 L 0 350 75 350 L 150 350 150 380 L 150 410 130 410 L 110 410 110 405 L 110 400 120 400 L 130 400 130 390 L 130 380 120 380 L 110 380 110 370 L 110 360 70 360 L 30 360 30 365 L 30 370 25 370 L 20 370 20 365 L 20 360 10 360 L 0 360 0 395 L 0 430 10 430 L 20 430 20 435 L 20 440 15 440 L 10 440 10 445 L 10 450 5 450 L 0 450 0 480 L 0 510 5 510 L 10 510 10 515 L 10 520 5 520 L 0 520 0 565 L 0 610 190 610 L 380 610 380 605 L 380 600 365 600 L 350 600 350 595 L 350 590 385 590 L 420 590 420 600 L 420 610 495 610 L 570 610 570 605 L 570 600 575 600 L 580 600 580 605 L 580 610 585 610 L 590 610 590 605 L 590 600 585 600 L 580 600 580 595 L 580 590 590 590 L 600 590 600 595 L 600 600 605 600 L 610 600 610 605 L 610 610 665 610 L 720 610 720 615 L 720 620 750 620 L 780 620 780 700 L 780 780 775 780 L 770 780 770 710 L 770 640 765 640 L 760 640 760 635 L 760 630 380 630 L 0 630 0 855 L 0 1080 315 1080 L 630 1080 630 1075 L 630 1070 635 1070 L 640 1070 640 1075.001 L 640 1080.002 1280.250 1079.751 L 1920.500 1079.500 1920.675 549 C 1920.772 257.225, 1920.617 14.338, 1920.332 9.250 L 1919.813 0 1884.907 0 L 1850 0 1850 70 L 1850 140 1855 140 L 1860 140 1860 145 L 1860 150 1655 150 L 1450 150 1450 155 L 1450 160 1405 160 L 1360 160 1360 155 L 1360 150 1180 150 L 1000 150 1000 145 L 1000 140 1005 140 L 1010 140 1010 70 L 1010 0 900 0 L 790 0 790 5 L 790 10 745 10 L 700 10 700 5 L 700 0 685 0 L 670 0 670 5 L 670 10 575 10 L 480 10 480 5 L 480 0 470 0 L 460 0 460 5 L 460 10 365 10 L 270 10 270 5 L 270 0 260 0 L 250 0 250 5 L 250 10 155 10 L 60 10 60 5 L 60 0 50 0 L 40 0 40 5 M 1030 65 L 1030 130 1205 130 L 1380 130 1380 125 L 1380 120 1385 120 L 1390 120 1390 115 L 1390 110 1395 110 L 1400 110 1400 105 L 1400 100 1460 100 L 1520 100 1520 110 L 1520 120 1515 120 L 1510 120 1510 115 L 1510 110 1460 110 L 1410 110 1410 115 L 1410 120 1405 120 L 1400 120 1400 125 L 1400 130 1395 130 L 1390 130 1390 135 L 1390 140 1385 140 L 1380 140 1380 145 L 1380 150 1405 150 L 1430 150 1430 145 L 1430 140 1425 140 L 1420 140 1420 130 L 1420 120 1425 120 L 1430 120 1430 125 L 1430 130 1630 130 L 1830 130 1830 65 L 1830 0 1765 0 L 1700 0 1700 5 L 1700 10 1695 10 L 1690 10 1690 5 L 1690 0 1680 0 L 1670 0 1670 5 L 1670 10 1660 10 L 1650 10 1650 20 L 1650 30 1655 30 L 1660 30 1660 45 L 1660 60 1655 60 L 1650 60 1650 55 L 1650 50 1640 50 L 1630 50 1630 45 L 1630 40 1615 40 L 1600 40 1600 30 L 1600 20 1595 20 L 1590 20 1590 30 L 1590 40 1585 40 L 1580 40 1580 35 L 1580 30 1575 30 L 1570 30 1570 25 L 1570 20 1575 20 L 1580 20 1580 15 L 1580 10 1585 10 L 1590 10 1590 5 L 1590 0 1585 0 L 1580 0 1580 5 L 1580 10 1570 10 L 1560 10 1560 5 L 1560 0 1535 0 L 1510 0 1510 5 L 1510 10 1505 10 L 1500 10 1500 15 L 1500 20 1485 20 L 1470 20 1470 10 L 1470 0 1465 0 L 1460 0 1460 10 L 1460 20 1465 20 L 1470 20 1470 25 L 1470 30 1460 30 L 1450 30 1450 25 L 1450 20 1445 20 L 1440 20 1440 15 L 1440 10 1430 10 L 1420 10 1420 5 L 1420 0 1415 0 L 1410 0 1410 5 L 1410 10 1415 10 L 1420 10 1420 15 L 1420 20 1425 20 L 1430 20 1430 25 L 1430 30 1420 30 L 1410 30 1410 35 L 1410 40 1405 40 L 1400 40 1400 45 L 1400 50 1395 50 L 1390 50 1390 35 L 1390 20 1385 20 L 1380 20 1380 15 L 1380 10 1375 10 L 1370 10 1370 5 L 1370 0 1365 0 L 1360 0 1360 5 L 1360 10 1365 10 L 1370 10 1370 20 L 1370 30 1365 30 L 1360 30 1360 25 L 1360 20 1355 20 L 1350 20 1350 10 L 1350 0 1345 0 L 1340 0 1340 5 L 1340 10 1330 10 L 1320 10 1320 5 L 1320 0 1285 0 L 1250 0 1250 10 L 1250 20 1245 20 L 1240 20 1240 25 L 1240 30 1250 30 L 1260 30 1260 35 L 1260 40 1250 40 L 1240 40 1240 45 L 1240 50 1235 50 L 1230 50 1230 45 L 1230 40 1220 40 L 1210 40 1210 35 L 1210 30 1205 30 L 1200 30 1200 35 L 1200 40 1205 40 L 1210 40 1210 45 L 1210 50 1215 50 L 1220 50 1220 55 L 1220 60 1205 60 L 1190 60 1190 55 L 1190 50 1175 50 L 1160 50 1160 45 L 1160 40 1165 40 L 1170 40 1170 35 L 1170 30 1175 30 L 1180 30 1180 20 L 1180 10 1170 10 L 1160 10 1160 15 L 1160 20 1155 20 L 1150 20 1150 15 L 1150 10 1145 10 L 1140 10 1140 5 L 1140 0 1125 0 L 1110 0 1110 5 L 1110 10 1105 10 L 1100 10 1100 5 L 1100 0 1065 0 L 1030 0 1030 65 M 0.402 25 C 0.402 33.525, 0.556 37.013, 0.743 32.750 C 0.931 28.488, 0.931 21.513, 0.743 17.250 C 0.556 12.988, 0.402 16.475, 0.402 25 M 1110 15 L 1110 20 1120 20 L 1130 20 1130 15 L 1130 10 1120 10 L 1110 10 1110 15 M 1260 15 L 1260 20 1265 20 L 1270 20 1270 15 L 1270 10 1265 10 L 1260 10 1260 15 M 1670 25 L 1670 40 1680 40 L 1690 40 1690 45 L 1690 50 1695 50 L 1700 50 1700 45 L 1700 40 1705 40 L 1710 40 1710 35 L 1710 30 1705 30 L 1700 30 1700 35 L 1700 40 1695 40 L 1690 40 1690 35 L 1690 30 1685 30 L 1680 30 1680 20 L 1680 10 1675 10 L 1670 10 1670 25 M 1700 15 L 1700 20 1705 20 L 1710 20 1710 15 L 1710 10 1705 10 L 1700 10 1700 15 M 1160 25 L 1160 30 1165 30 L 1170 30 1170 25 L 1170 20 1165 20 L 1160 20 1160 25 M 1340 25 L 1340 30 1345 30 L 1350 30 1350 25 L 1350 20 1345 20 L 1340 20 1340 25 M 1500 25 L 1500 30 1490 30 L 1480 30 1480 35 L 1480 40 1490 40 L 1500 40 1500 35 L 1500 30 1505 30 L 1510 30 1510 45 L 1510 60 1515 60 L 1520 60 1520 40 L 1520 20 1510 20 L 1500 20 1500 25 M 110 35 L 110 40 105 40 L 100 40 100 50 L 100 60 120 60 L 140 60 140 70 L 140 80 125 80 L 110 80 110 85 L 110 90 130 90 L 150 90 150 60 L 150 30 130 30 L 110 30 110 35 M 190 40 L 190 50 180 50 L 170 50 170 70 L 170 90 175 90 L 180 90 180 80 L 180 70 185 70 L 190 70 190 75 L 190 80 200 80 L 210 80 210 85 L 210 90 285 90 L 360 90 360 60 L 360 30 275 30 L 190 30 190 40 M 400 40 L 400 50 390 50 L 380 50 380 70 L 380 90 475 90 L 570 90 570 60 L 570 30 485 30 L 400 30 400 40 M 620 35 L 620 40 615 40 L 610 40 610 45 L 610 50 600 50 L 590 50 590 70 L 590 90 685 90 L 780 90 780 60 L 780 30 700 30 L 620 30 620 35 M 1140 35 L 1140 40 1145 40 L 1150 40 1150 35 L 1150 30 1145 30 L 1140 30 1140 35 M 1370 35 L 1370 40 1375 40 L 1380 40 1380 35 L 1380 30 1375 30 L 1370 30 1370 35 M 1430 35 L 1430 40 1435 40 L 1440 40 1440 45 L 1440 50 1445 50 L 1450 50 1450 45 L 1450 40 1445 40 L 1440 40 1440 35 L 1440 30 1435 30 L 1430 30 1430 35 M 110 45 L 110 50 120 50 L 130 50 130 45 L 130 40 120 40 L 110 40 110 45 M 330 45 L 330 50 320 50 L 310 50 310 55 L 310 60 330 60 L 350 60 350 50 L 350 40 340 40 L 330 40 330 45 M 540 45 L 540 50 545 50 L 550 50 550 55 L 550 60 555 60 L 560 60 560 50 L 560 40 550 40 L 540 40 540 45 M 80 65 L 80 70 85 70 L 90 70 90 65 L 90 60 85 60 L 80 60 80 65 M 1240 65 L 1240 70 1245 70 L 1250 70 1250 65 L 1250 60 1245 60 L 1240 60 1240 65 M 1640 65 L 1640 70 1645 70 L 1650 70 1650 65 L 1650 60 1645 60 L 1640 60 1640 65 M 0.370 100 C 0.370 105.775, 0.535 108.138, 0.737 105.250 C 0.939 102.362, 0.939 97.638, 0.737 94.750 C 0.535 91.862, 0.370 94.225, 0.370 100 M 30 95 L 30 100 35 100 L 40 100 40 95 L 40 90 35 90 L 30 90 30 95 M 70 95 L 70 100 75 100 L 80 100 80 95 L 80 90 75 90 L 70 90 70 95 M 80 115 L 80 120 70 120 L 60 120 60 145 L 60 170 70 170 L 80 170 80 165 L 80 160 75 160 L 70 160 70 145 L 70 130 80 130 L 90 130 90 135 L 90 140 95 140 L 100 140 100 135 L 100 130 115 130 L 130 130 130 135 L 130 140 125 140 L 120 140 120 145 L 120 150 125 150 L 130 150 130 145 L 130 140 135 140 L 140 140 140 145 L 140 150 145 150 L 150 150 150 145 L 150 140 155 140 L 160 140 160 150 L 160 160 150 160 L 140 160 140 165 L 140 170 195 170 L 250 170 250 140 L 250 110 165 110 L 80 110 80 115 M 270 140 L 270 170 275 170 L 280 170 280 160 L 280 150 295 150 L 310 150 310 145 L 310 140 320 140 L 330 140 330 150 L 330 160 320 160 L 310 160 310 165 L 310 170 335 170 L 360 170 360 175 L 360 180 365 180 L 370 180 370 175 L 370 170 415 170 L 460 170 460 150 L 460 130 445 130 L 430 130 430 125 L 430 120 435 120 L 440 120 440 115 L 440 110 355 110 L 270 110 270 140 M 480 115 L 480 120 490 120 L 500 120 500 125 L 500 130 490 130 L 480 130 480 150 L 480 170 505 170 L 530 170 530 175 L 530 180 540 180 L 550 180 550 175 L 550 170 590 170 L 630 170 630 175 L 630 180 635 180 L 640 180 640 175 L 640 170 655 170 L 670 170 670 140 L 670 110 575 110 L 480 110 480 115 M 700 115 L 700 120 705 120 L 710 120 710 130 L 710 140 705 140 L 700 140 700 155 L 700 170 745 170 L 790 170 790 140 L 790 110 745 110 L 700 110 700 115 M 640 125 L 640 130 650 130 L 660 130 660 125 L 660 120 650 120 L 640 120 640 125 M 0.444 160 C 0.444 176.775, 0.581 183.637, 0.748 175.250 C 0.915 166.863, 0.915 153.137, 0.748 144.750 C 0.581 136.363, 0.444 143.225, 0.444 160 M 290 165 L 290 170 295 170 L 300 170 300 165 L 300 160 295 160 L 290 160 290 165 M 110 175 L 110 180 120 180 L 130 180 130 175 L 130 170 120 170 L 110 170 110 175 M 170 195 L 170 200 180 200 L 190 200 190 205 L 190 210 185 210 L 180 210 180 220 L 180 230 185 230 L 190 230 190 235 L 190 240 195 240 L 200 240 200 245 L 200 250 280 250 L 360 250 360 220 L 360 190 265 190 L 170 190 170 195 M 380 195 L 380 200 395 200 L 410 200 410 205 L 410 210 405 210 L 400 210 400 215 L 400 220 395 220 L 390 220 390 230 L 390 240 385 240 L 380 240 380 245 L 380 250 475 250 L 570 250 570 220 L 570 190 565 190 L 560 190 560 195 L 560 200 555 200 L 550 200 550 195 L 550 190 495 190 L 440 190 440 195 L 440 200 435 200 L 430 200 430 195 L 430 190 405 190 L 380 190 380 195 M 600 195 L 600 200 595 200 L 590 200 590 225 L 590 250 640 250 L 690 250 690 255 L 690 260 708.407 260 C 726.648 260, 726.873 259.973, 733.407 257.042 L 740 254.084 740 247.042 L 740 240 750 240 L 760 240 760 230 L 760 220 765 220 L 770 220 770 225 L 770 230 775 230 L 780 230 780 210 L 780 190 690 190 L 600 190 600 195 M 1 205 L 1 210 10.500 210 L 20 210 20 215 L 20 220 15 220 L 10 220 10 225 L 10 230 5.500 230 L 1 230 1 235 L 1 240 10.500 240 L 20 240 20 235 L 20 230 25 230 L 30 230 30 225 L 30 220 35 220 L 40 220 40 215 L 40 210 30 210 L 20 210 20 205 L 20 200 10.500 200 L 1 200 1 205 M 80 230 L 80 240 90 240 L 100 240 100 230 L 100 220 90 220 L 80 220 80 230 M 770 245 L 770 250 775 250 L 780 250 780 245 L 780 240 775 240 L 770 240 770 245 M 0.370 260 C 0.370 265.775, 0.535 268.137, 0.737 265.250 C 0.939 262.363, 0.939 257.637, 0.737 254.750 C 0.535 251.863, 0.370 254.225, 0.370 260 M 720 252.945 L 720 255.890 725.750 253.352 C 728.913 251.957, 731.688 250.632, 731.917 250.408 C 732.146 250.183, 729.558 250, 726.167 250 C 720.007 250, 720 250.003, 720 252.945 M 20 275 L 20 280 25 280 L 30 280 30 290 L 30 300 35 300 L 40 300 40 285 L 40 270 30 270 L 20 270 20 275 M 60 300 L 60 330 70 330 L 80 330 80 325 L 80 320 75 320 L 70 320 70 305 L 70 290 120 290 L 170 290 170 295 L 170 300 190 300 L 210 300 210 315 L 210 330 230 330 L 250 330 250 315 L 250 300 240 300 L 230 300 230 295 L 230 290 240 290 L 250 290 250 280 L 250 270 155 270 L 60 270 60 300 M 270 300 L 270 330 365 330 L 460 330 460 300 L 460 270 365 270 L 270 270 270 300 M 480 300 L 480 330 515 330 L 550 330 550 325 L 550 320 555 320 L 560 320 560 325 L 560 330 575 330 L 590 330 590 325 L 590 320 600 320 L 610 320 610 325 L 610 330 640 330 L 670 330 670 300 L 670 270 575 270 L 480 270 480 300 M 700 300 L 700 330 745 330 L 790 330 790 300 L 790 270 745 270 L 700 270 700 300 M 310 285 L 310 290 305 290 L 300 290 300 295 L 300 300 310 300 L 320 300 320 290 L 320 280 315 280 L 310 280 310 285 M 490 290 L 490 300 495 300 L 500 300 500 290 L 500 280 495 280 L 490 280 490 290 M 1150 285 L 1150 290 1135 290 L 1120 290 1120 295 L 1120 300 1115 300 L 1110 300 1110 295 L 1110 290 1105 290 L 1100 290 1100 295 L 1100 300 1090 300 L 1080 300 1080 305 L 1080 310 1065 310 L 1050 310 1050 315 L 1050 320 1045 320 L 1040 320 1040 315 L 1040 310 1030 310 L 1020 310 1020 325 L 1020 340 1030 340 L 1040 340 1040 345 L 1040 350 1030 350 L 1020 350 1020 400 L 1020 450 1025 450 L 1030 450 1030 455 L 1030 460 1035 460 L 1040 460 1040 490 L 1040 520 1115 520 L 1190 520 1190 515 L 1190 510 1195 510 C 1199.889 510, 1200 509.933, 1200 507 L 1200 504 1206 504 C 1211.333 504, 1212 503.778, 1212 502 C 1212 500.148, 1212.667 500, 1221 500 L 1230 500 1230 495 L 1230 490 1225 490 L 1220 490 1220 450 L 1220 410 1225 410 L 1230 410 1230 405 L 1230 400 1250 400 L 1270 400 1270 395 L 1270 390 1265 390 L 1260 390 1260 385 L 1260 380 1250 380 L 1240 380 1240 375 L 1240 370 1235 370 L 1230 370 1230 360 L 1230 350 1250 350 L 1270 350 1270 360 L 1270 370 1275 370 L 1280 370 1280 355 L 1280 340 1285 340 L 1290 340 1290 335 L 1290 330 1295 330 L 1300 330 1300 345 L 1300 360 1305 360 L 1310 360 1310 355 L 1310 350 1320 350 L 1330 350 1330 360 L 1330 370 1325 370 L 1320 370 1320 375 L 1320 380 1315 380 L 1310 380 1310 385 L 1310 390 1305 390 L 1300 390 1300 395 L 1300 400 1320 400 L 1340 400 1340 405 L 1340 410 1345 410 L 1350 410 1350 450 L 1350 490 1345 490 L 1340 490 1340 505 L 1340 520 1355 520 L 1370 520 1370 515 L 1370 510 1375 510 L 1380 510 1380 505 L 1380 500 1390 500 L 1400 500 1400 495 L 1400 490 1405 490 L 1410 490 1410 470 L 1410 450 1405 450 L 1400 450 1400 440 L 1400 430 1395 430 L 1390 430 1390 390 L 1390 350 1395 350 L 1400 350 1400 335 L 1400 320 1410 320 L 1420 320 1420 310 L 1420 300 1425 300 L 1430 300 1430 295 L 1430 290 1405 290 L 1380 290 1380 295 L 1380 300 1375 300 L 1370 300 1370 294.912 L 1370 289.823 1359.250 290.359 C 1353.338 290.653, 1346.588 291.191, 1344.250 291.552 C 1340.090 292.196, 1340 292.293, 1340 296.105 L 1340 300 1335 300 C 1330.082 300, 1330 299.950, 1330 296.918 L 1330 293.837 1326.632 295.918 C 1324.780 297.063, 1322.530 298, 1321.632 298 C 1320.734 298, 1320 298.450, 1320 299 C 1320 299.622, 1314.333 300, 1305 300 L 1290 300 1290 295 L 1290 290 1266.200 290 C 1249.022 290, 1242.066 290.334, 1241.200 291.200 C 1240.540 291.860, 1240 294.110, 1240 296.200 L 1240 300 1225 300 L 1210 300 1210 295 L 1210 290 1195 290 L 1180 290 1180 285 L 1180 280 1165 280 L 1150 280 1150 285 M 1435.250 284.758 C 1432.912 287.290, 1431 289.506, 1431 289.681 C 1431 289.856, 1435.275 290, 1440.500 290 L 1450 290 1450 285 L 1450 280 1444.750 280.077 C 1439.832 280.150, 1439.231 280.446, 1435.250 284.758 M 1690.667 290.667 C 1690.300 291.033, 1690 293.283, 1690 295.667 L 1690 300 1685 300 L 1680 300 1680 325 L 1680 350 1690 350 L 1700 350 1700 355 L 1700 360 1705 360 L 1710 360 1710 400 L 1710 440 1720 440 L 1730 440 1730 450 L 1730 460 1735 460 L 1740 460 1740 420 L 1740 380 1745 380 L 1750 380 1750 375 L 1750 370 1775 370 L 1800 370 1800 360 L 1800 350 1795 350 L 1790 350 1790 340 L 1790 330 1775 330 L 1760 330 1760 325 L 1760 320 1765 320 L 1770 320 1770 315 L 1770 310 1775 310 L 1780 310 1780 305 L 1780 300 1760 300 L 1740 300 1740 295 L 1740 290 1730 290 L 1720 290 1720 295 L 1720 300 1715 300 L 1710 300 1710 295 L 1710 290 1700.667 290 C 1695.533 290, 1691.033 290.300, 1690.667 290.667 M 1696.280 296.547 L 1693.060 300 1696.530 300 C 1699.829 300, 1700 299.828, 1700 296.500 C 1700 294.575, 1699.888 293.021, 1699.750 293.047 C 1699.612 293.073, 1698.051 294.648, 1696.280 296.547 M 0.435 325 C 0.435 339.025, 0.575 344.762, 0.747 337.750 C 0.919 330.738, 0.919 319.262, 0.747 312.250 C 0.575 305.238, 0.435 310.975, 0.435 325 M 30 320 L 30 330 35 330 L 40 330 40 320 L 40 310 35 310 L 30 310 30 320 M 1820 315 L 1820 320 1810 320 L 1800 320 1800 330 L 1800 340 1805 340 L 1810 340 1810 355 L 1810 370 1820 370 L 1830 370 1830 365 L 1830 360 1835 360 L 1840 360 1840 370 L 1840 380 1845 380 L 1850 380 1850 440 L 1850 500 1855 500 L 1860 500 1860 505 L 1860 510 1865 510 L 1870 510 1870 515 L 1870 520 1875 520 L 1880 520 1880 515 L 1880 510 1875 510 L 1870 510 1870 505 L 1870 500 1865 500 L 1860 500 1860 410 L 1860 320 1855 320 L 1850 320 1850 315 L 1850 310 1835 310 L 1820 310 1820 315 M 90 325 L 90 330 105 330 L 120 330 120 335 L 120 340 125 340 L 130 340 130 335 L 130 330 125 330 L 120 330 120 325 L 120 320 105 320 L 90 320 90 325 M 180 335 L 180 340 190 340 L 200 340 200 335 L 200 330 190 330 L 180 330 180 335 M 1820 335 L 1820 340 1825 340 L 1830 340 1830 335 L 1830 330 1825 330 L 1820 330 1820 335 M 1330 345 L 1330 350 1340 350 L 1350 350 1350 345 L 1350 340 1340 340 L 1330 340 1330 345 M 170 380 L 170 410 265 410 L 360 410 360 390 L 360 370 345 370 L 330 370 330 360 L 330 350 250 350 L 170 350 170 380 M 350 355 L 350 360 355 360 L 360 360 360 355 L 360 350 355 350 L 350 350 350 355 M 380 360 L 380 370 385 370 L 390 370 390 365 L 390 360 400 360 L 410 360 410 365 L 410 370 405 370 L 400 370 400 385 L 400 400 395 400 L 390 400 390 390 L 390 380 385 380 L 380 380 380 395 L 380 410 475 410 L 570 410 570 380 L 570 350 475 350 L 380 350 380 360 M 590 355 L 590 360 600 360 L 610 360 610 365 L 610 370 600 370 L 590 370 590 390 L 590 410 660 410 L 730 410 730 415 L 730 420 740 420 L 750 420 750 415 L 750 410 765 410 L 780 410 780 380 L 780 350 685 350 L 590 350 590 355 M 890 355 L 890 360 880 360 L 870 360 870 365 L 870 370 865 370 L 860 370 860 425 L 860 480 865 480 L 870 480 870 485 L 870 490 875 490 L 880 490 880 465 L 880 440 895 440 L 910 440 910 445 L 910 450 900 450 L 890 450 890 470 L 890 490 905 490 L 920 490 920 485 L 920 480 925 480 L 930 480 930 415 L 930 350 910 350 L 890 350 890 355 M 0.451 395 C 0.451 414.525, 0.585 422.513, 0.748 412.750 C 0.912 402.988, 0.912 387.013, 0.748 377.250 C 0.585 367.488, 0.451 375.475, 0.451 395 M 430 365 L 430 370 435 370 L 440 370 440 365 L 440 360 435 360 L 430 360 430 365 M 1420 375 L 1420 380 1415 380 L 1410 380 1410 395 L 1410 410 1415 410 L 1420 410 1420 415 L 1420 420 1425 420 L 1430 420 1430 455 L 1430 490 1450 490 L 1470 490 1470 480 L 1470 470 1465 470 L 1460 470 1460 445 L 1460 420 1450 420 L 1440 420 1440 410 L 1440 400 1435 400 L 1430 400 1430 385 L 1430 370 1425 370 L 1420 370 1420 375 M 80 390 L 80 400 95 400 L 110 400 110 395 L 110 390 105 390 L 100 390 100 385 L 100 380 90 380 L 80 380 80 390 M 190 395 L 190 400 200 400 L 210 400 210 395 L 210 390 200 390 L 190 390 190 395 M 60 460 L 60 490 65 490 L 70 490 70 470 L 70 450 75 450 L 80 450 80 445 L 80 440 85 440 L 90 440 90 445 L 90 450 105 450 L 120 450 120 445 L 120 440 125 440 L 130 440 130 445 L 130 450 140 450 L 150 450 150 455 L 150 460 140 460 L 130 460 130 465 L 130 470 145 470 L 160 470 160 460 L 160 450 175 450 L 190 450 190 455 L 190 460 195 460 L 200 460 200 465 L 200 470 215 470 L 230 470 230 465 L 230 460 235 460 L 240 460 240 470 L 240 480 220 480 L 200 480 200 485 L 200 490 225 490 L 250 490 250 460 L 250 430 155 430 L 60 430 60 460 M 270 460 L 270 490 330 490 L 390 490 390 480 L 390 470 400 470 L 410 470 410 480 L 410 490 435 490 L 460 490 460 460 L 460 430 365 430 L 270 430 270 460 M 480 435 L 480 440 490 440 L 500 440 500 445 L 500 450 490 450 L 480 450 480 470 L 480 490 575 490 L 670 490 670 470 L 670 450 660 450 L 650 450 650 445 L 650 440 660 440 L 670 440 670 435 L 670 430 575 430 L 480 430 480 435 M 700 460 L 700 490 725 490 L 750 490 750 485 L 750 480 755 480 L 760 480 760 475 L 760 470 770 470 L 780 470 780 465 L 780 460 785 460 L 790 460 790 445 L 790 430 745 430 L 700 430 700 460 M 1660 445 L 1660 460 1650 460 L 1640 460 1640 475 L 1640 490 1655 490 L 1670 490 1670 495 L 1670 500 1675 500 L 1680 500 1680 505 L 1680 510 1690 510 L 1700 510 1700 500 L 1700 490 1690 490 L 1680 490 1680 460 L 1680 430 1670 430 L 1660 430 1660 445 M 190 445 L 190 450 195 450 L 200 450 200 445 L 200 440 195 440 L 190 440 190 445 M 230 445 L 230 450 235 450 L 240 450 240 445 L 240 440 235 440 L 230 440 230 445 M 0.444 480 C 0.444 496.775, 0.581 503.637, 0.748 495.250 C 0.915 486.863, 0.915 473.137, 0.748 464.750 C 0.581 456.363, 0.444 463.225, 0.444 480 M 210 455 L 210 460 215 460 L 220 460 220 455 L 220 450 215 450 L 210 450 210 455 M 280 455 L 280 460 285 460 L 290 460 290 470 L 290 480 295 480 L 300 480 300 470 L 300 460 295 460 L 290 460 290 455 L 290 450 285 450 L 280 450 280 455 M 580 475 L 580 480 585 480 L 590 480 590 475 L 590 470 585 470 L 580 470 580 475 M 90 495 L 90 500 105 500 L 120 500 120 495 L 120 490 105 490 L 90 490 90 495 M 1730 500 L 1730 510 1735 510 L 1740 510 1740 515 L 1740 520 1750 520 L 1760 520 1760 515 L 1760 510 1755 510 L 1750 510 1750 500 L 1750 490 1740 490 L 1730 490 1730 500 M 30 515 L 30 520 45 520 L 60 520 60 525 L 60 530 75 530 L 90 530 90 535 L 90 540 85 540 L 80 540 80 545 L 80 550 85 550 L 90 550 90 545 L 90 540 95 540 L 100 540 100 535 L 100 530 105 530 L 110 530 110 525 L 110 520 115 520 L 120 520 120 525 L 120 530 125 530 L 130 530 130 535 L 130 540 135 540 L 140 540 140 555 L 140 570 145 570 L 150 570 150 540 L 150 510 90 510 L 30 510 30 515 M 170 520 L 170 530 175 530 L 180 530 180 525 L 180 520 195 520 L 210 520 210 525 L 210 530 200 530 L 190 530 190 535 L 190 540 180 540 L 170 540 170 555 L 170 570 175 570 L 180 570 180 560 L 180 550 190 550 L 200 550 200 545 L 200 540 210 540 L 220 540 220 545 L 220 550 240 550 L 260 550 260 555 L 260 560 255 560 L 250 560 250 565 L 250 570 305 570 L 360 570 360 552.777 C 360 536.905, 359.878 535.729, 358.443 537.777 C 357.044 539.776, 356.035 540, 348.443 540 L 340 540 340 535 L 340 530 350 530 L 360 530 360 520 L 360 510 265 510 L 170 510 170 520 M 380 540 L 380 570 420 570 L 460 570 460 565 L 460 560 465 560 L 470 560 470 565 L 470 570 520 570 L 570 570 570 540 L 570 510 475 510 L 380 510 380 540 M 590 515 L 590 520 595 520 L 600 520 600 515 L 600 510 595 510 L 590 510 590 515 M 610 520 L 610 530 600 530 L 590 530 590 550 L 590 570 620 570 L 650 570 650 575 L 650 580 655 580 L 660 580 660 575 L 660 570 670 570 C 679.601 570, 680 570.087, 680 572.174 L 680 574.349 682.314 572.174 C 684.624 570.005, 684.731 570, 732.314 570 L 780 570 780 555 L 780 540 775 540 L 770 540 770 535 L 770 530 765 530 L 760 530 760 525 L 760 520 755 520 L 750 520 750 515 L 750 510 680 510 L 610 510 610 520 M 0.461 565 C 0.461 590.025, 0.590 600.263, 0.749 587.750 C 0.908 575.238, 0.908 554.763, 0.749 542.250 C 0.590 529.738, 0.461 539.975, 0.461 565 M 220 525 L 220 530 225 530 L 230 530 230 525 L 230 520 225 520 L 220 520 220 525 M 390 535 L 390 540 395 540 L 400 540 400 535 L 400 530 395 530 L 390 530 390 535 M 50 545 L 50 550 60 550 L 70 550 70 545 L 70 540 60 540 L 50 540 50 545 M 120 555 L 120 560 125 560 L 130 560 130 555 L 130 550 125 550 L 120 550 120 555 M 330 555 L 330 560 335 560 L 340 560 340 555 L 340 550 335 550 L 330 550 330 555 M 90 565 L 90 570 95 570 L 100 570 100 565 L 100 560 95 560 L 90 560 90 565 M 220 565 L 220 570 225 570 L 230 570 230 565 L 230 560 225 560 L 220 560 220 565 M 270 595 L 270 600 290 600 L 310 600 310 595 L 310 590 290 590 L 270 590 270 595 M 0.491 855 C 0.491 979.025, 0.608 1029.762, 0.750 967.750 C 0.892 905.737, 0.892 804.262, 0.750 742.250 C 0.608 680.237, 0.491 730.975, 0.491 855 M 710 655 L 710 670 705 670 L 700 670 700 675 L 700 680 710 680 L 720 680 720 685 L 720 690 725 690 L 730 690 730 695 L 730 700 740 700 L 750 700 750 670 L 750 640 730 640 L 710 640 710 655 M 480 675 L 480 680 475 680 L 470 680 470 685 L 470 690 465 690 L 460 690 460 710 L 460 730 465 730 L 470 730 470 735 L 470 740 475 740 L 480 740 480 745 L 480 750 495 750 L 510 750 510 745 L 510 740 515 740 L 520 740 520 735 L 520 730 525 730 L 530 730 530 710 L 530 690 525 690 L 520 690 520 685 L 520 680 515 680 L 510 680 510 675 L 510 670 495 670 L 480 670 480 675 M 610 675 L 610 680 605 680 L 600 680 600 685 L 600 690 595 690 L 590 690 590 710 L 590 730 595 730 L 600 730 600 735 L 600 740 605 740 L 610 740 610 745 L 610 750 620 750 L 630 750 630 745 L 630 740 640 740 L 650 740 650 735 L 650 730 655 730 L 660 730 660 710 L 660 690 655 690 L 650 690 650 685 L 650 680 645 680 L 640 680 640 675 L 640 670 625 670 L 610 670 610 675 M 1220 685 L 1220 690 1215 690 L 1210 690 1210 695 L 1210 700 1205 700 L 1200 700 1200 705 L 1200 710 1195 710 L 1190 710 1190 715 L 1190 720 1185 720 L 1180 720 1180 735 L 1180 750 1190 750 L 1200 750 1200 760 L 1200 770 1205 770 L 1210 770 1210 775 L 1210 780 1215 780 L 1220 780 1220 790 L 1220 800 1225 800 L 1230 800 1230 805 L 1230 810 1280 810 L 1330 810 1330 800 L 1330 790 1335 790 L 1340 790 1340 785 L 1340 780 1345 780 L 1350 780 1350 765 L 1350 750 1360 750 L 1370 750 1370 735 L 1370 720 1365 720 L 1360 720 1360 715 L 1360 710 1355 710 L 1350 710 1350 705 L 1350 700 1345 700 L 1340 700 1340 695 L 1340 690 1335 690 L 1330 690 1330 685 L 1330 680 1320 680 L 1310 680 1310 685 L 1310 690 1275 690 L 1240 690 1240 685 L 1240 680 1230 680 L 1220 680 1220 685 M 1420 685 L 1420 690 1415 690 L 1410 690 1410 695 L 1410 700 1405 700 L 1400 700 1400 705 L 1400 710 1395 710 L 1390 710 1390 715 L 1390 720 1385 720 L 1380 720 1380 735 L 1380 750 1390 750 L 1400 750 1400 745 L 1400 740 1410 740 L 1420 740 1420 745 L 1420 750 1425 750 L 1430 750 1430 755 L 1430 760 1445 760 L 1460 760 1460 755 L 1460 750 1470 750 L 1480 750 1480 745 L 1480 740 1495 740 L 1510 740 1510 735 L 1510 730 1525 730 L 1540 730 1540 725 L 1540 720 1550 720 L 1560 720 1560 715 L 1560 710 1555 710 L 1550 710 1550 705 L 1550 700 1545 700 L 1540 700 1540 695 L 1540 690 1535 690 L 1530 690 1530 700 L 1530 710 1520 710 L 1510 710 1510 700 L 1510 690 1475 690 L 1440 690 1440 685 L 1440 680 1430 680 L 1420 680 1420 685 M 740 730 L 740 740 745 740 L 750 740 750 730 L 750 720 745 720 L 740 720 740 730 M 1070 765 L 1070 770 1065 770 L 1060 770 1060 775 L 1060 780 1055 780 L 1050 780 1050 785 L 1050 790 1045 790 L 1040 790 1040 810 L 1040 830 1035 830 L 1030 830 1030 835 L 1030 840 1075 840 L 1120 840 1120 845 L 1120 850 1125 850 L 1130 850 1130 855 L 1130 860 1135 860 L 1140 860 1140 870 L 1140 880 1160 880 L 1180 880 1180 890 L 1180 900 1185 900 L 1190 900 1190 890 L 1190 880 1185 880 L 1180 880 1180 875 L 1180 870 1175 870 L 1170 870 1170 865 L 1170 860 1155 860 L 1140 860 1140 850 L 1140 840 1135 840 L 1130 840 1130 835 L 1130 830 1090 830 L 1050 830 1050 825 L 1050 820 1055 820 L 1060 820 1060 805 L 1060 790 1065 790 L 1070 790 1070 785 L 1070 780 1075 780 L 1080 780 1080 770 L 1080 760 1075 760 L 1070 760 1070 765 M 760 795 L 760 800 755 800 L 750 800 750 805 L 750 810 745 810 L 740 810 740 820 L 740 830 745 830 L 750 830 750 825 L 750 820 755 820 L 760 820 760 810 L 760 800 765 800 L 770 800 770 795 L 770 790 765 790 L 760 790 760 795 M 390 815 L 390 820 370 820 L 350 820 350 825 L 350 830 340 830 L 330 830 330 835 L 330 840 325 840 L 320 840 320 845 L 320 850 315 850 L 310 850 310 855 L 310 860 305 860 L 300 860 300 865 L 300 870 310 870 L 320 870 320 875 L 320 880 330 880 L 340 880 340 885 L 340 890 345 890 L 350 890 350 895 L 350 900 425 900 L 500 900 500 895 L 500 890 510 890 L 520 890 520 885 L 520 880 540 880 L 560 880 560 875 L 560 870 565 870 L 570 870 570 860 L 570 850 560 850 L 550 850 550 845 L 550 840 535 840 L 520 840 520 835 L 520 830 505 830 L 490 830 490 825 L 490 820 470 820 L 450 820 450 815 L 450 810 420 810 L 390 810 390 815 M 400 835 L 400 840 395 840 L 390 840 390 845 L 390 850 385 850 L 380 850 380 860 L 380 870 385 870 L 390 870 390 875 L 390 880 395 880 L 400 880 400 885 L 400 890 430 890 L 460 890 460 885 L 460 880 465 880 L 470 880 470 865 L 470 850 465 850 L 460 850 460 845 L 460 840 455 840 L 450 840 450 835 L 450 830 425 830 L 400 830 400 835 M 1550 835 L 1550 840 1555 840 L 1560 840 1560 835 L 1560 830 1555 830 L 1550 830 1550 835 M 420 850 L 420 860 435 860 L 450 860 450 855 L 450 850 445 850 L 440 850 440 845 L 440 840 430 840 L 420 840 420 850 M 1470 845 L 1470 850 1475 850 L 1480 850 1480 845 L 1480 840 1475 840 L 1470 840 1470 845 M 720 865 L 720 870 725 870 L 730 870 730 875 L 730 880 735 880 L 740 880 740 870 L 740 860 730 860 L 720 860 720 865 M 720 895 L 720 900 715 900 L 710 900 710 910 L 710 920 705 920 L 700 920 700 925 L 700 930 695 930 L 690 930 690 945 L 690 960 685 960 L 680 960 680 970 L 680 980 675 980 L 670 980 670 985 L 670 990 680 990 L 690 990 690 980 L 690 970 695 970 L 700 970 700 960 L 700 950 705 950 L 710 950 710 935 L 710 920 715 920 L 720 920 720 910 L 720 900 725 900 L 730 900 730 895 L 730 890 725 890 L 720 890 720 895 M 660 915 L 660 920 655 920 L 650 920 650 925 L 650 930 645 930 L 640 930 640 935 L 640 940 635 940 L 630 940 630 945 L 630 950 625 950 L 620 950 620 955 L 620 960 610 960 L 600 960 600 965 L 600 970 585 970 L 570 970 570 975 L 570 980 585 980 L 600 980 600 985 L 600 990 605 990 L 610 990 610 980 L 610 970 620 970 L 630 970 630 965 L 630 960 635 960 L 640 960 640 955 L 640 950 645 950 L 650 950 650 945 L 650 940 655 940 L 660 940 660 935 L 660 930 665 930 L 670 930 670 920 L 670 910 665 910 L 660 910 660 915 M 660 1015 L 660 1030 665 1030 L 670 1030 670 1015 L 670 1000 665 1000 L 660 1000 660 1015 M 640 1055 L 640 1060 645 1060 L 650 1060 650 1055 L 650 1050 645 1050 L 640 1050 640 1055" stroke="none" fill="black" fill-rule="evenodd"/>
	<path fill-opacity="0.322" d="M 50 5 L 50 10 45 10 L 40 10 40 15 L 40 20 35 20 L 30 20 30 15 L 30 10 25 10 L 20 10 20 15 L 20 20 15 20 L 10 20 10 15 L 10 10 5 10 L 0 10 0 20 L 0 30 75 30 L 150 30 150 35 L 150 40 155 40 L 160 40 160 65 L 160 90 155 90 L 150 90 150 95 L 150 100 85 100 L 20 100 20 95 L 20 90 10 90 L 0 90 0 100 L 0 110 20 110 L 40 110 40 115 L 40 120 45 120 L 50 120 50 145 L 50 170 45 170 L 40 170 40 175 L 40 180 25 180 L 10 180 10 170 L 10 160 5 160 L 0 160 0 175 L 0 190 75 190 L 150 190 150 195 L 150 200 155 200 L 160 200 160 225 L 160 250 155 250 L 150 250 150 255 L 150 260 75 260 L 0 260 0 265 L 0 270 25 270 L 50 270 50 300 L 50 330 45 330 L 40 330 40 335 L 40 340 20 340 L 0 340 0 345 L 0 350 75 350 L 150 350 150 355 L 150 360 155 360 L 160 360 160 385 L 160 410 155 410 L 150 410 150 415 L 150 420 135 420 L 120 420 120 415 L 120 410 115 410 L 110 410 110 415 L 110 420 105 420 L 100 420 100 415 L 100 410 90 410 L 80 410 80 415 L 80 420 75 420 L 70 420 70 410 L 70 400 60 400 L 50 400 50 405 L 50 410 25 410 L 0 410 0 420 L 0 430 25 430 L 50 430 50 450 L 50 470 45 470 L 40 470 40 475 L 40 480 35 480 L 30 480 30 490 L 30 500 25 500 L 20 500 20 495 L 20 490 10 490 L 0 490 0 500 L 0 510 75 510 L 150 510 150 515 L 150 520 155 520 L 160 520 160 545 L 160 570 155 570 L 150 570 150 575 L 150 580 75 580 L 0 580 0 595 L 0 610 135 610 L 270 610 270 605 L 270 600 260 600 L 250 600 250 595 L 250 590 335 590 L 420 590 420 595 L 420 600 430 600 L 440 600 440 605 L 440 610 475 610 L 510 610 510 605 L 510 600 515 600 L 520 600 520 605 L 520 610 535 610 L 550 610 550 605 L 550 600 560 600 L 570 600 570 595 L 570 590 590 590 L 610 590 610 595 L 610 600 615 600 L 620 600 620 605 L 620 610 670 610 L 720 610 720 615 L 720 620 735 620 L 750 620 750 610 L 750 600 740 600 L 730 600 730 595 L 730 590 750 590 L 770 590 770 595 L 770 600 775 600 L 780 600 780 605 L 780 610 785 610 L 790 610 790 700 L 790 790 785 790 L 780 790 780 795 L 780 800 775 800 L 770 800 770 810 L 770 820 765 820 L 760 820 760 825 L 760 830 695 830 L 630 830 630 825 L 630 820 625 820 L 620 820 620 815 L 620 810 610 810 L 600 810 600 805 L 600 800 590 800 L 580 800 580 795 L 580 790 565 790 L 550 790 550 785 L 550 780 520 780 L 490 780 490 775 L 490 770 495 770 L 500 770 500 765 L 500 760 505 760 L 510 760 510 755 L 510 750 490 750 L 470 750 470 745 L 470 740 465 740 L 460 740 460 730 L 460 720 455 720 L 450 720 450 725 L 450 730 445 730 L 440 730 440 735 L 440 740 435 740 L 430 740 430 755 L 430 770 435 770 L 440 770 440 775 L 440 780 390 780 L 340 780 340 785 L 340 790 320 790 L 300 790 300 795 L 300 800 290 800 L 280 800 280 805 L 280 810 270 810 L 260 810 260 820 L 260 830 255 830 L 250 830 250 840 L 250 850 245 850 L 240 850 240 860 L 240 870 235 870 L 230 870 230 880 L 230 890 225 890 L 220 890 220 895 L 220 900 225 900 L 230 900 230 905 L 230 910 235 910 L 240 910 240 915 L 240 920 245 920 L 250 920 250 925 L 250 930 255 930 L 260 930 260 935 L 260 940 265 940 L 270 940 270 945 L 270 950 280 950 L 290 950 290 955 L 290 960 300 960 L 310 960 310 965 L 310 970 320 970 L 330 970 330 975 L 330 980 440 980 L 550 980 550 975 L 550 970 560 970 L 570 970 570 965 L 570 960 580 960 L 590 960 590 955 L 590 950 595 950 L 600 950 600 945 L 600 940 610 940 L 620 940 620 935 L 620 930 625 930 L 630 930 630 925 L 630 920 635 920 L 640 920 640 910 L 640 900 645 900 L 650 900 650 885 L 650 870 645 870 L 640 870 640 865 L 640 860 690 860 L 740 860 740 870 L 740 880 735 880 L 730 880 730 890 L 730 900 725 900 L 720 900 720 920 L 720 940 715 940 L 710 940 710 950 L 710 960 705 960 L 700 960 700 970 L 700 980 695 980 L 690 980 690 990 L 690 1000 685 1000 L 680 1000 680 1010 L 680 1020 675 1020 L 670 1020 670 1030 L 670 1040 665 1040 L 660 1040 660 1050 L 660 1060 655 1060 L 650 1060 650 1070 L 650 1080 1284.851 1080 L 1919.702 1080 1920.334 990.750 C 1920.682 941.663, 1920.865 842.550, 1920.741 770.500 C 1920.618 698.450, 1920.397 664.362, 1920.250 694.750 L 1919.983 750 1859.992 750 L 1800 750 1800 745 L 1800 740 1790 740 L 1780 740 1780 735 L 1780 730 1765 730 L 1750 730 1750 725 L 1750 720 1740 720 L 1730 720 1730 725 L 1730 730 1720 730 L 1710 730 1710 725 L 1710 720 1695 720 L 1680 720 1680 715 L 1680 710 1665 710 L 1650 710 1650 715 L 1650 720 1640 720 L 1630 720 1630 715 L 1630 710 1625 710 L 1620 710 1620 715 L 1620 720 1615 720 L 1610 720 1610 715 L 1610 710 1605 710 L 1600 710 1600 715 L 1600 720 1595 720 L 1590 720 1590 725 L 1590 730 1575 730 L 1560 730 1560 740 L 1560 750 1555 750 L 1550 750 1550 740 L 1550 730 1545 730 L 1540 730 1540 735 L 1540 740 1525 740 L 1510 740 1510 745 L 1510 750 1495 750 L 1480 750 1480 755 L 1480 760 1455 760 L 1430 760 1430 755 L 1430 750 1420 750 L 1410 750 1410 745 L 1410 740 1405 740 L 1400 740 1400 745 L 1400 750 1375 750 L 1350 750 1350 760 L 1350 770 1360 770 L 1370 770 1370 775 L 1370 780 1355 780 L 1340 780 1340 785 L 1340 790 1335 790 L 1330 790 1330 800 L 1330 810 1265 810 L 1200 810 1200 805 L 1200 800 1210 800 L 1220 800 1220 790 L 1220 780 1210 780 L 1200 780 1200 765 L 1200 750 1105 750 L 1010 750 1010 670 L 1010 590 1005 590 L 1000 590 1000 585 L 1000 580 990 580 L 980 580 980 575 L 980 570 985 570 L 990 570 990 565 L 990 560 995 560 L 1000 560 1000 565 L 1000 570 1180 570 L 1360 570 1360 580 L 1360 590 1365 590 L 1370 590 1370 580 L 1370 570 1410 570 L 1450 570 1450 600 L 1450 630 1455 630 L 1460 630 1460 640 L 1460 650 1445 650 L 1430 650 1430 655 L 1430 660 1420 660 L 1410 660 1410 670 L 1410 680 1425 680 L 1440 680 1440 685 L 1440 690 1475 690 L 1510 690 1510 685 L 1510 680 1525 680 L 1540 680 1540 670 L 1540 660 1530 660 L 1520 660 1520 650 L 1520 640 1505 640 L 1490 640 1490 635 L 1490 630 1485 630 L 1480 630 1480 625 L 1480 620 1475 620 L 1470 620 1470 605 L 1470 590 1475 590 L 1480 590 1480 580 L 1480 570 1600 570 L 1720 570 1720 580 L 1720 590 1725 590 L 1730 590 1730 610 L 1730 630 1720 630 L 1710 630 1710 635 L 1710 640 1705 640 L 1700 640 1700 655 L 1700 670 1705 670 L 1710 670 1710 665 L 1710 660 1720 660 L 1730 660 1730 650 L 1730 640 1735 640 L 1740 640 1740 650 L 1740 660 1745 660 L 1750 660 1750 665 L 1750 670 1755 670 L 1760 670 1760 680 L 1760 690 1790 690 L 1820 690 1820 685 L 1820 680 1815 680 L 1810 680 1810 675 L 1810 670 1790 670 L 1770 670 1770 655 L 1770 640 1760 640 L 1750 640 1750 635 L 1750 630 1760 630 L 1770 630 1770 615 L 1770 600 1760 600 L 1750 600 1750 595 L 1750 590 1765 590 L 1780 590 1780 580.007 L 1780 570.014 1850.245 569.757 L 1920.489 569.500 1920.367 549.250 C 1920.299 538.112, 1920.189 524.725, 1920.122 519.500 L 1920 510 1915 510 L 1910 510 1910 505 L 1910 500 1914.945 500 L 1919.890 500 1920.195 504.750 C 1920.363 507.363, 1920.500 471.250, 1920.500 424.500 L 1920.500 339.500 1915.250 339.843 L 1910 340.185 1910 330.093 L 1910 320 1915 320 L 1920 320 1920 297.151 C 1920 284.584, 1920.282 270.971, 1920.627 266.901 L 1921.253 259.500 1915.627 259.843 L 1910 260.185 1910 255.093 L 1910 250 1915 250 L 1920 250 1920 230 L 1920 210 1915 210 L 1910 210 1910 205 L 1910 200 1915 200 L 1920 200 1920 195 L 1920 190 1915 190 L 1910 190 1910 185 L 1910 180 1914.945 180 L 1919.890 180 1920.195 184.750 C 1920.451 188.730, 1920.352 97.247, 1920.087 84.250 L 1920 80 1915 80 L 1910 80 1910 75 L 1910 70 1914.841 70 L 1919.681 70 1920.280 41.250 C 1920.609 25.437, 1920.618 9.688, 1920.300 6.250 L 1919.722 0 1909.861 0 L 1900 0 1900 265 L 1900 530 1895 530 L 1890 530 1890 525 L 1890 520 1830 520 L 1770 520 1770 525 L 1770 530 1755 530 L 1740 530 1740 520 L 1740 510 1735 510 L 1730 510 1730 495 L 1730 480 1725 480 L 1720 480 1720 475 L 1720 470 1715 470 L 1710 470 1710 415 L 1710 360 1705 360 L 1700 360 1700 355 L 1700 350 1690 350 L 1680 350 1680 340 L 1680 330 1670 330 L 1660 330 1660 325 L 1660 320 1670 320 L 1680 320 1680 300 L 1680 280 1660 280 L 1640 280 1640 270 L 1640 260 1625 260 L 1610 260 1610 270 L 1610 280 1605 280 L 1600 280 1600 285 L 1600 290 1595 290 L 1590 290 1590 285 L 1590 280 1585 280 L 1580 280 1580 285 L 1580 290 1565 290 L 1550 290 1550 285 L 1550 280 1540 280 L 1530 280 1530 285 L 1530 290 1525 290 L 1520 290 1520 285 L 1520 280 1495 280 L 1470 280 1470 285 L 1470 290 1450 290 L 1430 290 1430 295 L 1430 300 1425 300 L 1420 300 1420 310 L 1420 320 1410 320 L 1400 320 1400 335 L 1400 350 1395 350 L 1390 350 1390 355 L 1390 360 1395 360 L 1400 360 1400 365 L 1400 370 1395 370 L 1390 370 1390 400 L 1390 430 1395 430 L 1400 430 1400 440 L 1400 450 1405 450 L 1410 450 1410 470 L 1410 490 1405 490 L 1400 490 1400 495 L 1400 500 1390 500 L 1380 500 1380 505 L 1380 510 1375 510 L 1370 510 1370 515 L 1370 520 1365 520 L 1360 520 1360 530 L 1360 540 1355 540 L 1350 540 1350 535 L 1350 530 1345 530 L 1340 530 1340 525 L 1340 520 1265 520 L 1190 520 1190 525 L 1190 530 1130 530 L 1070 530 1070 535 L 1070 540 1130 540 L 1190 540 1190 545 L 1190 550 1105 550 L 1020 550 1020 545 L 1020 540 1025 540 L 1030 540 1030 530 L 1030 520 1035 520 L 1040 520 1040 495 L 1040 470 1035 470 L 1030 470 1030 465 L 1030 460 1025 460 L 1020 460 1020 455 L 1020 450 1000 450 L 980 450 980 225 L 980 0 975 0 L 970 0 970 5 L 970 10 965 10 L 960 10 960 25 L 960 40 965 40 L 970 40 970 50 L 970 60 965 60 L 960 60 960 75 L 960 90 965 90 L 970 90 970 100 L 970 110 965 110 L 960 110 960 120 L 960 130 965 130 L 970 130 970 135 L 970 140 965 140 L 960 140 960 155 L 960 170 965 170 L 970 170 970 195 L 970 220 965 220 L 960 220 960 245 L 960 270 965 270 L 970 270 970 275 L 970 280 965 280 L 960 280 960 290 L 960 300 965 300 L 970 300 970 310 L 970 320 965 320 L 960 320 960 345 L 960 370 955 370 L 950 370 950 185 L 950 0 935 0 L 920 0 920 175 L 920 350 925 350 L 930 350 930 415 L 930 480 925 480 L 920 480 920 505 L 920 530 915 530 L 910 530 910 510 L 910 490 900 490 L 890 490 890 515 L 890 540 895 540 L 900 540 900 560 L 900 580 890 580 L 880 580 880 585 L 880 590 875 590 L 870 590 870 585 L 870 580 865 580 L 860 580 860 555 L 860 530 855 530 L 850 530 850 525 L 850 520 840 520 L 830 520 830 515 L 830 510 835 510 L 840 510 840 505 L 840 500 835 500 L 830 500 830 495 L 830 490 825 490 L 820 490 820 485 L 820 480 815 480 L 810 480 810 475 L 810 470 800 470 L 790 470 790 465 L 790 460 785 460 L 780 460 780 465 L 780 470 770 470 L 760 470 760 475 L 760 480 755 480 L 750 480 750 485 L 750 490 745 490 L 740 490 740 495 L 740 500 720 500 L 700 500 700 495 L 700 490 695 490 L 690 490 690 465 L 690 440 695 440 L 700 440 700 435 L 700 430 745 430 L 790 430 790 440 L 790 450 800 450 L 810 450 810 225 L 810 0 800 0 L 790 0 790 10 L 790 20 745 20 L 700 20 700 15 L 700 10 695 10 L 690 10 690 5 L 690 0 685 0 L 680 0 680 5 L 680 10 675 10 L 670 10 670 15 L 670 20 575 20 L 480 20 480 10 L 480 0 475 0 L 470 0 470 5 L 470 10 465 10 L 460 10 460 15 L 460 20 365 20 L 270 20 270 10 L 270 0 265 0 L 260 0 260 5 L 260 10 255 10 L 250 10 250 15 L 250 20 215 20 L 180 20 180 15 L 180 10 170 10 L 160 10 160 15 L 160 20 150 20 L 140 20 140 15 L 140 10 125 10 L 110 10 110 15 L 110 20 85 20 L 60 20 60 10 L 60 0 55 0 L 50 0 50 5 M 0.370 20 C 0.370 25.775, 0.535 28.138, 0.737 25.250 C 0.939 22.363, 0.939 17.638, 0.737 14.750 C 0.535 11.863, 0.370 14.225, 0.370 20 M 170 65 L 170 100 265 100 L 360 100 360 95 L 360 90 365 90 L 370 90 370 65 L 370 40 365 40 L 360 40 360 35 L 360 30 265 30 L 170 30 170 65 M 380 65 L 380 100 475 100 L 570 100 570 95 L 570 90 575 90 L 580 90 580 65 L 580 40 575 40 L 570 40 570 35 L 570 30 475 30 L 380 30 380 65 M 590 65 L 590 100 685 100 L 780 100 780 95 L 780 90 785 90 L 790 90 790 65 L 790 40 785 40 L 780 40 780 35 L 780 30 685 30 L 590 30 590 65 M 0.370 100 C 0.370 105.775, 0.535 108.138, 0.737 105.250 C 0.939 102.362, 0.939 97.638, 0.737 94.750 C 0.535 91.862, 0.370 94.225, 0.370 100 M 1910 95 L 1910 100 1915 100 L 1920 100 1920 95 L 1920 90 1915 90 L 1910 90 1910 95 M 60 145 L 60 180 155 180 L 250 180 250 175 L 250 170 255 170 L 260 170 260 145 L 260 120 255 120 L 250 120 250 115 L 250 110 155 110 L 60 110 60 145 M 270 145 L 270 180 365 180 L 460 180 460 175 L 460 170 465 170 L 470 170 470 145 L 470 120 465 120 L 460 120 460 115 L 460 110 365 110 L 270 110 270 145 M 480 145 L 480 180 575 180 L 670 180 670 175 L 670 170 675 170 L 680 170 680 145 L 680 120 675 120 L 670 120 670 115 L 670 110 575 110 L 480 110 480 145 M 700 115 L 700 120 695 120 L 690 120 690 145 L 690 170 695 170 L 700 170 700 175 L 700 180 745 180 L 790 180 790 145 L 790 110 745 110 L 700 110 700 115 M 0.402 175 C 0.402 183.525, 0.556 187.012, 0.743 182.750 C 0.931 178.488, 0.931 171.512, 0.743 167.250 C 0.556 162.988, 0.402 166.475, 0.402 175 M 170 225 L 170 260 265 260 L 360 260 360 255 L 360 250 365 250 L 370 250 370 225 L 370 200 365 200 L 360 200 360 195 L 360 190 265 190 L 170 190 170 225 M 380 225 L 380 260 475 260 L 570 260 570 255 L 570 250 575 250 L 580 250 580 225 L 580 200 575 200 L 570 200 570 195 L 570 190 475 190 L 380 190 380 225 M 590 225 L 590 260 685 260 L 780 260 780 255 L 780 250 785 250 L 790 250 790 225 L 790 200 785 200 L 780 200 780 195 L 780 190 685 190 L 590 190 590 225 M 1790 245 L 1790 250 1785 250 L 1780 250 1780 260 L 1780 270 1790 270 L 1800 270 1800 280 L 1800 290 1795 290 L 1790 290 1790 300 L 1790 310 1780 310 L 1770 310 1770 315 L 1770 320 1765 320 L 1760 320 1760 325 L 1760 330 1775 330 L 1790 330 1790 340 L 1790 350 1795 350 L 1800 350 1800 360 L 1800 370 1775 370 L 1750 370 1750 375 L 1750 380 1745 380 L 1740 380 1740 435 L 1740 490 1745 490 L 1750 490 1750 495 L 1750 500 1795 500 L 1840 500 1840 495 L 1840 490 1845 490 L 1850 490 1850 435 L 1850 380 1845 380 L 1840 380 1840 375 L 1840 370 1825 370 L 1810 370 1810 355 L 1810 340 1805 340 L 1800 340 1800 325 L 1800 310 1810 310 L 1820 310 1820 305 L 1820 300 1825 300 L 1830 300 1830 295 L 1830 290 1820 290 L 1810 290 1810 275 L 1810 260 1815 260 L 1820 260 1820 250 L 1820 240 1805 240 L 1790 240 1790 245 M 0.300 265 C 0.300 268.025, 0.487 269.262, 0.716 267.750 C 0.945 266.238, 0.945 263.762, 0.716 262.250 C 0.487 260.738, 0.300 261.975, 0.300 265 M 60 305 L 60 340 155 340 L 250 340 250 335 L 250 330 255 330 L 260 330 260 305 L 260 280 255 280 L 250 280 250 275 L 250 270 155 270 L 60 270 60 305 M 270 305 L 270 340 365 340 L 460 340 460 335 L 460 330 465 330 L 470 330 470 305 L 470 280 465 280 L 460 280 460 275 L 460 270 365 270 L 270 270 270 305 M 480 305 L 480 340 575 340 L 670 340 670 335 L 670 330 675 330 L 680 330 680 305 L 680 280 675 280 L 670 280 670 275 L 670 270 575 270 L 480 270 480 305 M 700 275 L 700 280 695 280 L 690 280 690 305 L 690 330 695 330 L 700 330 700 335 L 700 340 745 340 L 790 340 790 305 L 790 270 745 270 L 700 270 700 275 M 1530 295 L 1530 300 1535 300 L 1540 300 1540 295 L 1540 290 1535 290 L 1530 290 1530 295 M 1640 295 L 1640 300 1650 300 L 1660 300 1660 295 L 1660 290 1650 290 L 1640 290 1640 295 M 1800 295 L 1800 300 1805 300 L 1810 300 1810 295 L 1810 290 1805 290 L 1800 290 1800 295 M 1570 310 L 1570 320 1585 320 L 1600 320 1600 310 L 1600 300 1585 300 L 1570 300 1570 310 M 1290 335 L 1290 340 1285 340 L 1280 340 1280 355 L 1280 370 1275 370 L 1270 370 1270 360 L 1270 350 1250 350 L 1230 350 1230 360 L 1230 370 1235 370 L 1240 370 1240 375 L 1240 380 1250 380 L 1260 380 1260 385 L 1260 390 1265 390 L 1270 390 1270 395 L 1270 400 1250 400 L 1230 400 1230 405 L 1230 410 1225 410 L 1220 410 1220 450 L 1220 490 1225 490 L 1230 490 1230 495 L 1230 500 1285 500 L 1340 500 1340 495 L 1340 490 1345 490 L 1350 490 1350 450 L 1350 410 1345 410 L 1340 410 1340 405 L 1340 400 1320 400 L 1300 400 1300 395 L 1300 390 1305 390 L 1310 390 1310 385 L 1310 380 1315 380 L 1320 380 1320 375 L 1320 370 1325 370 L 1330 370 1330 360 L 1330 350 1340 350 L 1350 350 1350 345 L 1350 340 1340 340 L 1330 340 1330 345 L 1330 350 1320 350 L 1310 350 1310 355 L 1310 360 1305 360 L 1300 360 1300 355 L 1300 350 1295 350 L 1290 350 1290 345 L 1290 340 1295 340 L 1300 340 1300 335 L 1300 330 1295 330 L 1290 330 1290 335 M 1560 340 L 1560 350 1565 350 L 1570 350 1570 340 L 1570 330 1565 330 L 1560 330 1560 340 M 0.300 345 C 0.300 348.025, 0.487 349.262, 0.716 347.750 C 0.945 346.238, 0.945 343.762, 0.716 342.250 C 0.487 340.738, 0.300 341.975, 0.300 345 M 170 385 L 170 420 265 420 L 360 420 360 415 L 360 410 365 410 L 370 410 370 385 L 370 360 365 360 L 360 360 360 355 L 360 350 265 350 L 170 350 170 385 M 380 385 L 380 420 475 420 L 570 420 570 415 L 570 410 575 410 L 580 410 580 385 L 580 360 575 360 L 570 360 570 355 L 570 350 475 350 L 380 350 380 385 M 590 385 L 590 420 685 420 L 780 420 780 415 L 780 410 785 410 L 790 410 790 385 L 790 360 785 360 L 780 360 780 355 L 780 350 685 350 L 590 350 590 385 M 1420 375 L 1420 380 1415 380 L 1410 380 1410 395 L 1410 410 1415 410 L 1420 410 1420 415 L 1420 420 1425 420 L 1430 420 1430 425 L 1430 430 1425 430 L 1420 430 1420 435 L 1420 440 1425 440 L 1430 440 1430 470 L 1430 500 1425 500 L 1420 500 1420 505 L 1420 510 1415 510 L 1410 510 1410 515 L 1410 520 1440 520 L 1470 520 1470 505 L 1470 490 1475 490 L 1480 490 1480 485 L 1480 480 1485 480 L 1490 480 1490 475 L 1490 470 1485 470 L 1480 470 1480 460 L 1480 450 1475 450 L 1470 450 1470 445 L 1470 440 1465 440 L 1460 440 1460 430 L 1460 420 1450 420 L 1440 420 1440 405 L 1440 390 1435 390 L 1430 390 1430 380 L 1430 370 1425 370 L 1420 370 1420 375 M 1470 410 L 1470 420 1475 420 L 1480 420 1480 425 L 1480 430 1485 430 L 1490 430 1490 435 L 1490 440 1495 440 L 1500 440 1500 445 L 1500 450 1505 450 L 1510 450 1510 470 L 1510 490 1590 490 L 1670 490 1670 495 L 1670 500 1585 500 L 1500 500 1500 510 L 1500 520 1600 520 L 1700 520 1700 505 L 1700 490 1690 490 L 1680 490 1680 460 L 1680 430 1675 430 L 1670 430 1670 425 L 1670 420 1665 420 L 1660 420 1660 430 L 1660 440 1650 440 L 1640 440 1640 435 L 1640 430 1635 430 L 1630 430 1630 425 L 1630 420 1620 420 L 1610 420 1610 410 L 1610 400 1540 400 L 1470 400 1470 410 M 0.370 420 C 0.370 425.775, 0.535 428.137, 0.737 425.250 C 0.939 422.363, 0.939 417.637, 0.737 414.750 C 0.535 411.863, 0.370 414.225, 0.370 420 M 950 450 L 950 480 955 480 L 960 480 960 460 L 960 440 965 440 L 970 440 970 430 L 970 420 960 420 L 950 420 950 450 M 60 465 L 60 500 155 500 L 250 500 250 495 L 250 490 255 490 L 260 490 260 465 L 260 440 255 440 L 250 440 250 435 L 250 430 155 430 L 60 430 60 465 M 270 465 L 270 500 365 500 L 460 500 460 495 L 460 490 465 490 L 470 490 470 465 L 470 440 465 440 L 460 440 460 435 L 460 430 365 430 L 270 430 270 465 M 480 465 L 480 500 575 500 L 670 500 670 495 L 670 490 675 490 L 680 490 680 465 L 680 440 675 440 L 670 440 670 435 L 670 430 575 430 L 480 430 480 465 M 10 460 L 10 470 5.500 470 L 1 470 1 475 L 1 480 10.500 480 L 20 480 20 465 L 20 450 15 450 L 10 450 10 460 M 0.370 500 C 0.370 505.775, 0.535 508.137, 0.737 505.250 C 0.939 502.363, 0.939 497.637, 0.737 494.750 C 0.535 491.863, 0.370 494.225, 0.370 500 M 810 495 L 810 500 815 500 L 820 500 820 505 L 820 510 825 510 L 830 510 830 505 L 830 500 825 500 L 820 500 820 495 L 820 490 815 490 L 810 490 810 495 M 170 545 L 170 580 185 580 L 200 580 200 575 L 200 570 210 570 L 220 570 220 575 L 220 580 290 580 L 360 580 360 575 L 360 570 365 570 L 370 570 370 545 L 370 520 365 520 L 360 520 360 515 L 360 510 265 510 L 170 510 170 545 M 380 545 L 380 580 475 580 L 570 580 570 575 L 570 570 575 570 L 580 570 580 545 L 580 520 575 520 L 570 520 570 515 L 570 510 475 510 L 380 510 380 545 M 590 545 L 590 580 685 580 L 780 580 780 575 L 780 570 785 570 L 790 570 790 560 L 790 550 785 550 L 780 550 780 545 L 780 540 775 540 L 770 540 770 535 L 770 530 765 530 L 760 530 760 525 L 760 520 755 520 L 750 520 750 515 L 750 510 670 510 L 590 510 590 545 M 1 535 L 1 540 5.500 540 L 10 540 10 535 L 10 530 5.500 530 L 1 530 1 535 M 810 535 L 810 540 815 540 L 820 540 820 535 L 820 530 815 530 L 810 530 810 535 M 1870 535 L 1870 540 1875 540 L 1880 540 1880 545 L 1880 550 1885 550 L 1890 550 1890 545 L 1890 540 1885 540 L 1880 540 1880 535 L 1880 530 1875 530 L 1870 530 1870 535 M 1340 545 L 1340 550 1345 550 L 1350 550 1350 545 L 1350 540 1345 540 L 1340 540 1340 545 M 1750 545 L 1750 550 1755 550 L 1760 550 1760 555 L 1760 560 1765 560 L 1770 560 1770 555 L 1770 550 1775 550 L 1780 550 1780 545 L 1780 540 1765 540 L 1750 540 1750 545 M 1010 555 L 1010 560 1015 560 L 1020 560 1020 555 L 1020 550 1015 550 L 1010 550 1010 555 M 1 565 L 1 570 10.500 570 L 20 570 20 565 L 20 560 10.500 560 L 1 560 1 565 M 180 565 L 180 570 190 570 L 200 570 200 565 L 200 560 190 560 L 180 560 180 565 M 810 580 L 810 590 815 590 L 820 590 820 585 L 820 580 830 580 L 840 580 840 575 L 840 570 825 570 L 810 570 810 580 M 920 575 L 920 580 940 580 L 960 580 960 575 L 960 570 940 570 L 920 570 920 575 M 1740 580 L 1740 590 1745 590 L 1750 590 1750 580 L 1750 570 1745 570 L 1740 570 1740 580 M 660 595 L 660 600 675 600 L 690 600 690 595 L 690 590 675 590 L 660 590 660 595 M 700 595 L 700 600 710 600 L 720 600 720 595 L 720 590 710 590 L 700 590 700 595 M 1 720 L 1 800 40.500 800 L 80 800 80 795 L 80 790 85 790 L 90 790 90 795 L 90 800 110 800 L 130 800 130 775 L 130 750 195 750 L 260 750 260 745 L 260 740 265 740 L 270 740 270 735 L 270 730 275 730 L 280 730 280 705 L 280 680 185 680 L 90 680 90 685 L 90 690 80 690 L 70 690 70 695 L 70 700 65 700 L 60 700 60 710 L 60 720 55 720 L 50 720 50 705 L 50 690 55 690 L 60 690 60 675 L 60 660 55 660 L 50 660 50 665 L 50 670 45 670 L 40 670 40 655 L 40 640 35 640 L 30 640 30 645 L 30 650 25 650 L 20 650 20 655 L 20 660 15 660 L 10 660 10 650 L 10 640 5.500 640 L 1 640 1 720 M 1230 655 L 1230 660 1220 660 L 1210 660 1210 670 L 1210 680 1225 680 L 1240 680 1240 685 L 1240 690 1275 690 L 1310 690 1310 685 L 1310 680 1325 680 L 1340 680 1340 670 L 1340 660 1330 660 L 1320 660 1320 655 L 1320 650 1275 650 L 1230 650 1230 655 M 40 685 L 40 690 35 690 L 30 690 30 695 L 30 700 35 700 L 40 700 40 695 L 40 690 45 690 L 50 690 50 685 L 50 680 45 680 L 40 680 40 685 M 70 705 L 70 710 75 710 L 80 710 80 705 L 80 700 75 700 L 70 700 70 705 M 720 710 L 720 720 725 720 L 730 720 730 710 L 730 700 725 700 L 720 700 720 710 M 580 725 L 580 730 575 730 L 570 730 570 745 L 570 760 575 760 L 580 760 580 765 L 580 770 585 770 L 590 770 590 775 L 590 780 610 780 L 630 780 630 775 L 630 770 635 770 L 640 770 640 765 L 640 760 650 760 L 660 760 660 755 L 660 750 655 750 L 650 750 650 745 L 650 740 645 740 L 640 740 640 745 L 640 750 620 750 L 600 750 600 745 L 600 740 595 740 L 590 740 590 730 L 590 720 585 720 L 580 720 580 725 M 70 745 L 70 750 75 750 L 80 750 80 745 L 80 740 75 740 L 70 740 70 745 M 80 765 L 80 770 85 770 L 90 770 90 765 L 90 760 85 760 L 80 760 80 765 M 100 765 L 100 770 110 770 L 120 770 120 765 L 120 760 110 760 L 100 760 100 765 M 1070 765 L 1070 770 1065 770 L 1060 770 1060 775 L 1060 780 1055 780 L 1050 780 1050 785 L 1050 790 1045 790 L 1040 790 1040 795 L 1040 800 1035 800 L 1030 800 1030 815 L 1030 830 1020 830 L 1010 830 1010 835 L 1010 840 1065 840 L 1120 840 1120 845 L 1120 850 1125 850 L 1130 850 1130 925 L 1130 1000 1135 1000 L 1140 1000 1140 990 L 1140 980 1160 980 L 1180 980 1180 975 L 1180 970 1185 970 L 1190 970 1190 925 L 1190 880 1185 880 L 1180 880 1180 875 L 1180 870 1175 870 L 1170 870 1170 865 L 1170 860 1155 860 L 1140 860 1140 850 L 1140 840 1135 840 L 1130 840 1130 835 L 1130 830 1090 830 L 1050 830 1050 825 L 1050 820 1055 820 L 1060 820 1060 805 L 1060 790 1065 790 L 1070 790 1070 785 L 1070 780 1075 780 L 1080 780 1080 775 L 1080 770 1085 770 L 1090 770 1090 765 L 1090 760 1080 760 L 1070 760 1070 765 M 1420 765 L 1420 770 1425 770 L 1430 770 1430 765 L 1430 760 1425 760 L 1420 760 1420 765 M 1560 770 L 1560 780 1555 780 L 1550 780 1550 790 L 1550 800 1560 800 L 1570 800 1570 780 L 1570 760 1565 760 L 1560 760 1560 770 M 140 775 L 140 780 150 780 L 160 780 160 775 L 160 770 150 770 L 140 770 140 775 M 1390 785 L 1390 800 1405 800 L 1420 800 1420 795 L 1420 790 1415 790 L 1410 790 1410 780 L 1410 770 1400 770 L 1390 770 1390 785 M 1190 785 L 1190 790 1195 790 L 1200 790 1200 785 L 1200 780 1195 780 L 1190 780 1190 785 M 140 795 L 140 800 150 800 L 160 800 160 795 L 160 790 150 790 L 140 790 140 795 M 290 815 L 290 820 285 820 L 280 820 280 825 L 280 830 270 830 L 260 830 260 840 L 260 850 265 850 L 270 850 270 855 L 270 860 275 860 L 280 860 280 855 L 280 850 285 850 L 290 850 290 845 L 290 840 300 840 L 310 840 310 835 L 310 830 320 830 L 330 830 330 835 L 330 840 325 840 L 320 840 320 845 L 320 850 315 850 L 310 850 310 855 L 310 860 305 860 L 300 860 300 865 L 300 870 310 870 L 320 870 320 875 L 320 880 325 880 L 330 880 330 890 L 330 900 425 900 L 520 900 520 895 L 520 890 540 890 L 560 890 560 885 L 560 880 565 880 L 570 880 570 865 L 570 850 565 850 L 560 850 560 845 L 560 840 550 840 L 540 840 540 835 L 540 830 520 830 L 500 830 500 825 L 500 820 485 820 L 470 820 470 815 L 470 810 400 810 L 330 810 330 815 L 330 820 320 820 L 310 820 310 815 L 310 810 300 810 L 290 810 290 815 M 330 825 L 330 830 340 830 L 350 830 350 825 L 350 820 340 820 L 330 820 330 825 M 1 905 L 1 980 15.500 980 L 30 980 30 975 L 30 970 40 970 L 50 970 50 965 L 50 960 55 960 L 60 960 60 950 L 60 940 65 940 L 70 940 70 930 L 70 920 75 920 L 80 920 80 895 L 80 870 70 870 L 60 870 60 865 L 60 860 55 860 L 50 860 50 855 L 50 850 40 850 L 30 850 30 845 L 30 840 25 840 L 20 840 20 835 L 20 830 10.500 830 L 1 830 1 905 M 1550 835 L 1550 840 1555 840 L 1560 840 1560 835 L 1560 830 1555 830 L 1550 830 1550 835 M 1450 850 L 1450 860 1455 860 L 1460 860 1460 850 L 1460 840 1455 840 L 1450 840 1450 850 M 1470 845 L 1470 850 1475 850 L 1480 850 1480 855 L 1480 860 1485 860 L 1490 860 1490 855 L 1490 850 1485 850 L 1480 850 1480 845 L 1480 840 1475 840 L 1470 840 1470 845 M 1540 855 L 1540 860 1545 860 L 1550 860 1550 855 L 1550 850 1545 850 L 1540 850 1540 855 M 1500 865 L 1500 870 1505 870 L 1510 870 1510 875 L 1510 880 1515 880 L 1520 880 1520 875 L 1520 870 1525 870 L 1530 870 1530 865 L 1530 860 1515 860 L 1500 860 1500 865 M 1140 930 L 1140 970 1160 970 L 1180 970 1180 935 L 1180 900 1175 900 L 1170 900 1170 895 L 1170 890 1155 890 L 1140 890 1140 930 M 220 1025 L 220 1030 205 1030 L 190 1030 190 1035 L 190 1040 175 1040 L 160 1040 160 1045 L 160 1050 155 1050 L 150 1050 150 1055 L 150 1060 140 1060 L 130 1060 130 1065 L 130 1070 125 1070 L 120 1070 120 1075 L 120 1080 320 1080 L 520 1080 520 1075 L 520 1070 515 1070 L 510 1070 510 1065 L 510 1060 505 1060 L 500 1060 500 1055 L 500 1050 490 1050 L 480 1050 480 1045 L 480 1040 470 1040 L 460 1040 460 1035 L 460 1030 445 1030 L 430 1030 430 1025 L 430 1020 325 1020 L 220 1020 220 1025" stroke="none" fill="black" fill-rule="evenodd"/>
	<path fill-opacity="0.341" d="M 50 10 L 50 20 25 20 L 0 20 0 25 L 0 30 80 30 L 160 30 160 65 L 160 100 80 100 L 0 100 0 105 L 0 110 25 110 L 50 110 50 145 L 50 180 30 180 L 10 180 10 175 L 10 170 5 170 L 0 170 0 180 L 0 190 80 190 L 160 190 160 225 L 160 260 80 260 L 0 260 0 265 L 0 270 25 270 L 50 270 50 305 L 50 340 25 340 L 0 340 0 345 L 0 350 80 350 L 160 350 160 385 L 160 420 80 420 L 0 420 0 425 L 0 430 25 430 L 50 430 50 465 L 50 500 25 500 L 0 500 0 505 L 0 510 80 510 L 160 510 160 545 L 160 580 80 580 L 0 580 0 585 L 0 590 385 590 L 770 590 770 595 L 770 600 775 600 L 780 600 780 605 L 780 610 785 610 L 790 610 790 700 L 790 790 785 790 L 780 790 780 800 L 780 810 775 810 L 770 810 770 815 L 770 820 765 820 L 760 820 760 825 L 760 830 790 830 L 820 830 820 835 L 820 840 825 840 L 830 840 830 845 L 830 850 820 850 L 810 850 810 845 L 810 840 800 840 L 790 840 790 845 L 790 850 800 850 L 810 850 810 855 L 810 860 795 860 L 780 860 780 855 L 780 850 695 850 L 610 850 610 840 L 610 830 605 830 L 600 830 600 825 L 600 820 595 820 L 590 820 590 815 L 590 810 580 810 L 570 810 570 805 L 570 800 540 800 L 510 800 510 805 L 510 810 490 810 L 470 810 470 815 L 470 820 485 820 L 500 820 500 825 L 500 830 520 830 L 540 830 540 835 L 540 840 550 840 L 560 840 560 845 L 560 850 565 850 L 570 850 570 865 L 570 880 575 880 L 580 880 580 885 L 580 890 575 890 L 570 890 570 895 L 570 900 550 900 L 530 900 530 905 L 530 910 520 910 L 510 910 510 905 L 510 900 415 900 L 320 900 320 895 L 320 890 315 890 L 310 890 310 880 L 310 870 305 870 L 300 870 300 860 L 300 850 310 850 L 320 850 320 845 L 320 840 325 840 L 330 840 330 835 L 330 830 320 830 L 310 830 310 835 L 310 840 300 840 L 290 840 290 845 L 290 850 285 850 L 280 850 280 855 L 280 860 275 860 L 270 860 270 855 L 270 850 265 850 L 260 850 260 840 L 260 830 270 830 L 280 830 280 825 L 280 820 285 820 L 290 820 290 815 L 290 810 295 810 L 300 810 300 805 L 300 800 325 800 L 350 800 350 795 L 350 790 410 790 L 470 790 470 785 L 470 780 405 780 L 340 780 340 785 L 340 790 320 790 L 300 790 300 795 L 300 800 290 800 L 280 800 280 805 L 280 810 270 810 L 260 810 260 820 L 260 830 255 830 L 250 830 250 840 L 250 850 245 850 L 240 850 240 860 L 240 870 235 870 L 230 870 230 890 L 230 910 235 910 L 240 910 240 915 L 240 920 245 920 L 250 920 250 925 L 250 930 255 930 L 260 930 260 935 L 260 940 265 940 L 270 940 270 945 L 270 950 280 950 L 290 950 290 955 L 290 960 300 960 L 310 960 310 965 L 310 970 330 970 L 350 970 350 975 L 350 980 450 980 L 550 980 550 975 L 550 970 560 970 L 570 970 570 965 L 570 960 580 960 L 590 960 590 955 L 590 950 595 950 L 600 950 600 945 L 600 940 610 940 L 620 940 620 935 L 620 930 625 930 L 630 930 630 925 L 630 920 635 920 L 640 920 640 910 L 640 900 645 900 L 650 900 650 885 L 650 870 645 870 L 640 870 640 865 L 640 860 690 860 L 740 860 740 865 L 740 870 745 870 L 750 870 750 875 L 750 880 745 880 L 740 880 740 890 L 740 900 735 900 L 730 900 730 910 L 730 920 725 920 L 720 920 720 930 L 720 940 715 940 L 710 940 710 950 L 710 960 705 960 L 700 960 700 970 L 700 980 695 980 L 690 980 690 990 L 690 1000 685 1000 L 680 1000 680 1010 L 680 1020 675 1020 L 670 1020 670 1030 L 670 1040 665 1040 L 660 1040 660 1050 L 660 1060 655 1060 L 650 1060 650 1070 L 650 1080 655 1080 L 660 1080 660 1070 L 660 1060 670 1060 L 680 1060 680 1065 L 680 1070 685 1070 L 690 1070 690 1075 L 690 1080 725 1080 L 760 1080 760 1075 L 760 1070 780 1070 L 800 1070 800 1075 L 800 1080 825 1080 L 850 1080 850 1065 L 850 1050 855 1050 L 860 1050 860 1035 L 860 1020 870 1020 L 880 1020 880 1015 L 880 1010 885 1010 L 890 1010 890 1005 L 890 1000 895 1000 L 900 1000 900 995 L 900 990 905 990 L 910 990 910 980 L 910 970 915 970 L 920 970 920 965 L 920 960 925 960 L 930 960 930 955 L 930 950 935 950 L 940 950 940 940 L 940 930 945 930 L 950 930 950 925 L 950 920 955 920 L 960 920 960 910 L 960 900 965 900 L 970 900 970 895 L 970 890 975 890 L 980 890 980 885 L 980 880 985 880 L 990 880 990 875 L 990 870 995 870 L 1000 870 1000 855 L 1000 840 1005 840 L 1010 840 1010 820 L 1010 800 1020 800 L 1030 800 1030 795 L 1030 790 1040 790 L 1050 790 1050 785 L 1050 780 1055 780 L 1060 780 1060 775 L 1060 770 1065 770 L 1070 770 1070 760 L 1070 750 1040 750 L 1010 750 1010 755 L 1010 760 1005 760 L 1000 760 1000 785 L 1000 810 995 810 L 990 810 990 715 L 990 620 980 620 L 970 620 970 615 L 970 610 980 610 L 990 610 990 605 L 990 600 995 600 L 1000 600 1000 590 L 1000 580 990 580 L 980 580 980 585 L 980 590 975 590 L 970 590 970 595 L 970 600 965 600 L 960 600 960 590 L 960 580 940 580 L 920 580 920 560 L 920 540 915 540 L 910 540 910 515 L 910 490 900 490 L 890 490 890 510 L 890 530 895 530 L 900 530 900 555 L 900 580 890 580 L 880 580 880 585 L 880 590 885 590 L 890 590 890 595 L 890 600 880 600 L 870 600 870 595 L 870 590 865 590 L 860 590 860 585 L 860 580 840 580 L 820 580 820 585 L 820 590 815 590 L 810 590 810 670 L 810 750 805 750 L 800 750 800 655 L 800 560 795 560 L 790 560 790 570 L 790 580 585 580 L 380 580 380 545 L 380 510 480 510 L 580 510 580 540 L 580 570 585 570 L 590 570 590 540 L 590 510 665 510 L 740 510 740 505 L 740 500 715 500 L 690 500 690 465 L 690 430 740 430 L 790 430 790 440 L 790 450 795 450 L 800 450 800 225 L 800 0 795 0 L 790 0 790 10 L 790 20 740 20 L 690 20 690 10 L 690 0 685 0 L 680 0 680 10 L 680 20 580 20 L 480 20 480 10 L 480 0 475 0 L 470 0 470 10 L 470 20 370 20 L 270 20 270 10 L 270 0 265 0 L 260 0 260 10 L 260 20 195 20 L 130 20 130 15 L 130 10 125 10 L 120 10 120 15 L 120 20 90 20 L 60 20 60 10 L 60 0 55 0 L 50 0 50 10 M 170 65 L 170 100 270 100 L 370 100 370 65 L 370 30 270 30 L 170 30 170 65 M 380 65 L 380 100 480 100 L 580 100 580 65 L 580 30 480 30 L 380 30 380 65 M 590 65 L 590 100 690 100 L 790 100 790 65 L 790 30 690 30 L 590 30 590 65 M 60 145 L 60 180 160 180 L 260 180 260 145 L 260 110 160 110 L 60 110 60 145 M 270 145 L 270 180 370 180 L 470 180 470 145 L 470 110 370 110 L 270 110 270 145 M 480 145 L 480 180 580 180 L 680 180 680 145 L 680 110 580 110 L 480 110 480 145 M 690 145 L 690 180 740 180 L 790 180 790 145 L 790 110 740 110 L 690 110 690 145 M 170 225 L 170 260 270 260 L 370 260 370 225 L 370 190 270 190 L 170 190 170 225 M 380 225 L 380 260 480 260 L 580 260 580 225 L 580 190 480 190 L 380 190 380 225 M 590 225 L 590 260 690 260 L 790 260 790 225 L 790 190 690 190 L 590 190 590 225 M 60 305 L 60 340 160 340 L 260 340 260 305 L 260 270 160 270 L 60 270 60 305 M 270 305 L 270 340 370 340 L 470 340 470 305 L 470 270 370 270 L 270 270 270 305 M 480 305 L 480 340 580 340 L 680 340 680 305 L 680 270 580 270 L 480 270 480 305 M 690 305 L 690 340 740 340 L 790 340 790 305 L 790 270 740 270 L 690 270 690 305 M 1490 295 L 1490 300 1465 300 L 1440 300 1440 310 L 1440 320 1435 320 L 1430 320 1430 325 L 1430 330 1425 330 L 1420 330 1420 335 L 1420 340 1410 340 L 1400 340 1400 390 L 1400 440 1405 440 L 1410 440 1410 445 L 1410 450 1415 450 L 1420 450 1420 470 L 1420 490 1410 490 L 1400 490 1400 495 L 1400 500 1390 500 L 1380 500 1380 505 L 1380 510 1375 510 L 1370 510 1370 515 L 1370 520 1365 520 L 1360 520 1360 530 L 1360 540 1355 540 L 1350 540 1350 555 L 1350 570 1355 570 L 1360 570 1360 580 L 1360 590 1365 590 L 1370 590 1370 565 L 1370 540 1380 540 L 1390 540 1390 535 L 1390 530 1395 530 L 1400 530 1400 525 L 1400 520 1405 520 L 1410 520 1410 515 L 1410 510 1415 510 L 1420 510 1420 505 L 1420 500 1425 500 L 1430 500 1430 470 L 1430 440 1425 440 L 1420 440 1420 435 L 1420 430 1425 430 L 1430 430 1430 425 L 1430 420 1425 420 L 1420 420 1420 415 L 1420 410 1415 410 L 1410 410 1410 390 L 1410 370 1425 370 L 1440 370 1440 395 L 1440 420 1450 420 L 1460 420 1460 430 L 1460 440 1465 440 L 1470 440 1470 445 L 1470 450 1475 450 L 1480 450 1480 460 L 1480 470 1485 470 L 1490 470 1490 480 L 1490 490 1485 490 L 1480 490 1480 505 L 1480 520 1475 520 L 1470 520 1470 545 L 1470 570 1465 570 L 1460 570 1460 610 L 1460 650 1475 650 L 1490 650 1490 640 L 1490 630 1485 630 L 1480 630 1480 625 L 1480 620 1475 620 L 1470 620 1470 605 L 1470 590 1475 590 L 1480 590 1480 580 L 1480 570 1485 570 L 1490 570 1490 540 L 1490 510 1495 510 L 1500 510 1500 485 L 1500 460 1495 460 L 1490 460 1490 445 L 1490 430 1485 430 L 1480 430 1480 425 L 1480 420 1475 420 L 1470 420 1470 410 L 1470 400 1540 400 L 1610 400 1610 410 L 1610 420 1620 420 L 1630 420 1630 425 L 1630 430 1635 430 L 1640 430 1640 435 L 1640 440 1650 440 L 1660 440 1660 420 L 1660 400 1670 400 L 1680 400 1680 430 L 1680 460 1690 460 L 1700 460 1700 495 L 1700 530 1715 530 L 1730 530 1730 520 L 1730 510 1720 510 L 1710 510 1710 465 L 1710 420 1705 420 L 1700 420 1700 400 L 1700 380 1695 380 L 1690 380 1690 375 L 1690 370 1685 370 L 1680 370 1680 360 L 1680 350 1675 350 L 1670 350 1670 340 L 1670 330 1665 330 L 1660 330 1660 325 L 1660 320 1670 320 L 1680 320 1680 310 L 1680 300 1660 300 L 1640 300 1640 295 L 1640 290 1625 290 L 1610 290 1610 295 L 1610 300 1605 300 L 1600 300 1600 310 L 1600 320 1605 320 L 1610 320 1610 325 L 1610 330 1590 330 L 1570 330 1570 340 L 1570 350 1565 350 L 1560 350 1560 340 L 1560 330 1550 330 L 1540 330 1540 315 L 1540 300 1520 300 L 1500 300 1500 295 L 1500 290 1495 290 L 1490 290 1490 295 M 1620 345 L 1620 350 1625 350 L 1630 350 1630 360 L 1630 370 1645 370 L 1660 370 1660 365 L 1660 360 1650 360 L 1640 360 1640 350 L 1640 340 1630 340 L 1620 340 1620 345 M 170 385 L 170 420 270 420 L 370 420 370 385 L 370 350 270 350 L 170 350 170 385 M 380 385 L 380 420 480 420 L 580 420 580 385 L 580 350 480 350 L 380 350 380 385 M 590 385 L 590 420 690 420 L 790 420 790 385 L 790 350 690 350 L 590 350 590 385 M 1290 355 L 1290 360 1295 360 L 1300 360 1300 355 L 1300 350 1295 350 L 1290 350 1290 355 M 1310 360 L 1310 370 1295 370 L 1280 370 1280 375 L 1280 380 1285 380 L 1290 380 1290 385 L 1290 390 1280 390 L 1270 390 1270 380 L 1270 370 1255 370 L 1240 370 1240 365 L 1240 360 1235 360 L 1230 360 1230 365 L 1230 370 1235 370 L 1240 370 1240 375 L 1240 380 1250 380 L 1260 380 1260 385 L 1260 390 1265 390 L 1270 390 1270 395 L 1270 400 1275 400 L 1280 400 1280 410 L 1280 420 1275 420 L 1270 420 1270 415 L 1270 410 1245 410 L 1220 410 1220 420 L 1220 430 1225 430 L 1230 430 1230 465 L 1230 500 1285 500 L 1340 500 1340 465 L 1340 430 1345 430 L 1350 430 1350 420 L 1350 410 1320 410 L 1290 410 1290 405 L 1290 400 1295 400 L 1300 400 1300 395 L 1300 390 1305 390 L 1310 390 1310 385 L 1310 380 1315 380 L 1320 380 1320 375 L 1320 370 1325 370 L 1330 370 1330 365 L 1330 360 1325 360 L 1320 360 1320 355 L 1320 350 1315 350 L 1310 350 1310 360 M 1470 365 L 1470 370 1465 370 L 1460 370 1460 385 L 1460 400 1465 400 L 1470 400 1470 385 L 1470 370 1480 370 L 1490 370 1490 365 L 1490 360 1480 360 L 1470 360 1470 365 M 1760 375 L 1760 380 1755 380 L 1750 380 1750 385 L 1750 390 1745 390 L 1740 390 1740 400 L 1740 410 1745 410 L 1750 410 1750 455 L 1750 500 1795 500 L 1840 500 1840 455 L 1840 410 1845 410 L 1850 410 1850 400 L 1850 390 1845 390 L 1840 390 1840 385 L 1840 380 1835 380 L 1830 380 1830 375 L 1830 370 1820 370 L 1810 370 1810 380 L 1810 390 1800 390 L 1790 390 1790 380 L 1790 370 1775 370 L 1760 370 1760 375 M 60 465 L 60 500 160 500 L 260 500 260 465 L 260 430 160 430 L 60 430 60 465 M 270 465 L 270 500 370 500 L 470 500 470 465 L 470 430 370 430 L 270 430 270 465 M 480 465 L 480 500 580 500 L 680 500 680 465 L 680 430 580 430 L 480 430 480 465 M 970 475 L 970 480 965 480 L 960 480 960 485 L 960 490 955 490 L 950 490 950 525 L 950 560 955 560 L 960 560 960 565 L 960 570 965 570 L 970 570 970 550 L 970 530 965 530 L 960 530 960 520 L 960 510 965 510 L 970 510 970 500 L 970 490 975 490 L 980 490 980 485 L 980 480 985 480 L 990 480 990 475 L 990 470 980 470 L 970 470 970 475 M 780 505 L 780 510 785 510 L 790 510 790 515 L 790 520 795 520 L 800 520 800 515 L 800 510 795 510 L 790 510 790 505 L 790 500 785 500 L 780 500 780 505 M 170 545 L 170 580 270 580 L 370 580 370 545 L 370 510 270 510 L 170 510 170 545 M 1730 545 L 1730 550 1725 550 L 1720 550 1720 555 L 1720 560 1725 560 L 1730 560 1730 575 L 1730 590 1735 590 L 1740 590 1740 570 L 1740 550 1745 550 L 1750 550 1750 545 L 1750 540 1740 540 L 1730 540 1730 545 M 1750 585 L 1750 590 1765 590 L 1780 590 1780 585 L 1780 580 1765 580 L 1750 580 1750 585 M 1740 605 L 1740 610 1735 610 L 1730 610 1730 620 L 1730 630 1720 630 L 1710 630 1710 635 L 1710 640 1705 640 L 1700 640 1700 655 L 1700 670 1705 670 L 1710 670 1710 665 L 1710 660 1720 660 L 1730 660 1730 650 L 1730 640 1735 640 L 1740 640 1740 650 L 1740 660 1745 660 L 1750 660 1750 665 L 1750 670 1755 670 L 1760 670 1760 680 L 1760 690 1780 690 L 1800 690 1800 685 L 1800 680 1805 680 L 1810 680 1810 675 L 1810 670 1790 670 L 1770 670 1770 655 L 1770 640 1760 640 L 1750 640 1750 635 L 1750 630 1760 630 L 1770 630 1770 615 L 1770 600 1755 600 L 1740 600 1740 605 M 90 690 L 90 700 85 700 L 80 700 80 720 L 80 740 90 740 L 100 740 100 745 L 100 750 180 750 L 260 750 260 745 L 260 740 265 740 L 270 740 270 735 L 270 730 275 730 L 280 730 280 705 L 280 680 185 680 L 90 680 90 690 M 1090 760 L 1090 770 1085 770 L 1080 770 1080 775 L 1080 780 1075 780 L 1070 780 1070 785 L 1070 790 1065 790 L 1060 790 1060 795 L 1060 800 1120 800 L 1180 800 1180 805 L 1180 810 1175 810 L 1170 810 1170 820 L 1170 830 1165 830 L 1160 830 1160 835 L 1160 840 1150 840 L 1140 840 1140 850 L 1140 860 1155 860 L 1170 860 1170 865 L 1170 870 1180 870 L 1190 870 1190 875 L 1190 880 1265 880 L 1340 880 1340 875 L 1340 870 1355 870 L 1370 870 1370 855 L 1370 840 1365 840 L 1360 840 1360 835 L 1360 830 1365 830 L 1370 830 1370 820 L 1370 810 1375 810 L 1380 810 1380 780 L 1380 750 1375 750 L 1370 750 1370 770 L 1370 790 1365 790 L 1360 790 1360 795 L 1360 800 1355 800 L 1350 800 1350 805 L 1350 810 1345 810 L 1340 810 1340 815 L 1340 820 1330 820 L 1320 820 1320 825 L 1320 830 1275 830 L 1230 830 1230 825 L 1230 820 1220 820 L 1210 820 1210 815 L 1210 810 1205 810 L 1200 810 1200 805 L 1200 800 1195 800 L 1190 800 1190 790 L 1190 780 1185 780 L 1180 780 1180 765 L 1180 750 1135 750 L 1090 750 1090 760 M 1820 755 L 1820 760 1830 760 L 1840 760 1840 765 L 1840 770 1845 770 L 1850 770 1850 775 L 1850 780 1855 780 L 1860 780 1860 790 L 1860 800 1890 800 L 1920 800 1920 775 L 1920 750 1870 750 L 1820 750 1820 755 M 1530 765 L 1530 770 1520 770 L 1510 770 1510 780 L 1510 790 1525 790 L 1540 790 1540 780 L 1540 770 1545 770 L 1550 770 1550 765 L 1550 760 1540 760 L 1530 760 1530 765 M 1440 785 L 1440 790 1450 790 L 1460 790 1460 785 L 1460 780 1450 780 L 1440 780 1440 785 M 1480 785 L 1480 790 1490 790 L 1500 790 1500 785 L 1500 780 1490 780 L 1480 780 1480 785 M 0 895 L 0 960 15 960 L 30 960 30 955 L 30 950 35 950 L 40 950 40 945 L 40 940 45.299 940 L 50.598 940 50.237 936.250 L 49.876 932.500 51.916 935 C 53.038 936.375, 53.966 938.063, 53.978 938.750 C 53.990 939.438, 54.943 940, 56.095 940 C 58.146 940, 58.136 939.908, 55.595 935.572 C 54.168 933.136, 53 930.886, 53 930.572 C 53 930.257, 54.575 930, 56.500 930 L 60 930 60 925 L 60 920 65 920 L 70 920 70 900 L 70 880 65 880 L 60 880 60 870 L 60 860 55 860 L 50 860 50 855 L 50 850 40 850 L 30 850 30 845 L 30 840 25 840 L 20 840 20 835 L 20 830 10 830 L 0 830 0 895 M 1540 840 L 1540 850 1550 850 L 1560 850 1560 845 L 1560 840 1555 840 L 1550 840 1550 835 L 1550 830 1545 830 L 1540 830 1540 840 M 1020 845 L 1020 850 1015 850 L 1010 850 1010 860 L 1010 870 1015 870 L 1020 870 1020 875 L 1020 880 1070 880 L 1120 880 1120 875 L 1120 870 1125 870 L 1130 870 1130 860 L 1130 850 1125 850 L 1120 850 1120 845 L 1120 840 1070 840 L 1020 840 1020 845 M 1460 850 L 1460 860 1470 860 L 1480 860 1480 855 L 1480 850 1475 850 L 1470 850 1470 845 L 1470 840 1465 840 L 1460 840 1460 850 M 600 855 L 600 860 595 860 L 590 860 590 865 L 590 870 585 870 L 580 870 580 875 L 580 880 585 880 L 590 880 590 875 L 590 870 595 870 L 600 870 600 865 L 600 860 605 860 L 610 860 610 855 L 610 850 605 850 L 600 850 600 855 M 1590 870 L 1590 880 1585 880 L 1580 880 1580 885 L 1580 890 1575 890 L 1570 890 1570 895 L 1570 900 1565 900 L 1560 900 1560 910 L 1560 920 1555 920 L 1550 920 1550 925 L 1550 930 1560 930 L 1570 930 1570 925 L 1570 920 1575 920 L 1580 920 1580 915 L 1580 910 1585 910 L 1590 910 1590 905 L 1590 900 1595 900 L 1600 900 1600 880 L 1600 860 1595 860 L 1590 860 1590 870 M 1510 890 L 1510 900 1500 900 L 1490 900 1490 905 L 1490 910 1500 910 L 1510 910 1510 905 L 1510 900 1515 900 L 1520 900 1520 905 L 1520 910 1530 910 L 1540 910 1540 905 L 1540 900 1530 900 L 1520 900 1520 890 L 1520 880 1515 880 L 1510 880 1510 890 M 1830 885 L 1830 890 1825 890 L 1820 890 1820 905 L 1820 920 1815 920 L 1810 920 1810 925 L 1810 930 1800 930 L 1790 930 1790 935 L 1790 940 1785 940 L 1780 940 1780 945 L 1780 950 1760 950 L 1740 950 1740 945 L 1740 940 1720 940 L 1700 940 1700 945 L 1700 950 1680 950 L 1660 950 1660 945 L 1660 940 1650 940 L 1640 940 1640 945 L 1640 950 1630 950 L 1620 950 1620 945 L 1620 940 1615 940 L 1610 940 1610 945 L 1610 950 1595 950 L 1580 950 1580 955 L 1580 960 1575 960 L 1570 960 1570 965 L 1570 970 1565 970 L 1560 970 1560 975 L 1560 980 1555 980 L 1550 980 1550 990 L 1550 1000 1530 1000 L 1510 1000 1510 995 L 1510 990 1505 990 L 1500 990 1500 985 L 1500 980 1495 980 L 1490 980 1490 975 L 1490 970 1485 970 L 1480 970 1480 975 L 1480 980 1460 980 L 1440 980 1440 975 L 1440 970 1430 970 L 1420 970 1420 965 L 1420 960 1415 960 L 1410 960 1410 970 L 1410 980 1415 980 L 1420 980 1420 990 L 1420 1000 1425 1000 L 1430 1000 1430 1010 L 1430 1020 1435 1020 L 1440 1020 1440 1025 L 1440 1030 1445 1030 L 1450 1030 1450 1035 L 1450 1040 1455 1040 L 1460 1040 1460 1045 L 1460 1050 1465 1050 L 1470 1050 1470 1055 L 1470 1060 1475 1060 L 1480 1060 1480 1065 L 1480 1070 1485 1070 L 1490 1070 1490 1075 L 1490 1080 1705 1080 L 1920 1080 1920 1015 L 1920 950 1915 950 L 1910 950 1910 945 L 1910 940 1900 940 L 1890 940 1890 935 L 1890 930 1885 930 L 1880 930 1880 925 L 1880 920 1875 920 L 1870 920 1870 925 L 1870 930 1865 930 L 1860 930 1860 950 L 1860 970 1855 970 L 1850 970 1850 965 L 1850 960 1845 960 L 1840 960 1840 965 L 1840 970 1830 970 L 1820 970 1820 975 L 1820 980 1810 980 L 1800 980 1800 985 L 1800 990 1785 990 L 1770 990 1770 995 L 1770 1000 1760 1000 L 1750 1000 1750 995 L 1750 990 1735 990 L 1720 990 1720 985 L 1720 980 1670 980 L 1620 980 1620 985 L 1620 990 1610 990 L 1600 990 1600 995 L 1600 1000 1580 1000 L 1560 1000 1560 990 L 1560 980 1565 980 L 1570 980 1570 975 L 1570 970 1585 970 L 1600 970 1600 965 L 1600 960 1670 960 L 1740 960 1740 965 L 1740 970 1765 970 L 1790 970 1790 965 L 1790 960 1795 960 L 1800 960 1800 955 L 1800 950 1810 950 L 1820 950 1820 945 L 1820 940 1825 940 L 1830 940 1830 930 L 1830 920 1835 920 L 1840 920 1840 900 L 1840 880 1835 880 L 1830 880 1830 885 M 1000 1005 L 1000 1010 995 1010 L 990 1010 990 1020 L 990 1030 980 1030 L 970 1030 970 1035 L 970 1040 965 1040 L 960 1040 960 1055 L 960 1070 955 1070 L 950 1070 950 1075 L 950 1080 1035 1080 L 1120 1080 1120 1070 L 1120 1060 1125 1060 L 1130 1060 1130 1050 L 1130 1040 1140 1040 L 1150 1040 1150 1050 L 1150 1060 1145 1060 L 1140 1060 1140 1070 L 1140 1080 1155 1080 L 1170 1080 1170 1075 L 1170 1070 1175 1070 L 1180 1070 1180 1050 L 1180 1030 1175 1030 L 1170 1030 1170 1025 L 1170 1020 1155 1020 L 1140 1020 1140 1010 L 1140 1000 1130 1000 L 1120 1000 1120 1005 L 1120 1010 1065 1010 L 1010 1010 1010 1005 L 1010 1000 1005 1000 L 1000 1000 1000 1005 M 220 1025 L 220 1030 205 1030 L 190 1030 190 1035 L 190 1040 175 1040 L 160 1040 160 1045 L 160 1050 155 1050 L 150 1050 150 1055 L 150 1060 140 1060 L 130 1060 130 1065 L 130 1070 125 1070 L 120 1070 120 1075 L 120 1080 320 1080 L 520 1080 520 1075 L 520 1070 515 1070 L 510 1070 510 1065 L 510 1060 505 1060 L 500 1060 500 1055 L 500 1050 490 1050 L 480 1050 480 1045 L 480 1040 470 1040 L 460 1040 460 1035 L 460 1030 445 1030 L 430 1030 430 1025 L 430 1020 325 1020 L 220 1020 220 1025" stroke="none" fill="black" fill-rule="evenodd"/>
	<path fill-opacity="0.989" d="M 1470 310 L 1470 320 1465 320 L 1460 320 1460 325 L 1460 330 1445 330 L 1430 330 1430 345 L 1430 360 1425 360 L 1420 360 1420 365 L 1420 370 1430 370 L 1440 370 1440 365 L 1440 360 1450 360 L 1460 360 1460 345 L 1460 330 1475 330 L 1490 330 1490 325 L 1490 320 1495 320 L 1500 320 1500 310 L 1500 300 1485 300 L 1470 300 1470 310 M 1520 310 L 1520 320 1525 320 L 1530 320 1530 310 L 1530 300 1525 300 L 1520 300 1520 310 M 1630 330 L 1630 340 1635 340 L 1640 340 1640 350 L 1640 360 1650 360 L 1660 360 1660 380 L 1660 400 1665 400 L 1670 400 1670 380 L 1670 360 1665 360 L 1660 360 1660 345 L 1660 330 1650 330 L 1640 330 1640 325 L 1640 320 1635 320 L 1630 320 1630 330 M 1490 360 L 1490 370 1480 370 L 1470 370 1470 385 L 1470 400 1550 400 L 1630 400 1630 395 L 1630 390 1620 390 L 1610 390 1610 380 L 1610 370 1605 370 L 1600 370 1600 365 L 1600 360 1595 360 L 1590 360 1590 365 L 1590 370 1575 370 L 1560 370 1560 365 L 1560 360 1550 360 L 1540 360 1540 355 L 1540 350 1515 350 L 1490 350 1490 360 M 1500 365 L 1500 370 1510 370 L 1520 370 1520 365 L 1520 360 1510 360 L 1500 360 1500 365 M 1640 435 L 1640 440 1650 440 L 1660 440 1660 435 L 1660 430 1650 430 L 1640 430 1640 435 M 890 510 L 890 530 895 530 L 900 530 900 510 L 900 490 895 490 L 890 490 890 510 M 900 565 L 900 580 890 580 L 880 580 880 585 L 880 590 885 590 L 890 590 890 595 L 890 600 920 600 L 950 600 950 590 L 950 580 935 580 L 920 580 920 585 L 920 590 915 590 L 910 590 910 570 L 910 550 905 550 L 900 550 900 565 M 840 585 L 840 590 835 590 L 830 590 830 595 L 830 600 845 600 L 860 600 860 595 L 860 590 855 590 L 850 590 850 585 L 850 580 845 580 L 840 580 840 585 M 970 595 L 970 600 980 600 L 990 600 990 595 L 990 590 980 590 L 970 590 970 595 M 830 720 L 830 830 835 830 L 840 830 840 835 L 840 840 850 840 L 860 840 860 725 L 860 610 845 610 L 830 610 830 720 M 110 685 L 110 690 100 690 L 90 690 90 710 L 90 730 95 730 L 100 730 100 735 L 100 740 180 740 L 260 740 260 735 L 260 730 265 730 L 270 730 270 705 L 270 680 190 680 L 110 680 110 685 M 0 895 L 0 960 15 960 L 30 960 30 955 L 30 950 35 950 L 40 950 40 945 L 40 940 45 940 L 50 940 50 935 L 50 930 55 930 L 60 930 60 925 L 60 920 65 920 L 70 920 70 900 L 70 880 65 880 L 60 880 60 870 L 60 860 55 860 L 50 860 50 855 L 50 850 40 850 L 30 850 30 845 L 30 840 25 840 L 20 840 20 835 L 20 830 10 830 L 0 830 0 895 M 1540 840 L 1540 850 1545 850 L 1550 850 1550 840 L 1550 830 1545 830 L 1540 830 1540 840 M 1080 855 L 1080 870 1085 870 L 1090 870 1090 865 L 1090 860 1100 860 L 1110 860 1110 865 L 1110 870 1120 870 L 1130 870 1130 865 L 1130 860 1125 860 L 1120 860 1120 850 L 1120 840 1115 840 L 1110 840 1110 845 L 1110 850 1100 850 L 1090 850 1090 845 L 1090 840 1085 840 L 1080 840 1080 855 M 1460 850 L 1460 860 1470 860 L 1480 860 1480 855 L 1480 850 1475 850 L 1470 850 1470 845 L 1470 840 1465 840 L 1460 840 1460 850 M 240 860 L 240 870 235 870 L 230 870 230 890 L 230 910 235 910 L 240 910 240 915 L 240 920 245 920 L 250 920 250 925 L 250 930 255 930 L 260 930 260 935 L 260 940 270 940 L 280 940 280 945 L 280 950 285 950 L 290 950 290 955 L 290 960 300 960 L 310 960 310 965 L 310 970 330 970 L 350 970 350 975 L 350 980 445 980 L 540 980 540 975 L 540 970 555 970 L 570 970 570 965 L 570 960 575 960 L 580 960 580 955 L 580 950 590 950 L 600 950 600 945 L 600 940 610 940 L 620 940 620 935 L 620 930 625 930 L 630 930 630 925 L 630 920 635 920 L 640 920 640 910 L 640 900 645 900 L 650 900 650 885 L 650 870 645 870 L 640 870 640 865 L 640 860 635 860 L 630 860 630 875 L 630 890 625 890 L 620 890 620 895 L 620 900 615 900 L 610 900 610 905 L 610 910 600 910 L 590 910 590 920 L 590 930 575 930 L 560 930 560 935 L 560 940 555 940 L 550 940 550 945 L 550 950 460 950 L 370 950 370 945 L 370 940 365 940 L 360 940 360 925 L 360 910 355 910 L 350 910 350 905 L 350 900 335 900 L 320 900 320 895 L 320 890 310 890 L 300 890 300 885 L 300 880 295 880 L 290 880 290 875 L 290 870 280 870 L 270 870 270 865 L 270 860 265 860 L 260 860 260 855 L 260 850 250 850 L 240 850 240 860 M 1010 855 L 1010 860 1030 860 L 1050 860 1050 870 L 1050 880 1060 880 L 1070 880 1070 865 L 1070 850 1040 850 L 1010 850 1010 855 M 220 1025 L 220 1030 205 1030 L 190 1030 190 1035 L 190 1040 175 1040 L 160 1040 160 1045 L 160 1050 155 1050 L 150 1050 150 1055 L 150 1060 140 1060 L 130 1060 130 1065 L 130 1070 125 1070 L 120 1070 120 1075 L 120 1080 320 1080 L 520 1080 520 1075 L 520 1070 515 1070 L 510 1070 510 1065 L 510 1060 505 1060 L 500 1060 500 1055 L 500 1050 490 1050 L 480 1050 480 1045 L 480 1040 470 1040 L 460 1040 460 1035 L 460 1030 445 1030 L 430 1030 430 1025 L 430 1020 325 1020 L 220 1020 220 1025" stroke="none" fill="black" fill-rule="evenodd"/>
</svg>