<svg xmlns="http://www.w3.org/2000/svg" width="1920" height="1080" viewBox="0 0 1920 1080" version="1.1">
	<path fill-opacity="0.353" d="M -0 540.001 L -0 1080.001 960.250 1079.751 L 1920.500 1079.500 1920.751 539.750 L 1921.002 0 960.501 0 L 0 0 -0 540.001 M 0.496 540.500 C 0.496 837.500, 0.610 958.851, 0.750 810.168 C 0.890 661.485, 0.890 418.485, 0.750 270.168 C 0.610 121.851, 0.496 243.500, 0.496 540.500 M 1168.364 277.430 C 1153.574 280.800, 1139.872 288.858, 1129.372 300.359 C 1121.839 308.610, 1117.546 315.807, 1113.635 326.739 C 1110.631 335.135, 1110.500 336.146, 1110.510 351 C 1110.520 365.385, 1110.722 367.076, 1113.318 374.500 C 1123.244 402.888, 1147.914 423.013, 1177.082 426.518 C 1189.842 428.051, 1210.288 423.284, 1222.520 415.923 C 1239.713 405.577, 1253.666 386.488, 1257.617 367.906 C 1259.797 357.653, 1259.027 339.099, 1256.022 329.500 C 1248.416 305.202, 1229.882 286.673, 1205.500 278.992 C 1196.517 276.162, 1177.447 275.360, 1168.364 277.430 M 1252.922 280.507 C 1262.502 287.581, 1276.254 302.075, 1283.108 312.322 C 1299.141 336.292, 1305.946 358.931, 1304.746 384.309 L 1304.235 395.119 1306.744 391.426 C 1315.057 379.193, 1319.639 362.353, 1318.688 347.535 C 1317.931 335.735, 1315.970 328.493, 1310.556 317.500 C 1299.362 294.769, 1277.636 279.292, 1253 276.501 L 1246.500 275.765 1252.922 280.507 M 1175.618 312.049 C 1164.474 314.847, 1153.111 324.262, 1148.180 334.782 C 1145.807 339.846, 1145.500 341.701, 1145.500 351 C 1145.500 360.473, 1145.783 362.113, 1148.397 367.773 C 1152.170 375.943, 1161.521 384.878, 1169.683 388.110 C 1174.189 389.894, 1177.529 390.423, 1184.500 390.457 C 1192.564 390.495, 1194.189 390.173, 1200.123 387.362 C 1211.475 381.983, 1219.128 373.298, 1222.412 362.068 C 1229.482 337.889, 1211.823 312.799, 1186.794 311.463 C 1182.782 311.249, 1177.753 311.513, 1175.618 312.049 M 1191.096 327.265 C 1182.040 331.919, 1182.702 345.663, 1192.165 349.449 C 1197.890 351.740, 1202.069 350.825, 1205.924 346.434 C 1209.450 342.418, 1210.043 336.918, 1207.483 331.967 C 1204.754 326.691, 1196.707 324.381, 1191.096 327.265" stroke="none" fill="black" fill-rule="evenodd"/>
	<path fill-opacity="0.194" d="M -0 540.001 L -0 1080.001 960.250 1079.751 L 1920.500 1079.500 1920.751 539.750 L 1921.002 0 960.501 0 L 0 0 -0 540.001 M 0.496 540.500 C 0.496 837.500, 0.610 958.851, 0.750 810.168 C 0.890 661.485, 0.890 418.485, 0.750 270.168 C 0.610 121.851, 0.496 243.500, 0.496 540.500 M 1012 267.539 C 999.701 269.770, 987.448 274.873, 966.423 286.524 C 927.177 308.272, 904.651 327.252, 893.957 347.581 C 890.472 354.207, 890.281 356.816, 893.027 360.307 L 895.053 362.883 901.277 359.222 C 904.699 357.209, 907.725 355.322, 908 355.031 C 908.275 354.739, 912.550 351.846, 917.500 348.601 C 922.450 345.357, 927.719 341.870, 929.210 340.851 C 930.700 339.833, 932.111 339, 932.345 339 C 932.579 339, 937.548 336.075, 943.387 332.500 C 949.226 328.925, 954.289 326, 954.638 326 C 954.986 326, 961.623 322.284, 969.386 317.743 C 977.149 313.201, 984.850 308.731, 986.500 307.810 C 990.312 305.681, 1034.017 284, 1034.496 284 C 1034.693 284, 1038.225 282.443, 1042.346 280.539 C 1046.466 278.636, 1051.004 276.786, 1052.428 276.429 C 1056.727 275.350, 1056.242 274.382, 1049.996 271.579 C 1038.073 266.228, 1026.195 264.965, 1012 267.539 M 1008.556 273.910 C 1007.354 275.854, 1008.858 276.747, 1015.420 277.985 C 1021.639 279.158, 1024 278.882, 1024 276.980 C 1024 275.165, 1009.554 272.294, 1008.556 273.910 M 1173.854 276.053 C 1147.147 279.729, 1123.371 299.145, 1113.956 324.965 C 1100.608 361.572, 1117.239 402.286, 1152.847 420.174 C 1163.744 425.649, 1172.711 427.378, 1186.890 426.742 C 1206.949 425.841, 1223.517 418.594, 1237.459 404.623 C 1258.617 383.421, 1265.031 355.948, 1255.500 327.349 C 1244.064 293.033, 1209.277 271.177, 1173.854 276.053 M 1253.658 281.926 C 1264.834 290.246, 1279.890 306.654, 1285.382 316.500 C 1286.303 318.150, 1288.012 321.075, 1289.181 323 C 1295.449 333.325, 1302.049 352.759, 1303.613 365.500 C 1304.488 372.626, 1304.452 386.385, 1303.541 392.869 L 1302.891 397.500 1306.955 391.500 C 1328.152 360.207, 1320.351 314.621, 1289.841 291.501 C 1278.537 282.935, 1260.445 276, 1249.402 276 L 1245.698 276 1253.658 281.926 M 984 286.891 C 984 288.253, 984.907 288.922, 987.250 289.286 C 989.038 289.564, 991.513 290.116, 992.750 290.512 C 994.578 291.098, 995 290.855, 995 289.214 C 995 287.849, 993.981 286.840, 991.851 286.098 C 986.950 284.389, 984 284.687, 984 286.891 M 960.550 298.783 C 959.192 300.142, 960.262 301.693, 963.321 302.799 C 968.183 304.557, 971.216 304.361, 970.822 302.315 C 970.500 300.644, 961.711 297.622, 960.550 298.783 M 1177.780 312.046 C 1160.300 314.933, 1146.377 330.452, 1145.230 348.325 C 1144.129 365.478, 1152.794 379.797, 1168.809 387.292 C 1174.661 390.030, 1176.520 390.409, 1183.989 390.387 C 1201.376 390.335, 1214.778 381.079, 1221.337 364.594 C 1224.170 357.474, 1224.148 344.471, 1221.290 337.281 C 1214.243 319.551, 1196.089 309.022, 1177.780 312.046 M 1188.479 329.321 C 1182.376 335.424, 1183.292 344.768, 1190.420 349.114 C 1200.338 355.162, 1212.614 345.450, 1208.978 334.432 C 1207.208 329.071, 1202.781 326, 1196.823 326 C 1192.467 326, 1191.359 326.441, 1188.479 329.321 M 1009.414 343.623 C 999.811 350.140, 995.420 359.227, 996.427 370.500 C 997.298 380.259, 997.254 380, 998.058 380 C 998.457 380, 999.072 381.152, 999.426 382.561 C 1000.281 385.966, 1007.625 393.202, 1012 394.948 C 1013.925 395.717, 1015.633 396.438, 1015.797 396.552 C 1015.960 396.666, 1015.067 398.726, 1013.812 401.130 C 1010.521 407.434, 1010.535 419.644, 1013.840 426 C 1016.961 432.003, 1020.108 435.189, 1025.783 438.089 C 1035.280 442.943, 1051.032 440.363, 1051.804 433.827 C 1052.201 430.472, 1049.407 427.620, 1046.601 428.514 C 1041.450 430.155, 1033.292 430.202, 1030.212 428.610 C 1024.953 425.890, 1021.671 420.597, 1021.199 414.074 C 1020.570 405.382, 1023.331 400.799, 1033.495 393.660 C 1038.919 389.851, 1034.059 382.452, 1028.069 385.400 C 1024.704 387.056, 1017.781 386.575, 1014.155 384.432 C 1010.825 382.465, 1006.036 375.551, 1005.923 372.550 C 1005.881 371.422, 1005.699 369.733, 1005.519 368.795 C 1004.520 363.610, 1009.032 355.670, 1015.215 351.730 C 1019.379 349.077, 1020.468 346.364, 1018.548 343.433 C 1016.504 340.313, 1014.221 340.360, 1009.414 343.623 M 591.215 404.207 C 586.760 405.702, 579.350 412.394, 576.958 417.082 C 573.139 424.569, 574.439 432.554, 582.401 450.500 C 584.353 454.900, 586.229 460.359, 586.571 462.631 C 587.535 469.048, 585.369 477.122, 580.789 484.183 C 574.321 494.154, 572.754 498.448, 572.825 506.003 C 572.860 509.762, 573.618 514.503, 574.559 516.855 C 577.870 525.132, 589.634 532.458, 601.633 533.717 C 619.685 535.611, 643.651 519.362, 652.699 499.095 C 656.957 489.557, 656.882 488.923, 650.894 483.919 C 647.986 481.489, 644.680 478.600, 643.548 477.500 C 642.416 476.400, 639.277 473.575, 636.573 471.222 C 633.674 468.701, 632.034 466.590, 632.578 466.082 C 633.085 465.607, 638.337 463.748, 644.250 461.951 C 650.163 460.153, 655 458.179, 655 457.563 C 655 455.278, 647.663 441.229, 642.172 433 C 629.472 413.967, 615.446 403.719, 601.539 403.311 C 597.667 403.197, 593.022 403.600, 591.215 404.207 M 594.625 416.798 C 593.705 418.286, 594.535 418.993, 616.419 435.340 C 622.388 439.799, 625 440.549, 625 437.801 C 625 436.540, 625.160 436.670, 609.257 424.991 C 597.169 416.114, 595.593 415.232, 594.625 416.798 M 1309 423.933 C 1304.714 425.237, 1295.095 430.233, 1293.653 431.905 C 1292.896 432.782, 1289.677 438.450, 1286.499 444.500 C 1283.322 450.550, 1278.916 458.093, 1276.707 461.263 C 1274.499 464.432, 1272.874 467.196, 1273.096 467.403 C 1273.318 467.611, 1278.359 464.252, 1284.297 459.940 C 1294.261 452.704, 1298.064 451.151, 1297.965 454.357 C 1297.928 455.562, 1283.482 466.405, 1271.250 474.409 C 1267.263 477.019, 1263.990 479.457, 1263.977 479.827 C 1263.964 480.197, 1262.387 482.300, 1260.472 484.500 C 1258.557 486.700, 1255.980 489.765, 1254.745 491.312 C 1247.545 500.331, 1228.105 520.423, 1218.129 529.156 L 1212.811 533.812 1220.520 534.534 C 1240.747 536.429, 1271.071 530.153, 1288.611 520.441 C 1306.228 510.687, 1321.873 493.629, 1331.985 473.151 C 1339.246 458.448, 1341.499 446.937, 1338.928 437.679 C 1337.635 433.024, 1331.655 426.178, 1327.282 424.347 C 1323.854 422.912, 1313.151 422.669, 1309 423.933 M 591.177 440.607 C 591.518 442.304, 612.951 451.337, 619.591 452.583 C 622.700 453.166, 623.149 453.015, 622.848 451.484 C 622.598 450.209, 618.438 448.201, 608.073 444.354 C 592.455 438.558, 590.686 438.166, 591.177 440.607 M 901.500 449.662 C 896.823 452.127, 894.013 455.085, 891.319 460.379 C 888.425 466.064, 887.965 467.901, 887.904 474 C 887.818 482.671, 892.481 491.438, 900.125 496.975 C 903.339 499.304, 903.815 500.055, 902.772 501.157 C 902.072 501.896, 900.697 504.234, 899.717 506.354 C 893.643 519.478, 899.161 536.191, 911.661 542.531 C 916.185 544.825, 925.075 546.838, 928.750 546.399 C 929.438 546.317, 930.643 546.194, 931.429 546.125 C 933.654 545.930, 936 543.090, 936 540.589 C 936 537.681, 932.264 535.921, 927.675 536.665 C 923.767 537.300, 917.825 535.652, 913.774 532.810 C 907.256 528.238, 905.090 515.275, 909.709 508.478 C 911.968 505.153, 916.557 502, 919.136 502 C 919.815 502, 921.374 501.057, 922.601 499.906 C 924.499 498.122, 924.680 497.379, 923.817 494.906 C 922.814 492.029, 921.567 491.536, 916.332 491.950 C 911.800 492.309, 906.142 489.906, 902.174 485.938 C 898.822 482.587, 898.020 481.004, 897.480 476.683 C 896.386 467.928, 901.446 459.181, 908.650 457.373 C 912.099 456.507, 913.612 452.334, 911.373 449.860 C 909.334 447.607, 905.542 447.531, 901.500 449.662 M 1062.177 463.683 C 1056.949 466.259, 1050.610 473.055, 1047.495 479.421 C 1044.451 485.642, 1043.429 494.628, 1045.093 500.540 C 1046.757 506.452, 1056.266 515.396, 1062.079 516.515 C 1065.318 517.139, 1065.359 517.403, 1063.017 522.667 C 1056.745 536.767, 1061.617 551.232, 1074.670 557.263 C 1080.589 559.997, 1088.768 560.672, 1095.209 558.957 C 1100.648 557.508, 1103 555.410, 1103 552.006 C 1103 548.296, 1099.674 546.869, 1095 548.573 C 1086.660 551.611, 1077.942 548.978, 1073.192 541.985 C 1071.199 539.051, 1070.886 537.552, 1071.213 532.500 C 1071.684 525.204, 1074.724 520.085, 1080.500 516.859 C 1085.278 514.190, 1086.925 512.261, 1086.968 509.285 C 1087.019 505.760, 1083.732 504.635, 1078.160 506.268 C 1071.571 508.200, 1066.254 507.545, 1061.500 504.215 C 1056.506 500.717, 1054.567 496.846, 1054.772 490.778 C 1054.974 484.790, 1057.824 479.179, 1062.691 475.186 C 1071.100 468.288, 1071.701 467.099, 1068.722 463.250 C 1067.458 461.616, 1066.202 461.700, 1062.177 463.683 M 1290.500 483.867 C 1287.200 485.971, 1282.475 488.832, 1280 490.226 C 1277.525 491.619, 1271.342 495.209, 1266.260 498.202 C 1257.741 503.220, 1257.126 503.790, 1258.381 505.506 C 1259.675 507.276, 1260.106 507.142, 1267.121 502.782 C 1271.179 500.260, 1276.782 496.915, 1279.570 495.348 C 1295.232 486.551, 1299.976 483.391, 1299.988 481.750 C 1300.007 479.024, 1297.068 479.680, 1290.500 483.867 M 609.500 487.368 C 598.598 489.156, 596.500 489.782, 596.500 491.250 C 596.500 493.460, 596.423 493.453, 606.266 492.060 C 625.067 489.398, 627 488.917, 627 486.897 C 627 484.569, 626.476 484.583, 609.500 487.368 M 621.500 507.067 C 619.850 507.572, 612.875 509.130, 606 510.529 C 589.894 513.806, 590.247 513.676, 592.217 515.646 C 593.647 517.075, 594.819 517.010, 605.145 514.929 C 620.756 511.783, 627.500 509.678, 627.500 507.954 C 627.500 506.181, 625.408 505.872, 621.500 507.067 M 954 552.755 C 944.548 554.070, 902.453 567.525, 890.500 573.051 C 876.774 579.397, 864.098 589.228, 860.264 596.500 C 855.857 604.861, 857.326 612.477, 864.580 618.861 C 870.250 623.852, 877.784 626.002, 889.566 625.992 C 924.631 625.963, 954.288 608.197, 966.066 580.166 C 969.259 572.565, 971.087 562.974, 970.069 559.165 C 968.771 554.312, 962.057 551.634, 954 552.755 M 927.434 569.144 C 918.859 574.582, 898.277 584.620, 884.750 589.962 C 879.530 592.023, 877.671 594.061, 879.806 595.380 C 882 596.736, 929.651 574.253, 933.426 570.082 C 934.782 568.583, 934.826 568.101, 933.694 567.161 C 932.650 566.295, 931.205 566.753, 927.434 569.144 M 916.750 598.061 C 910.997 600.987, 907 603.630, 907 604.510 C 907 606.854, 908.928 606.332, 919.045 601.250 C 924.816 598.351, 928.626 595.818, 928.823 594.750 C 929.310 592.117, 927.418 592.635, 916.750 598.061" stroke="none" fill="black" fill-rule="evenodd"/>
	<path fill-opacity="0.752" d="M -0 540.001 L -0 1080.001 960.250 1079.751 L 1920.500 1079.500 1920.751 539.750 L 1921.002 0 960.501 0 L 0 0 -0 540.001 M 0.496 540.500 C 0.496 837.500, 0.610 958.851, 0.750 810.168 C 0.890 661.485, 0.890 418.485, 0.750 270.168 C 0.610 121.851, 0.496 243.500, 0.496 540.500 M 1150 252.653 C 1134.562 253.878, 1110.195 258.100, 1096 262.009 C 1087.495 264.351, 1064.525 271.691, 1061.500 273.033 C 1057.888 274.636, 1056.563 274.474, 1051 271.752 C 1035.340 264.090, 1016.327 264.074, 996.053 271.705 C 979.946 277.767, 946.038 296.939, 928.780 309.741 C 917.977 317.754, 906.206 329.100, 900.056 337.425 C 891.312 349.260, 889.205 355.993, 892.688 360.965 C 893.767 362.506, 893.983 363.506, 893.286 363.738 C 892.687 363.938, 888.554 366.553, 884.102 369.551 C 879.651 372.548, 875.762 375, 875.462 375 C 875.161 375, 874.372 375.452, 873.708 376.004 C 873.044 376.555, 868.675 379.674, 864 382.935 C 859.325 386.195, 854.967 389.334, 854.315 389.910 C 853.663 390.486, 849.388 392.917, 844.815 395.312 C 833.532 401.221, 822.002 407.773, 806.500 417.085 C 794.342 424.389, 788.386 427.198, 768.631 434.948 C 762.103 437.509, 750.849 440.938, 743.979 442.460 C 718.666 448.068, 719.438 447.938, 701.916 449.540 C 698.845 449.821, 695.470 450.212, 694.416 450.409 C 693.362 450.606, 689.125 451.071, 685 451.441 C 680.875 451.811, 672.620 453.471, 666.655 455.129 C 660.690 456.786, 655.714 457.998, 655.597 457.822 C 655.480 457.645, 654.125 454.469, 652.585 450.764 C 645.743 434.295, 627.383 412.173, 616 406.681 C 608.378 403.004, 601.145 401.776, 594.946 403.105 C 588.152 404.562, 581.177 409.495, 577.529 415.423 C 574.925 419.654, 574.512 421.269, 574.582 426.923 C 574.654 432.612, 575.430 435.269, 580.332 446.603 C 585.428 458.384, 585.998 460.401, 585.978 466.603 C 585.954 474.308, 584.640 477.893, 578.208 487.817 C 566.228 506.301, 572.291 524.944, 592.601 532.077 C 597.255 533.711, 600.234 534.066, 606.714 533.756 C 613.968 533.408, 615.957 532.855, 623.714 529.026 C 635.726 523.096, 645.950 512.955, 651.835 501.134 C 654.126 496.533, 656 492.146, 656 491.384 C 656 490.623, 656.282 490, 656.627 490 C 656.971 490, 664.284 496.951, 672.877 505.446 C 681.469 513.941, 690.075 522.201, 692 523.801 C 693.925 525.401, 702.250 532.319, 710.500 539.173 C 718.750 546.028, 726.175 551.946, 727 552.325 C 727.825 552.704, 731.089 554.698, 734.254 556.757 C 760.746 573.993, 767.022 577.268, 797 589.504 C 829.170 602.635, 837.471 605.466, 855.707 609.525 C 856.993 609.812, 858.628 611.522, 859.626 613.624 C 861.726 618.050, 867.441 622.321, 874.322 624.608 C 883.598 627.690, 907.293 626.283, 918.523 621.983 C 920.652 621.168, 927.054 621.071, 941 621.643 C 970.722 622.862, 976.746 622.671, 1010 619.449 C 1031.822 617.335, 1067.348 609.867, 1087.535 603.150 C 1109.136 595.962, 1148.495 578.638, 1163 569.934 C 1177.784 561.063, 1206.082 540.639, 1209.686 536.240 C 1210.629 535.089, 1214.728 534.735, 1229.686 534.512 C 1249.312 534.221, 1256.866 533.064, 1272 528.032 C 1301.282 518.296, 1325.477 493.737, 1337.064 461.987 C 1340.314 453.082, 1341.155 442.087, 1339.012 436.504 C 1333.579 422.348, 1317.110 418.498, 1300.260 427.445 C 1296.817 429.273, 1294.003 430.484, 1294.007 430.135 C 1294.012 429.786, 1295.538 425, 1297.401 419.500 C 1299.263 414, 1301.339 406.801, 1302.015 403.502 C 1302.705 400.140, 1304.553 395.604, 1306.222 393.177 C 1314.579 381.031, 1319.117 366.047, 1319.080 350.727 C 1319.039 334.092, 1314.649 320.798, 1304.443 306.406 C 1293.003 290.274, 1272.517 278.135, 1253.791 276.393 C 1248.769 275.925, 1245.104 274.595, 1235.622 269.797 C 1208.960 256.307, 1179.156 250.339, 1150 252.653 M 1172.500 313.672 C 1166.277 315.580, 1159.459 320.117, 1159.625 322.240 C 1159.708 323.292, 1159.110 323.714, 1157.875 323.476 C 1156.122 323.138, 1155.489 324.141, 1155.965 326.500 C 1156.076 327.050, 1155.833 327.166, 1155.425 326.759 C 1154.241 325.575, 1152.058 327.987, 1152.729 329.737 C 1153.082 330.656, 1152.923 331.071, 1152.353 330.718 C 1151.021 329.895, 1147.678 335.719, 1148.401 337.604 C 1148.773 338.573, 1148.567 338.850, 1147.819 338.388 C 1147.045 337.910, 1146.872 338.225, 1147.299 339.336 C 1147.650 340.251, 1147.563 341, 1147.106 341 C 1146.649 341, 1145.981 343.507, 1145.621 346.570 C 1144.855 353.085, 1146.670 365.322, 1148.256 364.341 C 1148.861 363.968, 1149.014 364.168, 1148.617 364.811 C 1146.932 367.536, 1156.397 380.466, 1162.217 383.390 C 1164.023 384.298, 1166.603 385.819, 1167.950 386.770 C 1170.323 388.445, 1170.378 388.437, 1169.698 386.500 C 1169.006 384.531, 1169.018 384.530, 1170.498 386.441 C 1172.135 388.556, 1175.377 389.563, 1174.431 387.662 C 1174.112 387.023, 1174.489 387.277, 1175.268 388.226 C 1176.409 389.616, 1178.225 389.929, 1184.593 389.838 C 1188.942 389.776, 1192.950 389.456, 1193.500 389.128 C 1194.593 388.475, 1195.237 388.314, 1197.500 388.125 C 1198.325 388.056, 1199 387.352, 1199 386.559 C 1199 385.766, 1199.445 384.843, 1199.989 384.507 C 1200.568 384.149, 1200.715 384.580, 1200.343 385.549 C 1199.754 387.082, 1199.937 387.084, 1202.854 385.575 C 1204.584 384.681, 1206.007 383.173, 1206.015 382.224 C 1206.026 380.968, 1206.249 380.844, 1206.836 381.768 C 1207.415 382.681, 1208.828 381.770, 1211.878 378.516 C 1214.319 375.910, 1215.813 373.507, 1215.403 372.843 C 1214.957 372.122, 1215.132 371.963, 1215.868 372.419 C 1216.641 372.896, 1217.897 371.220, 1219.523 367.545 C 1222.363 361.122, 1222.459 360.649, 1220.750 361.515 C 1220.063 361.863, 1220.287 361.503, 1221.250 360.714 C 1223.288 359.043, 1223.750 353.431, 1221.750 354.633 C 1220.792 355.209, 1220.799 355.015, 1221.782 353.801 C 1223.111 352.160, 1223.111 342.001, 1221.781 342 C 1221.386 342, 1221.350 341.251, 1221.701 340.336 C 1222.165 339.128, 1221.977 338.896, 1221.015 339.490 C 1220.116 340.047, 1219.929 339.924, 1220.434 339.108 C 1221.690 337.075, 1217.178 329.093, 1211.586 323.456 C 1206.172 317.999, 1196.034 312.389, 1193.408 313.397 C 1192.633 313.694, 1192 313.501, 1192 312.969 C 1192 311.527, 1184.252 311.788, 1183.662 313.250 C 1183.259 314.250, 1183.142 314.250, 1183.079 313.250 C 1182.975 311.601, 1178.701 311.771, 1172.500 313.672 M 1172.490 316.016 C 1172.144 316.575, 1171.330 316.723, 1170.681 316.344 C 1170.031 315.966, 1170.356 316.632, 1171.402 317.825 C 1172.868 319.496, 1173.615 319.734, 1174.664 318.864 C 1175.692 318.011, 1175.747 317.401, 1174.890 316.367 C 1173.532 314.731, 1173.305 314.698, 1172.490 316.016 M 1184.923 315.250 C 1184.881 315.387, 1184.693 316.313, 1184.504 317.306 C 1184.228 318.757, 1184.437 318.882, 1185.569 317.943 C 1186.344 317.299, 1186.731 316.374, 1186.430 315.887 C 1185.912 315.049, 1185.091 314.702, 1184.923 315.250 M 1197 315.378 C 1197 315.585, 1197.787 316.373, 1198.750 317.128 C 1200.336 318.371, 1200.371 318.336, 1199.128 316.750 C 1197.821 315.084, 1197 314.555, 1197 315.378 M 1172.553 316.915 C 1172.231 317.436, 1172.394 318.125, 1172.915 318.447 C 1173.436 318.769, 1174.125 318.606, 1174.447 318.085 C 1174.769 317.564, 1174.606 316.875, 1174.085 316.553 C 1173.564 316.231, 1172.875 316.394, 1172.553 316.915 M 1189.453 319.955 C 1189.976 320.805, 1191.292 322.512, 1192.377 323.750 C 1194.200 325.830, 1194.215 326, 1192.574 326 C 1191.598 326, 1189.285 327.515, 1187.433 329.367 C 1185.582 331.218, 1183.857 332.524, 1183.601 332.268 C 1183.345 332.012, 1183.408 332.859, 1183.741 334.151 C 1184.281 336.244, 1184.166 336.352, 1182.684 335.137 C 1181.770 334.387, 1181.222 333.449, 1181.467 333.053 C 1181.712 332.657, 1181.244 332.333, 1180.429 332.333 C 1179.392 332.333, 1179.727 333.150, 1181.544 335.046 C 1182.974 336.538, 1184.039 338.376, 1183.911 339.129 C 1183.177 343.468, 1190.134 351, 1194.877 351 C 1196.375 351, 1198.206 351.563, 1198.947 352.250 C 1200.024 353.250, 1200.152 353.250, 1199.588 352.250 C 1198.598 350.497, 1200.494 350.686, 1201.991 352.489 C 1203.290 354.054, 1205.456 353.547, 1204.447 351.915 C 1204.125 351.394, 1203.443 351.226, 1202.931 351.543 C 1202.419 351.859, 1202 351.641, 1202 351.059 C 1202 350.477, 1202.689 350, 1203.531 350 C 1204.374 350, 1205.321 349.328, 1205.636 348.506 C 1205.952 347.684, 1206.725 347.306, 1207.355 347.666 C 1207.985 348.026, 1208.180 347.966, 1207.790 347.534 C 1207.399 347.101, 1207.737 345.476, 1208.540 343.923 C 1212.720 335.840, 1206.030 325, 1196.863 325 C 1195.087 325, 1193.241 323.897, 1191.347 321.705 C 1189.781 319.893, 1188.929 319.105, 1189.453 319.955 M 1164 319.378 C 1164 319.585, 1164.787 320.373, 1165.750 321.128 C 1167.336 322.371, 1167.371 322.336, 1166.128 320.750 C 1164.821 319.084, 1164 318.555, 1164 319.378 M 1177.071 319.500 C 1177.077 320.050, 1178.462 322.075, 1180.150 324 C 1182.397 326.562, 1182.865 326.830, 1181.897 325 C 1181.170 323.625, 1180.682 322.129, 1180.812 321.676 C 1180.943 321.222, 1180.616 321.119, 1180.086 321.447 C 1179.556 321.774, 1178.659 321.245, 1178.092 320.271 C 1177.525 319.297, 1177.065 318.950, 1177.071 319.500 M 1181.564 320.293 C 1181.940 321.279, 1182.499 321.834, 1182.807 321.526 C 1183.115 321.219, 1182.808 320.412, 1182.124 319.733 C 1181.136 318.753, 1181.022 318.868, 1181.564 320.293 M 1199.490 320.016 C 1199.144 320.575, 1198.443 320.774, 1197.931 320.457 C 1196.304 319.452, 1196.929 320.701, 1198.750 322.095 C 1199.713 322.831, 1200.166 323.040, 1199.759 322.559 C 1199.351 322.078, 1199.519 321.080, 1200.131 320.342 C 1200.744 319.604, 1200.991 319, 1200.681 319 C 1200.372 319, 1199.835 319.457, 1199.490 320.016 M 1185.939 323.250 C 1187.264 324.762, 1188.585 326, 1188.874 326 C 1189.163 326, 1188.871 325.471, 1188.224 324.824 C 1187.322 323.922, 1187.334 323.280, 1188.274 322.074 C 1189.325 320.725, 1189.275 320.675, 1187.926 321.726 C 1186.683 322.694, 1186.056 322.694, 1184.941 321.726 C 1184.165 321.052, 1184.614 321.738, 1185.939 323.250 M 1207.613 324.183 C 1207.902 324.650, 1208.557 324.774, 1209.069 324.457 C 1210.377 323.649, 1210.230 323.333, 1208.544 323.333 C 1207.743 323.333, 1207.324 323.716, 1207.613 324.183 M 1209.500 326 C 1209.160 326.550, 1209.021 327.034, 1209.191 327.077 C 1212.484 327.892, 1213.044 327.758, 1211.933 326.420 C 1210.532 324.732, 1210.308 324.693, 1209.500 326 M 1179.500 329 C 1180.495 330.100, 1181.535 331, 1181.810 331 C 1182.085 331, 1181.495 330.100, 1180.500 329 C 1179.505 327.900, 1178.465 327, 1178.190 327 C 1177.915 327, 1178.505 327.900, 1179.500 329 M 1184.564 328.293 C 1184.940 329.279, 1185.499 329.834, 1185.807 329.526 C 1186.115 329.219, 1185.808 328.412, 1185.124 327.733 C 1184.136 326.753, 1184.022 326.868, 1184.564 328.293 M 1170.306 329.417 C 1170.412 330.012, 1169.904 330.376, 1169.176 330.225 C 1168.438 330.072, 1168.150 330.434, 1168.525 331.040 C 1168.978 331.773, 1169.822 331.566, 1171.099 330.410 C 1173.378 328.348, 1173.382 328.333, 1171.556 328.333 C 1170.761 328.333, 1170.199 328.821, 1170.306 329.417 M 1158.973 330.351 C 1159.765 331.369, 1160.514 332.898, 1160.639 333.748 C 1160.764 334.599, 1161.638 336.016, 1162.581 336.897 C 1164.197 338.407, 1164.202 338.359, 1162.677 336.068 C 1161.398 334.149, 1161.307 333.306, 1162.246 332.068 C 1162.899 331.206, 1163.035 330.838, 1162.548 331.252 C 1162.061 331.666, 1160.734 331.216, 1159.598 330.252 C 1157.613 328.567, 1157.589 328.571, 1158.973 330.351 M 1208.569 329.889 C 1208.327 330.280, 1209.210 330.600, 1210.531 330.600 C 1211.852 330.600, 1212.710 330.377, 1212.438 330.104 C 1211.609 329.276, 1209.036 329.133, 1208.569 329.889 M 1166 331.059 C 1166 331.641, 1165.550 331.840, 1165 331.500 C 1163.559 330.610, 1163.768 331.563, 1165.291 332.827 C 1166.267 333.637, 1166.618 333.422, 1166.729 331.949 C 1166.810 330.877, 1166.679 330, 1166.438 330 C 1166.197 330, 1166 330.477, 1166 331.059 M 1154.399 333.250 C 1154.003 333.938, 1154.048 334.166, 1154.498 333.759 C 1154.948 333.351, 1156.032 333.576, 1156.908 334.259 C 1158.317 335.357, 1158.342 335.298, 1157.128 333.750 C 1155.492 331.664, 1155.328 331.634, 1154.399 333.250 M 1173.564 333.293 C 1173.940 334.279, 1174.499 334.834, 1174.807 334.526 C 1175.115 334.219, 1174.808 333.412, 1174.124 332.733 C 1173.136 331.753, 1173.022 331.868, 1173.564 333.293 M 1210.564 333.707 C 1210.022 335.132, 1210.136 335.247, 1211.124 334.267 C 1211.808 333.588, 1212.115 332.781, 1211.807 332.474 C 1211.499 332.166, 1210.940 332.721, 1210.564 333.707 M 1150.138 334.333 C 1149.311 335.330, 1149.365 335.667, 1150.349 335.667 C 1151.074 335.667, 1151.667 335.067, 1151.667 334.333 C 1151.667 333.600, 1151.572 333, 1151.456 333 C 1151.340 333, 1150.747 333.600, 1150.138 334.333 M 1169 333.378 C 1169 333.585, 1169.787 334.373, 1170.750 335.128 C 1172.336 336.371, 1172.371 336.336, 1171.128 334.750 C 1169.821 333.084, 1169 332.555, 1169 333.378 M 1213 333.378 C 1213 333.585, 1213.787 334.373, 1214.750 335.128 C 1216.336 336.371, 1216.371 336.336, 1215.128 334.750 C 1213.821 333.084, 1213 332.555, 1213 333.378 M 1213.611 337.820 C 1213.287 338.344, 1213.656 339.299, 1214.431 339.943 C 1215.542 340.865, 1215.792 340.789, 1215.615 339.585 C 1215.312 337.520, 1214.331 336.656, 1213.611 337.820 M 1154.490 339.016 C 1154.144 339.575, 1153.330 339.728, 1152.681 339.356 C 1152.031 338.984, 1151.851 339.065, 1152.279 339.535 C 1153.573 340.957, 1155.667 340.866, 1155.667 339.387 C 1155.667 337.739, 1155.343 337.637, 1154.490 339.016 M 1161.379 339.379 C 1161.506 340.239, 1161.888 341.221, 1162.229 341.563 C 1162.571 341.904, 1162.747 341.480, 1162.621 340.621 C 1162.494 339.761, 1162.112 338.779, 1161.771 338.437 C 1161.429 338.096, 1161.253 338.520, 1161.379 339.379 M 1174.473 341.044 C 1174.118 341.618, 1174.313 342.672, 1174.905 343.386 C 1175.498 344.100, 1175.649 345.052, 1175.241 345.502 C 1174.834 345.952, 1175.102 345.973, 1175.837 345.547 C 1176.800 344.991, 1176.870 344.470, 1176.087 343.687 C 1174.312 341.912, 1174.852 340.639, 1176.750 342.128 C 1178.336 343.371, 1178.371 343.336, 1177.128 341.750 C 1175.525 339.706, 1175.331 339.655, 1174.473 341.044 M 1149 342.544 C 1149 342.660, 1149.600 343.253, 1150.333 343.862 C 1151.330 344.689, 1151.667 344.635, 1151.667 343.651 C 1151.667 342.926, 1151.067 342.333, 1150.333 342.333 C 1149.600 342.333, 1149 342.428, 1149 342.544 M 1160 343.378 C 1160 343.585, 1160.787 344.373, 1161.750 345.128 C 1163.336 346.371, 1163.371 346.336, 1162.128 344.750 C 1160.821 343.084, 1160 342.555, 1160 343.378 M 1216.429 344.833 C 1216.429 345.842, 1216.983 346.667, 1217.660 346.667 C 1218.545 346.667, 1218.615 346.150, 1217.911 344.833 C 1217.371 343.825, 1216.817 343, 1216.679 343 C 1216.541 343, 1216.429 343.825, 1216.429 344.833 M 1154.931 345.262 C 1155.851 346.478, 1156.635 346.718, 1157.456 346.036 C 1158.255 345.373, 1159.102 345.452, 1160.026 346.274 C 1161.191 347.311, 1161.197 347.228, 1160.069 345.738 C 1159.149 344.522, 1158.365 344.282, 1157.544 344.964 C 1156.745 345.627, 1155.898 345.548, 1154.974 344.726 C 1153.809 343.689, 1153.803 343.772, 1154.931 345.262 M 1167.756 344.664 C 1168.447 344.943, 1168.713 345.695, 1168.346 346.335 C 1167.979 346.976, 1168.048 347.166, 1168.498 346.759 C 1168.948 346.351, 1170.032 346.568, 1170.908 347.241 C 1171.883 347.991, 1171.762 347.601, 1170.595 346.233 C 1169.547 345.005, 1168.197 344.036, 1167.595 344.079 C 1166.969 344.124, 1167.038 344.375, 1167.756 344.664 M 1178.613 345.183 C 1178.902 345.650, 1179.557 345.774, 1180.069 345.457 C 1181.377 344.649, 1181.230 344.333, 1179.544 344.333 C 1178.743 344.333, 1178.324 344.716, 1178.613 345.183 M 1182.325 344.658 C 1182.687 345.020, 1182.424 346.032, 1181.741 346.908 C 1180.674 348.277, 1180.720 348.328, 1182.074 347.274 C 1183.317 346.306, 1183.942 346.306, 1185.047 347.274 C 1185.817 347.948, 1185.602 347.488, 1184.568 346.250 C 1183.535 345.012, 1182.460 344, 1182.178 344 C 1181.897 344, 1181.963 344.296, 1182.325 344.658 M 1213.333 346.456 C 1213.333 347.257, 1213.716 347.676, 1214.183 347.387 C 1214.650 347.098, 1214.774 346.443, 1214.457 345.931 C 1213.649 344.623, 1213.333 344.770, 1213.333 346.456 M 1153.564 347.293 C 1153.940 348.279, 1154.499 348.834, 1154.807 348.526 C 1155.115 348.219, 1154.808 347.412, 1154.124 346.733 C 1153.136 345.753, 1153.022 345.868, 1153.564 347.293 M 1210 347.378 C 1210 347.585, 1210.787 348.373, 1211.750 349.128 C 1213.336 350.371, 1213.371 350.336, 1212.128 348.750 C 1210.821 347.084, 1210 346.555, 1210 347.378 M 1162.110 349.367 C 1161.239 350.417, 1161.385 351.056, 1162.738 352.117 C 1164.295 353.339, 1164.357 353.317, 1163.274 351.926 C 1162.334 350.720, 1162.322 350.078, 1163.224 349.176 C 1163.871 348.529, 1164.140 348, 1163.822 348 C 1163.505 348, 1162.734 348.615, 1162.110 349.367 M 1177 350.500 C 1178.292 351.875, 1179.574 353, 1179.849 353 C 1180.124 353, 1179.292 351.875, 1178 350.500 C 1176.708 349.125, 1175.426 348, 1175.151 348 C 1174.876 348, 1175.708 349.125, 1177 350.500 M 1182.543 348.931 C 1182.226 349.443, 1182.350 350.098, 1182.817 350.387 C 1183.284 350.676, 1183.667 350.257, 1183.667 349.456 C 1183.667 347.770, 1183.351 347.623, 1182.543 348.931 M 1146.603 349.833 C 1146.320 350.292, 1146.723 350.667, 1147.500 350.667 C 1148.277 350.667, 1148.680 350.292, 1148.397 349.833 C 1148.114 349.375, 1147.710 349, 1147.500 349 C 1147.290 349, 1146.886 349.375, 1146.603 349.833 M 1185.611 349.820 C 1185.287 350.344, 1185.656 351.299, 1186.431 351.943 C 1187.542 352.865, 1187.792 352.789, 1187.615 351.585 C 1187.312 349.520, 1186.331 348.656, 1185.611 349.820 M 1167 350.378 C 1167 350.585, 1167.787 351.373, 1168.750 352.128 C 1170.336 353.371, 1170.371 353.336, 1169.128 351.750 C 1167.821 350.084, 1167 349.555, 1167 350.378 M 1206.328 352.128 C 1206.611 353.024, 1206.459 354.149, 1205.989 354.628 C 1205.514 355.113, 1205.771 356.362, 1206.567 357.441 C 1207.355 358.509, 1208 358.873, 1208 358.250 C 1208 357.627, 1207.521 356.822, 1206.935 356.460 C 1206.238 356.029, 1206.466 355.142, 1207.595 353.895 C 1208.545 352.846, 1209.024 351.690, 1208.661 351.327 C 1208.297 350.964, 1207.993 351.304, 1207.985 352.083 C 1207.972 353.255, 1207.783 353.241, 1206.890 352 C 1205.958 350.703, 1205.881 350.721, 1206.328 352.128 M 1213 351.378 C 1213 351.585, 1213.787 352.373, 1214.750 353.128 C 1216.336 354.371, 1216.371 354.336, 1215.128 352.750 C 1213.821 351.084, 1213 350.555, 1213 351.378 M 1157 352.892 C 1157 353.566, 1156.480 353.797, 1155.845 353.405 C 1155.101 352.945, 1154.964 353.132, 1155.458 353.933 C 1156.004 354.815, 1156.536 354.864, 1157.296 354.104 C 1157.885 353.515, 1158.059 352.726, 1157.683 352.350 C 1157.307 351.974, 1157 352.218, 1157 352.892 M 1159.400 353.733 C 1159.720 354.054, 1159.538 354.852, 1158.995 355.506 C 1158.307 356.335, 1158.690 357.274, 1160.254 358.598 C 1162.494 360.495, 1162.496 360.495, 1160.764 358.436 C 1158.572 355.832, 1160.303 353.262, 1162.926 355.226 C 1164.237 356.207, 1164.293 356.171, 1163.260 355.012 C 1162.578 354.246, 1161.299 353.514, 1160.418 353.385 C 1159.538 353.256, 1159.079 353.412, 1159.400 353.733 M 1170.590 353.855 C 1170.299 354.325, 1171.159 355.740, 1172.500 357 C 1174.831 359.190, 1175.043 361.762, 1172.776 360.362 C 1172.113 359.952, 1171.980 360.159, 1172.435 360.894 C 1173.004 361.815, 1173.509 361.823, 1174.589 360.926 C 1175.943 359.803, 1176.465 360.371, 1176.035 362.500 C 1175.924 363.050, 1176.175 363.158, 1176.592 362.741 C 1177.010 362.323, 1178.510 362.990, 1179.926 364.222 C 1181.342 365.453, 1180.352 364.194, 1177.726 361.422 C 1175.100 358.650, 1173.300 356.034, 1173.726 355.608 C 1174.152 355.182, 1173.825 354.983, 1173 355.167 C 1172.175 355.350, 1171.612 354.938, 1171.750 354.250 C 1172.036 352.818, 1171.371 352.591, 1170.590 353.855 M 1185.118 353.750 C 1185.419 355.654, 1184.888 356.152, 1183.652 355.126 C 1182.619 354.269, 1181.858 354.515, 1180.402 356.175 C 1179.356 357.368, 1179.024 358.039, 1179.665 357.666 C 1180.305 357.293, 1181.019 357.328, 1181.251 357.744 C 1181.483 358.160, 1181.552 357.981, 1181.405 357.348 C 1180.997 355.590, 1182.166 354.893, 1183.569 356.057 C 1184.438 356.779, 1185.023 356.771, 1185.480 356.032 C 1185.842 355.447, 1186.670 355.286, 1187.319 355.676 C 1187.992 356.079, 1187.909 355.656, 1187.128 354.692 C 1185.658 352.881, 1184.927 352.538, 1185.118 353.750 M 1150.500 356 C 1151.495 357.100, 1152.535 358, 1152.810 358 C 1153.085 358, 1152.495 357.100, 1151.500 356 C 1150.505 354.900, 1149.465 354, 1149.190 354 C 1148.915 354, 1149.505 354.900, 1150.500 356 M 1167.004 357.331 C 1168.377 358.887, 1169.388 360.350, 1169.250 360.581 C 1168.922 361.131, 1170.049 361.285, 1170.573 360.760 C 1170.796 360.537, 1169.523 359.037, 1167.743 357.427 L 1164.507 354.500 1167.004 357.331 M 1193.603 356.833 C 1193.320 357.292, 1193.723 357.667, 1194.500 357.667 C 1195.277 357.667, 1195.680 357.292, 1195.397 356.833 C 1195.114 356.375, 1194.710 356, 1194.500 356 C 1194.290 356, 1193.886 356.375, 1193.603 356.833 M 1214.564 359.104 C 1214.880 359.615, 1215.529 359.791, 1216.008 359.495 C 1216.486 359.200, 1217.341 359.755, 1217.908 360.729 C 1218.475 361.703, 1218.953 361.964, 1218.970 361.309 C 1219.002 360.032, 1217.286 358.675, 1215.245 358.366 C 1214.555 358.261, 1214.249 358.593, 1214.564 359.104 M 1183 359.178 C 1183 359.495, 1183.615 360.266, 1184.367 360.890 C 1185.417 361.761, 1186.056 361.615, 1187.117 360.262 C 1188.339 358.705, 1188.317 358.643, 1186.926 359.726 C 1185.720 360.666, 1185.078 360.678, 1184.176 359.776 C 1183.529 359.129, 1183 358.860, 1183 359.178 M 1204.564 361.293 C 1204.940 362.279, 1205.499 362.834, 1205.807 362.526 C 1206.115 362.219, 1205.808 361.412, 1205.124 360.733 C 1204.136 359.753, 1204.022 359.868, 1204.564 361.293 M 1197.333 362.333 C 1197.333 363.067, 1197.926 363.667, 1198.651 363.667 C 1199.635 363.667, 1199.689 363.330, 1198.862 362.333 C 1198.253 361.600, 1197.660 361, 1197.544 361 C 1197.428 361, 1197.333 361.600, 1197.333 362.333 M 1171 362.892 C 1171 363.590, 1170.461 363.808, 1169.750 363.399 C 1169.063 363.003, 1168.834 363.048, 1169.241 363.498 C 1169.649 363.948, 1169.544 364.845, 1169.007 365.491 C 1168.334 366.302, 1168.492 366.667, 1169.516 366.667 C 1170.332 366.667, 1170.779 366.446, 1170.509 366.175 C 1170.238 365.905, 1170.528 365.069, 1171.151 364.318 C 1171.775 363.566, 1171.996 362.663, 1171.643 362.309 C 1171.289 361.956, 1171 362.218, 1171 362.892 M 1160.825 365.152 C 1162.446 366.991, 1162.799 368.006, 1161.988 368.507 C 1160.629 369.347, 1162.113 371.253, 1164.386 371.586 C 1166.025 371.827, 1165.936 369.833, 1164.215 367.759 C 1163.556 366.965, 1163.238 366.020, 1163.509 365.658 C 1163.779 365.296, 1163.699 365.226, 1163.331 365.502 C 1162.963 365.778, 1161.726 365.219, 1160.581 364.259 C 1158.908 362.856, 1158.956 363.031, 1160.825 365.152 M 1151.500 366 C 1152.495 367.100, 1153.535 368, 1153.810 368 C 1154.085 368, 1153.495 367.100, 1152.500 366 C 1151.505 364.900, 1150.465 364, 1150.190 364 C 1149.915 364, 1150.505 364.900, 1151.500 366 M 1193.613 366.183 C 1193.902 366.650, 1194.557 366.774, 1195.069 366.457 C 1196.377 365.649, 1196.230 365.333, 1194.544 365.333 C 1193.743 365.333, 1193.324 365.716, 1193.613 366.183 M 1203 365.544 C 1203 365.660, 1203.600 366.253, 1204.333 366.862 C 1205.330 367.689, 1205.667 367.635, 1205.667 366.651 C 1205.667 365.926, 1205.067 365.333, 1204.333 365.333 C 1203.600 365.333, 1203 365.428, 1203 365.544 M 1176.800 368.048 C 1177.515 368.847, 1178.527 369.556, 1179.050 369.625 C 1179.572 369.694, 1180.112 369.841, 1180.250 369.952 C 1181.386 370.867, 1183.667 370.501, 1183.667 369.403 C 1183.667 368.478, 1183.290 368.344, 1182.510 368.992 C 1181.756 369.617, 1180.942 369.542, 1180.176 368.776 C 1179.529 368.129, 1179 367.970, 1179 368.422 C 1179 368.875, 1178.213 368.649, 1177.250 367.921 C 1175.739 366.778, 1175.678 366.795, 1176.800 368.048 M 1195.544 367.929 C 1195.162 368.547, 1195.389 368.926, 1196.051 368.775 C 1196.710 368.624, 1197.477 369.125, 1197.755 369.889 C 1198.032 370.653, 1197.826 371.011, 1197.296 370.683 C 1196.767 370.356, 1196.333 370.765, 1196.333 371.592 C 1196.333 372.911, 1196.523 372.905, 1197.881 371.548 C 1199.278 370.151, 1199.273 369.844, 1197.833 368.404 C 1196.721 367.292, 1196.027 367.148, 1195.544 367.929 M 1203.347 368.831 C 1204.259 369.838, 1204.666 371.035, 1204.252 371.491 C 1203.838 371.948, 1204.092 371.979, 1204.815 371.561 C 1205.863 370.956, 1205.780 370.415, 1204.410 368.901 C 1203.464 367.855, 1202.465 367, 1202.190 367 C 1201.915 367, 1202.436 367.824, 1203.347 368.831 M 1213.118 367.750 C 1213.430 369.725, 1212.872 370.349, 1212 369 C 1211.418 368.099, 1211.025 367.975, 1211.015 368.691 C 1210.994 370.363, 1212.729 371.248, 1213.520 369.968 C 1213.972 369.237, 1214.699 369.305, 1215.839 370.184 C 1217.009 371.087, 1216.937 370.806, 1215.595 369.233 C 1213.604 366.899, 1212.919 366.489, 1213.118 367.750 M 1162.553 368.915 C 1162.231 369.436, 1162.394 370.125, 1162.915 370.447 C 1163.436 370.769, 1164.125 370.606, 1164.447 370.085 C 1164.769 369.564, 1164.606 368.875, 1164.085 368.553 C 1163.564 368.231, 1162.875 368.394, 1162.553 368.915 M 1171.336 368.669 C 1171.703 369.037, 1171.327 370.087, 1170.498 371.002 C 1169.207 372.429, 1169.199 372.667, 1170.440 372.667 C 1171.237 372.667, 1171.801 372.337, 1171.694 371.933 C 1171.588 371.530, 1171.950 371.200, 1172.500 371.200 C 1173.050 371.200, 1173.376 371.638, 1173.225 372.174 C 1173.074 372.710, 1173.441 372.846, 1174.040 372.475 C 1174.773 372.022, 1174.566 371.178, 1173.410 369.901 C 1172.464 368.855, 1171.460 368, 1171.178 368 C 1170.897 368, 1170.968 368.301, 1171.336 368.669 M 1188.333 370.646 C 1188.333 371.602, 1188.663 371.737, 1189.343 371.057 C 1190.022 370.378, 1190.867 370.433, 1191.926 371.226 C 1193.237 372.207, 1193.293 372.171, 1192.260 371.012 C 1190.573 369.118, 1188.333 368.909, 1188.333 370.646 M 1153.595 371.154 C 1153.928 371.693, 1154.456 371.877, 1154.769 371.564 C 1155.082 371.252, 1156.087 371.673, 1157.002 372.502 C 1158.429 373.793, 1158.667 373.801, 1158.667 372.560 C 1158.667 371.763, 1158.404 371.139, 1158.083 371.174 C 1157.763 371.209, 1157.275 371.149, 1157 371.042 C 1155.042 370.278, 1153.094 370.343, 1153.595 371.154 M 1160.333 372.452 C 1160.333 373.255, 1160.677 373.699, 1161.098 373.440 C 1161.518 373.180, 1162.149 373.432, 1162.500 374 C 1162.851 374.568, 1163.529 374.791, 1164.008 374.495 C 1164.486 374.200, 1165.341 374.755, 1165.908 375.729 C 1166.475 376.703, 1166.953 376.993, 1166.970 376.372 C 1166.986 375.752, 1166.325 374.685, 1165.500 374 C 1164.675 373.315, 1164 373.105, 1164 373.533 C 1164 373.960, 1163.175 373.563, 1162.167 372.651 C 1160.650 371.278, 1160.333 371.244, 1160.333 372.452 M 1178.500 372 C 1177.919 372.940, 1178.581 373.375, 1180.220 373.128 C 1180.924 373.022, 1182.706 375.761, 1182.901 377.250 C 1182.956 377.663, 1183.156 377.887, 1183.346 377.750 C 1183.537 377.613, 1184.538 378.175, 1185.570 379 C 1186.603 379.825, 1185.718 378.363, 1183.603 375.750 C 1179.400 370.556, 1179.395 370.552, 1178.500 372 M 1155 373.378 C 1155 373.585, 1155.787 374.373, 1156.750 375.128 C 1158.336 376.371, 1158.371 376.336, 1157.128 374.750 C 1155.821 373.084, 1155 372.555, 1155 373.378 M 1197 378 C 1198.742 380.200, 1200.393 382, 1200.668 382 C 1200.943 382, 1199.742 380.200, 1198 378 C 1196.258 375.800, 1194.607 374, 1194.332 374 C 1194.057 374, 1195.258 375.800, 1197 378 M 1210 375.941 C 1210 376.459, 1210.445 377.157, 1210.989 377.493 C 1211.555 377.843, 1211.723 377.442, 1211.382 376.552 C 1210.717 374.820, 1210 374.503, 1210 375.941 M 1173.639 377 C 1174.246 377.825, 1174.616 379.288, 1174.460 380.250 C 1174.120 382.353, 1174.397 382.432, 1175.874 380.652 C 1176.732 379.618, 1176.474 378.861, 1174.764 377.402 C 1173.538 376.356, 1173.031 376.175, 1173.639 377 M 1206.385 377.418 C 1206.737 379.813, 1208.617 381.429, 1209.461 380.062 C 1209.847 379.439, 1209.587 379.071, 1208.870 379.225 C 1208.166 379.376, 1207.570 378.975, 1207.545 378.333 C 1207.520 377.692, 1207.196 376.863, 1206.825 376.492 C 1206.454 376.120, 1206.256 376.538, 1206.385 377.418 M 1166.254 380.583 C 1167.941 382.587, 1171.497 383.613, 1170.356 381.767 C 1170.050 381.272, 1169.544 381.123, 1169.231 381.436 C 1168.918 381.748, 1167.726 381.216, 1166.581 380.252 C 1164.530 378.525, 1164.525 378.530, 1166.254 380.583 M 1170.613 380.183 C 1170.902 380.650, 1171.557 380.774, 1172.069 380.457 C 1173.377 379.649, 1173.230 379.333, 1171.544 379.333 C 1170.743 379.333, 1170.324 379.716, 1170.613 380.183 M 1192 380.255 C 1192 380.530, 1192.635 381.282, 1193.411 381.926 C 1194.498 382.828, 1194.994 382.799, 1195.571 381.799 C 1195.983 381.084, 1195.952 380.834, 1195.502 381.241 C 1195.052 381.649, 1194.080 381.481, 1193.342 380.869 C 1192.604 380.256, 1192 379.980, 1192 380.255 M 1178 383 C 1178.589 384.100, 1179.295 385, 1179.570 385 C 1179.845 385, 1179.589 384.100, 1179 383 C 1178.411 381.900, 1177.705 381, 1177.430 381 C 1177.155 381, 1177.411 381.900, 1178 383 M 1175.490 384.016 C 1175.144 384.575, 1174.330 384.728, 1173.681 384.356 C 1173.031 383.984, 1172.851 384.065, 1173.279 384.535 C 1174.573 385.957, 1176.667 385.866, 1176.667 384.387 C 1176.667 382.739, 1176.343 382.637, 1175.490 384.016 M 1192 383.378 C 1192 383.585, 1192.787 384.373, 1193.750 385.128 C 1195.336 386.371, 1195.371 386.336, 1194.128 384.750 C 1192.821 383.084, 1192 382.555, 1192 383.378 M 1181.079 387.583 C 1181.127 388.748, 1181.364 388.985, 1181.683 388.188 C 1181.972 387.466, 1181.936 386.603, 1181.604 386.271 C 1181.272 385.939, 1181.036 386.529, 1181.079 387.583 M 1117 464.772 C 1117 465.535, 1117.500 465.809, 1118.155 465.405 C 1118.918 464.933, 1119.035 465.134, 1118.502 465.997 C 1117.872 467.017, 1117.399 466.899, 1116.347 465.460 C 1115.240 463.946, 1115 463.897, 1115 465.186 C 1115 466.049, 1114.305 467.332, 1113.454 468.038 C 1112.604 468.743, 1112.140 469.923, 1112.423 470.660 C 1112.706 471.397, 1112.464 472, 1111.885 472 C 1111.307 472, 1111.040 472.563, 1111.292 473.250 C 1111.544 473.938, 1112.369 474.350, 1113.125 474.167 C 1113.881 473.983, 1114.125 474.208, 1113.667 474.667 C 1113.208 475.125, 1112.308 475.500, 1111.667 475.500 C 1110.001 475.500, 1109.627 480.771, 1110.957 485.482 C 1112.664 491.525, 1114.211 494.133, 1115.740 493.546 C 1116.526 493.245, 1116.829 493.468, 1116.454 494.074 C 1116.097 494.653, 1116.577 495.980, 1117.522 497.025 C 1119.669 499.396, 1126.595 503.071, 1127.401 502.266 C 1127.730 501.936, 1128 502.240, 1128 502.940 C 1128 503.649, 1128.651 503.964, 1129.468 503.651 C 1130.275 503.341, 1131.202 503.518, 1131.527 504.044 C 1131.852 504.570, 1133.693 505, 1135.618 505 C 1138.152 505, 1138.911 504.655, 1138.367 503.750 C 1137.780 502.772, 1137.936 502.759, 1139.084 503.687 C 1142.679 506.592, 1157.255 501.629, 1159.958 496.579 C 1161.208 494.243, 1161.153 493.817, 1159.425 492.414 C 1158.366 491.555, 1158.175 491.143, 1159 491.500 C 1159.825 491.857, 1159.626 491.440, 1158.559 490.574 C 1156.255 488.706, 1154.633 488.602, 1151.684 490.135 C 1148.506 491.788, 1148.507 491.784, 1150.589 494.244 C 1152.499 496.499, 1152.499 496.499, 1150.419 494.748 C 1149.274 493.784, 1147.965 493.334, 1147.509 493.748 C 1147.052 494.162, 1146.977 493.979, 1147.341 493.343 C 1147.787 492.563, 1147.269 492.348, 1145.751 492.682 C 1140.865 493.758, 1140.832 493.801, 1142.608 496.732 L 1144.285 499.500 1141.809 496.590 C 1140.004 494.468, 1138.746 493.833, 1137.166 494.246 C 1135.975 494.558, 1135 494.438, 1135 493.980 C 1135 492.500, 1131.548 492.312, 1129.893 493.702 C 1128.539 494.839, 1128.095 494.819, 1127.062 493.575 C 1126.389 492.763, 1125.702 491.290, 1125.536 490.300 C 1125.370 489.310, 1124.698 488.624, 1124.043 488.775 C 1123.388 488.926, 1123.114 488.625, 1123.435 488.105 C 1123.756 487.586, 1123.361 486.504, 1122.557 485.700 C 1121.753 484.896, 1121.335 483.998, 1121.629 483.705 C 1121.922 483.411, 1121.631 482.178, 1120.981 480.965 C 1120.073 479.269, 1120.073 478.927, 1120.982 479.489 C 1121.762 479.971, 1122.053 479.570, 1121.838 478.304 C 1121.660 477.252, 1122.270 475.237, 1123.194 473.827 C 1125.339 470.553, 1125.237 465.197, 1123.006 464.003 C 1120.606 462.719, 1117 463.180, 1117 464.772 M 1113.872 468.750 C 1112.629 470.336, 1112.664 470.371, 1114.250 469.128 C 1115.799 467.913, 1116.377 468.200, 1116.174 470.083 C 1116.139 470.404, 1116.763 470.667, 1117.560 470.667 C 1118.748 470.667, 1118.710 470.337, 1117.349 468.833 C 1115.336 466.609, 1115.548 466.614, 1113.872 468.750 M 1123 469.892 C 1123 470.566, 1122.480 470.797, 1121.845 470.405 C 1121.101 469.945, 1120.964 470.132, 1121.458 470.933 C 1122.004 471.815, 1122.536 471.864, 1123.296 471.104 C 1123.885 470.515, 1124.059 469.726, 1123.683 469.350 C 1123.307 468.974, 1123 469.218, 1123 469.892 M 1116.613 473.183 C 1116.902 473.650, 1117.557 473.774, 1118.069 473.457 C 1119.377 472.649, 1119.230 472.333, 1117.544 472.333 C 1116.743 472.333, 1116.324 472.716, 1116.613 473.183 M 1116.079 475.691 C 1115.965 477.412, 1117.735 478.239, 1118.585 476.862 C 1119.017 476.164, 1118.877 475.958, 1118.240 476.352 C 1117.652 476.715, 1116.943 476.447, 1116.664 475.756 C 1116.302 474.857, 1116.135 474.839, 1116.079 475.691 M 1115.490 486.016 C 1115.144 486.575, 1114.330 486.728, 1113.681 486.355 C 1113.031 485.982, 1113.591 486.875, 1114.924 488.339 C 1116.258 489.802, 1117.565 491, 1117.829 491 C 1118.094 491, 1117.571 490.184, 1116.669 489.186 C 1115.403 487.787, 1115.299 487.101, 1116.214 486.186 C 1116.866 485.534, 1117.112 485, 1116.759 485 C 1116.406 485, 1115.835 485.457, 1115.490 486.016 M 1127.015 492.028 C 1127.612 493.143, 1128.531 493.790, 1129.058 493.464 C 1129.615 493.120, 1129.415 492.273, 1128.579 491.436 C 1126.519 489.376, 1125.751 489.666, 1127.015 492.028 M 1126.363 496.765 C 1126.438 497.967, 1126.050 498.917, 1125.500 498.876 C 1124.950 498.834, 1124.624 498.362, 1124.775 497.826 C 1124.926 497.290, 1124.567 497.150, 1123.976 497.515 C 1123.226 497.979, 1123.261 498.610, 1124.095 499.614 C 1125.127 500.857, 1125.520 500.839, 1127.025 499.477 C 1128.624 498.031, 1128.921 498.121, 1130.729 500.603 C 1132.271 502.719, 1132.871 502.999, 1133.508 501.901 C 1133.955 501.130, 1133.991 500.795, 1133.588 501.156 C 1133.184 501.517, 1131.363 500.184, 1129.540 498.195 C 1126.629 495.019, 1126.242 494.845, 1126.363 496.765 M 1146 495.892 C 1146 496.566, 1145.480 496.797, 1144.845 496.405 C 1144.101 495.945, 1143.964 496.132, 1144.458 496.933 C 1145.004 497.815, 1145.536 497.864, 1146.296 497.104 C 1146.885 496.515, 1147.059 495.726, 1146.683 495.350 C 1146.307 494.974, 1146 495.218, 1146 495.892 M 1148 495.941 C 1148 496.459, 1148.445 497.157, 1148.989 497.493 C 1149.555 497.843, 1149.723 497.442, 1149.382 496.552 C 1148.717 494.820, 1148 494.503, 1148 495.941 M 1150.553 498.915 C 1150.231 499.436, 1150.394 500.125, 1150.915 500.447 C 1151.436 500.769, 1152.125 500.606, 1152.447 500.085 C 1152.769 499.564, 1152.606 498.875, 1152.085 498.553 C 1151.564 498.231, 1150.875 498.394, 1150.553 498.915" stroke="none" fill="black" fill-rule="evenodd"/>
	<path fill-opacity="0.939" d="M -0 539.876 L -0 1079.752 960.250 1079.626 L 1920.500 1079.500 1920.751 539.750 L 1921.002 0 960.501 0 L 0 0 -0 539.876 M 0.496 540.500 C 0.496 837.500, 0.610 958.851, 0.750 810.168 C 0.890 661.485, 0.890 418.485, 0.750 270.168 C 0.610 121.851, 0.496 243.500, 0.496 540.500 M 1147.942 252.036 C 1147.465 252.330, 1144.176 252.555, 1140.633 252.536 C 1137.090 252.516, 1134.358 252.769, 1134.561 253.099 C 1134.912 253.666, 1132.483 253.995, 1125.345 254.345 C 1123.611 254.430, 1122.447 254.914, 1122.760 255.420 C 1123.072 255.926, 1122.623 256.069, 1121.762 255.739 C 1120.900 255.408, 1119.905 255.428, 1119.550 255.783 C 1118.940 256.393, 1116.360 256.843, 1111.250 257.230 C 1110.013 257.323, 1109 257.787, 1109 258.259 C 1109 258.731, 1108.641 258.896, 1108.202 258.625 C 1107.763 258.354, 1106.766 258.527, 1105.986 259.009 C 1105.111 259.549, 1104.001 259.428, 1103.092 258.693 C 1101.900 257.729, 1101.781 257.773, 1102.472 258.920 C 1103.111 259.979, 1102.913 260.181, 1101.696 259.714 C 1100.798 259.369, 1099.774 259.557, 1099.419 260.131 C 1099.064 260.705, 1097.925 260.952, 1096.887 260.681 C 1095.849 260.409, 1095 260.648, 1095 261.210 C 1095 261.773, 1093.889 262.021, 1092.530 261.761 C 1091.172 261.501, 1090.298 261.674, 1090.589 262.144 C 1090.880 262.615, 1090.529 263.069, 1089.809 263.152 C 1088.410 263.315, 1086.965 263.620, 1085.750 264.010 C 1085.338 264.142, 1084.662 264.313, 1084.250 264.390 C 1083.838 264.467, 1082.938 264.888, 1082.250 265.324 C 1081.563 265.761, 1080.550 265.840, 1080 265.500 C 1079.450 265.160, 1079 265.359, 1079 265.941 C 1079 266.523, 1078.662 266.927, 1078.250 266.839 C 1077.838 266.750, 1076.225 267.203, 1074.666 267.846 C 1073.107 268.488, 1071.420 268.760, 1070.916 268.448 C 1070.412 268.137, 1070 268.385, 1070 269 C 1070 269.615, 1069.550 269.840, 1069 269.500 C 1068.450 269.160, 1068 269.414, 1068 270.063 C 1068 270.897, 1067.501 270.841, 1066.308 269.872 C 1064.864 268.701, 1064.741 268.708, 1065.472 269.920 C 1066.119 270.994, 1065.910 271.179, 1064.612 270.681 C 1063.593 270.290, 1063.144 270.424, 1063.507 271.011 C 1063.843 271.555, 1063.754 272.034, 1063.309 272.077 C 1062.317 272.170, 1060.224 272.685, 1057.250 273.566 C 1055.862 273.978, 1055 273.806, 1055 273.117 C 1055 272.502, 1054.662 272.069, 1054.250 272.154 C 1053.838 272.239, 1051.700 271.479, 1049.500 270.465 C 1045.098 268.436, 1044.707 268.307, 1042.441 268.125 C 1041.584 268.056, 1041.134 267.592, 1041.442 267.093 C 1041.751 266.595, 1041.109 266.420, 1040.016 266.706 C 1038.924 266.992, 1037.236 266.909, 1036.265 266.521 C 1034.149 265.678, 1016.938 265.740, 1012 266.609 C 1010.075 266.948, 1007.712 267.271, 1006.750 267.327 C 1005.788 267.383, 1005 267.782, 1005 268.214 C 1005 268.646, 1004.289 269, 1003.421 269 C 1002.552 269, 998.842 270.200, 995.175 271.667 C 991.509 273.133, 987.945 274.333, 987.255 274.333 C 986.565 274.333, 986 274.735, 986 275.226 C 986 275.716, 985.588 275.864, 985.085 275.553 C 984.582 275.242, 984.020 275.371, 983.835 275.840 C 983.651 276.309, 978.100 279.540, 971.500 283.021 C 964.900 286.502, 957.231 290.780, 954.459 292.529 C 951.686 294.277, 947.749 296.500, 945.709 297.468 C 943.669 298.436, 942 299.653, 942 300.173 C 942 300.693, 941.550 300.840, 941 300.500 C 940.450 300.160, 940 300.262, 940 300.725 C 940 301.189, 938.538 302.416, 936.750 303.452 C 934.962 304.488, 932.319 306.272, 930.876 307.418 C 929.432 308.563, 926.983 310.400, 925.432 311.500 C 923.881 312.600, 921.924 314.288, 921.084 315.250 C 920.243 316.212, 919.029 317, 918.385 317 C 917.741 317, 916.944 317.704, 916.614 318.563 C 916.278 319.438, 915.503 319.811, 914.853 319.409 C 914.214 319.014, 913.956 319.120, 914.280 319.643 C 914.951 320.730, 905.066 330.644, 903.728 330.225 C 903.246 330.074, 903.151 330.435, 903.516 331.026 C 903.882 331.618, 902.992 333.204, 901.539 334.551 C 900.086 335.898, 899.176 337, 899.517 337 C 899.857 337, 899.171 338.355, 897.992 340.012 C 896.812 341.668, 895.362 342.724, 894.769 342.357 C 894.146 341.972, 893.979 342.157, 894.374 342.796 C 895.089 343.953, 891.644 351.311, 890.789 350.455 C 889.482 349.149, 891.415 359.731, 892.760 361.250 C 894.167 362.839, 894.152 363, 892.596 363 C 891.653 363, 891.160 363.450, 891.500 364 C 891.840 364.550, 891.191 365, 890.059 365 C 888.927 365, 888 365.477, 888 366.059 C 888 366.641, 887.550 366.840, 887 366.500 C 886.450 366.160, 886 366.252, 886 366.705 C 886 367.754, 878.109 372.668, 877.497 372 C 877.245 371.725, 876.324 372.520, 875.451 373.767 C 874.578 375.013, 873.491 375.804, 873.036 375.522 C 872.582 375.241, 871.952 375.684, 871.636 376.506 C 871.321 377.328, 870.567 378, 869.960 378 C 869.353 378, 868.230 378.563, 867.463 379.250 C 864.214 382.164, 863.033 383, 862.165 383 C 861.659 383, 860.668 383.695, 859.962 384.546 C 859.257 385.396, 858.082 385.862, 857.352 385.581 C 856.621 385.301, 856.131 385.548, 856.262 386.129 C 856.393 386.710, 855.600 387.707, 854.500 388.343 C 853.400 388.979, 852.213 389.895, 851.862 390.378 C 851.511 390.861, 850.611 390.901, 849.862 390.468 C 849.113 390.034, 848.818 390.032, 849.207 390.463 C 850.387 391.772, 837.886 399.553, 836.627 398.293 C 836.282 397.949, 836 398.192, 836 398.833 C 836 399.475, 835.663 399.894, 835.250 399.765 C 834.837 399.636, 831.609 401.324, 828.075 403.515 C 824.542 405.707, 821.392 407.468, 821.075 407.429 C 820.759 407.389, 819.879 407.978, 819.121 408.736 C 818.363 409.494, 817.102 409.869, 816.319 409.569 C 815.536 409.269, 815.120 409.385, 815.393 409.826 C 815.666 410.268, 813.441 411.951, 810.448 413.565 C 807.456 415.179, 805.005 416.864, 805.003 417.309 C 805.002 417.754, 804.550 417.840, 804 417.500 C 803.450 417.160, 803 417.385, 803 418 C 803 418.615, 802.597 418.869, 802.105 418.565 C 801.612 418.260, 800.943 418.707, 800.617 419.557 C 800.153 420.764, 792.662 424.971, 790 425.519 C 789.725 425.575, 787.700 426.418, 785.500 427.392 C 783.300 428.366, 780.742 429.319, 779.815 429.511 C 778.888 429.703, 777.191 430.362, 776.044 430.976 C 774.897 431.590, 773.448 431.777, 772.825 431.392 C 772.157 430.979, 771.966 431.136, 772.360 431.773 C 772.961 432.745, 770.126 434.351, 767.500 434.526 C 766.950 434.562, 765.487 435.150, 764.250 435.831 C 763.013 436.513, 762 436.819, 762 436.512 C 762 436.205, 760.875 436.691, 759.500 437.592 C 758.125 438.493, 757 438.898, 757 438.493 C 757 438.087, 756.325 438.315, 755.500 439 C 754.291 440.004, 753.997 439.979, 753.985 438.872 C 753.972 437.778, 753.781 437.798, 753.039 438.971 C 752.527 439.780, 751.788 440.122, 751.396 439.730 C 751.005 439.338, 750.171 439.443, 749.544 439.964 C 748.916 440.484, 746.738 441.022, 744.702 441.159 C 742.666 441.297, 741 441.692, 741 442.038 C 741 442.730, 740.083 442.926, 735.250 443.267 C 733.462 443.393, 732 443.738, 732 444.035 C 732 444.514, 730.116 444.905, 726.250 445.229 C 725.563 445.286, 725 445.612, 725 445.952 C 725 446.293, 724.212 446.615, 723.250 446.667 C 716.099 447.060, 707.716 448.057, 706.796 448.626 C 706.064 449.078, 705.977 448.835, 706.537 447.905 C 707.258 446.708, 707.133 446.704, 705.692 447.872 C 704.761 448.627, 704 448.976, 704 448.647 C 704 448.318, 702.964 448.443, 701.697 448.925 C 700.285 449.462, 698.685 449.403, 697.560 448.774 C 696.234 448.032, 695.919 448.059, 696.422 448.874 C 697.360 450.392, 695.730 450.307, 694.053 448.750 C 693.123 447.887, 692.913 447.868, 693.375 448.689 C 693.789 449.426, 693.368 449.832, 692.272 449.757 C 691.297 449.689, 689.225 449.960, 687.666 450.357 C 685.490 450.912, 685.012 450.781, 685.608 449.790 C 686.238 448.743, 686.088 448.739, 684.814 449.771 C 683.951 450.470, 681.052 451.236, 678.372 451.474 C 675.692 451.711, 673.500 451.961, 673.500 452.029 C 673.500 452.277, 669.455 453.169, 667.750 453.297 C 666.788 453.369, 666 453.782, 666 454.214 C 666 454.646, 665.663 454.947, 665.250 454.882 C 664.837 454.816, 664.163 454.873, 663.750 455.007 C 663.337 455.140, 662.550 455.363, 662 455.500 C 661.450 455.637, 660.888 455.843, 660.750 455.957 C 660.612 456.071, 659.353 456.356, 657.950 456.590 C 655.677 456.969, 655.208 456.481, 653.631 452.094 C 652.658 449.387, 650.534 445.080, 648.912 442.522 C 647.289 439.964, 646.268 437.337, 646.641 436.685 C 647.015 436.033, 646.963 435.823, 646.527 436.217 C 646.090 436.611, 643.555 433.833, 640.894 430.043 C 638.232 426.253, 635.585 422.861, 635.011 422.507 C 634.437 422.152, 634.269 421.373, 634.638 420.776 C 635.007 420.179, 634.861 419.968, 634.314 420.306 C 633.307 420.928, 628.340 415.105, 628.753 413.786 C 628.876 413.393, 628.419 413.282, 627.738 413.538 C 627.057 413.794, 624.840 412.475, 622.810 410.608 C 620.781 408.740, 618.869 407.465, 618.560 407.773 C 618.252 408.081, 618 407.733, 618 407 C 618 406.267, 617.704 405.963, 617.342 406.325 C 616.980 406.687, 616.193 406.579, 615.592 406.086 C 613.871 404.672, 602.763 401.643, 600 401.833 C 598.625 401.928, 596.375 402.262, 595 402.575 C 593.625 402.888, 591.825 403.224, 591 403.322 C 590.175 403.420, 589.275 403.735, 589 404.023 C 587.740 405.341, 582.422 408.422, 581.750 408.222 C 581.338 408.100, 581.113 408.563, 581.250 409.250 C 581.388 409.938, 580.938 410.388, 580.250 410.250 C 579.563 410.113, 579.113 410.563, 579.250 411.250 C 579.388 411.938, 578.904 412.376, 578.176 412.225 C 577.447 412.074, 577.107 412.365, 577.420 412.871 C 578.109 413.985, 575.548 419.214, 574.719 418.386 C 574.398 418.065, 574.401 418.817, 574.725 420.057 C 575.051 421.302, 574.908 422.061, 574.408 421.751 C 573.384 421.117, 573.442 429.423, 574.483 432.500 C 574.856 433.600, 576.754 438.325, 578.703 443 C 585.381 459.025, 586.143 461.807, 585.649 468.376 C 585.184 474.569, 582.413 481.083, 576.613 489.619 C 575.176 491.734, 574 494.035, 574 494.732 C 574 495.429, 573.592 496, 573.094 496 C 572.595 496, 572.441 496.970, 572.751 498.156 C 573.067 499.363, 572.906 500.060, 572.387 499.739 C 571.826 499.393, 571.716 502.465, 572.109 507.520 C 572.567 513.404, 573.382 516.882, 574.866 519.283 C 576.025 521.159, 576.754 522.987, 576.487 523.347 C 576.219 523.706, 576.266 523.809, 576.591 523.576 C 576.916 523.343, 579.150 524.655, 581.556 526.491 C 590.478 533.301, 602.636 536.066, 612.500 533.527 C 631.085 528.744, 648.626 513.084, 654.767 495.793 C 655.705 493.152, 656.929 491.162, 657.486 491.370 C 658.044 491.579, 658.388 492.256, 658.250 492.875 C 658.113 493.494, 658.357 493.887, 658.793 493.750 C 659.909 493.398, 676.560 510.080, 676.225 511.216 C 676.074 511.729, 676.348 511.903, 676.835 511.602 C 677.321 511.302, 678.819 512.281, 680.163 513.778 C 681.508 515.275, 685.228 518.750, 688.432 521.500 C 691.635 524.250, 695.120 527.247, 696.176 528.159 C 697.232 529.072, 699.949 531.322, 702.213 533.159 C 704.477 534.997, 706.818 536.950, 707.415 537.500 C 708.012 538.050, 710.301 540.052, 712.501 541.948 C 714.700 543.845, 716.376 545.791, 716.225 546.272 C 716.074 546.754, 716.354 546.900, 716.846 546.595 C 717.339 546.291, 718.812 546.975, 720.121 548.116 C 721.429 549.257, 723.752 550.842, 725.283 551.638 C 726.881 552.469, 727.773 553.558, 727.378 554.197 C 727 554.809, 727.126 555.040, 727.657 554.712 C 728.188 554.384, 733.095 557.017, 738.561 560.563 C 744.028 564.110, 749.175 567.310, 750 567.674 C 750.825 568.039, 753.486 569.683, 755.913 571.328 C 760.695 574.571, 780.678 583.979, 782.809 583.992 C 783.529 583.996, 783.871 584.399, 783.570 584.887 C 783.268 585.375, 783.579 585.754, 784.261 585.730 C 787.682 585.606, 789.067 586.083, 788.405 587.155 C 787.969 587.860, 788.130 588.038, 788.818 587.613 C 789.438 587.230, 792.545 588.123, 795.722 589.597 C 800.697 591.905, 819.554 599.515, 822.500 600.403 C 823.050 600.568, 825.575 601.664, 828.110 602.837 C 830.646 604.010, 833.796 605.168, 835.110 605.411 C 836.425 605.653, 837.500 605.922, 837.500 606.009 C 837.500 606.096, 838.400 606.308, 839.500 606.481 C 840.600 606.654, 843.750 607.296, 846.500 607.909 C 849.250 608.521, 852.930 609.296, 854.678 609.630 C 856.936 610.062, 858.200 611.069, 859.045 613.108 C 860.829 617.416, 867.060 622.516, 873.114 624.624 C 881.185 627.435, 900.539 627.100, 912 623.950 C 921.316 621.391, 923.087 621.312, 946.500 622.423 C 955.300 622.841, 963.850 623.201, 965.500 623.224 C 969.397 623.277, 989.342 622.098, 994.500 621.510 C 997.998 621.111, 1003.160 620.657, 1017 619.531 C 1018.925 619.374, 1022.075 618.961, 1024 618.612 C 1030.721 617.393, 1035.524 616.741, 1038.655 616.621 C 1040.389 616.554, 1041.600 616.163, 1041.345 615.750 C 1041.091 615.337, 1041.921 614.931, 1043.191 614.848 C 1046.280 614.644, 1046.807 614.538, 1051.813 613.115 C 1054.185 612.441, 1057.335 611.691, 1058.813 611.449 C 1060.291 611.206, 1064.875 610.107, 1069 609.006 C 1073.125 607.905, 1077.799 606.761, 1079.388 606.464 C 1080.976 606.166, 1083.143 605.459, 1084.203 604.892 C 1085.263 604.324, 1087.113 603.640, 1088.315 603.372 C 1091.510 602.657, 1092.191 602.437, 1095.500 601.048 C 1097.150 600.356, 1100.750 598.999, 1103.500 598.034 C 1106.250 597.069, 1110.525 595.365, 1113 594.249 C 1119.802 591.181, 1131.967 586.078, 1132.527 586.058 C 1132.798 586.048, 1134.309 585.374, 1135.884 584.560 C 1137.458 583.746, 1139.028 583.362, 1139.373 583.707 C 1139.718 584.051, 1140 583.782, 1140 583.108 C 1140 582.434, 1140.412 582.136, 1140.915 582.447 C 1141.418 582.758, 1141.980 582.623, 1142.165 582.146 C 1142.349 581.670, 1146.325 579.352, 1151 576.995 C 1160.993 571.958, 1172.872 565.001, 1178.500 560.890 C 1180.700 559.283, 1184.975 556.298, 1188 554.256 C 1191.025 552.215, 1193.988 550.084, 1194.585 549.522 C 1195.182 548.960, 1196.917 547.600, 1198.440 546.500 C 1199.964 545.400, 1203.242 542.700, 1205.725 540.500 C 1208.208 538.300, 1210.902 536.117, 1211.712 535.649 C 1212.522 535.181, 1219.441 534.864, 1227.089 534.946 C 1254.003 535.233, 1278.408 528.607, 1297.076 515.944 C 1313.892 504.538, 1331.477 480.468, 1338.312 459.500 C 1340.466 452.893, 1341.926 443.073, 1340.854 442.409 C 1340.384 442.119, 1340 440.991, 1340 439.901 C 1340 437.425, 1336.814 431.151, 1334.210 428.500 C 1331.419 425.659, 1327.547 422.540, 1327.236 422.881 C 1327.090 423.041, 1325.065 422.823, 1322.736 422.398 C 1320.406 421.972, 1318.275 421.662, 1318 421.708 C 1317.725 421.754, 1315.689 422.036, 1313.475 422.335 C 1311.262 422.634, 1308.187 423.359, 1306.641 423.946 C 1305.096 424.534, 1303.350 424.717, 1302.762 424.353 C 1302.170 423.987, 1301.979 424.157, 1302.334 424.732 C 1302.877 425.610, 1300.533 426.830, 1298.317 426.823 C 1297.967 426.822, 1297.279 427.536, 1296.790 428.410 C 1296.301 429.285, 1295.521 430, 1295.057 430 C 1294.593 430, 1295.559 426.537, 1297.202 422.305 C 1298.845 418.073, 1300.340 413.910, 1300.523 413.055 C 1303.564 398.842, 1304.244 396.892, 1308.795 389.330 C 1315.162 378.751, 1318.855 367.183, 1319.809 354.828 C 1320.220 349.509, 1320.206 345.373, 1319.778 345.637 C 1319.350 345.902, 1319 344.567, 1319 342.671 C 1319 338.422, 1314.683 323.259, 1311.946 317.893 C 1310.834 315.714, 1310.236 313.427, 1310.617 312.811 C 1311.002 312.188, 1310.862 311.967, 1310.302 312.313 C 1309.748 312.656, 1307.912 310.813, 1306.222 308.218 C 1304.531 305.623, 1300.528 300.839, 1297.324 297.587 C 1294.121 294.335, 1291.624 291.265, 1291.775 290.763 C 1291.926 290.262, 1291.615 290.120, 1291.085 290.447 C 1290.201 290.994, 1281.312 285.609, 1279.888 283.665 C 1279.552 283.205, 1278.877 282.805, 1278.388 282.775 C 1276.117 282.638, 1272.055 280.720, 1272.503 279.996 C 1272.778 279.551, 1272.102 279.422, 1271.001 279.710 C 1269.838 280.014, 1269 279.741, 1269 279.058 C 1269 278.411, 1268.530 278.172, 1267.956 278.527 C 1267.382 278.882, 1266.188 278.571, 1265.303 277.836 C 1264.417 277.101, 1263.537 276.613, 1263.346 276.750 C 1262.484 277.373, 1257.933 276.918, 1258.346 276.250 C 1258.601 275.837, 1256.818 275.585, 1254.383 275.689 C 1251.949 275.793, 1250.178 275.521, 1250.448 275.084 C 1250.718 274.647, 1249.919 274.484, 1248.672 274.722 C 1246.557 275.127, 1233.998 268.678, 1233.165 266.760 C 1232.980 266.335, 1232.419 266.241, 1231.917 266.552 C 1230.999 267.118, 1224.773 264.102, 1224.185 262.806 C 1224.012 262.425, 1223.225 262.360, 1222.435 262.663 C 1221.646 262.966, 1221 262.716, 1221 262.107 C 1221 261.498, 1220.662 261.053, 1220.250 261.118 C 1218.326 261.422, 1216.935 260.914, 1217.442 260.093 C 1217.751 259.595, 1217.100 259.423, 1215.996 259.711 C 1214.892 260, 1213.317 259.678, 1212.495 258.996 C 1211.673 258.313, 1211 258.041, 1211 258.391 C 1211 258.741, 1209.537 258.418, 1207.750 257.675 C 1205.963 256.931, 1203.938 256.512, 1203.250 256.745 C 1202.563 256.977, 1202 256.776, 1202 256.298 C 1202 255.820, 1201.213 255.394, 1200.250 255.352 C 1199.287 255.310, 1196.997 254.974, 1195.159 254.607 C 1193.322 254.240, 1191.297 253.841, 1190.659 253.720 C 1190.022 253.599, 1189.169 253.050, 1188.765 252.500 C 1188.317 251.889, 1188.025 252.010, 1188.015 252.809 C 1188.007 253.529, 1187.565 253.849, 1187.034 253.521 C 1186.502 253.192, 1184.140 252.693, 1181.784 252.411 C 1175.733 251.688, 1148.985 251.391, 1147.942 252.036" stroke="none" fill="black" fill-rule="evenodd"/>
</svg>