<svg xmlns="http://www.w3.org/2000/svg" width="1920" height="1080" viewBox="0 0 1920 1080" version="1.1">
	<path fill-opacity="0.529" d="M -0 540.001 L -0 1080.001 960.250 1079.751 L 1920.500 1079.500 1920.751 539.750 L 1921.002 0 960.501 0 L 0 0 -0 540.001 M 0.496 540.500 C 0.496 837.500, 0.610 958.851, 0.750 810.168 C 0.890 661.485, 0.890 418.485, 0.750 270.168 C 0.610 121.851, 0.496 243.500, 0.496 540.500 M 1139.173 346.659 C 1139.368 347.672, 1140.196 348.500, 1141.014 348.500 C 1143.157 348.500, 1142.848 345.594, 1140.659 345.173 C 1139.323 344.916, 1138.916 345.323, 1139.173 346.659 M 1136.652 365.189 C 1133.698 369.822, 1126.986 395.239, 1119.650 429.573 L 1117.285 440.645 1130.892 440.202 C 1138.377 439.959, 1144.688 439.588, 1144.918 439.378 C 1145.148 439.168, 1145.546 429.556, 1145.802 418.017 C 1146.289 396.015, 1144.744 370.382, 1142.667 366.012 C 1141.094 362.702, 1138.468 362.342, 1136.652 365.189 M 1182.367 455.664 C 1178.648 464.564, 1178.373 476.033, 1181.642 485.859 C 1183.957 492.819, 1184.488 493.132, 1191.952 491.930 C 1204.782 489.864, 1214.084 483.397, 1215.563 475.517 C 1216.370 471.212, 1214.036 464.322, 1210.712 461.200 C 1207.885 458.543, 1201.073 455.515, 1193.477 453.536 C 1184.956 451.317, 1184.116 451.477, 1182.367 455.664 M 854.146 467.254 C 852.459 468.941, 854.795 471.415, 856.633 469.890 C 857.385 469.266, 858 468.408, 858 467.985 C 858 466.631, 855.284 466.116, 854.146 467.254 M 964.534 514.945 C 963.569 516.506, 964.839 518, 967.132 518 C 968.507 518, 969.040 517.448, 968.812 516.261 C 968.428 514.269, 965.507 513.370, 964.534 514.945 M 982.200 567.200 C 978.806 570.594, 982.797 576.249, 987 574 C 988.994 572.933, 989.433 571.845, 989.019 569 C 988.596 566.098, 984.408 564.992, 982.200 567.200 M 1063 595 C 1063 596.333, 1063.667 597, 1065 597 C 1066.333 597, 1067 596.333, 1067 595 C 1067 593.667, 1066.333 593, 1065 593 C 1063.667 593, 1063 593.667, 1063 595" stroke="none" fill="black" fill-rule="evenodd"/>
	<path fill-opacity="0.192" d="M -0 540.001 L -0 1080.001 960.250 1079.751 L 1920.500 1079.500 1920.751 539.750 L 1921.002 0 960.501 0 L 0 0 -0 540.001 M 0.496 540.500 C 0.496 837.500, 0.610 958.851, 0.750 810.168 C 0.890 661.485, 0.890 418.485, 0.750 270.168 C 0.610 121.851, 0.496 243.500, 0.496 540.500 M 1138.992 345.509 C 1138.048 346.647, 1137.988 347.388, 1138.775 348.175 C 1140.292 349.692, 1143.217 348.363, 1142.824 346.336 C 1142.375 344.020, 1140.554 343.627, 1138.992 345.509 M 1138.299 362.843 C 1134.602 365.226, 1128.009 388.959, 1117.924 436.187 C 1116.742 441.724, 1116.609 441.890, 1112.851 442.525 C 1109.295 443.126, 1108.602 442.827, 1104.050 438.735 C 1095.174 430.754, 1078.286 424.072, 1066.856 424.017 L 1063.213 424 1064.158 428.250 C 1066.285 437.809, 1072.179 447.143, 1079.282 452.201 C 1080.959 453.395, 1084.974 455.329, 1088.206 456.499 L 1094.082 458.626 1092.018 461.250 C 1088.632 465.554, 1084.086 476.165, 1082.916 482.495 C 1081.460 490.374, 1082.477 497.509, 1086.695 508.997 C 1088.614 514.224, 1091.242 521.410, 1092.536 524.967 C 1100.490 546.840, 1093.282 569.175, 1075.149 578.840 C 1066.809 583.285, 1057.473 585.235, 1044.500 585.240 C 1031.952 585.244, 1023.620 583.131, 1016 578.008 L 1011.500 574.983 1009.199 580.152 C 1001.935 596.472, 999.437 616.153, 1003.345 626.281 C 1005.100 630.831, 1005.105 631.190, 1003.456 633.707 C 1002.503 635.162, 1000.548 637.458, 999.112 638.810 C 995.708 642.013, 983.962 647.662, 978.941 648.510 C 976.773 648.876, 975 649.593, 975 650.103 C 975 650.613, 976.395 653.502, 978.100 656.524 C 979.953 659.807, 981.261 663.621, 981.350 666.003 L 981.500 669.989 987.500 669.987 C 1001.315 669.984, 1020.700 662.571, 1030.921 653.381 L 1035.766 649.025 1041.633 650.213 C 1049.418 651.791, 1082.388 651.746, 1092.500 650.144 C 1106.439 647.937, 1119.185 644.099, 1129.500 639.005 C 1135 636.289, 1140.573 633.216, 1141.884 632.178 L 1144.269 630.289 1139.679 626.058 C 1134.557 621.337, 1130.744 615.402, 1129.184 609.723 L 1128.146 605.946 1133.249 610.534 C 1143.378 619.641, 1149.833 622.029, 1157.249 619.412 C 1162.908 617.415, 1175.292 617.169, 1177.520 619.009 C 1180.598 621.552, 1182.891 628.258, 1183.604 636.804 C 1183.980 641.312, 1184.591 645, 1184.962 645 C 1185.333 645, 1187.997 644.299, 1190.883 643.442 C 1193.768 642.585, 1198.328 641.867, 1201.017 641.847 L 1205.906 641.809 1206.585 637.283 C 1206.958 634.794, 1207.037 628.777, 1206.759 623.913 C 1206.337 616.502, 1205.692 613.890, 1202.779 607.785 C 1200.867 603.778, 1197.241 598.219, 1194.721 595.431 C 1189.272 589.401, 1179.462 582.601, 1172.798 580.235 L 1168 578.531 1168 565.816 C 1168 551.911, 1166.152 535.147, 1162.872 519.303 C 1160.800 509.293, 1160.704 509.094, 1157.631 508.444 C 1155.909 508.079, 1150.225 506.406, 1145 504.725 L 1135.500 501.670 1143.500 500.467 C 1147.900 499.806, 1153.452 498.727, 1155.838 498.070 C 1162.931 496.117, 1175.857 493.950, 1186.055 493.004 C 1191.310 492.517, 1198.138 491.172, 1201.229 490.016 C 1221.950 482.263, 1220.514 461.438, 1198.814 454.980 C 1194.791 453.783, 1189.250 451.896, 1186.500 450.787 C 1173.951 445.726, 1164.498 442.865, 1155.376 441.368 L 1145.500 439.748 1145.800 415.624 C 1146.108 390.942, 1144.879 370.023, 1142.861 365.594 C 1141.620 362.871, 1139.881 361.822, 1138.299 362.843 M 1077.562 436.900 C 1075.373 440.441, 1089.500 454, 1095.378 454 C 1096.190 454, 1097.802 452.796, 1098.959 451.325 L 1101.064 448.649 1097.282 444.740 C 1095.202 442.590, 1091.925 440.023, 1090 439.035 C 1085.508 436.731, 1078.418 435.514, 1077.562 436.900 M 782.694 442.639 C 781.895 443.438, 782.798 445, 784.059 445 C 784.577 445, 785 444.325, 785 443.500 C 785 441.954, 783.820 441.513, 782.694 442.639 M 1120.986 461.810 C 1116.605 465.358, 1119.322 473, 1124.964 473 C 1128.411 473, 1130.730 471.167, 1131.541 467.800 C 1132.045 465.707, 1131.619 464.528, 1129.641 462.550 C 1126.632 459.542, 1124.059 459.322, 1120.986 461.810 M 853.364 467.493 C 853.018 468.396, 853.214 469.614, 853.800 470.200 C 855.324 471.724, 858.210 470.331, 857.812 468.265 C 857.369 465.963, 854.165 465.407, 853.364 467.493 M 914.503 499.990 C 913.651 502.676, 915.692 505.187, 918.412 504.798 C 919.999 504.572, 920.500 503.780, 920.500 501.500 C 920.500 498.994, 920.061 498.449, 917.836 498.192 C 915.850 497.962, 915.001 498.420, 914.503 499.990 M 965.061 513.962 C 963.151 515.143, 964.226 518.500, 966.514 518.500 C 967.776 518.500, 968.610 517.727, 968.803 516.377 C 969.133 514.062, 967.062 512.726, 965.061 513.962 M 861.282 537.474 C 854.815 538.541, 850.743 541.143, 852.613 543.013 C 853.178 543.578, 857.809 544.223, 862.905 544.446 C 871.067 544.804, 875.319 545.272, 882.396 546.589 C 884.881 547.051, 891.227 549.102, 892.500 549.853 C 893.050 550.178, 894.098 550.534, 894.828 550.645 C 895.559 550.755, 896.909 551.175, 897.828 551.577 C 900.708 552.835, 903.443 553.006, 904.996 552.024 C 906.229 551.244, 905.750 550.321, 902.280 546.786 C 897.892 542.314, 891.950 539.491, 882.948 537.598 C 877.311 536.413, 868.029 536.360, 861.282 537.474 M 891.040 557.452 C 889.231 559.632, 890.205 562.455, 892.897 562.837 C 896.597 563.363, 898.098 560.241, 895.429 557.571 C 893.480 555.623, 892.578 555.598, 891.040 557.452 M 981.557 567.223 C 980.701 568.445, 980 569.950, 980 570.568 C 980 572.299, 983.430 575, 985.629 575 C 989.930 575, 991.543 569.706, 988.171 566.655 C 985.665 564.387, 983.407 564.580, 981.557 567.223 M 781.200 585.200 C 777.806 588.594, 781.797 594.249, 786 592 C 789.530 590.111, 788.002 584, 784 584 C 783.120 584, 781.860 584.540, 781.200 585.200" stroke="none" fill="black" fill-rule="evenodd"/>
	<path fill-opacity="0.423" d="M -0 540.001 L -0 1080.001 960.250 1079.751 L 1920.500 1079.500 1920.751 539.750 L 1921.002 0 960.501 0 L 0 0 -0 540.001 M 0.496 540.500 C 0.496 837.500, 0.610 958.851, 0.750 810.168 C 0.890 661.485, 0.890 418.485, 0.750 270.168 C 0.610 121.851, 0.496 243.500, 0.496 540.500 M 1138.332 345.578 C 1137.999 346.445, 1138.399 347.827, 1139.220 348.649 C 1140.546 349.974, 1140.904 349.953, 1142.392 348.465 C 1143.689 347.168, 1143.807 346.473, 1142.912 345.394 C 1141.369 343.534, 1139.081 343.626, 1138.332 345.578 M 1136.589 364.250 C 1133.566 368.919, 1123.677 406.678, 1118.024 435.141 C 1116.957 440.513, 1116.725 440.826, 1113.162 441.731 C 1109.612 442.632, 1109.167 442.458, 1104.511 438.361 C 1098.682 433.232, 1087.888 427.742, 1079.356 425.567 C 1072.631 423.852, 1063 423.466, 1063 424.911 C 1063 428.068, 1067.461 439.152, 1070.518 443.590 C 1074.428 449.268, 1082.082 455.030, 1088.500 457.126 C 1090.700 457.844, 1092.620 458.493, 1092.767 458.567 C 1092.914 458.640, 1091.433 461.356, 1089.475 464.600 C 1083.923 473.804, 1081.630 482.615, 1082.248 492.369 C 1082.668 498.991, 1083.702 502.923, 1087.818 513.553 C 1094.570 530.992, 1095.311 534.341, 1094.832 545.252 C 1094.494 552.963, 1093.918 555.580, 1091.369 561 C 1083.606 577.501, 1066.272 585.822, 1042 584.699 C 1029.807 584.134, 1023.134 582.301, 1016.138 577.593 L 1011.123 574.218 1007.620 582.969 C 1001.141 599.156, 999.453 615.253, 1002.986 627.164 C 1004.331 631.700, 1004.293 631.927, 1001.622 635.430 C 996.484 642.165, 983.238 648.013, 968.534 650.037 C 962.639 650.848, 961.055 651.493, 958.750 654.018 C 955.653 657.411, 955.338 659.819, 957.453 663.909 C 959.406 667.685, 962.550 668.761, 975.307 670.016 C 992.054 671.664, 1004.817 669.417, 1017.767 662.540 C 1021.398 660.613, 1024.445 659.140, 1024.538 659.268 C 1024.630 659.395, 1027.778 664.450, 1031.533 670.500 C 1035.288 676.550, 1039.431 683.221, 1040.740 685.325 L 1043.120 689.150 1048.029 684.163 C 1050.729 681.420, 1054.527 678.651, 1056.469 678.010 C 1058.411 677.369, 1060 676.233, 1060 675.486 C 1060 674.739, 1058.876 669.486, 1057.501 663.814 C 1056.127 658.141, 1055.002 653.163, 1055.001 652.750 C 1055.001 652.337, 1060.524 652, 1067.276 652 C 1074.028 652, 1083.307 651.529, 1087.897 650.954 C 1092.486 650.378, 1096.466 650.133, 1096.741 650.408 C 1097.017 650.683, 1095.180 651.910, 1092.660 653.135 L 1088.078 655.361 1091.954 659.566 C 1096.381 664.368, 1099 668.972, 1099 671.950 C 1099 673.078, 1099.122 674, 1099.270 674 C 1099.419 674, 1102.858 673.081, 1106.913 671.957 C 1129.750 665.628, 1147.405 649.750, 1157.158 626.768 C 1158.855 622.770, 1160.750 619.169, 1161.371 618.765 C 1161.992 618.361, 1165.459 618.024, 1169.076 618.015 C 1174.720 618.002, 1175.968 618.337, 1177.888 620.380 C 1181.740 624.481, 1183.069 631.213, 1183.087 646.718 C 1183.103 660.806, 1183.126 660.954, 1185.686 662.968 C 1189.680 666.109, 1195.234 665.699, 1198.317 662.035 C 1201.792 657.905, 1206.869 642.010, 1207.591 633 C 1209.340 611.166, 1198.120 592.207, 1177.346 581.894 L 1168.500 577.502 1168.335 563.501 C 1168.147 547.557, 1165.435 527.295, 1161.129 509.673 C 1159.137 501.516, 1158.591 497.727, 1159.370 497.464 C 1161.648 496.696, 1184.686 493.114, 1190.843 492.571 C 1200.932 491.681, 1211.312 486.165, 1214.501 479.998 C 1216.580 475.978, 1216.373 469.652, 1214.012 465.024 C 1211.588 460.272, 1205.981 456.706, 1196.500 453.885 C 1192.650 452.740, 1185.900 450.302, 1181.500 448.468 C 1172.505 444.719, 1160.263 441.401, 1151.718 440.397 L 1146 439.725 1146 412.823 C 1146 375.500, 1144.273 362, 1139.500 362 C 1138.700 362, 1137.390 363.012, 1136.589 364.250 M 817.332 364.578 C 816.999 365.445, 817.463 366.892, 818.363 367.792 C 819.879 369.307, 820.123 369.305, 821.664 367.764 C 823.039 366.390, 823.104 365.831, 822.042 364.550 C 820.383 362.552, 818.104 362.565, 817.332 364.578 M 1032 435 C 1032 435.550, 1032.450 436, 1033 436 C 1033.550 436, 1034 435.550, 1034 435 C 1034 434.450, 1033.550 434, 1033 434 C 1032.450 434, 1032 434.450, 1032 435 M 782.104 441.915 C 780.214 443.111, 781.532 446.237, 783.747 445.810 C 784.711 445.625, 785.500 444.616, 785.500 443.570 C 785.500 441.351, 784.086 440.662, 782.104 441.915 M 854.250 465.718 C 853.563 465.965, 853 467.284, 853 468.650 C 853 470.767, 853.404 471.086, 855.741 470.816 C 857.347 470.631, 858.615 469.803, 858.802 468.817 C 859.150 466.979, 856.246 465.003, 854.250 465.718 M 782.909 482.610 C 781.091 484.800, 784.200 487.909, 786.390 486.091 C 788.041 484.721, 787.583 482.438, 785.496 481.637 C 784.754 481.352, 783.589 481.790, 782.909 482.610 M 915.596 498.306 C 913.046 500.170, 913.832 504.405, 916.805 504.827 C 921.228 505.454, 923.459 501.602, 920.429 498.571 C 918.519 496.662, 917.892 496.627, 915.596 498.306 M 964.105 514.373 C 962.427 516.395, 963.853 519, 966.638 519 C 969.492 519, 970.743 516.600, 968.989 514.487 C 967.448 512.630, 965.588 512.586, 964.105 514.373 M 820.204 523.157 C 790.501 526.949, 762.200 541.376, 740.677 563.695 C 731.602 573.106, 722.260 583.915, 714.611 593.856 C 710.436 599.281, 710.181 599.882, 712.410 599.034 C 716.184 597.599, 722.472 594.307, 732.500 588.513 C 762.108 571.409, 762.232 571.343, 776 565.239 C 801.162 554.086, 821.518 549.618, 847.500 549.548 C 872.727 549.481, 883.410 550.985, 914 558.915 C 918.125 559.984, 926.689 562.204, 933.030 563.847 C 951.809 568.714, 960.269 569.357, 975.660 567.091 L 980.821 566.331 980.295 569.567 C 979.857 572.270, 980.208 573.090, 982.426 574.544 C 984.528 575.921, 985.576 576.058, 987.454 575.203 C 990.325 573.895, 991.483 570.771, 990.074 568.138 C 988.720 565.608, 990.294 565, 998.198 565 C 1003.969 565, 1004.207 564.901, 1003.630 562.750 C 1003.299 561.513, 1003.021 560.247, 1003.014 559.938 C 1003.006 559.629, 999.737 559.949, 995.750 560.648 C 985.686 562.414, 971.680 562.302, 962.357 560.381 C 957.133 559.304, 949.139 556.255, 938.500 551.280 C 899.653 533.116, 882.806 527.172, 862.442 524.447 C 859.724 524.083, 857.198 523.604, 856.828 523.382 C 855.307 522.468, 826.961 522.294, 820.204 523.157 M 890.082 557.401 C 888.456 559.360, 889.564 562.727, 892.099 563.531 C 894.840 564.401, 897.163 562.204, 896.801 559.086 C 896.575 557.147, 895.853 556.425, 893.914 556.199 C 892.492 556.034, 890.768 556.575, 890.082 557.401 M 732.556 558.910 C 731.746 560.221, 733.003 563, 734.407 563 C 736.235 563, 737.906 560.919, 737.315 559.378 C 736.722 557.833, 733.422 557.508, 732.556 558.910 M 780.655 584.829 C 776.076 589.889, 782.606 596.251, 787.429 591.429 C 789.535 589.322, 789.408 587.408, 787 585 C 784.517 582.517, 782.789 582.470, 780.655 584.829 M 877.040 604.452 C 874.958 606.961, 876.195 609.500, 879.500 609.500 C 881.566 609.500, 882.578 608.952, 882.819 607.702 C 883.216 605.640, 881.352 603, 879.500 603 C 878.810 603, 877.703 603.653, 877.040 604.452" stroke="none" fill="black" fill-rule="evenodd"/>
	<path fill-opacity="0.464" d="M -0 540.001 L -0 1080.001 960.250 1079.751 L 1920.500 1079.500 1920.751 539.750 L 1921.002 0 960.501 0 L 0 0 -0 540.001 M 0.496 540.500 C 0.496 837.500, 0.610 958.851, 0.750 810.168 C 0.890 661.485, 0.890 418.485, 0.750 270.168 C 0.610 121.851, 0.496 243.500, 0.496 540.500 M 1138 346.531 C 1138 349.629, 1140.597 350.831, 1142.714 348.714 C 1144.831 346.597, 1143.629 344, 1140.531 344 C 1138.490 344, 1138 344.490, 1138 346.531 M 1136.537 364.303 C 1134.235 367.817, 1131.619 376.080, 1127.517 392.797 L 1123.787 408 1120.393 408 C 1116.006 408, 1116.665 407.895, 1111.763 409.372 C 1105.066 411.389, 1099.354 415.542, 1094.270 422.088 C 1090.545 426.885, 1089.164 428.004, 1087.541 427.537 C 1079.265 425.158, 1074.683 424.153, 1069.250 423.525 L 1063 422.804 1063.024 425.652 C 1063.037 427.218, 1064.113 431.091, 1065.415 434.258 C 1066.718 437.425, 1067.494 440.178, 1067.142 440.377 C 1066.789 440.575, 1064.700 441.043, 1062.500 441.418 C 1050.073 443.531, 1037.442 449.620, 1029.891 457.135 C 1022.846 464.147, 1019.837 471.240, 1019.220 482.293 C 1018.473 495.649, 1021.630 503.908, 1032.252 516.393 C 1040.784 526.421, 1042.356 529.288, 1041.583 533.409 C 1040.665 538.304, 1036.560 540.173, 1026.163 540.429 C 1016.597 540.665, 1013.433 541.840, 1007.636 547.307 C 1005.141 549.660, 1003.884 551.874, 1003.429 554.718 C 1002.788 558.727, 1002.716 558.786, 997.140 559.885 C 985.440 562.192, 965.935 561.696, 957 558.864 C 955.075 558.254, 949.225 555.729, 944 553.253 C 911.098 537.659, 889.539 529.334, 873.500 526.028 C 858.665 522.971, 858.048 522.896, 842.949 522.317 C 816.431 521.300, 797.044 525.603, 774.483 537.512 C 753.733 548.466, 741.724 559.527, 715.649 591.706 C 711.992 596.219, 709 600.082, 709 600.290 C 709 600.499, 712.263 599.903, 716.250 598.967 C 742.759 592.742, 750.863 591.692, 767.656 592.309 C 790.247 593.139, 794.555 594.412, 825 609.260 C 854.404 623.601, 858.571 625.495, 870.706 630.040 C 899.717 640.906, 930.196 640.350, 960.316 628.406 C 974.599 622.742, 985.268 615.911, 996.021 605.544 L 1001.542 600.221 1001.160 610.559 C 1000.877 618.200, 1001.190 622.111, 1002.362 625.549 C 1003.754 629.633, 1003.772 630.541, 1002.510 632.982 C 998.774 640.206, 986.959 646.217, 971.323 648.850 C 963.375 650.188, 960.188 651.179, 958.451 652.850 C 955.274 655.908, 954.508 660.148, 956.454 663.910 C 959.170 669.162, 962.809 670.269, 979 670.767 C 995.764 671.283, 1005.440 669.469, 1017.200 663.604 L 1023.899 660.263 1031.791 672.881 C 1036.132 679.822, 1041.418 688.425, 1043.538 692 C 1045.659 695.575, 1048.261 699.489, 1049.322 700.698 C 1055.406 707.631, 1067.396 701.468, 1065.731 692.264 C 1065.456 690.744, 1063.154 681.505, 1060.616 671.732 C 1058.077 661.960, 1056 653.631, 1056 653.222 C 1056 652.813, 1062.188 652.378, 1069.750 652.256 C 1077.313 652.133, 1086.066 651.654, 1089.202 651.191 C 1092.337 650.727, 1094.704 650.670, 1094.460 651.064 C 1093.872 652.016, 1081.367 657, 1079.566 657 C 1078.789 657, 1076.769 658.385, 1075.077 660.077 C 1070.968 664.186, 1070.904 668.741, 1074.892 673.205 C 1077.723 676.374, 1077.947 676.437, 1085.474 676.213 C 1106.899 675.574, 1128.080 666.864, 1141.148 653.318 C 1147.618 646.611, 1154.433 636.024, 1158.183 626.851 L 1161.357 619.089 1166.928 618.795 C 1174.758 618.381, 1177.522 619.472, 1179.569 623.787 C 1182.289 629.518, 1183.506 640.585, 1182.387 649.408 C 1181.273 658.199, 1182.236 661.798, 1186.441 664.553 C 1189.887 666.811, 1196.409 665.988, 1199.031 662.964 C 1203.672 657.613, 1208.075 640.708, 1208.094 628.169 C 1208.125 607.216, 1196.669 590.160, 1176.284 580.810 L 1169.069 577.500 1169.034 567.856 C 1168.972 550.242, 1166.178 528.929, 1161.342 509.176 C 1159.952 503.498, 1159.089 498.578, 1159.425 498.242 C 1160.350 497.316, 1178.328 494.156, 1188.668 493.102 C 1199.210 492.026, 1205.035 489.770, 1210.863 484.505 C 1215.849 480, 1217.578 474.861, 1216.035 469.131 C 1213.912 461.245, 1207.749 456.554, 1194.892 453.038 C 1190.708 451.893, 1185.081 449.894, 1182.388 448.594 C 1175.525 445.284, 1165.445 442.303, 1156.180 440.846 L 1148.287 439.604 1150.643 437.062 C 1154.964 432.402, 1156.505 427.986, 1156.424 420.500 C 1156.335 412.405, 1153.807 406.396, 1148.992 402.836 C 1146.073 400.678, 1146 400.413, 1146 392.036 C 1146 380.670, 1144.245 367.051, 1142.420 364.250 C 1140.543 361.370, 1138.446 361.389, 1136.537 364.303 M 817.389 364.430 C 816.393 367.025, 817.788 369.169, 820.246 368.820 C 821.898 368.585, 822.500 367.833, 822.500 366 C 822.500 364.167, 821.898 363.415, 820.246 363.180 C 818.893 362.988, 817.750 363.488, 817.389 364.430 M 860.152 428.906 C 858.334 430.030, 859.097 433.395, 861.265 433.812 C 862.222 433.997, 863.291 433.405, 863.640 432.496 C 864.458 430.364, 861.957 427.790, 860.152 428.906 M 1032.500 434 C 1032.101 434.646, 1032.224 435.624, 1032.774 436.174 C 1033.441 436.841, 1034.016 436.783, 1034.500 436 C 1034.899 435.354, 1034.776 434.376, 1034.226 433.826 C 1033.559 433.159, 1032.984 433.217, 1032.500 434 M 781.408 442.378 C 780.599 444.487, 781.735 446, 784.129 446 C 785.639 446, 786.060 445.443, 785.820 443.760 C 785.447 441.146, 782.264 440.149, 781.408 442.378 M 635 463 C 635 464.867, 635.267 465.133, 636.200 464.200 C 637.133 463.267, 637.133 462.733, 636.200 461.800 C 635.267 460.867, 635 461.133, 635 463 M 728.122 465.353 C 726.906 466.818, 727.596 468, 729.667 468 C 731.156 468, 731.492 465.422, 730.113 464.570 C 729.626 464.269, 728.730 464.621, 728.122 465.353 M 853.037 466.931 C 852.254 468.395, 852.394 469.251, 853.618 470.475 C 855.455 472.312, 856.905 472.098, 858.371 469.774 C 859.087 468.638, 858.999 467.704, 858.070 466.584 C 856.298 464.450, 854.291 464.588, 853.037 466.931 M 730 474.500 C 730 475.417, 730.484 476.005, 731.075 475.808 C 731.666 475.611, 732.150 475.022, 732.150 474.500 C 732.150 473.978, 731.666 473.389, 731.075 473.192 C 730.484 472.995, 730 473.583, 730 474.500 M 782.100 482.813 C 781.296 484.316, 781.472 485.117, 782.888 486.398 C 785.449 488.716, 788.190 487.448, 787.804 484.122 C 787.420 480.811, 783.636 479.943, 782.100 482.813 M 913.980 499.038 C 912.469 501.861, 913.662 504.877, 916.580 505.609 C 919.556 506.356, 922 504.539, 922 501.578 C 922 497.044, 916.054 495.162, 913.980 499.038 M 963.483 515.053 C 962.529 518.061, 965.347 520.902, 967.769 519.374 C 968.721 518.773, 969.500 517.206, 969.500 515.891 C 969.500 512.541, 964.501 511.845, 963.483 515.053 M 781.485 526.025 C 781.136 526.588, 781.447 526.926, 782.176 526.775 C 782.904 526.624, 783.376 527.096, 783.225 527.824 C 783.074 528.553, 783.433 528.850, 784.024 528.485 C 784.777 528.020, 784.747 527.401, 783.926 526.411 C 782.528 524.727, 782.308 524.692, 781.485 526.025 M 732.709 557.624 C 731.530 558.804, 731.914 562.804, 733.250 563.254 C 736.045 564.194, 738.111 562.771, 737.804 560.119 C 737.505 557.547, 734.338 555.996, 732.709 557.624 M 687.315 560.016 C 682.743 561.839, 681.707 567.437, 685.314 570.826 C 689.679 574.926, 696 572.447, 696 566.634 C 696 561.180, 692.015 558.143, 687.315 560.016 M 968.061 635.427 C 967.263 636.388, 967.364 637.057, 968.444 637.953 C 970.094 639.323, 972 638.570, 972 636.548 C 972 634.637, 969.343 633.881, 968.061 635.427" stroke="none" fill="black" fill-rule="evenodd"/>
</svg>