<svg xmlns="http://www.w3.org/2000/svg" width="1920" height="1080" viewBox="0 0 1920 1080" version="1.1">
	<path fill-opacity="0.365" d="M -0 540.001 L -0 1080.001 960.250 1079.751 L 1920.500 1079.500 1920.751 539.750 L 1921.002 0 960.501 0 L 0 0 -0 540.001 M 0.496 540.500 C 0.496 837.500, 0.610 958.851, 0.750 810.168 C 0.890 661.485, 0.890 418.485, 0.750 270.168 C 0.610 121.851, 0.496 243.500, 0.496 540.500 M 1053.345 186.543 C 1053.019 187.392, 1053.023 188.356, 1053.352 188.686 C 1054.065 189.398, 1057 187.138, 1057 185.878 C 1057 184.368, 1053.968 184.921, 1053.345 186.543 M 1099.778 282.380 L 1095.056 285.649 1098.948 289.450 L 1102.840 293.250 1105.932 291.048 C 1108.229 289.413, 1109.793 289.015, 1112.012 289.503 C 1114.364 290.019, 1115 289.816, 1115 288.548 C 1115 285.804, 1111.871 285.530, 1107.732 287.912 L 1103.809 290.169 1101.405 287.910 C 1098.405 285.092, 1098.410 284.654, 1101.466 283.018 C 1103.268 282.054, 1104.287 281.993, 1105.249 282.792 C 1106.039 283.447, 1107.129 283.538, 1107.969 283.019 C 1109.130 282.302, 1109.146 281.881, 1108.063 280.576 C 1106.255 278.397, 1105.197 278.628, 1099.778 282.380 M 984.020 394.476 C 983.231 395.426, 983.155 396, 983.819 396 C 985.027 396, 986.436 394.103, 985.743 393.409 C 985.491 393.158, 984.716 393.638, 984.020 394.476 M 975.500 399 C 975.160 399.550, 975.332 400, 975.882 400 C 976.432 400, 977.160 399.550, 977.500 399 C 977.840 398.450, 977.668 398, 977.118 398 C 976.568 398, 975.840 398.450, 975.500 399 M 1106 400.996 C 1106 402.209, 1108.805 403.529, 1109.629 402.705 C 1109.927 402.406, 1109.233 401.660, 1108.086 401.046 C 1106.639 400.272, 1106 400.257, 1106 400.996 M 1109.571 412.571 C 1107.667 414.476, 1107.512 417, 1109.300 417 C 1111.155 417, 1113 414.906, 1113 412.800 C 1113 410.582, 1111.651 410.492, 1109.571 412.571 M 1065 439 C 1065 439.550, 1065.450 440, 1066 440 C 1066.550 440, 1067 439.550, 1067 439 C 1067 438.450, 1066.550 438, 1066 438 C 1065.450 438, 1065 438.450, 1065 439 M 976.909 456.750 C 970.884 463.089, 960.058 475.599, 956.573 480.250 C 954.127 483.513, 953.226 484.003, 949.631 484.024 C 943.170 484.063, 937.199 485.762, 928.099 490.151 L 919.697 494.204 899.748 489.033 C 888.776 486.190, 879.169 484.105, 878.400 484.400 C 874.834 485.768, 878.515 505.924, 884.699 518.891 C 888.919 527.740, 889.297 529.173, 889.484 537 C 889.595 541.675, 890.268 550.018, 890.978 555.539 C 892.131 564.502, 892.094 565.917, 890.635 568.739 C 888.535 572.799, 888.489 572.626, 892 573.850 C 894.574 574.747, 895 575.400, 895 578.448 C 895 580.402, 895.212 582, 895.472 582 C 895.732 582, 901.919 583.634, 909.222 585.631 C 916.525 587.628, 926.021 590.062, 930.325 591.040 C 934.629 592.017, 938.318 592.985, 938.523 593.190 C 939.747 594.414, 936.413 609.177, 933.439 615.704 C 930.296 622.601, 926 639.858, 926 645.588 C 926 649.357, 929.012 655.869, 931.056 656.518 C 935.161 657.821, 936.649 655.784, 941.116 642.750 C 941.823 640.688, 942.649 639.013, 942.951 639.030 C 943.253 639.046, 944.989 641.634, 946.809 644.780 C 948.629 647.926, 952.004 652.619, 954.309 655.210 L 958.500 659.919 969.500 659.210 C 980.969 658.470, 993.188 659.327, 996.334 661.093 C 997.343 661.659, 999.368 661.870, 1000.834 661.562 C 1002.300 661.254, 1010.959 660.591, 1020.075 660.088 C 1039.057 659.040, 1041.959 658.170, 1047.435 651.880 C 1055.621 642.478, 1060.118 628.808, 1060.156 613.214 C 1060.177 604.405, 1060.511 602.323, 1062.477 598.714 C 1067.008 590.399, 1068.471 584.121, 1068.469 573 C 1068.467 561.737, 1067.665 558.290, 1062.692 548.174 C 1056.879 536.348, 1040.859 524.172, 1028.415 522.122 C 1021.585 520.996, 1016.311 518.554, 1015.553 516.168 C 1014.993 514.403, 1014.268 514.211, 1009.707 514.614 C 1005.669 514.971, 1004.042 514.673, 1002.458 513.287 C 998.608 509.917, 991.500 500.499, 989.598 496.250 C 988.552 493.913, 987.295 492, 986.804 492 C 986.314 492, 985.985 491.438, 986.075 490.750 C 986.448 487.879, 985.872 487, 983.617 487 C 982.137 487, 981.049 486.297, 980.749 485.146 C 980.308 483.460, 979.755 483.385, 974.632 484.314 C 971.535 484.875, 968.727 485.060, 968.391 484.725 C 967.551 483.884, 980.143 461.882, 981.836 461.233 C 982.587 460.944, 983.530 461.239, 983.931 461.888 C 984.589 462.953, 988 462.466, 988 461.306 C 988 460.881, 981.838 452, 981.543 452 C 981.478 452, 979.393 454.137, 976.909 456.750 M 878.820 487.514 C 878.566 487.767, 878.730 491.243, 879.184 495.237 C 880.099 503.284, 883.653 514.364, 888.238 523.460 L 891.241 529.421 893.740 526.516 L 896.238 523.611 894.115 521.892 L 891.992 520.173 894.560 518.302 L 897.127 516.432 895.064 513.808 C 893.929 512.365, 893 510.876, 893 510.498 C 893 510.121, 895.214 510.117, 897.920 510.489 C 902.180 511.075, 902.981 510.903, 903.887 509.210 C 904.807 507.493, 903.733 506.235, 895.071 498.877 C 885.222 490.511, 879.690 486.643, 878.820 487.514 M 969.383 529.583 C 958.287 535.057, 966.123 551.318, 977.555 546.541 C 981.372 544.947, 983 542.393, 983 538 C 983 533.578, 981.367 531.051, 977.452 529.415 C 973.302 527.681, 973.235 527.683, 969.383 529.583 M 1022 528.883 C 1022 529.369, 1022.926 530.009, 1024.057 530.305 C 1025.745 530.746, 1025.903 530.588, 1024.935 529.421 C 1023.614 527.830, 1022 527.535, 1022 528.883 M 971.336 532.567 C 971.005 533.429, 971.214 534.614, 971.800 535.200 C 973.355 536.755, 976 535.390, 976 533.031 C 976 530.565, 972.247 530.192, 971.336 532.567 M 1025.905 537.708 C 1024.096 540.894, 1020.564 546.650, 1018.058 550.500 C 1015.551 554.350, 1013.152 558.040, 1012.728 558.701 C 1012.186 559.544, 1014.124 560.538, 1019.228 562.035 C 1028.755 564.830, 1038.400 570.098, 1044.034 575.585 C 1046.528 578.013, 1048.820 580, 1049.126 580 C 1050.442 580, 1052.115 571.329, 1051.893 565.660 C 1051.429 553.820, 1044.225 542.816, 1030.347 532.752 C 1029.576 532.194, 1028.105 533.836, 1025.905 537.708 M 913.888 543.450 C 910.677 545.256, 908.551 550.076, 909.427 553.567 C 912.127 564.321, 928 563.071, 928 552.104 C 928 544.603, 920.268 539.862, 913.888 543.450 M 916 547.500 C 916 549.665, 916.404 550.082, 918.250 549.820 C 919.727 549.610, 920.500 548.813, 920.500 547.500 C 920.500 546.187, 919.727 545.390, 918.250 545.180 C 916.404 544.918, 916 545.335, 916 547.500 M 944.011 553.487 C 942.154 555.725, 943.549 558, 946.777 558 C 950.494 558, 953.512 555.778, 952.694 553.645 C 951.885 551.537, 945.722 551.425, 944.011 553.487 M 965 560.465 C 965 561.902, 964.170 563.374, 963.010 563.995 C 959.828 565.697, 954.214 565.503, 952.131 563.619 C 950.333 561.992, 950.154 562.075, 948.158 565.457 C 946.433 568.380, 945.488 569, 942.756 569 C 940.935 569, 938.416 568.279, 937.158 567.398 C 935.900 566.517, 934.611 566.056, 934.293 566.374 C 933.372 567.295, 935.806 569.677, 939.033 571.014 C 942.543 572.468, 947.183 571.005, 949.485 567.718 C 950.704 565.977, 951.261 565.864, 953.695 566.865 C 956.940 568.200, 962.169 567.062, 965.138 564.375 C 967.093 562.606, 967.716 558, 966 558 C 965.450 558, 965 559.109, 965 560.465" stroke="none" fill="black" fill-rule="evenodd"/>
	<path fill-opacity="0.271" d="M -0 540.001 L -0 1080.001 960.250 1079.751 L 1920.500 1079.500 1920.751 539.750 L 1921.002 0 960.501 0 L 0 0 -0 540.001 M 0.496 540.500 C 0.496 837.500, 0.610 958.851, 0.750 810.168 C 0.890 661.485, 0.890 418.485, 0.750 270.168 C 0.610 121.851, 0.496 243.500, 0.496 540.500 M 1054.160 174.909 C 1054.364 176.358, 1055.257 177.428, 1056.400 177.593 C 1057.445 177.744, 1058.675 178.459, 1059.135 179.184 C 1059.594 179.908, 1059.976 180.022, 1059.985 179.437 C 1059.993 178.852, 1058.609 177.052, 1056.910 175.437 C 1053.837 172.517, 1053.821 172.514, 1054.160 174.909 M 1053.035 185.934 C 1051.608 188.601, 1051.718 189, 1053.878 189 C 1056.130 189, 1058.431 186.506, 1057.527 185.044 C 1056.494 183.373, 1054.158 183.836, 1053.035 185.934 M 1080.500 241.026 C 1077.986 242.198, 1076.147 242.539, 1075.550 241.945 C 1073.928 240.331, 1072 240.904, 1072 243 C 1072 245.680, 1075.258 245.622, 1079.722 242.863 L 1083.180 240.726 1085.730 243.276 C 1089.587 247.132, 1086.410 251.986, 1081.881 249.158 C 1079.412 247.616, 1078 247.696, 1078 249.378 C 1078 252.609, 1080.694 253.196, 1085.174 250.938 C 1092.256 247.369, 1092.305 247.262, 1088.802 242.903 C 1087.077 240.756, 1085.403 239.036, 1085.083 239.081 C 1084.762 239.125, 1082.700 240.001, 1080.500 241.026 M 1100.798 281.017 C 1098.263 282.595, 1095.864 284.411, 1095.468 285.052 C 1095.045 285.737, 1096.407 287.878, 1098.769 290.240 L 1102.791 294.261 1106.398 291.510 C 1109.194 289.377, 1110.313 289.015, 1111.376 289.897 C 1113.137 291.359, 1116.189 290.210, 1115.799 288.231 C 1115.030 284.328, 1111.215 284.317, 1105.809 288.201 C 1104.431 289.191, 1103.736 289.071, 1102.062 287.556 C 1099.132 284.904, 1101.086 282.738, 1105.638 283.592 C 1108.577 284.143, 1109 283.961, 1109 282.146 C 1109 278.295, 1105.865 277.864, 1100.798 281.017 M 979.148 385.338 C 974.831 387.476, 974.800 387.527, 975.384 391.783 C 975.744 394.409, 975.502 396.824, 974.761 398.011 C 973.060 400.734, 975.150 402.951, 977.544 400.964 C 979.126 399.651, 979.106 398.205, 977.427 392.326 C 976.936 390.604, 977.441 389.823, 979.854 388.576 C 983.763 386.554, 983.665 386.531, 984.455 389.675 C 984.933 391.581, 984.676 392.602, 983.563 393.225 C 981.754 394.237, 981.502 396.574, 983.096 397.559 C 985.448 399.013, 987.192 395.462, 986.474 390.678 C 985.401 383.519, 984.357 382.758, 979.148 385.338 M 1105 400.300 C 1105 402.209, 1107.116 404, 1109.371 404 C 1110.455 404, 1112.134 404.716, 1113.102 405.592 C 1114.728 407.063, 1114.822 407.036, 1114.350 405.231 C 1114.069 404.157, 1112.127 402.315, 1110.034 401.139 C 1105.597 398.645, 1105 398.546, 1105 400.300 M 1109.750 411.489 C 1107.493 414.567, 1107.516 417, 1109.800 417 C 1113.454 417, 1115.008 413.705, 1112.750 410.742 C 1111.617 409.256, 1111.337 409.325, 1109.750 411.489 M 1052 432 C 1052 432.550, 1052.900 433, 1054 433 C 1055.100 433, 1056 432.550, 1056 432 C 1056 431.450, 1055.100 431, 1054 431 C 1052.900 431, 1052 431.450, 1052 432 M 1064.180 439.163 C 1064.599 443.530, 1067.500 443.836, 1067.500 439.514 C 1067.500 437.421, 1066.955 436.423, 1065.680 436.177 C 1064.167 435.885, 1063.914 436.389, 1064.180 439.163 M 974.902 457.780 C 967.801 465.377, 964.587 469.115, 958.160 477.250 L 952.828 484 947.389 484 C 941.469 484, 934.374 486.164, 925.449 490.691 L 919.727 493.593 899.136 488.324 C 885.735 484.895, 878.204 483.396, 877.569 484.031 C 874.818 486.782, 878.399 505.551, 884.209 518.835 C 889.050 529.904, 889.174 530.433, 889.473 541.335 C 889.642 547.476, 890.303 555.334, 890.942 558.797 C 892.007 564.565, 891.933 565.373, 890.053 568.415 C 887.396 572.713, 887.423 572.854, 891.194 574.440 C 893.832 575.549, 894.399 576.349, 894.444 579.028 L 894.500 582.272 912.500 587.084 C 922.400 589.731, 932.214 592.189, 934.308 592.546 C 937.783 593.139, 938.070 593.428, 937.596 595.848 C 937.310 597.306, 936.772 600.707, 936.401 603.405 C 936.030 606.103, 934.248 611.510, 932.441 615.421 C 926.779 627.676, 924.012 645.977, 926.818 652.620 C 929.736 659.532, 936.598 658.784, 939.069 651.285 C 939.754 649.203, 940.951 645.977, 941.728 644.115 L 943.140 640.730 947.155 646.875 C 949.363 650.255, 952.032 653.482, 953.085 654.046 C 954.138 654.609, 955 655.719, 955 656.512 C 955 657.305, 956.108 658.680, 957.462 659.567 C 959.527 660.920, 960.506 660.988, 963.531 659.990 C 967.898 658.548, 996 659.639, 996 661.250 C 996 661.893, 998.449 662.022, 1002.750 661.607 C 1006.462 661.249, 1016.106 660.544, 1024.181 660.040 C 1040.763 659.004, 1043.070 658.213, 1048.302 651.766 C 1056.178 642.060, 1060.130 630.221, 1060.573 615 C 1060.849 605.536, 1061.215 603.760, 1064.289 597 C 1072.414 579.129, 1071.569 560.534, 1061.899 544.427 C 1055.091 533.087, 1040.477 523.231, 1027.352 521.129 C 1020.276 519.995, 1017.589 518.587, 1016.048 515.206 C 1015.270 513.498, 1014.454 512.997, 1013.227 513.472 C 1008.246 515.399, 1005.968 515.213, 1002.538 512.597 C 994.549 506.503, 984.619 487.619, 982.108 473.745 C 980.870 466.908, 981.308 465.409, 985.121 463.437 C 986.705 462.619, 988 461.501, 988 460.953 C 988 459.208, 982.782 452, 981.519 452 C 980.851 452, 977.873 454.601, 974.902 457.780 M 968.656 530.133 C 967.642 530.722, 966.174 532.733, 965.393 534.602 C 964.165 537.540, 964.167 538.463, 965.402 541.420 C 969.041 550.128, 981.146 548.288, 982.657 538.796 C 983.166 535.596, 982.832 534.679, 980.200 532.046 C 976.961 528.807, 972.273 528.030, 968.656 530.133 M 971.667 530.667 C 971.300 531.033, 971 532.383, 971 533.667 C 971 535.461, 971.553 536, 973.393 536 C 974.709 536, 976.067 535.268, 976.410 534.373 C 977.471 531.610, 973.683 528.650, 971.667 530.667 M 1024.766 540.757 C 1022.713 544.466, 1019.221 550.303, 1017.006 553.728 L 1012.979 559.957 1015.740 560.567 C 1026.835 563.021, 1035.617 567.123, 1043.472 573.521 C 1050.103 578.921, 1050.500 578.550, 1050.500 566.947 C 1050.500 560.326, 1050.077 558.560, 1047.076 552.648 C 1043.715 546.028, 1032.504 533.991, 1029.713 534.007 C 1029.046 534.010, 1026.820 537.048, 1024.766 540.757 M 912.455 545.455 C 908.698 549.211, 909.026 555.003, 913.195 558.510 C 918.873 563.288, 926.433 560.270, 927.655 552.737 C 928.164 549.600, 927.823 548.669, 925.200 546.046 C 921.254 542.100, 916.050 541.859, 912.455 545.455 M 916.141 545.330 C 913.980 547.933, 917.087 551.800, 919.928 550.044 C 921.638 548.987, 920.869 544.591, 918.908 544.217 C 918.032 544.051, 916.787 544.551, 916.141 545.330" stroke="none" fill="black" fill-rule="evenodd"/>
	<path fill-opacity="0.221" d="M 923.826 431.970 C 898.943 437.218, 882.574 448.377, 872.700 466.825 C 868.497 474.677, 868.479 474.737, 866.404 487.500 C 865.204 494.879, 865.137 499.022, 866.035 510.500 C 866.637 518.200, 867.621 526.525, 868.223 529 C 870.023 536.406, 873.855 543.592, 876.800 545.081 C 878.285 545.833, 880.573 547.247, 881.885 548.224 C 884.130 549.896, 888.073 550.594, 889.155 549.511 C 889.424 549.242, 889.339 546.655, 888.967 543.761 C 888.594 540.868, 888.660 537.203, 889.113 535.617 C 889.787 533.258, 888.953 530.440, 884.525 520.117 C 881.549 513.178, 878.800 505.099, 878.417 502.165 C 877.677 496.500, 876.055 494.879, 873.363 497.114 C 871.898 498.329, 871.814 497.860, 872.442 491.976 C 874.838 469.524, 885.264 454.655, 905.500 444.831 C 917.796 438.862, 927.146 436.732, 941.500 436.631 C 953.204 436.549, 958.403 437.731, 968.500 442.773 C 976.470 446.753, 984.211 452.987, 987.211 457.841 C 989.198 461.056, 989.216 461.299, 987.544 462.235 C 986.571 462.780, 984.869 464.131, 983.763 465.237 C 981.206 467.794, 981.736 473.481, 985.572 484.667 C 989.676 496.632, 992.600 501.691, 999.507 508.769 C 1005.183 514.587, 1006.130 515.185, 1008.669 514.555 C 1015.373 512.890, 1016.500 511.772, 1016.500 506.780 C 1016.500 504.214, 1017.063 501.549, 1017.750 500.857 C 1018.438 500.166, 1018.998 498.903, 1018.995 498.050 C 1018.987 495.373, 1012.250 478.267, 1009.842 474.806 C 1006.352 469.792, 1002.757 466, 1001.493 466 C 1000.870 466, 998.153 462.571, 995.455 458.379 C 980.352 434.917, 954.700 425.459, 923.826 431.970 M 967.923 531.923 C 965.928 533.918, 965 535.848, 965 538 C 965 541.724, 969.674 547, 972.973 547 C 976.542 547, 980.649 544.263, 982.010 540.975 C 983.111 538.318, 983.059 537.346, 981.656 534.406 C 978.832 528.483, 972.507 527.339, 967.923 531.923 M 970.445 532.174 C 969.738 534.402, 972.337 537.388, 974.388 536.704 C 976.068 536.144, 977.343 533.337, 976.691 531.636 C 975.742 529.165, 971.278 529.550, 970.445 532.174 M 912.923 545.923 C 906.113 552.733, 912.552 562.953, 921.741 559.921 C 931.221 556.792, 928.056 543, 917.858 543 C 916.751 543, 914.531 544.315, 912.923 545.923 M 915.485 546.048 C 914.772 548.292, 916.469 551, 918.587 551 C 920.607 551, 922.006 547.762, 920.866 545.724 C 919.541 543.358, 916.276 543.554, 915.485 546.048 M 940.885 647.917 C 937.783 656.455, 936.458 658, 932.240 658 C 930.073 658, 926.912 654.748, 925.231 650.790 L 924.080 648.081 916.801 651.082 C 882.837 665.088, 920.793 679.826, 991 679.893 C 1041.370 679.941, 1076 672.067, 1076 660.564 C 1076 657.512, 1075.533 657.045, 1069.535 654.092 C 1065.979 652.341, 1060.572 650.385, 1057.520 649.745 L 1051.970 648.581 1048.895 652.311 C 1047.204 654.363, 1044.527 656.711, 1042.946 657.528 C 1038.300 659.931, 998.074 663.089, 995.723 661.236 C 993.800 659.720, 968.079 658.842, 964.413 660.168 C 960.299 661.655, 956.148 660.520, 955.039 657.603 C 954.550 656.316, 953.091 654.416, 951.798 653.381 C 950.504 652.347, 948.468 650.112, 947.274 648.417 C 944.624 644.656, 942.141 644.461, 940.885 647.917" stroke="none" fill="black" fill-rule="evenodd"/>
	<path fill-opacity="0.445" d="M 926.049 432.495 C 899.353 438.544, 882.140 449.980, 873.709 467.269 C 867.128 480.767, 865.972 490.792, 867.916 517.500 C 869.049 533.056, 872.339 540.866, 880 546.181 C 888.645 552.179, 888.945 551.937, 888.577 539.250 C 888.281 529.025, 888.061 528.062, 884.073 519.520 C 881.767 514.582, 879.437 508.282, 878.894 505.520 C 877.115 496.463, 876.972 496, 875.960 496 C 875.408 496, 874.451 497.111, 873.832 498.469 C 870.039 506.794, 870.427 490.378, 874.321 477.796 C 885.413 441.955, 938.148 423.313, 972.120 443.225 C 976.821 445.980, 984.257 452.691, 987.823 457.396 L 990.017 460.291 985.910 464.083 C 981.971 467.720, 981.833 468.051, 982.528 472.187 C 984.790 485.633, 991.319 499.884, 998.947 508.026 C 1004.880 514.359, 1006.760 515.026, 1012.771 512.930 C 1016.497 511.631, 1017.181 510.117, 1015.962 505.869 C 1015.253 503.396, 1015.385 502.232, 1016.516 500.983 C 1018.444 498.852, 1018.402 498.187, 1015.869 490.754 C 1011.964 479.288, 1004.638 467.972, 1000.212 466.567 C 999.194 466.244, 997.599 464.383, 996.669 462.432 C 992.609 453.917, 983.965 444.693, 974.902 439.204 C 965.988 433.805, 958.147 431.755, 945 431.385 C 936.472 431.145, 930.450 431.497, 926.049 432.495 M 976.496 533.347 C 976.500 536.185, 976.200 536.500, 973.500 536.500 C 970.971 536.500, 970.450 536.069, 970.184 533.750 C 969.752 530.001, 968.192 530.295, 966.456 534.452 C 963.940 540.472, 967.404 545.907, 973.795 545.968 C 981.740 546.045, 985.094 534.797, 978.223 531.119 C 976.752 530.332, 976.493 530.666, 976.496 533.347 M 913.881 545.007 C 910.975 546.705, 909.583 551.579, 911.016 555.038 C 912.525 558.682, 914.715 560, 919.260 560 C 926.244 560, 929.789 550.968, 924.686 546.174 C 921.745 543.412, 921.170 543.438, 921.719 546.311 C 922.279 549.240, 919.817 551.394, 916.949 550.484 C 915.251 549.945, 914.891 549.196, 915.228 546.901 C 915.462 545.306, 915.619 544.014, 915.577 544.030 C 915.535 544.047, 914.772 544.486, 913.881 545.007" stroke="none" fill="black" fill-rule="evenodd"/>
</svg>