<svg xmlns="http://www.w3.org/2000/svg" width="1920" height="1080" viewBox="0 0 1920 1080" version="1.1">
	<path fill-opacity="0.086" d="M 0.015 362.750 C 0.026 364.751, 0.273 365.116, 0.923 364.091 C 1.413 363.316, 1.583 362.078, 1.300 361.341 C 0.489 359.226, -0.001 359.764, 0.015 362.750 M 0 374.234 C 0 376.406, 0.648 376.819, 5.750 377.900 C 15.004 379.860, 16.751 380.855, 18.962 385.421 C 22.227 392.167, 21.734 395.486, 17.002 398.618 C 13.746 400.772, 12.238 401.161, 8.880 400.711 C 3.553 399.996, 2.817 399.151, 2.233 393.076 C 1.640 386.904, 3.188 385.879, 9.087 388.539 C 14.182 390.837, 16.116 389.397, 12.499 385.999 C 10.602 384.217, 8.788 383.608, 5.235 383.562 L 0.500 383.500 0.247 523.386 L -0.007 663.273 4.514 662.653 C 9.107 662.024, 14.362 659.781, 16.683 657.460 C 17.388 656.755, 18.318 656.026, 18.751 655.839 C 20.367 655.143, 27.751 645.357, 29.572 641.500 C 30.924 638.635, 31.465 635.229, 31.480 629.500 C 31.497 622.727, 31.044 620.503, 28.528 615 C 26.893 611.425, 25.206 608.350, 24.778 608.167 C 23.455 607.600, 24.023 590.927, 25.653 582.500 C 26.504 578.100, 27.418 570.905, 27.684 566.511 L 28.167 558.523 61.380 525.361 C 90.047 496.738, 94.928 492.263, 97.046 492.667 C 98.844 493.010, 100.274 492.327, 102.396 490.111 C 104.783 487.617, 105.635 487.270, 107.248 488.133 C 108.840 488.985, 109.737 488.668, 112.074 486.429 L 114.945 483.679 121.722 486.779 C 125.450 488.483, 129.714 490.174, 131.197 490.534 C 137.271 492.012, 145.037 486.662, 146.502 479.990 C 146.878 478.278, 148.345 476.177, 149.836 475.216 C 156.504 470.919, 160 465.592, 160 459.728 C 160 456.164, 157.004 452, 154.439 452 C 153.624 452, 150.539 449.637, 147.583 446.750 C 144.628 443.863, 138.338 437.954, 133.605 433.620 C 126.567 427.176, 125 425.210, 125 422.825 C 125 412.579, 108.192 412.596, 103.569 422.847 C 102.450 425.328, 100.901 427.059, 99.480 427.416 C 96.189 428.242, 87.225 435.583, 84.948 439.317 C 81.511 444.954, 82.379 449.785, 88.151 457.152 C 90.817 460.555, 91.180 464, 88.872 464 C 87.155 464, 85.596 468.808, 86.831 470.296 C 87.706 471.351, 87.189 472.394, 84.500 475 C 82.022 477.401, 81.330 478.693, 82.054 479.565 C 82.793 480.455, 76.008 487.968, 56.782 507.549 C 28.211 536.647, 25.746 539.080, 25.294 538.628 C 25.128 538.461, 24.551 534.990, 24.011 530.913 C 23.472 526.836, 22.746 522.487, 22.398 521.248 C 21.861 519.335, 22.347 518.765, 25.633 517.459 C 40.280 511.638, 48.917 505.410, 53.728 497.202 C 58.937 488.313, 57.750 473.396, 50.870 461.303 L 47.914 456.105 49.500 450.303 C 50.373 447.111, 51.592 443.600, 52.210 442.500 C 57.698 432.722, 54.829 416.192, 45.755 405.307 C 40.532 399.041, 33.703 395.462, 28.564 396.296 L 25 396.874 25 392.873 C 25 387.742, 21.482 379.546, 18.418 377.538 C 17.111 376.682, 13.135 375.307, 9.583 374.483 C 6.032 373.659, 2.422 372.716, 1.563 372.386 C 0.408 371.943, 0 372.425, 0 374.234" stroke="none" fill="black" fill-rule="evenodd"/>
	<path fill-opacity="0.262" d="M 0 374.215 C 0 375.168, 2.176 376.098, 6.543 377.009 C 14.735 378.719, 18.202 380.799, 20.330 385.283 C 22.906 390.712, 22.504 395.143, 19.142 398.364 C 16.543 400.854, 15.702 401.075, 9.892 400.801 C 3.699 400.509, 3.446 400.391, 1.752 397 C 0.078 393.650, 0.003 399.270, 0.002 527.750 L 0 662 3.250 661.990 C 12.103 661.964, 24.861 651.215, 29.057 640.247 C 32.953 630.064, 32.805 626.512, 28.061 616.390 C 25.769 611.501, 23.632 605.592, 23.312 603.260 C 22.541 597.632, 24.889 577.258, 26.729 573.620 C 27.692 571.717, 28.069 568.574, 27.843 564.352 L 27.500 557.964 61.412 524.033 C 89.025 496.404, 95.637 490.271, 97.016 491.008 C 98.293 491.692, 99.410 491.182, 101.571 488.925 C 103.789 486.611, 105.021 486.065, 107.033 486.507 C 108.795 486.894, 110.465 486.422, 112.223 485.039 C 115.270 482.643, 116.767 482.496, 118.921 484.383 C 119.790 485.144, 123.329 486.786, 126.787 488.031 C 132.251 489.999, 133.584 490.141, 136.983 489.123 C 141.439 487.788, 144.658 484.239, 145.578 479.649 C 146.042 477.335, 147.440 475.705, 150.853 473.500 C 155.841 470.277, 158.874 465.399, 158.952 460.473 C 159.003 457.281, 156.630 453, 154.812 453 C 154.220 453, 148.283 447.902, 141.618 441.672 C 134.953 435.442, 128.262 429.286, 126.750 427.992 C 125.060 426.546, 124 424.638, 124 423.042 C 124 418.232, 121.458 416, 115.978 416 C 111.933 416, 110.459 416.536, 107.598 419.048 C 105.689 420.724, 103.986 423.053, 103.813 424.222 C 103.605 425.637, 101.694 427.279, 98.096 429.135 C 84.263 436.268, 80.606 445.077, 87.505 454.641 C 92.495 461.558, 92.548 461.818, 89.599 464.897 C 87.018 467.590, 86.833 471, 89.268 471 C 89.848 471, 88.668 472.413, 86.645 474.141 C 84.126 476.293, 83.052 477.983, 83.234 479.511 C 83.440 481.241, 77.118 488.272, 55.032 510.871 C 39.375 526.892, 25.987 540, 25.282 540 C 24.446 540, 23.988 538.522, 23.964 535.750 C 23.945 533.413, 23.277 528.800, 22.480 525.500 C 20.721 518.215, 20.711 518, 22.134 518 C 25.109 518, 42.324 508.743, 46.489 504.904 C 57.808 494.470, 59.460 480.725, 51.385 464.167 C 47.276 455.741, 47.305 454.859, 52.174 440.708 C 54.981 432.548, 55.122 431.482, 54.135 425.875 C 52.130 414.494, 45.616 404.016, 37.382 398.927 C 34.797 397.329, 32.734 396.895, 28.978 397.155 L 23.999 397.500 23.994 394 C 23.979 383.622, 19.636 377.961, 9.902 375.633 C 6.274 374.764, 2.561 373.769, 1.652 373.420 C 0.591 373.013, 0 373.297, 0 374.215 M 1.250 384.662 C 0.563 384.940, 0.014 386.142, 0.032 387.333 C 0.061 389.347, 0.157 389.377, 1.392 387.750 C 3.016 385.610, 5.579 385.532, 9.364 387.506 C 12.743 389.268, 13 389.305, 13 388.026 C 13 385.569, 4.812 383.225, 1.250 384.662 M 111.500 418.403 C 107.769 420.049, 105.464 422.677, 104.615 426.250 C 104.256 427.762, 103.289 429, 102.467 429 C 98.620 429, 88.222 437.224, 86.323 441.769 C 84.405 446.359, 85.348 450.005, 89.942 455.765 C 104.176 473.614, 123.475 488, 133.186 488 C 138.463 488, 140.607 486.690, 142.997 482.006 C 145.301 477.489, 145.530 474.703, 143.750 472.821 C 143.063 472.095, 141.324 469.925, 139.887 468 C 135.993 462.782, 132.726 459.557, 119.215 447.589 C 112.459 441.604, 107.101 436.211, 107.310 435.604 C 107.524 434.979, 109.297 434.645, 111.392 434.834 C 118.599 435.483, 124.265 428.363, 122.001 421.503 C 120.448 416.797, 117.266 415.857, 111.500 418.403 M 92 443 C 92 443.550, 92.477 444, 93.059 444 C 93.641 444, 93.840 443.550, 93.500 443 C 93.160 442.450, 92.684 442, 92.441 442 C 92.198 442, 92 442.450, 92 443 M 108.770 444.563 C 107.603 445.731, 109.194 448, 111.180 448 C 112.510 448, 113.038 447.437, 112.812 446.261 C 112.471 444.490, 109.916 443.417, 108.770 444.563 M 137.315 446.204 C 136.763 446.917, 136.028 448.293, 135.682 449.262 C 135.153 450.746, 135.484 450.931, 137.777 450.429 C 139.274 450.101, 141.063 449.660, 141.750 449.448 C 143.182 449.007, 143.471 446, 142.082 446 C 141.577 446, 140.524 445.755, 139.742 445.454 C 138.960 445.154, 137.868 445.492, 137.315 446.204 M 125.369 456.855 C 126.405 458, 126.782 459.404, 126.354 460.519 C 125.876 461.765, 126.025 462.103, 126.830 461.605 C 128.347 460.667, 128.331 457.731, 126.800 456.200 C 124.842 454.242, 123.542 454.837, 125.369 456.855 M 155.561 457 C 156.380 460.085, 158 462.005, 158 459.891 C 158 459.061, 157.302 457.509, 156.448 456.441 C 154.957 454.576, 154.922 454.597, 155.561 457 M 115.765 459.449 C 115.508 460.795, 115.770 462.370, 116.349 462.949 C 117.685 464.285, 123.682 464.323, 124.500 463 C 124.840 462.450, 124.414 462, 123.552 462 C 122.691 462, 121.009 460.875, 119.813 459.500 C 117.094 456.373, 116.355 456.364, 115.765 459.449 M 91.115 466.188 C 89.855 468.206, 90.056 468.652, 93.713 471.938 C 108.482 485.206, 108.117 484.944, 110.105 483.702 C 111.147 483.051, 112 482.166, 112 481.735 C 112 480.578, 94.720 464, 93.513 464 C 92.945 464, 91.866 464.985, 91.115 466.188 M 133 467.927 C 133 469.358, 133.642 470, 135.073 470 C 136.504 470, 137.043 469.461, 136.812 468.261 C 136.310 465.655, 133 465.364, 133 467.927 M 88.221 475.474 C 85.371 478.435, 85.430 479.036, 88.835 481.724 C 90.384 482.947, 92.896 485.102, 94.418 486.512 C 97.559 489.423, 100.170 489.143, 101.735 485.728 C 102.625 483.783, 102.168 482.948, 98.140 479.158 C 91.651 473.053, 90.841 472.752, 88.221 475.474 M 132 478.906 C 132 479.405, 132.900 479.577, 134 479.290 C 135.100 479.002, 136 478.594, 136 478.383 C 136 478.173, 135.100 478, 134 478 C 132.900 478, 132 478.408, 132 478.906 M 134 483 C 135.274 485.380, 137 485.634, 137 483.441 C 137 482.584, 136.550 482.160, 136 482.500 C 135.450 482.840, 135 482.641, 135 482.059 C 135 481.477, 134.534 481, 133.965 481 C 133.263 481, 133.274 481.644, 134 483 M 82.073 485.635 C 80.933 487.084, 80 487.994, 80 487.657 C 80 487.320, 78.088 489.172, 75.750 491.772 C 71.939 496.012, 65.450 502.698, 34.052 534.737 L 25 543.975 25 549.987 C 25 553.294, 25.409 556, 25.910 556 C 27.808 556, 92 490.996, 92 489.073 C 92 488.007, 91.142 486.862, 90.092 486.529 C 89.043 486.196, 87.932 485.266, 87.624 484.462 C 86.761 482.214, 84.365 482.721, 82.073 485.635" stroke="none" fill="black" fill-rule="evenodd"/>
	<path fill-opacity="0.314" d="M 22.405 400.123 C 20.617 402.116, 19.870 402.206, 10.250 401.591 L -0 400.937 -0 424.923 L -0 448.909 3.750 449.480 C 13.529 450.970, 36.741 455.362, 38.709 456.096 C 43.644 457.935, 51.022 474.623, 50.978 483.846 C 50.922 495.767, 41.375 505.151, 22.348 511.986 C 15.104 514.589, 14.382 516.237, 16.670 524.936 C 18.673 532.549, 20.200 569.922, 18.982 581.500 C 18.462 586.450, 18.028 594.393, 18.018 599.151 C 18.001 607.206, 18.283 608.409, 22.116 616.629 C 25.746 624.412, 26.170 626.066, 25.700 630.615 C 24.509 642.155, 13.859 654.685, 3.750 656.440 C 0.918 656.931, 0 657.569, 0 659.045 C -0 661.866, 5.820 661.639, 11.783 658.584 C 22.649 653.019, 30.443 640.661, 30.441 629 C 30.440 623.573, 29.841 621.262, 26.811 615 C 24.505 610.234, 23.064 605.677, 22.858 602.500 C 22.410 595.577, 24.001 576.118, 25.069 575.457 C 27.121 574.189, 28.154 566.811, 26.971 561.880 C 26.327 559.196, 25.395 557, 24.900 557 C 24.405 557, 23.989 552.163, 23.976 546.250 C 23.961 539.503, 23.253 532.335, 22.075 527 C 21.042 522.325, 20.265 518.426, 20.349 518.335 C 20.432 518.245, 24.719 516.342, 29.876 514.106 C 40.368 509.556, 46.408 505.351, 50.374 499.834 C 57.821 489.474, 57.700 477.642, 49.997 462.841 L 46.835 456.766 50.418 444.868 C 54.410 431.610, 54.583 429.781, 52.568 422.209 C 49.909 412.221, 43.476 402.922, 36.800 399.418 C 32.544 397.183, 24.698 397.568, 22.405 400.123 M 26 403.483 C 26 403.749, 28.310 405.137, 31.133 406.567 C 33.956 407.998, 38.456 411.217, 41.133 413.721 C 43.810 416.225, 46 417.960, 46 417.577 C 46 415.777, 39.443 407.157, 36.584 405.198 C 33.795 403.287, 26 402.024, 26 403.483 M 122.946 429.171 C 121.178 432.973, 117.339 435.167, 112.451 435.167 C 110.003 435.167, 108 435.540, 108 435.997 C 108 436.454, 113.513 441.756, 120.250 447.779 C 133.914 459.993, 139.492 465.763, 143.525 471.858 L 146.255 475.984 150.226 473.753 C 156.681 470.125, 157.736 466.256, 154.792 457 C 153.988 454.472, 149.795 449.890, 139.694 440.500 C 132.002 433.350, 125.331 427.352, 124.869 427.171 C 124.407 426.991, 123.541 427.891, 122.946 429.171 M 130.853 440.423 C 130.170 441.923, 128.292 443.832, 126.681 444.665 C 124.070 446.015, 123.915 446.344, 125.259 447.688 C 126.408 448.837, 127.239 448.942, 128.753 448.132 C 131.464 446.681, 134.529 440.129, 133.144 438.744 C 132.413 438.013, 131.720 438.521, 130.853 440.423 M 137 444.798 C 137 445.375, 135.835 447.231, 134.411 448.923 L 131.822 452 135.346 452 C 141.830 452, 146.957 448.557, 144.352 445.952 C 142.918 444.518, 137 443.590, 137 444.798 M 5.250 457.123 C 2.045 460.397, 5.959 468, 10.850 468 C 14.252 468, 18 465.441, 18 463.118 C 18 458.768, 8.166 454.145, 5.250 457.123 M 19.742 478.763 C 15.785 481.216, 15.427 483.535, 18.326 487.917 C 22.656 494.459, 35.272 498.787, 41.950 496.021 C 47.362 493.779, 47.219 488.456, 41.590 482.660 C 36.232 477.143, 25.456 475.221, 19.742 478.763 M 0 627.500 C 0 631.275, 1.350 632.083, 2.880 629.224 C 3.483 628.098, 3.478 626.818, 2.866 625.724 C 1.303 622.932, 0 623.740, 0 627.500" stroke="none" fill="black" fill-rule="evenodd"/>
	<path fill-opacity="0.636" d="M 0 425.364 L 0 449 4.250 449.007 C 6.588 449.011, 16.375 450.630, 26 452.605 C 35.625 454.580, 44.142 456.264, 44.926 456.348 C 46.609 456.528, 51.956 439.531, 51.956 434 C 51.956 425.040, 41.189 412.267, 28.820 406.552 C 22.532 403.647, 19.966 403.065, 10.746 402.447 L 0 401.727 0 425.364 M 122.422 431.781 C 119.775 434.907, 118.603 435.487, 113.982 435.956 L 108.617 436.500 121.544 448 C 128.654 454.325, 135.572 460.787, 136.917 462.360 C 138.262 463.933, 139.859 465.733, 140.464 466.360 C 141.070 466.987, 142.643 469.075, 143.959 471 C 145.275 472.925, 146.489 474.678, 146.656 474.896 C 147.225 475.639, 155 469.976, 155.114 468.736 C 155.177 468.056, 155.382 466.170, 155.570 464.544 C 155.988 460.928, 153.228 454.428, 149.621 450.536 C 146.966 447.671, 146.925 447.662, 145.505 449.689 C 144.180 451.582, 142.086 452.347, 134.687 453.646 C 131.788 454.155, 128.605 452.448, 129.563 450.898 C 129.860 450.417, 129.487 450.259, 128.734 450.549 C 127.327 451.088, 122 447.511, 122 446.026 C 122 445.570, 123.582 444.264, 125.515 443.123 C 127.449 441.983, 129.463 439.913, 129.991 438.525 C 130.519 437.136, 131.342 436, 131.820 436 C 133.295 436, 136 439.556, 136 441.495 C 136 442.506, 136.271 443.062, 136.603 442.731 C 136.934 442.399, 138.397 442.575, 139.853 443.122 C 142.123 443.974, 142.287 443.921, 141 442.746 C 140.175 441.992, 136.349 438.400, 132.498 434.763 L 125.495 428.150 122.422 431.781" stroke="none" fill="black" fill-rule="evenodd"/>
</svg>