<svg xmlns="http://www.w3.org/2000/svg" width="1920" height="1080" viewBox="0 0 1920 1080" version="1.1">
	<path fill-opacity="0.443" d="M -0 540.001 L -0 1080.001 960.250 1079.751 L 1920.500 1079.500 1920.751 539.750 L 1921.002 0 960.501 0 L 0 0 -0 540.001 M 0.496 540.500 C 0.496 837.500, 0.610 958.851, 0.750 810.168 C 0.890 661.485, 0.890 418.485, 0.750 270.168 C 0.610 121.851, 0.496 243.500, 0.496 540.500 M 936.843 504.338 C 931.994 505.697, 922.027 511.797, 916 517.093 C 914.075 518.784, 913.063 519.879, 913.750 519.525 C 914.731 519.020, 915 523.429, 915 540 C 915 556.564, 914.730 560.982, 913.750 560.487 C 910.794 558.994, 919.113 565.592, 925.779 570.027 C 934.026 575.514, 941.230 577.526, 948.723 576.435 C 961.395 574.589, 971.069 567.895, 977.077 556.813 C 980.356 550.765, 980.500 550.059, 980.500 540 C 980.500 529.941, 980.356 529.235, 977.077 523.187 C 972.873 515.433, 965.642 508.758, 958.588 506.119 C 951.428 503.440, 942.620 502.719, 936.843 504.338 M 936.530 514.967 C 932.856 519.026, 935.780 526, 941.156 526 C 943.705 526, 948 521.635, 948 519.045 C 948 513.866, 940.076 511.049, 936.530 514.967 M 927.250 532.662 C 926.421 532.997, 926 535.472, 926 540.016 C 926 546.040, 926.247 546.943, 928.048 547.515 C 931.480 548.604, 933 546.321, 933 540.078 C 933 533.119, 931.360 531.004, 927.250 532.662 M 936.530 554.967 C 932.856 559.026, 935.780 566, 941.156 566 C 943.705 566, 948 561.635, 948 559.045 C 948 553.866, 940.076 551.049, 936.530 554.967" stroke="none" fill="black" fill-rule="evenodd"/>
	<path fill-opacity="0.219" d="M 863.207 472.584 C 852.509 477.915, 846.067 489.405, 847.403 500.774 C 848.296 508.367, 850.982 513.997, 856.555 519.955 C 865.355 529.363, 877.041 532.713, 890.250 529.613 C 899.082 527.540, 906.377 523.720, 918 515.081 C 931.817 504.811, 934.756 503.554, 945.021 503.525 C 952.653 503.503, 954.236 503.841, 960.193 506.774 C 973.590 513.370, 981.158 525.363, 981.158 540 C 981.158 554.636, 973.590 566.630, 960.196 573.224 C 954.258 576.147, 952.638 576.496, 945.024 576.492 C 934.862 576.485, 931.954 575.196, 916.403 563.806 C 904.645 555.194, 897.174 551.593, 887.643 549.944 C 874.806 547.723, 864.768 551.097, 856.144 560.533 C 842.112 575.886, 845.466 598.113, 863.263 607.707 C 865.573 608.953, 868.837 609.459, 874.660 609.476 C 882.147 609.498, 883.176 609.250, 887.132 606.472 C 889.504 604.807, 892.807 601.505, 894.472 599.136 C 897.167 595.302, 897.500 594.031, 897.500 587.591 C 897.500 581.325, 897.121 579.782, 894.677 576.088 C 890.834 570.281, 882.818 566.500, 876.392 567.464 C 868.839 568.597, 862 576.098, 862 583.250 C 862 587.297, 863.504 589, 867.078 589 C 870.255 589, 871.525 587.643, 872.466 583.242 C 873.652 577.696, 879.806 576.209, 884.581 580.316 C 887.966 583.227, 888.322 589.721, 885.322 593.829 C 879.129 602.308, 866.939 600.969, 860.274 591.078 C 855.577 584.108, 858.283 571.210, 865.730 565.071 C 870.429 561.198, 876.582 559.629, 884.763 560.219 C 893.064 560.817, 898.971 563.647, 912 573.270 C 925.478 583.224, 932.375 586.273, 942.626 586.811 C 959.808 587.713, 975.640 579.217, 985.132 564 C 991.766 553.364, 993.468 536.034, 989.010 524.500 C 984.913 513.900, 979.346 506.732, 970.754 500.994 C 957.587 492.202, 940.950 490.523, 927.955 496.676 C 924.405 498.357, 916.932 503.092, 911.349 507.200 C 898.554 516.614, 892.740 519.189, 883 519.754 C 876.208 520.149, 874.982 519.917, 870.015 517.301 C 857.830 510.882, 854.148 495.376, 862.590 486.032 C 870.594 477.172, 884.057 479.303, 886.981 489.892 C 887.752 492.684, 887.593 494.178, 886.229 496.961 C 882.944 503.665, 874.502 503.680, 872.528 496.986 C 871.036 491.927, 870.202 491, 867.141 491 C 863.505 491, 862 492.683, 862 496.750 C 862 500.827, 863.883 504.622, 867.661 508.158 C 878.885 518.664, 898 508.995, 898 492.811 C 898 486.824, 896.283 482.530, 891.884 477.520 C 884.985 469.664, 873.155 467.627, 863.207 472.584 M 937.166 514.596 C 934.067 516.767, 934.551 521.597, 938.135 524.261 C 940.487 526.008, 941.079 526.072, 943.635 524.853 C 945.803 523.818, 946.578 522.674, 946.820 520.150 C 947.403 514.080, 942.187 511.079, 937.166 514.596 M 927.200 533.200 C 926.540 533.860, 926 536.955, 926 540.078 C 926 546.635, 927.564 548.839, 930.936 547.034 C 932.655 546.114, 933 544.966, 933 540.165 C 933 534.644, 931.867 532, 929.500 532 C 928.895 532, 927.860 532.540, 927.200 533.200 M 845.571 536.571 C 843.484 538.659, 843.584 541.314, 845.829 543.345 C 847.426 544.790, 850.761 545, 872.129 545 C 898.291 545, 899 544.868, 899 540 C 899 535.128, 898.308 535, 871.871 535 C 850.724 535, 846.915 535.228, 845.571 536.571 M 937.166 554.596 C 934.067 556.767, 934.551 561.597, 938.135 564.261 C 940.487 566.008, 941.079 566.072, 943.635 564.853 C 945.803 563.818, 946.578 562.674, 946.820 560.150 C 947.403 554.080, 942.187 551.079, 937.166 554.596" stroke="none" fill="black" fill-rule="evenodd"/>
	<path fill-opacity="0.513" d="M 866.703 471.381 C 857.619 474.767, 849.844 482.983, 848.390 490.733 C 847.124 497.482, 848.530 507.366, 851.544 512.903 C 857.450 523.755, 866.238 529.142, 879.098 529.794 C 893.162 530.507, 900.133 527.793, 917.807 514.721 C 922.925 510.935, 929.609 506.695, 932.659 505.299 C 937.520 503.073, 939.209 502.813, 946.352 503.190 C 961.051 503.965, 971.245 510.647, 977.722 523.752 C 981.207 530.804, 981.499 532.059, 981.489 539.948 C 981.479 547.457, 981.092 549.317, 978.315 555.201 C 972.005 568.565, 960.978 576.045, 946.460 576.807 C 939.192 577.188, 937.538 576.935, 932.636 574.691 C 929.574 573.289, 923.563 569.474, 919.279 566.212 C 902.461 553.410, 894.319 550, 880.571 550 C 873.365 550, 871.542 550.388, 866.189 553.064 C 854.785 558.762, 847.955 569.761, 848.044 582.288 C 848.123 593.429, 852.753 601.365, 862.176 606.507 C 866.578 608.909, 868.713 609.419, 874.500 609.456 C 880.435 609.493, 882.235 609.068, 886.328 606.662 C 898.369 599.585, 901.406 584.227, 892.721 574.334 C 884.842 565.361, 870.739 565.822, 864.994 575.241 C 861.970 580.198, 861.415 584.696, 863.536 587.040 C 866.761 590.603, 872 588.463, 872 583.584 C 872 580.358, 875.058 578, 879.240 578 C 886.498 578, 890.284 586.741, 886.040 593.701 C 882.262 599.899, 875.062 601.573, 867.316 598.057 C 852.951 591.535, 854.881 569.521, 870.500 561.732 C 877.778 558.103, 888.728 558.813, 898 563.516 C 900.475 564.771, 907.044 569.126, 912.597 573.194 C 929.089 585.274, 939.254 588.565, 952.463 586.101 C 990.697 578.970, 1004.347 532.112, 975.932 505.533 C 966.227 496.455, 950.308 491.474, 938.199 493.726 C 930.091 495.234, 924.451 498.118, 912.685 506.775 C 901.195 515.229, 894.811 518.513, 886.927 520.026 C 870.918 523.098, 857.760 512.841, 857.726 497.265 C 857.698 484.783, 871.686 475.853, 881.701 481.960 C 888.125 485.876, 889.830 493.672, 885.411 498.923 C 883.338 501.387, 882.048 502, 878.934 502 C 874.747 502, 872.847 500.124, 871.604 494.765 C 870.736 491.022, 866.588 489.967, 863.780 492.775 C 862.176 494.379, 861.881 495.554, 862.396 498.295 C 863.907 506.353, 870.655 511.995, 878.782 511.998 C 884.550 512.001, 888.889 510.029, 892.721 505.666 C 904.306 492.471, 894.626 471.737, 876.250 470.388 C 872.731 470.130, 869.027 470.515, 866.703 471.381 M 937 515 C 934.597 517.403, 934.462 519.786, 936.557 522.777 C 939.590 527.108, 947 524.549, 947 519.171 C 947 516.450, 943.646 513, 941 513 C 939.900 513, 938.100 513.900, 937 515 M 926.607 534.582 C 926.273 535.452, 926 537.890, 926 540 C 926 545.108, 926.830 547, 929.072 547 C 932.354 547, 933.973 541.232, 932.370 535.250 C 931.659 532.597, 927.552 532.120, 926.607 534.582 M 845.408 537.500 C 843.891 539.816, 843.891 540.184, 845.408 542.500 L 847.046 545 871.089 545 C 885.750 545, 895.886 544.596, 897.066 543.965 C 899.406 542.712, 899.601 538.744, 897.429 536.571 C 896.086 535.229, 892.305 535, 871.452 535 L 847.046 535 845.408 537.500 M 937 555 C 934.597 557.403, 934.462 559.786, 936.557 562.777 C 939.590 567.108, 947 564.549, 947 559.171 C 947 556.450, 943.646 553, 941 553 C 939.900 553, 938.100 553.900, 937 555" stroke="none" fill="black" fill-rule="evenodd"/>
	<path fill-opacity="0.463" d="M 863.500 473.353 C 841.624 483.561, 843.692 515.990, 866.914 526.880 C 871.764 529.155, 873.752 529.491, 882 529.430 C 893.223 529.348, 899.163 527.396, 909.066 520.538 C 931.344 505.111, 932.956 504.151, 938.535 502.993 C 953.736 499.837, 970.838 508.801, 978.219 523.794 C 981.232 529.914, 981.500 531.237, 981.500 540 C 981.500 548.744, 981.228 550.094, 978.250 556.144 C 974.264 564.240, 968.088 570.128, 959.237 574.270 C 953.647 576.886, 951.438 577.366, 945.058 577.352 C 935.682 577.331, 930.557 575.059, 917 564.913 C 901.325 553.181, 891.013 549.298, 878.023 550.234 C 858.155 551.666, 843.958 571.585, 849.418 590.366 C 855.678 611.898, 886.085 615.980, 895.104 596.500 C 900.962 583.847, 893.664 569.886, 880.408 568.389 C 871.136 567.341, 863 574.263, 863 583.199 C 863 585.906, 863.549 587.223, 865 588 C 867.962 589.585, 870.449 587.782, 871.878 583.013 C 873.889 576.302, 880.229 575.138, 885.586 580.495 C 887.448 582.357, 888 583.976, 888 587.572 C 888 591.656, 887.517 592.718, 884.118 596.118 C 880.571 599.665, 879.772 600, 874.868 599.996 C 868.548 599.992, 864.553 597.903, 860.366 592.413 C 857.875 589.147, 857.500 587.785, 857.500 581.999 C 857.500 576.336, 857.951 574.613, 860.526 570.448 C 862.405 567.410, 865.411 564.405, 868.452 562.526 C 872.911 559.772, 874.126 559.500, 881.949 559.500 C 889.644 559.500, 891.226 559.840, 897.023 562.740 C 900.585 564.523, 907.764 569.151, 912.977 573.025 C 918.189 576.899, 924.939 581.291, 927.977 582.785 C 933.014 585.261, 934.513 585.500, 945 585.500 C 956.218 585.500, 956.692 585.408, 964.322 581.765 C 999.610 564.915, 999.617 515.017, 964.333 498.261 C 957.368 494.953, 955.495 494.511, 947.012 494.174 C 932.681 493.605, 929.811 494.845, 905.520 512.103 C 893.926 520.340, 880.323 523.147, 871.478 519.129 C 857.966 512.991, 852.669 496.141, 861.198 486.428 C 865.401 481.640, 868.941 480, 875.068 480 C 879.737 480, 880.610 480.374, 884.118 483.882 C 887.517 487.282, 888 488.344, 888 492.428 C 888 503.430, 874.863 506.950, 871.812 496.765 C 870.424 492.133, 867.923 490.436, 864.882 492.063 C 863.066 493.035, 862.829 493.872, 863.221 497.946 C 863.790 503.866, 866.258 507.357, 871.825 510.111 C 875.212 511.787, 877.157 512.113, 880.792 511.615 C 900.304 508.941, 903.055 482.304, 884.790 472.908 C 879.420 470.146, 869.948 470.344, 863.500 473.353 M 936.496 516.365 C 933.925 520.289, 936.699 525, 941.582 525 C 943.638 525, 947 521.321, 947 519.071 C 947 514.052, 939.310 512.070, 936.496 516.365 M 927.440 534.295 C 927.136 535.089, 927.024 538.160, 927.193 541.119 C 927.456 545.731, 927.786 546.500, 929.500 546.500 C 931.294 546.500, 931.500 545.833, 931.500 540.014 C 931.500 534.627, 931.203 533.470, 929.747 533.190 C 928.783 533.004, 927.745 533.502, 927.440 534.295 M 845.505 537.983 C 845.153 539.092, 845.153 540.908, 845.505 542.017 C 846.128 543.979, 846.834 544.026, 871.714 543.767 C 894.805 543.526, 897.390 543.330, 898.387 541.750 C 899.191 540.474, 899.191 539.526, 898.387 538.250 C 897.390 536.670, 894.805 536.474, 871.714 536.233 C 846.834 535.974, 846.128 536.021, 845.505 537.983 M 936.496 556.365 C 933.925 560.289, 936.699 565, 941.582 565 C 943.638 565, 947 561.321, 947 559.071 C 947 554.052, 939.310 552.070, 936.496 556.365" stroke="none" fill="black" fill-rule="evenodd"/>
</svg>