<svg xmlns="http://www.w3.org/2000/svg" width="1920" height="1080" viewBox="0 0 1920 1080" version="1.1">
	<path fill-opacity="0.792" d="M 816 2 C 816 3.126, 815.333 4, 814.475 4 C 813.637 4, 812.564 5.016, 812.092 6.257 C 811.620 7.499, 808.706 10.531, 805.617 12.996 C 800.898 16.762, 800 17.990, 800 20.679 C 800 23.655, 799.738 23.901, 796.250 24.190 C 792.715 24.482, 792.482 24.712, 792.193 28.193 C 791.905 31.663, 791.663 31.905, 788.193 32.193 C 784.712 32.482, 784.482 32.715, 784.190 36.250 C 783.888 39.896, 783.770 40, 779.940 40 C 776.010 40, 776 40.010, 776 44 C 776 47.958, 775.960 48, 772.238 48 C 768.713 48, 767.500 48.981, 752.988 63.568 C 744.470 72.131, 736.263 79.792, 734.750 80.594 C 733.237 81.395, 732 82.715, 732 83.526 C 732 84.337, 731.515 85, 730.923 85 C 729.524 85, 724 90.524, 724 91.923 C 724 92.515, 723.515 93, 722.923 93 C 721.524 93, 716 98.524, 716 99.923 C 716 100.515, 715.100 101, 714 101 C 712.889 101, 712 101.667, 712 102.500 C 712 103.325, 711.550 104, 711 104 C 710.450 104, 710 105.125, 710 106.500 C 710 108.611, 709.533 109, 707 109 C 705 109, 704 109.500, 704 110.500 C 704 111.333, 703.111 112, 702 112 C 700.533 112, 700 112.667, 700 114.500 C 700 116.333, 699.467 117, 698 117 C 696.889 117, 696 117.667, 696 118.500 C 696 119.325, 695.550 120, 695 120 C 694.450 120, 694 121.125, 694 122.500 C 694 124.611, 693.533 125, 691 125 C 689 125, 688 125.500, 688 126.500 C 688 127.333, 687.111 128, 686 128 C 684.533 128, 684 128.667, 684 130.500 C 684 132.333, 683.467 133, 682 133 C 680.889 133, 680 133.667, 680 134.500 C 680 135.333, 679.111 136, 678 136 C 676.533 136, 676 136.667, 676 138.500 C 676 140.333, 675.467 141, 674 141 C 672.889 141, 672 141.667, 672 142.500 C 672 143.333, 671.111 144, 670 144 C 668.900 144, 668 144.450, 668 145 C 668 145.550, 667.100 146, 666 146 C 664.444 146, 664 146.667, 664 149 C 664 151.333, 663.556 152, 662 152 C 660.900 152, 660 152.450, 660 153 C 660 153.550, 659.100 154, 658 154 C 656.444 154, 656 154.667, 656 157 C 656 159.238, 655.536 160, 654.174 160 C 651.930 160, 648 164.019, 648 166.314 C 648 167.280, 647.220 168, 646.174 168 C 643.930 168, 640 172.019, 640 174.314 C 640 175.416, 639.188 176, 637.655 176 C 634.798 176, 632 178.884, 632 181.829 C 632 183.440, 631.395 184, 629.655 184 C 627.236 184, 624 186.763, 624 188.829 C 624 189.473, 623.200 190, 622.221 190 C 621.243 190, 617.643 192.825, 614.221 196.277 C 609.653 200.886, 608 203.277, 608 205.277 C 608 207.589, 607.580 208, 605.216 208 C 601.361 208, 592 217.408, 592 221.281 C 592 223.688, 591.623 224, 588.712 224 C 584.064 224, 576 232.110, 576 236.784 C 576 239.753, 575.748 240, 572.712 240 C 568.064 240, 560 248.110, 560 252.784 C 560 255.976, 559.963 256, 555 256 C 551.539 256, 550 256.404, 550 257.313 C 550 258.035, 548.650 259.919, 547 261.500 C 544.694 263.710, 544 265.256, 544 268.187 C 544 271.949, 543.948 272, 540.122 272 C 537.896 272, 535.715 272.639, 535 273.500 C 534.315 274.325, 533.187 275, 532.493 275 C 530.362 275, 528 279.713, 528 283.965 L 528 288 523.406 288 C 519.654 288, 518.717 288.366, 518.290 290 C 518.002 291.100, 517.160 292, 516.419 292 C 515.677 292, 514.589 292.900, 514 294 C 513.411 295.100, 512.270 296, 511.465 296 C 510.659 296, 510 296.675, 510 297.500 C 510 298.325, 509.501 299, 508.891 299 C 508.281 299, 499.416 307.325, 489.193 317.500 C 478.969 327.675, 470.327 336, 469.989 336 C 468.901 336, 464 341.568, 464 342.805 C 464 343.462, 463.100 344, 462 344 C 460.667 344, 460 344.667, 460 346 C 460 347.333, 459.333 348, 458 348 C 456.667 348, 456 348.667, 456 350 C 456 351.333, 455.333 352, 454 352 C 452.667 352, 452 352.667, 452 354 C 452 355.333, 451.333 356, 450 356 C 448.667 356, 448 356.667, 448 358 C 448 359.513, 447.331 360.002, 445.250 360.008 C 443.245 360.013, 442.161 360.745, 441.250 362.707 C 440.563 364.188, 440 365.984, 440 366.699 C 440 367.415, 439.178 368, 438.174 368 C 435.930 368, 432 372.019, 432 374.314 C 432 375.521, 431.147 376, 429 376 C 427 376, 426 376.500, 426 377.500 C 426 378.325, 425.550 379, 425 379 C 424.450 379, 424 380.125, 424 381.500 C 424 383.456, 423.490 384, 421.655 384 C 418.798 384, 416 386.884, 416 389.829 C 416 391.440, 415.395 392, 413.655 392 C 410.798 392, 408 394.884, 408 397.829 C 408 399.440, 407.395 400, 405.655 400 C 402.798 400, 400 402.884, 400 405.829 C 400 407.540, 399.407 408, 397.200 408 C 395.660 408, 393.860 408.540, 393.200 409.200 C 392.540 409.860, 392 411.660, 392 413.200 C 392 415.600, 391.600 416, 389.200 416 C 385.664 416, 384 417.644, 384 421.140 C 384 423.584, 383.595 423.913, 380.250 424.190 C 376.715 424.482, 376.482 424.712, 376.193 428.193 C 375.905 431.663, 375.663 431.905, 372.193 432.193 C 368.723 432.481, 368.481 432.723, 368.193 436.193 C 367.905 439.663, 367.663 439.905, 364.193 440.193 C 360.712 440.482, 360.482 440.715, 360.190 444.250 C 359.888 447.896, 359.770 448, 355.940 448 C 352.010 448, 352 448.010, 352 452 L 352 456 348 456 L 344 456 344 460 L 344 464 339.710 464 C 335.493 464, 335.144 464.278, 319.030 480.500 C 310.015 489.575, 302.461 497, 302.243 497 C 301.346 497, 296 502.928, 296 503.923 C 296 504.515, 295.515 505, 294.923 505 C 293.524 505, 288 510.524, 288 511.923 C 288 512.515, 287.515 513, 286.923 513 C 286.331 513, 282.438 516.375, 278.273 520.500 C 273.680 525.049, 269.873 528, 268.600 528 C 266.840 528, 266.500 528.607, 266.500 531.750 C 266.500 535.386, 266.382 535.510, 262.610 535.819 C 260.470 535.994, 258.220 536.669, 257.610 537.319 C 256.507 538.493, 256.347 539.613, 256.119 547.750 L 256 552 248.250 552 L 240.500 552 240.500 555.750 C 240.500 559.447, 240.440 559.504, 236.250 559.807 C 232.021 560.114, 232 560.134, 232 564.057 C 232 567.990, 231.990 568, 228 568 L 224 568 224 572 C 224 575.530, 223.724 576, 221.655 576 C 218.798 576, 216 578.884, 216 581.829 C 216 583.440, 215.395 584, 213.655 584 C 210.798 584, 208 586.884, 208 589.829 C 208 591.440, 207.395 592, 205.655 592 C 202.846 592, 200 594.869, 200 597.701 C 200 599.312, 199.153 599.880, 196 600.384 C 192.220 600.988, 192 601.216, 192 604.512 C 192 607.661, 191.729 608, 189.216 608 C 185.361 608, 176 617.408, 176 621.281 C 176 623.585, 175.577 624, 173.233 624 C 171.375 624, 168.746 625.504, 165.233 628.578 C 160.833 632.426, 160 633.700, 160 636.578 C 160 639.780, 159.789 640, 156.712 640 C 152.064 640, 144 648.110, 144 652.784 C 144 655.840, 143.811 656, 140.208 656 C 137.063 656, 135.699 656.731, 132.208 660.288 C 128.790 663.771, 128 665.272, 128 668.288 C 128 671.918, 127.916 672, 124.208 672 C 121.063 672, 119.699 672.731, 116.208 676.288 C 112.790 679.771, 112 681.272, 112 684.288 C 112 687.995, 111.994 688, 107.703 688 C 104.047 688, 102.854 688.565, 99.703 691.792 C 96.656 694.913, 96 696.308, 96 699.668 L 96 703.752 90.522 704.207 C 84.796 704.681, 80.966 707.381, 79.510 711.968 C 79.155 713.085, 78.398 714, 77.828 714 C 77.257 714, 73.438 717.375, 69.339 721.500 C 65.241 725.625, 61.238 729, 60.444 729 C 59.650 729, 59 729.900, 59 731 C 59 732.100, 58.377 733, 57.617 733 C 56.856 733, 55.998 733.900, 55.710 735 C 55.397 736.197, 54.346 737, 53.094 737 C 51.667 737, 51 737.637, 51 739 C 51 740.100, 50.377 741, 49.617 741 C 48.856 741, 47.998 741.900, 47.710 743 C 47.397 744.197, 46.346 745, 45.094 745 C 43.667 745, 43 745.637, 43 747 C 43 748.100, 42.377 749, 41.617 749 C 40.856 749, 39.998 749.900, 39.710 751 C 39.397 752.197, 38.346 753, 37.094 753 C 35.667 753, 35 753.637, 35 755 C 35 756.111, 34.333 757, 33.500 757 C 32.675 757, 32 757.686, 32 758.525 C 32 759.419, 30.760 760.298, 29 760.650 C 26.947 761.061, 26 761.842, 26 763.125 C 26 764.156, 25.550 765, 25 765 C 24.450 765, 24 765.675, 24 766.500 C 24 767.325, 23.409 768, 22.687 768 C 20.829 768, 16 773.275, 16 775.305 C 16 776.565, 15.130 777, 12.611 777 C 9.530 777, 9.163 777.318, 8.566 780.500 C 8.042 783.295, 7.446 784, 5.610 784 C 0.548 784, -0 786.131, -0 805.829 L 0 824 4 824 L 8 824 8 828 L 8 832 4 832 L 0 832 0 956.001 L 0 1080.001 960.250 1079.751 L 1920.500 1079.500 1920.475 932.500 C 1920.461 851.650, 1920.349 608.763, 1920.225 392.750 L 1920 0 1368 0 C 816.667 0, 816 0.002, 816 2 M 832 6 C 832 7.833, 832.667 8, 840 8 L 848 8 848 12 L 848 16 844 16 L 840 16 840 20 L 840 24 836 24 L 832 24 832 28 L 832 32 828 32 L 824 32 824 36 L 824 40 820 40 L 816 40 816 44 L 816 48 812 48 L 808 48 808 52 L 808 56 804 56 L 800 56 800 60 L 800 64 796 64 L 792 64 792 68 L 792 72 788 72 L 784 72 784 76 L 784 80 780 80 L 776 80 776 84 L 776 88 772 88 L 768 88 768 92 C 768 95.707, 767.797 96, 765.221 96 C 763.589 96, 761.847 96.826, 761 98 C 760.207 99.100, 758.758 100, 757.779 100 C 756.740 100, 756 100.740, 756 101.779 C 756 102.758, 755.100 104.207, 754 105 C 752.826 105.847, 752 107.589, 752 109.221 C 752 111.797, 751.707 112, 748 112 L 744 112 744 116 L 744 120 740 120 L 736 120 736 124 C 736 127.752, 735.819 128, 733.083 128 C 731.479 128, 729.938 128.562, 729.659 129.250 C 729.268 130.214, 728.930 130.183, 728.181 129.111 C 727.404 127.999, 726.493 128.440, 723.605 131.328 C 718.924 136.010, 718.893 138, 723.504 138 C 726.567 138, 728.140 136.887, 736.004 129.157 C 740.952 124.293, 745 119.793, 745 119.157 C 745 118.521, 745.528 118, 746.173 118 C 746.818 118, 752.180 113.050, 758.088 107 C 763.996 100.950, 769.239 96, 769.740 96 C 770.939 96, 774.536 91.971, 775.320 89.750 C 775.659 88.787, 776.881 88, 778.034 88 C 781.779 88, 784 86.125, 784 82.965 C 784 80.173, 784.233 80, 788 80 L 792 80 792 76 L 792 72 796 72 L 800 72 800 68 L 800 64 804 64 L 808 64 808 60 L 808 56 812 56 L 816 56 816 52 L 816 48 820 48 L 824 48 824 44 L 824 40 828 40 L 832 40 832 36 L 832 32 836 32 L 840 32 840 28 L 840 24 844 24 L 848 24 848 20 L 848 16 852 16 L 856 16 856 11 L 856 6 860 6 C 862.200 6, 864 5.550, 864 5 C 864 4.375, 858 4, 848 4 C 832.667 4, 832 4.083, 832 6 M 726 135 C 726 135.550, 726.450 136, 727 136 C 727.550 136, 728 135.550, 728 135 C 728 134.450, 727.550 134, 727 134 C 726.450 134, 726 134.450, 726 135 M 672 180 L 672 184 668 184 L 664 184 664 188 L 664 192 660 192 L 656 192 656 196 L 656 200 652 200 L 648 200 648 204 L 648 208 644 208 L 640 208 640 212 L 640 216 636 216 L 632 216 632 220 L 632 224 628 224 L 624 224 624 228 L 624 232 620 232 L 616 232 616 236 L 616 240 612 240 L 608 240 608 244 L 608 248 604 248 L 600 248 600 252 L 600 256 596 256 L 592 256 592 260 L 592 264 588 264 L 584 264 584 268 L 584 272 580 272 L 576 272 576 276 L 576 280 568 280 L 560 280 560 288 L 560 296 564 296 L 568 296 568 292 L 568 288 572 288 L 576 288 576 284 C 576 280.794, 576.362 280, 577.826 280 C 580.070 280, 584 275.981, 584 273.686 C 584 272.386, 584.915 272, 588 272 C 591.985 272, 592 271.985, 592 268.088 C 592 264.303, 592.130 264.154, 596 263.500 C 599.753 262.866, 600 262.614, 600 259.412 C 600 256.098, 600.115 256, 604 256 L 608 256 608 252 C 608 248.667, 608.333 248, 610 248 C 611.100 248, 612 247.550, 612 247 C 612 246.450, 613.350 246, 615 246 C 616.948 246, 618 245.494, 618 244.557 C 618 243.763, 619.350 242.316, 621 241.341 C 623.493 239.868, 624 238.929, 624 235.784 C 624 232.036, 624.038 232, 628 232 L 632 232 632 228 L 632 224 636 224 C 639.990 224, 640 223.990, 640 220.060 C 640 216.230, 640.104 216.112, 643.750 215.810 C 647.296 215.517, 647.517 215.296, 647.810 211.750 C 648.112 208.104, 648.230 208, 652.060 208 C 655.980 208, 656 207.980, 656 204.060 C 656 200.230, 656.104 200.112, 659.750 199.810 C 663.296 199.517, 663.517 199.296, 663.810 195.750 C 664.104 192.200, 664.305 192, 667.576 192 C 670.543 192, 672.092 190.940, 678.516 184.516 C 682.632 180.400, 686 176.800, 686 176.516 C 686 176.232, 682.850 176, 679 176 L 672 176 672 180 M 512 332 L 512 336 508 336 L 504 336 504 340 L 504 344 500 344 L 496 344 496 348 L 496 352 492 352 L 488 352 488 356 L 488 360 484 360 L 480 360 480 364 L 480 368 476 368 L 472 368 472 372 L 472 376 468 376 L 464 376 464 380 L 464 384 460 384 L 456 384 456 388 L 456 392 452 392 L 448 392 448 396 L 448 400 444 400 L 440 400 440 404 L 440 408 436 408 L 432 408 432 412 L 432 416 428 416 L 424 416 424 420 L 424 424 420 424 L 416 424 416 428 L 416 432 412 432 L 408 432 408 436 L 408 440 404 440 L 400 440 400 444 L 400 448 396 448 L 392 448 392 452 L 392 456 388 456 L 384 456 384 460 L 384 464 380 464 L 376 464 376 468 L 376 472 372 472 L 368 472 368 476 L 368 480 364 480 L 360 480 360 484 L 360 488 356 488 L 352 488 352 492 L 352 496 348 496 L 344 496 344 500 L 344 504 340 504 L 336 504 336 508 C 336 511.707, 335.797 512, 333.221 512 C 331.589 512, 329.847 512.826, 329 514 C 328.207 515.100, 326.758 516, 325.779 516 C 324.740 516, 324 516.740, 324 517.779 C 324 518.758, 323.100 520.207, 322 521 C 320.826 521.847, 320 523.589, 320 525.221 C 320 527.797, 319.707 528, 316 528 L 312 528 312 532 L 312 536 308 536 L 304 536 304 540 L 304 544 296 544 L 288 544 288 548 L 288 552 293.313 552 C 297.829 552, 299.029 551.579, 301.313 549.195 C 302.791 547.653, 304 546.172, 304 545.906 C 304 545.102, 336.853 512, 337.651 512 C 338.947 512, 344 506.678, 344 505.313 C 344 504.591, 344.591 504, 345.313 504 C 346.927 504, 352 498.838, 352 497.195 C 352 496.538, 352.822 496, 353.826 496 C 356.070 496, 360 491.981, 360 489.686 C 360 488.720, 360.780 488, 361.826 488 C 364.070 488, 368 483.981, 368 481.686 C 368 480.667, 368.791 480, 370 480 C 371.333 480, 372 479.333, 372 478 C 372 476.667, 372.667 476, 374 476 C 375.333 476, 376 475.333, 376 474 C 376 472.333, 376.667 472, 380 472 L 384 472 384 468 L 384 464 388 464 L 392 464 392 460 L 392 456 396 456 L 400 456 400 452 L 400 448 404 448 L 408 448 408 444 L 408 440 412 440 L 416 440 416 436 L 416 432 420 432 L 424 432 424 428 L 424 424 428 424 L 432 424 432 420 L 432 416 436 416 L 440 416 440 412 L 440 408 444 408 C 447.978 408, 448 407.979, 448 404.128 C 448 400.384, 448.132 400.234, 452 399.616 C 455.780 399.012, 456 398.784, 456 395.488 C 456 392.085, 456.098 392, 460 392 L 464 392 464 388 L 464 384 468 384 L 472 384 472 380 L 472 376 476 376 L 480 376 480 372 L 480 368 484 368 L 488 368 488 364 L 488 360 492 360 L 496 360 496 356 L 496 352 500 352 L 504 352 504 348 L 504 344 508 344 L 512 344 512 340 L 512 336 516.804 336 C 520.925 336, 522.062 335.531, 524.804 332.702 C 526.562 330.889, 528 329.089, 528 328.702 C 528 328.316, 524.400 328, 520 328 L 512 328 512 332 M 952 509.876 C 943.419 512.699, 934.583 520.275, 931.632 527.338 C 928.761 534.210, 927.819 541.387, 929.102 546.627 C 932.923 562.235, 946.992 572.893, 962.161 571.669 C 969.517 571.075, 977.527 567.718, 976.375 565.712 C 975.992 565.045, 976.059 564.845, 976.524 565.268 C 977.839 566.463, 984 559.900, 984 557.304 C 984 556.037, 984.354 555, 984.787 555 C 985.220 555, 985.643 554.090, 985.727 552.978 C 985.810 551.866, 985.483 551.201, 985 551.500 C 984.517 551.799, 984.190 551.134, 984.273 550.022 C 984.415 548.144, 984.864 547.871, 988.250 547.600 C 990.880 547.390, 992 544.992, 992 539.571 C 992 534.667, 991.761 534, 990 534 C 988.900 534, 988 534.378, 988 534.839 C 988 535.301, 986.854 536.201, 985.453 536.839 C 982.189 538.327, 981.287 538.313, 982.800 536.800 C 983.460 536.140, 984 534.827, 984 533.883 C 984 532.939, 984.515 531.995, 985.143 531.786 C 986.001 531.500, 986.001 530.871, 985.143 529.268 C 984.515 528.093, 984 525.740, 984 524.039 C 984 520.035, 979.136 514.616, 973.052 511.844 C 968.115 509.594, 956.232 508.483, 952 509.876 M 979.211 539.605 C 977.782 541.151, 978.747 541.447, 980.857 540.110 C 981.603 539.637, 981.828 539.016, 981.357 538.730 C 980.886 538.444, 979.920 538.838, 979.211 539.605 M 981.500 550 C 981.160 550.550, 981.359 551, 981.941 551 C 982.523 551, 983 550.550, 983 550 C 983 549.450, 982.802 549, 982.559 549 C 982.316 549, 981.840 549.450, 981.500 550 M 248 589 C 248 591.833, 247.778 592, 244 592 L 240 592 240 596 L 240 600 236 600 L 232 600 232 604 L 232 608 228 608 L 224 608 224 612 L 224 616 220 616 L 216 616 216 620 L 216 624 212 624 L 208 624 208 628 C 208 631.333, 207.667 632, 206 632 C 204.667 632, 204 632.667, 204 634 C 204 635.333, 203.333 636, 202 636 C 200.667 636, 200 636.667, 200 638 C 200 639.667, 199.333 640, 196 640 L 192 640 192 644 L 192 648 188 648 L 184 648 184 652 L 184 656 180 656 L 176 656 176 660 L 176 664 172 664 L 168 664 168 668 L 168 672 164 672 L 160 672 160 676 L 160 680 156 680 L 152 680 152 684 C 152 687.908, 151.919 688, 148.484 688 C 145.442 688, 143.958 689.010, 137.484 695.484 C 133.368 699.600, 130 703.200, 130 703.484 C 130 703.768, 133.150 704, 137 704 L 144 704 144 700 C 144 696.222, 144.167 696, 147 696 C 149.333 696, 150 695.556, 150 694 C 150 692.900, 150.450 692, 151 692 C 151.550 692, 152 691.100, 152 690 C 152 688.333, 152.667 688, 156 688 L 160 688 160 684 L 160 680 164 680 L 168 680 168 676 L 168 672 172 672 C 175.985 672, 176 671.985, 176 668.088 C 176 664.303, 176.130 664.154, 180 663.500 C 183.753 662.866, 184 662.614, 184 659.412 C 184 656.098, 184.115 656, 188 656 L 192 656 192 652 L 192 648 196 648 L 200 648 200 644 C 200 640.667, 200.333 640, 202 640 C 203.333 640, 204 639.333, 204 638 C 204 636.667, 204.667 636, 206 636 C 207.288 636, 208 635.333, 208 634.128 C 208 632.717, 208.985 632.098, 212 631.616 C 215.780 631.012, 216 630.784, 216 627.488 C 216 624.085, 216.098 624, 220 624 C 223.990 624, 224 623.990, 224 620.060 C 224 616.230, 224.104 616.112, 227.750 615.810 C 231.296 615.517, 231.517 615.296, 231.810 611.750 C 232.112 608.104, 232.230 608, 236.060 608 C 239.990 608, 240 607.990, 240 604 L 240 600 244 600 L 248 600 248 596 L 248 592 252 592 C 255.778 592, 256 591.833, 256 589 C 256 586.167, 255.778 586, 252 586 C 248.222 586, 248 586.167, 248 589 M 80 748 L 80 752 76 752 L 72 752 72 756 L 72 760 68 760 L 64 760 64 764 L 64 768 60 768 L 56 768 56 772 L 56 776 52 776 L 48 776 48 780 L 48 784 44 784 L 40 784 40 788 L 40 792 36 792 L 32 792 32 796 L 32 800 28 800 L 24 800 24 804 L 24 808 20 808 L 16 808 16 812 L 16 816 12 816 L 8 816 8 820 L 8 824 12 824 C 15.978 824, 16 823.979, 16 820.128 C 16 816.384, 16.132 816.234, 20 815.616 C 23.780 815.012, 24 814.784, 24 811.488 C 24 808.085, 24.098 808, 28 808 L 32 808 32 804 L 32 800 36 800 L 40 800 40 796 L 40 792 44 792 L 48 792 48 788 L 48 784 52 784 L 56 784 56 780 L 56 776 60 776 L 64 776 64 772 L 64 768 68 768 L 72 768 72 764 L 72 760 76 760 L 80 760 80 756 L 80 752 84.804 752 C 88.925 752, 90.062 751.531, 92.804 748.702 C 94.562 746.889, 96 745.089, 96 744.702 C 96 744.316, 92.400 744, 88 744 L 80 744 80 748 M 0.417 805.500 C 0.418 815.950, 0.566 820.089, 0.746 814.698 C 0.926 809.307, 0.925 800.757, 0.744 795.698 C 0.563 790.639, 0.416 795.050, 0.417 805.500 M 0.485 956 C 0.485 1024.475, 0.604 1052.487, 0.750 1018.250 C 0.896 984.013, 0.896 927.987, 0.750 893.750 C 0.604 859.513, 0.485 887.525, 0.485 956" stroke="none" fill="black" fill-rule="evenodd"/>
	<path fill-opacity="0.095" d="M 1266.750 2.984 C 1265.237 4.573, 1264 6.351, 1264 6.936 C 1264 7.521, 1263.515 8, 1262.923 8 C 1261.524 8, 1256 13.524, 1256 14.923 C 1256 15.515, 1255.515 16, 1254.923 16 C 1253.524 16, 1248 21.524, 1248 22.923 C 1248 23.515, 1247.515 24, 1246.923 24 C 1245.524 24, 1240 29.524, 1240 30.923 C 1240 31.515, 1238.650 32, 1237 32 C 1234.167 32, 1234 32.222, 1234 36 L 1234 40 1230 40 L 1226 40 1226 44 C 1226 47.920, 1225.929 48, 1222.429 48 C 1218.647 48, 1216 49.823, 1216 52.429 C 1216 53.293, 1215.303 54, 1214.452 54 C 1212.266 54, 1208.069 59.065, 1208.032 61.750 C 1208.004 63.703, 1207.472 64, 1204 64 L 1200 64 1200 68 L 1200 72 1196 72 L 1192 72 1192 76 L 1192 80 1188 80 C 1185.111 80, 1184 80.417, 1184 81.500 C 1184 82.325, 1183.325 83, 1182.500 83 C 1181.675 83, 1181 83.579, 1181 84.286 C 1181 85.783, 1164.489 102.671, 1157.369 108.456 C 1154.691 110.631, 1147.573 117.719, 1141.550 124.206 C 1135.528 130.693, 1130.126 136, 1129.546 136 C 1128.966 136, 1117.545 146.800, 1104.166 160 C 1090.787 173.200, 1079.392 184, 1078.843 184 C 1077.908 184, 1072 189.385, 1072 190.237 C 1072 190.749, 1054.749 208, 1054.237 208 C 1053.344 208, 1048 213.932, 1048 214.923 C 1048 215.515, 1047.515 216, 1046.923 216 C 1045.524 216, 1040 221.524, 1040 222.923 C 1040 223.515, 1039.515 224, 1038.923 224 C 1037.524 224, 1032 229.524, 1032 230.923 C 1032 231.515, 1031.515 232, 1030.923 232 C 1029.524 232, 1024 237.524, 1024 238.923 C 1024 239.515, 1023.100 240, 1022 240 C 1020.889 240, 1020 240.667, 1020 241.500 C 1020 242.333, 1019.111 243, 1018 243 C 1016.667 243, 1016 243.667, 1016 245 C 1016 246.333, 1015.333 247, 1014 247 C 1012.667 247, 1012 247.667, 1012 249 C 1012 250.333, 1011.333 251, 1010 251 C 1008.667 251, 1008 251.667, 1008 253 C 1008 254.333, 1007.333 255, 1006 255 C 1004.667 255, 1004 255.667, 1004 257 C 1004 258.667, 1003.333 259, 1000 259 C 996.667 259, 996 259.333, 996 261 C 996 262.333, 995.333 263, 994 263 C 992.333 263, 992 263.667, 992 267 L 992 271 988 271 C 984.045 271, 984 271.042, 983.996 274.750 C 983.993 278.235, 983.684 278.627, 979.632 280.293 C 976.837 281.442, 972.339 285.089, 967.112 290.445 C 962.624 295.043, 958.288 299.059, 957.476 299.371 C 956.664 299.682, 956 300.556, 956 301.312 C 956 302.827, 946.779 311, 945.071 311 C 944.482 311, 943.983 311.563, 943.963 312.250 C 943.943 312.938, 939.105 318.337, 933.213 324.249 C 916.143 341.375, 872.315 383, 871.352 383 C 870.869 383, 870.030 384.013, 869.487 385.250 C 868.944 386.488, 867.487 387.944, 866.250 388.487 C 865.013 389.030, 864 390.043, 864 390.737 C 864 391.432, 863.515 392, 862.923 392 C 861.640 392, 856 397.470, 856 398.715 C 856 399.791, 847.720 408, 846.635 408 C 845.450 408, 840 413.686, 840 414.923 C 840 415.515, 839.515 416, 838.923 416 C 837.524 416, 832 421.524, 832 422.923 C 832 423.515, 831.515 424, 830.923 424 C 830.331 424, 828.531 425.315, 826.923 426.923 C 825.315 428.531, 824 430.331, 824 430.923 C 824 431.515, 823.515 432, 822.923 432 C 821.524 432, 816 437.524, 816 438.923 C 816 439.515, 814.650 440, 813 440 C 810.167 440, 810 440.222, 810 444 C 810 447.920, 809.929 448, 806.429 448 C 802.214 448, 800 449.870, 800 453.429 C 800 455.619, 799.556 456, 797 456 C 794.167 456, 794 456.222, 794 460 L 794 464 789 464 L 784 464 784 468 L 784 472 780 472 L 776 472 776 476 L 776 480 772 480 C 768.100 480, 768 480.087, 768 483.480 C 768 486.527, 767.508 487.211, 764.040 488.980 C 761.862 490.091, 759.373 491, 758.508 491 C 757.644 491, 756.665 491.788, 756.332 492.750 C 755.343 495.612, 739.694 511, 737.772 511 C 736.797 511, 736 511.591, 736 512.313 C 736 513.927, 730.838 519, 729.195 519 C 728.538 519, 728 519.570, 728 520.267 C 728 521.747, 706.943 543, 705.476 543 C 704.931 543, 693.691 553.800, 680.500 567 C 667.309 580.200, 656.188 591, 655.787 591 C 654.935 591, 624.661 621.714, 624.167 623.079 C 623.983 623.586, 623.386 624, 622.840 624 C 621.502 624, 616 629.569, 616 630.923 C 616 631.515, 615.515 632, 614.923 632 C 614.331 632, 612.531 633.315, 610.923 634.923 C 609.315 636.531, 608 638.331, 608 638.923 C 608 639.515, 607.515 640, 606.923 640 C 606.331 640, 604.531 641.315, 602.923 642.923 C 601.315 644.531, 600 646.331, 600 646.923 C 600 647.515, 598.650 648, 597 648 C 594.167 648, 594 648.222, 594 652 C 594 655.778, 593.833 656, 591 656 C 589 656, 588 656.500, 588 657.500 C 588 658.333, 587.111 659, 586 659 C 584.667 659, 584 659.667, 584 661 C 584 662.333, 583.333 663, 582 663 C 580.667 663, 580 663.667, 580 665 C 580 666.333, 579.333 667, 578 667 C 576.667 667, 576 667.667, 576 669 C 576 670.250, 575.333 671, 574.221 671 C 571.618 671, 560 683.072, 560 685.777 C 560 687.704, 559.467 688, 556 688 L 552 688 552 692 L 552 696 548 696 C 545.111 696, 544 696.417, 544 697.500 C 544 698.325, 543.311 699, 542.469 699 C 541.626 699, 540.664 699.787, 540.330 700.750 C 539.474 703.218, 527.830 715, 526.248 715 C 525.527 715, 524.688 715.648, 524.384 716.441 C 523.801 717.961, 491.222 751, 490.307 751 C 490.013 751, 478.635 761.800, 465.021 775 C 451.406 788.200, 439.723 799, 439.057 799 C 437.557 799, 432 804.452, 432 805.923 C 432 806.515, 431.515 807, 430.923 807 C 429.717 807, 424.554 811.899, 423.913 813.650 C 423.405 815.042, 415.173 824, 414.402 824 C 413.388 824, 408 829.827, 408 830.923 C 408 831.515, 407.515 832, 406.923 832 C 406.331 832, 404.531 833.315, 402.923 834.923 C 401.315 836.531, 400 838.331, 400 838.923 C 400 839.515, 399.515 840, 398.923 840 C 398.331 840, 396.531 841.315, 394.923 842.923 C 393.315 844.531, 392 846.331, 392 846.923 C 392 847.515, 391.515 848, 390.923 848 C 390.331 848, 388.531 849.315, 386.923 850.923 C 385.315 852.531, 384 854.331, 384 854.923 C 384 855.515, 382.650 856, 381 856 C 378.167 856, 378 856.222, 378 860 C 378 863.920, 377.929 864, 374.429 864 C 370.214 864, 368 865.870, 368 869.429 C 368 871.333, 367.481 872, 366 872 C 364.667 872, 364 872.667, 364 874 C 364 875.667, 363.333 876, 360 876 C 356.857 876, 356 876.375, 355.999 877.750 C 355.999 878.722, 345.004 890.169, 331.265 903.500 C 317.662 916.700, 300.900 933.007, 294.016 939.737 C 268.963 964.232, 232.196 999, 231.346 999 C 230.866 999, 230.030 1000.013, 229.487 1001.250 C 228.944 1002.488, 227.600 1003.918, 226.500 1004.430 C 225.400 1004.941, 218.895 1011.353, 212.045 1018.680 C 205.195 1026.006, 199.197 1032, 198.718 1032 C 197.471 1032, 192 1037.638, 192 1038.923 C 192 1039.515, 191.515 1040, 190.923 1040 C 189.524 1040, 184 1045.524, 184 1046.923 C 184 1047.515, 183.491 1048, 182.868 1048 C 182.246 1048, 180.251 1049.575, 178.435 1051.500 C 176.620 1053.425, 174.429 1055, 173.567 1055 C 172.667 1055, 172 1055.851, 172 1057 C 172 1058.333, 171.333 1059, 170 1059 C 168.667 1059, 168 1059.667, 168 1061 C 168 1062.333, 167.333 1063, 166 1063 C 164.667 1063, 164 1063.667, 164 1065 C 164 1066.333, 163.333 1067, 162 1067 C 160.667 1067, 160 1067.667, 160 1069 C 160 1070.556, 159.333 1071, 157 1071 C 154.175 1071, 154 1071.230, 154 1074.934 C 154 1078.457, 153.713 1078.911, 151.250 1079.284 C 149.738 1079.513, 547.087 1079.768, 1034.250 1079.850 L 1920 1080 1920 540 L 1920 0 1621.934 0 C 1418.382 0, 1323.255 0.328, 1321.934 1.035 C 1320.601 1.749, 1320 1.749, 1320 1.035 C 1320 0.379, 1315.605 0, 1308 0 C 1300.667 0, 1296 0.389, 1296 1 C 1296 1.611, 1291.333 2, 1284 2 C 1276.667 2, 1272 1.611, 1272 1 C 1272 -0.859, 1269.515 0.080, 1266.750 2.984 M 940.750 363.662 C 941.438 363.940, 942.563 363.940, 943.250 363.662 C 943.938 363.385, 943.375 363.158, 942 363.158 C 940.625 363.158, 940.063 363.385, 940.750 363.662 M 955.203 509.169 C 938.890 511.720, 927.351 526.399, 928.191 543.530 C 928.361 546.993, 928.679 549.649, 928.897 549.433 C 929.115 549.217, 930.383 551.393, 931.714 554.270 C 934.430 560.139, 940.232 566.049, 946.387 569.215 C 952.221 572.217, 964.019 572.819, 971.076 570.475 C 980.841 567.232, 988.962 557.513, 992.009 545.425 C 993.570 539.234, 992.873 535.067, 988.975 527.266 C 982.147 513.602, 969.655 506.908, 955.203 509.169 M 640.750 546.662 C 641.438 546.940, 642.563 546.940, 643.250 546.662 C 643.938 546.385, 643.375 546.158, 642 546.158 C 640.625 546.158, 640.063 546.385, 640.750 546.662" stroke="none" fill="black" fill-rule="evenodd"/>
	<path fill-opacity="0.188" d="M 1710 11.500 C 1703.693 17.825, 1697.963 23, 1697.266 23 C 1696.570 23, 1696 23.400, 1696 23.889 C 1696 24.746, 1654.049 65.553, 1639.228 79.113 C 1635.253 82.751, 1632 86.238, 1632 86.863 C 1632 87.488, 1631.515 88, 1630.923 88 C 1629.897 88, 1624 93.359, 1624 94.291 C 1624 94.873, 1614.873 104, 1614.291 104 C 1613.359 104, 1608 109.897, 1608 110.923 C 1608 111.515, 1607.515 112, 1606.923 112 C 1605.524 112, 1600 117.524, 1600 118.923 C 1600 119.515, 1599.515 120, 1598.923 120 C 1597.524 120, 1592 125.524, 1592 126.923 C 1592 127.515, 1590.650 128, 1589 128 C 1586.167 128, 1586 128.222, 1586 132 L 1586 136 1582 136 L 1578 136 1578 140 C 1578 143.920, 1577.929 144, 1574.429 144 C 1570.214 144, 1568 145.870, 1568 149.429 C 1568 151.459, 1567.507 152, 1565.655 152 C 1562.798 152, 1560 154.884, 1560 157.829 C 1560 159.695, 1559.439 160, 1556 160 L 1552 160 1552 164 L 1552 168 1548 168 L 1544 168 1544 172 L 1544 176 1540 176 C 1536.667 176, 1536 176.333, 1536 178 C 1536 179.126, 1535.333 180, 1534.475 180 C 1533.637 180, 1532.556 181.037, 1532.074 182.305 C 1530.979 185.185, 1507.288 208, 1505.392 208 C 1504.626 208, 1504 208.615, 1504 209.367 C 1504 210.119, 1500.400 214.174, 1496 218.378 C 1491.600 222.582, 1488 226.263, 1488 226.558 C 1488 227.312, 1482.662 231.930, 1481.747 231.968 C 1480.718 232.012, 1459.157 252.645, 1444.432 267.679 C 1437.794 274.456, 1431.797 280, 1431.105 280 C 1429.984 280, 1424 285.253, 1424 286.237 C 1424 286.749, 1406.749 304, 1406.237 304 C 1405.344 304, 1400 309.932, 1400 310.923 C 1400 311.515, 1399.491 312, 1398.868 312 C 1398.246 312, 1396.251 313.575, 1394.435 315.500 C 1392.620 317.425, 1390.844 319, 1390.490 319 C 1389.412 319, 1384 324.773, 1384 325.923 C 1384 326.515, 1383.515 327, 1382.923 327 C 1382.331 327, 1380.531 328.315, 1378.923 329.923 C 1377.315 331.531, 1376 333.331, 1376 333.923 C 1376 334.515, 1375.100 335, 1374 335 C 1372.667 335, 1372 335.667, 1372 337 C 1372 338.333, 1371.333 339, 1370 339 C 1368.667 339, 1368 339.667, 1368 341 C 1368 342.333, 1367.333 343, 1366 343 C 1364.667 343, 1364 343.667, 1364 345 C 1364 346.333, 1363.333 347, 1362 347 C 1360.667 347, 1360 347.667, 1360 349 C 1360 350.270, 1359.333 351, 1358.174 351 C 1355.720 351, 1352 355.105, 1352 357.814 C 1352 359.441, 1351.400 360, 1349.655 360 C 1346.798 360, 1344 362.884, 1344 365.829 C 1344 367.695, 1343.439 368, 1340 368 C 1336.228 368, 1336 368.170, 1336 370.980 C 1336 373.449, 1335.315 374.309, 1332 376 C 1329.368 377.343, 1328 378.717, 1328 380.020 C 1328 381.234, 1327.323 382.005, 1326.250 382.012 C 1325.287 382.019, 1321.435 385.132, 1317.688 388.929 C 1313.941 392.727, 1310.229 396.082, 1309.438 396.385 C 1308.647 396.689, 1308 397.573, 1308 398.350 C 1308 399.127, 1306.313 401.040, 1304.250 402.601 C 1302.188 404.162, 1294.200 411.527, 1286.500 418.968 C 1270.786 434.153, 1245.532 458.609, 1227.350 476.250 C 1220.689 482.712, 1214.926 488, 1214.543 488 C 1213.786 488, 1208 493.564, 1208 494.291 C 1208 494.873, 1198.873 504, 1198.291 504 C 1197.359 504, 1192 509.897, 1192 510.923 C 1192 511.515, 1191.515 512, 1190.923 512 C 1190.331 512, 1188.531 513.315, 1186.923 514.923 C 1185.315 516.531, 1184 518.331, 1184 518.923 C 1184 519.515, 1183.515 520, 1182.923 520 C 1182.331 520, 1180.531 521.315, 1178.923 522.923 C 1177.315 524.531, 1176 526.331, 1176 526.923 C 1176 527.515, 1175.491 528, 1174.868 528 C 1174.246 528, 1172.251 529.575, 1170.435 531.500 C 1168.620 533.425, 1166.231 535, 1165.128 535 C 1163.530 535, 1163.057 535.766, 1162.810 538.750 C 1162.522 542.234, 1162.252 542.524, 1159.004 542.832 C 1154.648 543.245, 1153.204 544.407, 1152.809 547.818 C 1152.567 549.910, 1151.848 550.601, 1149.500 551 C 1147.005 551.423, 1146.449 552.035, 1146.196 554.633 C 1145.910 557.565, 1145.588 557.797, 1140.946 558.413 L 1136 559.069 1136 563.534 L 1136 568 1132 568 L 1128 568 1128 572 L 1128 576 1124 576 L 1120 576 1120 580 L 1120 584 1116 584 C 1112.667 584, 1112 584.333, 1112 586 C 1112 587.333, 1111.333 588, 1110 588 C 1108.814 588, 1108 588.667, 1108 589.638 C 1108 591.120, 1092.113 606.970, 1089.713 607.882 C 1089.159 608.092, 1087.376 609.780, 1085.750 611.632 C 1084.123 613.484, 1082.164 615, 1081.396 615 C 1080.628 615, 1080 615.570, 1080 616.267 C 1080 617.513, 1059.060 639, 1057.845 639 C 1057.503 639, 1053.686 642.651, 1049.362 647.114 C 1045.038 651.577, 1033.400 662.851, 1023.500 672.167 C 1013.600 681.483, 1004.150 690.380, 1002.500 691.936 C 1000.850 693.493, 993.916 700.444, 987.091 707.383 C 980.266 714.323, 974.494 720, 974.264 720 C 973.351 720, 968 725.914, 968 726.923 C 968 727.515, 967.515 728, 966.923 728 C 966.331 728, 964.531 729.315, 962.923 730.923 C 961.315 732.531, 960 734.331, 960 734.923 C 960 735.515, 959.515 736, 958.923 736 C 958.331 736, 956.531 737.315, 954.923 738.923 C 953.315 740.531, 952 742.331, 952 742.923 C 952 743.515, 950.650 744, 949 744 C 946.167 744, 946 744.222, 946 748 C 946 751.905, 945.917 752, 942.500 752 C 939.667 752, 939 752.381, 939 754 C 939 755.333, 938.333 756, 937 756 C 935.667 756, 935 756.667, 935 758 C 935 759.333, 934.333 760, 933 760 C 931.667 760, 931 760.667, 931 762 C 931 763.333, 930.333 764, 929 764 C 927.871 764, 927 764.667, 927 765.531 C 927 766.374, 926.212 767.340, 925.250 767.678 C 922.737 768.561, 918 773.141, 918 774.687 C 918 775.409, 917.395 776, 916.655 776 C 914.667 776, 912 779.340, 912 781.829 C 912 783.695, 911.439 784, 908 784 L 904 784 904 788 L 904 792 900 792 C 896.667 792, 896 792.333, 896 794 C 896 795.129, 895.333 796, 894.469 796 C 893.626 796, 892.670 796.697, 892.343 797.549 C 891.531 799.664, 880.268 810.329, 877.906 811.218 C 876.858 811.613, 876 812.625, 876 813.468 C 876 814.333, 875.130 815, 874 815 C 872.900 815, 872 815.570, 872 816.266 C 872 816.962, 866.600 822.917, 860 829.500 C 853.400 836.083, 848 841.986, 848 842.618 C 848 843.250, 847.212 844.031, 846.250 844.354 C 843.367 845.322, 842.212 846.382, 816.480 871.670 C 802.863 885.051, 791.300 896, 790.784 896 C 789.488 896, 784 901.601, 784 902.923 C 784 903.515, 783.515 904, 782.923 904 C 781.897 904, 776 909.359, 776 910.291 C 776 910.536, 773.916 912.821, 771.368 915.368 C 768.821 917.916, 766.536 920, 766.291 920 C 765.359 920, 760 925.897, 760 926.923 C 760 927.515, 759.515 928, 758.923 928 C 758.331 928, 756.531 929.315, 754.923 930.923 C 753.315 932.531, 752 934.331, 752 934.923 C 752 935.515, 751.515 936, 750.923 936 C 750.331 936, 748.531 937.315, 746.923 938.923 C 745.315 940.531, 744 942.331, 744 942.923 C 744 943.515, 743.515 944, 742.923 944 C 742.331 944, 740.531 945.315, 738.923 946.923 C 737.315 948.531, 736 950.331, 736 950.923 C 736 951.515, 734.650 952, 733 952 C 730.167 952, 730 952.222, 730 956 C 730 959.920, 729.929 960, 726.429 960 C 722.214 960, 720 961.870, 720 965.429 C 720 967.333, 719.481 968, 718 968 C 716.667 968, 716 968.667, 716 970 C 716 971.333, 715.333 972, 714 972 C 712.667 972, 712 972.667, 712 974 C 712 975.431, 711.333 976, 709.655 976 C 706.798 976, 704 978.884, 704 981.829 C 704 983.440, 703.395 984, 701.655 984 C 698.798 984, 696 986.884, 696 989.829 C 696 991.421, 695.393 992, 693.723 992 C 692.226 992, 689.059 994.422, 684.473 999.073 C 675.445 1008.231, 658.561 1023, 657.120 1023 C 656.504 1023, 656 1023.570, 656 1024.267 C 656 1025.898, 634.867 1047, 633.234 1047 C 632.555 1047, 632 1047.458, 632 1048.017 C 632 1048.576, 626.600 1054.268, 620 1060.664 C 613.168 1067.285, 608 1073.092, 608 1074.147 C 608 1075.333, 607.280 1076, 606 1076 C 604.667 1076, 604 1076.667, 604 1078 C 604 1079.861, 604.667 1080, 613.578 1080 L 623.157 1080 627 1076 C 630.386 1072.475, 631.387 1072, 635.422 1072 L 640 1072 640 1068 C 640 1064.667, 640.333 1064, 642 1064 C 643.333 1064, 644 1063.333, 644 1062 C 644 1060.667, 644.667 1060, 646 1060 C 647.333 1060, 648 1059.333, 648 1058 C 648 1056.333, 648.667 1056, 652 1056 L 656 1056 656 1052 L 656 1048 660 1048 L 664 1048 664 1044 L 664 1040 668 1040 L 672 1040 672 1036 L 672 1032 676 1032 L 680 1032 680 1028 L 680 1024 684 1024 L 688 1024 688 1020 L 688 1016 692 1016 L 696 1016 696 1012 L 696 1008 700 1008 L 704 1008 704 1004 C 704 1000.091, 704.080 1000, 707.518 1000 C 710.759 1000, 712.606 998.427, 731 980 C 741.980 969, 751.437 960, 752.015 960 C 754.152 960, 760 953.066, 760 950.533 C 760 948.244, 760.386 948, 764 948 C 766.915 948, 768 947.587, 768 946.478 C 768 945.640, 775.200 937.775, 784 929 C 792.800 920.225, 800 912.577, 800 912.006 C 800 911.435, 803.368 907.600, 807.484 903.484 C 814.586 896.382, 815.198 896, 819.484 896 L 824 896 824 892 L 824 888 828 888 L 832 888 832 884 L 832 880 836 880 L 840 880 840 876 L 840 872 844 872 L 848 872 848 868 L 848 864 852 864 L 856 864 856 860 L 856 856 860 856 L 864 856 864 852 L 864 848 868 848 L 872 848 872 844 L 872 840 876 840 L 880 840 880 836 L 880 832 884 832 L 888 832 888 828 L 888 824 892 824 L 896 824 896 820 L 896 816 900 816 L 904 816 904 812 L 904 808 908 808 L 912 808 912 804 L 912 800 916 800 L 920 800 920 796 L 920 792 924.533 792 C 928.373 792, 929.597 791.469, 932.533 788.533 C 934.664 786.402, 936 784.091, 936 782.533 C 936 780.667, 936.526 780, 938 780 C 939.333 780, 940 779.333, 940 778 C 940 776.667, 940.667 776, 942 776 C 943.333 776, 944 775.333, 944 774 C 944 772.667, 944.667 772, 946 772 C 947.333 772, 948 771.333, 948 770 C 948 768.667, 948.667 768, 950 768 C 951.333 768, 952 767.333, 952 766 C 952 764.667, 952.667 764, 954 764 C 955.333 764, 956 763.333, 956 762 C 956 760.667, 956.667 760, 958 760 C 959.333 760, 960 759.333, 960 758 C 960 756.667, 960.667 756, 962 756 C 963.333 756, 964 755.333, 964 754 C 964 752.667, 964.667 752, 966 752 C 967.333 752, 968 751.333, 968 750 C 968 748.667, 968.667 748, 970 748 C 971.333 748, 972 747.333, 972 746 C 972 744.667, 972.667 744, 974 744 C 975.556 744, 976 743.333, 976 741 C 976 738.167, 976.222 738, 980 738 C 983.778 738, 984 737.833, 984 735 C 984 732.667, 984.444 732, 986 732 C 987.333 732, 988 731.333, 988 730 C 988 728.845, 988.667 728, 989.578 728 C 990.447 728, 992.886 726.200, 995 724 C 997.118 721.795, 999.796 720, 1000.967 720 C 1003.687 720, 1008 715.715, 1008 713.012 C 1008 711.869, 1009.560 709.373, 1011.467 707.467 C 1013.373 705.560, 1015.869 704, 1017.012 704 C 1020.773 704, 1024 699.633, 1024 694.545 L 1024 690 1028 690 C 1030.200 690, 1032 689.550, 1032 689 C 1032 688.450, 1033.800 688, 1036 688 L 1040 688 1040 684 L 1040 680 1044 680 L 1048 680 1048 676 L 1048 672 1052 672 L 1056 672 1056 668 L 1056 664 1060 664 L 1064 664 1064 660 C 1064 657.059, 1064.409 656, 1065.545 656 C 1066.395 656, 1068.195 654.895, 1069.545 653.545 C 1070.895 652.195, 1072 650.395, 1072 649.545 C 1072 648.409, 1073.059 648, 1076 648 L 1080 648 1080 644 L 1080 640 1084 640 L 1088 640 1088 636 L 1088 632 1092 632 L 1096 632 1096 628 L 1096 624 1100 624 L 1104 624 1104 620 L 1104 616 1108 616 L 1112 616 1112 612 L 1112 608 1116 608 L 1120 608 1120 604 L 1120 600 1124 600 L 1128 600 1128 596 L 1128 592 1132 592 L 1136 592 1136 588 L 1136 584 1140 584 L 1144 584 1144 580 C 1144 576.384, 1144.244 576, 1146.538 576 C 1148.407 576, 1151.430 573.626, 1158 567 C 1162.908 562.050, 1167.398 558, 1167.978 558 C 1169.627 558, 1184 543.213, 1184 541.516 C 1184 540.414, 1185.092 540, 1188 540 C 1190.977 540, 1192 539.596, 1192 538.422 C 1192 537.553, 1193.800 535.114, 1196 533 C 1198.200 530.886, 1200 528.664, 1200 528.062 C 1200 526.676, 1214.614 512, 1215.995 512 C 1216.559 512, 1222.191 506.830, 1228.511 500.511 C 1237.061 491.960, 1240 488.379, 1240 486.511 C 1240 484.388, 1240.463 484, 1243 484 C 1245.333 484, 1246 484.444, 1246 486 C 1246 487.100, 1246.450 488, 1247 488 C 1247.550 488, 1248 486.200, 1248 484 L 1248 480 1252 480 L 1256 480 1256 476 L 1256 472 1260 472 L 1264 472 1264 468 L 1264 464 1268 464 L 1272 464 1272 460 L 1272 456 1276 456 C 1279.908 456, 1280 455.919, 1280 452.486 C 1280 449.409, 1281.058 447.914, 1288.486 440.486 C 1295.914 433.058, 1297.409 432, 1300.486 432 C 1303.919 432, 1304 431.908, 1304 428 L 1304 424 1308 424 L 1312 424 1312 420 L 1312 416 1316 416 L 1320 416 1320 412 L 1320 408 1324 408 L 1328 408 1328 404 L 1328 400 1332 400 L 1336 400 1336 396 L 1336 392 1340 392 L 1344 392 1344 388 L 1344 384 1348 384 C 1351.333 384, 1352 383.667, 1352 382 C 1352 380.667, 1352.667 380, 1354 380 C 1355.333 380, 1356 379.333, 1356 378 C 1356 376.667, 1356.667 376, 1358 376 C 1359.333 376, 1360 375.333, 1360 374 C 1360 372.667, 1360.667 372, 1362 372 C 1363.333 372, 1364 371.333, 1364 370 C 1364 368.667, 1364.667 368, 1366 368 C 1367.333 368, 1368 367.333, 1368 366 C 1368 364.667, 1368.667 364, 1370 364 C 1371.333 364, 1372 363.333, 1372 362 C 1372 360.667, 1372.667 360, 1374 360 C 1375.333 360, 1376 359.333, 1376 358 C 1376 356.667, 1376.667 356, 1378 356 C 1379.333 356, 1380 355.333, 1380 354 C 1380 352.667, 1380.667 352, 1382 352 C 1383.333 352, 1384 351.333, 1384 350 C 1384 348.667, 1384.667 348, 1386 348 C 1387.333 348, 1388 347.333, 1388 346 C 1388 344.667, 1388.667 344, 1390 344 C 1391.333 344, 1392 343.333, 1392 342 C 1392 340.667, 1392.667 340, 1394 340 C 1395.333 340, 1396 339.333, 1396 338 C 1396 336.667, 1396.667 336, 1398 336 C 1399.556 336, 1400 335.333, 1400 333 C 1400 330.167, 1400.222 330, 1404 330 C 1406.200 330, 1408 329.550, 1408 329 C 1408 328.450, 1408.900 328, 1410 328 C 1411.333 328, 1412 327.333, 1412 326 C 1412 324.667, 1412.667 324, 1414 324 C 1415.333 324, 1416 323.333, 1416 322 C 1416 320.863, 1416.667 320, 1417.545 320 C 1419.788 320, 1424 315.440, 1424 313.012 C 1424 310.320, 1430.320 304, 1433.012 304 C 1435.695 304, 1440 299.695, 1440 297.012 C 1440 294.320, 1446.320 288, 1449.012 288 C 1451.440 288, 1456 283.788, 1456 281.545 C 1456 280.409, 1457.059 280, 1460 280 L 1464 280 1464 276 L 1464 272 1468 272 L 1472 272 1472 268 L 1472 264 1476 264 L 1480 264 1480 260 L 1480 256 1484 256 L 1488 256 1488 252 C 1488 248.667, 1488.333 248, 1490 248 C 1491.333 248, 1492 247.333, 1492 246 C 1492 244.667, 1492.667 244, 1494 244 C 1495.333 244, 1496 243.333, 1496 242 C 1496 240.333, 1496.667 240, 1500 240 L 1504 240 1504 236 L 1504 232 1508 232 L 1512 232 1512 228 L 1512 224 1516 224 L 1520 224 1520 220 L 1520 216 1524 216 L 1528 216 1528 212 L 1528 208 1532 208 L 1536 208 1536 204 L 1536 200 1540 200 L 1544 200 1544 196 L 1544 192 1548 192 L 1552 192 1552 188 L 1552 184 1556 184 C 1559.333 184, 1560 183.667, 1560 182 C 1560 180.333, 1560.667 180, 1564 180 C 1567.606 180, 1568 179.753, 1568 177.485 C 1568 175.534, 1573.382 169.595, 1592 151 C 1605.200 137.817, 1616 126.348, 1616 125.515 C 1616 124.414, 1617.093 124, 1620 124 C 1622.923 124, 1624 123.588, 1624 122.471 C 1624 121.629, 1629.400 115.568, 1636 109 C 1642.600 102.432, 1648 96.576, 1648 95.987 C 1648 95.397, 1651.600 91.353, 1656 87 C 1660.400 82.647, 1664 78.391, 1664 77.543 C 1664 76.410, 1665.062 76, 1668 76 C 1671.333 76, 1672 75.667, 1672 74 C 1672 72.333, 1672.667 72, 1676 72 L 1680 72 1680 68 L 1680 64 1684 64 L 1688 64 1688 60 L 1688 56 1692 56 C 1695.914 56, 1696 55.924, 1696 52.457 C 1696 49.355, 1696.995 47.930, 1704 41 C 1708.400 36.647, 1712 32.391, 1712 31.543 C 1712 30.410, 1713.062 30, 1716 30 L 1720 30 1720 26 L 1720 22 1724 22 L 1728 22 1728 18 L 1728 14 1732 14 L 1736 14 1736 10 L 1736 6 1740 6 C 1743.333 6, 1744 5.667, 1744 4 C 1744 2.111, 1744.667 2, 1756 2 C 1767.333 2, 1768 2.111, 1768 4 C 1768 5.667, 1767.333 6, 1764 6 L 1760 6 1760 10 L 1760 14 1756 14 L 1752 14 1752 18 L 1752 22 1748 22 L 1744 22 1744 26 L 1744 30 1740 30 L 1736 30 1736 34 L 1736 38 1732 38 L 1728 38 1728 42 L 1728 46 1724 46 L 1720 46 1720 50 L 1720 54 1716 54 L 1712 54 1712 59 L 1712 64 1708 64 C 1704.667 64, 1704 64.333, 1704 66 C 1704 67.667, 1703.333 68, 1700 68 L 1696 68 1696 73 L 1696 78 1692 78 C 1688.667 78, 1688 78.333, 1688 80 C 1688 81.333, 1687.333 82, 1686 82 C 1684.667 82, 1684 82.667, 1684 84 C 1684 85.333, 1683.333 86, 1682 86 C 1680.444 86, 1680 86.667, 1680 89 C 1680 91.333, 1679.556 92, 1678 92 C 1676.667 92, 1676 92.667, 1676 94 C 1676 95.148, 1675.333 96, 1674.435 96 C 1673.574 96, 1670.679 98.250, 1668 101 C 1665.321 103.750, 1662.426 106, 1661.565 106 C 1660.667 106, 1660 106.852, 1660 108 C 1660 109.333, 1659.333 110, 1658 110 C 1656.667 110, 1656 110.667, 1656 112 C 1656 113.333, 1655.333 114, 1654 114 C 1652.667 114, 1652 114.667, 1652 116 C 1652 117.152, 1651.333 118, 1650.429 118 C 1648.408 118, 1646 120.408, 1646 122.429 C 1646 123.333, 1645.152 124, 1644 124 C 1642.667 124, 1642 124.667, 1642 126 C 1642 127.556, 1641.333 128, 1639 128 C 1636.667 128, 1636 128.444, 1636 130 C 1636 131.333, 1635.333 132, 1634 132 C 1632.667 132, 1632 132.667, 1632 134 C 1632 135.333, 1631.333 136, 1630 136 C 1628.667 136, 1628 136.667, 1628 138 C 1628 139.333, 1627.333 140, 1626 140 C 1624.870 140, 1624 140.667, 1624 141.533 C 1624 144.053, 1617.350 150, 1614.533 150 C 1612.667 150, 1612 150.526, 1612 152 C 1612 153.333, 1611.333 154, 1610 154 C 1608.874 154, 1608 154.667, 1608 155.526 C 1608 157.511, 1599.511 166, 1597.526 166 C 1596.667 166, 1596 166.874, 1596 168 C 1596 169.333, 1595.333 170, 1594 170 C 1592.444 170, 1592 170.667, 1592 173 C 1592 175.833, 1591.778 176, 1588 176 L 1584 176 1584 180 L 1584 184 1580 184 L 1576 184 1576 188 L 1576 192 1572 192 L 1568 192 1568 196 L 1568 200 1564 200 L 1560 200 1560 204 L 1560 208 1556 208 L 1552 208 1552 212 L 1552 216 1548 216 L 1544 216 1544 220 L 1544 224 1540 224 L 1536 224 1536 228 L 1536 232 1532 232 L 1528 232 1528 236 L 1528 240 1524 240 L 1520 240 1520 244 L 1520 248 1516 248 L 1512 248 1512 252 L 1512 256 1508 256 L 1504 256 1504 260 L 1504 264 1500 264 L 1496 264 1496 268 L 1496 272 1492 272 L 1488 272 1488 276 C 1488 279.921, 1487.930 280, 1484.422 280 C 1481.554 280, 1480.080 280.795, 1477 284 C 1474.886 286.200, 1472.669 288, 1472.072 288 C 1470.390 288, 1432 326.794, 1432 328.494 C 1432 329.584, 1430.896 330, 1428 330 C 1424.397 330, 1424 330.249, 1424 332.508 C 1424 334.411, 1420.261 338.755, 1408.508 350.508 C 1399.987 359.029, 1392.543 366, 1391.965 366 C 1391.387 366, 1387.353 369.600, 1383 374 C 1376.070 381.005, 1374.645 382, 1371.543 382 C 1368.076 382, 1368 382.086, 1368 386 L 1368 390 1364 390 L 1360 390 1360 394 L 1360 398 1356 398 L 1352 398 1352 402 L 1352 406 1348 406 L 1344 406 1344 410 L 1344 414 1340 414 L 1336 414 1336 418 L 1336 422 1332 422 L 1328 422 1328 426 L 1328 430 1324 430 L 1320 430 1320 434 L 1320 438 1316 438 L 1312 438 1312 442 L 1312 446 1308 446 L 1304 446 1304 450 L 1304 454 1300 454 L 1296 454 1296 459 L 1296 464 1292 464 L 1288 464 1288 468 L 1288 472 1284 472 L 1280 472 1280 477 L 1280 482 1276 482 C 1272.667 482, 1272 482.333, 1272 484 C 1272 485.667, 1271.333 486, 1268 486 C 1265.072 486, 1264 486.411, 1264 487.533 C 1264 489.524, 1257.524 496, 1255.533 496 C 1254.667 496, 1254 496.870, 1254 498 C 1254 499.333, 1253.333 500, 1252 500 C 1250.667 500, 1250 500.667, 1250 502 C 1250 503.333, 1249.333 504, 1248 504 C 1246.667 504, 1246 504.667, 1246 506 C 1246 507.333, 1245.333 508, 1244 508 C 1242.667 508, 1242 508.667, 1242 510 C 1242 511.333, 1241.333 512, 1240 512 C 1238.667 512, 1238 512.667, 1238 514 C 1238 515.333, 1237.333 516, 1236 516 C 1234.667 516, 1234 516.667, 1234 518 C 1234 519.333, 1233.333 520, 1232 520 C 1230.667 520, 1230 520.667, 1230 522 C 1230 523.333, 1229.333 524, 1228 524 C 1226.667 524, 1226 524.667, 1226 526 C 1226 527.333, 1225.333 528, 1224 528 C 1222.667 528, 1222 528.667, 1222 530 C 1222 531.333, 1221.333 532, 1220 532 C 1218.667 532, 1218 532.667, 1218 534 C 1218 535.100, 1217.550 536, 1217 536 C 1216.450 536, 1216 537.350, 1216 539 C 1216 541.833, 1215.778 542, 1212 542 C 1209.800 542, 1208 542.450, 1208 543 C 1208 543.550, 1207.100 544, 1206 544 C 1204.667 544, 1204 544.667, 1204 546 C 1204 547.333, 1203.333 548, 1202 548 C 1200.667 548, 1200 548.667, 1200 550 C 1200 551.333, 1199.333 552, 1198 552 C 1196.667 552, 1196 552.667, 1196 554 C 1196 555.333, 1195.333 556, 1194 556 C 1192.870 556, 1192 556.667, 1192 557.533 C 1192 560.053, 1185.350 566, 1182.533 566 C 1180.667 566, 1180 566.526, 1180 568 C 1180 569.333, 1179.333 570, 1178 570 C 1176.667 570, 1176 570.667, 1176 572 C 1176 573.333, 1175.333 574, 1174 574 C 1172.667 574, 1172 574.667, 1172 576 C 1172 577.333, 1171.333 578, 1170 578 C 1168.526 578, 1168 578.667, 1168 580.533 C 1168 582.091, 1166.664 584.402, 1164.533 586.533 C 1161.597 589.469, 1160.373 590, 1156.533 590 L 1152 590 1152 595 L 1152 600 1148 600 L 1144 600 1144 604 L 1144 608 1140 608 L 1136 608 1136 612 L 1136 616 1132 616 L 1128 616 1128 620 L 1128 624 1124 624 L 1120 624 1120 628 L 1120 632 1116 632 L 1112 632 1112 636 L 1112 640 1108 640 L 1104 640 1104 644 L 1104 648 1100 648 L 1096 648 1096 652 L 1096 656 1092 656 L 1088 656 1088 660 L 1088 664 1084 664 L 1080 664 1080 668 L 1080 672 1076 672 L 1072 672 1072 676 L 1072 680 1068 680 L 1064 680 1064 684 L 1064 688 1060 688 C 1056.667 688, 1056 688.333, 1056 690 C 1056 691.667, 1055.333 692, 1052 692 C 1048.386 692, 1048 692.244, 1048 694.533 C 1048 697.059, 1042.154 704, 1040.027 704 C 1038.669 704, 1000 742.669, 1000 744.027 C 1000 745.400, 993.370 752, 991.991 752 C 991.399 752, 987.353 755.600, 983 760 C 978.647 764.400, 974.608 768, 974.024 768 C 972.373 768, 960 780.776, 960 782.481 C 960 783.317, 959.310 784, 958.467 784 C 955.947 784, 950 790.650, 950 793.467 C 950 795.615, 949.544 796, 947 796 C 944.667 796, 944 796.444, 944 798 C 944 799.667, 943.333 800, 940 800 L 936 800 936 804 L 936 808 932 808 L 928 808 928 812 L 928 816 924 816 C 920.222 816, 920 816.167, 920 819 C 920 821.833, 919.778 822, 916 822 L 912 822 912 827 L 912 832 908 832 L 904 832 904 836 L 904 840 900 840 C 896.222 840, 896 840.167, 896 843 C 896 845.833, 895.778 846, 892 846 L 888 846 888 850 L 888 854 884 854 L 880 854 880 858 L 880 862 876 862 L 872 862 872 866 L 872 870 868 870 L 864 870 864 874 L 864 878 860 878 L 856 878 856 882 L 856 886 852 886 L 848 886 848 891 L 848 896 844 896 C 840.667 896, 840 896.333, 840 898 C 840 899.333, 839.333 900, 838 900 C 836.667 900, 836 900.667, 836 902 C 836 903.333, 835.333 904, 834 904 C 832.667 904, 832 904.667, 832 906 C 832 907.333, 831.333 908, 830 908 C 828.667 908, 828 908.667, 828 910 C 828 911.333, 827.333 912, 826 912 C 824.900 912, 824 912.450, 824 913 C 824 913.550, 823.100 914, 822 914 C 820.667 914, 820 914.667, 820 916 C 820 917.333, 819.333 918, 818 918 C 816.444 918, 816 918.667, 816 921 C 816 923.333, 815.556 924, 814 924 C 812.667 924, 812 924.667, 812 926 C 812 927.333, 811.333 928, 810 928 C 808.900 928, 808 928.450, 808 929 C 808 929.550, 807.100 930, 806 930 C 804.667 930, 804 930.667, 804 932 C 804 933.333, 803.333 934, 802 934 C 800.667 934, 800 934.667, 800 936 C 800 937.333, 799.333 938, 798 938 C 796.667 938, 796 938.667, 796 940 C 796 941.333, 795.333 942, 794 942 C 792.900 942, 792 942.450, 792 943 C 792 943.550, 790.200 944, 788 944 L 784 944 784 948 C 784 951.333, 783.667 952, 782 952 C 780.667 952, 780 952.667, 780 954 C 780 955.333, 779.333 956, 778 956 C 776.874 956, 776 956.667, 776 957.526 C 776 958.366, 773.987 961.066, 771.526 963.526 C 769.066 965.987, 766.366 968, 765.526 968 C 764.667 968, 764 968.874, 764 970 C 764 971.333, 763.333 972, 762 972 C 760.667 972, 760 972.667, 760 974 C 760 975.166, 759.333 976, 758.401 976 C 757.522 976, 755.541 977.350, 754 979 C 752.459 980.650, 750.478 982, 749.599 982 C 748.667 982, 748 982.834, 748 984 C 748 985.333, 747.333 986, 746 986 C 744.667 986, 744 986.667, 744 988 C 744 989.333, 743.333 990, 742 990 C 740.667 990, 740 990.667, 740 992 C 740 993.333, 739.333 994, 738 994 C 736.444 994, 736 994.667, 736 997 C 736 999.833, 735.778 1000, 732 1000 L 728 1000 728 1004 L 728 1008 724 1008 L 720 1008 720 1012 L 720 1016 716 1016 L 712 1016 712 1020 L 712 1024 708 1024 L 704 1024 704 1028 L 704 1032 700 1032 L 696 1032 696 1036 L 696 1040 692 1040 L 688 1040 688 1044 L 688 1048 684 1048 L 680 1048 680 1052 L 680 1056 676 1056 L 672 1056 672 1060 L 672 1064 668 1064 L 664 1064 664 1068 L 664 1072 660 1072 C 656.222 1072, 656 1072.167, 656 1075 C 656 1077.333, 655.556 1078, 654 1078 C 652.900 1078, 652 1078.450, 652 1079 C 652 1079.666, 864 1080, 1286 1080 L 1920 1080 1920 540 L 1920 0 1820.734 -0 L 1721.467 -0 1710 11.500 M 1158 549.059 C 1158 549.641, 1158.450 549.840, 1159 549.500 C 1159.550 549.160, 1160 548.684, 1160 548.441 C 1160 548.198, 1159.550 548, 1159 548 C 1158.450 548, 1158 548.477, 1158 549.059" stroke="none" fill="black" fill-rule="evenodd"/>
	<path fill-opacity="0.205" d="M 1916 323.500 C 1914.134 325.425, 1911.986 327, 1911.227 327 C 1909.706 327, 1904 332.319, 1904 333.737 C 1904 334.584, 1887.060 352, 1886.237 352 C 1885.344 352, 1880 357.932, 1880 358.923 C 1880 359.515, 1879.515 360, 1878.923 360 C 1877.661 360, 1872 365.461, 1872 366.679 C 1872 367.137, 1870.591 368.135, 1868.869 368.898 C 1867.147 369.660, 1865.520 371.120, 1865.253 372.142 C 1864.985 373.164, 1864.335 374, 1863.806 374 C 1862.305 374, 1857.346 379.335, 1856.567 381.789 C 1856.181 383.005, 1855.221 384, 1854.433 384 C 1853.645 384, 1853 384.450, 1853 385 C 1853 385.550, 1852.100 386, 1851 386 C 1849.597 386, 1848.995 386.672, 1848.985 388.250 C 1848.972 390.069, 1848.784 390.213, 1848 389 C 1847.216 387.787, 1847.028 387.931, 1847.015 389.750 C 1847.005 391.328, 1846.403 392, 1845 392 C 1843.667 392, 1843 392.667, 1843 394 C 1843 395.111, 1842.333 396, 1841.500 396 C 1840.667 396, 1840 396.889, 1840 398 C 1840 399.333, 1839.333 400, 1838 400 C 1836.667 400, 1836 400.667, 1836 402 C 1836 403.667, 1835.333 404, 1832 404 C 1828.667 404, 1828 404.333, 1828 406 C 1828 407.333, 1827.333 408, 1826 408 C 1824.333 408, 1824 408.667, 1824 412 L 1824 416 1820 416 C 1816.571 416, 1816 416.308, 1816 418.154 C 1816 419.430, 1814.369 421.704, 1812 423.732 C 1809.377 425.977, 1808 427.989, 1808 429.578 C 1808 431.561, 1807.495 432, 1805.216 432 C 1801.361 432, 1792 441.408, 1792 445.281 C 1792 447.593, 1791.580 448, 1789.196 448 C 1787.305 448, 1785.289 449.139, 1783 451.500 C 1781.134 453.425, 1778.769 455, 1777.745 455 C 1776.720 455, 1776.150 455.434, 1776.477 455.964 C 1777.068 456.919, 1766.010 468.038, 1740 492.641 C 1732.575 499.665, 1719.495 512.294, 1710.932 520.706 C 1702.370 529.118, 1695.023 536, 1694.605 536 C 1693.804 536, 1688 541.529, 1688 542.291 C 1688 542.873, 1678.873 552, 1678.291 552 C 1677.359 552, 1672 557.897, 1672 558.923 C 1672 559.515, 1671.515 560, 1670.923 560 C 1669.524 560, 1664 565.524, 1664 566.923 C 1664 567.515, 1663.515 568, 1662.923 568 C 1662.331 568, 1660.531 569.315, 1658.923 570.923 C 1657.315 572.531, 1656 574.331, 1656 574.923 C 1656 575.515, 1655.341 576, 1654.535 576 C 1653.730 576, 1652.605 576.870, 1652.036 577.932 C 1651.467 578.995, 1650.102 580.150, 1649.001 580.500 C 1647.900 580.849, 1647 581.779, 1647 582.567 C 1647 583.493, 1645.937 584, 1644 584 C 1641.167 584, 1641 584.222, 1641 588 C 1641 591.798, 1640.845 592, 1637.929 592 C 1634.183 592, 1632 593.998, 1632 597.429 C 1632 599.619, 1631.556 600, 1629 600 C 1626.183 600, 1626 600.237, 1626 603.871 L 1626 607.742 1621 608.406 C 1616.003 609.069, 1615.615 609.480, 1615.961 613.750 C 1616.122 615.745, 1615.681 616, 1612.072 616 L 1608 616 1608 620 L 1608 624 1604 624 C 1600.272 624, 1600 624.193, 1600 626.839 C 1600 628.920, 1599.312 629.993, 1597.425 630.852 C 1596.009 631.497, 1594.433 631.768, 1593.923 631.453 C 1593.413 631.137, 1592.595 631.935, 1592.105 633.224 C 1590.977 636.192, 1563.363 663, 1561.435 663 C 1560.646 663, 1560 663.634, 1560 664.409 C 1560 665.503, 1524.101 700.482, 1482.500 739.923 C 1480.850 741.487, 1473.916 748.444, 1467.091 755.383 C 1460.266 762.323, 1454.494 768, 1454.264 768 C 1453.351 768, 1448 773.914, 1448 774.923 C 1448 775.515, 1447.515 776, 1446.923 776 C 1445.524 776, 1440 781.524, 1440 782.923 C 1440 783.515, 1439.515 784, 1438.923 784 C 1437.524 784, 1432 789.524, 1432 790.923 C 1432 791.515, 1430.200 792, 1428 792 L 1424 792 1424 796 C 1424 799.333, 1423.667 800, 1422 800 C 1420.889 800, 1420 800.667, 1420 801.500 C 1420 802.333, 1419.111 803, 1418 803 C 1416.667 803, 1416 803.667, 1416 805 C 1416 806.333, 1415.333 807, 1414 807 C 1412.667 807, 1412 807.667, 1412 809 C 1412 810.333, 1411.333 811, 1410 811 C 1408.533 811, 1408 811.667, 1408 813.500 C 1408 815.555, 1407.510 816.004, 1405.250 816.023 C 1403.169 816.041, 1401.223 817.481, 1397.250 821.945 C 1394.362 825.189, 1392 828.779, 1392 829.922 C 1392 831.472, 1391.365 832, 1389.500 832 C 1387.667 832, 1387 832.533, 1387 834 C 1387 835.333, 1386.333 836, 1385 836 C 1383.667 836, 1383 836.667, 1383 838 C 1383 839.333, 1382.333 840, 1381 840 C 1379.667 840, 1379 840.667, 1379 842 C 1379 843.560, 1378.333 844, 1375.969 844 C 1374.290 844, 1372.697 844.626, 1372.399 845.403 C 1371.698 847.229, 1359.229 859.698, 1357.403 860.399 C 1356.631 860.695, 1356 861.550, 1356 862.300 C 1356 863.049, 1354.820 864.294, 1353.378 865.065 C 1351.936 865.837, 1344.327 873.113, 1336.470 881.234 C 1328.613 889.355, 1321.865 896, 1321.474 896 C 1321.084 896, 1309.850 906.575, 1296.510 919.500 C 1283.171 932.425, 1271.524 943, 1270.628 943 C 1269.733 943, 1269 943.434, 1269 943.966 C 1269 944.497, 1267.650 946.312, 1266 948 C 1264.350 949.688, 1263 951.728, 1263 952.534 C 1263 953.341, 1262.507 954, 1261.905 954 C 1260.842 954, 1249.942 964.353, 1228.125 986.082 C 1222.281 991.902, 1216.263 997.466, 1214.750 998.447 C 1213.237 999.428, 1212 1000.853, 1212 1001.615 C 1212 1002.487, 1210.889 1003, 1209 1003 C 1206.467 1003, 1206 1003.389, 1206 1005.500 C 1206 1007.106, 1205.438 1008, 1204.429 1008 C 1202.068 1008, 1200 1010.535, 1200 1013.429 C 1200 1015.048, 1199.444 1016, 1198.500 1016 C 1197.667 1016, 1197 1016.889, 1197 1018 C 1197 1019.667, 1196.333 1020, 1193 1020 C 1190.291 1020, 1189 1020.440, 1189 1021.362 C 1189 1022.112, 1184.397 1027.174, 1178.772 1032.612 C 1173.146 1038.051, 1161.796 1049.138, 1153.549 1057.250 C 1145.303 1065.362, 1138.093 1072.038, 1137.528 1072.085 C 1136.962 1072.131, 1134.985 1073.931, 1133.134 1076.085 L 1129.768 1080 1524.884 1080 L 1920 1080 1920 700 C 1920 491, 1919.863 320, 1919.696 320 C 1919.529 320, 1917.866 321.575, 1916 323.500" stroke="none" fill="black" fill-rule="evenodd"/>
</svg>