<svg xmlns="http://www.w3.org/2000/svg" width="1920" height="1080" viewBox="0 0 1920 1080" version="1.1">
	<path fill-opacity="0.847" d="M 0 418 L 0 836 8 836 C 13.212 836, 16 836.388, 16 837.114 C 16 837.916, 20.474 838.024, 32 837.500 C 43.180 836.991, 48 837.095, 48 837.845 C 48 838.603, 78.694 838.929, 152.250 838.953 C 209.588 838.971, 291.375 839.428, 334 839.967 C 376.625 840.507, 441.313 840.960, 477.750 840.974 C 518.324 840.990, 544 841.364, 544 841.938 C 544 842.517, 587.968 842.885, 658.750 842.898 C 815.091 842.928, 992 844.126, 992 845.155 C 992 845.620, 1046 846, 1112 846 C 1178 846, 1232 846.377, 1232 846.838 C 1232 847.299, 1307.263 847.971, 1399.250 848.332 C 1491.237 848.693, 1609.025 849.414, 1661 849.934 C 1712.975 850.454, 1792.440 851.183, 1837.590 851.555 L 1919.680 852.230 1920.336 839.365 C 1920.697 832.289, 1920.994 640.538, 1920.996 413.250 L 1921 0 960.500 0 L 0 0 0 418 M 0.495 418.500 C 0.495 648.400, 0.610 742.301, 0.750 627.168 C 0.890 512.036, 0.890 323.936, 0.750 209.168 C 0.610 94.401, 0.495 188.600, 0.495 418.500 M 948.400 521.690 C 938.443 528.145, 934.322 542.101, 939.768 550.917 C 944.455 558.503, 949.142 561.647, 957.173 562.591 C 963.914 563.383, 970.636 560.342, 972.226 555.782 C 972.868 553.940, 973.743 553.071, 974.619 553.407 C 975.379 553.699, 976 553.501, 976 552.969 C 976 552.436, 975.438 551.986, 974.750 551.970 C 974.037 551.952, 974.235 551.511, 975.208 550.943 C 976.148 550.395, 976.679 549.327, 976.388 548.569 C 976.030 547.637, 976.935 546.956, 979.179 546.469 C 983.234 545.589, 983.965 544.567, 983.985 539.750 C 983.997 536.662, 983.647 536, 982 536 C 980.900 536, 980 536.450, 980 537 C 980 537.550, 979.025 538, 977.833 538 C 976.642 538, 975.948 538.281, 976.291 538.624 C 976.634 538.967, 975.922 540.053, 974.707 541.037 C 971.619 543.541, 970.231 541.960, 970.231 535.941 C 970.231 532.089, 969.743 530.512, 968.115 529.100 C 965.800 527.092, 965.262 522.466, 967.250 521.659 C 970.019 520.536, 965.294 519.031, 959 519.031 C 953.659 519.032, 951.769 519.506, 948.400 521.690 M 980.079 548.583 C 980.127 549.748, 980.364 549.985, 980.683 549.188 C 980.972 548.466, 980.936 547.603, 980.604 547.271 C 980.272 546.939, 980.036 547.529, 980.079 548.583" stroke="none" fill="black" fill-rule="evenodd"/>
	<path fill-opacity="0.231" d="M 0 321 L 0 642 8 642 L 16 642 16 645 C 16 647.833, 16.222 648, 20 648 L 24 648 24 652 L 24 656 12 656 L 0 656 0 659.346 L 0 662.693 12.157 663.346 C 18.843 663.706, 27.843 664, 32.157 664 L 40 664 40 660 L 40 656 36 656 L 32 656 32 650 L 32 644 40 644 C 47.333 644, 48 644.167, 48 646 C 48 647.667, 48.667 648, 52 648 L 56 648 56 652 L 56 656 52 656 L 48 656 48 660 L 48 664 60 664 L 72 664 72 660 L 72 656 76 656 L 80 656 80 660 L 80 664 92 664 L 104 664 104 660 L 104 656 108 656 L 112 656 112 660 L 112 664 124 664 L 136 664 136 660 L 136 656 140 656 L 144 656 144 660.500 L 144 665 152 665 C 156.407 665, 160 665.428, 160 665.954 C 160 666.555, 222.026 666.923, 327.689 666.950 C 419.917 666.973, 495.630 667.376, 495.939 667.846 C 496.247 668.315, 579.070 668.978, 679.990 669.319 C 804.572 669.739, 863.590 670.269, 863.823 670.969 C 864.056 671.668, 897.727 672.014, 968.333 672.044 C 1025.625 672.068, 1115.475 672.507, 1168 673.020 C 1220.525 673.532, 1323.575 674.389, 1397 674.924 C 1470.425 675.459, 1564.138 676.207, 1605.250 676.586 L 1680 677.275 1680 674.637 L 1680 672 1408 672 L 1136 672 1136 668 L 1136 664 1192 664 L 1248 664 1248 661 L 1248 658 1336 658 L 1424 658 1424 661 L 1424 664 1576 664 L 1728 664 1728 661 L 1728 658 1736 658 L 1744 658 1744 661 L 1744 664 1792 664 L 1840 664 1840 661 L 1840 658 1848 658 L 1856 658 1856 661 L 1856 664 1884 664 L 1912 664 1912 668 L 1912 672 1812 672 L 1712 672 1712 674.846 L 1712 677.693 1724.157 678.346 C 1730.843 678.706, 1777.576 679, 1828.008 679 L 1919.703 679 1920.294 667.250 C 1920.620 660.788, 1920.921 508.012, 1920.965 327.750 L 1921.043 0 960.522 0 L 0 0 0 321 M 0.494 321.500 C 0.494 498.050, 0.609 570.424, 0.750 482.331 C 0.891 394.238, 0.891 249.788, 0.750 161.331 C 0.609 72.874, 0.494 144.950, 0.494 321.500 M 951 519.622 C 943.967 522.884, 938.132 529.718, 937.440 535.500 C 937.308 536.600, 937.066 537.950, 936.902 538.500 C 936.265 540.632, 938.250 549.385, 940.130 552.731 C 943.266 558.315, 945.905 560.407, 953.158 563.058 C 956.081 564.126, 959.184 565, 960.054 565 C 963.611 565, 971.864 561.856, 974.347 559.555 C 975.806 558.202, 977 557.362, 977 557.687 C 977 559.172, 981.781 551.032, 982.438 548.427 C 985.833 534.979, 981.963 525.755, 970.326 519.561 C 964.088 516.240, 958.250 516.258, 951 519.622 M 272 647 C 272 647.656, 250 648, 208 648 L 144 648 144 652 L 144 656 152 656 L 160 656 160 659 L 160 662 216 662 C 271.333 662, 272 661.976, 272 660 C 272 658.167, 272.667 658, 280 658 L 288 658 288 661 L 288 664 296 664 C 300.667 664, 304 663.583, 304 663 C 304 662.350, 318 662, 344 662 C 370 662, 384 662.350, 384 663 C 384 663.655, 403.333 664, 440 664 C 476.667 664, 496 663.655, 496 663 C 496 662.375, 502 662, 512 662 C 522 662, 528 662.375, 528 663 C 528 663.661, 566 664, 640 664 C 714 664, 752 664.339, 752 665 C 752 665.663, 808.667 666, 920 666 C 1031.333 666, 1088 665.663, 1088 665 C 1088 664.361, 1096.667 664, 1112 664 L 1136 664 1136 660 L 1136 656 1112 656 C 1096.667 656, 1088 656.361, 1088 657 C 1088 657.660, 1054 658, 988 658 L 888 658 888 654 L 888 650 884 650 C 880.222 650, 880 650.167, 880 653 L 880 656 816 656 L 752 656 752 653 L 752 650 632 650 L 512 650 512 653 L 512 656 480 656 L 448 656 448 652 L 448 648 416 648 C 395.333 648, 384 647.646, 384 647 C 384 646.345, 364.667 646, 328 646 C 291.333 646, 272 646.345, 272 647 M 272 655 C 272 655.583, 275.333 656, 280 656 C 284.667 656, 288 655.583, 288 655 C 288 654.417, 284.667 654, 280 654 C 275.333 654, 272 654.417, 272 655 M 0.252 659.500 C 0.263 661.700, 0.468 662.482, 0.707 661.238 C 0.946 659.994, 0.937 658.194, 0.687 657.238 C 0.437 656.282, 0.241 657.300, 0.252 659.500" stroke="none" fill="black" fill-rule="evenodd"/>
	<path fill-opacity="0.300" d="M 0 223.842 L 0 447.684 38.750 448.335 C 60.063 448.693, 124.862 449.287, 182.750 449.653 C 240.637 450.020, 288 450.624, 288 450.995 C 288 451.366, 367.056 451.961, 463.680 452.317 C 561.248 452.677, 639.614 453.352, 639.930 453.834 C 640.246 454.316, 719.571 455.051, 818 455.484 C 915.625 455.913, 1027.225 456.621, 1066 457.057 C 1104.775 457.493, 1215.700 458.311, 1312.500 458.874 C 1409.300 459.437, 1497.725 460.378, 1509 460.965 C 1520.791 461.579, 1571.664 462.025, 1628.750 462.016 C 1694.261 462.005, 1728 462.340, 1728 463 C 1728 463.660, 1760.615 464, 1823.846 464 L 1919.691 464 1920.342 451.250 C 1920.699 444.238, 1920.994 339.838, 1920.996 219.250 L 1921 0 960.500 0 L 0 0 0 223.842 M 0.491 224.500 C 0.491 347.700, 0.608 397.951, 0.750 336.170 C 0.892 274.388, 0.892 173.588, 0.750 112.170 C 0.608 50.751, 0.491 101.300, 0.491 224.500 M 963.269 513.693 C 964.242 513.947, 965.592 513.930, 966.269 513.656 C 966.946 513.382, 966.150 513.175, 964.500 513.195 C 962.850 513.215, 962.296 513.439, 963.269 513.693 M 953.500 515 C 952.754 516.207, 956.692 516.207, 959.500 515 C 961.112 514.307, 960.784 514.127, 957.809 514.070 C 955.779 514.032, 953.840 514.450, 953.500 515" stroke="none" fill="black" fill-rule="evenodd"/>
	<path fill-opacity="0.429" d="M 0 116.406 L 0 232.812 32 232.253 C 55.817 231.837, 64 231.989, 64 232.847 C 64 233.622, 66.627 234, 72 234 C 76.667 234, 80 233.583, 80 233 C 80 232.346, 98 232, 132 232 C 177.556 232, 184 232.186, 184 233.500 C 184 234.811, 189.768 235.005, 229.750 235.040 C 276.291 235.080, 404.186 236.324, 494.250 237.613 L 544 238.325 544 232.163 L 544 226 552 226 L 560 226 560 232 L 560 238 616 238 C 652.667 238, 672 238.345, 672 239 C 672 239.665, 792.667 240, 1032 240 L 1392 240 1392 242.339 L 1392 244.678 1495.750 245.420 C 1552.813 245.829, 1667.675 246.689, 1751 247.331 C 1834.325 247.974, 1906.438 248.354, 1911.250 248.177 L 1920 247.853 1920 243.927 L 1920 240 1904 240 C 1894 240, 1888 239.625, 1888 239 C 1888 238.375, 1893.955 238, 1903.864 238 L 1919.728 238 1920.364 233.360 C 1920.714 230.809, 1921 177.259, 1921 114.360 L 1921 0 960.500 0 L 0 0 0 116.406 M 0.484 117 C 0.484 181.075, 0.603 207.288, 0.750 175.250 C 0.896 143.213, 0.896 90.788, 0.750 58.750 C 0.603 26.713, 0.484 52.925, 0.484 117 M 768 221.500 L 768 224 784 224 L 800 224 800 221.500 L 800 219 784 219 L 768 219 768 221.500 M 80 223 C 80 223.583, 83.333 224, 88 224 C 92.667 224, 96 223.583, 96 223 C 96 222.417, 92.667 222, 88 222 C 83.333 222, 80 222.417, 80 223 M 1280 226 C 1280 227.989, 1280.667 228, 1400 228 C 1519.333 228, 1520 228.011, 1520 230 C 1520 231.667, 1520.667 232, 1524 232 L 1528 232 1528 228 L 1528 224 1524 224 C 1521.800 224, 1520 224.450, 1520 225 C 1520 225.656, 1498 226, 1456 226 C 1414 226, 1392 225.656, 1392 225 C 1392 224.345, 1372.667 224, 1336 224 C 1280.667 224, 1280 224.024, 1280 226 M 1536 226.500 C 1536 227.708, 1537.556 228, 1544 228 C 1550.444 228, 1552 227.708, 1552 226.500 C 1552 225.292, 1550.444 225, 1544 225 C 1537.556 225, 1536 225.292, 1536 226.500 M 1744 229 L 1744 232 1816 232 C 1863.333 232, 1888 231.657, 1888 231 C 1888 230.375, 1894 230, 1904 230 C 1912.800 230, 1920 229.622, 1920 229.160 C 1920 227.932, 1878.518 227, 1823.838 227 C 1781.982 227, 1776 227.188, 1776 228.500 C 1776 229.708, 1774.444 230, 1768 230 C 1760.667 230, 1760 229.833, 1760 228 C 1760 226.167, 1759.333 226, 1752 226 L 1744 226 1744 229 M 784 230 C 784 231.667, 784.667 232, 788 232 C 791.333 232, 792 232.333, 792 234 C 792 235.667, 792.667 236, 796 236 L 800 236 800 232 L 800 228 792 228 C 784.667 228, 784 228.167, 784 230 M 1632 229 C 1632 229.583, 1635.333 230, 1640 230 C 1644.667 230, 1648 230.417, 1648 231 C 1648 231.583, 1651.333 232, 1656 232 C 1663.333 232, 1664 231.833, 1664 230 C 1664 228.083, 1663.333 228, 1648 228 C 1638 228, 1632 228.375, 1632 229 M 864 234 C 864 235.944, 864.667 236, 888 236 C 911.333 236, 912 235.944, 912 234 C 912 232.056, 911.333 232, 888 232 C 864.667 232, 864 232.056, 864 234 M 1632 239 C 1632 239.625, 1638 240, 1648 240 C 1658 240, 1664 239.625, 1664 239 C 1664 238.375, 1658 238, 1648 238 C 1638 238, 1632 238.375, 1632 239" stroke="none" fill="black" fill-rule="evenodd"/>
</svg>