<svg xmlns="http://www.w3.org/2000/svg" width="1920" height="1080" viewBox="0 0 1920 1080" version="1.1">
	<path fill-opacity="0.894" d="M -0 540.001 L -0 1080.001 960.250 1079.751 L 1920.500 1079.500 1920.751 539.750 L 1921.002 0 960.501 0 L 0 0 -0 540.001 M 0.496 540.500 C 0.496 837.500, 0.610 958.851, 0.750 810.168 C 0.890 661.485, 0.890 418.485, 0.750 270.168 C 0.610 121.851, 0.496 243.500, 0.496 540.500 M 957.465 519.952 C 956.346 520.405, 954.829 521.502, 954.093 522.388 C 953.357 523.275, 952.099 524, 951.298 524 C 950.187 524, 950.004 524.741, 950.526 527.119 C 950.946 529.029, 950.711 531.171, 949.922 532.646 C 948.705 534.919, 949.007 535.421, 955.266 541.528 C 958.914 545.087, 962.259 547.984, 962.700 547.964 C 964.245 547.895, 968.897 543.460, 971.566 539.513 L 974.262 535.526 972.381 532.044 C 971.346 530.129, 968.925 527.508, 967 526.221 C 965.075 524.933, 963.125 522.782, 962.667 521.440 C 961.791 518.876, 960.811 518.596, 957.465 519.952 M 957.534 524.963 C 956.557 526.042, 956.010 527.584, 956.319 528.390 C 956.628 529.195, 956.233 530.392, 955.441 531.049 C 953.146 532.954, 953.719 534.644, 958.143 539.025 L 962.286 543.126 966.143 539.360 C 968.264 537.289, 970 535.258, 970 534.847 C 970 533.359, 963.807 524.967, 961.992 523.996 C 959.557 522.692, 959.596 522.684, 957.534 524.963" stroke="none" fill="black" fill-rule="evenodd"/>
	<path fill-opacity="0.112" d="M 0 540.001 L 0 1080.001 960.250 1079.751 L 1920.500 1079.500 1920.751 539.750 L 1921.002 0 960.501 0 L 0 0 0 540.001 M 0.496 540.500 C 0.496 837.500, 0.610 958.851, 0.750 810.168 C 0.890 661.485, 0.890 418.485, 0.750 270.168 C 0.610 121.851, 0.496 243.500, 0.496 540.500 M 955.500 516.229 C 953.300 516.698, 950.487 516.830, 949.250 516.522 C 947.447 516.073, 947 516.384, 947 518.087 C 947 519.255, 946.373 522.751, 945.606 525.856 C 942.850 537.011, 942.834 538.987, 945.495 539.998 C 946.806 540.496, 948.369 541.821, 948.969 542.942 C 949.569 544.062, 951.396 545.671, 953.030 546.515 C 954.663 547.360, 956 548.687, 956 549.464 C 956 551.103, 964.840 552.799, 965.861 551.357 C 966.212 550.860, 967.716 549.680, 969.203 548.734 C 970.952 547.622, 972.138 545.779, 972.563 543.516 C 972.924 541.592, 973.588 540.245, 974.038 540.523 C 975.281 541.292, 976.375 536.989, 976.079 532.500 C 975.823 528.635, 970.651 519, 968.832 519 C 968.374 519, 967.998 518.212, 967.996 517.250 C 967.993 515.868, 967.099 515.487, 963.746 515.438 C 961.411 515.404, 957.700 515.760, 955.500 516.229 M 958.607 526.100 C 958.362 526.870, 957.963 528.737, 957.720 530.250 C 957.362 532.472, 957.657 533, 959.255 533 C 960.759 533, 961.104 533.493, 960.695 535.057 C 959.988 537.764, 964.599 540.246, 966.056 537.943 C 968.234 534.502, 967.181 531.831, 961.776 527.090 C 959.693 525.263, 958.948 525.030, 958.607 526.100 M 444.500 946 C 444.160 946.550, 442.784 947, 441.441 947 C 440.098 947, 439 947.475, 439 948.056 C 439 949.489, 432.870 955, 431.277 955 C 430.575 955, 430 955.450, 430 956 C 430 956.550, 429.325 957, 428.500 957 C 427.675 957, 426.988 957.563, 426.972 958.250 C 426.917 960.722, 417.640 968, 414.544 968 C 413.705 968, 412.002 969.569, 410.759 971.488 C 409.517 973.406, 407.705 974.981, 406.732 974.988 C 405.760 974.994, 403.435 976.575, 401.566 978.500 C 399.696 980.425, 397.909 982, 397.595 982 C 396.373 982, 393.130 985.401, 393.610 986.178 C 393.890 986.630, 393.402 987, 392.528 987 C 391.653 987, 390.675 987.683, 390.355 988.518 C 390.035 989.352, 389.261 989.974, 388.636 989.899 C 385.900 989.571, 385.183 990.209, 384.561 993.528 C 384.197 995.468, 383.472 996.792, 382.949 996.469 C 382.427 996.146, 382 996.411, 382 997.059 C 382 999.214, 374.324 1005.999, 371.868 1006.015 C 370.174 1006.026, 369.883 1006.273, 370.845 1006.883 C 371.846 1007.517, 371.556 1007.895, 369.714 1008.357 C 366.529 1009.156, 364.206 1015.893, 363.905 1025.207 C 363.697 1031.631, 363.574 1031.935, 360.946 1032.512 C 358.186 1033.118, 357.041 1035.225, 357.014 1039.750 C 357.002 1041.711, 357.514 1042, 361 1042 C 363.200 1042, 365 1042.450, 365 1043 C 365 1043.550, 365.354 1044, 365.787 1044 C 366.220 1044, 366.672 1042.537, 366.791 1040.750 C 367.110 1035.972, 368.917 1033.177, 372.144 1032.468 C 374.094 1032.040, 375.202 1031.042, 375.633 1029.325 C 376.035 1027.726, 376.530 1027.239, 376.993 1027.989 C 377.512 1028.829, 377.896 1028.713, 378.329 1027.584 C 378.664 1026.713, 379.653 1026, 380.528 1026 C 381.402 1026, 381.840 1025.550, 381.500 1025 C 381.160 1024.450, 381.548 1024, 382.362 1024 C 383.192 1024, 384.130 1022.684, 384.500 1020.999 C 384.927 1019.056, 385.934 1017.804, 387.357 1017.447 C 388.565 1017.143, 390.442 1015.570, 391.527 1013.950 C 392.612 1012.331, 394.042 1011.004, 394.705 1011.003 C 395.367 1011.001, 396.220 1009.343, 396.600 1007.317 C 396.980 1005.292, 398.272 1002.704, 399.470 1001.567 C 400.668 1000.430, 401.939 998.712, 402.293 997.750 C 402.662 996.747, 403.964 996, 405.341 996 C 407.381 996, 407.843 995.381, 408.400 991.901 C 409.054 987.812, 410.899 985, 412.929 985 C 413.518 985, 414 984.310, 414 983.466 C 414 982.623, 415.575 981.003, 417.500 979.867 C 419.955 978.419, 421 977.085, 421 975.401 C 421 973.569, 421.540 973, 423.278 973 C 424.531 973, 426.326 972.100, 427.268 971 C 428.210 969.900, 429.612 969, 430.383 969 C 432.005 969, 433 966.877, 433 963.418 C 433 961.338, 433.472 961, 436.378 961 C 439.930 961, 442.649 958.859, 441.485 956.976 C 441.089 956.335, 441.687 955.633, 442.899 955.316 C 444.055 955.014, 445 954.348, 445 953.836 C 445 953.324, 446.125 951.862, 447.500 950.588 C 450.387 947.912, 450.654 946.465, 448.418 945.607 C 446.188 944.751, 445.211 944.849, 444.500 946 M 1225.678 946.656 C 1224.482 947.852, 1224.954 951.045, 1226.410 951.604 C 1227.185 951.901, 1228.092 953.231, 1228.425 954.558 C 1228.867 956.317, 1229.637 956.907, 1231.265 956.735 C 1233.385 956.512, 1233.515 956.900, 1233.792 964.250 C 1234.009 970.014, 1234.436 972, 1235.458 972 C 1237.282 972, 1243.079 979.395, 1243.273 981.969 C 1243.379 983.382, 1244.131 984, 1245.744 984 C 1247.019 984, 1248.323 984.679, 1248.642 985.509 C 1249.306 987.240, 1261.256 1000, 1262.213 1000 C 1263.169 1000, 1269 1006.027, 1269 1007.016 C 1269 1007.490, 1271.029 1008.182, 1273.510 1008.554 C 1277.127 1009.096, 1278.136 1009.695, 1278.609 1011.579 C 1278.934 1012.871, 1280.059 1014.201, 1281.110 1014.535 C 1282.162 1014.869, 1283.704 1016.460, 1284.537 1018.071 C 1285.370 1019.682, 1286.588 1021, 1287.244 1021 C 1288.644 1021, 1293 1025.827, 1293 1027.379 C 1293 1027.966, 1295.610 1030.934, 1298.801 1033.973 C 1301.991 1037.013, 1304.913 1040.316, 1305.294 1041.313 C 1305.674 1042.311, 1306.434 1042.850, 1306.981 1042.511 C 1307.556 1042.156, 1307.725 1042.552, 1307.382 1043.448 C 1306.972 1044.514, 1307.379 1045, 1308.682 1045 C 1311.126 1045, 1318.117 1048.549, 1317.294 1049.372 C 1316.949 1049.718, 1317.431 1050, 1318.365 1050 C 1319.299 1050, 1320.315 1050.658, 1320.624 1051.462 C 1320.932 1052.266, 1322.015 1053.187, 1323.029 1053.509 C 1324.043 1053.831, 1325.014 1055.086, 1325.187 1056.297 C 1325.359 1057.509, 1325.950 1058.522, 1326.500 1058.549 C 1329.306 1058.687, 1332.810 1060.630, 1335.499 1063.538 C 1338.319 1066.587, 1338.816 1066.752, 1343.750 1066.264 C 1348.145 1065.830, 1349 1066.011, 1349 1067.373 C 1349 1070.959, 1350.769 1068.705, 1351.364 1064.360 C 1352.645 1055.013, 1352.401 1054.241, 1346.202 1048.042 C 1341.656 1043.496, 1339.510 1042.093, 1336.263 1041.544 C 1333.475 1041.073, 1332.284 1040.423, 1332.618 1039.554 C 1332.895 1038.831, 1332.208 1038.026, 1331.057 1037.725 C 1329.925 1037.429, 1329 1036.647, 1329 1035.987 C 1329 1035.326, 1329.675 1035.045, 1330.500 1035.362 C 1331.373 1035.697, 1332 1035.378, 1332 1034.599 C 1332 1033.847, 1330.480 1033.015, 1328.528 1032.698 C 1325.036 1032.132, 1319.487 1028.687, 1313 1023.058 C 1307.429 1018.225, 1307.241 1018.093, 1306.686 1018.647 C 1306.397 1018.937, 1305.361 1017.897, 1304.384 1016.337 C 1302.001 1012.531, 1297.905 1009.080, 1295.719 1009.036 C 1294.739 1009.016, 1293.658 1008.212, 1293.316 1007.250 C 1292.636 1005.334, 1272.318 985, 1271.084 985 C 1270.665 985, 1268.888 983.425, 1267.136 981.500 C 1265.385 979.575, 1263.287 978, 1262.476 978 C 1261.664 978, 1261 977.379, 1261 976.621 C 1261 974.774, 1253.731 967.367, 1251.098 966.531 C 1249.947 966.166, 1248.730 964.772, 1248.394 963.433 C 1248.058 962.095, 1247.153 961, 1246.382 961 C 1245.611 961, 1244.210 960.100, 1243.268 959 C 1242.326 957.900, 1241.165 957, 1240.688 957 C 1239.299 957, 1236.070 952.663, 1236.033 950.750 C 1236.014 949.744, 1235.235 949, 1234.200 949 C 1233.210 949, 1231.973 948.601, 1231.450 948.112 C 1230.030 946.786, 1226.451 945.883, 1225.678 946.656 M 358.445 1043.765 C 356.734 1044.957, 356.828 1053, 358.553 1053 C 359.623 1053, 360 1051.696, 360 1048 C 360 1045.250, 359.887 1043.007, 359.750 1043.015 C 359.613 1043.024, 359.025 1043.361, 358.445 1043.765 M 352.682 1048.652 C 351.412 1049.922, 351.991 1053, 353.500 1053 C 354.325 1053, 354.993 1052.438, 354.985 1051.750 C 354.962 1049.888, 353.463 1047.871, 352.682 1048.652 M 346.597 1060.844 C 346.251 1061.404, 346.455 1062.163, 347.050 1062.531 C 348.588 1063.481, 349.580 1062.180, 348.296 1060.896 C 347.578 1060.178, 347.019 1060.161, 346.597 1060.844 M 1314.669 1064.421 C 1313.416 1067.685, 1313.942 1069, 1316.500 1069 C 1317.875 1069, 1319 1068.550, 1319 1068 C 1319 1067.450, 1318.535 1067, 1317.968 1067 C 1317.400 1067, 1316.576 1066.028, 1316.136 1064.840 C 1315.425 1062.916, 1315.264 1062.871, 1314.669 1064.421" stroke="none" fill="black" fill-rule="evenodd"/>
	<path fill-opacity="0.750" d="M 0 540 L 0 1080 162 1080 L 324 1080 324 1077.871 C 324 1075.866, 327.246 1071.506, 334.034 1064.392 C 335.665 1062.683, 337 1060.369, 337 1059.251 C 337 1057.930, 337.853 1057.003, 339.433 1056.606 C 340.772 1056.270, 342.181 1055.004, 342.566 1053.792 C 342.951 1052.580, 344.948 1049.094, 347.006 1046.044 C 349.063 1042.995, 351.049 1038.813, 351.418 1036.750 C 351.788 1034.688, 352.475 1033, 352.944 1033 C 353.962 1033, 357.748 1025.968, 358.457 1022.760 C 359.924 1016.130, 361.680 1011.289, 363.244 1009.561 C 364.210 1008.495, 365 1007.056, 365 1006.363 C 365 1005.670, 366.173 1003.842, 367.608 1002.302 C 371.420 998.206, 381.418 986.897, 382 986.021 C 382.275 985.608, 383.595 984.927, 384.934 984.509 C 387.736 983.633, 397 974.855, 397 973.075 C 397 972.419, 397.453 972.162, 398.007 972.504 C 398.561 972.847, 399.274 972.451, 399.591 971.624 C 399.908 970.798, 401.479 969.834, 403.084 969.482 C 404.688 969.129, 406 968.484, 406 968.048 C 406 967.612, 407.728 966.979, 409.839 966.642 C 411.950 966.304, 414.899 964.897, 416.390 963.514 C 417.882 962.131, 419.530 961, 420.052 961 C 420.573 961, 421 960.293, 421 959.429 C 421 957.888, 423.262 955, 424.469 955 C 425.455 955, 431.426 950.615, 432.300 949.250 C 432.740 948.563, 434.052 948, 435.216 948 C 436.381 948, 437.045 947.712, 436.693 947.359 C 436.340 947.007, 437.958 945.510, 440.288 944.033 C 442.617 942.555, 445.821 940.144, 447.408 938.673 C 448.994 937.203, 451.126 936, 452.146 936 C 453.166 936, 454 935.559, 454 935.019 C 454 934.480, 455.092 933.764, 456.428 933.429 C 457.763 933.094, 459.099 932.185, 459.396 931.410 C 459.694 930.634, 460.688 930, 461.605 930 C 463.013 930, 463.173 930.721, 462.636 934.640 C 462.286 937.191, 462 939.881, 462 940.617 C 462 941.353, 457.275 946.732, 451.500 952.570 C 445.725 958.408, 440.988 963.706, 440.973 964.343 C 440.958 964.979, 439.111 966.625, 436.867 968 C 434.623 969.375, 431.807 971.400, 430.607 972.500 C 429.408 973.600, 427.206 975.298, 425.713 976.273 C 424.221 977.248, 423 978.470, 423 978.989 C 423 979.508, 419.850 983.051, 416 986.863 C 412.150 990.675, 409 994.290, 409 994.897 C 409 995.974, 408.403 996.737, 402.750 1002.883 C 401.237 1004.527, 400 1006.581, 400 1007.446 C 400 1008.311, 399.100 1009.790, 398 1010.732 C 396.900 1011.674, 396 1013.046, 396 1013.781 C 396 1014.516, 395.601 1014.872, 395.114 1014.570 C 394.626 1014.269, 393.993 1014.917, 393.707 1016.011 C 393.421 1017.105, 392.449 1018, 391.546 1018 C 389.692 1018, 385.080 1022.815, 385.032 1024.800 C 384.980 1026.937, 382.033 1032, 380.841 1032 C 379.298 1032, 370.001 1041.596, 369.995 1043.194 C 369.993 1043.912, 368.700 1045.876, 367.123 1047.559 C 365.546 1049.241, 363.921 1051.674, 363.511 1052.965 C 362.799 1055.209, 361.245 1056.913, 354.453 1062.898 C 349.448 1067.308, 348 1070.073, 348 1075.223 L 348 1080 837.174 1080 L 1326.349 1080 1323.939 1077.435 C 1322.614 1076.025, 1320.062 1074.174, 1318.268 1073.323 C 1316.473 1072.471, 1313.434 1070.363, 1311.513 1068.637 C 1309.592 1066.912, 1306.901 1064.530, 1305.532 1063.345 C 1304.164 1062.160, 1302.512 1060.023, 1301.861 1058.595 C 1301.211 1057.168, 1299.851 1056, 1298.839 1056 C 1296.681 1056, 1296.565 1055.157, 1298.392 1052.750 C 1299.275 1051.586, 1301.088 1051, 1303.801 1051 C 1306.046 1051, 1308.168 1050.537, 1308.518 1049.970 C 1308.868 1049.404, 1307.883 1047.443, 1306.327 1045.613 C 1304.772 1043.783, 1302.717 1041.321, 1301.760 1040.143 C 1300.803 1038.964, 1299.340 1038, 1298.510 1038 C 1297.551 1038, 1297 1037.053, 1297 1035.406 C 1297 1033.718, 1296.350 1032.643, 1295.139 1032.326 C 1294.115 1032.058, 1292.317 1030.129, 1291.142 1028.039 C 1288.096 1022.620, 1278.060 1014, 1274.797 1014 C 1273.808 1014, 1273 1013.318, 1273 1012.484 C 1273 1011.650, 1271.425 1010.217, 1269.500 1009.299 C 1267.575 1008.381, 1266 1007.068, 1266 1006.382 C 1266 1005.696, 1265.085 1004.845, 1263.968 1004.490 C 1261.816 1003.807, 1257 999.734, 1257 998.598 C 1257 998.228, 1255.025 996.006, 1252.611 993.660 C 1250.198 991.314, 1248.058 988.538, 1247.856 987.491 C 1247.654 986.444, 1246.405 985.332, 1245.080 985.019 C 1243.582 984.665, 1241.899 982.945, 1240.633 980.475 C 1239.512 978.289, 1238.237 976.350, 1237.798 976.167 C 1237.359 975.983, 1237 975.248, 1237 974.533 C 1237 973.818, 1236.100 972.998, 1235 972.710 C 1233.366 972.283, 1233 971.346, 1233 967.594 C 1233 964.578, 1232.399 962.375, 1231.250 961.181 C 1226.033 955.758, 1221.976 946.751, 1224.148 945.409 C 1225.538 944.549, 1232 945.896, 1232 947.045 C 1232 947.570, 1232.914 948, 1234.031 948 C 1235.149 948, 1236.361 948.788, 1236.725 949.750 C 1237.437 951.628, 1239.499 954, 1240.420 954 C 1240.730 954, 1244.344 957.339, 1248.452 961.420 C 1252.559 965.501, 1256.815 969.124, 1257.909 969.471 C 1259.003 969.818, 1260.211 971.090, 1260.594 972.297 C 1261.410 974.866, 1264.080 977.069, 1265.393 976.257 C 1265.897 975.946, 1266.012 976.172, 1265.648 976.760 C 1265.285 977.348, 1265.336 977.980, 1265.762 978.165 C 1266.188 978.349, 1267.541 979.798, 1268.768 981.385 C 1269.996 982.972, 1271 983.778, 1271 983.178 C 1271 982.577, 1274.780 985.891, 1279.400 990.543 C 1284.020 995.194, 1288.195 999, 1288.678 999 C 1289.161 999, 1290.326 999.900, 1291.268 1001 C 1292.210 1002.100, 1293.660 1003, 1294.490 1003 C 1295.416 1003, 1296 1003.926, 1296 1005.393 C 1296 1007.832, 1297.646 1009, 1301.082 1009 C 1302.137 1009, 1303 1009.469, 1303 1010.042 C 1303 1012.581, 1314.675 1021, 1318.196 1021 C 1319.267 1021, 1320 1021.732, 1320 1022.800 C 1320 1024.902, 1321.844 1027, 1323.692 1027 C 1324.403 1027, 1326.188 1028.013, 1327.658 1029.250 C 1341.211 1040.660, 1348 1046.912, 1348 1047.984 C 1348 1048.332, 1349.789 1049.940, 1351.976 1051.558 C 1355.899 1054.460, 1355.953 1054.588, 1355.976 1061.027 C 1356.006 1069.230, 1354.176 1072.417, 1349.968 1071.493 C 1348.408 1071.150, 1345.752 1070.831, 1344.066 1070.783 C 1342.380 1070.735, 1341 1070.314, 1341 1069.848 C 1341 1068.857, 1332.646 1068.687, 1331.675 1069.658 C 1331.313 1070.020, 1331.519 1070.920, 1332.131 1071.658 C 1332.744 1072.396, 1332.880 1073, 1332.434 1073 C 1331.988 1073, 1332.608 1073.918, 1333.811 1075.039 C 1335.015 1076.160, 1336 1077.736, 1336 1078.541 C 1336 1079.822, 1372.333 1079.972, 1628.250 1079.752 L 1920.500 1079.500 1920.751 539.750 L 1921.002 0 1671.370 0 L 1421.738 0 1422.339 3.703 C 1422.942 7.416, 1422.065 22.399, 1421.291 21.624 C 1420.502 20.836, 1415.857 26.245, 1415.716 28.116 C 1415.627 29.307, 1414.815 30, 1413.509 30 C 1411.379 30, 1407.719 33.474, 1407.356 35.842 C 1407.045 37.867, 1406.595 38.081, 1401.608 38.569 L 1397 39.021 1397.027 35.760 C 1397.057 32.188, 1402.190 25.709, 1405.932 24.522 C 1407.069 24.161, 1408 23.258, 1408 22.516 C 1408 21.774, 1408.563 20.938, 1409.250 20.659 C 1410.200 20.274, 1410.151 19.909, 1409.046 19.141 C 1407.888 18.336, 1407.825 17.659, 1408.733 15.815 C 1409.361 14.542, 1410.188 12.375, 1410.572 11 C 1410.956 9.625, 1411.594 8.275, 1411.991 8 C 1412.387 7.725, 1413.022 5.813, 1413.401 3.750 L 1414.091 0 707.045 0 L 0 0 0 540 M 0.496 540.500 C 0.496 837.500, 0.610 958.851, 0.750 810.168 C 0.890 661.485, 0.890 418.485, 0.750 270.168 C 0.610 121.851, 0.496 243.500, 0.496 540.500 M 1332.298 229.967 C 1332.016 231.049, 1330.933 232.204, 1329.892 232.534 C 1328.299 233.040, 1327.069 236, 1328.453 236 C 1329.717 236, 1334.689 233.285, 1336.236 231.750 C 1338.716 229.290, 1338.431 228, 1335.406 228 C 1333.668 228, 1332.643 228.649, 1332.298 229.967 M 946.448 516.750 C 946.124 518.263, 945.252 521.525, 944.512 524 C 943.772 526.475, 942.862 531.008, 942.490 534.074 C 941.841 539.423, 941.928 539.722, 944.657 541.489 C 946.221 542.502, 948.400 544.127, 949.500 545.101 C 950.600 546.075, 952.761 547.987, 954.302 549.349 C 955.843 550.711, 959.378 552.371, 962.158 553.038 C 966.996 554.198, 967.310 554.145, 969.497 551.787 C 970.754 550.431, 972.476 547.980, 973.325 546.338 C 974.174 544.697, 975.573 542.770, 976.434 542.055 C 977.532 541.143, 978 538.989, 978 534.842 C 978 529.169, 976.750 525.827, 973.263 522.179 C 972.568 521.452, 972 520.505, 972 520.075 C 972 519.644, 970.896 518.101, 969.548 516.646 C 967.469 514.403, 966.259 514, 961.595 514 C 958.569 514, 954.936 514.528, 953.520 515.173 C 951.551 516.070, 950.670 516.070, 949.773 515.173 C 947.953 513.353, 947.089 513.763, 946.448 516.750 M 1449.667 840.667 C 1449.300 841.033, 1449 842.383, 1449 843.667 C 1449 847.362, 1452.658 846.783, 1453.213 843 C 1453.552 840.695, 1453.269 840, 1451.993 840 C 1451.080 840, 1450.033 840.300, 1449.667 840.667" stroke="none" fill="black" fill-rule="evenodd"/>
	<path fill-opacity="0.667" d="M 0 540 L 0 1080 159.531 1080 C 286.301 1080, 319.136 1079.743, 319.417 1078.750 C 319.612 1078.063, 320.281 1075.622, 320.903 1073.326 C 321.836 1069.885, 322.560 1069.036, 325.017 1068.496 C 326.658 1068.136, 328 1067.392, 328 1066.844 C 328 1065.537, 333.551 1060, 334.862 1060 C 335.420 1060, 336.181 1057.975, 336.552 1055.500 C 336.923 1053.025, 337.615 1051, 338.089 1051 C 338.562 1051, 339.879 1048.960, 341.015 1046.466 C 342.151 1043.972, 343.466 1042.170, 343.936 1042.460 C 345.032 1043.138, 346 1040.610, 346 1037.072 C 346 1033.879, 348.711 1027.876, 350.690 1026.689 C 351.434 1026.242, 351.779 1025.452, 351.458 1024.931 C 351.136 1024.411, 351.539 1023.730, 352.353 1023.418 C 353.246 1023.075, 354.114 1020.807, 354.541 1017.699 C 355.265 1012.441, 357.595 1007.632, 359 1008.500 C 359.429 1008.765, 360.075 1007.411, 360.436 1005.491 C 360.796 1003.571, 361.484 1002, 361.966 1002 C 362.447 1002, 363.138 1000.650, 363.500 999 C 363.862 997.350, 364.573 996, 365.079 996 C 365.586 996, 366 995.321, 366 994.490 C 366 993.660, 366.900 992.210, 368 991.268 C 369.100 990.326, 370 989.173, 370 988.706 C 370 986.800, 373.303 984.769, 377.268 984.237 C 380.049 983.864, 382.446 982.708, 384.318 980.836 C 385.878 979.276, 387.745 978, 388.469 978 C 389.192 978, 390.066 976.875, 390.411 975.500 C 390.756 974.125, 391.725 973, 392.566 973 C 393.406 973, 394.860 971.637, 395.797 969.972 C 396.733 968.307, 398.480 966.691, 399.678 966.382 C 400.875 966.073, 402.099 965.185, 402.396 964.410 C 402.694 963.634, 403.653 963, 404.528 963 C 405.402 963, 405.872 962.602, 405.571 962.115 C 405.270 961.629, 407.944 960.918, 411.512 960.536 C 416.259 960.027, 418 959.444, 418 958.361 C 418 957.548, 418.395 957.126, 418.878 957.425 C 419.361 957.723, 420.025 956.625, 420.353 954.984 C 420.705 953.227, 421.581 952, 422.485 952 C 423.329 952, 424.790 951.100, 425.732 950 C 426.674 948.900, 428.421 948, 429.614 948 C 431.078 948, 431.982 947.209, 432.394 945.567 C 432.730 944.228, 433.945 942.835, 435.095 942.470 C 436.244 942.105, 439.194 939.825, 441.651 937.403 C 444.108 934.982, 446.711 933, 447.436 933 C 448.162 933, 449.315 932.325, 450 931.500 C 450.685 930.675, 452.279 930, 453.543 930 C 455.285 930, 456.001 929.272, 456.502 926.991 C 456.865 925.336, 457.576 924.238, 458.081 924.550 C 458.587 924.863, 459 924.416, 459 923.559 C 459 922.702, 459.689 922, 460.531 922 C 461.374 922, 462.322 921.325, 462.638 920.500 C 462.955 919.675, 464.286 919, 465.595 919 C 467.600 919, 468.077 919.632, 468.616 923 C 468.968 925.200, 469.648 927, 470.128 927 C 470.608 927, 471 927.927, 471 929.059 C 471 930.191, 470.568 930.851, 470.039 930.524 C 469.501 930.191, 468.784 932.144, 468.410 934.965 C 468.043 937.734, 467.399 940, 466.980 940 C 466.560 940, 465.934 941.125, 465.589 942.500 C 465.244 943.875, 464.520 945, 463.981 945 C 463.441 945, 463 945.639, 463 946.421 C 463 947.202, 461.650 948.138, 460 948.500 C 457.502 949.049, 457 949.647, 457 952.079 C 457 954.068, 456.498 955, 455.429 955 C 453.607 955, 451.673 956.748, 450.725 959.250 C 450.343 960.260, 449.027 961, 447.613 961 C 443.679 961, 442 962.053, 442 964.521 C 442 967.131, 435.479 974.414, 433.975 973.485 C 433.439 973.153, 433 973.584, 433 974.441 C 433 975.298, 432.334 976, 431.519 976 C 430.705 976, 429.755 977.129, 429.408 978.509 C 429.018 980.065, 427.835 981.254, 426.294 981.641 C 424.533 982.083, 424.186 982.497, 425.103 983.064 C 426.011 983.625, 425.609 984.060, 423.757 984.525 C 421.942 984.980, 420.928 986.050, 420.511 987.950 C 420.177 989.470, 418.801 991.304, 417.452 992.026 C 416.103 992.747, 415 993.937, 415 994.669 C 415 995.401, 414.388 996, 413.640 996 C 412.892 996, 411.430 997.217, 410.390 998.705 C 409.351 1000.193, 407.262 1002.624, 405.750 1004.106 C 404.237 1005.589, 403 1007.091, 403 1007.443 C 403 1008.099, 401.776 1009.729, 398.852 1012.970 C 397.945 1013.974, 396.900 1016.181, 396.528 1017.874 C 396.156 1019.566, 395.548 1020.908, 395.176 1020.857 C 392.637 1020.505, 391.170 1021.490, 389 1025 C 387.640 1027.200, 386.184 1029, 385.764 1029 C 385.344 1029, 385 1029.904, 385 1031.010 C 385 1032.115, 384.123 1033.770, 383.051 1034.688 C 381.979 1035.606, 381.301 1036.678, 381.544 1037.072 C 381.787 1037.465, 380.853 1038.071, 379.468 1038.419 C 375.971 1039.296, 373.055 1042.477, 372.304 1046.232 C 371.955 1047.975, 370.698 1050.324, 369.510 1051.451 C 368.323 1052.578, 367.061 1054.287, 366.707 1055.250 C 366.353 1056.213, 365.138 1057, 364.007 1057 C 362.725 1057, 361.587 1057.957, 360.985 1059.540 C 360.454 1060.936, 358.450 1063.695, 356.532 1065.670 C 354.613 1067.646, 353.266 1069.622, 353.538 1070.062 C 353.810 1070.502, 353.575 1071.144, 353.016 1071.490 C 352.457 1071.835, 352 1073.891, 352 1076.059 L 352 1080 493 1080 L 634 1080 634 1077 C 634 1075.175, 634.519 1074, 635.326 1074 C 636.055 1074, 637.708 1072.875, 639 1071.500 C 640.292 1070.125, 641.901 1069, 642.576 1069 C 643.972 1069, 646 1074.125, 646 1077.649 L 646 1080 980.500 1080 L 1315 1080 1315 1077.469 C 1315 1075.976, 1314.282 1074.666, 1313.250 1074.277 C 1312.288 1073.913, 1310.228 1072.352, 1308.673 1070.808 C 1307.118 1069.264, 1305.255 1068, 1304.531 1068 C 1303.808 1068, 1302.936 1066.882, 1302.593 1065.515 C 1302.219 1064.023, 1301.020 1062.792, 1299.594 1062.434 C 1297.932 1062.017, 1297.029 1060.893, 1296.590 1058.698 C 1296.244 1056.971, 1294.620 1054.333, 1292.981 1052.835 C 1289.491 1049.648, 1289.155 1046.280, 1292 1043 C 1293.100 1041.732, 1294 1040.061, 1294 1039.288 C 1294 1038.515, 1294.450 1038.160, 1295 1038.500 C 1295.583 1038.861, 1296 1037.844, 1296 1036.059 C 1296 1032.849, 1294.621 1031.939, 1293.638 1034.500 C 1292.703 1036.936, 1291.208 1036.221, 1290.500 1033 C 1290.138 1031.350, 1289.427 1030, 1288.921 1030 C 1288.414 1030, 1288 1029.311, 1288 1028.469 C 1288 1027.626, 1287.366 1026.694, 1286.590 1026.396 C 1285.815 1026.099, 1284.908 1024.770, 1284.575 1023.443 C 1284.208 1021.981, 1282.991 1020.785, 1281.485 1020.407 C 1280.118 1020.064, 1279 1019.418, 1279 1018.971 C 1279 1018.524, 1277.670 1017.867, 1276.045 1017.510 C 1274.420 1017.153, 1272.830 1016.041, 1272.512 1015.038 C 1272.194 1014.036, 1271.049 1012.984, 1269.967 1012.702 C 1268.885 1012.419, 1268 1011.470, 1268 1010.594 C 1268 1009.560, 1267.121 1009, 1265.500 1009 C 1264.045 1009, 1263 1008.425, 1263 1007.625 C 1263 1006.869, 1261.697 1005.989, 1260.104 1005.671 C 1257.963 1005.243, 1256.726 1004.055, 1255.354 1001.111 C 1254.291 998.829, 1252.587 996.893, 1251.361 996.574 C 1250.184 996.268, 1248.964 994.994, 1248.650 993.743 C 1248.312 992.397, 1246.807 990.988, 1244.961 990.291 C 1243.246 989.644, 1241.601 988.189, 1241.305 987.057 C 1241.009 985.926, 1240.369 985, 1239.883 985 C 1239.398 985, 1239 984.293, 1239 983.429 C 1239 982.564, 1238.325 981.182, 1237.500 980.357 C 1236.675 979.532, 1236 977.764, 1236 976.429 C 1236 974.919, 1235.423 974, 1234.475 974 C 1232.736 974, 1231.011 970.148, 1230.977 966.185 C 1230.963 964.550, 1229.594 961.990, 1227.477 959.640 C 1225.565 957.516, 1224 954.966, 1224 953.973 C 1224 952.979, 1223.482 951.994, 1222.848 951.783 C 1222.214 951.571, 1221.161 949.291, 1220.507 946.716 C 1219.432 942.485, 1219.491 941.979, 1221.115 941.464 C 1223.149 940.818, 1231 942.905, 1231 944.092 C 1231 944.518, 1232.238 945.010, 1233.750 945.184 C 1235.263 945.358, 1236.399 946.029, 1236.275 946.676 C 1236.151 947.323, 1237.389 948.146, 1239.026 948.506 C 1241.014 948.942, 1242.196 949.934, 1242.588 951.493 C 1242.923 952.829, 1244.176 954.078, 1245.520 954.416 C 1246.811 954.740, 1248.159 955.926, 1248.517 957.052 C 1249.356 959.696, 1255.304 965.644, 1257.948 966.483 C 1259.074 966.841, 1260.260 968.189, 1260.584 969.480 C 1260.928 970.848, 1262.174 972.078, 1263.571 972.429 C 1264.989 972.784, 1266.216 974.011, 1266.571 975.429 C 1266.927 976.846, 1268.154 978.073, 1269.571 978.429 C 1270.989 978.784, 1272.216 980.011, 1272.571 981.429 C 1272.927 982.846, 1274.154 984.073, 1275.571 984.429 C 1276.989 984.784, 1278.216 986.011, 1278.571 987.429 C 1278.927 988.846, 1280.154 990.073, 1281.571 990.429 C 1283.020 990.792, 1284.217 992.014, 1284.593 993.515 C 1285.078 995.445, 1285.863 996, 1288.108 996 C 1289.912 996, 1291 996.524, 1291 997.392 C 1291 998.157, 1292.118 999.064, 1293.485 999.407 C 1295.136 999.821, 1296.170 1000.948, 1296.568 1002.765 C 1297.642 1007.669, 1297.904 1008, 1300.719 1008.014 C 1305.551 1008.037, 1308.001 1009.155, 1308.619 1011.619 C 1309.144 1013.709, 1310.688 1014.534, 1313.278 1014.109 C 1313.706 1014.039, 1314.355 1014.773, 1314.722 1015.741 C 1315.673 1018.252, 1317.605 1020, 1319.429 1020 C 1320.293 1020, 1321 1020.473, 1321 1021.052 C 1321 1021.631, 1322.349 1022.574, 1323.999 1023.149 C 1325.648 1023.724, 1326.747 1024.601, 1326.440 1025.097 C 1326.133 1025.594, 1326.418 1026, 1327.073 1026 C 1327.728 1026, 1329.749 1027.575, 1331.565 1029.500 C 1333.380 1031.425, 1335.822 1033, 1336.992 1033 C 1338.165 1033, 1338.839 1033.452, 1338.496 1034.007 C 1338.153 1034.561, 1338.669 1035.320, 1339.642 1035.693 C 1342.798 1036.904, 1345 1039.392, 1345 1041.747 C 1345 1043.506, 1345.709 1044.192, 1348 1044.650 C 1349.650 1044.980, 1351 1045.869, 1351 1046.625 C 1351 1047.381, 1351.675 1048, 1352.500 1048 C 1353.325 1048, 1354 1048.450, 1354 1049 C 1354 1049.550, 1354.482 1050, 1355.071 1050 C 1357.523 1050, 1359.222 1053.356, 1359.757 1059.257 C 1360.366 1065.971, 1361.361 1067.634, 1365.088 1068.160 C 1367.763 1068.537, 1368.751 1070.635, 1368.900 1076.252 L 1369 1080.004 1644.750 1079.752 L 1920.500 1079.500 1920.751 539.750 L 1921.002 0 1676.001 0 L 1431 0 1431 10.135 C 1431 19.716, 1430.860 20.400, 1428.448 22.635 C 1427.045 23.936, 1425.294 25, 1424.557 25 C 1423.820 25, 1422.936 26.118, 1422.593 27.485 C 1422.208 29.018, 1421.018 30.208, 1419.485 30.593 C 1418.118 30.936, 1417 31.618, 1417 32.108 C 1417 32.599, 1416.139 33, 1415.087 33 C 1414.034 33, 1411.222 35.035, 1408.837 37.523 C 1403.260 43.340, 1398.835 44.323, 1394.609 40.684 C 1391.997 38.434, 1391.769 37.746, 1392.242 33.543 C 1392.569 30.643, 1393.469 28.359, 1394.633 27.477 C 1395.660 26.700, 1396.147 26.049, 1395.716 26.032 C 1395.284 26.014, 1396.312 24.650, 1398 23 C 1399.688 21.350, 1400.603 20, 1400.034 20 C 1399.466 20, 1399 19.325, 1399 18.500 C 1399 17.675, 1399.430 17, 1399.955 17 C 1400.480 17, 1401.199 15.456, 1401.553 13.569 C 1401.907 11.682, 1402.827 9.896, 1403.598 9.601 C 1404.515 9.249, 1405 7.496, 1405 4.531 L 1405 0 702.500 0 L 0 0 0 540 M 0.496 540.500 C 0.496 837.500, 0.610 958.851, 0.750 810.168 C 0.890 661.485, 0.890 418.485, 0.750 270.168 C 0.610 121.851, 0.496 243.500, 0.496 540.500 M 1332 226.433 C 1332 227.221, 1330.987 228.181, 1329.750 228.567 C 1328.513 228.954, 1327.169 229.771, 1326.765 230.385 C 1325.869 231.746, 1325.780 236.262, 1326.607 238.418 C 1327.532 240.828, 1331.978 240.316, 1334.588 237.500 C 1335.862 236.125, 1337.376 235, 1337.952 235 C 1338.529 235, 1339 234.298, 1339 233.441 C 1339 232.584, 1339.450 232.160, 1340 232.500 C 1340.550 232.840, 1341 232.244, 1341 231.176 C 1341 230.073, 1341.866 229.007, 1343.004 228.709 C 1344.341 228.360, 1344.805 227.655, 1344.397 226.593 C 1343.558 224.405, 1332 224.256, 1332 226.433 M 1293.639 489.694 C 1292.444 490.889, 1292.994 493, 1294.500 493 C 1295.325 493, 1296 492.352, 1296 491.559 C 1296 489.888, 1294.573 488.761, 1293.639 489.694 M 958 512 C 958 512.550, 955.615 513, 952.700 513 C 946.862 513, 945 514.166, 945 517.822 C 945 519.814, 944.745 520.033, 943.564 519.053 C 942.498 518.168, 941.596 518.146, 940.064 518.966 C 937.351 520.418, 937.306 524, 940 524 C 941.667 524, 942 524.667, 942 528 C 942 530.200, 941.550 532, 941 532 C 940.450 532, 940.014 533.688, 940.032 535.750 C 940.065 539.612, 941.853 543, 943.860 543 C 944.487 543, 945 543.381, 945 543.847 C 945 545.534, 948.678 548.881, 951.237 549.523 C 952.677 549.885, 954.099 550.815, 954.396 551.590 C 954.738 552.481, 956.422 553, 958.969 553 C 962.554 553, 963 553.265, 963 555.393 C 963 558.627, 965.340 559.307, 968.344 556.944 C 969.703 555.875, 971.307 555, 971.908 555 C 972.508 555, 972.947 554.663, 972.882 554.250 C 972.446 551.493, 973.215 549, 974.500 549 C 975.325 549, 975.887 548.604, 975.750 548.120 C 975.612 547.637, 976.807 546.019, 978.405 544.525 C 980.523 542.544, 980.969 541.599, 980.051 541.032 C 979.102 540.445, 979.064 539.749, 979.897 538.193 C 981.273 535.622, 981.333 532, 980 532 C 979.450 532, 979 530.457, 979 528.571 C 979 526.686, 978.347 524.490, 977.549 523.692 C 976.752 522.894, 975.816 521.175, 975.471 519.871 C 974.713 517.010, 968.819 513, 965.372 513 C 963.967 513, 963.151 512.564, 963.500 512 C 963.861 511.417, 962.844 511, 961.059 511 C 959.377 511, 958 511.450, 958 512 M 979.079 534.583 C 979.127 535.748, 979.364 535.985, 979.683 535.188 C 979.972 534.466, 979.936 533.603, 979.604 533.271 C 979.272 532.939, 979.036 533.529, 979.079 534.583 M 842 626.441 C 842 627.848, 842.450 629, 843 629 C 843.550 629, 844 628.564, 844 628.031 C 844 627.499, 844.736 627.345, 845.636 627.691 C 846.762 628.123, 847.126 627.878, 846.803 626.909 C 846.545 626.134, 845.921 625.493, 845.417 625.485 C 844.913 625.476, 843.938 625.112, 843.250 624.676 C 842.369 624.116, 842 624.637, 842 626.441 M 836.636 629.506 C 835.060 630.328, 833.148 631, 832.386 631 C 831.624 631, 831 631.450, 831 632 C 831 632.550, 830.132 633, 829.071 633 C 828.011 633, 826.527 633.616, 825.775 634.368 C 825.022 635.121, 823.464 636.035, 822.311 636.401 C 820.183 637.077, 818.619 640.574, 819.678 642.288 C 820.469 643.567, 830.321 642.538, 830.791 641.127 C 830.998 640.507, 831.539 640, 831.994 640 C 832.448 640, 834.661 638.795, 836.910 637.322 C 840.339 635.078, 841 634.107, 841 631.322 C 841 627.566, 840.641 627.417, 836.636 629.506 M 1191.293 800.144 C 1191.598 802.423, 1192.272 804.561, 1192.789 804.894 C 1193.307 805.227, 1194.046 806.511, 1194.432 807.748 C 1194.839 809.053, 1196.258 810.270, 1197.817 810.652 C 1199.292 811.013, 1200.730 811.653, 1201.010 812.075 C 1201.291 812.496, 1202.753 813.151, 1204.260 813.529 C 1207.182 814.263, 1207.527 813.567, 1206.373 809.261 C 1206.043 808.030, 1205.374 807.269, 1204.886 807.570 C 1204.399 807.872, 1204 807.402, 1204 806.528 C 1204 805.653, 1203.213 804.645, 1202.250 804.287 C 1201.287 803.930, 1198.865 801.919, 1196.866 799.818 C 1192.038 794.745, 1190.580 794.830, 1191.293 800.144 M 1448.223 836.557 C 1447 837.413, 1446 838.725, 1446 839.473 C 1446 840.221, 1445.563 840.983, 1445.029 841.167 C 1443.514 841.687, 1443.273 846.546, 1444.778 846.241 C 1445.481 846.098, 1446.316 846.661, 1446.635 847.491 C 1447.247 849.085, 1452 849.632, 1452 848.108 C 1452 847.618, 1453.095 846.942, 1454.433 846.606 C 1457.715 845.782, 1458.528 842.631, 1456.539 838.441 C 1454.709 834.584, 1451.936 833.956, 1448.223 836.557 M 1343.573 1077.872 C 1341.784 1078.594, 1341.772 1078.699, 1343.405 1079.325 C 1346.587 1080.546, 1354.207 1080.123, 1353.756 1078.750 C 1353.282 1077.310, 1346.426 1076.719, 1343.573 1077.872" stroke="none" fill="black" fill-rule="evenodd"/>
</svg>