<svg xmlns="http://www.w3.org/2000/svg" width="1920" height="1080" viewBox="0 0 1920 1080" version="1.1">
	<path fill-opacity="0.341" d="M -0 540.001 L -0 1080.001 960.250 1079.751 L 1920.500 1079.500 1920.751 539.750 L 1921.002 0 960.501 0 L 0 0 -0 540.001 M 0.496 540.500 C 0.496 837.500, 0.610 958.851, 0.750 810.168 C 0.890 661.485, 0.890 418.485, 0.750 270.168 C 0.610 121.851, 0.496 243.500, 0.496 540.500 M 684 375.089 C 679.875 375.527, 667.653 376.556, 656.840 377.376 C 640.115 378.645, 636.531 379.208, 632.840 381.148 C 628.958 383.188, 626.496 383.508, 609.500 384.180 C 599.050 384.593, 588.475 385.169, 586 385.461 C 583.525 385.752, 572.950 386.687, 562.500 387.538 C 534.021 389.856, 531.537 390.411, 526.332 395.616 C 523.949 397.998, 522 400.339, 522 400.819 C 522 401.298, 522.900 402.505, 524 403.500 C 525.100 404.495, 526 406.085, 526 407.033 C 526 407.980, 526.627 409.275, 527.392 409.911 C 528.158 410.546, 529.379 412.514, 530.106 414.283 C 530.833 416.052, 532.395 418.934, 533.577 420.687 C 534.759 422.441, 536.018 426.081, 536.376 428.778 C 536.734 431.474, 538.086 435.890, 539.382 438.590 C 540.677 441.291, 542.506 446.200, 543.446 449.500 C 544.386 452.800, 545.941 456.854, 546.901 458.508 C 547.861 460.163, 549.337 463.538, 550.179 466.008 C 554.433 478.483, 576.122 521.444, 582.627 530.280 C 585.115 533.659, 587.786 537.946, 588.563 539.805 C 589.340 541.664, 592.160 545.956, 594.830 549.343 C 597.500 552.729, 601.376 558.415, 603.444 561.977 C 605.512 565.539, 608.034 569.036, 609.049 569.747 C 610.064 570.458, 611.901 572.830, 613.131 575.020 C 615.664 579.526, 616.060 579.696, 618.291 577.231 C 620.211 575.109, 622.108 549.373, 620.614 545.717 C 620.115 544.498, 619.497 517.850, 619.240 486.500 L 618.772 429.500 620.920 427.565 C 622.985 425.703, 623.247 425.694, 627.784 427.320 C 630.378 428.249, 633.521 429.008, 634.769 429.005 C 637.933 428.998, 646.673 433.882, 651.792 438.517 C 656.652 442.918, 660.466 445.349, 670.500 450.442 C 674.350 452.396, 678.267 454.544, 679.204 455.214 C 681.311 456.720, 691.360 454.889, 693.976 452.522 C 694.901 451.685, 696.324 451, 697.138 451 C 697.952 451, 699.491 450.339, 700.559 449.532 C 701.626 448.724, 703.235 448.049, 704.134 448.032 C 705.032 448.014, 707.393 446.200, 709.381 444 C 711.369 441.800, 713.338 440, 713.758 440 C 714.178 440, 716.317 438.433, 718.511 436.519 C 725.558 430.368, 732.670 430.558, 745.768 437.246 C 750.316 439.568, 755.266 442.541, 756.768 443.852 C 758.271 445.163, 761.413 447.067, 763.750 448.082 C 766.087 449.098, 768 450.323, 768 450.804 C 768 451.286, 769.800 452.274, 772 453 C 774.200 453.726, 776 454.698, 776 455.160 C 776 455.622, 776.680 456, 777.511 456 C 778.342 456, 780.929 456.854, 783.261 457.898 C 790.027 460.927, 795.543 461.907, 799.752 460.828 C 801.813 460.299, 805.075 459.514, 807 459.082 C 813.870 457.541, 819.524 455.634, 821.065 454.340 C 821.926 453.617, 824.176 452.493, 826.065 451.844 C 829.638 450.615, 832.066 448.375, 834.762 443.821 C 835.634 442.348, 837.077 440.952, 837.968 440.719 C 841.836 439.707, 855.662 445.005, 860.715 449.435 C 861.384 450.021, 862.533 450.998, 863.270 451.607 C 864.007 452.216, 866.712 453.030, 869.282 453.415 C 871.851 453.800, 874.215 454.540, 874.536 455.058 C 874.856 455.576, 877.026 456, 879.359 456 C 881.692 456, 884.028 456.400, 884.550 456.889 C 885.073 457.378, 892.250 458.751, 900.500 459.941 C 908.750 461.130, 916.625 462.464, 918 462.905 C 919.375 463.347, 930.850 463.149, 943.500 462.466 C 965.196 461.294, 966.772 461.076, 971.303 458.612 C 973.945 457.175, 976.722 456, 977.476 456 C 978.230 456, 980.119 454.970, 981.673 453.711 C 988.568 448.128, 994.854 447.528, 1000.038 451.959 C 1001.942 453.587, 1004.063 454.937, 1004.750 454.959 C 1005.438 454.982, 1005.888 455.402, 1005.750 455.894 C 1004.843 459.136, 1023.590 468, 1031.354 468 C 1033.678 468, 1038.037 468.607, 1041.040 469.349 C 1047.939 471.054, 1087.591 471.445, 1101 469.940 C 1110.493 468.874, 1119 466.552, 1119 465.026 C 1119 464.581, 1120.013 463.945, 1121.250 463.612 C 1122.503 463.276, 1125.225 460.414, 1127.392 457.155 C 1132.864 448.925, 1135.139 447.947, 1148.120 448.251 L 1158.740 448.500 1163.620 445.036 C 1166.304 443.130, 1169.134 440.953, 1169.910 440.197 C 1170.685 439.442, 1172.935 437.787, 1174.910 436.519 C 1176.884 435.252, 1179.400 433.358, 1180.500 432.311 C 1183.368 429.581, 1197.073 419.466, 1199.829 418.046 C 1203.398 416.206, 1211.895 413.858, 1214.327 414.039 C 1218.353 414.339, 1220.483 412.832, 1224.250 407.016 C 1227.888 401.398, 1229.042 396.129, 1227.235 393.384 C 1226.151 391.739, 1219.566 388.587, 1206.693 383.554 C 1190.494 377.221, 1182.738 375.594, 1168.500 375.543 C 1156.824 375.501, 1156.366 375.583, 1151.534 378.564 C 1147.174 381.253, 1146.018 382.748, 1142.059 390.814 C 1137.617 399.863, 1137.496 400, 1133.944 400 C 1130.194 400, 1128.991 398.703, 1127.451 393 C 1126.375 389.018, 1122.082 385.188, 1116.685 383.395 C 1112.344 381.953, 1110.767 381.899, 1104.596 382.981 C 1100.693 383.664, 1095.700 385.036, 1093.500 386.028 C 1091.300 387.021, 1085.900 388.815, 1081.500 390.014 C 1077.100 391.214, 1071.575 393.052, 1069.223 394.098 C 1066.871 395.144, 1064.396 396.003, 1063.723 396.006 C 1063.050 396.010, 1061.150 396.746, 1059.500 397.642 C 1057.850 398.538, 1054.475 399.654, 1052 400.120 C 1049.525 400.587, 1043.675 402.065, 1039 403.406 C 1034.325 404.746, 1028.475 406.378, 1026 407.031 C 1023.525 407.685, 1019.205 409.295, 1016.400 410.610 C 1012.936 412.233, 1009.514 413, 1005.732 413 C 997 413, 997 413, 997 422.555 C 997 429.952, 996.731 431.188, 994.623 433.462 L 992.246 436.027 990.583 431.263 C 989.669 428.644, 988.198 423.815, 987.316 420.534 C 986.433 417.253, 985.206 414.063, 984.588 413.445 C 983.970 412.827, 979.263 412.005, 974.126 411.617 C 965.779 410.987, 952.836 408.513, 944.500 405.954 C 934.848 402.991, 923.372 399.860, 915.500 398.042 C 910.550 396.898, 904.025 395.254, 901 394.388 C 897.975 393.522, 893.700 392.438, 891.500 391.980 C 889.300 391.522, 886.150 390.612, 884.500 389.958 C 882.850 389.305, 878.800 388.389, 875.500 387.924 C 872.200 387.458, 867.025 386.643, 864 386.112 C 860.975 385.581, 855.082 385.113, 850.905 385.073 C 840.297 384.971, 839.710 385.726, 840.352 398.654 C 840.621 404.069, 841.144 410.360, 841.514 412.633 C 842.342 417.711, 841.317 418.479, 837.119 415.926 C 833.181 413.531, 830.070 406.437, 826.546 391.815 C 825.498 387.465, 821.928 383.050, 817.235 380.300 C 816.109 379.640, 811.771 378.791, 807.594 378.412 C 803.417 378.034, 800 377.374, 800 376.946 C 800 376.518, 794.712 375.904, 788.250 375.583 C 781.788 375.261, 772.900 374.748, 768.500 374.443 C 764.100 374.137, 754.262 374.283, 746.638 374.767 C 733.651 375.591, 732.658 375.799, 730.910 378.073 C 729.796 379.523, 729.036 382.162, 729.022 384.628 C 729 388.839, 726.548 392.465, 725.174 390.320 C 723.866 388.280, 720.277 387.835, 719.589 389.628 C 718.996 391.174, 718.796 391.156, 717.190 389.407 C 716.226 388.358, 714.892 385.657, 714.225 383.405 C 712.988 379.227, 712.507 378.886, 702.203 374.891 C 699.605 373.883, 694.877 373.935, 684 375.089 M 458 396.002 C 450.025 396.412, 442.527 397.071, 441.338 397.467 L 439.176 398.187 441.338 400.737 C 442.527 402.140, 449.575 409.569, 457 417.247 C 474.354 435.192, 481 438.855, 481 430.475 C 481 427.472, 481.821 426.100, 486.037 422.058 C 488.868 419.344, 491.496 415.758, 492.037 413.871 C 493.168 409.928, 493.290 400.982, 492.235 399.395 C 490.031 396.079, 478.575 394.944, 458 396.002 M 428.750 511.689 C 427.788 511.941, 427 512.728, 427 513.438 C 427 515.234, 430.886 520, 432.349 520 C 433.012 520, 436.621 523.091, 440.371 526.870 C 446.681 533.228, 450.442 535.434, 457 536.618 C 464.026 537.886, 467.533 539.711, 472.429 544.646 C 475.350 547.591, 478.148 550, 478.648 550 C 479.633 550, 483 553.615, 483 554.672 C 483 555.029, 484.287 556.487, 485.860 557.911 C 487.433 559.335, 489.263 562.173, 489.927 564.217 C 491.242 568.268, 494.966 571.915, 499.854 573.940 C 501.571 574.651, 502.779 575.548, 502.541 575.934 C 502.302 576.320, 504.670 577.938, 507.803 579.530 C 516.139 583.763, 523.961 584.086, 530.857 580.480 C 535.782 577.904, 536 577.629, 534.697 575.625 C 533.938 574.456, 532.341 573.054, 531.149 572.509 C 529.957 571.964, 528.738 570.749, 528.440 569.810 C 528.142 568.871, 526.908 567.792, 525.699 567.414 C 524.489 567.035, 522.462 565.915, 521.194 564.925 C 519.926 563.935, 517.001 562.201, 514.694 561.072 C 512.387 559.942, 508.920 557.552, 506.988 555.759 C 502.363 551.467, 497.407 549.214, 492.555 549.199 C 487.414 549.183, 485.824 547.034, 486.116 540.500 C 486.486 532.230, 483.183 528.772, 474.321 528.152 C 473.123 528.069, 471.548 527.438, 470.821 526.750 C 470.095 526.063, 468.003 525.450, 466.174 525.390 C 463.883 525.314, 462.015 524.381, 460.170 522.390 C 452.998 514.650, 437.550 509.390, 428.750 511.689 M 1340.195 536.750 C 1339.128 538.263, 1338.028 541.075, 1337.751 543 C 1337.474 544.925, 1336.242 548.975, 1335.013 552 C 1333.784 555.025, 1331.976 561.915, 1330.995 567.310 C 1329.398 576.099, 1326.207 588.047, 1324.002 593.500 C 1323.557 594.600, 1321.970 600, 1320.475 605.500 C 1318.981 611, 1316.730 618.425, 1315.475 622 C 1314.220 625.575, 1312.432 631.650, 1311.503 635.500 C 1310.573 639.350, 1309.006 643.850, 1308.020 645.500 C 1307.035 647.150, 1305.905 649.625, 1305.511 651 C 1305.116 652.375, 1303.764 655.975, 1302.507 659 C 1301.250 662.025, 1298.776 668.100, 1297.010 672.500 C 1292.543 683.627, 1290.164 688.314, 1284.452 697.239 C 1278.269 706.901, 1274.234 708.645, 1267.571 704.536 C 1256.327 697.601, 1254.130 695.784, 1252.682 692.225 C 1249.655 684.785, 1248.750 684.497, 1228.500 684.525 C 1215.220 684.543, 1208.533 684.997, 1203 686.254 C 1198.875 687.191, 1190.100 688.433, 1183.500 689.014 C 1167.662 690.408, 1160 692.654, 1160 695.902 C 1160 698.806, 1155.251 704.012, 1153.203 703.354 C 1150.129 702.366, 1144.557 699.525, 1143.194 698.250 C 1142.459 697.563, 1141.155 697, 1140.297 697 C 1139.438 697, 1137.167 696.030, 1135.249 694.845 C 1131.792 692.708, 1131.462 692.696, 1096.631 693.389 C 1073.287 693.853, 1058.671 694.579, 1053.067 695.553 C 1045.210 696.918, 1044.220 697.375, 1038.567 702.244 C 1031.219 708.572, 1030.073 709.940, 1030.032 712.421 C 1030.014 713.478, 1029.257 715.164, 1028.348 716.168 C 1027.130 717.513, 1026.578 720.558, 1026.248 727.747 C 1025.833 736.782, 1025.976 737.758, 1028.191 741 C 1030.188 743.921, 1031.096 744.448, 1033.684 744.186 C 1035.389 744.013, 1049.320 744.379, 1064.642 745 C 1098.354 746.364, 1131.034 744.948, 1134.500 741.972 C 1135.600 741.027, 1137.137 740.060, 1137.916 739.822 C 1139.292 739.402, 1142.619 731.300, 1143.694 725.750 C 1144.390 722.159, 1146.559 722.247, 1148.471 725.944 C 1149.308 727.563, 1151.200 729.475, 1152.676 730.194 C 1154.151 730.912, 1156.110 732.850, 1157.029 734.500 L 1158.701 737.500 1171.387 737.185 C 1178.364 737.012, 1187.094 736.461, 1190.787 735.960 C 1209.222 733.460, 1218.077 732.045, 1224 730.654 C 1227.575 729.815, 1234.325 728.829, 1239 728.464 C 1247.387 727.809, 1247.554 727.743, 1251.510 723.544 L 1255.519 719.287 1270.510 718.735 C 1285.110 718.196, 1295.398 716.821, 1299.543 714.854 C 1300.666 714.320, 1302.341 713.773, 1303.264 713.638 C 1304.187 713.502, 1305.255 713.078, 1305.638 712.696 C 1306.020 712.313, 1307.624 712, 1309.202 712 C 1310.780 712, 1313.067 711.369, 1314.285 710.598 C 1315.503 709.827, 1318.075 708.881, 1320 708.495 C 1326.072 707.279, 1343.792 699.984, 1344.377 698.460 C 1344.685 697.657, 1345.516 697, 1346.223 697 C 1346.930 697, 1351.332 695.156, 1356.004 692.901 C 1361.854 690.079, 1365.703 687.432, 1368.361 684.401 C 1370.485 681.981, 1372.778 680, 1373.456 680 C 1374.135 680, 1375.505 679.100, 1376.500 678 C 1377.495 676.900, 1378.845 676, 1379.500 676 C 1380.155 676, 1381.505 675.100, 1382.500 674 C 1383.495 672.900, 1385.523 672, 1387.006 672 C 1388.489 672, 1391.682 670.962, 1394.101 669.694 C 1396.520 668.426, 1400.075 666.782, 1402 666.040 C 1403.925 665.297, 1407.858 663.164, 1410.740 661.298 C 1413.622 659.433, 1417.579 657.238, 1419.534 656.421 C 1421.488 655.605, 1423.325 654.317, 1423.615 653.560 C 1423.906 652.803, 1425.364 651.678, 1426.855 651.060 C 1428.346 650.443, 1430.720 648.714, 1432.132 647.218 C 1433.543 645.723, 1436.003 643.844, 1437.599 643.043 C 1443.666 639.996, 1444 639.335, 1444 630.345 L 1444 622 1441.250 622.005 C 1439.644 622.007, 1437.252 623.157, 1435.500 624.768 C 1422.794 636.455, 1412.622 643.750, 1407.797 644.637 C 1405.984 644.971, 1403.548 645.835, 1402.384 646.557 C 1399.795 648.164, 1390.792 648.531, 1385.882 647.229 C 1380.611 645.832, 1371.700 641.440, 1369.849 639.327 C 1368.749 638.072, 1368.073 634.680, 1367.690 628.500 C 1366.461 608.673, 1364.863 591.316, 1363.962 588 C 1363.439 586.075, 1363.009 582.994, 1363.006 581.154 C 1363.003 579.314, 1362.338 575.489, 1361.529 572.654 C 1360.721 569.819, 1359.860 565.250, 1359.617 562.500 C 1359.374 559.750, 1358.191 555.025, 1356.988 552 C 1355.785 548.975, 1354.570 545.501, 1354.289 544.281 C 1354.008 543.060, 1353.153 541.542, 1352.389 540.908 C 1351.625 540.274, 1351 539.161, 1351 538.434 C 1351 536.633, 1347.049 534, 1344.346 534 C 1343.073 534, 1341.314 535.165, 1340.195 536.750 M 666.938 542.688 C 666.093 545.248, 665.938 549.454, 666.432 556.438 C 666.823 561.972, 667.531 573.475, 668.006 582 C 668.911 598.241, 670.260 608.925, 671.979 613.444 C 672.540 614.922, 673 617.894, 673 620.051 C 673 622.207, 673.427 625.890, 673.948 628.236 C 674.470 630.581, 675.638 637.900, 676.543 644.500 C 678.426 658.222, 680.342 665.349, 683.086 668.837 C 684.139 670.175, 685 671.707, 685 672.241 C 685 672.775, 686.098 674.076, 687.441 675.132 C 688.783 676.188, 690.142 677.873, 690.461 678.877 C 691.078 680.821, 705.119 687.420, 710.663 688.372 C 713.760 688.904, 729.068 694.495, 736 697.627 C 746.856 702.531, 761.308 703.611, 769.315 700.117 C 778.595 696.067, 780.515 696.552, 789.262 705.164 C 793.854 709.684, 803.043 715.061, 807.906 716.074 C 809.883 716.485, 814.875 717.562, 819 718.467 C 823.125 719.371, 830.325 720.758, 835 721.547 C 839.675 722.337, 846.425 723.663, 850 724.494 C 876.874 730.737, 887.339 732.165, 888.278 729.718 C 888.787 728.390, 887.871 721.596, 886.202 714.317 C 885.132 709.650, 879.535 702.475, 868.500 691.621 C 856.762 680.077, 856.314 679.833, 846.269 679.504 C 841.446 679.346, 831.650 678.082, 824.500 676.695 C 817.350 675.308, 807.675 673.632, 803 672.970 C 795.705 671.937, 785.638 670.096, 777.222 668.254 C 774.376 667.632, 767.360 669.529, 759.369 673.083 L 753.239 675.809 746.369 669.014 C 742.591 665.277, 736.990 659.132, 733.922 655.360 C 728.717 648.959, 727.106 646.124, 722.510 635.277 C 721.526 632.955, 720.427 631.236, 720.068 631.458 C 719.023 632.104, 710.491 616.034, 701.242 596 C 694.884 582.229, 681.466 556.360, 679.457 554 C 678.755 553.175, 676.715 549.800, 674.925 546.500 C 670.200 537.789, 668.779 537.111, 666.938 542.688 M 518 585 C 519.981 586.280, 528 586.280, 528 585 C 528 584.447, 525.427 584.007, 522.250 584.015 C 518.169 584.026, 516.935 584.312, 518 585 M 564 594.680 C 558.434 595.252, 556 595.964, 556 597.019 C 556 597.559, 557.688 598.007, 559.750 598.015 C 561.813 598.024, 563.989 598.361, 564.588 598.765 C 566.317 599.933, 566.977 604.064, 565.749 606.031 C 564.159 608.576, 566.523 615.275, 569.880 617.739 C 582.872 627.274, 592.434 632.365, 596.308 631.811 C 599.115 631.409, 599.560 628.828, 597.524 624.750 C 596.631 622.963, 595.504 619.925, 595.019 618 C 593.242 610.950, 591.349 607.128, 587.520 602.862 C 580.125 594.622, 576.574 593.387, 564 594.680 M 535.813 596.683 C 536.534 596.972, 537.397 596.936, 537.729 596.604 C 538.061 596.272, 537.471 596.036, 536.417 596.079 C 535.252 596.127, 535.015 596.364, 535.813 596.683 M 895.789 697.169 C 895.521 697.901, 895.616 701.425, 895.999 705 C 896.701 711.545, 899.515 718.522, 902.427 720.939 C 903.292 721.657, 904 722.616, 904 723.069 C 904 724.790, 911.160 736.019, 911.947 735.533 C 912.401 735.252, 916.311 735.711, 920.636 736.553 C 924.961 737.395, 934.800 738.479, 942.500 738.961 C 950.200 739.443, 957.767 740.324, 959.315 740.919 C 960.863 741.514, 968.599 742, 976.506 742 C 985.011 742, 991.134 742.408, 991.500 743 C 992.206 744.143, 1000.789 744.305, 1009.944 743.348 C 1018.435 742.461, 1018.678 741.813, 1017.123 724.248 C 1016.081 712.475, 1015.596 710.197, 1013.704 708.168 C 1009.001 703.126, 1005.632 702.286, 987.500 701.629 C 956.645 700.512, 934.559 699.166, 930.500 698.157 C 928.300 697.610, 919.700 696.864, 911.388 696.500 C 899.258 695.969, 896.180 696.101, 895.789 697.169" stroke="none" fill="black" fill-rule="evenodd"/>
	<path fill-opacity="0.387" d="M -0 540.001 L -0 1080.001 960.250 1079.751 L 1920.500 1079.500 1920.751 539.750 L 1921.002 0 960.501 0 L 0 0 -0 540.001 M 0.496 540.500 C 0.496 837.500, 0.610 958.851, 0.750 810.168 C 0.890 661.485, 0.890 418.485, 0.750 270.168 C 0.610 121.851, 0.496 243.500, 0.496 540.500 M 1568.758 132.579 C 1563.830 134.376, 1560.446 136.554, 1555.070 141.389 C 1548.778 147.048, 1537.240 160.631, 1536.481 163.272 C 1534.830 169.019, 1532.630 172.053, 1527.749 175.310 C 1520.636 180.057, 1517.564 183.493, 1514.611 190 C 1513.238 193.025, 1512.089 194.924, 1512.058 194.220 C 1512.019 193.373, 1510.918 193.711, 1508.799 195.220 C 1502.311 199.842, 1495.872 207.262, 1495.368 210.700 C 1494.973 213.389, 1492.729 215, 1489.378 215 C 1487.520 215, 1486 215.450, 1486 216 C 1486 216.550, 1485.375 217, 1484.612 217 C 1480.105 217, 1464.594 231.429, 1459.556 240.310 C 1457.936 243.165, 1454.285 247.765, 1451.442 250.533 C 1448.599 253.300, 1445.991 256.450, 1445.647 257.533 C 1445.303 258.615, 1441.704 262.425, 1437.650 266 C 1433.073 270.036, 1429.079 274.651, 1427.113 278.176 C 1425.371 281.297, 1423.584 283.997, 1423.141 284.176 C 1421.854 284.694, 1416.955 296.118, 1417.583 297.135 C 1417.897 297.642, 1417.816 301.081, 1417.403 304.778 C 1416.868 309.578, 1416.476 310.788, 1416.034 309.010 C 1414.965 304.714, 1413.873 308.447, 1413.277 318.426 C 1412.657 328.821, 1412.201 328.100, 1420.250 329.458 C 1423.594 330.022, 1424 330.410, 1424 333.045 C 1424 334.670, 1423.610 336, 1423.133 336 C 1422.656 336, 1421.062 337.819, 1419.591 340.042 C 1418.120 342.265, 1415.247 345.790, 1413.208 347.875 C 1411.169 349.961, 1409.363 352.264, 1409.197 352.993 C 1409.030 353.723, 1407.986 355.474, 1406.877 356.883 C 1405.379 358.788, 1405.019 360.287, 1405.476 362.723 C 1405.955 365.277, 1405.750 366, 1404.545 366 C 1403.695 366, 1403 366.418, 1403 366.929 C 1403 367.439, 1402.281 368.576, 1401.402 369.455 C 1399.939 370.919, 1399.945 371.267, 1401.477 373.605 C 1403.459 376.630, 1402.741 383.502, 1400.346 384.421 C 1398.447 385.149, 1394 384.078, 1394 382.892 C 1394 380.850, 1390.988 382.199, 1390.411 384.500 C 1390.066 385.875, 1389.382 387, 1388.892 387 C 1388.401 387, 1388 387.886, 1388 388.969 C 1388 390.308, 1387.520 390.753, 1386.500 390.362 C 1385.469 389.966, 1385 390.423, 1385 391.826 C 1385 392.987, 1384.139 394.139, 1383 394.500 C 1380.948 395.151, 1380.208 397, 1382 397 C 1382.550 397, 1383 397.675, 1383 398.500 C 1383 399.325, 1383.638 400, 1384.417 400 C 1385.196 400, 1386.062 400.562, 1386.341 401.250 C 1386.722 402.191, 1387.110 402.129, 1387.909 401 C 1388.628 399.983, 1388.974 399.903, 1388.985 400.750 C 1388.993 401.438, 1389.675 402, 1390.500 402 C 1391.690 402, 1392 403.444, 1392 409 L 1392 416 1388.083 416 C 1385.886 416, 1383.945 415.451, 1383.662 414.750 C 1383.259 413.750, 1383.142 413.750, 1383.079 414.750 C 1383.034 415.455, 1381.691 416, 1380 416 C 1377.181 416, 1377 416.234, 1377 419.891 C 1377 423.614, 1377.155 423.799, 1380.604 424.202 C 1382.977 424.479, 1384.379 424.175, 1384.711 423.311 C 1385.351 421.643, 1389.697 421.592, 1390.249 423.247 C 1390.525 424.076, 1393.569 424.613, 1399.332 424.849 C 1407.841 425.199, 1408.002 425.162, 1408.116 422.853 C 1408.200 421.158, 1408.360 420.989, 1408.689 422.250 C 1408.941 423.212, 1409.789 424, 1410.573 424 C 1411.603 424, 1412.011 425.321, 1412.039 428.750 C 1412.073 432.977, 1412.426 433.720, 1415.245 435.500 C 1416.987 436.600, 1419.299 439.188, 1420.382 441.250 C 1422.029 444.385, 1422.856 444.987, 1425.426 444.921 C 1427.117 444.878, 1427.938 444.615, 1427.250 444.338 C 1424.399 443.187, 1426.398 442.113, 1432.750 441.383 C 1436.463 440.956, 1439.725 440.560, 1440 440.503 C 1440.275 440.446, 1442.568 438.346, 1445.096 435.835 C 1448.886 432.070, 1449.807 430.423, 1450.355 426.426 C 1450.720 423.761, 1451.465 421.135, 1452.010 420.590 C 1452.554 420.046, 1453.007 418.678, 1453.015 417.550 C 1453.027 416.046, 1453.256 415.855, 1453.876 416.834 C 1454.955 418.535, 1456 416.148, 1456 411.983 C 1456 407.357, 1457.626 404.398, 1460.916 403.035 C 1462.612 402.332, 1464 401.077, 1464 400.245 C 1464 398.146, 1469.053 394.003, 1471.615 394.001 C 1472.778 394.001, 1474.874 393.100, 1476.273 392 C 1477.671 390.900, 1479.285 390, 1479.858 390 C 1480.431 390, 1481.286 389.312, 1481.757 388.470 C 1482.562 387.032, 1485.986 386.143, 1498.900 384.020 C 1501.870 383.531, 1504.650 382.566, 1505.078 381.874 C 1506.051 380.299, 1513.452 378.035, 1517.695 378.015 C 1519.452 378.007, 1524.028 376.425, 1527.864 374.500 C 1531.700 372.575, 1535.269 371, 1535.797 371 C 1536.324 371, 1537.315 370.325, 1538 369.500 C 1538.685 368.675, 1539.909 368, 1540.722 368 C 1542.808 368, 1554.147 360.936, 1556.276 358.309 C 1557.253 357.104, 1558.828 355.868, 1559.776 355.562 C 1560.724 355.256, 1562.267 353.654, 1563.203 352.003 C 1564.465 349.779, 1565.638 349, 1567.726 349 C 1569.277 349, 1572.785 347.538, 1575.523 345.750 C 1582.741 341.037, 1584.981 340.222, 1592.838 339.447 C 1598.656 338.874, 1600.180 339.037, 1601.519 340.376 C 1602.412 341.269, 1603.748 342, 1604.488 342 C 1605.227 342, 1606.430 343.350, 1607.160 345 C 1607.891 346.650, 1609.053 348, 1609.744 348 C 1610.435 348, 1611 348.627, 1611 349.393 C 1611 350.159, 1611.675 351.045, 1612.500 351.362 C 1613.490 351.742, 1614 353.308, 1614 355.969 C 1614 358.186, 1614.450 360, 1615 360 C 1615.550 360, 1616 361.333, 1616 362.961 C 1616 364.590, 1616.905 369.805, 1618.011 374.549 C 1619.818 382.297, 1620.450 383.563, 1624.214 386.970 C 1627.943 390.345, 1628.379 391.204, 1628.169 394.762 C 1627.942 398.618, 1628.203 399.012, 1632 400.527 C 1636.985 402.516, 1639 403.579, 1639 404.219 C 1639 404.649, 1639.492 405, 1640.092 405 C 1640.693 405, 1642.329 405.900, 1643.727 407 C 1646.755 409.382, 1649.308 409.549, 1651.357 407.500 C 1652.182 406.675, 1653.607 406, 1654.524 406 C 1656.065 406, 1661.089 402.956, 1663.548 400.533 C 1664.125 399.965, 1666.217 396.125, 1668.197 392 C 1671.912 384.260, 1674 376.493, 1674 370.411 C 1674 366.977, 1676.896 360.025, 1679.623 356.914 C 1680.388 356.041, 1681.419 352.216, 1681.915 348.414 C 1682.411 344.611, 1683.556 339.772, 1684.459 337.661 C 1685.891 334.312, 1686.023 330.794, 1685.486 310.161 C 1685.147 297.147, 1684.787 275.700, 1684.685 262.500 C 1684.522 241.345, 1684.282 238.085, 1682.658 235 C 1681.645 233.075, 1680.438 228.585, 1679.977 225.023 C 1679.515 221.461, 1678.657 218.386, 1678.069 218.190 C 1677.481 217.994, 1677 217.389, 1677 216.845 C 1677 216.302, 1676.356 215.213, 1675.569 214.426 C 1674.782 213.640, 1673.147 209.854, 1671.935 206.013 C 1670.723 202.173, 1668.241 196.211, 1666.420 192.765 C 1664.599 189.319, 1661.622 183.591, 1659.804 180.035 C 1656.116 172.818, 1654.214 170.196, 1648.750 164.790 C 1646.688 162.750, 1645 160.769, 1645 160.388 C 1645 159.579, 1638.036 153.075, 1633.014 149.194 C 1631.097 147.712, 1628.622 145.568, 1627.514 144.429 C 1624.420 141.247, 1617.272 138.420, 1609.012 137.111 C 1604.894 136.459, 1601.092 135.492, 1600.562 134.962 C 1600.033 134.433, 1597.635 134, 1595.234 134 C 1592.833 134, 1590.111 133.610, 1589.184 133.133 C 1585.996 131.493, 1572.724 131.132, 1568.758 132.579 M 1492 224.935 C 1492 225.450, 1490.425 226.440, 1488.500 227.136 C 1486.575 227.832, 1485 228.815, 1485 229.319 C 1485 229.824, 1483.696 231.421, 1482.103 232.868 C 1480.509 234.316, 1477.753 238.200, 1475.978 241.500 C 1474.203 244.800, 1471.968 248.400, 1471.011 249.500 C 1467.271 253.801, 1459.862 271.631, 1457.976 280.871 C 1456.804 286.614, 1456.852 287.569, 1458.464 290.562 C 1460.179 293.748, 1463 295.910, 1463 294.040 C 1463 293.547, 1463.617 292.526, 1464.370 291.773 C 1465.124 291.019, 1466.486 288.962, 1467.396 287.201 C 1468.306 285.440, 1469.635 284, 1470.349 284 C 1471.062 284, 1473.526 281.689, 1475.823 278.865 C 1479.214 274.697, 1480.001 272.956, 1480.004 269.615 C 1480.007 265.534, 1481.954 261.379, 1485.680 257.500 C 1486.737 256.400, 1487.902 254.713, 1488.269 253.750 C 1488.637 252.787, 1489.401 252, 1489.969 252 C 1490.536 252, 1491 251.256, 1491 250.346 C 1491 249.437, 1492.724 247.074, 1494.830 245.096 C 1498.108 242.019, 1498.691 240.823, 1498.874 236.806 C 1499.078 232.290, 1498.185 229.740, 1495.028 225.825 C 1493.438 223.854, 1492 223.432, 1492 224.935 M 735.500 369.627 C 730.260 370.340, 724 372.230, 724 373.098 C 724 373.559, 722.808 374.561, 721.350 375.325 C 718.454 376.842, 716.453 376.455, 707.500 372.646 C 701.447 370.070, 689.197 369.861, 659 371.818 C 635.185 373.361, 627.492 374.401, 622.975 376.689 C 620.225 378.082, 616.789 378.469, 606.500 378.544 C 594.035 378.635, 577.401 379.994, 562.500 382.140 C 558.650 382.694, 549.425 383.515, 542 383.963 C 525.902 384.936, 523.259 385.421, 515.736 388.786 C 511.681 390.600, 510.347 391.631, 511.236 392.263 C 511.989 392.799, 506.438 392.874, 497.500 392.449 C 489.250 392.056, 464.050 391.601, 441.500 391.437 C 407.727 391.192, 399.619 390.864, 395.500 389.576 C 389.768 387.784, 365.589 386.238, 364.741 387.610 C 364.035 388.753, 367.435 392.666, 372.339 396.352 C 377.980 400.591, 386.828 402.113, 401.740 401.407 C 414.285 400.813, 419.655 401.642, 428.784 405.583 C 430.590 406.362, 433.641 407, 435.564 407 C 439.127 407, 442.853 410.184, 447.159 416.909 C 448.072 418.334, 453.490 424.389, 459.200 430.365 L 469.581 441.230 478.782 442.959 C 487.641 444.624, 488.097 444.619, 491.017 442.844 C 492.685 441.829, 494.465 439.907, 494.973 438.572 C 495.828 436.322, 497.740 433.634, 500.720 430.490 C 501.391 429.782, 504.634 428.891, 507.926 428.509 C 513.140 427.903, 514.615 428.146, 519.350 430.386 C 524.461 432.804, 530 437.895, 530 440.176 C 530 440.738, 530.636 442.616, 531.414 444.349 C 532.191 446.082, 533.378 449.300, 534.051 451.500 C 534.724 453.700, 536.158 457.525, 537.237 460 C 540.375 467.197, 540.773 468.153, 543.480 475 C 544.894 478.575, 546.539 482.361, 547.136 483.414 C 547.733 484.467, 550.928 490.767, 554.235 497.414 C 557.542 504.061, 561.033 510.625, 561.992 512 C 562.951 513.375, 565.605 518.044, 567.890 522.376 C 570.175 526.709, 572.861 531.434, 573.859 532.876 C 574.858 534.319, 575.958 536.286, 576.305 537.247 C 576.651 538.208, 579.312 542.415, 582.217 546.596 C 585.123 550.777, 588.629 555.871, 590.008 557.917 C 591.387 559.962, 593.750 563.102, 595.258 564.895 C 596.766 566.687, 598 568.724, 598 569.422 C 598 570.119, 598.896 571.501, 599.991 572.492 C 601.086 573.483, 603.122 576.238, 604.515 578.615 C 607.774 584.177, 614.686 589, 619.396 589 C 625.461 589, 629.866 586.207, 631.130 581.559 C 632.186 577.677, 632.490 558.602, 631.521 557.033 C 631.098 556.350, 629.891 532.136, 628.152 489.500 C 627.513 473.821, 628.270 445.046, 629.444 440.366 C 629.929 438.436, 630.690 438, 633.576 438 C 638.231 438, 646.238 439.955, 647.500 441.400 C 650.565 444.911, 671.885 456.183, 680.042 458.605 C 687.961 460.957, 696.593 460.731, 699.394 458.100 C 700.623 456.945, 702.009 456, 702.474 456 C 702.938 456, 705.702 454.200, 708.616 452 C 711.530 449.800, 714.604 448, 715.448 448 C 716.291 448, 717.998 446.427, 719.241 444.504 C 720.483 442.582, 722.288 440.751, 723.250 440.437 C 724.212 440.122, 725 439.500, 725 439.054 C 725 437.242, 730.888 435.860, 735.644 436.555 C 740.314 437.238, 750.425 442.026, 752.500 444.537 C 753.050 445.203, 756.650 447.448, 760.500 449.525 C 764.350 451.603, 768.175 453.667, 769 454.111 C 784.610 462.525, 803.680 468.088, 807.234 465.266 C 807.930 464.713, 810.188 463.957, 812.250 463.585 C 814.313 463.213, 816 462.556, 816 462.124 C 816 461.691, 818.587 460.128, 821.750 458.649 C 833.770 453.029, 837.366 450.526, 838.234 447.176 C 839.002 444.215, 839.354 444, 843.450 444 C 846.997 444, 849.138 444.868, 854.559 448.504 C 865.923 456.124, 867.747 457.077, 872.704 457.981 C 875.342 458.463, 879.300 459.345, 881.500 459.941 C 897.152 464.183, 912.075 465.510, 941.588 465.283 C 966.286 465.093, 966.745 465.052, 971.088 462.606 C 982.509 456.174, 989.466 453, 992.145 453 C 995.307 453, 999.318 455.126, 1002.500 458.489 C 1009.078 465.441, 1021.175 470.950, 1033 472.379 C 1037.675 472.945, 1056.125 473.418, 1074 473.431 C 1103.533 473.452, 1106.865 473.286, 1110.500 471.606 C 1122.760 465.940, 1125.240 464.382, 1128.254 460.458 C 1130.027 458.147, 1133.016 455.249, 1134.895 454.017 C 1137.962 452.007, 1138.717 451.898, 1142.258 452.959 C 1152.021 455.884, 1160.767 451.189, 1190.278 427.178 C 1195.137 423.225, 1200.293 420.505, 1204.750 419.543 C 1207.612 418.925, 1208 419.093, 1208 420.954 C 1208 423.536, 1203.745 432.137, 1201.578 433.935 C 1200.710 434.656, 1200 435.865, 1200 436.622 C 1200 437.380, 1199.527 438, 1198.948 438 C 1198.369 438, 1197.425 439.350, 1196.850 441 C 1196.275 442.650, 1195.471 444, 1195.063 444 C 1194.059 444, 1192 448.656, 1192 450.925 C 1192 453.151, 1194.451 455.331, 1197.180 455.532 C 1200.151 455.751, 1207.562 447.427, 1210.119 441 C 1211.322 437.975, 1213.510 434.150, 1214.981 432.500 C 1217.795 429.342, 1221.131 423.973, 1227.406 412.500 C 1228.008 411.400, 1228.816 410.262, 1229.202 409.970 C 1230.400 409.067, 1235.995 394.613, 1235.965 392.500 C 1235.908 388.518, 1233.637 386.964, 1220 381.576 C 1217.525 380.598, 1213.925 379.113, 1212 378.276 C 1196.412 371.494, 1170.565 368.013, 1160.720 371.368 C 1151.262 374.591, 1146.461 377.708, 1142.142 383.429 C 1139.645 386.735, 1137.168 389, 1136.049 389 C 1133.162 389, 1128.006 385.687, 1128.267 384 C 1128.675 381.371, 1121.234 378.525, 1114 378.543 C 1108.258 378.557, 1097.283 381.081, 1094.500 383.028 C 1093.950 383.412, 1091.503 384.032, 1089.063 384.405 C 1086.623 384.778, 1083.248 385.670, 1081.563 386.388 C 1079.878 387.105, 1076.700 388.241, 1074.500 388.912 C 1072.300 389.583, 1069.600 390.490, 1068.500 390.927 C 1065.137 392.264, 1049.549 397.075, 1048.745 397.025 C 1048.330 396.999, 1046.363 397.657, 1044.373 398.489 C 1042.384 399.320, 1038.995 400, 1036.843 400 C 1034.691 400, 1031.933 400.650, 1030.715 401.443 C 1026.686 404.069, 1011.941 408.143, 1006.468 408.143 C 999.243 408.143, 995.762 409.200, 995.255 411.548 C 995.023 412.622, 994.507 416.875, 994.108 421 C 993.603 426.224, 993.145 427.893, 992.598 426.500 C 990.567 421.328, 989.968 419.267, 989.636 416.322 C 989.006 410.716, 984.969 408.339, 975.047 407.730 C 964.957 407.110, 946.366 403.370, 943.540 401.391 C 942.448 400.626, 939.910 400, 937.900 400 C 935.889 400, 932.502 399.257, 930.372 398.349 C 928.242 397.441, 924.925 396.340, 923 395.902 C 912.662 393.551, 905.278 391.662, 903.500 390.913 C 898.837 388.949, 879.888 384.691, 872.500 383.947 C 868.100 383.504, 863.116 382.714, 861.425 382.191 C 859.734 381.668, 854.284 380.918, 849.314 380.525 C 838.510 379.670, 836 380.653, 836 385.741 C 836 389.004, 832.731 393.570, 831.112 392.569 C 830.663 392.292, 828.780 389.639, 826.928 386.673 C 823.394 381.017, 818.545 377.051, 813.500 375.691 C 801.850 372.552, 745.946 368.205, 735.500 369.627 M 1392.750 392.662 C 1393.438 392.940, 1394 394.704, 1394 396.583 C 1394 399.713, 1394.252 400, 1397 400 C 1399.833 400, 1400 399.778, 1400 396 L 1400 392 1395.750 392.079 C 1393.412 392.122, 1392.063 392.385, 1392.750 392.662 M 1379.079 396.583 C 1379.127 397.748, 1379.364 397.985, 1379.683 397.188 C 1379.972 396.466, 1379.936 395.603, 1379.604 395.271 C 1379.272 394.939, 1379.036 395.529, 1379.079 396.583 M 1357.543 397.931 C 1356.860 399.036, 1358.437 400.230, 1359.361 399.306 C 1360.311 398.355, 1360.134 397, 1359.059 397 C 1358.541 397, 1357.859 397.419, 1357.543 397.931 M 417.250 507.227 C 411.653 508.076, 411 508.417, 411 510.493 C 411 512.145, 412.343 513.701, 415.671 515.906 C 418.241 517.608, 420.742 519, 421.230 519 C 421.719 519, 421.846 519.441, 421.512 519.980 C 420.633 521.403, 429.080 529.490, 434.145 532.074 C 436.529 533.290, 440.538 536.021, 443.054 538.143 C 445.570 540.264, 447.967 542, 448.381 542 C 448.795 542, 450.608 543.125, 452.411 544.500 C 454.214 545.875, 456.209 547, 456.844 547 C 457.480 547, 458 547.420, 458 547.933 C 458 548.446, 458.788 549.130, 459.750 549.453 C 460.712 549.776, 467.350 555.703, 474.500 562.623 C 481.650 569.544, 489.075 576.071, 491 577.130 C 492.925 578.188, 499.675 582.660, 506 587.067 C 524.954 600.274, 527.363 601.733, 532.977 603.400 C 539.671 605.388, 549.774 611.736, 557 618.494 C 560.025 621.323, 563.807 624.191, 565.404 624.867 C 567.001 625.544, 570.601 627.581, 573.404 629.395 C 583.150 635.703, 595.220 642.172, 601.840 644.638 C 615.823 649.845, 625 655.354, 625 658.539 C 625 659.343, 625.831 660, 626.846 660 C 627.862 660, 630.139 660.721, 631.906 661.603 C 633.674 662.485, 636.854 663.439, 638.973 663.723 C 642.373 664.179, 643.220 663.837, 646.163 660.814 C 647.998 658.930, 649.650 656.739, 649.833 655.944 C 650.017 655.150, 649.849 654.818, 649.460 655.207 C 649.071 655.595, 647.265 654.779, 645.447 653.392 C 643.164 651.651, 640.339 650.685, 636.320 650.272 C 627.661 649.382, 623.115 645.228, 618.877 634.332 C 616.681 628.686, 614.124 624.286, 610.979 620.742 C 608.421 617.859, 605.538 613.414, 604.572 610.864 C 602.032 604.161, 589.505 591.709, 581.494 587.924 C 578.091 586.316, 574.825 585, 574.236 585 C 573.648 585, 572.997 584.491, 572.790 583.869 C 572.557 583.170, 567.862 582.456, 560.500 582 C 553.948 581.594, 548.440 580.866, 548.260 580.381 C 548.080 579.896, 546.710 577.040, 545.216 574.034 C 542.931 569.437, 541.639 568.131, 537.077 565.814 C 534.095 564.299, 531.395 562.699, 531.077 562.259 C 530.760 561.819, 529.317 560.941, 527.872 560.307 C 526.426 559.673, 523.276 556.787, 520.872 553.894 C 511.908 543.109, 504.458 535.837, 499.422 532.955 C 496.569 531.323, 493.718 529.365, 493.086 528.604 C 492.455 527.843, 489.266 526.221, 486 525 C 482.734 523.779, 479.543 522.154, 478.908 521.390 C 478.274 520.625, 476.515 520, 475 520 C 473.485 520, 471.634 519.264, 470.887 518.363 C 467.511 514.296, 448.471 508.452, 435.500 507.502 C 430.550 507.140, 425.825 506.716, 425 506.561 C 424.175 506.406, 420.688 506.705, 417.250 507.227 M 658.216 522.452 C 656.457 524.688, 656.322 526.256, 656.685 540.202 C 656.904 548.616, 657.515 559.088, 658.042 563.474 C 658.569 567.859, 659 574.881, 659 579.078 C 659 585.943, 661.523 605.526, 663.991 617.820 C 664.507 620.394, 665.416 627.638, 666.010 633.918 C 666.603 640.197, 667.327 645.721, 667.619 646.192 C 667.910 646.663, 667.852 648.396, 667.491 650.042 C 666.739 653.464, 663.107 655.747, 656.674 656.839 C 653.349 657.404, 652.433 658.013, 652.172 659.835 C 651.992 661.093, 651.207 662.367, 650.428 662.666 C 648.380 663.452, 649.409 664.536, 654.586 667.042 C 657.102 668.260, 659.398 669.874, 659.688 670.628 C 659.977 671.383, 661.076 672, 662.129 672 C 665.324 672, 680.224 679.993, 684.728 684.123 C 687.089 686.288, 690.069 688.055, 691.478 688.125 C 694.907 688.295, 695.026 688.331, 698.961 690.427 C 700.864 691.440, 706.264 693.562, 710.961 695.143 C 715.657 696.723, 722.650 699.328, 726.500 700.931 C 741.408 707.138, 749.907 709.255, 763.500 710.149 C 782.930 711.426, 784.616 711.793, 790.722 716.070 C 794.233 718.530, 797.869 720.152, 800.850 720.590 C 803.407 720.965, 806.598 721.683, 807.939 722.184 C 810.021 722.961, 829.663 726.740, 841 728.545 C 842.925 728.851, 848.100 729.947, 852.500 730.981 C 862.099 733.235, 875.351 735.612, 883.292 736.504 C 888.647 737.105, 889.459 736.914, 894.047 733.970 C 900.331 729.937, 903.449 730.424, 905.671 735.786 C 906.518 737.829, 907.336 739.636, 907.491 739.802 C 908.350 740.728, 931.167 743.942, 941 744.522 C 947.325 744.895, 954.651 745.596, 957.280 746.080 C 959.908 746.564, 972.508 747.421, 985.280 747.986 C 998.051 748.550, 1010.075 749.217, 1012 749.466 C 1014.422 749.781, 1016.257 749.344, 1017.956 748.051 L 1020.412 746.180 1019.274 728.834 C 1018.084 710.688, 1017.286 707.026, 1013.683 703.153 C 1008.821 697.926, 1006.019 697.330, 982.500 696.525 C 970.400 696.111, 956.734 695.855, 952.131 695.958 C 947.528 696.060, 942.578 695.678, 941.131 695.108 C 937.119 693.529, 914.627 690.925, 911.097 691.631 C 909.382 691.974, 905.988 691.697, 903.554 691.015 C 898.364 689.562, 893.398 691.109, 892.370 694.499 C 891.474 697.454, 888.938 700, 886.890 700 C 884.931 700, 880 695.577, 880 693.819 C 880 692.735, 875.398 688, 874.345 688 C 874.041 688, 870.218 685.018, 865.849 681.374 L 857.904 674.747 848.702 674.885 C 843.103 674.969, 837.346 674.426, 834 673.497 C 830.975 672.658, 824.900 671.716, 820.500 671.404 C 816.100 671.092, 811.375 670.417, 810 669.905 C 806.678 668.667, 804.642 668.236, 790.344 665.740 C 779.536 663.853, 777.706 663.770, 773.844 664.989 C 771.455 665.743, 769.050 666.679, 768.500 667.068 C 767.950 667.458, 765.117 668.096, 762.205 668.488 L 756.910 669.200 750.976 662.850 C 747.712 659.358, 745.033 656.229, 745.021 655.898 C 745.009 655.567, 743.763 653.951, 742.250 652.307 C 737.259 646.881, 736.066 645.088, 731.907 636.754 C 729.641 632.214, 726.941 627.577, 725.906 626.449 C 724.872 625.321, 721.192 618.796, 717.728 611.949 C 712.016 600.655, 709.175 594.505, 702.742 579.500 C 701.563 576.750, 700.079 573.825, 699.444 573 C 698.810 572.175, 694.223 563.400, 689.251 553.500 C 680.433 535.940, 675.934 528.341, 671.044 522.750 C 667.743 518.975, 661.073 518.821, 658.216 522.452 M 1339.004 520.807 C 1337.081 521.003, 1334.871 521.689, 1334.092 522.332 C 1331.890 524.149, 1327.901 533.921, 1327.306 538.956 C 1327.011 541.455, 1325.648 546.188, 1324.278 549.472 C 1322.869 552.851, 1321.170 560.017, 1320.365 565.972 C 1319.583 571.763, 1317.832 579.875, 1316.474 584 C 1313.367 593.437, 1309.535 607.684, 1308 615.500 C 1305.764 626.885, 1301.758 639.525, 1297.885 647.409 C 1295.748 651.758, 1293.997 656.033, 1293.994 656.909 C 1293.990 657.784, 1293.368 659.687, 1292.612 661.137 C 1291.855 662.588, 1290.473 665.963, 1289.542 668.637 C 1288.610 671.312, 1286.996 674.850, 1285.954 676.500 C 1284.913 678.150, 1283.303 680.850, 1282.377 682.500 C 1281.451 684.150, 1278.869 687.664, 1276.640 690.309 C 1272.714 694.968, 1272.439 695.107, 1267.855 694.762 C 1263.801 694.458, 1262.356 693.697, 1257.769 689.453 C 1249.413 681.722, 1247.534 680.342, 1244.412 679.643 C 1236.007 677.762, 1193.778 680.166, 1184.500 683.054 C 1182.850 683.568, 1177.900 684.436, 1173.500 684.984 C 1161.749 686.447, 1156.112 688.071, 1155.441 690.187 C 1155.124 691.184, 1154.422 692, 1153.881 692 C 1153.339 692, 1152.425 693.350, 1151.850 695 C 1150.621 698.527, 1148.800 698.761, 1143.984 696.008 C 1142.068 694.913, 1137.858 692.629, 1134.628 690.932 L 1128.756 687.848 1093.811 688.907 C 1074.590 689.489, 1058.522 690.177, 1058.104 690.436 C 1057.685 690.694, 1054.453 691.202, 1050.922 691.564 C 1046.744 691.992, 1043.779 692.882, 1042.436 694.111 C 1041.300 695.150, 1039.725 696.033, 1038.936 696.073 C 1033.951 696.327, 1028.151 703.347, 1028.048 709.250 C 1028.019 710.927, 1027.450 712, 1026.590 712 C 1025.546 712, 1025.001 714.143, 1024.492 720.257 C 1023.538 731.711, 1024.540 739.380, 1027.783 745.431 L 1030.500 750.500 1073.500 750.418 C 1118.516 750.332, 1137.172 749.244, 1141.428 746.455 C 1142.799 745.557, 1144.018 743.668, 1144.191 742.174 C 1144.447 739.955, 1145.063 739.446, 1147.813 739.182 C 1149.772 738.994, 1152.748 739.709, 1155.094 740.932 C 1157.276 742.069, 1160.510 743.053, 1162.281 743.118 L 1165.500 743.237 1162.500 744.073 C 1155.125 746.128, 1189.543 742.288, 1209.500 738.829 C 1216.100 737.685, 1224.650 736.407, 1228.500 735.989 C 1232.350 735.571, 1239.775 734.455, 1245 733.508 C 1253.318 732, 1254.912 731.370, 1257.814 728.444 C 1261.578 724.649, 1263.018 724.354, 1281.500 723.587 C 1293.033 723.108, 1312.155 719.919, 1314.414 718.097 C 1315.011 717.615, 1321.800 715.100, 1329.500 712.508 C 1347.661 706.394, 1354.078 703.581, 1367.927 695.666 C 1372.579 693.007, 1377.761 689.407, 1379.442 687.666 C 1384.907 682.008, 1394.197 676.805, 1404.766 673.484 C 1407.662 672.574, 1413.512 669.781, 1417.766 667.279 C 1422.020 664.777, 1428.616 660.891, 1432.425 658.644 C 1436.234 656.397, 1440.312 653.646, 1441.487 652.530 C 1442.662 651.413, 1446.408 648.523, 1449.812 646.106 C 1453.215 643.690, 1456 641.428, 1456 641.080 C 1456 640.731, 1457.800 638.051, 1460 635.123 C 1462.200 632.195, 1464 629.306, 1464 628.704 C 1464 628.102, 1465.079 626.460, 1466.397 625.055 C 1467.715 623.650, 1469.087 620.693, 1469.445 618.484 C 1470.025 614.908, 1469.769 614.153, 1467.109 611.605 C 1464.175 608.794, 1463.974 608.754, 1455.811 609.376 C 1451.240 609.725, 1443.900 610.426, 1439.500 610.934 C 1435.100 611.442, 1431.185 611.890, 1430.801 611.929 C 1430.416 611.968, 1428.077 614.813, 1425.602 618.250 C 1421.141 624.448, 1413.017 631.616, 1405.693 635.817 C 1398.466 639.961, 1384.378 637.559, 1380.412 631.506 C 1379.421 629.993, 1378.328 624.048, 1377.435 615.308 C 1376.659 607.714, 1375.529 597, 1374.925 591.500 C 1374.321 586, 1373.621 579.257, 1373.370 576.515 C 1373.118 573.773, 1371.782 567.698, 1370.402 563.015 C 1369.021 558.332, 1367.475 551.125, 1366.966 547 C 1365.597 535.902, 1365.372 534.807, 1363.679 530.992 C 1359.565 521.725, 1353.714 519.309, 1339.004 520.807" stroke="none" fill="black" fill-rule="evenodd"/>
	<path fill-opacity="0.204" d="M -0 540.001 L -0 1080.001 960.250 1079.751 L 1920.500 1079.500 1920.751 539.750 L 1921.002 0 960.501 0 L 0 0 -0 540.001 M 0.496 540.500 C 0.496 837.500, 0.610 958.851, 0.750 810.168 C 0.890 661.485, 0.890 418.485, 0.750 270.168 C 0.610 121.851, 0.496 243.500, 0.496 540.500 M 1582.846 121.101 C 1576.889 122.627, 1559.397 132.928, 1552 139.266 C 1545.440 144.887, 1529.519 160.664, 1521.500 169.489 C 1517.100 174.332, 1512.671 179.015, 1511.657 179.897 C 1510.643 180.779, 1508.221 183.975, 1506.275 187 C 1502.627 192.670, 1481.579 214.104, 1475.773 218.062 C 1472.362 220.387, 1469.558 222.957, 1462 230.683 C 1459.525 233.213, 1453.563 239.200, 1448.750 243.987 C 1443.938 248.774, 1440 253.436, 1440 254.346 C 1440 255.256, 1439.556 256, 1439.013 256 C 1438.469 256, 1436.957 257.688, 1435.651 259.750 C 1432.389 264.901, 1416 283.233, 1416 281.730 C 1416 281.499, 1414.297 282.927, 1412.215 284.905 C 1410.134 286.882, 1404.171 292.231, 1398.965 296.791 C 1393.759 301.350, 1387.771 306.638, 1385.657 308.541 C 1383.544 310.443, 1381.270 312, 1380.604 312 C 1379.937 312, 1377.842 313.613, 1375.946 315.585 C 1374.051 317.557, 1371.150 319.868, 1369.500 320.721 C 1367.850 321.573, 1366.140 322.885, 1365.700 323.635 C 1365.260 324.386, 1364.278 325, 1363.518 325 C 1362.757 325, 1361.884 325.792, 1361.577 326.759 C 1361.269 327.726, 1360.173 328.964, 1359.139 329.509 C 1350.980 333.812, 1347.879 335.840, 1343.642 339.641 C 1340.970 342.039, 1338.095 344, 1337.254 344 C 1336.412 344, 1333.826 345.688, 1331.506 347.750 C 1325.116 353.432, 1321.254 356.281, 1316.711 358.665 C 1314.442 359.856, 1312.342 361.502, 1312.043 362.323 C 1311.091 364.940, 1301.624 370.531, 1295.763 371.937 C 1292.649 372.684, 1289.867 373.904, 1289.582 374.648 C 1289.296 375.391, 1288.389 376, 1287.567 376 C 1285.806 376, 1284 379.006, 1284 381.934 C 1284 383.730, 1283.379 384.002, 1279.250 384.015 C 1276.638 384.023, 1273.375 384.597, 1272 385.290 C 1269.045 386.780, 1268.095 390.914, 1270.410 392.209 C 1271.384 392.755, 1272 394.435, 1272 396.550 C 1272 399.908, 1272.106 400, 1276 400 C 1279.778 400, 1280 399.833, 1280 397 C 1280 394.261, 1280.293 394, 1283.364 394 C 1286.608 394, 1286.751 394.166, 1287.364 398.640 C 1287.714 401.191, 1288 405.691, 1288 408.640 C 1288 411.769, 1288.444 414, 1289.066 414 C 1289.653 414, 1289.990 415.238, 1289.816 416.750 C 1289.590 418.719, 1288.861 419.591, 1287.250 419.820 C 1286.013 419.995, 1285 420.602, 1285 421.169 C 1285 422.982, 1275.694 431.122, 1274.966 429.945 C 1274.494 429.181, 1273.863 429.250, 1272.868 430.176 C 1270.886 432.021, 1266.037 435.254, 1262.664 436.979 C 1259.633 438.530, 1252.489 446.869, 1250.652 451 C 1250.041 452.375, 1249.273 453.725, 1248.946 454 C 1248.620 454.275, 1246.810 457.425, 1244.926 461 C 1243.042 464.575, 1241.130 467.772, 1240.677 468.104 C 1240.225 468.436, 1240.162 470.349, 1240.539 472.354 C 1240.992 474.772, 1240.848 476, 1240.111 476 C 1239.420 476, 1239 478.266, 1239 482 C 1239 486.667, 1239.333 488, 1240.500 488 C 1241.646 488, 1242 489.261, 1242 493.345 C 1242 502.088, 1242.870 502.460, 1261.250 501.581 C 1269.638 501.180, 1278.975 500.404, 1282 499.857 C 1285.025 499.310, 1293.125 498.480, 1300 498.012 C 1306.875 497.544, 1315.850 496.600, 1319.944 495.914 C 1325.277 495.020, 1327.492 494.976, 1327.753 495.760 C 1328.149 496.947, 1334.126 496.451, 1337.500 494.952 C 1345.065 491.590, 1350.350 490.237, 1354.002 490.727 C 1358.964 491.393, 1359.549 493.981, 1354.750 494.039 L 1351.500 494.078 1354.500 495.404 C 1356.150 496.133, 1359.488 498.506, 1361.918 500.677 L 1366.335 504.625 1363.418 506.691 C 1361.813 507.827, 1358.475 509.122, 1356 509.569 C 1350.616 510.541, 1351.166 510.392, 1347.685 511.834 C 1346.137 512.475, 1343.887 513.007, 1342.685 513.016 C 1337.991 513.049, 1328.472 515.934, 1326.981 517.775 C 1326.121 518.837, 1324.423 520.238, 1323.209 520.888 C 1321.994 521.538, 1321 522.854, 1321 523.813 C 1321 524.771, 1320.293 526.565, 1319.428 527.799 C 1318.564 529.033, 1317.649 532.171, 1317.396 534.771 C 1316.684 542.083, 1315.993 545.304, 1314.837 546.697 C 1313.503 548.304, 1311.046 562.020, 1311.020 568.007 C 1311.009 570.485, 1310.521 574.085, 1309.935 576.007 C 1309.349 577.928, 1308.457 582.569, 1307.953 586.319 C 1307.420 590.288, 1306.194 594.324, 1305.019 595.974 C 1303.908 597.533, 1303 600.392, 1303 602.328 C 1303 610.193, 1296.435 637.272, 1292.794 644.421 C 1291.136 647.678, 1288.888 653.078, 1287.798 656.421 C 1286.709 659.765, 1284.509 665.344, 1282.909 668.820 C 1281.309 672.296, 1279.992 675.446, 1279.982 675.820 C 1279.945 677.277, 1270.330 686.761, 1268.207 687.434 C 1265.536 688.282, 1256.728 685.583, 1254.874 683.348 C 1254.170 682.500, 1250.829 680.499, 1247.450 678.903 C 1241.368 676.029, 1241.124 676, 1223.022 676 C 1211.804 676, 1201.022 676.575, 1195.119 677.489 C 1189.829 678.308, 1180.550 679.375, 1174.500 679.859 C 1162.400 680.829, 1153.961 682.821, 1151.142 685.371 C 1150.135 686.283, 1148.719 688.822, 1147.995 691.014 C 1147.272 693.207, 1146.541 695, 1146.370 695 C 1145.901 695, 1138.641 690.899, 1137.500 689.990 C 1136.950 689.551, 1134.475 688.137, 1132 686.846 L 1127.500 684.500 1099 685.209 C 1083.325 685.600, 1064.200 686.545, 1056.500 687.311 C 1042.996 688.653, 1042.282 688.841, 1036.342 692.601 C 1030.213 696.482, 1026 701.969, 1026 706.070 C 1026 707.105, 1025.102 709.425, 1024.004 711.226 C 1022.906 713.027, 1022.006 715.378, 1022.004 716.450 C 1021.998 719.589, 1020.415 716.969, 1019.014 711.500 C 1016.912 703.297, 1013.502 698.286, 1008.204 695.616 C 1003.673 693.333, 1002.376 693.219, 973 692.532 C 952.428 692.050, 940.059 691.327, 935 690.308 C 930.875 689.478, 919.785 688.563, 910.357 688.276 C 893.879 687.774, 893.188 687.831, 892.581 689.745 C 891.626 692.754, 888.392 695.260, 886.322 694.594 C 885.320 694.272, 882.269 691.245, 879.542 687.867 C 876.816 684.488, 873.206 681.149, 871.522 680.445 C 869.838 679.741, 867.626 678.244, 866.607 677.118 C 863.783 673.997, 857.474 672.198, 847 671.525 C 841.775 671.190, 835.852 670.478, 833.837 669.943 C 831.822 669.408, 825.522 668.302, 819.837 667.487 C 808.104 665.804, 797.978 663.801, 796.500 662.871 C 795.950 662.525, 791.575 661.923, 786.778 661.533 C 779.767 660.964, 777.433 661.136, 774.875 662.413 C 773.125 663.286, 770.937 664, 770.013 664 C 769.089 664, 768.034 664.299, 767.668 664.665 C 766.264 666.069, 761.647 665.816, 759.130 664.198 C 753.439 660.538, 740.432 642.604, 734.074 629.650 C 731.194 623.783, 728.488 619.199, 728.060 619.463 C 727.347 619.904, 715 594.915, 715 593.032 C 715 592.582, 712.857 588.002, 710.237 582.856 C 704.280 571.156, 696 553.528, 696 552.547 C 696 552.141, 695.082 550.520, 693.961 548.945 C 691.333 545.254, 680.015 523.934, 679.951 522.553 C 679.924 521.974, 678.127 519.700, 675.958 517.500 C 673.789 515.300, 672.011 512.953, 672.007 512.285 C 671.994 510.018, 667.553 508.629, 661 508.844 C 652.394 509.126, 651.450 509.503, 649.875 513.283 C 648.334 516.985, 648.464 557.533, 650.040 564.500 C 650.537 566.700, 651.435 574.327, 652.036 581.448 C 652.636 588.570, 653.381 594.807, 653.691 595.310 C 654.002 595.812, 654.631 599.211, 655.089 602.862 C 655.548 606.513, 656.564 612.650, 657.349 616.500 C 658.923 624.232, 659.487 642.790, 658.206 644.742 C 656.708 647.027, 648.366 647.457, 643.723 645.490 C 633.676 641.233, 631.076 639.764, 629.602 637.515 C 627.727 634.654, 624.243 628.644, 622.042 624.475 C 621.164 622.811, 619.292 619.886, 617.882 617.975 C 613.579 612.140, 612.538 608.485, 613.892 603.965 C 615.216 599.545, 617.352 598, 622.136 598 C 624.026 598, 627.569 596.687, 630.541 594.886 C 635.324 591.987, 635.837 591.285, 637.940 584.753 C 639.936 578.558, 640.134 576.398, 639.633 566.325 C 639.321 560.049, 638.825 554.526, 638.532 554.051 C 638.238 553.576, 637.544 542.233, 636.989 528.844 C 636.435 515.455, 635.548 497.975, 635.019 490 C 634.147 476.865, 634.466 450.782, 635.566 445.317 C 635.807 444.116, 636.881 442.855, 637.953 442.515 C 640.130 441.824, 648 443.649, 648 444.844 C 648 446.050, 671.736 457.528, 679.500 460.076 C 684.211 461.623, 689.011 462.395, 694.179 462.437 C 701.087 462.494, 702.141 462.241, 704.679 459.916 C 706.230 458.495, 709.290 456.312, 711.478 455.065 C 716.444 452.235, 721.030 448.658, 726.305 443.500 C 730.166 439.725, 730.735 439.500, 736.448 439.500 C 742.283 439.500, 745.668 440.930, 752.500 446.284 C 754.766 448.059, 764.880 453.666, 770.006 455.989 C 773.028 457.359, 775.725 458.723, 776 459.022 C 776.275 459.321, 779.650 460.774, 783.500 462.251 C 796.236 467.137, 808 469.417, 808 467 C 808 466.450, 809.548 466, 811.441 466 C 813.334 466, 815.139 465.585, 815.452 465.077 C 815.766 464.569, 817.296 463.874, 818.852 463.533 C 820.407 463.191, 824.041 461.356, 826.927 459.456 C 829.813 457.555, 832.826 456, 833.622 456 C 836.330 456, 839.763 452.933, 840.352 449.989 C 841.442 444.539, 849.086 445.046, 856 451.027 C 863.756 457.737, 873.514 461.038, 897 464.899 C 916.544 468.112, 932.243 468.682, 955 467.004 C 969.165 465.960, 972.665 464.941, 980.415 459.603 C 986.622 455.328, 992.365 454.073, 996.271 456.139 C 997.686 456.887, 1001.042 459.586, 1003.729 462.135 C 1014.592 472.444, 1025.050 474.738, 1065.500 475.685 C 1097.207 476.427, 1107.112 475.382, 1116.816 470.273 C 1120.758 468.198, 1126.198 464.344, 1128.904 461.710 C 1131.610 459.075, 1134.876 456.674, 1136.162 456.375 C 1140.299 455.412, 1144 455.299, 1144 456.136 C 1144 456.584, 1145.237 456.478, 1146.750 455.901 C 1148.263 455.324, 1151.044 454.652, 1152.930 454.409 C 1156.832 453.905, 1172.921 443.574, 1180.712 436.569 C 1183.507 434.056, 1186.178 431.998, 1186.647 431.995 C 1187.116 431.993, 1188.963 430.620, 1190.751 428.944 C 1194.389 425.534, 1200.557 422.608, 1202.098 423.561 C 1202.737 423.956, 1202.537 425.057, 1201.554 426.557 C 1200.699 427.862, 1200 429.368, 1200 429.904 C 1200 430.440, 1197.525 434.328, 1194.500 438.544 C 1191.475 442.761, 1189 446.601, 1189 447.079 C 1189 447.556, 1187.425 451.183, 1185.500 455.139 C 1183.179 459.908, 1182 463.761, 1182 466.576 C 1182 468.911, 1181.080 473.674, 1179.955 477.161 C 1178.830 480.647, 1177.638 487.019, 1177.307 491.320 C 1176.976 495.621, 1176.379 498.613, 1175.981 497.969 C 1175.583 497.325, 1174.949 498.981, 1174.573 501.649 C 1174.196 504.317, 1173.253 507.886, 1172.477 509.581 C 1171.409 511.914, 1171.037 518.149, 1170.942 535.279 C 1170.874 547.719, 1171.111 558.370, 1171.468 558.948 C 1171.826 559.527, 1172.965 560, 1174 560 C 1175.035 560, 1176.160 560.450, 1176.500 561 C 1177.472 562.573, 1180.907 562.170, 1182.898 560.250 C 1184.537 558.669, 1185.322 554.221, 1185.144 547.531 C 1185.115 546.448, 1185.599 545.248, 1186.219 544.864 C 1187.696 543.952, 1189.065 532.731, 1188.398 527 C 1188.071 524.186, 1188.489 520.627, 1189.515 517.500 C 1190.417 514.750, 1191.476 507.746, 1191.870 501.935 C 1192.432 493.625, 1193.139 490.209, 1195.180 485.935 C 1197.674 480.714, 1198.506 478.023, 1199.645 471.500 C 1200.622 465.896, 1203.297 461.514, 1210.022 454.500 C 1215.585 448.697, 1216.823 446.785, 1217.262 443.320 C 1217.553 441.022, 1218.654 438.214, 1219.709 437.082 C 1220.764 435.949, 1222.388 432.655, 1223.317 429.761 C 1224.455 426.217, 1226.637 422.782, 1230.003 419.235 C 1232.751 416.339, 1235 413.582, 1235 413.107 C 1235 412.633, 1235.602 411.745, 1236.338 411.134 C 1239.424 408.573, 1241.565 388.590, 1239.074 385.590 C 1237.156 383.278, 1218.243 374.444, 1213.397 373.596 C 1208.488 372.737, 1200 369.809, 1200 368.975 C 1200 368.629, 1190.881 368.239, 1179.736 368.108 C 1159.514 367.870, 1159.464 367.875, 1155.736 370.404 C 1153.681 371.799, 1152 372.690, 1152 372.386 C 1152 371.140, 1144.328 378.019, 1143.046 380.414 C 1140.855 384.509, 1136.339 383.956, 1131.500 379 C 1127.673 375.081, 1127.451 375, 1120.547 375 C 1112.331 375, 1103.510 376.753, 1093 380.473 C 1088.875 381.933, 1084.257 383.376, 1082.738 383.679 C 1081.219 383.983, 1079.729 384.629, 1079.429 385.115 C 1079.128 385.602, 1077.810 386, 1076.500 386 C 1075.190 386, 1073.840 386.450, 1073.500 387 C 1073.160 387.550, 1071.905 388, 1070.710 388 C 1068.851 388, 1064.701 389.383, 1055.500 393.069 C 1054.400 393.509, 1049.450 394.798, 1044.500 395.933 C 1030.025 399.251, 1026.649 400.169, 1024 401.509 C 1022.625 402.204, 1019.475 403.100, 1017 403.500 C 1014.525 403.899, 1012.050 404.567, 1011.500 404.985 C 1010.950 405.402, 1007.461 405.770, 1003.747 405.803 C 996.775 405.865, 994.552 406.916, 993.858 410.476 C 993.361 413.025, 990 413.391, 990 410.897 C 990 408.006, 984.315 405.008, 978.826 405.004 C 976.256 405.002, 971.981 404.574, 969.326 404.054 C 966.672 403.534, 961.350 402.607, 957.500 401.995 C 953.650 401.383, 946.900 399.823, 942.500 398.527 C 938.100 397.231, 928.650 394.549, 921.500 392.565 C 914.350 390.582, 905.125 387.996, 901 386.819 C 892.645 384.435, 883.018 382.432, 872.500 380.890 C 844.485 376.782, 838.890 376, 837.520 376 C 835.658 376, 831.796 381.969, 832.481 383.788 C 832.748 384.496, 832.368 385.305, 831.636 385.586 C 830.900 385.868, 827.486 383.405, 824 380.078 C 816.602 373.017, 813.088 371.666, 798 370.086 C 767.863 366.928, 755.344 366.381, 725.790 366.931 C 723.132 366.980, 721.394 367.741, 719.655 369.616 C 716.701 372.801, 713.018 372.584, 702.705 368.615 C 695.789 365.954, 688.617 365.192, 687.500 367 C 687.160 367.550, 682.746 368.014, 677.691 368.031 C 655.945 368.106, 619.823 371.174, 614.782 373.376 C 612.140 374.530, 607.944 375.015, 600.282 375.051 C 594.352 375.080, 586.350 375.544, 582.500 376.084 C 578.650 376.624, 571.450 377.481, 566.500 377.987 C 561.550 378.494, 554.575 379.376, 551 379.946 C 544.976 380.908, 527.526 382.629, 513.614 383.633 C 509.843 383.905, 506.698 384.791, 504.861 386.099 C 502.092 388.071, 500.513 388.148, 459.246 388.343 C 414.370 388.554, 402.490 388.136, 382 385.622 C 367.514 383.846, 353.069 383.537, 352.850 385 C 352.768 385.550, 352.655 386.450, 352.600 386.999 C 352.482 388.180, 364.566 396.965, 371 400.375 C 373.475 401.687, 377.975 403.090, 381 403.493 C 384.025 403.896, 388.525 404.963, 391 405.863 C 394.184 407.021, 399.155 407.532, 408 407.609 C 414.875 407.668, 422.294 408.068, 424.487 408.496 C 430.055 409.583, 435.296 413.153, 438.648 418.141 C 442.144 423.345, 449.782 430.847, 458.666 437.804 C 459.857 438.737, 461.657 440.181, 462.666 441.014 C 467.271 444.816, 471.489 447.375, 473.408 447.531 C 474.559 447.625, 480.343 448.300, 486.263 449.032 L 497.025 450.363 500.314 446.773 C 502.861 443.992, 504.676 443.021, 508.357 442.469 C 514.881 441.491, 519.717 442.453, 522.057 445.194 C 524.622 448.202, 528.628 456.734, 531.588 465.500 C 534.826 475.089, 559.327 523.340, 566.863 534.971 C 570.238 540.180, 573 545.028, 573 545.743 C 573 546.459, 574.730 548.947, 576.844 551.272 C 582.789 557.811, 590 571.127, 590 575.568 C 590 576.266, 588.377 577.840, 586.393 579.066 C 582.897 581.227, 582.476 581.258, 572.643 580.070 C 558.778 578.396, 558.202 578.247, 557.008 576.015 C 555.032 572.323, 545.879 563.972, 541.188 561.582 C 535.958 558.917, 531.580 554.906, 522 544.003 C 511.871 532.475, 505.814 527.047, 503 526.976 C 501.625 526.941, 498.700 526.210, 496.500 525.353 C 494.300 524.495, 490.250 522.971, 487.500 521.966 C 484.750 520.960, 482.533 519.770, 482.574 519.319 C 482.661 518.353, 471.208 513.069, 468.940 513.028 C 468.081 513.013, 464.698 511.949, 461.420 510.665 C 451.860 506.918, 434.217 504.699, 418.222 505.231 C 410.675 505.482, 403.712 506.031, 402.750 506.451 C 398.895 508.132, 401.775 514.646, 409 520.588 C 410.925 522.171, 412.827 523.977, 413.226 524.602 C 413.626 525.227, 415.313 526.301, 416.976 526.990 C 418.639 527.679, 420 528.583, 420 529 C 420 529.417, 421.333 530.309, 422.962 530.984 C 424.591 531.659, 427.095 533.747, 428.527 535.624 C 429.959 537.502, 431.551 538.777, 432.065 538.460 C 432.579 538.142, 433 538.259, 433 538.720 C 433 540.476, 440.115 546.778, 444.707 549.088 C 447.343 550.415, 449.725 551.755, 450 552.066 C 450.275 552.378, 452.949 553.839, 455.941 555.314 C 461.174 557.892, 474.194 569.749, 481.877 578.931 C 484.024 581.497, 489.129 585.126, 495.892 588.896 C 501.744 592.156, 507.381 595.764, 508.421 596.912 C 509.460 598.060, 510.733 599, 511.250 599 C 511.766 599, 515.207 601.025, 518.896 603.500 C 524.606 607.331, 526.343 608, 530.575 608 C 535.460 608, 535.685 608.139, 543.500 616 C 547.874 620.400, 551.971 624, 552.604 624 C 553.237 624, 554.366 624.736, 555.113 625.637 C 555.860 626.537, 558.476 628.132, 560.925 629.182 C 563.374 630.232, 568.331 633.268, 571.939 635.928 C 581.285 642.819, 594.497 649.181, 607.537 653.071 C 609.208 653.569, 613.131 656.255, 616.255 659.039 C 619.379 661.824, 622.737 664.259, 623.718 664.451 C 627.843 665.257, 638.616 669.276, 640.018 670.531 C 643.271 673.443, 650.616 675.957, 656 676 C 662.661 676.053, 668.355 678.474, 674.190 683.733 C 678.087 687.245, 689.068 693, 691.872 693 C 692.490 693, 695.808 694.314, 699.247 695.920 C 702.686 697.526, 709.550 700.037, 714.500 701.500 C 719.450 702.963, 725.300 704.995, 727.500 706.015 C 731.820 708.020, 738.736 710.456, 745.961 712.518 C 748.457 713.231, 752.375 714.516, 754.667 715.373 C 758.196 716.694, 760.125 716.760, 767.279 715.803 C 776.623 714.553, 779.957 715.316, 787.500 720.435 C 789.576 721.844, 792.900 723.397, 794.887 723.885 C 803.753 726.066, 813.544 728.086, 827 730.510 C 834.975 731.947, 844.081 733.770, 847.235 734.561 C 850.389 735.353, 855.126 736, 857.762 736 C 860.466 736, 863.516 736.673, 864.761 737.545 C 868.036 739.839, 890.381 741.710, 892.425 739.861 C 896.629 736.059, 897.208 735.816, 900.564 736.446 C 903.312 736.962, 904 737.557, 904 739.423 C 904 740.706, 904.563 742.188, 905.250 742.718 C 906.743 743.868, 928.488 747.551, 942.500 749.027 C 957.306 750.586, 997.100 752.971, 1008 752.953 C 1022.176 752.928, 1022.583 752.310, 1021.129 733.002 C 1020.168 720.229, 1020.966 713.656, 1022.162 724.500 C 1023.594 737.484, 1024.257 740.726, 1026.699 746.671 C 1028.678 751.492, 1029.809 752.991, 1031.866 753.526 C 1040.829 755.855, 1110.737 755.453, 1132.696 752.946 C 1144.402 751.609, 1144.526 751.544, 1146.378 745.750 C 1147.207 743.156, 1154.271 743.401, 1157.993 746.153 C 1160.709 748.161, 1161.634 748.260, 1171.703 747.620 C 1177.641 747.243, 1187 746.305, 1192.500 745.536 C 1198 744.767, 1207.900 743.390, 1214.500 742.477 C 1221.100 741.563, 1231.905 739.732, 1238.511 738.408 C 1245.116 737.084, 1252.554 736, 1255.038 736 C 1259.821 736, 1264 733.863, 1264 731.419 C 1264 728.999, 1268.598 727.985, 1278.824 728.150 C 1287.553 728.291, 1294.944 727.506, 1303.500 725.528 C 1317.114 722.382, 1355.745 709.108, 1359 706.458 C 1359.825 705.786, 1361.581 704.906, 1362.902 704.503 C 1364.223 704.099, 1367.421 702.521, 1370.008 700.996 C 1372.594 699.470, 1376.043 697.930, 1377.670 697.572 C 1379.298 697.215, 1382.900 694.802, 1385.674 692.211 C 1396.155 682.423, 1399.060 680.661, 1406.297 679.708 C 1408.385 679.432, 1411.760 678.074, 1413.797 676.689 C 1415.834 675.304, 1419.143 673.345, 1421.151 672.336 C 1431.547 667.109, 1442.258 660.467, 1448.641 655.291 C 1452.569 652.106, 1456.794 648.825, 1458.030 648 C 1463.642 644.255, 1466.170 641.402, 1470.451 633.979 C 1472.977 629.600, 1476.271 625.228, 1477.772 624.264 C 1480.857 622.281, 1487 616.103, 1487 614.983 C 1487 614.577, 1487.675 613.685, 1488.500 613 C 1489.325 612.315, 1490 610.271, 1490 608.457 C 1490 605.627, 1489.586 605.068, 1487.085 604.519 C 1485.481 604.166, 1482.785 602.556, 1481.094 600.939 C 1478.651 598.604, 1477.142 598.009, 1473.759 598.044 C 1468.915 598.094, 1462.685 600.070, 1460.155 602.360 C 1457.287 604.955, 1447.069 607.306, 1436 607.919 L 1425.500 608.500 1418.268 615.878 C 1411.382 622.902, 1401.902 630, 1399.406 630 C 1397.061 630, 1391.441 627.110, 1389.367 624.837 C 1384.190 619.165, 1383.894 617.352, 1381.555 577 C 1381.316 572.875, 1380.702 566.575, 1380.191 563 C 1379.679 559.425, 1378.721 552.675, 1378.062 548 C 1377.403 543.325, 1376.517 537.160, 1376.093 534.301 C 1375.355 529.330, 1375.408 529.148, 1377.295 530.158 C 1378.380 530.739, 1383.808 531.278, 1389.355 531.357 C 1399.045 531.494, 1399.491 531.598, 1400.706 534 C 1401.401 535.375, 1401.977 537.777, 1401.985 539.337 C 1401.997 541.577, 1401.369 542.412, 1399 543.306 C 1395.612 544.585, 1395.355 545.220, 1397.500 547 C 1398.325 547.685, 1399 548.812, 1399 549.506 C 1399 550.200, 1400.800 552.393, 1403 554.381 C 1405.200 556.369, 1407 558.391, 1407 558.875 C 1407 559.359, 1407.675 560.315, 1408.500 561 C 1409.569 561.887, 1410 564.234, 1410 569.168 C 1410 575.148, 1410.328 576.419, 1412.407 578.498 C 1414.396 580.487, 1415.481 580.805, 1418.657 580.331 C 1420.771 580.015, 1423.047 579.071, 1423.717 578.233 C 1424.518 577.229, 1427.639 576.471, 1432.869 576.012 C 1441.440 575.258, 1445.067 573.310, 1448.327 567.712 C 1449.220 566.179, 1451.649 564.137, 1453.725 563.175 C 1455.801 562.213, 1460.713 558.226, 1464.639 554.315 C 1468.565 550.405, 1472.728 546.904, 1473.889 546.535 C 1475.050 546.167, 1476 545.446, 1476 544.933 C 1476 544.420, 1476.835 544, 1477.855 544 C 1478.875 544, 1480.788 542.717, 1482.105 541.148 C 1483.422 539.580, 1485.616 537.709, 1486.979 536.990 C 1488.343 536.272, 1489.989 535.193, 1490.637 534.592 C 1491.284 533.991, 1494.331 531.950, 1497.407 530.055 C 1500.615 528.078, 1503 525.892, 1503 524.927 C 1503 524.002, 1503.661 522.697, 1504.468 522.027 C 1505.275 521.356, 1505.838 520.493, 1505.718 520.107 C 1505.598 519.721, 1506.765 517.898, 1508.310 516.054 L 1511.121 512.703 1527.310 512.619 C 1541.054 512.548, 1543.999 512.805, 1546.801 514.320 C 1548.617 515.302, 1550.294 516.644, 1550.527 517.302 C 1550.760 517.961, 1550.115 520.975, 1549.094 524 C 1546.922 530.435, 1547.354 531.324, 1554.350 534.818 C 1557.285 536.284, 1560.564 537, 1564.342 537 C 1569.118 537, 1570.920 536.415, 1576.307 533.118 C 1579.796 530.983, 1583.979 528.944, 1585.604 528.587 C 1587.228 528.230, 1590.119 526.603, 1592.029 524.972 C 1593.938 523.340, 1595.765 522.004, 1596.089 522.002 C 1596.414 522.001, 1597.203 520.850, 1597.844 519.444 C 1598.484 518.038, 1599.368 517.109, 1599.808 517.381 C 1600.247 517.653, 1603.868 514.753, 1607.854 510.938 C 1611.839 507.122, 1615.532 504, 1616.059 504 C 1617.109 504, 1620.759 500.929, 1627.945 494 C 1630.512 491.525, 1635.399 486.919, 1638.806 483.764 C 1642.213 480.609, 1645 477.629, 1645 477.141 C 1645 475.968, 1653.799 461.202, 1656.434 457.953 C 1657.570 456.553, 1659.374 453.770, 1660.442 451.770 C 1661.509 449.770, 1663.159 447.930, 1664.108 447.682 C 1665.056 447.434, 1667.028 444.703, 1668.490 441.613 C 1669.951 438.524, 1671.766 435.377, 1672.521 434.621 C 1674.434 432.708, 1679.151 419.909, 1683.620 404.500 C 1685.056 399.550, 1686.742 395.050, 1687.366 394.500 C 1689.667 392.471, 1691.823 386.155, 1692.513 379.421 C 1692.903 375.615, 1693.817 371.150, 1694.543 369.500 C 1697.082 363.739, 1699 356.905, 1699 353.624 C 1699 351.806, 1699.702 348.109, 1700.559 345.409 C 1703.654 335.667, 1706.916 294.001, 1705.067 287.830 C 1704.438 285.730, 1703.699 274.896, 1703.426 263.756 C 1702.695 234.013, 1700.790 219.857, 1696.441 211.846 C 1695.648 210.386, 1695 208.282, 1695 207.171 C 1695 204.829, 1689.317 190.147, 1687.636 188.148 C 1686.476 186.768, 1679.768 174.799, 1675.998 167.383 C 1674.846 165.118, 1671.029 160.245, 1667.514 156.553 C 1663.999 152.861, 1660.851 148.639, 1660.517 147.170 C 1659.853 144.252, 1652.439 138.612, 1647.750 137.459 C 1646.237 137.087, 1645 136.462, 1645 136.069 C 1645 135.676, 1643.088 134.397, 1640.750 133.226 C 1638.412 132.055, 1634.950 129.950, 1633.056 128.549 C 1631.161 127.147, 1628.831 126, 1627.877 126 C 1626.923 126, 1625.413 125.270, 1624.520 124.377 C 1621.477 121.334, 1591.223 118.956, 1582.846 121.101 M 1366 513.383 C 1366 514.271, 1370.046 514.735, 1370.558 513.906 C 1370.866 513.408, 1369.966 513, 1368.559 513 C 1367.152 513, 1366 513.173, 1366 513.383 M 1371.531 516.146 C 1370.847 518.049, 1371.415 520.815, 1372.766 522.166 C 1373.441 522.841, 1376.294 523.190, 1379.706 523.016 C 1382.893 522.854, 1386.513 522.736, 1387.750 522.755 C 1389.553 522.782, 1390 522.235, 1390 520.004 C 1390 517.254, 1389.907 517.213, 1382.750 516.769 C 1378.763 516.522, 1374.716 515.976, 1373.758 515.556 C 1372.635 515.064, 1371.844 515.273, 1371.531 516.146 M 1381.149 519.604 C 1380.406 520.444, 1380.093 521.426, 1380.453 521.787 C 1380.814 522.147, 1381.534 521.780, 1382.054 520.971 C 1382.887 519.676, 1383.113 519.676, 1383.946 520.971 C 1384.466 521.780, 1385.194 522.139, 1385.565 521.769 C 1385.935 521.398, 1385.542 520.399, 1384.690 519.548 C 1382.829 517.686, 1382.845 517.686, 1381.149 519.604 M 1172.374 584.261 C 1170.654 586.042, 1168.243 589.847, 1167.015 592.716 C 1164.945 597.554, 1164.870 598.424, 1165.984 604.716 C 1166.645 608.447, 1167.345 615.700, 1167.540 620.834 C 1167.873 629.630, 1168.904 633, 1171.262 633 C 1171.822 633, 1172.779 633.621, 1173.390 634.380 C 1174 635.139, 1175.702 636.039, 1177.171 636.379 C 1179.520 636.924, 1179.920 636.641, 1180.495 634.024 C 1180.854 632.387, 1180.892 630.634, 1180.579 630.128 C 1180.266 629.621, 1180.665 627.698, 1181.466 625.853 C 1182.267 624.009, 1183.011 622.950, 1183.119 623.500 C 1183.228 624.050, 1183.590 620.675, 1183.923 616 C 1184.347 610.064, 1185.204 606.209, 1186.765 603.219 C 1189.413 598.147, 1189.617 592.582, 1187.360 586.942 C 1184.641 580.147, 1177.566 578.881, 1172.374 584.261" stroke="none" fill="black" fill-rule="evenodd"/>
	<path fill-opacity="0.976" d="M -0 540.001 L -0 1080.001 960.250 1079.751 L 1920.500 1079.500 1920.751 539.750 L 1921.002 0 960.501 0 L 0 0 -0 540.001 M 0.496 540.500 C 0.496 837.500, 0.610 958.851, 0.750 810.168 C 0.890 661.485, 0.890 418.485, 0.750 270.168 C 0.610 121.851, 0.496 243.500, 0.496 540.500 M 1599.500 108.927 C 1594.469 109.814, 1579.804 116.598, 1578.716 118.543 C 1578.267 119.344, 1577.131 120, 1576.190 120 C 1575.249 120, 1573.326 121.069, 1571.917 122.376 C 1570.507 123.684, 1568.283 125.093, 1566.973 125.508 C 1565.664 125.924, 1563.999 126.859, 1563.272 127.585 C 1560.441 130.416, 1553.248 136.002, 1552.397 136.030 C 1551.904 136.046, 1548.800 138.577, 1545.500 141.654 C 1542.200 144.731, 1537.293 149.106, 1534.596 151.375 C 1531.898 153.644, 1528.523 156.828, 1527.096 158.451 C 1525.668 160.075, 1523.436 162.386, 1522.136 163.588 C 1517.042 168.297, 1517.222 168.106, 1501 185.988 C 1492.965 194.845, 1466.307 221.598, 1446.500 240.683 C 1441.550 245.453, 1435.925 251.703, 1434 254.573 C 1426.967 265.058, 1421.547 271.599, 1416.246 276 C 1413.264 278.475, 1407.701 283.425, 1403.883 287 C 1400.066 290.575, 1395.695 294.183, 1394.170 295.017 C 1392.646 295.852, 1389.719 298.215, 1387.666 300.267 C 1385.613 302.320, 1383.611 304.003, 1383.217 304.006 C 1382.822 304.010, 1380.025 306.300, 1377 309.097 C 1373.975 311.894, 1368.523 316.186, 1364.883 318.634 C 1361.244 321.083, 1357.228 324.193, 1355.959 325.544 C 1354.690 326.895, 1353.232 328, 1352.720 328 C 1352.207 328, 1349.941 329.462, 1347.684 331.250 C 1345.427 333.038, 1343.338 334.457, 1343.040 334.403 C 1342.485 334.304, 1337.256 338.382, 1331.695 343.250 C 1329.968 344.762, 1328.195 346, 1327.756 346 C 1327.316 346, 1324.154 348.183, 1320.729 350.851 C 1315.084 355.246, 1307.681 359.885, 1301 363.213 C 1299.625 363.898, 1298.135 365.039, 1297.689 365.750 C 1297.242 366.461, 1296.486 366.800, 1296.008 366.505 C 1295.529 366.209, 1294.856 366.425, 1294.510 366.984 C 1294.165 367.543, 1293.163 368, 1292.285 368 C 1291.407 368, 1289.296 369.046, 1287.594 370.325 C 1285.892 371.604, 1282.475 373.737, 1280 375.066 C 1277.525 376.394, 1274.150 378.432, 1272.500 379.593 C 1269.614 381.624, 1266.714 383.038, 1264.408 383.539 C 1263.807 383.670, 1261.107 385.309, 1258.408 387.181 C 1255.708 389.053, 1252.307 390.705, 1250.848 390.851 C 1248.454 391.092, 1248.127 390.712, 1247.493 386.960 C 1246.718 382.373, 1248.900 383.756, 1225 372.704 C 1220.875 370.796, 1215.025 368.905, 1212 368.500 C 1208.975 368.096, 1205.150 367.059, 1203.500 366.196 C 1195.411 361.962, 1164.932 362.001, 1160.265 366.250 C 1159.208 367.212, 1157.392 368, 1156.230 368 C 1155.069 368, 1153.835 368.457, 1153.490 369.016 C 1153.144 369.575, 1152.492 369.804, 1152.040 369.525 C 1151.588 369.245, 1149.031 371.033, 1146.359 373.498 C 1143.687 375.962, 1140.792 377.983, 1139.926 377.989 C 1139.060 377.995, 1136.137 376.425, 1133.429 374.500 C 1129.211 371.501, 1127.718 371.005, 1123.003 371.035 C 1115.638 371.082, 1103.085 373.387, 1099.168 375.413 C 1097.426 376.314, 1096 376.838, 1096 376.577 C 1096 376.316, 1094.313 376.818, 1092.250 377.692 C 1090.188 378.567, 1087.150 379.634, 1085.500 380.064 C 1083.850 380.494, 1079.350 381.939, 1075.500 383.275 C 1071.650 384.611, 1066.475 386.279, 1064 386.982 C 1061.525 387.684, 1058.150 388.837, 1056.500 389.544 C 1054.850 390.250, 1049.225 391.811, 1044 393.013 C 1038.775 394.214, 1032.250 396.028, 1029.500 397.042 C 1026.750 398.057, 1022.250 399.195, 1019.500 399.571 C 1016.750 399.948, 1013.687 400.678, 1012.693 401.193 C 1011.700 401.709, 1007.762 402.338, 1003.944 402.590 C 1000.125 402.843, 995.876 403.477, 994.500 404 C 992.854 404.626, 991.061 404.582, 989.250 403.870 C 987.737 403.276, 980.875 401.959, 974 400.943 C 951.722 397.649, 949.591 397.247, 943.085 395.109 C 939.557 393.949, 936.069 393, 935.335 393 C 934.601 393, 934 392.578, 934 392.061 C 934 391.545, 931.862 390.843, 929.250 390.501 C 926.638 390.158, 922.700 389.278, 920.500 388.544 C 914.620 386.583, 897.941 382.368, 886.500 379.952 C 881 378.791, 874.583 377.419, 872.241 376.904 C 869.898 376.388, 864.498 375.720, 860.241 375.418 C 855.983 375.116, 848.575 374.212, 843.778 373.409 C 834.223 371.809, 830.376 372.239, 829.498 375.007 C 828.741 377.392, 825.820 378.448, 824.526 376.804 C 822.332 374.016, 816.274 370.234, 811.500 368.671 C 808.750 367.772, 800.425 366.568, 793 365.997 C 785.575 365.426, 777.700 364.529, 775.500 364.003 C 773.300 363.478, 759.272 363.037, 744.327 363.024 L 717.153 363 714.188 365.495 L 711.222 367.991 705.499 365.371 L 699.777 362.751 676.138 363.956 C 663.137 364.618, 648.675 365.578, 644 366.088 C 634.671 367.106, 620.492 368.339, 600.500 369.873 C 585.618 371.014, 563.456 373.861, 560.500 375.011 C 559.400 375.438, 549.725 376.519, 539 377.413 C 507.472 380.039, 497.562 381.221, 496.500 382.486 C 494.061 385.389, 396.972 384.925, 369 381.876 C 356.113 380.471, 342.938 380.677, 341.282 382.308 C 339.691 383.875, 343.835 389.359, 348.338 391.644 C 350.077 392.527, 353.300 394.656, 355.500 396.375 C 362.424 401.785, 373.352 406.515, 382.042 407.862 C 385.594 408.413, 391.425 409.544, 395 410.375 C 398.575 411.207, 405.775 412.194, 411 412.570 C 423.665 413.481, 428.977 416.051, 437.110 425.202 C 440.473 428.986, 445.536 433.585, 448.362 435.422 C 451.188 437.258, 455.506 440.840, 457.958 443.381 C 461.122 446.659, 463.210 448, 465.149 448 C 466.652 448, 468.134 448.408, 468.442 448.906 C 468.750 449.405, 471.355 450.136, 474.231 450.532 C 477.107 450.927, 481.213 451.869, 483.356 452.625 C 488.683 454.505, 503.082 454.410, 507.739 452.464 C 513.943 449.873, 518.578 453.491, 522.500 463.986 C 523.325 466.194, 524.645 469.719, 525.433 471.821 C 528.035 478.755, 533.057 489.087, 538.644 499 C 539.419 500.375, 543.442 508.329, 547.584 516.675 C 551.725 525.021, 555.824 532.439, 556.693 533.160 C 558.696 534.822, 562.704 541.103, 565.722 547.307 C 567.007 549.950, 569.621 553.484, 571.530 555.160 C 573.438 556.836, 575 558.960, 575 559.881 C 575 560.802, 575.606 562.443, 576.347 563.527 C 578.234 566.291, 581.074 575.070, 580.423 576.125 C 580.125 576.606, 577.901 577, 575.480 577 C 571.741 577, 570.237 576.315, 565.498 572.455 C 556.431 565.070, 555.955 564.667, 551.636 560.722 C 549.361 558.644, 545.675 555.840, 543.444 554.490 C 541.213 553.141, 534.369 546.474, 528.236 539.674 C 515.671 525.743, 510.636 522.601, 498.543 521.145 C 493.592 520.549, 491.307 519.729, 489.240 517.807 C 484.292 513.206, 481.576 512.083, 469.467 509.637 C 462.885 508.307, 456.150 506.657, 454.500 505.969 L 451.500 504.719 454 503.931 C 455.375 503.497, 442.775 503.223, 426 503.321 C 397.435 503.489, 395.283 503.627, 392.080 505.509 C 390.199 506.614, 388.484 508.048, 388.269 508.694 C 388.053 509.341, 389.678 511.812, 391.879 514.185 C 397.397 520.134, 397.611 520.331, 405.500 526.752 C 409.350 529.885, 414.525 534.339, 417 536.651 C 419.475 538.962, 423.229 542.026, 425.341 543.459 C 427.454 544.891, 430.221 547.287, 431.489 548.782 C 432.757 550.277, 438.150 553.750, 443.472 556.500 C 454.140 562.012, 460.523 566.874, 461.560 570.278 C 462.469 573.264, 464.973 576, 466.797 576 C 467.615 576, 470.583 577.941, 473.392 580.313 C 479.028 585.071, 490.911 592, 493.437 592 C 494.324 592, 495.457 593.071, 495.955 594.381 C 496.981 597.081, 510.046 606.200, 515.436 607.979 C 517.396 608.626, 519 609.510, 519 609.945 C 519 611.565, 526.742 615.780, 531.043 616.502 C 534.492 617.080, 536.253 618.126, 538.828 621.125 C 540.658 623.256, 542.942 625, 543.904 625 C 544.865 625, 546.742 626.169, 548.076 627.597 C 549.409 629.026, 552.300 631.112, 554.500 632.234 C 556.700 633.356, 559.772 635.337, 561.327 636.637 C 562.882 637.937, 565.342 639.299, 566.794 639.663 C 568.246 640.028, 573.949 643.347, 579.467 647.038 C 586.114 651.486, 591.968 654.522, 596.813 656.035 C 600.834 657.290, 605.784 659.645, 607.813 661.268 C 612.038 664.649, 619.821 668.328, 628.500 671.048 C 631.800 672.083, 637.206 674.688, 640.512 676.838 C 644.648 679.527, 648.202 680.978, 651.897 681.486 C 658.451 682.387, 670.109 687.072, 674.050 690.388 C 675.644 691.730, 678.648 693.379, 680.725 694.051 C 682.801 694.724, 686.300 696.069, 688.500 697.039 C 690.700 698.010, 695.142 699.973, 698.371 701.402 C 701.600 702.831, 704.966 704, 705.852 704 C 707.669 704, 716.484 707.229, 722.500 710.098 C 724.700 711.147, 728.119 712.004, 730.097 712.003 C 732.277 712.001, 734.614 712.798, 736.029 714.025 C 737.313 715.139, 740.869 716.733, 743.932 717.569 C 746.994 718.404, 750.281 719.518, 751.236 720.044 C 752.191 720.570, 758.455 721, 765.156 721 C 776.985 721, 777.500 721.092, 782.919 724.160 C 785.989 725.899, 791.200 727.876, 794.500 728.556 C 797.800 729.235, 804.100 730.696, 808.500 731.804 C 816.824 733.899, 823.628 735.106, 838 737.039 C 845.794 738.088, 858.078 740.741, 865.500 742.979 C 869.923 744.312, 883.351 746, 889.537 746 C 893.906 746, 895.133 745.620, 896 744 C 897.474 741.246, 898.644 741.477, 902.327 745.250 C 905.167 748.159, 906.444 748.629, 914.500 749.732 C 919.450 750.410, 929.125 751.403, 936 751.938 C 942.875 752.473, 951.875 753.384, 956 753.961 C 968.770 755.747, 1013.375 757.930, 1017.614 756.976 C 1019.920 756.457, 1022.389 754.989, 1023.686 753.364 L 1025.873 750.627 1027.022 753.148 C 1029.372 758.306, 1032.277 759.017, 1053.205 759.560 C 1063.817 759.835, 1087.350 759.557, 1105.500 758.941 C 1143.408 757.655, 1147.649 756.955, 1150.898 751.449 C 1153.282 747.408, 1154.510 747.194, 1157.775 750.250 C 1159.938 752.275, 1161.044 752.475, 1168.839 752.248 C 1173.603 752.109, 1179.750 751.538, 1182.500 750.979 C 1185.250 750.421, 1192 749.562, 1197.500 749.072 C 1213.918 747.608, 1231.864 745.134, 1242.500 742.868 C 1248 741.696, 1254.975 740.423, 1258 740.040 C 1264.587 739.205, 1268.755 737.347, 1269.532 734.899 C 1270.342 732.346, 1273.240 731.718, 1278.134 733.036 C 1282.676 734.259, 1297.648 733.465, 1299.591 731.898 C 1300.192 731.414, 1304.349 730.323, 1308.829 729.473 C 1313.309 728.623, 1322.879 725.694, 1330.096 722.964 C 1337.312 720.234, 1344.299 718, 1345.622 718 C 1346.945 718, 1348.809 717.592, 1349.764 717.094 C 1350.719 716.596, 1354.425 714.999, 1358 713.544 C 1361.575 712.090, 1365.175 710.492, 1366 709.994 C 1371.474 706.687, 1383.260 700.221, 1387.250 698.336 C 1389.862 697.102, 1392 695.656, 1392 695.123 C 1392 692.531, 1398.102 688.213, 1402.707 687.545 C 1408.113 686.762, 1420.083 681.514, 1421.300 679.393 C 1421.740 678.627, 1422.720 678, 1423.478 678 C 1424.237 678, 1425.452 677.427, 1426.179 676.727 C 1426.905 676.027, 1430.650 673.889, 1434.500 671.977 C 1438.350 670.065, 1441.950 668.014, 1442.500 667.419 C 1443.610 666.219, 1452.585 660.123, 1460.046 655.500 C 1468.421 650.311, 1477.879 641.723, 1477.942 639.250 C 1478.020 636.213, 1480.975 633.459, 1487.439 630.399 C 1493.781 627.396, 1495.322 625.824, 1496.978 620.668 C 1497.655 618.560, 1499.282 614.960, 1500.593 612.668 C 1501.903 610.375, 1502.981 607.064, 1502.988 605.309 C 1502.995 603.554, 1503.450 601.840, 1504 601.500 C 1505.441 600.609, 1505.243 599.586, 1503.166 597.191 C 1500.490 594.106, 1496.506 592.884, 1487.500 592.387 C 1483.100 592.144, 1478.285 591.748, 1476.799 591.507 C 1475.314 591.267, 1472.839 591.456, 1471.299 591.929 C 1469.760 592.402, 1465.966 593.306, 1462.869 593.939 C 1458.336 594.866, 1456.357 595.958, 1452.719 599.545 L 1448.201 604 1435.850 604.028 C 1422.027 604.060, 1418.655 605.159, 1411.289 612.038 C 1407.001 616.042, 1403.550 617.583, 1396.879 618.470 L 1392.259 619.084 1391.129 614.599 C 1389.731 609.048, 1389.648 599, 1391 599 C 1391.550 599, 1392 598.351, 1392 597.557 C 1392 594.056, 1396.022 593, 1409.354 593 C 1423.406 593, 1425.459 592.358, 1432.500 585.763 C 1435.914 582.565, 1442.186 580.496, 1455.693 578.113 C 1460.856 577.202, 1465.075 576.134, 1465.068 575.739 C 1465.038 574.070, 1466.481 571.362, 1468.420 569.447 C 1470.390 567.503, 1488.180 561, 1491.529 561 C 1492.391 561, 1494.987 560.052, 1497.298 558.893 C 1500.088 557.493, 1503.279 556.811, 1506.796 556.862 C 1512.954 556.951, 1514 557.415, 1514 560.059 C 1514 561.127, 1514.482 562, 1515.071 562 C 1515.661 562, 1516.831 562.688, 1517.671 563.528 C 1519.681 565.538, 1534.503 564.603, 1544.500 561.835 C 1548.350 560.769, 1553.075 559.455, 1555 558.914 C 1556.925 558.373, 1559.400 557.764, 1560.500 557.560 C 1564.310 556.856, 1573.502 553.779, 1574 553.041 C 1574.275 552.634, 1578.550 550.295, 1583.500 547.844 C 1593.964 542.661, 1602.673 537.376, 1603.747 535.557 C 1604.161 534.856, 1605.706 533.657, 1607.180 532.892 C 1610.391 531.225, 1617.127 525.402, 1628.745 514.250 C 1633.472 509.712, 1637.523 506, 1637.748 506 C 1638.855 506, 1649.957 495.333, 1649.977 494.250 C 1649.990 493.563, 1650.367 493, 1650.816 493 C 1651.265 493, 1654.327 490.412, 1657.621 487.250 C 1662.934 482.149, 1665.713 478.464, 1672.503 467.515 C 1673.521 465.874, 1675.962 462.796, 1677.927 460.677 C 1682.291 455.970, 1690.322 444.079, 1692.089 439.708 C 1692.803 437.943, 1693.689 436.275, 1694.059 436 C 1694.429 435.725, 1697.042 430.822, 1699.866 425.104 C 1704.654 415.407, 1705 414.207, 1705 407.261 C 1705 402.091, 1705.727 397.627, 1707.379 392.657 C 1710.411 383.537, 1712 376.774, 1712 372.986 C 1712 371.344, 1712.399 370, 1712.886 370 C 1713.374 370, 1714.088 367.863, 1714.472 365.250 C 1715.258 359.908, 1718.386 347.789, 1720.730 341 C 1722.413 336.126, 1723.602 324.918, 1724.603 304.500 C 1725.115 294.060, 1724.808 288.251, 1723.045 275 C 1721.838 265.925, 1720.634 250.787, 1720.370 241.359 C 1719.896 224.424, 1719.842 224.082, 1715.854 212.859 C 1713.634 206.612, 1710.984 198.800, 1709.966 195.500 C 1707.510 187.544, 1705.162 181.154, 1703.550 178.040 C 1698.766 168.803, 1697.127 165.085, 1696.479 162 C 1695.632 157.965, 1695.225 157.319, 1688.527 149.388 C 1679.466 138.658, 1664.272 124.499, 1660.288 123.074 C 1652.438 120.264, 1643.789 115.879, 1641.415 113.506 C 1640.063 112.153, 1638.145 110.613, 1637.155 110.083 C 1634.919 108.886, 1604.954 107.967, 1599.500 108.927 M 1191.440 430.299 C 1189.757 431.510, 1185.032 435.238, 1180.940 438.584 C 1169.002 448.347, 1162.053 452.739, 1152.500 456.559 C 1149.977 457.568, 1148.051 457.844, 1140.115 458.336 C 1135.529 458.620, 1133.471 459.194, 1132.810 460.375 C 1132.305 461.278, 1129.441 463.827, 1126.448 466.039 C 1110.937 477.497, 1104.094 478.653, 1061 477.098 C 1044.775 476.513, 1028.441 475.591, 1024.702 475.050 C 1016.419 473.851, 1008.080 469.607, 1000.793 462.883 C 997.882 460.196, 994.673 457.731, 993.663 457.404 C 990.992 456.540, 985.408 457.804, 983.908 459.611 C 983.197 460.468, 979.439 462.794, 975.558 464.780 L 968.500 468.392 946 469.348 C 926.994 470.156, 921.404 470.048, 910 468.652 C 895.855 466.922, 877.908 463.811, 874.500 462.500 C 867.342 459.744, 858.043 454.917, 856.878 453.352 C 855.101 450.964, 849.751 448, 847.218 448 C 844.986 448, 842.538 450.444, 843.390 451.823 C 843.965 452.752, 841.697 455.123, 839 456.414 C 838.175 456.809, 835.250 458.427, 832.500 460.009 C 819.014 467.770, 810.855 470.439, 803.623 469.457 C 797.698 468.652, 787.461 465.643, 783.341 463.494 C 781.778 462.679, 779.739 462.010, 778.809 462.006 C 777.879 462.003, 776.874 461.605, 776.576 461.123 C 776.278 460.641, 773.439 459.198, 770.267 457.917 C 764.125 455.438, 752.722 449.042, 752.167 447.766 C 751.983 447.345, 751.428 447, 750.932 447 C 750.436 447, 747.836 445.650, 745.154 444 C 738.883 440.141, 736.851 440.222, 732.697 444.500 C 730.828 446.425, 728.886 448, 728.382 448 C 727.878 448, 725.223 449.936, 722.483 452.303 C 719.742 454.669, 714.279 458.726, 710.343 461.318 L 703.186 466.030 692.843 464.494 C 679.853 462.564, 675.212 461.076, 661.500 454.444 C 654.460 451.040, 648.895 449.012, 646.043 448.812 L 641.587 448.500 641.240 469.323 C 640.897 489.929, 641.552 495.960, 644.323 497.720 C 645.420 498.416, 648.633 498.869, 664.788 500.604 C 670.778 501.248, 671.226 501.487, 674.208 505.640 C 675.930 508.038, 677.622 510, 677.969 510 C 678.315 510, 679.184 511.619, 679.899 513.599 C 680.615 515.578, 682.532 519.170, 684.159 521.581 C 685.787 523.992, 688.938 529.460, 691.163 533.732 C 693.387 538.005, 695.836 542.210, 696.604 543.079 C 697.372 543.947, 698 545.100, 698 545.642 C 698 546.183, 699.125 548.958, 700.500 551.808 C 701.875 554.658, 703 557.442, 703 557.995 C 703 558.548, 703.337 559.002, 703.750 559.004 C 704.163 559.006, 705.335 561.038, 706.356 563.520 C 707.377 566.002, 709.177 569.488, 710.356 571.266 C 711.535 573.045, 713.113 576.300, 713.861 578.500 C 714.610 580.700, 716.522 584.564, 718.111 587.088 C 719.700 589.611, 721 591.964, 721 592.318 C 721 592.672, 722.800 596.750, 725 601.381 C 727.200 606.011, 729 610.220, 729 610.734 C 729 611.248, 730.800 614.238, 733 617.379 C 735.200 620.519, 737 623.431, 737 623.848 C 737 624.266, 738.523 626.084, 740.384 627.888 C 742.425 629.866, 743.592 631.845, 743.323 632.873 C 743.078 633.811, 743.805 635.418, 744.938 636.444 C 746.072 637.470, 747 638.655, 747 639.077 C 747 640.047, 755.438 653.062, 757.191 654.795 C 757.911 655.507, 760.416 657.612, 762.758 659.472 C 766.483 662.432, 767.406 662.744, 770.131 661.962 C 771.844 661.471, 774.423 660.297, 775.863 659.354 C 778.910 657.357, 789.951 657.208, 797.116 659.067 C 804.523 660.989, 827.995 664.078, 829.294 663.302 C 829.730 663.041, 830.630 663.258, 831.294 663.783 C 833.295 665.368, 841.919 666.889, 852.500 667.524 C 858 667.854, 863.400 668.511, 864.500 668.984 C 865.600 669.457, 867.850 670.176, 869.500 670.582 C 871.622 671.104, 871.985 671.442, 870.738 671.736 C 868.544 672.253, 869.469 674, 871.937 674 C 872.937 674, 874.281 674.634, 874.924 675.408 C 875.566 676.182, 877.646 677.553, 879.546 678.455 C 881.446 679.356, 883 680.748, 883 681.547 C 883 682.346, 883.477 683, 884.059 683 C 884.641 683, 884.859 683.419, 884.542 683.932 C 884.226 684.444, 884.974 685.569, 886.206 686.432 C 887.596 687.405, 887.905 688, 887.023 688 C 885.878 688, 885.847 688.244, 886.862 689.250 C 887.873 690.251, 888.321 690.152, 889.112 688.750 C 889.655 687.788, 890.590 687, 891.189 687 C 891.789 687, 892.800 686.288, 893.436 685.418 C 895.246 682.942, 917.236 683.481, 945.500 686.692 C 949.385 687.134, 950.054 687.445, 948.500 688.087 C 947.319 688.574, 949.776 688.734, 954.500 688.476 C 958.900 688.236, 972.175 688.506, 984 689.077 C 995.825 689.648, 1009.222 690.249, 1013.771 690.412 C 1021.963 690.705, 1024.531 691.436, 1022.274 692.831 C 1021.586 693.256, 1021.444 694.100, 1021.928 694.883 C 1023.161 696.879, 1026.688 695.338, 1028.707 691.919 C 1029.668 690.292, 1031.013 689.175, 1031.695 689.437 C 1032.378 689.698, 1033.202 689.482, 1033.527 688.956 C 1033.852 688.430, 1035.468 688, 1037.118 688 C 1038.803 688, 1039.855 687.575, 1039.518 687.029 C 1039.188 686.495, 1039.949 685.845, 1041.209 685.584 C 1048.598 684.051, 1051.014 683.752, 1055.753 683.783 C 1058.642 683.802, 1060.787 683.464, 1060.519 683.031 C 1059.490 681.366, 1122.704 679.006, 1123.869 680.666 C 1124.216 681.161, 1126.817 682.143, 1129.648 682.849 L 1134.796 684.133 1139.535 679.066 C 1142.141 676.280, 1144.857 674, 1145.569 674 C 1146.282 674, 1147.160 673.073, 1147.519 671.939 C 1147.879 670.806, 1149.372 669.343, 1150.837 668.689 C 1154.815 666.914, 1156.736 664.050, 1157.423 658.870 C 1157.762 656.312, 1159.034 652.955, 1160.249 651.411 C 1162.200 648.930, 1162.424 647.609, 1162.169 640.082 C 1162.010 635.395, 1161.391 630.971, 1160.793 630.251 C 1160.008 629.305, 1160.025 628.241, 1160.853 626.423 C 1163.129 621.429, 1161.761 608.618, 1158.617 605.474 C 1157.729 604.586, 1156.824 602.879, 1156.606 601.680 C 1156.388 600.481, 1155.712 596.773, 1155.104 593.440 C 1153.500 584.636, 1153.709 582.622, 1156.500 580 C 1158.948 577.701, 1159.964 573, 1158.014 573 C 1157.472 573, 1155.867 571.245, 1154.447 569.099 C 1153.027 566.953, 1150.962 564.962, 1149.858 564.673 C 1148.755 564.385, 1147.607 563.215, 1147.309 562.074 C 1147.011 560.933, 1146.439 560, 1146.039 560 C 1145.639 560, 1144.175 558.987, 1142.786 557.750 C 1139.611 554.920, 1138.214 548.008, 1140.813 547.985 C 1141.960 547.974, 1142.119 547.727, 1141.310 547.213 C 1140.656 546.797, 1139.981 543.991, 1139.810 540.978 L 1139.500 535.500 1135.250 535.817 C 1132.706 536.008, 1131 535.706, 1131 535.067 C 1131 533.554, 1128.006 533.734, 1127.970 535.250 C 1127.953 535.938, 1127.453 535.663, 1126.859 534.641 C 1126.084 533.307, 1126.087 532.106, 1126.868 530.391 C 1128.081 527.727, 1130 527.181, 1130 529.500 C 1130 530.325, 1130.450 531, 1131 531 C 1131.550 531, 1132 530.373, 1132 529.607 C 1132 528.044, 1134.694 526.693, 1136.090 527.556 C 1136.591 527.865, 1137 527.374, 1137 526.465 C 1137 525.556, 1136.100 524.577, 1135 524.290 C 1133.900 524.002, 1133 523.144, 1133 522.383 C 1133 521.623, 1132.662 520.963, 1132.250 520.919 C 1131.838 520.874, 1130.236 520.746, 1128.692 520.633 C 1127.147 520.521, 1125.507 519.821, 1125.048 519.078 C 1124.551 518.273, 1123.188 517.922, 1121.683 518.210 C 1119.762 518.577, 1119.028 518.213, 1118.632 516.699 C 1118.025 514.379, 1121.912 507.019, 1123.750 507.008 C 1124.438 507.003, 1125 506.325, 1125 505.500 C 1125 504.675, 1125.450 504, 1126 504 C 1126.550 504, 1127 503.100, 1127 502 C 1127 500.900, 1127.378 500, 1127.839 500 C 1128.301 500, 1129.195 498.868, 1129.825 497.485 C 1130.455 496.102, 1132.072 494.469, 1133.418 493.856 C 1134.764 493.242, 1136.354 491.561, 1136.951 490.120 C 1137.549 488.679, 1139.807 485.700, 1141.970 483.500 C 1144.132 481.300, 1145.924 479.049, 1145.951 478.498 C 1146.045 476.573, 1175.162 448.738, 1177.854 448 C 1182.863 446.627, 1196 433.927, 1196 430.458 C 1196 427.479, 1195.390 427.458, 1191.440 430.299 M 1146 565 C 1146 565.550, 1146.450 566, 1147 566 C 1147.550 566, 1148 565.550, 1148 565 C 1148 564.450, 1147.550 564, 1147 564 C 1146.450 564, 1146 564.450, 1146 565 M 1149 566.378 C 1149 566.585, 1149.675 567.315, 1150.500 568 C 1151.729 569.020, 1152 568.951, 1152 567.622 C 1152 566.730, 1151.325 566, 1150.500 566 C 1149.675 566, 1149 566.170, 1149 566.378 M 1160.158 572 C 1160.158 573.375, 1160.385 573.938, 1160.662 573.250 C 1160.940 572.563, 1160.940 571.438, 1160.662 570.750 C 1160.385 570.063, 1160.158 570.625, 1160.158 572 M 642.450 598.817 C 641.928 599.267, 639.050 600.231, 636.056 600.960 C 628.380 602.827, 622 605.832, 622 607.579 C 622 610.604, 625.206 616.617, 628.889 620.500 C 630.976 622.700, 633.886 626.616, 635.356 629.202 C 636.826 631.788, 639.090 634.488, 640.388 635.202 C 641.686 635.916, 644.195 637.320, 645.964 638.322 C 651.166 641.270, 652 640.216, 652 630.690 C 652 626.085, 651.330 620.109, 650.511 617.409 C 649.692 614.709, 649.017 610.544, 649.011 608.154 C 648.994 601.537, 645.337 596.333, 642.450 598.817 M 1287.684 601.214 C 1286.421 602.472, 1283.814 604.573, 1281.891 605.884 C 1279.968 607.196, 1277.399 609.671, 1276.184 611.384 C 1271.666 617.752, 1260.851 630.978, 1258.500 633.011 C 1257.950 633.486, 1255.425 635.703, 1252.888 637.937 C 1250.352 640.172, 1247.758 642, 1247.125 642 C 1246.491 642, 1245.191 642.388, 1244.236 642.861 C 1243.281 643.335, 1239.463 645.131, 1235.750 646.852 C 1232.037 648.573, 1229 650.417, 1229 650.951 C 1229 651.484, 1227.088 652.478, 1224.750 653.161 C 1222.412 653.844, 1220.275 654.671, 1220 654.999 C 1218.518 656.768, 1212.330 660.447, 1211.253 660.200 C 1210.564 660.042, 1210 660.338, 1210 660.858 C 1210 661.379, 1208.616 662.287, 1206.925 662.876 C 1205.234 663.466, 1204.112 664.372, 1204.432 664.890 C 1204.752 665.408, 1204.588 666.953, 1204.067 668.323 C 1202.789 671.686, 1203.929 671.899, 1223.188 671.890 L 1238.876 671.882 1246.649 675.474 C 1250.924 677.449, 1254.737 679.575, 1255.122 680.198 C 1256.324 682.142, 1262.760 681.187, 1266.893 678.452 C 1270.678 675.947, 1276 669.483, 1276 667.391 C 1276 666.839, 1277.057 664.956, 1278.349 663.205 C 1279.640 661.454, 1281.513 656.979, 1282.511 653.261 C 1283.509 649.542, 1285.039 645.396, 1285.912 644.047 C 1288.084 640.693, 1289.696 634.641, 1292.186 620.500 C 1293.349 613.900, 1294.713 608.229, 1295.219 607.898 C 1295.725 607.567, 1295.995 605.578, 1295.819 603.477 C 1295.542 600.158, 1295.138 599.609, 1292.740 599.293 C 1290.857 599.045, 1289.250 599.655, 1287.684 601.214" stroke="none" fill="black" fill-rule="evenodd"/>
</svg>