<svg xmlns="http://www.w3.org/2000/svg" width="1920" height="1080" viewBox="0 0 1920 1080" version="1.1">
	<path fill-opacity="0.122" d="M 0 283.187 L 0 566.374 3 563.500 C 4.650 561.919, 6 560.144, 6 559.556 C 6 558.968, 7.559 557.055, 9.465 555.306 C 11.371 553.557, 13.221 550.967, 13.577 549.550 C 13.932 548.133, 14.736 546.643, 15.362 546.237 C 16.882 545.253, 18.198 543.068, 23.341 533 C 32.488 515.090, 34 511.930, 34 510.723 C 34 510.038, 35.567 507.683, 37.483 505.489 C 39.398 503.295, 42.210 499.139, 43.733 496.252 C 45.255 493.366, 46.820 491.004, 47.211 491.002 C 47.603 491.001, 48.408 489.200, 49 487 C 49.592 484.800, 50.486 483, 50.985 483 C 51.484 483, 53.465 480.638, 55.387 477.750 C 57.309 474.863, 59.868 471.825, 61.075 471 C 62.281 470.175, 63.995 468.764, 64.884 467.864 C 65.773 466.964, 68.414 465.912, 70.754 465.525 C 73.094 465.139, 74.755 464.413, 74.445 463.911 C 73.327 462.102, 78.944 463.054, 83.813 465.500 C 86.551 466.875, 89.272 468, 89.861 468 C 92.061 468, 98 471.419, 98 472.685 C 98 473.408, 98.381 474, 98.847 474 C 100.119 474, 103.172 477.019, 106.433 481.500 C 110.856 487.578, 117.127 492.871, 120.750 493.583 C 122.537 493.935, 124 494.623, 124 495.111 C 124 495.600, 127.080 496, 130.843 496 C 140.284 496, 148.922 492.888, 160.326 485.378 C 163.147 483.520, 166.242 482, 167.204 482 C 168.167 482, 169.649 480.939, 170.499 479.641 C 171.848 477.583, 173.063 477.213, 180.046 476.734 C 192.086 475.909, 192.701 476.233, 197.703 486.057 C 200.384 491.321, 202 495.836, 202 498.060 C 202 500.020, 202.871 503.427, 203.935 505.630 C 204.999 507.832, 206.150 510.954, 206.492 512.567 C 207.875 519.096, 209.385 524.528, 209.949 525 C 211.714 526.478, 214 531.255, 214 533.465 C 214 534.859, 214.344 536, 214.763 536 C 215.183 536, 216.084 538.363, 216.766 541.250 C 217.448 544.138, 218.605 546.950, 219.337 547.500 C 220.069 548.050, 220.977 549.737, 221.353 551.250 C 221.730 552.763, 222.499 554, 223.062 554 C 224.567 554, 234 563.258, 234 564.736 C 234 565.431, 234.655 566, 235.455 566 C 236.255 566, 238.090 567.181, 239.533 568.624 C 242.008 571.099, 242.592 571.222, 249.828 570.797 C 254.048 570.550, 259.075 569.633, 261 568.760 C 262.925 567.887, 266.188 566.649, 268.250 566.009 C 270.312 565.369, 272 564.205, 272 563.422 C 272 562.640, 272.563 561.999, 273.250 561.999 C 273.938 561.998, 275.807 560.873, 277.406 559.499 C 279.004 558.124, 280.763 557, 281.316 557 C 282.642 557, 287.577 551.511, 290.755 546.500 C 292.151 544.300, 294.592 540.925, 296.181 539 C 297.770 537.075, 299.391 535.039, 299.785 534.476 C 300.178 533.913, 301.990 531.326, 303.812 528.726 C 305.634 526.127, 306.848 524, 306.511 524 C 306.174 524, 307.046 522.495, 308.449 520.656 C 309.852 518.816, 311 517.037, 311 516.701 C 311 516.365, 312.013 515.032, 313.250 513.737 C 314.488 512.442, 315.985 510.531, 316.578 509.490 C 317.613 507.674, 317.837 507.666, 322.078 509.278 C 324.531 510.210, 327.547 510.681, 328.852 510.336 C 330.292 509.955, 331.513 510.213, 332 511 C 332.563 511.911, 336.849 512.423, 346.648 512.749 C 370.501 513.544, 377.233 513.314, 380.500 511.593 C 382.150 510.724, 383.856 510.010, 384.290 510.006 C 385.864 509.994, 391 505.590, 391 504.253 C 391 503.499, 391.412 503.136, 391.915 503.447 C 393.145 504.208, 397 497.830, 397 495.033 C 397 493.806, 398.237 491.545, 399.750 490.007 C 403.802 485.888, 407 481.377, 407 479.780 C 407 475.423, 419.313 471.147, 433.921 470.430 C 441.869 470.040, 448 468.440, 448 466.756 C 448 466.340, 448.859 466, 449.908 466 C 452.492 466, 460.222 458.258, 461.673 454.216 C 462.461 452.020, 462.543 449.893, 461.923 447.731 C 460.709 443.500, 460.752 443, 462.328 443 C 463.850 443, 466.270 433.868, 465.370 431.522 C 465.049 430.685, 465.290 430, 465.907 430 C 466.523 430, 468.159 427.525, 469.543 424.500 C 470.927 421.475, 472.495 419, 473.029 419 C 473.563 419, 474 418.325, 474 417.500 C 474 416.675, 473.502 416, 472.893 416 C 472.236 416, 472.073 415.288, 472.493 414.250 C 472.882 413.288, 474.064 409.433, 475.121 405.685 C 476.178 401.937, 477.916 397.934, 478.982 396.789 C 480.049 395.644, 481.201 392.636, 481.544 390.104 C 481.886 387.572, 483.051 382.846, 484.133 379.602 C 485.215 376.357, 485.867 373.095, 485.581 372.352 C 485.296 371.608, 485.408 371, 485.830 371 C 487.651 371, 489.244 362.866, 489.927 350.091 C 490.331 342.537, 490.990 335.825, 491.392 335.175 C 491.989 334.209, 493.480 323.581, 494.441 313.450 C 494.548 312.322, 494.987 310.830, 495.417 310.135 C 495.846 309.440, 496.215 306.200, 496.235 302.935 C 496.262 298.607, 496.641 297, 497.636 297 C 499.139 297, 499.511 294.434, 498.131 293.581 C 497.654 293.286, 496.898 291.122, 496.453 288.772 C 494.867 280.405, 496.474 274.600, 500.669 273.547 C 502.049 273.200, 502.797 272.480, 502.416 271.864 C 501.982 271.162, 502.454 271.009, 503.769 271.427 C 508.107 272.804, 509.505 267.824, 507.539 258 C 507.148 256.047, 507.316 253.255, 507.920 251.683 C 508.811 249.361, 509.397 248.992, 511.251 249.583 C 515.237 250.854, 516.491 250.553, 516.819 248.250 C 516.995 247.012, 516.658 246, 516.070 246 C 514.169 246, 514.933 240.971, 517.498 236.593 C 518.872 234.248, 519.697 232.031, 519.332 231.665 C 518.966 231.299, 519.377 231, 520.245 231 C 521.317 231, 522.049 229.668, 522.525 226.852 C 522.910 224.570, 523.800 221.308, 524.502 219.602 C 525.204 217.896, 526.090 214.175, 526.472 211.332 C 526.873 208.337, 528.181 204.787, 529.582 202.888 C 531.331 200.518, 532 198.312, 532 194.914 C 532 190.696, 532.264 190.151, 534.585 189.568 C 537.763 188.770, 542 184.363, 542 181.854 C 542 180.834, 542.450 180, 543 180 C 543.550 180, 544 180.675, 544 181.500 C 544 183.444, 550.568 183.564, 551.700 181.641 C 552.140 180.894, 554.188 179.734, 556.250 179.064 C 558.313 178.393, 560 177.430, 560 176.922 C 560 176.415, 560.675 176, 561.500 176 C 563.583 176, 563.387 174.233, 561.250 173.756 C 560.288 173.541, 562.150 172.747, 565.388 171.992 C 568.627 171.237, 572.039 169.801, 572.972 168.799 C 574.481 167.180, 576.210 167.008, 588.584 167.239 L 602.500 167.500 602.807 163.250 C 602.977 160.912, 603.599 159, 604.190 159 C 605.927 159, 608.545 155.408, 609.983 151.051 C 610.719 148.823, 611.852 147, 612.502 147 C 613.674 147, 616 140.772, 616 137.634 C 616 136.735, 616.450 136, 617 136 C 617.550 136, 618 134.200, 618 132 C 618 129.800, 618.367 128, 618.815 128 C 619.722 128, 623.463 120.929, 623.180 119.750 C 623.081 119.338, 623.450 119, 624 119 C 624.550 119, 625 118.550, 625 118 C 625 116.466, 628.813 113, 630.500 113 C 631.325 113, 632 112.550, 632 112 C 632 111.450, 632.675 111, 633.500 111 C 634.548 111, 635 109.944, 635 107.500 C 635 104.667, 635.381 104, 637 104 C 638.556 104, 639 104.667, 639 107 C 639 109, 639.500 110, 640.500 110 C 641.325 110, 642 110.675, 642 111.500 C 642 112.325, 642.675 113, 643.500 113 C 644.325 113, 645 113.450, 645 114 C 645 114.550, 645.675 115, 646.500 115 C 647.356 115, 648 115.899, 648 117.094 C 648 118.346, 648.803 119.397, 650 119.710 C 651.294 120.049, 652 121.074, 652 122.617 C 652 124.333, 652.559 125, 654 125 C 655.111 125, 656 125.667, 656 126.500 C 656 127.325, 656.450 128, 657 128 C 657.550 128, 658 129.528, 658 131.396 L 658 134.792 672.349 135.509 C 680.241 135.904, 688.516 135.920, 690.738 135.544 C 695.537 134.733, 696 133.400, 696 120.375 L 696 112 701 112 C 706.357 112, 707.195 111.227, 704 109.232 C 701.272 107.529, 701.489 106.353, 704.750 105.162 C 706.483 104.529, 706.853 104.129, 705.750 104.079 C 704.388 104.018, 704 103.113, 704 100 C 704 97.800, 703.550 96, 703 96 C 702.450 96, 702 94.200, 702 92 C 702 89.800, 702.450 88, 703 88 C 703.550 88, 704 89.800, 704 92 L 704 96 708 96 L 712 96 712 88 L 712 80 708 80 L 704 80 704 73.083 C 704 68.948, 703.558 66.019, 702.902 65.801 C 702.298 65.599, 701.565 63.199, 701.275 60.467 C 700.984 57.735, 700.054 54.708, 699.209 53.740 C 697.868 52.205, 697.852 51.643, 699.086 49.333 C 699.864 47.876, 701.288 46.478, 702.250 46.226 C 703.212 45.973, 704 45.144, 704 44.383 C 704 43.469, 705.187 43, 707.500 43 C 710.036 43, 711 42.561, 711 41.406 C 711 40.530, 711.952 39.564, 713.115 39.260 C 715.104 38.740, 715.188 38.284, 714.537 31.603 C 714.157 27.697, 713.430 24.350, 712.923 24.167 C 712.415 23.983, 712 22.071, 712 19.917 C 712 17.102, 712.422 16, 713.500 16 C 714.325 16, 715 15.657, 715 15.237 C 715 14.818, 716.013 14.030, 717.250 13.487 C 718.487 12.944, 719.644 11.488, 719.820 10.250 C 720.106 8.233, 719.718 8, 716.070 8 L 712 8 712 4 L 712 0 356 0 L 0 0 0 283.187 M 1336 16 L 1336 32 1333 32 L 1330 32 1330 40 L 1330 48 1333 48 L 1336 48 1336 55 L 1336 62 1339.917 62 C 1342.071 62, 1343.992 62.477, 1344.187 63.060 C 1344.381 63.643, 1348.018 64.383, 1352.270 64.704 C 1358.145 65.148, 1360 65.642, 1360 66.761 C 1360 67.800, 1360.662 68.056, 1362.250 67.630 C 1363.487 67.299, 1366.605 67.021, 1369.179 67.014 C 1371.988 67.005, 1374.456 66.401, 1375.357 65.500 C 1377.256 63.601, 1378 63.601, 1378 65.500 C 1378 66.325, 1378.717 67, 1379.594 67 C 1380.470 67, 1381.423 67.900, 1381.710 69 C 1381.998 70.100, 1382.856 71, 1383.617 71 C 1384.377 71, 1385 71.900, 1385 73 C 1385 74.104, 1385.667 75, 1386.489 75 C 1388.414 75, 1392 78.072, 1392 79.722 C 1392 80.425, 1392.450 81, 1393 81 C 1393.550 81, 1394 82.302, 1394 83.893 C 1394 85.542, 1394.645 87.034, 1395.500 87.362 C 1396.325 87.678, 1397 88.611, 1397 89.433 C 1397 90.256, 1397.900 91.411, 1399 92 C 1400.100 92.589, 1401 93.730, 1401 94.535 C 1401 95.341, 1401.810 96, 1402.799 96 C 1403.937 96, 1405.050 97.249, 1405.827 99.399 C 1406.830 102.171, 1407.453 102.694, 1409.208 102.235 C 1412.501 101.374, 1415 98.804, 1415 96.278 C 1415 94.674, 1415.586 94, 1416.981 94 C 1418.311 94, 1419.184 93.097, 1419.639 91.250 C 1420.339 88.408, 1422.670 84.250, 1424.543 82.500 C 1426.960 80.243, 1431 74.028, 1431 72.567 C 1431 71.705, 1431.675 71, 1432.500 71 C 1433.396 71, 1434 70.079, 1434 68.712 C 1434 65.023, 1437.525 56.072, 1439.595 54.506 C 1440.683 53.682, 1440.964 53.050, 1440.250 53.032 C 1439.563 53.014, 1439 52.144, 1439 51.098 C 1439 48.314, 1444.732 46.448, 1446.994 48.494 C 1449.059 50.364, 1449.767 50.375, 1451.571 48.571 C 1452.555 47.588, 1453 44.811, 1453 39.655 C 1453 35.536, 1453.402 32.017, 1453.894 31.833 C 1454.385 31.650, 1455.115 24.413, 1455.515 15.750 L 1456.242 0 1396.121 0 L 1336 0 1336 16 M 1472 8 L 1472 16 1468.500 16 L 1465 16 1465 23 L 1465 30 1468.500 30 L 1472 30 1472.011 35.250 C 1472.027 43.002, 1473.054 48, 1474.631 48 C 1475.688 48, 1476 50.049, 1476 57 C 1476 62.333, 1475.593 66, 1475 66 C 1474.429 66, 1474 69, 1474 73 C 1474 79.139, 1474.227 80, 1475.846 80 C 1477.504 80, 1477.759 81.240, 1478.346 92.157 C 1478.706 98.843, 1479 107.618, 1479 111.657 C 1479 115.886, 1479.424 119, 1480 119 C 1480.550 119, 1481.008 120.688, 1481.017 122.750 C 1481.027 124.813, 1481.919 129.875, 1483 134 C 1484.081 138.125, 1484.973 142.480, 1484.983 143.679 C 1484.992 144.877, 1485.563 146.452, 1486.250 147.179 C 1487.834 148.853, 1488.398 152, 1487.114 152 C 1486.510 152, 1486.462 153.125, 1486.989 154.960 C 1487.799 157.786, 1487.496 159.710, 1484.730 169.326 C 1483.853 172.375, 1483.905 173.323, 1484.986 173.991 C 1485.758 174.468, 1486.268 176.267, 1486.168 178.165 C 1486.072 179.999, 1485.734 187.463, 1485.417 194.750 C 1484.899 206.667, 1484.659 208, 1483.028 208 C 1481.026 208, 1480 209.892, 1480 213.582 C 1480 215.447, 1480.533 216, 1482.327 216 C 1484.368 216, 1484.597 216.387, 1484.191 219.152 C 1483.741 222.217, 1483.816 222.287, 1486.864 221.677 C 1489.245 221.201, 1490 221.405, 1490 222.525 C 1490 223.336, 1490.653 224, 1491.451 224 C 1492.636 224, 1492.984 226.796, 1493.351 239.250 C 1493.857 256.431, 1494.681 262.968, 1496.355 263.070 C 1496.985 263.109, 1496.657 263.472, 1495.627 263.876 C 1493.868 264.568, 1493.857 264.714, 1495.449 266.306 C 1496.639 267.496, 1498.833 268.004, 1502.821 268.015 C 1505.945 268.023, 1511.200 268.665, 1514.500 269.441 C 1525.322 271.986, 1532.186 272.367, 1536.296 270.650 C 1538.349 269.792, 1540.295 268.395, 1540.621 267.545 C 1541.322 265.719, 1544.455 265.582, 1550.527 267.111 C 1556.111 268.517, 1557.808 270.335, 1555.599 272.544 C 1554.720 273.423, 1554 275.146, 1554 276.371 C 1554 277.597, 1553.498 279.102, 1552.885 279.715 C 1552.064 280.536, 1552.631 281.902, 1555.026 284.883 C 1558.142 288.760, 1558.256 289.207, 1557.664 295.218 C 1557.324 298.673, 1557.461 303.289, 1557.968 305.475 C 1558.633 308.340, 1558.557 309.665, 1557.695 310.223 C 1556.264 311.149, 1551.509 310.274, 1547.870 308.416 C 1545.843 307.381, 1543.843 307.298, 1539.146 308.054 C 1533.881 308.902, 1532.472 308.769, 1528.776 307.078 C 1521.889 303.926, 1516.930 303.977, 1515.487 307.215 C 1514.820 308.712, 1513.042 309.779, 1510 310.508 C 1505.743 311.527, 1505.473 311.799, 1505 315.543 C 1504.536 319.216, 1504.249 319.525, 1501 319.850 C 1499.075 320.043, 1497.275 320.555, 1497 320.988 C 1496.440 321.870, 1487.221 322.896, 1479.295 322.959 L 1474.091 323 1473.354 326.750 C 1472.948 328.813, 1472.667 335.342, 1472.729 341.260 C 1472.791 347.178, 1472.478 351.796, 1472.034 351.521 C 1471.590 351.247, 1470.642 351.726, 1469.928 352.587 C 1468.312 354.534, 1468.550 372.306, 1470.234 375.407 C 1470.859 376.558, 1471.470 380.411, 1471.592 383.969 C 1471.715 387.568, 1472.299 390.600, 1472.907 390.802 C 1473.508 391.003, 1474 392.704, 1474 394.583 C 1474 396.462, 1474.441 398, 1474.981 398 C 1475.520 398, 1476.244 399.125, 1476.589 400.500 C 1476.934 401.875, 1477.843 403, 1478.608 403 C 1479.374 403, 1480 403.870, 1480 404.933 C 1480 405.996, 1480.900 407.151, 1482 407.500 C 1483.100 407.849, 1484 408.743, 1484 409.486 C 1484 410.765, 1489.141 412.461, 1496.750 413.693 C 1498.606 413.993, 1500 414.815, 1500 415.609 C 1500 416.374, 1500.369 417, 1500.819 417 C 1501.270 417, 1502.259 419.279, 1503.017 422.063 C 1503.776 424.848, 1504.757 427.350, 1505.198 427.622 C 1505.639 427.895, 1506 429.630, 1506 431.477 C 1506 436.228, 1506.833 437.862, 1510.121 439.563 C 1513.234 441.173, 1514.028 444.668, 1511.500 445.638 C 1509.477 446.415, 1509.555 452.394, 1511.675 458.957 C 1513.325 464.066, 1519.617 471, 1522.603 471 C 1523.287 471, 1525.310 472.462, 1527.098 474.250 C 1530.058 477.208, 1530.891 477.497, 1536.355 477.462 C 1540.138 477.438, 1542.508 476.976, 1542.763 476.212 C 1542.985 475.545, 1544.029 475, 1545.083 475 C 1546.138 475, 1547 474.356, 1547 473.570 C 1547 472.783, 1547.985 471.995, 1549.189 471.820 C 1550.812 471.583, 1551.824 470.206, 1553.101 466.500 C 1554.624 462.079, 1555.152 461.500, 1557.662 461.500 C 1559.646 461.500, 1560.797 462.177, 1561.487 463.750 C 1562.105 465.159, 1563.347 466, 1564.809 466 C 1566.092 466, 1567.818 466.675, 1568.643 467.500 C 1569.622 468.480, 1572.104 469, 1575.796 469 C 1580.928 469, 1581.728 469.307, 1584.475 472.326 C 1587.008 475.112, 1588.678 475.870, 1594.750 476.987 C 1598.814 477.734, 1602 478.830, 1602 479.480 C 1602 480.825, 1606.543 485, 1608.008 485 C 1608.553 485, 1609 485.381, 1609 485.847 C 1609 486.313, 1609.787 487.625, 1610.750 488.763 C 1611.713 489.901, 1613.175 491.657, 1614 492.666 C 1614.825 493.675, 1616.364 496.975, 1617.420 500 C 1618.476 503.025, 1620.389 507.179, 1621.670 509.230 C 1622.952 511.282, 1624 513.419, 1624 513.980 C 1624 514.541, 1624.450 515, 1625 515 C 1625.550 515, 1626 515.666, 1626 516.479 C 1626 517.292, 1626.950 520.852, 1628.111 524.389 C 1630.044 530.276, 1630.500 530.871, 1633.514 531.437 C 1635.325 531.776, 1637.045 532.675, 1637.336 533.433 C 1637.627 534.191, 1639.245 535.115, 1640.932 535.485 C 1642.620 535.856, 1644 536.548, 1644 537.023 C 1644 537.498, 1645.350 538.684, 1647 539.659 C 1648.650 540.634, 1650 541.909, 1650 542.493 C 1650 543.773, 1653.611 547, 1655.043 547 C 1655.604 547, 1656.322 547.675, 1656.638 548.500 C 1657.880 551.736, 1681.212 549.013, 1683.300 545.388 C 1683.740 544.625, 1684.752 544, 1685.550 544 C 1686.347 544, 1687 543.550, 1687 543 C 1687 542.450, 1687.798 542, 1688.773 542 C 1689.748 542, 1692.937 540.425, 1695.860 538.500 C 1698.783 536.575, 1701.485 535, 1701.865 535 C 1702.245 535, 1703.297 534.212, 1704.203 533.250 C 1711.432 525.569, 1716.181 523.020, 1723.285 523.006 C 1724.817 523.003, 1727.222 522.245, 1728.630 521.323 C 1731.074 519.721, 1731.389 519.754, 1735.595 522.052 C 1738.018 523.375, 1740 525.030, 1740 525.729 C 1740 526.428, 1740.750 527, 1741.667 527 C 1742.583 527, 1743.041 527.293, 1742.683 527.650 C 1742.326 528.008, 1744.388 529.788, 1747.267 531.607 C 1750.145 533.426, 1753.054 535.393, 1753.730 535.978 C 1754.407 536.563, 1756.420 537.334, 1758.204 537.691 C 1761.624 538.375, 1763.078 539.280, 1765.820 542.429 C 1766.744 543.490, 1768.963 545.922, 1770.750 547.833 C 1772.537 549.743, 1774 551.642, 1774 552.052 C 1774 553.238, 1781.142 556.628, 1785.250 557.392 C 1787.313 557.776, 1789 558.484, 1789 558.966 C 1789 561.025, 1794.857 561.081, 1798.633 559.057 C 1800.743 557.926, 1802.885 557, 1803.391 557 C 1803.897 557, 1805.926 555.768, 1807.900 554.263 C 1812.157 551.016, 1823.457 545, 1825.300 545 C 1826.012 545, 1829.671 543.425, 1833.430 541.500 C 1839.363 538.462, 1841.209 538, 1847.429 538 C 1854.268 538, 1854.705 538.142, 1857.047 541.132 C 1858.396 542.854, 1862.060 546.792, 1865.190 549.882 C 1869.570 554.207, 1871.113 556.536, 1871.894 560 C 1872.452 562.475, 1874.220 568.775, 1875.822 574 C 1877.424 579.225, 1879.494 587.775, 1880.423 593 C 1881.352 598.225, 1882.920 603.628, 1883.907 605.007 C 1884.893 606.386, 1886.191 610.296, 1886.790 613.696 C 1887.389 617.097, 1888.693 620.753, 1889.689 621.821 C 1892.889 625.252, 1895 628.373, 1895 629.672 C 1895 630.386, 1895.654 630.686, 1896.500 630.362 C 1897.325 630.045, 1898 630.284, 1898 630.893 C 1898 631.502, 1898.900 632, 1900 632 C 1901.100 632, 1902 631.550, 1902 631 C 1902 630.450, 1902.414 630, 1902.921 630 C 1903.427 630, 1905.589 628.313, 1907.724 626.250 C 1909.860 624.188, 1913.383 621.599, 1915.554 620.498 L 1919.500 618.496 1919.752 309.248 L 1920.003 0 1696.002 0 L 1472 0 1472 8 M 630 18.833 C 630 21.374, 631.066 22.190, 632.658 20.869 C 634.656 19.210, 634.280 17, 632 17 C 630.727 17, 630 17.667, 630 18.833 M 630 75.418 C 630 76.198, 630.283 77.573, 630.628 78.472 C 631.181 79.914, 631.533 79.848, 633.597 77.909 C 634.885 76.699, 635.701 75.325, 635.410 74.855 C 634.517 73.409, 630 73.880, 630 75.418 M 1513.473 86.044 C 1512.560 87.521, 1514.866 89.989, 1516.555 89.341 C 1517.608 88.936, 1517.707 88.321, 1516.947 86.900 C 1515.818 84.791, 1514.455 84.455, 1513.473 86.044 M 539 115.441 C 539 117.495, 541.070 118.504, 542.046 116.926 C 542.498 116.194, 542.646 115.237, 542.375 114.798 C 541.535 113.438, 539 113.921, 539 115.441 M 1576.385 196.766 C 1574.335 198.115, 1573.717 201.954, 1575.444 202.617 C 1577.602 203.445, 1580.163 201.121, 1579.798 198.666 C 1579.466 196.428, 1578.075 195.654, 1576.385 196.766 M 1490 266 C 1490 266.550, 1490.450 267, 1491 267 C 1491.550 267, 1492 266.550, 1492 266 C 1492 265.450, 1491.550 265, 1491 265 C 1490.450 265, 1490 265.450, 1490 266 M 496 295 C 496 295.550, 496.477 296, 497.059 296 C 497.641 296, 497.840 295.550, 497.500 295 C 497.160 294.450, 496.684 294, 496.441 294 C 496.198 294, 496 294.450, 496 295 M 484.655 296.542 C 485.310 298.249, 487.154 298.039, 487.771 296.188 C 487.991 295.528, 487.254 295, 486.115 295 C 484.677 295, 484.240 295.461, 484.655 296.542 M 454 316.500 C 454 317.530, 454.655 318.020, 455.750 317.810 C 457.858 317.404, 457.725 315.629, 455.553 315.177 C 454.647 314.988, 454 315.539, 454 316.500 M 1480.500 331 C 1479.594 332.466, 1480.847 334, 1482.952 334 C 1484.805 334, 1486.368 331.701, 1485.264 330.598 C 1484.309 329.642, 1481.175 329.907, 1480.500 331 M 1598 342 C 1598 342.550, 1598.450 343, 1599 343 C 1599.550 343, 1600 342.550, 1600 342 C 1600 341.450, 1599.550 341, 1599 341 C 1598.450 341, 1598 341.450, 1598 342 M 453.208 345.676 C 452.216 346.074, 452.187 346.520, 453.081 347.597 C 454.736 349.592, 456 349.333, 456 347 C 456 344.971, 455.526 344.746, 453.208 345.676 M 1492 352.571 C 1492 353.314, 1494.686 356, 1495.429 356 C 1495.743 356, 1496 355.100, 1496 354 C 1496 352.667, 1495.333 352, 1494 352 C 1492.900 352, 1492 352.257, 1492 352.571 M 1601.192 363.075 C 1601.389 363.666, 1601.977 364.150, 1602.500 364.150 C 1603.023 364.150, 1603.611 363.666, 1603.808 363.075 C 1604.005 362.484, 1603.417 362, 1602.500 362 C 1601.583 362, 1600.995 362.484, 1601.192 363.075 M 940 382 C 940 382.550, 940.450 383, 941 383 C 941.550 383, 942 382.550, 942 382 C 942 381.450, 941.550 381, 941 381 C 940.450 381, 940 381.450, 940 382 M 960.775 386.558 C 960.069 387.265, 961.010 391, 961.894 391 C 962.615 391, 966 387.280, 966 386.489 C 966 385.812, 961.461 385.872, 960.775 386.558 M 1588.336 429.567 C 1587.563 431.581, 1589.213 433.239, 1591.222 432.468 C 1592.176 432.102, 1592.583 431.121, 1592.273 429.935 C 1591.665 427.610, 1589.176 427.377, 1588.336 429.567 M 1548.500 456 C 1548.840 456.550, 1549.793 457, 1550.618 457 C 1551.443 457, 1551.840 456.550, 1551.500 456 C 1551.160 455.450, 1550.207 455, 1549.382 455 C 1548.557 455, 1548.160 455.450, 1548.500 456 M 993.882 509.250 C 993.754 512.748, 993.997 515.300, 994.509 515.831 C 995.779 517.147, 1004 510.207, 1004 507.820 C 1004 506.303, 1003.168 506, 999 506 C 994.050 506, 993.999 506.032, 993.882 509.250 M 1639.459 516.067 C 1639.096 516.653, 1639.040 517.373, 1639.333 517.667 C 1640.050 518.383, 1642 517.121, 1642 515.941 C 1642 514.663, 1640.274 514.748, 1639.459 516.067 M 1836.190 529.750 C 1836.376 530.712, 1837.190 531.500, 1838 531.500 C 1838.810 531.500, 1839.624 530.712, 1839.810 529.750 C 1840.046 528.522, 1839.506 528, 1838 528 C 1836.494 528, 1835.954 528.522, 1836.190 529.750 M 1016.297 674.975 C 1015.085 675.484, 1012.669 677.161, 1010.927 678.700 L 1007.760 681.500 1008.275 691.795 C 1008.915 704.608, 1008.627 705.733, 1004.411 706.897 C 1001.099 707.811, 995.445 713, 994.514 715.978 C 994.253 716.815, 993.161 721.550, 992.088 726.500 C 991.014 731.450, 989.189 738.200, 988.031 741.500 C 986.873 744.800, 985.234 750.875, 984.389 755 C 982.488 764.276, 981.463 765.863, 975.358 768.981 C 972.686 770.345, 969.307 772.707, 967.849 774.231 C 966.391 775.754, 964.366 777.003, 963.349 777.006 C 962.332 777.010, 960.211 777.685, 958.636 778.506 C 957.060 779.328, 954.568 780, 953.097 780 C 951.626 780, 948.760 780.848, 946.727 781.884 C 944.695 782.920, 941.021 784.070, 938.564 784.438 C 935.636 784.877, 933.009 786.124, 930.942 788.054 C 929.208 789.674, 927.386 791, 926.894 791 C 926.402 791, 926 791.450, 926 792 C 926 792.550, 925.310 793, 924.467 793 C 922.893 793, 916 799.297, 916 800.735 C 916 801.175, 914.875 803.191, 913.500 805.215 C 912.125 807.238, 911 809.748, 911 810.792 C 911 813.618, 914.210 815.995, 918.079 816.035 C 919.960 816.055, 924.425 817.554, 928 819.368 C 933.874 822.348, 934.632 823.091, 935.873 827.083 C 936.628 829.512, 938.731 834.875, 940.546 839 C 942.360 843.125, 944.370 847.926, 945.011 849.670 C 945.925 852.158, 947.324 853.305, 951.514 855.006 C 956.358 856.972, 957.388 857.061, 962.623 855.974 C 965.797 855.316, 970.199 853.637, 972.404 852.245 C 977.178 849.231, 988.078 838.370, 990.581 834.131 C 991.558 832.478, 994.245 829.547, 996.551 827.619 L 1000.744 824.114 1003.264 828.807 C 1005.980 833.865, 1007.321 840.953, 1008.977 859 C 1009.557 865.325, 1010.993 878.600, 1012.167 888.500 C 1014.818 910.850, 1014.960 915.765, 1012.992 917.080 C 1010.971 918.429, 979.765 917.631, 945.500 915.353 C 940.550 915.024, 914.858 914.655, 888.407 914.534 C 861.956 914.412, 839.681 913.915, 838.907 913.430 C 838.133 912.945, 828.500 912.235, 817.500 911.853 C 795.016 911.072, 784.145 909.754, 777.500 907.006 C 774.871 905.918, 746.209 902.976, 738.372 902.990 C 735.002 902.995, 730.692 902.351, 728.794 901.559 C 726.897 900.766, 722.455 900.130, 718.922 900.147 C 709.136 900.192, 694.351 898.408, 686 896.173 C 681.875 895.070, 672.425 893.468, 665 892.615 C 657.575 891.761, 648.800 890.394, 645.500 889.577 C 634.133 886.761, 628.455 885.951, 613.500 885.014 C 605.250 884.498, 593.550 883.568, 587.500 882.949 C 577.115 881.887, 573.470 881.090, 556.500 876.173 C 552.650 875.057, 546.575 873.854, 543 873.499 C 536.743 872.879, 534.407 872.228, 529 869.600 C 527.625 868.931, 523.819 868.261, 520.543 868.110 C 517.267 867.959, 512.767 867.258, 510.543 866.552 C 508.319 865.846, 505.600 865.241, 504.500 865.206 C 499.351 865.045, 483.030 863.068, 479 862.117 C 476.525 861.533, 469.550 859.866, 463.500 858.413 C 457.450 856.960, 448.225 855.390, 443 854.923 C 437.775 854.457, 432.150 853.877, 430.500 853.635 C 428.850 853.393, 422.100 853.887, 415.500 854.734 C 400.181 856.699, 366.048 856.972, 356.500 855.205 C 347.603 853.558, 342.532 852.178, 337.500 850.035 C 335.300 849.098, 327.425 846.411, 320 844.063 C 312.575 841.715, 305.717 839.389, 304.759 838.894 C 302.318 837.633, 290.645 836.046, 283.500 836.005 C 280.200 835.986, 275.700 835.354, 273.500 834.601 C 270.576 833.600, 259.678 833.038, 233 832.514 C 205.705 831.978, 195.666 831.451, 193.192 830.425 C 191.372 829.671, 187.552 828.744, 184.702 828.366 C 181.852 827.988, 178.165 826.853, 176.510 825.843 C 174.854 824.833, 171.882 824.006, 169.904 824.004 C 167.926 824.002, 164.902 823.299, 163.184 822.442 C 161.467 821.585, 158.360 820.649, 156.281 820.362 C 154.201 820.075, 151.600 819.450, 150.500 818.972 C 149.400 818.495, 145.800 817.584, 142.500 816.949 C 139.200 816.314, 132.450 813.999, 127.500 811.804 C 122.550 809.609, 116.575 806.956, 114.223 805.907 C 111.871 804.858, 109.464 804, 108.874 804 C 108.285 804, 106.384 803.345, 104.651 802.545 C 101.242 800.970, 95.053 798.682, 88.150 796.445 C 85.758 795.670, 78.333 794.544, 71.650 793.944 C 46.829 791.713, 43.422 791.315, 40 790.246 C 35.252 788.763, 7.192 784, 3.204 784 L 0 784 0 932.001 L 0 1080.001 960.250 1079.751 L 1920.500 1079.500 1920.530 931 C 1920.546 849.325, 1920.422 789.362, 1920.254 797.750 L 1919.948 813 1908.224 813.017 C 1901.776 813.027, 1892.450 813.700, 1887.500 814.514 C 1882.550 815.327, 1872.830 815.994, 1865.899 815.996 C 1854.136 816, 1847 817.130, 1847 818.988 C 1847 820.519, 1833.320 821.954, 1794.500 824.494 C 1766.524 826.325, 1755.602 827.532, 1748 829.633 C 1744.975 830.469, 1739.728 831.546, 1736.339 832.027 C 1732.950 832.508, 1728 833.547, 1725.339 834.335 C 1718.237 836.440, 1700.881 839.243, 1690 840.041 C 1675.740 841.088, 1663.932 843.595, 1649.500 848.638 C 1642.350 851.137, 1631.658 854.870, 1625.740 856.933 C 1619.823 858.997, 1614.685 860.981, 1614.324 861.343 C 1613.962 861.704, 1612.617 862, 1611.333 862 C 1610.050 862, 1609 862.392, 1609 862.871 C 1609 863.350, 1606.797 864.035, 1604.105 864.392 C 1601.413 864.749, 1598.701 865.656, 1598.077 866.407 C 1597.454 867.158, 1593.919 868.094, 1590.222 868.486 C 1586.525 868.878, 1581.700 869.822, 1579.500 870.585 C 1577.300 871.347, 1573.475 871.997, 1571 872.029 C 1568.525 872.061, 1564.475 872.529, 1562 873.069 C 1559.525 873.609, 1552.325 874.726, 1546 875.550 C 1539.675 876.374, 1532.025 877.488, 1529 878.025 C 1525.975 878.562, 1519.225 879.432, 1514 879.957 C 1501.536 881.211, 1495.238 882.473, 1491.190 884.527 C 1487.274 886.514, 1480.826 887.531, 1478.298 886.561 C 1477.309 886.181, 1476.275 885.868, 1476 885.864 C 1475.725 885.861, 1474.732 885.163, 1473.794 884.314 C 1472.422 883.072, 1470.051 882.845, 1461.673 883.155 C 1455.441 883.386, 1450.662 884.036, 1449.773 884.773 C 1448.957 885.451, 1446.879 886.170, 1445.156 886.370 C 1443.434 886.571, 1441.377 887.272, 1440.586 887.929 C 1439.627 888.725, 1434.705 889.117, 1425.823 889.104 C 1418.496 889.094, 1411.150 889.505, 1409.500 890.019 C 1406.522 890.945, 1392.849 892.502, 1377.500 893.664 C 1371.557 894.113, 1369.040 894.749, 1367.711 896.134 C 1365.947 897.974, 1363.526 898.343, 1355.336 898.023 C 1353.046 897.933, 1349.872 898.532, 1348.282 899.354 C 1343.327 901.917, 1322.264 904.152, 1299.779 904.502 C 1277.546 904.848, 1271.406 905.451, 1269.371 907.486 C 1268.700 908.157, 1265.255 908.785, 1261.715 908.883 C 1258.174 908.980, 1253.753 909.521, 1251.889 910.085 C 1250.025 910.648, 1242.425 911.313, 1235 911.561 C 1227.575 911.809, 1216.858 912.451, 1211.185 912.987 C 1204.119 913.655, 1198.448 913.622, 1193.185 912.883 C 1185.735 911.838, 1178.144 912.104, 1161.500 913.997 C 1157.100 914.497, 1147.875 915.152, 1141 915.453 C 1127.363 916.049, 1117 917.280, 1110 919.136 C 1107.525 919.792, 1097.400 920.505, 1087.500 920.720 C 1071.497 921.067, 1063.047 920.556, 1045.500 918.178 L 1040.500 917.500 1040.185 907.500 C 1040.011 902, 1040.551 892.550, 1041.385 886.500 C 1042.219 880.450, 1043.145 870.775, 1043.443 865 C 1043.978 854.645, 1045.305 847.609, 1047.153 845.339 C 1047.831 844.505, 1049.174 845.264, 1051.913 848.031 C 1057.224 853.394, 1062.502 861.579, 1069.181 874.805 C 1074.436 885.212, 1079.351 892.336, 1082.618 894.280 C 1084.660 895.494, 1091.469 888.679, 1093.483 883.406 C 1095.421 878.330, 1095.283 864.268, 1093.270 861.806 C 1091.635 859.805, 1092.683 852.365, 1095.699 844.551 C 1098.083 838.376, 1098.418 836.121, 1098.398 826.401 C 1098.378 816.658, 1098.096 814.827, 1096.088 811.425 C 1093.375 806.827, 1091.485 805.382, 1083.516 801.815 C 1078.580 799.606, 1075.978 797.393, 1068.819 789.315 L 1060.121 779.500 1060.644 771.500 C 1060.931 767.100, 1061.579 762.195, 1062.083 760.601 C 1064.078 754.294, 1062.940 744.480, 1058.826 732.500 C 1058.259 730.850, 1057.175 726.153, 1056.416 722.061 C 1055.246 715.745, 1054.469 714.036, 1051.269 710.737 C 1049.196 708.600, 1046.301 706.136, 1044.835 705.261 C 1041.204 703.092, 1040 700, 1040 692.839 C 1040 684.904, 1037.225 679.772, 1031.415 676.959 C 1026.499 674.579, 1019.444 673.653, 1016.297 674.975 M 0.487 932 C 0.487 1013.675, 0.605 1047.088, 0.750 1006.250 C 0.895 965.413, 0.895 898.588, 0.750 857.750 C 0.605 816.913, 0.487 850.325, 0.487 932" stroke="none" fill="black" fill-rule="evenodd"/>
	<path fill-opacity="0.518" d="M 0 263.508 C 0 522.753, 0.031 526.998, 1.913 525.823 C 2.965 525.166, 5.327 521.674, 7.163 518.064 C 8.998 514.454, 10.820 511.259, 11.211 510.965 C 12.176 510.239, 28.315 485.902, 29.148 483.915 C 29.514 483.044, 31.543 479.727, 33.657 476.544 C 35.770 473.361, 38.087 469.686, 38.805 468.378 C 39.522 467.070, 40.535 466, 41.055 466 C 41.575 466, 42 465.509, 42 464.908 C 42 463.524, 45.424 458.941, 50.250 453.866 C 52.313 451.697, 54 449.563, 54 449.124 C 54 448.052, 62 440.606, 64.710 439.155 C 65.897 438.520, 68.242 438, 69.920 438 C 71.598 438, 75.003 437.457, 77.486 436.793 C 81.045 435.841, 83.005 435.850, 86.750 436.838 C 93.338 438.575, 108.852 446.179, 109.522 448 C 110.139 449.678, 115.674 453.444, 119.142 454.545 C 120.387 454.940, 122.022 455.879, 122.775 456.632 C 124.030 457.887, 130.748 458.562, 139.803 458.342 C 142.978 458.266, 156.953 454.198, 163.784 451.363 C 165.590 450.613, 167.702 450, 168.477 450 C 169.252 450, 170.533 449.077, 171.323 447.949 C 172.581 446.153, 174.047 445.852, 183.105 445.527 C 193.027 445.172, 193.597 445.266, 197.063 447.829 C 202.139 451.580, 210.050 461.599, 211.187 465.713 C 212.295 469.728, 222.245 480.279, 229 484.601 C 231.475 486.185, 233.725 487.779, 234 488.143 C 234.275 488.507, 237.650 490.298, 241.500 492.122 C 245.350 493.945, 248.650 495.789, 248.833 496.219 C 249.017 496.648, 249.609 497, 250.150 497 C 250.691 497, 252.608 498.125, 254.411 499.500 C 258.038 502.266, 266.441 503.082, 267.286 500.750 C 267.648 499.750, 268.162 499.750, 269.856 500.750 C 272.747 502.457, 277.054 502.319, 280.909 500.396 C 282.678 499.513, 285.488 498.991, 287.155 499.236 C 289.105 499.522, 290.369 499.203, 290.700 498.340 C 290.983 497.603, 291.841 497, 292.607 497 C 293.373 497, 294 496.100, 294 495 C 294 493.900, 294.627 493, 295.393 493 C 296.159 493, 297.056 492.296, 297.386 491.437 C 297.716 490.577, 298.442 490.155, 299 490.500 C 299.558 490.845, 300.321 490.311, 300.696 489.313 C 301.071 488.316, 305.172 483.787, 309.810 479.250 L 318.242 471 324.371 470.885 C 330.238 470.774, 331.580 470.645, 333.250 470.027 C 333.663 469.875, 334.337 469.678, 334.750 469.590 C 335.163 469.501, 336.457 468.897, 337.626 468.246 C 338.795 467.595, 341.777 466.873, 344.254 466.642 C 348.037 466.289, 349.480 465.476, 353.293 461.553 C 355.789 458.985, 358.079 456.235, 358.384 455.442 C 358.688 454.649, 359.586 454, 360.379 454 C 361.173 454, 362.802 451.975, 364 449.500 C 365.377 446.656, 366.837 445, 367.967 445 C 370.661 445, 371.704 443.143, 373.022 436 C 373.682 432.425, 375.081 427.475, 376.130 425 C 378.327 419.822, 381 409.859, 381 406.852 C 381 404.998, 381.893 402.562, 385.345 395 C 385.973 393.625, 387.209 391.825, 388.093 391 C 389.132 390.029, 389.892 387.073, 390.245 382.624 C 390.545 378.842, 391.252 375.463, 391.816 375.114 C 392.380 374.765, 393.163 373.134, 393.555 371.490 C 393.948 369.845, 394.921 367.747, 395.719 366.828 C 396.517 365.908, 397.425 363.252, 397.737 360.926 C 398.049 358.599, 399.076 355.924, 400.020 354.980 C 401.031 353.969, 402.013 350.844, 402.409 347.382 C 403.449 338.274, 404.054 336, 405.436 336 C 406.292 336, 406.934 333.623, 407.383 328.793 C 407.751 324.829, 408.531 321.290, 409.117 320.928 C 410.240 320.234, 412.571 316.561, 413.550 313.944 C 413.870 313.089, 415.452 311.890, 417.066 311.281 C 418.680 310.672, 420 309.460, 420 308.587 C 420 307.714, 420.450 307, 421 307 C 421.550 307, 422 305.200, 422 303 C 422 300.800, 422.450 299, 423 299 C 423.550 299, 424 298.325, 424 297.500 C 424 296.675, 424.482 296, 425.071 296 C 428.281 296, 430.545 288.888, 427.750 287.583 C 426.750 287.117, 426.750 286.883, 427.750 286.417 C 428.437 286.096, 429 285.251, 429 284.539 C 429 283.827, 429.670 282.689, 430.489 282.009 C 431.308 281.329, 431.731 280.374, 431.430 279.887 C 431.129 279.399, 431.533 279, 432.330 279 C 433.214 279, 434.044 277.541, 434.463 275.250 C 434.840 273.188, 435.773 270.529, 436.537 269.342 C 437.724 267.497, 437.722 267.014, 436.519 266.016 C 434.710 264.515, 436.539 259.886, 438.624 260.686 C 439.381 260.976, 440 260.716, 440 260.107 C 440 259.498, 440.675 259, 441.500 259 C 442.440 259, 443 258.051, 443 256.455 C 443 255.055, 444.134 252.775, 445.519 251.390 C 446.905 250.004, 447.778 248.450, 447.460 247.935 C 447.142 247.421, 447.584 247, 448.441 247 C 449.492 247, 450 246.062, 450 244.122 C 450 242.539, 450.723 239.514, 451.607 237.399 C 452.490 235.284, 453.417 232.416, 453.667 231.027 C 453.916 229.637, 454.543 228.073, 455.060 227.550 C 455.577 227.028, 456 225.115, 456 223.300 C 456 221.485, 456.400 220, 456.889 220 C 457.823 220, 459.545 213.219, 459.047 211.500 C 458.544 209.758, 458.887 202.598, 459.598 200 C 459.975 198.625, 460.557 188.725, 460.893 178 C 461.290 165.297, 461.938 157.739, 462.751 156.316 C 463.438 155.114, 464 152.807, 464 151.188 C 464 149.569, 464.675 146.629, 465.500 144.654 C 466.325 142.680, 467 139.110, 467 136.720 C 467 132.257, 470.506 117.314, 471.977 115.510 C 472.430 114.955, 473.122 111.025, 473.515 106.778 C 474.128 100.151, 474.639 98.628, 477.115 96.037 C 478.702 94.377, 480 91.916, 480 90.568 C 480 89.221, 480.450 87.840, 481 87.500 C 481.550 87.160, 482 86.078, 482 85.096 C 482 82.970, 485.247 79.791, 487.152 80.052 C 491.932 80.707, 492 80.559, 492 69.500 L 492 59 495 59 C 497.533 59, 498 59.389, 498 61.500 C 498 63.611, 498.467 64, 501 64 L 504 64 504 56.500 C 504 49.667, 504.178 49, 506 49 C 507.111 49, 508 48.333, 508 47.500 C 508 46.675, 508.450 46, 509 46 C 509.583 46, 510 42.667, 510 38 C 510 33.600, 510.413 30, 510.918 30 C 511.423 30, 512.076 26.962, 512.370 23.250 C 513.228 12.407, 514.137 7, 515.101 7 C 515.595 7, 516 6.100, 516 5 C 516 3.900, 516.450 3, 517 3 C 517.550 3, 518 2.325, 518 1.500 C 518 0.171, 488.556 0, 259 0 L 0 0 0 263.508 M 1559.480 11.250 C 1559.555 17.438, 1559.894 23.175, 1560.232 24 C 1560.570 24.825, 1561.060 29.550, 1561.321 34.500 C 1561.925 45.980, 1565.008 59, 1567.121 59 C 1567.605 59, 1568 61.025, 1568 63.500 C 1568 65.975, 1568.450 68, 1569 68 C 1569.550 68, 1570 68.627, 1570 69.393 C 1570 70.159, 1570.675 71.045, 1571.500 71.362 C 1572.325 71.678, 1573 72.626, 1573 73.469 C 1573 74.311, 1573.675 75, 1574.500 75 C 1575.325 75, 1576 74.325, 1576 73.500 C 1576 72.675, 1576.450 72, 1577 72 C 1577.550 72, 1578 72.675, 1578 73.500 C 1578 74.325, 1578.450 75, 1579 75 C 1579.550 75, 1580 75.635, 1580 76.411 C 1580 79.156, 1585.606 82.675, 1590.999 83.313 C 1596.214 83.931, 1600 86.598, 1600 89.653 C 1600 90.394, 1600.351 91, 1600.781 91 C 1601.210 91, 1602.115 92.238, 1602.792 93.750 C 1603.469 95.263, 1605.590 99.200, 1607.505 102.500 C 1615.307 115.938, 1615.454 116.435, 1615.826 130.493 C 1616.014 137.639, 1616.557 143.726, 1617.032 144.020 C 1617.507 144.313, 1618.148 156.242, 1618.457 170.527 C 1619.528 220.115, 1620.072 234.060, 1621.034 236.588 C 1621.565 237.986, 1622 240.496, 1622 242.165 C 1622 245.263, 1626.404 262.963, 1627.902 265.885 C 1629.016 268.058, 1628.206 269.993, 1626.167 270.033 C 1624.764 270.061, 1624.830 270.343, 1626.584 271.809 C 1627.996 272.990, 1628.869 275.245, 1629.290 278.800 C 1629.632 281.686, 1630.265 284.599, 1630.698 285.274 C 1632.087 287.441, 1633.969 293.432, 1633.985 295.736 C 1634.007 299.037, 1636.319 307.395, 1637.427 308.178 C 1638.030 308.605, 1637.969 309.772, 1637.264 311.320 C 1636.646 312.675, 1635.641 320.920, 1635.028 329.642 C 1634.121 342.575, 1634.200 349.190, 1635.458 365.500 C 1637.298 389.361, 1637.926 394.299, 1639.223 395.122 C 1639.762 395.464, 1640.664 399.739, 1641.229 404.622 C 1641.793 409.505, 1642.760 413.872, 1643.377 414.326 C 1644.192 414.926, 1644.157 415.291, 1643.250 415.659 C 1641.471 416.381, 1641.699 417.699, 1644 420 C 1646.294 422.294, 1647.654 422.537, 1648.247 420.759 C 1648.544 419.867, 1649.150 420.007, 1650.402 421.259 C 1651.359 422.217, 1653.053 423, 1654.165 423 C 1655.277 423, 1656.399 423.810, 1656.658 424.801 C 1657.238 427.016, 1662.927 428.714, 1672.750 429.603 C 1676.737 429.963, 1680 430.682, 1680 431.201 C 1680 433.657, 1683.128 435, 1688.847 435 C 1695.741 435, 1698 435.643, 1698 437.607 C 1698 438.373, 1698.645 439, 1699.433 439 C 1700.221 439, 1701.151 439.900, 1701.500 441 C 1701.849 442.100, 1702.667 443.014, 1703.317 443.032 C 1705.717 443.096, 1708.409 446.098, 1708.454 448.759 C 1708.490 450.903, 1709.042 451.576, 1710.988 451.851 C 1712.356 452.044, 1714.636 453.416, 1716.055 454.900 C 1719.021 458.004, 1724.840 461, 1727.901 461 C 1729.056 461, 1730.001 461.563, 1730.003 462.250 C 1730.004 462.938, 1731.353 464.400, 1733 465.500 C 1734.647 466.600, 1735.996 467.990, 1735.997 468.589 C 1735.999 469.189, 1737.125 470.192, 1738.500 470.818 C 1739.875 471.445, 1741 472.417, 1741 472.979 C 1741 473.540, 1742.125 474, 1743.500 474 C 1744.875 474, 1746.900 474.900, 1748 476 C 1749.100 477.100, 1750.343 478, 1750.763 478 C 1751.182 478, 1751.970 478.983, 1752.513 480.185 C 1753.093 481.469, 1755.238 482.942, 1757.714 483.756 C 1760.031 484.519, 1762.956 486.228, 1764.214 487.555 C 1765.471 488.881, 1767.964 490.250, 1769.753 490.595 C 1771.542 490.941, 1774.017 492.290, 1775.253 493.595 C 1776.489 494.899, 1778.040 495.973, 1778.700 495.983 C 1779.360 495.992, 1780.373 496.788, 1780.950 497.750 C 1781.949 499.417, 1782.063 499.417, 1783.360 497.750 C 1784.108 496.787, 1785.133 496, 1785.638 496 C 1786.142 496, 1787.739 494.650, 1789.187 493 C 1792.429 489.306, 1795.635 489.105, 1797.182 492.500 C 1798.560 495.524, 1800.545 495.718, 1802.015 492.972 C 1802.612 491.857, 1803.511 491.198, 1804.014 491.508 C 1804.516 491.819, 1805.769 491.269, 1806.798 490.286 C 1809.855 487.368, 1812.786 486, 1815.986 486 C 1817.998 486, 1819 485.502, 1819 484.500 C 1819 481.873, 1822.406 482.883, 1825.718 486.492 C 1829.195 490.280, 1835.455 492.949, 1841 493.008 C 1847.137 493.073, 1855.620 498.059, 1861.086 504.815 C 1863.789 508.155, 1866 511.317, 1866 511.841 C 1866 512.365, 1867.174 514.132, 1868.608 515.767 C 1871.154 518.668, 1877 531.744, 1877 534.537 C 1877 535.309, 1878.298 538.541, 1879.885 541.720 C 1881.471 544.899, 1883.297 549.750, 1883.943 552.500 C 1884.589 555.250, 1885.653 558.447, 1886.308 559.604 C 1888.488 563.453, 1894.412 570, 1895.715 570 C 1896.422 570, 1897 570.477, 1897 571.059 C 1897 571.641, 1897.412 571.864, 1897.915 571.553 C 1898.418 571.242, 1898.989 571.468, 1899.185 572.056 C 1899.426 572.779, 1900.355 572.815, 1902.059 572.168 C 1903.444 571.641, 1908.047 570.885, 1912.289 570.488 L 1920 569.765 1920 284.883 L 1920 0 1739.671 0 L 1559.342 0 1559.480 11.250 M 452 126.500 C 452 127.333, 452.889 128, 454 128 C 455.111 128, 456 127.333, 456 126.500 C 456 125.667, 455.111 125, 454 125 C 452.889 125, 452 125.667, 452 126.500 M 1682 130.885 C 1682 132.323, 1682.461 132.760, 1683.542 132.345 C 1685.249 131.690, 1685.039 129.846, 1683.188 129.229 C 1682.528 129.009, 1682 129.746, 1682 130.885 M 1646 135.941 C 1646 136.459, 1646.450 137.160, 1647 137.500 C 1647.550 137.840, 1648 137.416, 1648 136.559 C 1648 135.702, 1647.550 135, 1647 135 C 1646.450 135, 1646 135.423, 1646 135.941 M 1700 145.927 C 1700 147.358, 1700.642 148, 1702.073 148 C 1704.636 148, 1704.345 144.690, 1701.739 144.188 C 1700.539 143.957, 1700 144.496, 1700 145.927 M 373.229 146.188 C 373.847 148.042, 376 148.349, 376 146.583 C 376 145.713, 375.288 145, 374.417 145 C 373.546 145, 373.011 145.534, 373.229 146.188 M 1669.667 169.667 C 1668.290 171.043, 1669.073 173, 1671 173 C 1673.202 173, 1673.273 172.876, 1672.393 170.582 C 1671.749 168.903, 1670.762 168.572, 1669.667 169.667 M 425.192 201.075 C 425.389 201.666, 425.978 202.150, 426.500 202.150 C 427.022 202.150, 427.611 201.666, 427.808 201.075 C 428.005 200.484, 427.417 200, 426.500 200 C 425.583 200, 424.995 200.484, 425.192 201.075 M 1695.667 245.667 C 1695.300 246.033, 1695 246.798, 1695 247.367 C 1695 247.993, 1695.466 247.934, 1696.183 247.217 C 1696.834 246.566, 1697.134 245.801, 1696.850 245.517 C 1696.566 245.232, 1696.033 245.300, 1695.667 245.667 M 28.150 306.950 C 28.580 308.239, 29.951 308.471, 30.075 307.275 C 30.116 306.876, 29.610 306.370, 28.950 306.150 C 28.290 305.930, 27.930 306.290, 28.150 306.950 M 312 335 C 312 335.550, 312.423 336, 312.941 336 C 313.459 336, 314.160 335.550, 314.500 335 C 314.840 334.450, 314.416 334, 313.559 334 C 312.702 334, 312 334.450, 312 335 M 1778 352.583 C 1778 354.349, 1780.153 354.042, 1780.771 352.188 C 1780.989 351.534, 1780.454 351, 1779.583 351 C 1778.713 351, 1778 351.712, 1778 352.583 M 320 356.500 C 320 359.309, 321.160 359.717, 322.964 357.544 C 324.354 355.869, 323.551 354, 321.441 354 C 320.571 354, 320 354.990, 320 356.500 M 1703.626 363.533 C 1702.707 365.926, 1702.766 366, 1705.573 366 C 1707.479 366, 1708.060 365.549, 1707.812 364.261 C 1707.371 361.970, 1704.423 361.457, 1703.626 363.533 M 1680 365 C 1680 366.333, 1680.667 367, 1682 367 C 1683.333 367, 1684 366.333, 1684 365 C 1684 363.667, 1683.333 363, 1682 363 C 1680.667 363, 1680 363.667, 1680 365 M 1758 389 C 1758 389.550, 1758.450 390, 1759 390 C 1759.550 390, 1760 389.550, 1760 389 C 1760 388.450, 1759.550 388, 1759 388 C 1758.450 388, 1758 388.450, 1758 389 M 1751 420.833 C 1751 422.242, 1752.126 422.889, 1753.598 422.324 C 1755.685 421.523, 1755.293 420, 1753 420 C 1751.900 420, 1751 420.375, 1751 420.833 M 216 425 C 216 427.274, 218.508 427.725, 219.324 425.598 C 219.952 423.962, 219.214 423, 217.333 423 C 216.600 423, 216 423.900, 216 425 M 324 442 C 324 444.325, 325.263 444.593, 326.903 442.617 C 327.792 441.546, 327.688 441.094, 326.444 440.617 C 324.121 439.725, 324 439.794, 324 442 M 1019.667 705.667 C 1019.300 706.033, 1019 706.972, 1019 707.753 C 1019 708.534, 1016.638 711.547, 1013.750 714.448 C 1007.388 720.841, 1007.198 721.100, 1003.750 728.110 C 1000.387 734.946, 1000.381 735.350, 1003.528 742.468 C 1005.436 746.781, 1005.892 749.059, 1005.387 751.748 C 1004.606 755.915, 1000.154 761, 997.288 761 C 994.870 761, 990 765.306, 990 767.444 C 990 768.290, 989.100 769.545, 988 770.232 C 986.900 770.919, 986 772.065, 986 772.780 C 986 774.706, 975.161 785, 973.132 785 C 972.668 785, 970.253 786.554, 967.766 788.452 C 964.409 791.016, 962.119 791.958, 958.873 792.110 C 953.791 792.350, 950.406 794.876, 949.472 799.126 C 949.125 800.707, 948.427 802, 947.921 802 C 947.414 802, 947 804.429, 947 807.397 C 947 812.583, 948.677 816.926, 954.569 827 C 955.374 828.375, 956.463 830.737, 956.991 832.250 C 957.861 834.745, 958.441 835.017, 963.225 835.180 C 974.337 835.558, 979 834.112, 979 830.286 C 979 829.514, 979.371 829.111, 979.824 829.391 C 980.277 829.671, 981.605 828.910, 982.776 827.700 C 995.192 814.859, 997.777 812.023, 998.294 810.677 C 998.623 809.819, 1000.058 808.353, 1001.483 807.419 C 1003.976 805.786, 1004.168 805.809, 1006.537 808.035 C 1007.892 809.307, 1009 811.113, 1009 812.047 C 1009 812.981, 1010.100 817.113, 1011.444 821.230 C 1012.787 825.347, 1013.652 829.614, 1013.365 830.711 C 1012.730 833.142, 1014.726 841, 1015.980 841 C 1016.476 841, 1017.165 840.543, 1017.510 839.984 C 1017.856 839.425, 1018.560 839.228, 1019.076 839.547 C 1019.592 839.866, 1020.302 839.378, 1020.653 838.462 C 1021.017 837.513, 1020.692 836.418, 1019.896 835.914 C 1018.898 835.283, 1018.857 835.026, 1019.750 835.015 C 1020.469 835.007, 1021 833.725, 1021 832 C 1021 829.751, 1021.462 829, 1022.845 829 C 1025.254 829, 1028 832.088, 1028 834.798 C 1028 835.976, 1028.894 838.531, 1029.987 840.477 C 1031.080 842.423, 1032.017 844.349, 1032.070 844.757 C 1032.291 846.462, 1032.802 845.923, 1033.454 843.297 C 1033.836 841.758, 1034.956 839.600, 1035.943 838.500 C 1036.930 837.400, 1038.030 835.263, 1038.388 833.750 C 1038.982 831.239, 1039.441 831, 1043.670 831 C 1048.019 831, 1048.632 831.352, 1053.684 836.750 C 1061.462 845.062, 1062 845.789, 1062 848 C 1062 849.100, 1062.450 850, 1063 850 C 1063.550 850, 1064 850.675, 1064 851.500 C 1064 852.325, 1064.338 853.001, 1064.750 853.001 C 1065.162 853.002, 1066.775 854.099, 1068.332 855.438 C 1070.968 857.705, 1074 857.948, 1074 855.893 C 1074 855.402, 1074.600 855, 1075.333 855 C 1076.135 855, 1077.102 852.909, 1077.762 849.750 C 1078.365 846.862, 1079.787 840.900, 1080.922 836.500 C 1082.056 832.100, 1082.988 827.340, 1082.992 825.921 C 1083.001 822.911, 1078.074 815.081, 1074.026 811.676 C 1072.479 810.373, 1069.987 806.805, 1068.489 803.747 C 1066.992 800.688, 1062.912 795.158, 1059.424 791.458 C 1052.624 784.244, 1052.780 784.673, 1051.524 769.826 C 1051.214 766.155, 1049.878 759.742, 1048.555 755.576 C 1046.429 748.876, 1046.261 747.221, 1047.103 741.274 C 1048.236 733.279, 1047.279 730.195, 1042.042 724.959 C 1038.265 721.183, 1036.958 719.376, 1034.335 714.304 C 1033.263 712.234, 1030.665 710.034, 1026.951 708.054 C 1020.687 704.716, 1020.635 704.699, 1019.667 705.667 M 0 933.421 L 0 1080.001 960.250 1079.751 L 1920.500 1079.500 1920.531 932.500 C 1920.547 851.650, 1920.423 792.068, 1920.255 800.096 L 1919.948 814.692 1905.387 815.353 C 1897.379 815.717, 1888.953 816.463, 1886.663 817.011 C 1884.373 817.559, 1875.750 818.418, 1867.500 818.920 C 1857.171 819.549, 1850.632 820.460, 1846.500 821.848 C 1840.624 823.821, 1823.284 826, 1813.454 826 C 1810.729 826, 1804.900 826.691, 1800.500 827.534 C 1796.100 828.378, 1786.875 829.474, 1780 829.970 C 1773.125 830.465, 1766.375 831.105, 1765 831.391 C 1763.625 831.678, 1759.631 832.366, 1756.124 832.921 C 1752.617 833.476, 1747.991 834.845, 1745.843 835.965 C 1743.696 837.084, 1741.293 838, 1740.504 838 C 1738.132 838, 1729.611 841.111, 1727.942 842.586 C 1727.084 843.343, 1724.834 844.164, 1722.942 844.409 C 1712.670 845.742, 1694.243 849.285, 1690.642 850.621 C 1677.740 855.406, 1667.565 858.272, 1659.072 859.513 C 1653.807 860.282, 1647.250 861.355, 1644.500 861.896 C 1641.750 862.438, 1637.138 862.908, 1634.250 862.940 C 1631.362 862.973, 1629 863.401, 1629 863.891 C 1629 864.380, 1627.538 865.036, 1625.750 865.347 C 1618.219 866.658, 1608.009 868.884, 1601 870.743 C 1596.875 871.837, 1589 873.543, 1583.500 874.535 C 1578 875.526, 1573.050 876.745, 1572.500 877.244 C 1571.857 877.826, 1572.486 878.942, 1574.263 880.372 L 1577.026 882.596 1567.763 884.926 C 1552.185 888.846, 1543.886 890.127, 1534.722 890.028 C 1528.901 889.965, 1524.859 890.432, 1522.722 891.415 C 1516.805 894.137, 1507.290 896, 1499.306 896 C 1491.501 896, 1489 896.898, 1489 899.700 C 1489 900.604, 1490.624 901, 1494.333 901 C 1497.267 901, 1500.007 901.337, 1500.424 901.750 C 1500.840 902.163, 1501.928 902.546, 1502.840 902.602 C 1503.753 902.658, 1505.850 902.784, 1507.500 902.882 C 1512.498 903.180, 1508.044 904.966, 1501.846 905.150 C 1498.906 905.237, 1495.503 905.914, 1494.285 906.654 C 1491.608 908.281, 1487.373 908.413, 1486.438 906.900 C 1486.012 906.211, 1483.869 906.003, 1480.707 906.343 C 1474.679 906.991, 1472 905.803, 1472 902.484 C 1472 900.652, 1471.309 899.862, 1469.250 899.337 C 1464.952 898.241, 1457.888 898.492, 1452.785 899.920 C 1448.577 901.098, 1448.238 901.409, 1449.302 903.113 C 1450.310 904.726, 1451.789 905.010, 1459.491 905.070 C 1472.104 905.169, 1473.359 905.885, 1466.779 909.233 C 1461.504 911.918, 1461.480 911.920, 1433 912.441 C 1417.325 912.727, 1400.941 913.407, 1396.591 913.950 C 1391.940 914.531, 1387.099 914.583, 1384.841 914.076 C 1382.728 913.601, 1379.312 913.571, 1377.250 914.010 C 1373.899 914.723, 1361.559 915.258, 1347.500 915.302 C 1336.539 915.335, 1327.212 914.654, 1321.576 913.407 C 1318.319 912.686, 1315.245 912.349, 1314.746 912.657 C 1314.248 912.965, 1305.888 913.437, 1296.170 913.706 C 1286.451 913.975, 1277.982 914.620, 1277.348 915.138 C 1276.715 915.657, 1270.097 916.491, 1262.642 916.990 C 1255.187 917.490, 1247.155 918.423, 1244.793 919.063 C 1242.432 919.703, 1237.125 920.592, 1233 921.038 C 1228.875 921.484, 1223.475 922.314, 1221 922.881 C 1218.525 923.449, 1213.264 923.932, 1209.309 923.956 C 1205.354 923.980, 1201.859 924.420, 1201.542 924.933 C 1200.306 926.933, 1189.804 928.274, 1184.545 927.104 C 1181.317 926.386, 1160.230 925.820, 1126 925.532 C 1053.866 924.926, 1035.048 924.240, 1032.641 922.130 C 1030.247 920.030, 1020.279 920.287, 1015.881 922.562 C 1013.143 923.978, 1009.539 924.099, 986.629 923.550 C 972.258 923.205, 956.675 922.451, 952 921.874 C 942.906 920.753, 916.792 919.714, 918.562 920.543 C 919.308 920.893, 919.313 922.382, 918.577 925.553 C 917.248 931.280, 914.412 932.264, 905 930.263 C 901.425 929.503, 896.250 928.557, 893.500 928.161 C 887.062 927.233, 886 926.503, 886 923.008 C 886 921.150, 885.382 919.939, 884.250 919.580 C 881.197 918.611, 864.867 918.719, 854.500 919.775 C 846.818 920.558, 841.834 920.467, 833 919.384 C 826.675 918.608, 817.360 917.928, 812.301 917.872 C 805.458 917.797, 801.404 917.178, 796.474 915.455 C 790.791 913.470, 788.603 913.220, 781.113 913.706 C 776.181 914.025, 769.493 913.769, 765.748 913.117 C 762.100 912.481, 754.927 911.732, 749.808 911.451 C 744.688 911.171, 738.475 910.705, 736 910.416 C 733.525 910.127, 724.750 909.422, 716.500 908.849 C 692.661 907.193, 676.528 905.353, 674.004 904.002 C 673.142 903.541, 667.500 902.886, 661.468 902.547 C 648.267 901.805, 642.762 901.378, 629 900.027 C 623.225 899.460, 612.200 898.777, 604.500 898.510 C 596.800 898.243, 588.925 897.545, 587 896.960 C 585.075 896.375, 581.250 895.451, 578.500 894.907 C 563.855 892.013, 563.323 891.975, 558.989 893.504 C 553.335 895.499, 548.156 895.386, 544.500 893.190 C 541.195 891.204, 530.807 887.751, 529.394 888.168 C 528.263 888.502, 513.704 886.207, 508.813 884.925 C 506.786 884.393, 504.761 884.045, 504.313 884.152 C 500.650 885.028, 483.395 881.091, 479.771 878.552 C 478.464 877.637, 475.440 877, 472.400 877 C 469.274 877, 466.801 876.465, 466.117 875.640 C 465.496 874.893, 461.503 873.739, 457.244 873.077 C 452.985 872.415, 446.575 871.421, 443 870.868 C 439.425 870.315, 435.150 869.481, 433.500 869.014 C 428.942 867.723, 425.136 867.109, 418 866.514 C 411.307 865.956, 405.220 864.425, 403.550 862.879 C 403.027 862.396, 397.852 861.985, 392.050 861.967 C 386.247 861.949, 378.575 861.526, 375 861.027 C 360.508 859.002, 340.206 855.136, 335.559 853.515 C 328.179 850.940, 320.254 849, 317.118 849 C 315.586 849, 314.042 848.709, 313.686 848.353 C 312.817 847.484, 302.866 844.074, 301.079 844.033 C 300.297 844.015, 298.938 843.349, 298.058 842.553 C 297.057 841.647, 293.101 840.861, 287.480 840.453 C 282.541 840.093, 275.125 839.116, 271 838.280 C 265.842 837.235, 253.510 836.532, 231.500 836.028 C 196.518 835.226, 200.711 835.825, 171.500 827.455 C 161.050 824.460, 162.105 824.735, 150.500 821.979 C 138.690 819.174, 136.948 818.582, 124 812.969 C 97.805 801.615, 87.271 798.443, 69.739 796.630 C 61.620 795.791, 54.645 794.901, 54.239 794.653 C 53.832 794.404, 49.225 793.690, 44 793.066 C 38.775 792.442, 29.775 791.073, 24 790.025 C 18.225 788.977, 10.463 787.831, 6.750 787.480 L 0 786.841 0 933.421 M 0.487 933.500 C 0.487 1014.350, 0.605 1047.277, 0.750 1006.672 C 0.895 966.066, 0.895 899.916, 0.750 859.672 C 0.605 819.427, 0.487 852.650, 0.487 933.500" stroke="none" fill="black" fill-rule="evenodd"/>
	<path fill-opacity="0.203" d="M 0 237.535 C 0 469.929, 0.041 475.049, 1.885 474.062 C 2.922 473.507, 4.058 471.904, 4.410 470.501 C 4.763 469.097, 5.939 467.061, 7.025 465.975 C 8.111 464.889, 9 462.905, 9 461.567 C 9 459.896, 10.410 457.978, 13.500 455.446 C 16.144 453.280, 18 450.922, 18 449.729 C 18 447.382, 25.456 439.996, 30.932 436.918 C 32.993 435.759, 35.503 433.391, 36.508 431.656 C 40.604 424.583, 48.975 417.017, 52.741 416.985 C 53.921 416.974, 54.108 416.720, 53.310 416.213 C 52.485 415.688, 52.944 414.800, 54.810 413.313 C 56.290 412.135, 58.581 410.232, 59.903 409.085 C 61.225 407.938, 63.121 407, 64.116 407 C 65.111 407, 68.202 406.103, 70.984 405.006 C 74.972 403.435, 79.163 402.920, 90.771 402.578 C 98.872 402.338, 106.769 401.660, 108.320 401.070 C 110.583 400.208, 111.453 400.310, 112.729 401.586 C 114.121 402.978, 117.371 403.119, 138.909 402.722 C 160.498 402.324, 164.191 402.018, 169.163 400.214 C 172.278 399.084, 175.887 397.465, 177.182 396.616 C 178.646 395.657, 183.220 394.814, 189.269 394.389 C 195.920 393.921, 199 393.316, 199 392.477 C 199 390.755, 203.738 390, 214.542 390 C 220.997 390, 224.011 389.618, 224.417 388.750 C 224.883 387.750, 225.117 387.750, 225.583 388.750 C 226.356 390.406, 239.672 390.484, 240.221 388.837 C 240.472 388.085, 241.474 388.417, 243.054 389.776 C 244.400 390.933, 246.564 392.791, 247.865 393.907 C 249.166 395.022, 251.528 396.509, 253.115 397.211 C 254.702 397.914, 256 398.828, 256 399.244 C 256 399.660, 256.900 400, 258 400 C 259.100 400, 260 399.550, 260 399 C 260 398.450, 261.800 398, 264 398 C 266.200 398, 268 398.450, 268 399 C 268 399.550, 268.689 400, 269.531 400 C 270.374 400, 271.322 400.675, 271.638 401.500 C 272.085 402.665, 274.051 403, 280.442 403 C 288.338 403, 288.778 402.878, 291.365 399.975 C 292.847 398.311, 294.328 395.611, 294.655 393.975 C 294.982 392.339, 295.869 391, 296.625 391 C 297.491 391, 298 389.871, 298 387.950 C 298 386.273, 298.716 383.516, 299.591 381.824 C 300.466 380.132, 301.382 377.133, 301.627 375.160 C 301.872 373.188, 302.523 371.295, 303.075 370.954 C 303.740 370.543, 303.715 369.379, 303 367.500 C 302.216 365.438, 302.229 364.477, 303.047 363.971 C 303.666 363.588, 304.082 362.426, 303.971 361.388 C 303.556 357.500, 304.092 356.212, 307.649 352.550 C 311.173 348.921, 311.543 347.668, 310.910 341.500 C 310.798 340.400, 310.146 338.683, 309.462 337.684 C 308.456 336.214, 308.505 335.294, 309.720 332.860 C 311.573 329.145, 312.842 328.594, 320.630 328.128 C 322.507 328.015, 322.813 327.267, 323.208 321.807 C 323.459 318.331, 324.170 315.443, 324.828 315.224 C 326.412 314.696, 326.325 312, 324.724 312 C 323.838 312, 323.564 310.777, 323.829 308 C 324.074 305.427, 324.708 304, 325.605 304 C 326.372 304, 327 303.582, 327 303.071 C 327 302.561, 327.610 301.533, 328.355 300.788 C 329.100 300.043, 330.222 296.524, 330.849 292.968 C 331.475 289.413, 332.440 286.353, 332.994 286.169 C 333.547 285.984, 334 285.196, 334 284.417 C 334 283.590, 334.995 283, 336.389 283 C 338.327 283, 338.901 282.340, 339.434 279.500 C 339.795 277.575, 340.520 276, 341.045 276 C 341.570 276, 342 274.650, 342 273 C 342 271.350, 342.829 269.171, 343.841 268.159 C 345.789 266.211, 348 258.920, 348 254.442 C 348 252.667, 349.171 250.697, 351.485 248.578 C 354.762 245.576, 354.956 245.046, 354.735 239.694 C 354.580 235.934, 354.076 234.002, 353.250 234.001 C 351.873 234, 351.683 232.989, 352.607 230.582 C 353.478 228.312, 355.509 228.633, 356.832 231.250 C 357.457 232.487, 357.887 232.825, 357.788 232 C 357.527 229.824, 358.979 226, 360.067 226 C 360.580 226, 361 225.325, 361 224.500 C 361 223.675, 361.400 223, 361.889 223 C 362.377 223, 363.055 221.523, 363.393 219.718 C 363.732 217.912, 364.907 215.788, 366.005 214.997 C 367.102 214.206, 368 213.017, 368 212.356 C 368 211.695, 369.259 209.882, 370.798 208.327 C 373.028 206.075, 373.829 203.979, 374.740 198.019 C 375.369 193.905, 376.345 190.385, 376.910 190.197 C 377.475 190.008, 378.226 188.312, 378.580 186.427 C 378.933 184.542, 379.623 183, 380.111 183 C 380.600 183, 381 181.425, 381 179.500 C 381 177.013, 381.446 176, 382.542 176 C 383.390 176, 385.050 175.100, 386.230 174 C 387.411 172.900, 387.905 172, 387.327 172 C 386.747 172, 386.491 170.883, 386.755 169.500 C 387.018 168.125, 387.806 167, 388.505 167 C 389.205 167, 390.073 165.425, 390.434 163.500 C 390.795 161.575, 391.674 160, 392.387 160 C 393.100 160, 394.223 158.200, 394.882 156 C 395.541 153.800, 396.422 152, 396.839 152 C 397.257 152, 397.415 150.425, 397.190 148.500 C 396.888 145.915, 397.162 145, 398.238 145 C 399.039 145, 400.663 144.160, 401.847 143.133 C 403.575 141.634, 404 140.154, 404 135.633 C 404 132.535, 403.550 130, 403 130 C 402.450 130, 402 128.425, 402 126.500 C 402 124.575, 402.450 123, 403 123 C 403.550 123, 404 122.100, 404 121 C 404 119.900, 404.450 119, 405 119 C 405.550 119, 406 117.425, 406 115.500 C 406 113.056, 405.548 112, 404.500 112 C 403.675 112, 403 111.550, 403 111 C 403 110.450, 403.514 110, 404.142 110 C 404.959 110, 405.136 106.890, 404.764 99.043 C 404.401 91.393, 404.585 87.961, 405.372 87.673 C 406.155 87.387, 406.042 86.534, 405 84.881 C 403.798 82.974, 403.437 77.676, 403.186 58.250 C 402.954 40.418, 402.557 33.992, 401.686 33.969 C 401.034 33.951, 399.646 32.766, 398.602 31.334 C 396.892 28.989, 396.762 27.481, 397.293 16.116 C 397.739 6.562, 397.566 3.075, 396.581 1.750 C 395.349 0.094, 384.706 0, 197.640 0 L 0 0 0 237.535 M 1651.132 3.250 C 1651.697 5.038, 1653.026 8.140, 1654.084 10.144 C 1655.143 12.149, 1656.293 15.861, 1656.641 18.394 C 1657.040 21.309, 1657.773 23, 1658.636 23 C 1659.386 23, 1660 23.810, 1660 24.800 C 1660 27.760, 1662.126 29, 1667.200 29 C 1669.840 29, 1672 29.450, 1672 30 C 1672 30.550, 1673.617 31, 1675.594 31 C 1678.346 31, 1679.310 31.468, 1679.710 33 C 1679.998 34.100, 1680.631 35, 1681.117 35 C 1681.602 35, 1682 38.552, 1682 42.893 C 1682 48.987, 1682.342 50.917, 1683.500 51.362 C 1684.325 51.678, 1685 52.626, 1685 53.469 C 1685 54.311, 1685.787 55.045, 1686.750 55.100 C 1687.904 55.165, 1687.679 55.429, 1686.088 55.874 L 1683.677 56.548 1686.194 59.264 C 1688.207 61.436, 1688.846 63.434, 1689.383 69.240 C 1689.753 73.233, 1690.493 76.650, 1691.027 76.833 C 1691.562 77.017, 1692 80.692, 1692 85.002 C 1692 93.702, 1692.545 96, 1694.607 96 C 1695.591 96, 1696 94.680, 1696 91.500 C 1696 89.025, 1696.450 87, 1697 87 C 1697.613 87, 1698 91.806, 1698 99.417 C 1698 107.737, 1698.372 111.957, 1699.127 112.209 C 1699.747 112.416, 1700.482 114.966, 1700.762 117.876 C 1701.065 121.031, 1701.821 123.378, 1702.635 123.690 C 1704.253 124.311, 1704.600 136, 1703 136 C 1702.450 136, 1701.971 135.438, 1701.937 134.750 C 1701.902 134.063, 1701.442 134.578, 1700.915 135.895 C 1700.388 137.213, 1700.253 138.563, 1700.615 138.895 C 1700.978 139.228, 1701.475 138.938, 1701.720 138.250 C 1702.277 136.690, 1704 136.601, 1704 138.133 C 1704 138.756, 1704.809 139.993, 1705.797 140.883 C 1706.786 141.772, 1707.653 143.447, 1707.724 144.606 C 1707.864 146.878, 1711.911 156.166, 1713.135 157.022 C 1713.545 157.310, 1714.858 161.104, 1716.051 165.454 C 1717.245 169.805, 1718.816 173.958, 1719.542 174.685 C 1720.269 175.412, 1721.177 179.605, 1721.561 184.003 C 1721.944 188.401, 1722.605 192, 1723.029 192 C 1723.454 192, 1724.365 194.363, 1725.055 197.250 C 1725.745 200.137, 1726.634 203.175, 1727.032 204 C 1728.297 206.627, 1730 212.581, 1730 214.380 C 1730 215.439, 1730.451 215.839, 1731.155 215.405 C 1731.898 214.945, 1732.036 215.132, 1731.543 215.931 C 1730.598 217.460, 1733.979 224, 1735.716 224 C 1736.413 224, 1737.262 225.787, 1737.616 228 C 1738.002 230.413, 1738.800 232, 1739.628 232 C 1740.383 232, 1741 232.643, 1741 233.429 C 1741 234.214, 1741.563 235.452, 1742.250 236.179 C 1742.938 236.905, 1744.038 238.625, 1744.695 240 C 1747.501 245.868, 1750 251.966, 1750 252.945 C 1750 253.525, 1750.452 254, 1751.004 254 C 1751.556 254, 1752.549 256.025, 1753.211 258.500 C 1753.873 260.975, 1754.771 263, 1755.207 263 C 1755.643 263, 1756 263.900, 1756 265 C 1756 266.100, 1756.450 267, 1757 267 C 1757.550 267, 1758 267.482, 1758 268.071 C 1758 269.665, 1760.633 272, 1762.429 272 C 1763.293 272, 1764 272.432, 1764 272.960 C 1764 273.488, 1765.800 274.459, 1768 275.118 C 1770.200 275.777, 1772 276.690, 1772 277.146 C 1772 277.903, 1779.623 279.649, 1781.147 279.241 C 1781.504 279.146, 1781.564 279.953, 1781.281 281.034 C 1780.945 282.320, 1781.267 283, 1782.214 283 C 1783.011 283, 1784.264 284.125, 1785 285.500 C 1785.736 286.875, 1786.937 288, 1787.669 288 C 1788.401 288, 1789 288.675, 1789 289.500 C 1789 290.585, 1790.115 291, 1793.031 291 C 1795.958 291, 1797.240 291.480, 1797.708 292.750 C 1798.064 293.712, 1798.837 294.831, 1799.427 295.235 C 1800.148 295.729, 1800.090 295.974, 1799.250 295.985 C 1798.563 295.993, 1798 296.445, 1798 296.989 C 1798 298.512, 1801.289 302, 1802.726 302 C 1803.431 302, 1804.549 304.025, 1805.211 306.500 C 1805.873 308.975, 1806.771 311, 1807.207 311 C 1807.643 311, 1808 311.681, 1808 312.514 C 1808 314.036, 1808.341 314.863, 1811.357 320.654 C 1812.261 322.389, 1813 324.527, 1813 325.404 C 1813 326.282, 1813.675 327, 1814.500 327 C 1815.325 327, 1816.001 327.788, 1816.001 328.750 C 1816.002 329.712, 1817.163 331.850, 1818.582 333.500 C 1821.153 336.489, 1821.198 336.499, 1830.423 336.157 L 1839.684 335.814 1841.275 339.157 C 1842.150 340.996, 1844.470 344.300, 1846.432 346.500 C 1848.394 348.700, 1849.999 351.063, 1849.999 351.750 C 1850 352.438, 1850.450 353, 1851 353 C 1851.550 353, 1852 353.866, 1852 354.924 C 1852 359.169, 1854.477 367.245, 1855.946 367.791 C 1858.558 368.762, 1863.062 376, 1861.055 376 C 1860.570 376, 1860.683 377.350, 1861.306 379 C 1861.929 380.650, 1862.790 382, 1863.219 382 C 1864.531 382, 1868.081 385.994, 1867.917 387.286 C 1867.513 390.474, 1868.183 391.887, 1870.240 392.180 C 1873.173 392.599, 1873.627 395.373, 1871.165 397.835 C 1869.300 399.700, 1869.282 400.026, 1870.779 404.647 C 1871.644 407.316, 1872.731 409.757, 1873.194 410.070 C 1873.658 410.384, 1874.526 413.422, 1875.125 416.820 C 1875.724 420.219, 1876.554 423, 1876.969 423 C 1877.385 423, 1878.771 427.500, 1880.049 433 C 1881.328 438.500, 1882.740 443, 1883.187 443 C 1883.634 443, 1884 443.900, 1884 445 C 1884 446.100, 1884.372 447, 1884.827 447 C 1885.282 447, 1885.450 448.390, 1885.200 450.088 C 1884.797 452.839, 1885.007 453.155, 1887.124 452.977 C 1893.611 452.435, 1896 452.979, 1896 455 C 1896 456.412, 1896.662 456.995, 1898.250 456.985 C 1900.077 456.972, 1900.218 456.784, 1899 455.985 C 1897.667 455.109, 1897.667 454.891, 1899 454.015 C 1901.202 452.570, 1903 452.788, 1903 454.500 C 1903 455.325, 1902.550 456, 1902 456 C 1901.450 456, 1901 456.450, 1901 457 C 1901 457.550, 1901.675 458, 1902.500 458 C 1903.325 458, 1904 457.550, 1904 457 C 1904 456.450, 1904.450 456, 1905 456 C 1905.550 456, 1906 456.675, 1906 457.500 C 1906 458.690, 1907.444 459, 1913 459 L 1920 459 1920 229.500 L 1920 0 1785.052 0 L 1650.104 0 1651.132 3.250 M 372.336 130.567 C 371.614 132.448, 373.384 134.499, 374.913 133.554 C 376.561 132.535, 376.216 129, 374.469 129 C 373.626 129, 372.667 129.705, 372.336 130.567 M 396 143 C 396 143.550, 396.900 144, 398 144 C 399.100 144, 400 143.550, 400 143 C 400 142.450, 399.100 142, 398 142 C 396.900 142, 396 142.450, 396 143 M 372.177 145.580 C 372.639 149.464, 375.666 151.108, 377.587 148.519 C 379.821 145.511, 378.929 143.543, 375.169 143.181 C 372.087 142.885, 371.877 143.053, 372.177 145.580 M 1780.500 171 C 1780.160 171.550, 1780.610 172, 1781.500 172 C 1782.390 172, 1782.840 171.550, 1782.500 171 C 1782.160 170.450, 1781.710 170, 1781.500 170 C 1781.290 170, 1780.840 170.450, 1780.500 171 M 238.473 215.044 C 237.568 216.508, 238.884 217.982, 240.532 217.349 C 241.339 217.040, 242 216.432, 242 216 C 242 214.761, 239.129 213.982, 238.473 215.044 M 304.394 274.417 C 303.566 276.574, 304.717 279.261, 306.251 278.750 C 306.938 278.521, 307.500 277.283, 307.500 276 C 307.500 273.259, 305.273 272.124, 304.394 274.417 M 1852 287 C 1852 287.550, 1852.675 288, 1853.500 288 C 1854.325 288, 1855 287.550, 1855 287 C 1855 286.450, 1854.325 286, 1853.500 286 C 1852.675 286, 1852 286.450, 1852 287 M 68 301.059 C 68 301.641, 68.450 301.840, 69 301.500 C 69.550 301.160, 70 300.684, 70 300.441 C 70 300.198, 69.550 300, 69 300 C 68.450 300, 68 300.477, 68 301.059 M 27.666 306.427 C 26.941 308.318, 29.188 310.120, 30.929 309.044 C 32.585 308.020, 31.621 305, 29.638 305 C 28.855 305, 27.968 305.642, 27.666 306.427 M 243.250 330.703 C 241.184 331.469, 241.752 335, 243.941 335 C 245.009 335, 246.187 334.507, 246.559 333.904 C 247.419 332.514, 244.910 330.088, 243.250 330.703 M 201.306 367.700 C 200.050 368.152, 200.649 371, 202 371 C 203.065 371, 204.091 368.164, 203.206 367.667 C 202.818 367.449, 201.963 367.463, 201.306 367.700 M 82 372.073 C 82 374.636, 85.310 374.345, 85.812 371.739 C 86.043 370.539, 85.504 370, 84.073 370 C 82.642 370, 82 370.642, 82 372.073 M 243.616 377.527 C 241.602 379.541, 241.558 381.389, 243.487 382.989 C 245.959 385.041, 248.169 383.429, 247.814 379.834 C 247.447 376.114, 245.887 375.256, 243.616 377.527 M 278.201 380.199 C 276.444 381.956, 278.047 384, 281.180 384 C 283.392 384, 284.064 383.584, 283.823 382.363 C 283.411 380.275, 279.594 378.806, 278.201 380.199 M 1896.750 459.662 C 1897.438 459.940, 1898.563 459.940, 1899.250 459.662 C 1899.938 459.385, 1899.375 459.158, 1898 459.158 C 1896.625 459.158, 1896.063 459.385, 1896.750 459.662 M 0 935.884 L -0 1080.001 960.250 1079.751 L 1920.500 1079.500 1920.527 935 C 1920.542 855.525, 1920.419 798.263, 1920.253 807.750 L 1919.953 825 1909.226 825.011 C 1902.186 825.018, 1896.782 825.570, 1893.500 826.618 C 1890.750 827.496, 1886.824 828.149, 1884.776 828.068 C 1882.727 827.988, 1879.596 828.675, 1877.817 829.595 C 1876.038 830.515, 1871.864 831.670, 1868.541 832.163 C 1851.774 834.650, 1850.885 834.835, 1845.500 836.977 C 1841.148 838.707, 1836.111 840.013, 1815 844.883 C 1813.075 845.327, 1809.911 846.597, 1807.969 847.705 C 1806.027 848.813, 1801.933 849.993, 1798.871 850.327 C 1795.809 850.661, 1792.169 851.365, 1790.781 851.893 C 1789.394 852.421, 1783.138 854.026, 1776.879 855.460 C 1770.621 856.895, 1763.025 858.706, 1760 859.486 C 1756.975 860.265, 1752.897 861.108, 1750.938 861.358 C 1748.978 861.609, 1745.378 862.723, 1742.938 863.835 C 1740.497 864.947, 1735.800 866.615, 1732.500 867.542 C 1729.200 868.469, 1724.475 869.944, 1722 870.821 C 1719.525 871.697, 1716.600 872.508, 1715.500 872.623 C 1714.400 872.738, 1710.676 873.089, 1707.225 873.403 C 1703.774 873.717, 1699.724 874.593, 1698.225 875.349 C 1696.726 876.105, 1692.179 876.989, 1688.121 877.314 C 1682.546 877.761, 1679.795 878.532, 1676.871 880.467 C 1674.742 881.876, 1673 883.483, 1673 884.039 C 1673 884.595, 1671.987 885.487, 1670.750 886.022 C 1669.513 886.557, 1667.825 887.380, 1667 887.851 C 1657.671 893.174, 1652.857 894.248, 1637.500 894.427 C 1626.764 894.553, 1622.735 894.974, 1620.219 896.234 C 1618.415 897.138, 1613.465 898.641, 1609.219 899.576 C 1604.974 900.510, 1600.338 902.090, 1598.917 903.086 C 1597.496 904.083, 1594.121 905.191, 1591.417 905.549 C 1588.713 905.907, 1585.825 906.775, 1585 907.478 C 1584.175 908.180, 1581.362 909.063, 1578.750 909.439 C 1576.137 909.815, 1574 910.489, 1574 910.936 C 1574 911.384, 1572.537 912.038, 1570.750 912.391 C 1568.962 912.743, 1565.250 914.119, 1562.500 915.448 C 1559.750 916.776, 1556.150 918.048, 1554.500 918.273 C 1552.850 918.499, 1550.825 918.932, 1550 919.237 C 1549.175 919.542, 1541.759 920.319, 1533.521 920.964 C 1525.282 921.608, 1517.988 922.595, 1517.310 923.158 C 1516.131 924.136, 1479.053 926.476, 1447.601 927.557 C 1439.406 927.838, 1429.956 928.537, 1426.601 929.110 C 1423.245 929.682, 1415.100 930.320, 1408.500 930.526 C 1380.970 931.387, 1376.060 931.704, 1374.811 932.703 C 1372.656 934.429, 1361.722 935.343, 1329 936.533 C 1319.375 936.883, 1308.350 937.789, 1304.500 938.546 C 1297.149 939.991, 1279.398 940.731, 1278.305 939.638 C 1276.425 937.759, 1274.451 938.891, 1264.624 947.485 C 1262.505 949.339, 1260.614 950, 1257.433 950 C 1255.060 950, 1252.840 950.450, 1252.500 951 C 1252.160 951.550, 1249.913 952, 1247.506 952 C 1242.406 952, 1231.445 954.192, 1225 956.501 C 1221.165 957.875, 1219.022 957.958, 1210.500 957.059 C 1205 956.480, 1192.850 955.817, 1183.500 955.587 C 1166.900 955.179, 1161.517 954.282, 1154.142 950.694 C 1152.845 950.063, 1149.920 949.592, 1147.642 949.647 C 1145.364 949.703, 1138.387 949.904, 1132.137 950.093 C 1121.642 950.412, 1120.646 950.281, 1119.105 948.377 C 1117.071 945.866, 1112 944.625, 1112 946.639 C 1112 947.424, 1110.942 948, 1109.500 948 C 1108.125 948, 1106.955 948.563, 1106.900 949.250 C 1106.845 949.938, 1106.440 949.375, 1106 948 C 1105.232 945.602, 1105.195 945.591, 1105.100 947.750 C 1105.043 949.039, 1104.359 950, 1103.500 950 C 1102.675 950, 1102 950.473, 1102 951.050 C 1102 951.747, 1096.638 952.041, 1086.055 951.923 C 1070.601 951.751, 1069.974 951.825, 1065.748 954.302 C 1056.276 959.853, 1033 959.873, 1033 954.331 C 1033 953.599, 1032.550 953, 1032 953 C 1031.450 953, 1030.993 951.763, 1030.985 950.250 C 1030.966 946.901, 1030.204 945.671, 1027.157 944.065 C 1023.949 942.374, 1020 943.485, 1020 946.078 C 1020 947.200, 1020.450 947.840, 1021 947.500 C 1021.550 947.160, 1022 947.332, 1022 947.882 C 1022 949.463, 1020.219 950.146, 1019.719 948.756 C 1019.428 947.947, 1018.338 948.559, 1016.658 950.475 C 1012.710 954.978, 997.390 957.878, 994.075 954.750 C 993.015 953.750, 992.658 953.750, 992.292 954.750 C 991.672 956.439, 987.346 956.343, 986.687 954.626 C 985.455 951.416, 976.066 951.898, 973.858 955.284 C 973.449 955.911, 970.548 955.668, 965.858 954.613 C 961.811 953.703, 955.575 952.311, 952 951.520 C 946.082 950.210, 920.566 947.937, 907 947.510 C 903.975 947.415, 897 947.028, 891.500 946.650 C 886 946.272, 865.975 945.512, 847 944.961 C 825.382 944.334, 810.390 943.465, 806.850 942.634 C 803.742 941.905, 797.996 941.215, 794.081 941.101 C 790.166 940.987, 785.059 940.336, 782.732 939.656 C 780.404 938.975, 776.250 938.544, 773.500 938.697 C 766.974 939.060, 750.360 937.263, 747.856 935.923 C 746.779 935.347, 740.408 934.432, 733.699 933.891 C 720.579 932.833, 708.247 929.425, 708.800 927.011 C 708.965 926.291, 708.862 925.084, 708.572 924.328 C 708.141 923.204, 707.678 923.184, 706.023 924.218 C 704.910 924.913, 704 926.048, 704 926.741 C 704 928.501, 690.740 928.422, 687.200 926.641 C 683.775 924.917, 678.258 923.906, 670 923.488 C 660.314 922.998, 639.857 921.094, 637 920.417 C 635.625 920.090, 631.800 919.670, 628.500 919.482 C 615.622 918.750, 591.823 916.859, 577.928 915.463 C 569.914 914.659, 560.368 914, 556.717 914 C 553.065 914, 546.348 913.131, 541.789 912.069 C 537.230 911.006, 530.575 909.895, 527 909.598 C 523.425 909.301, 515.100 907.742, 508.500 906.133 C 501.900 904.523, 494.475 902.884, 492 902.490 C 489.525 902.096, 486.979 901.354, 486.342 900.841 C 485.705 900.328, 481.582 899.744, 477.179 899.542 C 472.776 899.341, 467.672 898.503, 465.837 897.679 C 461.955 895.938, 457.501 894.929, 445.500 893.071 C 434.216 891.325, 418.502 887.978, 416.672 886.931 C 414.639 885.768, 410.972 885.089, 403.500 884.491 C 389.061 883.335, 385.260 882.679, 382.237 880.824 C 378.522 878.543, 378.004 878.441, 361 876.609 C 354.125 875.869, 347.819 874.972, 346.987 874.615 C 346.154 874.259, 339.720 873.112, 332.689 872.066 C 325.657 871.021, 319.363 869.741, 318.702 869.223 C 318.041 868.705, 316.001 867.997, 314.169 867.649 C 312.337 867.302, 309.746 866.159, 308.412 865.110 C 306.816 863.854, 303.510 862.962, 298.743 862.501 C 294.759 862.116, 287.225 860.989, 282 859.997 C 276.775 859.005, 268.974 857.928, 264.664 857.602 C 260.353 857.277, 255.628 856.384, 254.164 855.618 C 252.699 854.852, 248.576 853.684, 245.003 853.022 C 241.430 852.361, 238.280 851.478, 238.003 851.060 C 237.726 850.642, 229.850 850.345, 220.500 850.400 C 206.952 850.480, 202.332 850.145, 197.750 848.750 C 194.588 847.788, 189.412 846.241, 186.250 845.312 C 183.088 844.384, 180.224 843.220, 179.888 842.726 C 179.551 842.232, 178.426 841.947, 177.388 842.092 C 175.130 842.409, 163.920 840.101, 162.500 839.027 C 161.950 838.611, 159.700 838.027, 157.500 837.729 C 155.300 837.431, 151.700 836.374, 149.500 835.379 C 147.300 834.385, 144.602 833.555, 143.505 833.536 C 142.407 833.516, 141.507 832.957, 141.505 832.293 C 141.498 830.488, 137.840 828.073, 135 827.996 C 133.625 827.959, 131.375 827.286, 130 826.500 C 128.625 825.714, 126.138 825.055, 124.473 825.035 C 122.807 825.016, 120.517 824.350, 119.383 823.556 C 118.250 822.762, 115.112 822.075, 112.411 822.029 C 105.294 821.909, 102.927 821.500, 102.160 820.259 C 101.786 819.654, 100.289 818.860, 98.834 818.495 C 97.379 818.129, 95.963 816.967, 95.687 815.911 C 95.378 814.728, 94.624 814.207, 93.721 814.553 C 92.916 814.862, 91.525 814.382, 90.629 813.486 C 89.733 812.590, 89 812.176, 89 812.565 C 89 812.954, 87.814 812.086, 86.364 810.636 C 83.629 807.902, 81.548 807.305, 80.524 808.962 C 80.174 809.528, 79.017 809.580, 77.715 809.088 C 76.497 808.629, 72.125 807.692, 68 807.007 C 63.875 806.322, 59.375 805.196, 58 804.506 C 55.939 803.472, 46.463 801.888, 40 801.497 C 39.175 801.447, 38.612 800.865, 38.750 800.203 C 38.887 799.541, 38.127 799, 37.059 799 C 35.991 799, 34.861 798.585, 34.548 798.077 C 34.234 797.569, 31.620 797.202, 28.739 797.261 C 25.821 797.321, 21.949 796.657, 20 795.762 C 18.075 794.879, 13.800 793.937, 10.500 793.670 C 7.200 793.402, 3.488 792.864, 2.250 792.475 L 0 791.767 0 935.884 M 0.487 936 C 0.487 1015.475, 0.605 1047.987, 0.750 1008.250 C 0.895 968.513, 0.895 903.488, 0.750 863.750 C 0.605 824.013, 0.487 856.525, 0.487 936 M 1107.813 945.683 C 1108.534 945.972, 1109.397 945.936, 1109.729 945.604 C 1110.061 945.272, 1109.471 945.036, 1108.417 945.079 C 1107.252 945.127, 1107.015 945.364, 1107.813 945.683 M 1444.750 945.728 C 1437.784 946.457, 1440.939 948.001, 1449.250 947.930 C 1458.971 947.847, 1463.359 946.722, 1458.078 945.666 C 1454.722 944.994, 1451.627 945.009, 1444.750 945.728 M 1420.500 947.896 C 1418.479 948.331, 1417.913 948.803, 1418.766 949.340 C 1419.463 949.779, 1419.818 950.485, 1419.557 950.908 C 1419.295 951.332, 1421.059 951.754, 1423.478 951.845 C 1425.896 951.937, 1428.155 951.559, 1428.496 951.006 C 1428.838 950.453, 1428.191 950, 1427.059 950 C 1425.927 950, 1425.112 949.494, 1425.250 948.875 C 1425.579 947.395, 1424.170 947.105, 1420.500 947.896" stroke="none" fill="black" fill-rule="evenodd"/>
	<path fill-opacity="0.930" d="M 0 157.500 C 0 314.333, 0.008 315, 2 315 C 3.619 315, 4 314.333, 4 311.500 C 4 309.106, 4.459 308, 5.453 308 C 9.417 308, 11.813 305.758, 12.257 301.632 C 12.501 299.360, 12.318 297.073, 11.850 296.550 C 11.383 296.028, 11 294.340, 11 292.800 C 11 290.480, 11.429 290, 13.500 290 C 15.344 290, 16 289.468, 16 287.975 C 16 286.543, 16.845 285.781, 18.886 285.373 C 22.108 284.728, 24.535 281.154, 23.761 278.192 C 23.366 276.683, 23.668 276.362, 25.127 276.743 C 26.387 277.073, 27 276.704, 27 275.617 C 27 274.727, 27.712 274, 28.583 274 C 29.454 274, 29.969 273.437, 29.728 272.750 C 29.487 272.063, 29.894 269.475, 30.634 267 C 31.373 264.525, 31.983 261.262, 31.989 259.750 C 31.999 257.261, 32.355 256.990, 35.750 256.889 C 37.813 256.828, 40.556 256.866, 41.847 256.974 C 43.142 257.081, 45.064 256.235, 46.136 255.084 C 47.204 253.938, 48.442 253, 48.886 253 C 49.331 253, 50.183 251.988, 50.780 250.750 C 51.376 249.512, 51.895 249.063, 51.932 249.750 C 52.029 251.542, 55 251.300, 55 249.500 C 55 248.667, 54.111 248, 53 248 C 51.667 248, 51 247.333, 51 246 C 51 244.691, 51.667 244, 52.930 244 C 54.137 244, 55.023 243.157, 55.294 241.750 L 55.728 239.500 55.864 241.750 C 55.941 243.023, 56.651 244, 57.500 244 C 58.586 244, 59 242.883, 59 239.950 L 59 235.901 64.850 236.563 C 69.710 237.112, 70.805 236.951, 71.319 235.612 C 71.659 234.725, 72.626 234, 73.469 234 C 74.503 234, 75 233.027, 75 231 C 75 229.350, 75.500 228, 76.111 228 C 76.836 228, 76.998 226.803, 76.577 224.560 C 75.769 220.251, 76.778 216, 78.608 216 C 79.380 216, 80.007 214.998, 80.015 213.750 C 80.024 212.512, 80.361 211.004, 80.765 210.397 C 81.183 209.770, 86.565 208.998, 93.250 208.607 L 105 207.918 105 210.959 C 105 215.872, 106.683 214.444, 107.418 208.908 C 107.800 206.026, 108.941 202.906, 110.047 201.720 C 111.719 199.925, 112 199.866, 112 201.311 C 112 202.240, 112.675 203, 113.500 203 C 114.333 203, 115 202.111, 115 201 C 115 199.667, 115.667 199, 117 199 C 118.333 199, 119 198.333, 119 197 C 119 195.667, 119.667 195, 121 195 C 122.111 195, 123 194.333, 123 193.500 C 123 192.567, 123.944 192, 125.500 192 C 127.796 192, 128 191.633, 128 187.500 L 128 183 132 183 C 135.905 183, 136 182.917, 136 179.500 L 136 176 141.441 176 C 144.434 176, 147.160 175.550, 147.500 175 C 147.840 174.450, 148.991 174, 150.059 174 C 151.549 174, 152 173.303, 152 171 C 152 168.333, 152.333 168, 155 168 C 157.833 168, 158 167.778, 158 164 C 158 161.111, 158.417 160, 159.500 160 C 160.708 160, 161 158.444, 161 152 L 161 144 164.614 144 L 168.228 144 167.500 128 L 166.772 112 169.386 112 L 172 112 172 88 C 172 64.667, 171.944 64, 170 64 C 168.167 64, 168 63.333, 168 56 C 168 48.667, 168.167 48, 170 48 C 171.944 48, 172 47.333, 172 24 L 172 0 86 0 L 0 0 0 157.500 M 176 3.500 L 176 7 183 7 L 190 7 190 3.500 L 190 0 183 0 L 176 0 176 3.500 M 113.500 193 C 111.824 193.720, 112.026 193.871, 114.750 193.930 C 116.537 193.968, 118 193.550, 118 193 C 118 191.813, 116.263 191.813, 113.500 193 M 0 970.626 L 0 1080.001 960.250 1079.751 L 1920.500 1079.500 1920.616 969.500 C 1920.680 909, 1920.543 860.461, 1920.311 861.636 C 1920.044 862.995, 1918.907 863.969, 1917.186 864.313 C 1915.698 864.610, 1913.135 866.011, 1911.491 867.426 C 1909.606 869.046, 1907.298 869.998, 1905.250 869.999 C 1903.463 869.999, 1902 870.429, 1902 870.953 C 1902 871.477, 1898.980 872.812, 1895.288 873.919 C 1890.205 875.444, 1888.396 875.641, 1887.833 874.730 C 1887.259 873.801, 1886.341 873.828, 1883.795 874.850 C 1881.983 875.577, 1879.600 876.439, 1878.500 876.767 C 1876.060 877.493, 1874 879.447, 1874 881.036 C 1874 881.684, 1873.325 881.955, 1872.500 881.638 C 1871.675 881.322, 1871 881.386, 1871 881.781 C 1871 882.177, 1869.537 882.572, 1867.750 882.659 C 1855.236 883.272, 1848.478 884.067, 1848.180 884.961 C 1847.989 885.532, 1846.801 886, 1845.539 886 C 1844.277 886, 1841.502 886.729, 1839.372 887.621 C 1836.934 888.642, 1832.167 889.308, 1826.500 889.420 C 1820.123 889.546, 1816.538 890.109, 1814.200 891.351 C 1812.313 892.352, 1810.040 892.830, 1808.892 892.466 C 1807.788 892.115, 1804.660 892.362, 1801.942 893.014 C 1798.169 893.919, 1797 894.649, 1797 896.100 C 1797 897.645, 1796.264 898, 1793.059 898 C 1790.891 898, 1788.871 898.400, 1788.568 898.890 C 1788.266 899.379, 1786.552 900.012, 1784.759 900.296 C 1777.572 901.438, 1771.484 903.600, 1762.982 908.033 C 1760.076 909.548, 1756.727 909.908, 1743.713 910.104 C 1732.065 910.279, 1727.674 910.687, 1726.859 911.670 C 1726.252 912.402, 1724.910 913, 1723.878 913 C 1722.845 913, 1722 913.353, 1722 913.785 C 1722 914.217, 1717.275 915.642, 1711.500 916.953 C 1705.725 918.263, 1701 919.683, 1701 920.107 C 1701 920.531, 1698.863 921.159, 1696.250 921.503 C 1686.982 922.724, 1673.489 926.190, 1672.722 927.545 C 1671.599 929.532, 1665.462 930.988, 1658.183 930.994 C 1653.140 930.999, 1651.225 931.472, 1648.683 933.339 C 1646.932 934.626, 1642.800 936.292, 1639.500 937.042 C 1636.200 937.792, 1632.150 939.174, 1630.500 940.112 C 1628.317 941.354, 1624.097 941.977, 1615 942.401 C 1600.894 943.059, 1593.966 943.861, 1592.500 945.006 C 1591.950 945.436, 1587.419 945.782, 1582.431 945.775 C 1576.381 945.766, 1572.385 946.255, 1570.431 947.244 C 1568.819 948.059, 1566.938 948.525, 1566.250 948.279 C 1565.562 948.034, 1565 948.321, 1565 948.917 C 1565 949.513, 1564.148 950, 1563.107 950 C 1562.066 950, 1560.955 950.675, 1560.638 951.500 C 1560.322 952.325, 1559.422 953, 1558.638 953 C 1557.855 953, 1556.955 953.675, 1556.638 954.500 C 1556.247 955.520, 1556.692 956, 1558.031 956 C 1559.114 956, 1560 956.257, 1560 956.571 C 1560 957.878, 1557.001 960, 1555.155 960 C 1554.061 960, 1553.017 960.437, 1552.833 960.972 C 1552.650 961.506, 1549.391 962.382, 1545.592 962.919 C 1541.792 963.455, 1538.305 964.480, 1537.842 965.197 C 1537.165 966.244, 1536.806 966.205, 1536.015 965 C 1535.357 963.997, 1535.026 963.914, 1535.015 964.750 C 1535.004 965.637, 1532.837 966, 1527.559 966 C 1523.466 966, 1519.840 966.450, 1519.500 967 C 1518.650 968.376, 1514.254 968.263, 1513.784 966.853 C 1513.318 965.454, 1498.317 964.018, 1495.500 965.103 C 1493.813 965.753, 1493.774 965.883, 1495.250 965.937 C 1498.176 966.043, 1497.205 967.796, 1493.807 968.542 C 1492.050 968.928, 1489.993 969.864, 1489.235 970.622 C 1488.296 971.561, 1485.331 972, 1479.929 972 C 1474.710 972, 1472 972.386, 1472 973.128 C 1472 973.946, 1467.950 974.062, 1457.250 973.550 C 1442.438 972.841, 1429 974.079, 1429 976.152 C 1429 976.716, 1426.625 976.831, 1423.130 976.435 C 1419.199 975.990, 1417.030 976.142, 1416.565 976.894 C 1416.091 977.662, 1412.808 977.847, 1406.186 977.479 C 1391.248 976.648, 1387.559 976.178, 1387.185 975.054 C 1386.789 973.868, 1384 976.298, 1384 977.829 C 1384 978.417, 1381.335 978.581, 1377.250 978.243 C 1364.353 977.178, 1351.492 978.517, 1348.174 981.271 C 1346.209 982.902, 1321.361 982.488, 1318.383 980.775 C 1317.898 980.495, 1315.217 979.522, 1312.426 978.611 C 1307.551 977.021, 1307.081 977.040, 1300.426 979.103 C 1294.114 981.060, 1292.082 981.196, 1277.500 980.633 C 1246.578 979.438, 1178.257 978.951, 1155.500 979.762 C 1140.969 980.281, 1131.284 980.224, 1129.198 979.608 C 1126.909 978.932, 1123.071 979.043, 1116.698 979.970 C 1111.639 980.706, 1103.126 981.398, 1097.779 981.508 C 1092.432 981.617, 1087.482 982.182, 1086.779 982.762 C 1085.078 984.164, 1056 985.607, 1056 984.289 C 1056 983.407, 1047.806 982.777, 1019.068 981.447 C 1013.859 981.206, 1010.133 981.475, 1009.318 982.151 C 1008.593 982.753, 1008 982.910, 1008 982.500 C 1008 982.090, 1007.298 982.338, 1006.440 983.050 C 1005.270 984.021, 1001.331 984.242, 990.690 983.936 C 960.887 983.077, 944.983 983.405, 944.062 984.897 C 943.124 986.418, 932.917 985.985, 920 983.877 C 916.425 983.293, 900.630 982.520, 884.901 982.158 C 865.074 981.702, 855.861 981.134, 854.866 980.306 C 854.075 979.649, 851.195 979.115, 848.465 979.119 C 843.643 979.126, 831.134 977.574, 826.359 976.375 C 824.943 976.020, 824 976.226, 824 976.892 C 824 978.946, 807.338 977.776, 801 975.276 C 800.175 974.951, 798.971 974.767, 798.325 974.869 C 797.679 974.970, 796.865 974.591, 796.516 974.027 C 796.167 973.462, 794.343 973, 792.461 973 C 790.580 973, 787.344 972.362, 785.270 971.582 C 781.432 970.139, 776.986 969.469, 764.500 968.452 C 760.650 968.138, 756.375 967.504, 755 967.042 C 753.625 966.580, 748.811 965.200, 744.303 963.977 C 735.741 961.653, 733.864 961.650, 716.500 963.925 C 710.764 964.677, 707.547 964.662, 705.133 963.871 C 703.282 963.264, 699.907 963.030, 697.633 963.349 C 693.349 963.952, 683 962.130, 683 960.773 C 683 960.348, 682.086 960, 680.969 960 C 679.851 960, 678.678 959.325, 678.362 958.500 C 677.665 956.684, 674.366 956.508, 673.659 958.250 C 673.304 959.125, 672.904 959.176, 672.326 958.419 C 670.230 955.674, 655.709 954.732, 637 956.125 C 635.625 956.228, 631.125 955.791, 627 955.156 C 617.336 953.666, 583.175 951.708, 571.340 951.965 C 564.364 952.117, 561.598 951.783, 559.734 950.561 C 557.867 949.338, 555.033 948.997, 547.783 949.124 C 542.556 949.216, 537.766 948.974, 537.140 948.586 C 536.513 948.199, 536 948.274, 536 948.753 C 536 949.233, 531.486 949.527, 525.969 949.407 C 518.544 949.246, 515.271 948.752, 513.374 947.510 C 511.965 946.586, 509.842 946.064, 508.656 946.349 C 505.690 947.062, 491.887 945.420, 491.122 944.264 C 490.180 942.840, 480.783 940.742, 480.092 941.801 C 479.160 943.231, 464.691 940.922, 463.367 939.131 C 462.402 937.827, 458.862 937.618, 439.556 937.723 C 420.520 937.827, 416.788 937.612, 416.318 936.387 C 415.898 935.292, 413.977 934.935, 408.629 934.958 C 392.150 935.029, 385.411 934.489, 382.964 932.901 C 381.609 932.021, 378.713 930.970, 376.530 930.564 C 374.346 930.159, 370.745 929.211, 368.527 928.458 C 366.310 927.705, 361.571 926.825, 357.998 926.503 C 350.545 925.832, 340.055 922.820, 335.207 919.960 C 333.380 918.882, 330.899 917.997, 329.693 917.994 C 328.487 917.990, 326.281 917.352, 324.792 916.575 C 320.053 914.103, 299.241 910.314, 286.381 909.583 C 280.815 909.266, 274.740 908.388, 272.881 907.631 C 271.021 906.874, 265.675 905.712, 261 905.047 C 256.325 904.383, 250.219 902.967, 247.432 901.899 C 244.644 900.832, 241.494 900.081, 240.432 900.230 C 238.705 900.471, 232.904 898.864, 219 894.292 C 216.525 893.478, 213.037 892.580, 211.250 892.297 C 209.462 892.013, 208 891.380, 208 890.891 C 208 890.401, 204.400 890, 200 890 C 195.036 890, 192 890.402, 192 891.059 C 192 891.641, 191.571 891.853, 191.046 891.528 C 190.521 891.204, 183.434 890.021, 175.296 888.898 C 151.719 885.646, 149.555 885.310, 146.959 884.499 C 145.606 884.076, 144.270 883.377, 143.990 882.944 C 143.709 882.512, 140.559 881.886, 136.990 881.554 C 115.975 879.601, 100.469 877.605, 93 875.893 C 88.325 874.821, 82.700 873.915, 80.500 873.880 C 76.476 873.815, 71.208 872.631, 67.500 870.958 C 66.400 870.462, 61.450 869.883, 56.500 869.671 C 51.550 869.460, 44.151 868.774, 40.057 868.146 C 34.438 867.286, 32.439 867.290, 31.899 868.163 C 31.363 869.030, 30.417 869.001, 28.112 868.046 C 26.422 867.346, 23.997 867.035, 22.724 867.354 C 21.121 867.757, 19.641 867.223, 17.909 865.616 C 15.368 863.260, 7.746 861.024, 2.750 861.170 L 0 861.250 0 970.626 M 0.483 970.500 C 0.483 1031, 0.603 1055.603, 0.750 1025.173 C 0.897 994.743, 0.897 945.243, 0.750 915.173 C 0.603 885.103, 0.483 910, 0.483 970.500 M 1509 956 C 1509 956.550, 1510.125 957, 1511.500 957 C 1512.875 957, 1514 956.550, 1514 956 C 1514 955.450, 1512.875 955, 1511.500 955 C 1510.125 955, 1509 955.450, 1509 956" stroke="none" fill="black" fill-rule="evenodd"/>
</svg>