<svg xmlns="http://www.w3.org/2000/svg" width="1920" height="1080" viewBox="0 0 1920 1080" version="1.1">
	<path fill-opacity="0.008" d="M 79.195 45.500 C 79.215 47.150, 79.439 47.704, 79.693 46.731 C 79.947 45.758, 79.930 44.408, 79.656 43.731 C 79.382 43.054, 79.175 43.850, 79.195 45.500 M 65.195 315.500 C 65.215 317.150, 65.439 317.704, 65.693 316.731 C 65.947 315.758, 65.930 314.408, 65.656 313.731 C 65.382 313.054, 65.175 313.850, 65.195 315.500 M 368 554 C 368 554.550, 368.675 555, 369.500 555 C 370.325 555, 371 554.550, 371 554 C 371 553.450, 370.325 553, 369.500 553 C 368.675 553, 368 553.450, 368 554 M 1148.269 979.693 C 1149.242 979.947, 1150.592 979.930, 1151.269 979.656 C 1151.946 979.382, 1151.150 979.175, 1149.500 979.195 C 1147.850 979.215, 1147.296 979.439, 1148.269 979.693" stroke="none" fill="black" fill-rule="evenodd"/>
</svg>